G04 #@! TF.GenerationSoftware,KiCad,Pcbnew,5.1.5-52549c5~84~ubuntu18.04.1*
G04 #@! TF.CreationDate,2020-01-14T22:13:02+01:00*
G04 #@! TF.ProjectId,Speeduino_base,53706565-6475-4696-9e6f-5f626173652e,rev?*
G04 #@! TF.SameCoordinates,Original*
G04 #@! TF.FileFunction,Soldermask,Bot*
G04 #@! TF.FilePolarity,Negative*
%FSLAX46Y46*%
G04 Gerber Fmt 4.6, Leading zero omitted, Abs format (unit mm)*
G04 Created by KiCad (PCBNEW 5.1.5-52549c5~84~ubuntu18.04.1) date 2020-01-14 22:13:02*
%MOMM*%
%LPD*%
G04 APERTURE LIST*
%ADD10C,0.100000*%
G04 APERTURE END LIST*
D10*
G36*
X162953000Y-107708000D02*
G01*
X161151000Y-107708000D01*
X161151000Y-105906000D01*
X162953000Y-105906000D01*
X162953000Y-107708000D01*
G37*
G36*
X167245512Y-105910927D02*
G01*
X167394812Y-105940624D01*
X167558784Y-106008544D01*
X167706354Y-106107147D01*
X167831853Y-106232646D01*
X167930456Y-106380216D01*
X167998376Y-106544188D01*
X168033000Y-106718259D01*
X168033000Y-106895741D01*
X167998376Y-107069812D01*
X167930456Y-107233784D01*
X167831853Y-107381354D01*
X167706354Y-107506853D01*
X167558784Y-107605456D01*
X167394812Y-107673376D01*
X167245512Y-107703073D01*
X167220742Y-107708000D01*
X167043258Y-107708000D01*
X167018488Y-107703073D01*
X166869188Y-107673376D01*
X166705216Y-107605456D01*
X166557646Y-107506853D01*
X166432147Y-107381354D01*
X166333544Y-107233784D01*
X166265624Y-107069812D01*
X166231000Y-106895741D01*
X166231000Y-106718259D01*
X166265624Y-106544188D01*
X166333544Y-106380216D01*
X166432147Y-106232646D01*
X166557646Y-106107147D01*
X166705216Y-106008544D01*
X166869188Y-105940624D01*
X167018488Y-105910927D01*
X167043258Y-105906000D01*
X167220742Y-105906000D01*
X167245512Y-105910927D01*
G37*
G36*
X169785512Y-105910927D02*
G01*
X169934812Y-105940624D01*
X170098784Y-106008544D01*
X170246354Y-106107147D01*
X170371853Y-106232646D01*
X170470456Y-106380216D01*
X170538376Y-106544188D01*
X170573000Y-106718259D01*
X170573000Y-106895741D01*
X170538376Y-107069812D01*
X170470456Y-107233784D01*
X170371853Y-107381354D01*
X170246354Y-107506853D01*
X170098784Y-107605456D01*
X169934812Y-107673376D01*
X169785512Y-107703073D01*
X169760742Y-107708000D01*
X169583258Y-107708000D01*
X169558488Y-107703073D01*
X169409188Y-107673376D01*
X169245216Y-107605456D01*
X169097646Y-107506853D01*
X168972147Y-107381354D01*
X168873544Y-107233784D01*
X168805624Y-107069812D01*
X168771000Y-106895741D01*
X168771000Y-106718259D01*
X168805624Y-106544188D01*
X168873544Y-106380216D01*
X168972147Y-106232646D01*
X169097646Y-106107147D01*
X169245216Y-106008544D01*
X169409188Y-105940624D01*
X169558488Y-105910927D01*
X169583258Y-105906000D01*
X169760742Y-105906000D01*
X169785512Y-105910927D01*
G37*
G36*
X164705512Y-105910927D02*
G01*
X164854812Y-105940624D01*
X165018784Y-106008544D01*
X165166354Y-106107147D01*
X165291853Y-106232646D01*
X165390456Y-106380216D01*
X165458376Y-106544188D01*
X165493000Y-106718259D01*
X165493000Y-106895741D01*
X165458376Y-107069812D01*
X165390456Y-107233784D01*
X165291853Y-107381354D01*
X165166354Y-107506853D01*
X165018784Y-107605456D01*
X164854812Y-107673376D01*
X164705512Y-107703073D01*
X164680742Y-107708000D01*
X164503258Y-107708000D01*
X164478488Y-107703073D01*
X164329188Y-107673376D01*
X164165216Y-107605456D01*
X164017646Y-107506853D01*
X163892147Y-107381354D01*
X163793544Y-107233784D01*
X163725624Y-107069812D01*
X163691000Y-106895741D01*
X163691000Y-106718259D01*
X163725624Y-106544188D01*
X163793544Y-106380216D01*
X163892147Y-106232646D01*
X164017646Y-106107147D01*
X164165216Y-106008544D01*
X164329188Y-105940624D01*
X164478488Y-105910927D01*
X164503258Y-105906000D01*
X164680742Y-105906000D01*
X164705512Y-105910927D01*
G37*
G36*
X127494512Y-103116927D02*
G01*
X127643812Y-103146624D01*
X127807784Y-103214544D01*
X127955354Y-103313147D01*
X128080853Y-103438646D01*
X128179456Y-103586216D01*
X128247376Y-103750188D01*
X128282000Y-103924259D01*
X128282000Y-104101741D01*
X128247376Y-104275812D01*
X128179456Y-104439784D01*
X128080853Y-104587354D01*
X127955354Y-104712853D01*
X127807784Y-104811456D01*
X127643812Y-104879376D01*
X127494512Y-104909073D01*
X127469742Y-104914000D01*
X127292258Y-104914000D01*
X127267488Y-104909073D01*
X127118188Y-104879376D01*
X126954216Y-104811456D01*
X126806646Y-104712853D01*
X126681147Y-104587354D01*
X126582544Y-104439784D01*
X126514624Y-104275812D01*
X126480000Y-104101741D01*
X126480000Y-103924259D01*
X126514624Y-103750188D01*
X126582544Y-103586216D01*
X126681147Y-103438646D01*
X126806646Y-103313147D01*
X126954216Y-103214544D01*
X127118188Y-103146624D01*
X127267488Y-103116927D01*
X127292258Y-103112000D01*
X127469742Y-103112000D01*
X127494512Y-103116927D01*
G37*
G36*
X131558512Y-103116927D02*
G01*
X131707812Y-103146624D01*
X131871784Y-103214544D01*
X132019354Y-103313147D01*
X132144853Y-103438646D01*
X132243456Y-103586216D01*
X132311376Y-103750188D01*
X132346000Y-103924259D01*
X132346000Y-104101741D01*
X132311376Y-104275812D01*
X132243456Y-104439784D01*
X132144853Y-104587354D01*
X132019354Y-104712853D01*
X131871784Y-104811456D01*
X131707812Y-104879376D01*
X131558512Y-104909073D01*
X131533742Y-104914000D01*
X131356258Y-104914000D01*
X131331488Y-104909073D01*
X131182188Y-104879376D01*
X131018216Y-104811456D01*
X130870646Y-104712853D01*
X130745147Y-104587354D01*
X130646544Y-104439784D01*
X130578624Y-104275812D01*
X130544000Y-104101741D01*
X130544000Y-103924259D01*
X130578624Y-103750188D01*
X130646544Y-103586216D01*
X130745147Y-103438646D01*
X130870646Y-103313147D01*
X131018216Y-103214544D01*
X131182188Y-103146624D01*
X131331488Y-103116927D01*
X131356258Y-103112000D01*
X131533742Y-103112000D01*
X131558512Y-103116927D01*
G37*
G36*
X132346000Y-102374000D02*
G01*
X130544000Y-102374000D01*
X130544000Y-100572000D01*
X132346000Y-100572000D01*
X132346000Y-102374000D01*
G37*
G36*
X128282000Y-102374000D02*
G01*
X126480000Y-102374000D01*
X126480000Y-100572000D01*
X128282000Y-100572000D01*
X128282000Y-102374000D01*
G37*
G36*
X153251903Y-96939587D02*
G01*
X153409068Y-97004687D01*
X153550513Y-97099198D01*
X153670802Y-97219487D01*
X153765313Y-97360932D01*
X153830413Y-97518097D01*
X153863600Y-97684943D01*
X153863600Y-97855057D01*
X153830413Y-98021903D01*
X153765313Y-98179068D01*
X153670802Y-98320513D01*
X153550513Y-98440802D01*
X153409068Y-98535313D01*
X153251903Y-98600413D01*
X153085057Y-98633600D01*
X152914943Y-98633600D01*
X152748097Y-98600413D01*
X152590932Y-98535313D01*
X152449487Y-98440802D01*
X152329198Y-98320513D01*
X152234687Y-98179068D01*
X152169587Y-98021903D01*
X152136400Y-97855057D01*
X152136400Y-97684943D01*
X152169587Y-97518097D01*
X152234687Y-97360932D01*
X152329198Y-97219487D01*
X152449487Y-97099198D01*
X152590932Y-97004687D01*
X152748097Y-96939587D01*
X152914943Y-96906400D01*
X153085057Y-96906400D01*
X153251903Y-96939587D01*
G37*
G36*
X143091903Y-96939587D02*
G01*
X143249068Y-97004687D01*
X143390513Y-97099198D01*
X143510802Y-97219487D01*
X143605313Y-97360932D01*
X143670413Y-97518097D01*
X143703600Y-97684943D01*
X143703600Y-97855057D01*
X143670413Y-98021903D01*
X143605313Y-98179068D01*
X143510802Y-98320513D01*
X143390513Y-98440802D01*
X143249068Y-98535313D01*
X143091903Y-98600413D01*
X142925057Y-98633600D01*
X142754943Y-98633600D01*
X142588097Y-98600413D01*
X142430932Y-98535313D01*
X142289487Y-98440802D01*
X142169198Y-98320513D01*
X142074687Y-98179068D01*
X142009587Y-98021903D01*
X141976400Y-97855057D01*
X141976400Y-97684943D01*
X142009587Y-97518097D01*
X142074687Y-97360932D01*
X142169198Y-97219487D01*
X142289487Y-97099198D01*
X142430932Y-97004687D01*
X142588097Y-96939587D01*
X142754943Y-96906400D01*
X142925057Y-96906400D01*
X143091903Y-96939587D01*
G37*
G36*
X150711903Y-96939587D02*
G01*
X150869068Y-97004687D01*
X151010513Y-97099198D01*
X151130802Y-97219487D01*
X151225313Y-97360932D01*
X151290413Y-97518097D01*
X151323600Y-97684943D01*
X151323600Y-97855057D01*
X151290413Y-98021903D01*
X151225313Y-98179068D01*
X151130802Y-98320513D01*
X151010513Y-98440802D01*
X150869068Y-98535313D01*
X150711903Y-98600413D01*
X150545057Y-98633600D01*
X150374943Y-98633600D01*
X150208097Y-98600413D01*
X150050932Y-98535313D01*
X149909487Y-98440802D01*
X149789198Y-98320513D01*
X149694687Y-98179068D01*
X149629587Y-98021903D01*
X149596400Y-97855057D01*
X149596400Y-97684943D01*
X149629587Y-97518097D01*
X149694687Y-97360932D01*
X149789198Y-97219487D01*
X149909487Y-97099198D01*
X150050932Y-97004687D01*
X150208097Y-96939587D01*
X150374943Y-96906400D01*
X150545057Y-96906400D01*
X150711903Y-96939587D01*
G37*
G36*
X148171903Y-96939587D02*
G01*
X148329068Y-97004687D01*
X148470513Y-97099198D01*
X148590802Y-97219487D01*
X148685313Y-97360932D01*
X148750413Y-97518097D01*
X148783600Y-97684943D01*
X148783600Y-97855057D01*
X148750413Y-98021903D01*
X148685313Y-98179068D01*
X148590802Y-98320513D01*
X148470513Y-98440802D01*
X148329068Y-98535313D01*
X148171903Y-98600413D01*
X148005057Y-98633600D01*
X147834943Y-98633600D01*
X147668097Y-98600413D01*
X147510932Y-98535313D01*
X147369487Y-98440802D01*
X147249198Y-98320513D01*
X147154687Y-98179068D01*
X147089587Y-98021903D01*
X147056400Y-97855057D01*
X147056400Y-97684943D01*
X147089587Y-97518097D01*
X147154687Y-97360932D01*
X147249198Y-97219487D01*
X147369487Y-97099198D01*
X147510932Y-97004687D01*
X147668097Y-96939587D01*
X147834943Y-96906400D01*
X148005057Y-96906400D01*
X148171903Y-96939587D01*
G37*
G36*
X145631903Y-96939587D02*
G01*
X145789068Y-97004687D01*
X145930513Y-97099198D01*
X146050802Y-97219487D01*
X146145313Y-97360932D01*
X146210413Y-97518097D01*
X146243600Y-97684943D01*
X146243600Y-97855057D01*
X146210413Y-98021903D01*
X146145313Y-98179068D01*
X146050802Y-98320513D01*
X145930513Y-98440802D01*
X145789068Y-98535313D01*
X145631903Y-98600413D01*
X145465057Y-98633600D01*
X145294943Y-98633600D01*
X145128097Y-98600413D01*
X144970932Y-98535313D01*
X144829487Y-98440802D01*
X144709198Y-98320513D01*
X144614687Y-98179068D01*
X144549587Y-98021903D01*
X144516400Y-97855057D01*
X144516400Y-97684943D01*
X144549587Y-97518097D01*
X144614687Y-97360932D01*
X144709198Y-97219487D01*
X144829487Y-97099198D01*
X144970932Y-97004687D01*
X145128097Y-96939587D01*
X145294943Y-96906400D01*
X145465057Y-96906400D01*
X145631903Y-96939587D01*
G37*
G36*
X140551903Y-96939587D02*
G01*
X140709068Y-97004687D01*
X140850513Y-97099198D01*
X140970802Y-97219487D01*
X141065313Y-97360932D01*
X141130413Y-97518097D01*
X141163600Y-97684943D01*
X141163600Y-97855057D01*
X141130413Y-98021903D01*
X141065313Y-98179068D01*
X140970802Y-98320513D01*
X140850513Y-98440802D01*
X140709068Y-98535313D01*
X140551903Y-98600413D01*
X140385057Y-98633600D01*
X140214943Y-98633600D01*
X140048097Y-98600413D01*
X139890932Y-98535313D01*
X139749487Y-98440802D01*
X139629198Y-98320513D01*
X139534687Y-98179068D01*
X139469587Y-98021903D01*
X139436400Y-97855057D01*
X139436400Y-97684943D01*
X139469587Y-97518097D01*
X139534687Y-97360932D01*
X139629198Y-97219487D01*
X139749487Y-97099198D01*
X139890932Y-97004687D01*
X140048097Y-96939587D01*
X140214943Y-96906400D01*
X140385057Y-96906400D01*
X140551903Y-96939587D01*
G37*
G36*
X138011903Y-96939587D02*
G01*
X138169068Y-97004687D01*
X138310513Y-97099198D01*
X138430802Y-97219487D01*
X138525313Y-97360932D01*
X138590413Y-97518097D01*
X138623600Y-97684943D01*
X138623600Y-97855057D01*
X138590413Y-98021903D01*
X138525313Y-98179068D01*
X138430802Y-98320513D01*
X138310513Y-98440802D01*
X138169068Y-98535313D01*
X138011903Y-98600413D01*
X137845057Y-98633600D01*
X137674943Y-98633600D01*
X137508097Y-98600413D01*
X137350932Y-98535313D01*
X137209487Y-98440802D01*
X137089198Y-98320513D01*
X136994687Y-98179068D01*
X136929587Y-98021903D01*
X136896400Y-97855057D01*
X136896400Y-97684943D01*
X136929587Y-97518097D01*
X136994687Y-97360932D01*
X137089198Y-97219487D01*
X137209487Y-97099198D01*
X137350932Y-97004687D01*
X137508097Y-96939587D01*
X137674943Y-96906400D01*
X137845057Y-96906400D01*
X138011903Y-96939587D01*
G37*
G36*
X135471903Y-96939587D02*
G01*
X135629068Y-97004687D01*
X135770513Y-97099198D01*
X135890802Y-97219487D01*
X135985313Y-97360932D01*
X136050413Y-97518097D01*
X136083600Y-97684943D01*
X136083600Y-97855057D01*
X136050413Y-98021903D01*
X135985313Y-98179068D01*
X135890802Y-98320513D01*
X135770513Y-98440802D01*
X135629068Y-98535313D01*
X135471903Y-98600413D01*
X135305057Y-98633600D01*
X135134943Y-98633600D01*
X134968097Y-98600413D01*
X134810932Y-98535313D01*
X134669487Y-98440802D01*
X134549198Y-98320513D01*
X134454687Y-98179068D01*
X134389587Y-98021903D01*
X134356400Y-97855057D01*
X134356400Y-97684943D01*
X134389587Y-97518097D01*
X134454687Y-97360932D01*
X134549198Y-97219487D01*
X134669487Y-97099198D01*
X134810932Y-97004687D01*
X134968097Y-96939587D01*
X135134943Y-96906400D01*
X135305057Y-96906400D01*
X135471903Y-96939587D01*
G37*
G36*
X132931903Y-96939587D02*
G01*
X133089068Y-97004687D01*
X133230513Y-97099198D01*
X133350802Y-97219487D01*
X133445313Y-97360932D01*
X133510413Y-97518097D01*
X133543600Y-97684943D01*
X133543600Y-97855057D01*
X133510413Y-98021903D01*
X133445313Y-98179068D01*
X133350802Y-98320513D01*
X133230513Y-98440802D01*
X133089068Y-98535313D01*
X132931903Y-98600413D01*
X132765057Y-98633600D01*
X132594943Y-98633600D01*
X132428097Y-98600413D01*
X132270932Y-98535313D01*
X132129487Y-98440802D01*
X132009198Y-98320513D01*
X131914687Y-98179068D01*
X131849587Y-98021903D01*
X131816400Y-97855057D01*
X131816400Y-97684943D01*
X131849587Y-97518097D01*
X131914687Y-97360932D01*
X132009198Y-97219487D01*
X132129487Y-97099198D01*
X132270932Y-97004687D01*
X132428097Y-96939587D01*
X132594943Y-96906400D01*
X132765057Y-96906400D01*
X132931903Y-96939587D01*
G37*
G36*
X130391903Y-96939587D02*
G01*
X130549068Y-97004687D01*
X130690513Y-97099198D01*
X130810802Y-97219487D01*
X130905313Y-97360932D01*
X130970413Y-97518097D01*
X131003600Y-97684943D01*
X131003600Y-97855057D01*
X130970413Y-98021903D01*
X130905313Y-98179068D01*
X130810802Y-98320513D01*
X130690513Y-98440802D01*
X130549068Y-98535313D01*
X130391903Y-98600413D01*
X130225057Y-98633600D01*
X130054943Y-98633600D01*
X129888097Y-98600413D01*
X129730932Y-98535313D01*
X129589487Y-98440802D01*
X129469198Y-98320513D01*
X129374687Y-98179068D01*
X129309587Y-98021903D01*
X129276400Y-97855057D01*
X129276400Y-97684943D01*
X129309587Y-97518097D01*
X129374687Y-97360932D01*
X129469198Y-97219487D01*
X129589487Y-97099198D01*
X129730932Y-97004687D01*
X129888097Y-96939587D01*
X130054943Y-96906400D01*
X130225057Y-96906400D01*
X130391903Y-96939587D01*
G37*
G36*
X127851903Y-96939587D02*
G01*
X128009068Y-97004687D01*
X128150513Y-97099198D01*
X128270802Y-97219487D01*
X128365313Y-97360932D01*
X128430413Y-97518097D01*
X128463600Y-97684943D01*
X128463600Y-97855057D01*
X128430413Y-98021903D01*
X128365313Y-98179068D01*
X128270802Y-98320513D01*
X128150513Y-98440802D01*
X128009068Y-98535313D01*
X127851903Y-98600413D01*
X127685057Y-98633600D01*
X127514943Y-98633600D01*
X127348097Y-98600413D01*
X127190932Y-98535313D01*
X127049487Y-98440802D01*
X126929198Y-98320513D01*
X126834687Y-98179068D01*
X126769587Y-98021903D01*
X126736400Y-97855057D01*
X126736400Y-97684943D01*
X126769587Y-97518097D01*
X126834687Y-97360932D01*
X126929198Y-97219487D01*
X127049487Y-97099198D01*
X127190932Y-97004687D01*
X127348097Y-96939587D01*
X127514943Y-96906400D01*
X127685057Y-96906400D01*
X127851903Y-96939587D01*
G37*
G36*
X125311903Y-96939587D02*
G01*
X125469068Y-97004687D01*
X125610513Y-97099198D01*
X125730802Y-97219487D01*
X125825313Y-97360932D01*
X125890413Y-97518097D01*
X125923600Y-97684943D01*
X125923600Y-97855057D01*
X125890413Y-98021903D01*
X125825313Y-98179068D01*
X125730802Y-98320513D01*
X125610513Y-98440802D01*
X125469068Y-98535313D01*
X125311903Y-98600413D01*
X125145057Y-98633600D01*
X124974943Y-98633600D01*
X124808097Y-98600413D01*
X124650932Y-98535313D01*
X124509487Y-98440802D01*
X124389198Y-98320513D01*
X124294687Y-98179068D01*
X124229587Y-98021903D01*
X124196400Y-97855057D01*
X124196400Y-97684943D01*
X124229587Y-97518097D01*
X124294687Y-97360932D01*
X124389198Y-97219487D01*
X124509487Y-97099198D01*
X124650932Y-97004687D01*
X124808097Y-96939587D01*
X124974943Y-96906400D01*
X125145057Y-96906400D01*
X125311903Y-96939587D01*
G37*
G36*
X158331903Y-96939587D02*
G01*
X158489068Y-97004687D01*
X158630513Y-97099198D01*
X158750802Y-97219487D01*
X158845313Y-97360932D01*
X158910413Y-97518097D01*
X158943600Y-97684943D01*
X158943600Y-97855057D01*
X158910413Y-98021903D01*
X158845313Y-98179068D01*
X158750802Y-98320513D01*
X158630513Y-98440802D01*
X158489068Y-98535313D01*
X158331903Y-98600413D01*
X158165057Y-98633600D01*
X157994943Y-98633600D01*
X157828097Y-98600413D01*
X157670932Y-98535313D01*
X157529487Y-98440802D01*
X157409198Y-98320513D01*
X157314687Y-98179068D01*
X157249587Y-98021903D01*
X157216400Y-97855057D01*
X157216400Y-97684943D01*
X157249587Y-97518097D01*
X157314687Y-97360932D01*
X157409198Y-97219487D01*
X157529487Y-97099198D01*
X157670932Y-97004687D01*
X157828097Y-96939587D01*
X157994943Y-96906400D01*
X158165057Y-96906400D01*
X158331903Y-96939587D01*
G37*
G36*
X160871903Y-96939587D02*
G01*
X161029068Y-97004687D01*
X161170513Y-97099198D01*
X161290802Y-97219487D01*
X161385313Y-97360932D01*
X161450413Y-97518097D01*
X161483600Y-97684943D01*
X161483600Y-97855057D01*
X161450413Y-98021903D01*
X161385313Y-98179068D01*
X161290802Y-98320513D01*
X161170513Y-98440802D01*
X161029068Y-98535313D01*
X160871903Y-98600413D01*
X160705057Y-98633600D01*
X160534943Y-98633600D01*
X160368097Y-98600413D01*
X160210932Y-98535313D01*
X160069487Y-98440802D01*
X159949198Y-98320513D01*
X159854687Y-98179068D01*
X159789587Y-98021903D01*
X159756400Y-97855057D01*
X159756400Y-97684943D01*
X159789587Y-97518097D01*
X159854687Y-97360932D01*
X159949198Y-97219487D01*
X160069487Y-97099198D01*
X160210932Y-97004687D01*
X160368097Y-96939587D01*
X160534943Y-96906400D01*
X160705057Y-96906400D01*
X160871903Y-96939587D01*
G37*
G36*
X183731903Y-96939587D02*
G01*
X183889068Y-97004687D01*
X184030513Y-97099198D01*
X184150802Y-97219487D01*
X184245313Y-97360932D01*
X184310413Y-97518097D01*
X184343600Y-97684943D01*
X184343600Y-97855057D01*
X184310413Y-98021903D01*
X184245313Y-98179068D01*
X184150802Y-98320513D01*
X184030513Y-98440802D01*
X183889068Y-98535313D01*
X183731903Y-98600413D01*
X183565057Y-98633600D01*
X183394943Y-98633600D01*
X183228097Y-98600413D01*
X183070932Y-98535313D01*
X182929487Y-98440802D01*
X182809198Y-98320513D01*
X182714687Y-98179068D01*
X182649587Y-98021903D01*
X182616400Y-97855057D01*
X182616400Y-97684943D01*
X182649587Y-97518097D01*
X182714687Y-97360932D01*
X182809198Y-97219487D01*
X182929487Y-97099198D01*
X183070932Y-97004687D01*
X183228097Y-96939587D01*
X183394943Y-96906400D01*
X183565057Y-96906400D01*
X183731903Y-96939587D01*
G37*
G36*
X165951903Y-96939587D02*
G01*
X166109068Y-97004687D01*
X166250513Y-97099198D01*
X166370802Y-97219487D01*
X166465313Y-97360932D01*
X166530413Y-97518097D01*
X166563600Y-97684943D01*
X166563600Y-97855057D01*
X166530413Y-98021903D01*
X166465313Y-98179068D01*
X166370802Y-98320513D01*
X166250513Y-98440802D01*
X166109068Y-98535313D01*
X165951903Y-98600413D01*
X165785057Y-98633600D01*
X165614943Y-98633600D01*
X165448097Y-98600413D01*
X165290932Y-98535313D01*
X165149487Y-98440802D01*
X165029198Y-98320513D01*
X164934687Y-98179068D01*
X164869587Y-98021903D01*
X164836400Y-97855057D01*
X164836400Y-97684943D01*
X164869587Y-97518097D01*
X164934687Y-97360932D01*
X165029198Y-97219487D01*
X165149487Y-97099198D01*
X165290932Y-97004687D01*
X165448097Y-96939587D01*
X165614943Y-96906400D01*
X165785057Y-96906400D01*
X165951903Y-96939587D01*
G37*
G36*
X181191903Y-96939587D02*
G01*
X181349068Y-97004687D01*
X181490513Y-97099198D01*
X181610802Y-97219487D01*
X181705313Y-97360932D01*
X181770413Y-97518097D01*
X181803600Y-97684943D01*
X181803600Y-97855057D01*
X181770413Y-98021903D01*
X181705313Y-98179068D01*
X181610802Y-98320513D01*
X181490513Y-98440802D01*
X181349068Y-98535313D01*
X181191903Y-98600413D01*
X181025057Y-98633600D01*
X180854943Y-98633600D01*
X180688097Y-98600413D01*
X180530932Y-98535313D01*
X180389487Y-98440802D01*
X180269198Y-98320513D01*
X180174687Y-98179068D01*
X180109587Y-98021903D01*
X180076400Y-97855057D01*
X180076400Y-97684943D01*
X180109587Y-97518097D01*
X180174687Y-97360932D01*
X180269198Y-97219487D01*
X180389487Y-97099198D01*
X180530932Y-97004687D01*
X180688097Y-96939587D01*
X180854943Y-96906400D01*
X181025057Y-96906400D01*
X181191903Y-96939587D01*
G37*
G36*
X178651903Y-96939587D02*
G01*
X178809068Y-97004687D01*
X178950513Y-97099198D01*
X179070802Y-97219487D01*
X179165313Y-97360932D01*
X179230413Y-97518097D01*
X179263600Y-97684943D01*
X179263600Y-97855057D01*
X179230413Y-98021903D01*
X179165313Y-98179068D01*
X179070802Y-98320513D01*
X178950513Y-98440802D01*
X178809068Y-98535313D01*
X178651903Y-98600413D01*
X178485057Y-98633600D01*
X178314943Y-98633600D01*
X178148097Y-98600413D01*
X177990932Y-98535313D01*
X177849487Y-98440802D01*
X177729198Y-98320513D01*
X177634687Y-98179068D01*
X177569587Y-98021903D01*
X177536400Y-97855057D01*
X177536400Y-97684943D01*
X177569587Y-97518097D01*
X177634687Y-97360932D01*
X177729198Y-97219487D01*
X177849487Y-97099198D01*
X177990932Y-97004687D01*
X178148097Y-96939587D01*
X178314943Y-96906400D01*
X178485057Y-96906400D01*
X178651903Y-96939587D01*
G37*
G36*
X176111903Y-96939587D02*
G01*
X176269068Y-97004687D01*
X176410513Y-97099198D01*
X176530802Y-97219487D01*
X176625313Y-97360932D01*
X176690413Y-97518097D01*
X176723600Y-97684943D01*
X176723600Y-97855057D01*
X176690413Y-98021903D01*
X176625313Y-98179068D01*
X176530802Y-98320513D01*
X176410513Y-98440802D01*
X176269068Y-98535313D01*
X176111903Y-98600413D01*
X175945057Y-98633600D01*
X175774943Y-98633600D01*
X175608097Y-98600413D01*
X175450932Y-98535313D01*
X175309487Y-98440802D01*
X175189198Y-98320513D01*
X175094687Y-98179068D01*
X175029587Y-98021903D01*
X174996400Y-97855057D01*
X174996400Y-97684943D01*
X175029587Y-97518097D01*
X175094687Y-97360932D01*
X175189198Y-97219487D01*
X175309487Y-97099198D01*
X175450932Y-97004687D01*
X175608097Y-96939587D01*
X175774943Y-96906400D01*
X175945057Y-96906400D01*
X176111903Y-96939587D01*
G37*
G36*
X173571903Y-96939587D02*
G01*
X173729068Y-97004687D01*
X173870513Y-97099198D01*
X173990802Y-97219487D01*
X174085313Y-97360932D01*
X174150413Y-97518097D01*
X174183600Y-97684943D01*
X174183600Y-97855057D01*
X174150413Y-98021903D01*
X174085313Y-98179068D01*
X173990802Y-98320513D01*
X173870513Y-98440802D01*
X173729068Y-98535313D01*
X173571903Y-98600413D01*
X173405057Y-98633600D01*
X173234943Y-98633600D01*
X173068097Y-98600413D01*
X172910932Y-98535313D01*
X172769487Y-98440802D01*
X172649198Y-98320513D01*
X172554687Y-98179068D01*
X172489587Y-98021903D01*
X172456400Y-97855057D01*
X172456400Y-97684943D01*
X172489587Y-97518097D01*
X172554687Y-97360932D01*
X172649198Y-97219487D01*
X172769487Y-97099198D01*
X172910932Y-97004687D01*
X173068097Y-96939587D01*
X173234943Y-96906400D01*
X173405057Y-96906400D01*
X173571903Y-96939587D01*
G37*
G36*
X171031903Y-96939587D02*
G01*
X171189068Y-97004687D01*
X171330513Y-97099198D01*
X171450802Y-97219487D01*
X171545313Y-97360932D01*
X171610413Y-97518097D01*
X171643600Y-97684943D01*
X171643600Y-97855057D01*
X171610413Y-98021903D01*
X171545313Y-98179068D01*
X171450802Y-98320513D01*
X171330513Y-98440802D01*
X171189068Y-98535313D01*
X171031903Y-98600413D01*
X170865057Y-98633600D01*
X170694943Y-98633600D01*
X170528097Y-98600413D01*
X170370932Y-98535313D01*
X170229487Y-98440802D01*
X170109198Y-98320513D01*
X170014687Y-98179068D01*
X169949587Y-98021903D01*
X169916400Y-97855057D01*
X169916400Y-97684943D01*
X169949587Y-97518097D01*
X170014687Y-97360932D01*
X170109198Y-97219487D01*
X170229487Y-97099198D01*
X170370932Y-97004687D01*
X170528097Y-96939587D01*
X170694943Y-96906400D01*
X170865057Y-96906400D01*
X171031903Y-96939587D01*
G37*
G36*
X168491903Y-96939587D02*
G01*
X168649068Y-97004687D01*
X168790513Y-97099198D01*
X168910802Y-97219487D01*
X169005313Y-97360932D01*
X169070413Y-97518097D01*
X169103600Y-97684943D01*
X169103600Y-97855057D01*
X169070413Y-98021903D01*
X169005313Y-98179068D01*
X168910802Y-98320513D01*
X168790513Y-98440802D01*
X168649068Y-98535313D01*
X168491903Y-98600413D01*
X168325057Y-98633600D01*
X168154943Y-98633600D01*
X167988097Y-98600413D01*
X167830932Y-98535313D01*
X167689487Y-98440802D01*
X167569198Y-98320513D01*
X167474687Y-98179068D01*
X167409587Y-98021903D01*
X167376400Y-97855057D01*
X167376400Y-97684943D01*
X167409587Y-97518097D01*
X167474687Y-97360932D01*
X167569198Y-97219487D01*
X167689487Y-97099198D01*
X167830932Y-97004687D01*
X167988097Y-96939587D01*
X168154943Y-96906400D01*
X168325057Y-96906400D01*
X168491903Y-96939587D01*
G37*
G36*
X163411903Y-96939587D02*
G01*
X163569068Y-97004687D01*
X163710513Y-97099198D01*
X163830802Y-97219487D01*
X163925313Y-97360932D01*
X163990413Y-97518097D01*
X164023600Y-97684943D01*
X164023600Y-97855057D01*
X163990413Y-98021903D01*
X163925313Y-98179068D01*
X163830802Y-98320513D01*
X163710513Y-98440802D01*
X163569068Y-98535313D01*
X163411903Y-98600413D01*
X163245057Y-98633600D01*
X163074943Y-98633600D01*
X162908097Y-98600413D01*
X162750932Y-98535313D01*
X162609487Y-98440802D01*
X162489198Y-98320513D01*
X162394687Y-98179068D01*
X162329587Y-98021903D01*
X162296400Y-97855057D01*
X162296400Y-97684943D01*
X162329587Y-97518097D01*
X162394687Y-97360932D01*
X162489198Y-97219487D01*
X162609487Y-97099198D01*
X162750932Y-97004687D01*
X162908097Y-96939587D01*
X163074943Y-96906400D01*
X163245057Y-96906400D01*
X163411903Y-96939587D01*
G37*
G36*
X155791903Y-96939587D02*
G01*
X155949068Y-97004687D01*
X156090513Y-97099198D01*
X156210802Y-97219487D01*
X156305313Y-97360932D01*
X156370413Y-97518097D01*
X156403600Y-97684943D01*
X156403600Y-97855057D01*
X156370413Y-98021903D01*
X156305313Y-98179068D01*
X156210802Y-98320513D01*
X156090513Y-98440802D01*
X155949068Y-98535313D01*
X155791903Y-98600413D01*
X155625057Y-98633600D01*
X155454943Y-98633600D01*
X155288097Y-98600413D01*
X155130932Y-98535313D01*
X154989487Y-98440802D01*
X154869198Y-98320513D01*
X154774687Y-98179068D01*
X154709587Y-98021903D01*
X154676400Y-97855057D01*
X154676400Y-97684943D01*
X154709587Y-97518097D01*
X154774687Y-97360932D01*
X154869198Y-97219487D01*
X154989487Y-97099198D01*
X155130932Y-97004687D01*
X155288097Y-96939587D01*
X155454943Y-96906400D01*
X155625057Y-96906400D01*
X155791903Y-96939587D01*
G37*
G36*
X211375307Y-93757498D02*
G01*
X211413318Y-93769029D01*
X211448342Y-93787749D01*
X211479049Y-93812951D01*
X211504251Y-93843658D01*
X211522971Y-93878682D01*
X211534502Y-93916693D01*
X211539000Y-93962363D01*
X211539000Y-97045637D01*
X211534502Y-97091307D01*
X211522971Y-97129318D01*
X211504251Y-97164342D01*
X211479049Y-97195049D01*
X211448342Y-97220251D01*
X211413318Y-97238971D01*
X211375307Y-97250502D01*
X211329637Y-97255000D01*
X210521363Y-97255000D01*
X210475693Y-97250502D01*
X210437682Y-97238971D01*
X210402658Y-97220251D01*
X210371951Y-97195049D01*
X210346749Y-97164342D01*
X210328029Y-97129318D01*
X210316498Y-97091307D01*
X210312000Y-97045637D01*
X210312000Y-93962363D01*
X210316498Y-93916693D01*
X210328029Y-93878682D01*
X210346749Y-93843658D01*
X210371951Y-93812951D01*
X210402658Y-93787749D01*
X210437682Y-93769029D01*
X210475693Y-93757498D01*
X210521363Y-93753000D01*
X211329637Y-93753000D01*
X211375307Y-93757498D01*
G37*
G36*
X207100307Y-93757498D02*
G01*
X207138318Y-93769029D01*
X207173342Y-93787749D01*
X207204049Y-93812951D01*
X207229251Y-93843658D01*
X207247971Y-93878682D01*
X207259502Y-93916693D01*
X207264000Y-93962363D01*
X207264000Y-97045637D01*
X207259502Y-97091307D01*
X207247971Y-97129318D01*
X207229251Y-97164342D01*
X207204049Y-97195049D01*
X207173342Y-97220251D01*
X207138318Y-97238971D01*
X207100307Y-97250502D01*
X207054637Y-97255000D01*
X206246363Y-97255000D01*
X206200693Y-97250502D01*
X206162682Y-97238971D01*
X206127658Y-97220251D01*
X206096951Y-97195049D01*
X206071749Y-97164342D01*
X206053029Y-97129318D01*
X206041498Y-97091307D01*
X206037000Y-97045637D01*
X206037000Y-93962363D01*
X206041498Y-93916693D01*
X206053029Y-93878682D01*
X206071749Y-93843658D01*
X206096951Y-93812951D01*
X206127658Y-93787749D01*
X206162682Y-93769029D01*
X206200693Y-93757498D01*
X206246363Y-93753000D01*
X207054637Y-93753000D01*
X207100307Y-93757498D01*
G37*
G36*
X143091903Y-94399587D02*
G01*
X143249068Y-94464687D01*
X143390513Y-94559198D01*
X143510802Y-94679487D01*
X143605313Y-94820932D01*
X143670413Y-94978097D01*
X143703600Y-95144943D01*
X143703600Y-95315057D01*
X143670413Y-95481903D01*
X143605313Y-95639068D01*
X143510802Y-95780513D01*
X143390513Y-95900802D01*
X143249068Y-95995313D01*
X143091903Y-96060413D01*
X142925057Y-96093600D01*
X142754943Y-96093600D01*
X142588097Y-96060413D01*
X142430932Y-95995313D01*
X142289487Y-95900802D01*
X142169198Y-95780513D01*
X142074687Y-95639068D01*
X142009587Y-95481903D01*
X141976400Y-95315057D01*
X141976400Y-95144943D01*
X142009587Y-94978097D01*
X142074687Y-94820932D01*
X142169198Y-94679487D01*
X142289487Y-94559198D01*
X142430932Y-94464687D01*
X142588097Y-94399587D01*
X142754943Y-94366400D01*
X142925057Y-94366400D01*
X143091903Y-94399587D01*
G37*
G36*
X140551903Y-94399587D02*
G01*
X140709068Y-94464687D01*
X140850513Y-94559198D01*
X140970802Y-94679487D01*
X141065313Y-94820932D01*
X141130413Y-94978097D01*
X141163600Y-95144943D01*
X141163600Y-95315057D01*
X141130413Y-95481903D01*
X141065313Y-95639068D01*
X140970802Y-95780513D01*
X140850513Y-95900802D01*
X140709068Y-95995313D01*
X140551903Y-96060413D01*
X140385057Y-96093600D01*
X140214943Y-96093600D01*
X140048097Y-96060413D01*
X139890932Y-95995313D01*
X139749487Y-95900802D01*
X139629198Y-95780513D01*
X139534687Y-95639068D01*
X139469587Y-95481903D01*
X139436400Y-95315057D01*
X139436400Y-95144943D01*
X139469587Y-94978097D01*
X139534687Y-94820932D01*
X139629198Y-94679487D01*
X139749487Y-94559198D01*
X139890932Y-94464687D01*
X140048097Y-94399587D01*
X140214943Y-94366400D01*
X140385057Y-94366400D01*
X140551903Y-94399587D01*
G37*
G36*
X138011903Y-94399587D02*
G01*
X138169068Y-94464687D01*
X138310513Y-94559198D01*
X138430802Y-94679487D01*
X138525313Y-94820932D01*
X138590413Y-94978097D01*
X138623600Y-95144943D01*
X138623600Y-95315057D01*
X138590413Y-95481903D01*
X138525313Y-95639068D01*
X138430802Y-95780513D01*
X138310513Y-95900802D01*
X138169068Y-95995313D01*
X138011903Y-96060413D01*
X137845057Y-96093600D01*
X137674943Y-96093600D01*
X137508097Y-96060413D01*
X137350932Y-95995313D01*
X137209487Y-95900802D01*
X137089198Y-95780513D01*
X136994687Y-95639068D01*
X136929587Y-95481903D01*
X136896400Y-95315057D01*
X136896400Y-95144943D01*
X136929587Y-94978097D01*
X136994687Y-94820932D01*
X137089198Y-94679487D01*
X137209487Y-94559198D01*
X137350932Y-94464687D01*
X137508097Y-94399587D01*
X137674943Y-94366400D01*
X137845057Y-94366400D01*
X138011903Y-94399587D01*
G37*
G36*
X135471903Y-94399587D02*
G01*
X135629068Y-94464687D01*
X135770513Y-94559198D01*
X135890802Y-94679487D01*
X135985313Y-94820932D01*
X136050413Y-94978097D01*
X136083600Y-95144943D01*
X136083600Y-95315057D01*
X136050413Y-95481903D01*
X135985313Y-95639068D01*
X135890802Y-95780513D01*
X135770513Y-95900802D01*
X135629068Y-95995313D01*
X135471903Y-96060413D01*
X135305057Y-96093600D01*
X135134943Y-96093600D01*
X134968097Y-96060413D01*
X134810932Y-95995313D01*
X134669487Y-95900802D01*
X134549198Y-95780513D01*
X134454687Y-95639068D01*
X134389587Y-95481903D01*
X134356400Y-95315057D01*
X134356400Y-95144943D01*
X134389587Y-94978097D01*
X134454687Y-94820932D01*
X134549198Y-94679487D01*
X134669487Y-94559198D01*
X134810932Y-94464687D01*
X134968097Y-94399587D01*
X135134943Y-94366400D01*
X135305057Y-94366400D01*
X135471903Y-94399587D01*
G37*
G36*
X132931903Y-94399587D02*
G01*
X133089068Y-94464687D01*
X133230513Y-94559198D01*
X133350802Y-94679487D01*
X133445313Y-94820932D01*
X133510413Y-94978097D01*
X133543600Y-95144943D01*
X133543600Y-95315057D01*
X133510413Y-95481903D01*
X133445313Y-95639068D01*
X133350802Y-95780513D01*
X133230513Y-95900802D01*
X133089068Y-95995313D01*
X132931903Y-96060413D01*
X132765057Y-96093600D01*
X132594943Y-96093600D01*
X132428097Y-96060413D01*
X132270932Y-95995313D01*
X132129487Y-95900802D01*
X132009198Y-95780513D01*
X131914687Y-95639068D01*
X131849587Y-95481903D01*
X131816400Y-95315057D01*
X131816400Y-95144943D01*
X131849587Y-94978097D01*
X131914687Y-94820932D01*
X132009198Y-94679487D01*
X132129487Y-94559198D01*
X132270932Y-94464687D01*
X132428097Y-94399587D01*
X132594943Y-94366400D01*
X132765057Y-94366400D01*
X132931903Y-94399587D01*
G37*
G36*
X130391903Y-94399587D02*
G01*
X130549068Y-94464687D01*
X130690513Y-94559198D01*
X130810802Y-94679487D01*
X130905313Y-94820932D01*
X130970413Y-94978097D01*
X131003600Y-95144943D01*
X131003600Y-95315057D01*
X130970413Y-95481903D01*
X130905313Y-95639068D01*
X130810802Y-95780513D01*
X130690513Y-95900802D01*
X130549068Y-95995313D01*
X130391903Y-96060413D01*
X130225057Y-96093600D01*
X130054943Y-96093600D01*
X129888097Y-96060413D01*
X129730932Y-95995313D01*
X129589487Y-95900802D01*
X129469198Y-95780513D01*
X129374687Y-95639068D01*
X129309587Y-95481903D01*
X129276400Y-95315057D01*
X129276400Y-95144943D01*
X129309587Y-94978097D01*
X129374687Y-94820932D01*
X129469198Y-94679487D01*
X129589487Y-94559198D01*
X129730932Y-94464687D01*
X129888097Y-94399587D01*
X130054943Y-94366400D01*
X130225057Y-94366400D01*
X130391903Y-94399587D01*
G37*
G36*
X127851903Y-94399587D02*
G01*
X128009068Y-94464687D01*
X128150513Y-94559198D01*
X128270802Y-94679487D01*
X128365313Y-94820932D01*
X128430413Y-94978097D01*
X128463600Y-95144943D01*
X128463600Y-95315057D01*
X128430413Y-95481903D01*
X128365313Y-95639068D01*
X128270802Y-95780513D01*
X128150513Y-95900802D01*
X128009068Y-95995313D01*
X127851903Y-96060413D01*
X127685057Y-96093600D01*
X127514943Y-96093600D01*
X127348097Y-96060413D01*
X127190932Y-95995313D01*
X127049487Y-95900802D01*
X126929198Y-95780513D01*
X126834687Y-95639068D01*
X126769587Y-95481903D01*
X126736400Y-95315057D01*
X126736400Y-95144943D01*
X126769587Y-94978097D01*
X126834687Y-94820932D01*
X126929198Y-94679487D01*
X127049487Y-94559198D01*
X127190932Y-94464687D01*
X127348097Y-94399587D01*
X127514943Y-94366400D01*
X127685057Y-94366400D01*
X127851903Y-94399587D01*
G37*
G36*
X125311903Y-94399587D02*
G01*
X125469068Y-94464687D01*
X125610513Y-94559198D01*
X125730802Y-94679487D01*
X125825313Y-94820932D01*
X125890413Y-94978097D01*
X125923600Y-95144943D01*
X125923600Y-95315057D01*
X125890413Y-95481903D01*
X125825313Y-95639068D01*
X125730802Y-95780513D01*
X125610513Y-95900802D01*
X125469068Y-95995313D01*
X125311903Y-96060413D01*
X125145057Y-96093600D01*
X124974943Y-96093600D01*
X124808097Y-96060413D01*
X124650932Y-95995313D01*
X124509487Y-95900802D01*
X124389198Y-95780513D01*
X124294687Y-95639068D01*
X124229587Y-95481903D01*
X124196400Y-95315057D01*
X124196400Y-95144943D01*
X124229587Y-94978097D01*
X124294687Y-94820932D01*
X124389198Y-94679487D01*
X124509487Y-94559198D01*
X124650932Y-94464687D01*
X124808097Y-94399587D01*
X124974943Y-94366400D01*
X125145057Y-94366400D01*
X125311903Y-94399587D01*
G37*
G36*
X148171903Y-94399587D02*
G01*
X148329068Y-94464687D01*
X148470513Y-94559198D01*
X148590802Y-94679487D01*
X148685313Y-94820932D01*
X148750413Y-94978097D01*
X148783600Y-95144943D01*
X148783600Y-95315057D01*
X148750413Y-95481903D01*
X148685313Y-95639068D01*
X148590802Y-95780513D01*
X148470513Y-95900802D01*
X148329068Y-95995313D01*
X148171903Y-96060413D01*
X148005057Y-96093600D01*
X147834943Y-96093600D01*
X147668097Y-96060413D01*
X147510932Y-95995313D01*
X147369487Y-95900802D01*
X147249198Y-95780513D01*
X147154687Y-95639068D01*
X147089587Y-95481903D01*
X147056400Y-95315057D01*
X147056400Y-95144943D01*
X147089587Y-94978097D01*
X147154687Y-94820932D01*
X147249198Y-94679487D01*
X147369487Y-94559198D01*
X147510932Y-94464687D01*
X147668097Y-94399587D01*
X147834943Y-94366400D01*
X148005057Y-94366400D01*
X148171903Y-94399587D01*
G37*
G36*
X168491903Y-94399587D02*
G01*
X168649068Y-94464687D01*
X168790513Y-94559198D01*
X168910802Y-94679487D01*
X169005313Y-94820932D01*
X169070413Y-94978097D01*
X169103600Y-95144943D01*
X169103600Y-95315057D01*
X169070413Y-95481903D01*
X169005313Y-95639068D01*
X168910802Y-95780513D01*
X168790513Y-95900802D01*
X168649068Y-95995313D01*
X168491903Y-96060413D01*
X168325057Y-96093600D01*
X168154943Y-96093600D01*
X167988097Y-96060413D01*
X167830932Y-95995313D01*
X167689487Y-95900802D01*
X167569198Y-95780513D01*
X167474687Y-95639068D01*
X167409587Y-95481903D01*
X167376400Y-95315057D01*
X167376400Y-95144943D01*
X167409587Y-94978097D01*
X167474687Y-94820932D01*
X167569198Y-94679487D01*
X167689487Y-94559198D01*
X167830932Y-94464687D01*
X167988097Y-94399587D01*
X168154943Y-94366400D01*
X168325057Y-94366400D01*
X168491903Y-94399587D01*
G37*
G36*
X165951903Y-94399587D02*
G01*
X166109068Y-94464687D01*
X166250513Y-94559198D01*
X166370802Y-94679487D01*
X166465313Y-94820932D01*
X166530413Y-94978097D01*
X166563600Y-95144943D01*
X166563600Y-95315057D01*
X166530413Y-95481903D01*
X166465313Y-95639068D01*
X166370802Y-95780513D01*
X166250513Y-95900802D01*
X166109068Y-95995313D01*
X165951903Y-96060413D01*
X165785057Y-96093600D01*
X165614943Y-96093600D01*
X165448097Y-96060413D01*
X165290932Y-95995313D01*
X165149487Y-95900802D01*
X165029198Y-95780513D01*
X164934687Y-95639068D01*
X164869587Y-95481903D01*
X164836400Y-95315057D01*
X164836400Y-95144943D01*
X164869587Y-94978097D01*
X164934687Y-94820932D01*
X165029198Y-94679487D01*
X165149487Y-94559198D01*
X165290932Y-94464687D01*
X165448097Y-94399587D01*
X165614943Y-94366400D01*
X165785057Y-94366400D01*
X165951903Y-94399587D01*
G37*
G36*
X163411903Y-94399587D02*
G01*
X163569068Y-94464687D01*
X163710513Y-94559198D01*
X163830802Y-94679487D01*
X163925313Y-94820932D01*
X163990413Y-94978097D01*
X164023600Y-95144943D01*
X164023600Y-95315057D01*
X163990413Y-95481903D01*
X163925313Y-95639068D01*
X163830802Y-95780513D01*
X163710513Y-95900802D01*
X163569068Y-95995313D01*
X163411903Y-96060413D01*
X163245057Y-96093600D01*
X163074943Y-96093600D01*
X162908097Y-96060413D01*
X162750932Y-95995313D01*
X162609487Y-95900802D01*
X162489198Y-95780513D01*
X162394687Y-95639068D01*
X162329587Y-95481903D01*
X162296400Y-95315057D01*
X162296400Y-95144943D01*
X162329587Y-94978097D01*
X162394687Y-94820932D01*
X162489198Y-94679487D01*
X162609487Y-94559198D01*
X162750932Y-94464687D01*
X162908097Y-94399587D01*
X163074943Y-94366400D01*
X163245057Y-94366400D01*
X163411903Y-94399587D01*
G37*
G36*
X158331903Y-94399587D02*
G01*
X158489068Y-94464687D01*
X158630513Y-94559198D01*
X158750802Y-94679487D01*
X158845313Y-94820932D01*
X158910413Y-94978097D01*
X158943600Y-95144943D01*
X158943600Y-95315057D01*
X158910413Y-95481903D01*
X158845313Y-95639068D01*
X158750802Y-95780513D01*
X158630513Y-95900802D01*
X158489068Y-95995313D01*
X158331903Y-96060413D01*
X158165057Y-96093600D01*
X157994943Y-96093600D01*
X157828097Y-96060413D01*
X157670932Y-95995313D01*
X157529487Y-95900802D01*
X157409198Y-95780513D01*
X157314687Y-95639068D01*
X157249587Y-95481903D01*
X157216400Y-95315057D01*
X157216400Y-95144943D01*
X157249587Y-94978097D01*
X157314687Y-94820932D01*
X157409198Y-94679487D01*
X157529487Y-94559198D01*
X157670932Y-94464687D01*
X157828097Y-94399587D01*
X157994943Y-94366400D01*
X158165057Y-94366400D01*
X158331903Y-94399587D01*
G37*
G36*
X160871903Y-94399587D02*
G01*
X161029068Y-94464687D01*
X161170513Y-94559198D01*
X161290802Y-94679487D01*
X161385313Y-94820932D01*
X161450413Y-94978097D01*
X161483600Y-95144943D01*
X161483600Y-95315057D01*
X161450413Y-95481903D01*
X161385313Y-95639068D01*
X161290802Y-95780513D01*
X161170513Y-95900802D01*
X161029068Y-95995313D01*
X160871903Y-96060413D01*
X160705057Y-96093600D01*
X160534943Y-96093600D01*
X160368097Y-96060413D01*
X160210932Y-95995313D01*
X160069487Y-95900802D01*
X159949198Y-95780513D01*
X159854687Y-95639068D01*
X159789587Y-95481903D01*
X159756400Y-95315057D01*
X159756400Y-95144943D01*
X159789587Y-94978097D01*
X159854687Y-94820932D01*
X159949198Y-94679487D01*
X160069487Y-94559198D01*
X160210932Y-94464687D01*
X160368097Y-94399587D01*
X160534943Y-94366400D01*
X160705057Y-94366400D01*
X160871903Y-94399587D01*
G37*
G36*
X178651903Y-94399587D02*
G01*
X178809068Y-94464687D01*
X178950513Y-94559198D01*
X179070802Y-94679487D01*
X179165313Y-94820932D01*
X179230413Y-94978097D01*
X179263600Y-95144943D01*
X179263600Y-95315057D01*
X179230413Y-95481903D01*
X179165313Y-95639068D01*
X179070802Y-95780513D01*
X178950513Y-95900802D01*
X178809068Y-95995313D01*
X178651903Y-96060413D01*
X178485057Y-96093600D01*
X178314943Y-96093600D01*
X178148097Y-96060413D01*
X177990932Y-95995313D01*
X177849487Y-95900802D01*
X177729198Y-95780513D01*
X177634687Y-95639068D01*
X177569587Y-95481903D01*
X177536400Y-95315057D01*
X177536400Y-95144943D01*
X177569587Y-94978097D01*
X177634687Y-94820932D01*
X177729198Y-94679487D01*
X177849487Y-94559198D01*
X177990932Y-94464687D01*
X178148097Y-94399587D01*
X178314943Y-94366400D01*
X178485057Y-94366400D01*
X178651903Y-94399587D01*
G37*
G36*
X183731903Y-94399587D02*
G01*
X183889068Y-94464687D01*
X184030513Y-94559198D01*
X184150802Y-94679487D01*
X184245313Y-94820932D01*
X184310413Y-94978097D01*
X184343600Y-95144943D01*
X184343600Y-95315057D01*
X184310413Y-95481903D01*
X184245313Y-95639068D01*
X184150802Y-95780513D01*
X184030513Y-95900802D01*
X183889068Y-95995313D01*
X183731903Y-96060413D01*
X183565057Y-96093600D01*
X183394943Y-96093600D01*
X183228097Y-96060413D01*
X183070932Y-95995313D01*
X182929487Y-95900802D01*
X182809198Y-95780513D01*
X182714687Y-95639068D01*
X182649587Y-95481903D01*
X182616400Y-95315057D01*
X182616400Y-95144943D01*
X182649587Y-94978097D01*
X182714687Y-94820932D01*
X182809198Y-94679487D01*
X182929487Y-94559198D01*
X183070932Y-94464687D01*
X183228097Y-94399587D01*
X183394943Y-94366400D01*
X183565057Y-94366400D01*
X183731903Y-94399587D01*
G37*
G36*
X150711903Y-94399587D02*
G01*
X150869068Y-94464687D01*
X151010513Y-94559198D01*
X151130802Y-94679487D01*
X151225313Y-94820932D01*
X151290413Y-94978097D01*
X151323600Y-95144943D01*
X151323600Y-95315057D01*
X151290413Y-95481903D01*
X151225313Y-95639068D01*
X151130802Y-95780513D01*
X151010513Y-95900802D01*
X150869068Y-95995313D01*
X150711903Y-96060413D01*
X150545057Y-96093600D01*
X150374943Y-96093600D01*
X150208097Y-96060413D01*
X150050932Y-95995313D01*
X149909487Y-95900802D01*
X149789198Y-95780513D01*
X149694687Y-95639068D01*
X149629587Y-95481903D01*
X149596400Y-95315057D01*
X149596400Y-95144943D01*
X149629587Y-94978097D01*
X149694687Y-94820932D01*
X149789198Y-94679487D01*
X149909487Y-94559198D01*
X150050932Y-94464687D01*
X150208097Y-94399587D01*
X150374943Y-94366400D01*
X150545057Y-94366400D01*
X150711903Y-94399587D01*
G37*
G36*
X173571903Y-94399587D02*
G01*
X173729068Y-94464687D01*
X173870513Y-94559198D01*
X173990802Y-94679487D01*
X174085313Y-94820932D01*
X174150413Y-94978097D01*
X174183600Y-95144943D01*
X174183600Y-95315057D01*
X174150413Y-95481903D01*
X174085313Y-95639068D01*
X173990802Y-95780513D01*
X173870513Y-95900802D01*
X173729068Y-95995313D01*
X173571903Y-96060413D01*
X173405057Y-96093600D01*
X173234943Y-96093600D01*
X173068097Y-96060413D01*
X172910932Y-95995313D01*
X172769487Y-95900802D01*
X172649198Y-95780513D01*
X172554687Y-95639068D01*
X172489587Y-95481903D01*
X172456400Y-95315057D01*
X172456400Y-95144943D01*
X172489587Y-94978097D01*
X172554687Y-94820932D01*
X172649198Y-94679487D01*
X172769487Y-94559198D01*
X172910932Y-94464687D01*
X173068097Y-94399587D01*
X173234943Y-94366400D01*
X173405057Y-94366400D01*
X173571903Y-94399587D01*
G37*
G36*
X181191903Y-94399587D02*
G01*
X181349068Y-94464687D01*
X181490513Y-94559198D01*
X181610802Y-94679487D01*
X181705313Y-94820932D01*
X181770413Y-94978097D01*
X181803600Y-95144943D01*
X181803600Y-95315057D01*
X181770413Y-95481903D01*
X181705313Y-95639068D01*
X181610802Y-95780513D01*
X181490513Y-95900802D01*
X181349068Y-95995313D01*
X181191903Y-96060413D01*
X181025057Y-96093600D01*
X180854943Y-96093600D01*
X180688097Y-96060413D01*
X180530932Y-95995313D01*
X180389487Y-95900802D01*
X180269198Y-95780513D01*
X180174687Y-95639068D01*
X180109587Y-95481903D01*
X180076400Y-95315057D01*
X180076400Y-95144943D01*
X180109587Y-94978097D01*
X180174687Y-94820932D01*
X180269198Y-94679487D01*
X180389487Y-94559198D01*
X180530932Y-94464687D01*
X180688097Y-94399587D01*
X180854943Y-94366400D01*
X181025057Y-94366400D01*
X181191903Y-94399587D01*
G37*
G36*
X176111903Y-94399587D02*
G01*
X176269068Y-94464687D01*
X176410513Y-94559198D01*
X176530802Y-94679487D01*
X176625313Y-94820932D01*
X176690413Y-94978097D01*
X176723600Y-95144943D01*
X176723600Y-95315057D01*
X176690413Y-95481903D01*
X176625313Y-95639068D01*
X176530802Y-95780513D01*
X176410513Y-95900802D01*
X176269068Y-95995313D01*
X176111903Y-96060413D01*
X175945057Y-96093600D01*
X175774943Y-96093600D01*
X175608097Y-96060413D01*
X175450932Y-95995313D01*
X175309487Y-95900802D01*
X175189198Y-95780513D01*
X175094687Y-95639068D01*
X175029587Y-95481903D01*
X174996400Y-95315057D01*
X174996400Y-95144943D01*
X175029587Y-94978097D01*
X175094687Y-94820932D01*
X175189198Y-94679487D01*
X175309487Y-94559198D01*
X175450932Y-94464687D01*
X175608097Y-94399587D01*
X175774943Y-94366400D01*
X175945057Y-94366400D01*
X176111903Y-94399587D01*
G37*
G36*
X153251903Y-94399587D02*
G01*
X153409068Y-94464687D01*
X153550513Y-94559198D01*
X153670802Y-94679487D01*
X153765313Y-94820932D01*
X153830413Y-94978097D01*
X153863600Y-95144943D01*
X153863600Y-95315057D01*
X153830413Y-95481903D01*
X153765313Y-95639068D01*
X153670802Y-95780513D01*
X153550513Y-95900802D01*
X153409068Y-95995313D01*
X153251903Y-96060413D01*
X153085057Y-96093600D01*
X152914943Y-96093600D01*
X152748097Y-96060413D01*
X152590932Y-95995313D01*
X152449487Y-95900802D01*
X152329198Y-95780513D01*
X152234687Y-95639068D01*
X152169587Y-95481903D01*
X152136400Y-95315057D01*
X152136400Y-95144943D01*
X152169587Y-94978097D01*
X152234687Y-94820932D01*
X152329198Y-94679487D01*
X152449487Y-94559198D01*
X152590932Y-94464687D01*
X152748097Y-94399587D01*
X152914943Y-94366400D01*
X153085057Y-94366400D01*
X153251903Y-94399587D01*
G37*
G36*
X155791903Y-94399587D02*
G01*
X155949068Y-94464687D01*
X156090513Y-94559198D01*
X156210802Y-94679487D01*
X156305313Y-94820932D01*
X156370413Y-94978097D01*
X156403600Y-95144943D01*
X156403600Y-95315057D01*
X156370413Y-95481903D01*
X156305313Y-95639068D01*
X156210802Y-95780513D01*
X156090513Y-95900802D01*
X155949068Y-95995313D01*
X155791903Y-96060413D01*
X155625057Y-96093600D01*
X155454943Y-96093600D01*
X155288097Y-96060413D01*
X155130932Y-95995313D01*
X154989487Y-95900802D01*
X154869198Y-95780513D01*
X154774687Y-95639068D01*
X154709587Y-95481903D01*
X154676400Y-95315057D01*
X154676400Y-95144943D01*
X154709587Y-94978097D01*
X154774687Y-94820932D01*
X154869198Y-94679487D01*
X154989487Y-94559198D01*
X155130932Y-94464687D01*
X155288097Y-94399587D01*
X155454943Y-94366400D01*
X155625057Y-94366400D01*
X155791903Y-94399587D01*
G37*
G36*
X171031903Y-94399587D02*
G01*
X171189068Y-94464687D01*
X171330513Y-94559198D01*
X171450802Y-94679487D01*
X171545313Y-94820932D01*
X171610413Y-94978097D01*
X171643600Y-95144943D01*
X171643600Y-95315057D01*
X171610413Y-95481903D01*
X171545313Y-95639068D01*
X171450802Y-95780513D01*
X171330513Y-95900802D01*
X171189068Y-95995313D01*
X171031903Y-96060413D01*
X170865057Y-96093600D01*
X170694943Y-96093600D01*
X170528097Y-96060413D01*
X170370932Y-95995313D01*
X170229487Y-95900802D01*
X170109198Y-95780513D01*
X170014687Y-95639068D01*
X169949587Y-95481903D01*
X169916400Y-95315057D01*
X169916400Y-95144943D01*
X169949587Y-94978097D01*
X170014687Y-94820932D01*
X170109198Y-94679487D01*
X170229487Y-94559198D01*
X170370932Y-94464687D01*
X170528097Y-94399587D01*
X170694943Y-94366400D01*
X170865057Y-94366400D01*
X171031903Y-94399587D01*
G37*
G36*
X145631903Y-94399587D02*
G01*
X145789068Y-94464687D01*
X145930513Y-94559198D01*
X146050802Y-94679487D01*
X146145313Y-94820932D01*
X146210413Y-94978097D01*
X146243600Y-95144943D01*
X146243600Y-95315057D01*
X146210413Y-95481903D01*
X146145313Y-95639068D01*
X146050802Y-95780513D01*
X145930513Y-95900802D01*
X145789068Y-95995313D01*
X145631903Y-96060413D01*
X145465057Y-96093600D01*
X145294943Y-96093600D01*
X145128097Y-96060413D01*
X144970932Y-95995313D01*
X144829487Y-95900802D01*
X144709198Y-95780513D01*
X144614687Y-95639068D01*
X144549587Y-95481903D01*
X144516400Y-95315057D01*
X144516400Y-95144943D01*
X144549587Y-94978097D01*
X144614687Y-94820932D01*
X144709198Y-94679487D01*
X144829487Y-94559198D01*
X144970932Y-94464687D01*
X145128097Y-94399587D01*
X145294943Y-94366400D01*
X145465057Y-94366400D01*
X145631903Y-94399587D01*
G37*
G36*
X146553569Y-90617280D02*
G01*
X146709278Y-90681776D01*
X146849413Y-90775412D01*
X146968588Y-90894587D01*
X147062224Y-91034722D01*
X147126720Y-91190431D01*
X147159600Y-91355729D01*
X147159600Y-91524271D01*
X147126720Y-91689569D01*
X147062224Y-91845278D01*
X146968588Y-91985413D01*
X146849413Y-92104588D01*
X146709278Y-92198224D01*
X146553569Y-92262720D01*
X146388271Y-92295600D01*
X146219729Y-92295600D01*
X146054431Y-92262720D01*
X145898722Y-92198224D01*
X145758587Y-92104588D01*
X145639412Y-91985413D01*
X145545776Y-91845278D01*
X145481280Y-91689569D01*
X145448400Y-91524271D01*
X145448400Y-91355729D01*
X145481280Y-91190431D01*
X145545776Y-91034722D01*
X145639412Y-90894587D01*
X145758587Y-90775412D01*
X145898722Y-90681776D01*
X146054431Y-90617280D01*
X146219729Y-90584400D01*
X146388271Y-90584400D01*
X146553569Y-90617280D01*
G37*
G36*
X144013569Y-90617280D02*
G01*
X144169278Y-90681776D01*
X144309413Y-90775412D01*
X144428588Y-90894587D01*
X144522224Y-91034722D01*
X144586720Y-91190431D01*
X144619600Y-91355729D01*
X144619600Y-91524271D01*
X144586720Y-91689569D01*
X144522224Y-91845278D01*
X144428588Y-91985413D01*
X144309413Y-92104588D01*
X144169278Y-92198224D01*
X144013569Y-92262720D01*
X143848271Y-92295600D01*
X143679729Y-92295600D01*
X143514431Y-92262720D01*
X143358722Y-92198224D01*
X143218587Y-92104588D01*
X143099412Y-91985413D01*
X143005776Y-91845278D01*
X142941280Y-91689569D01*
X142908400Y-91524271D01*
X142908400Y-91355729D01*
X142941280Y-91190431D01*
X143005776Y-91034722D01*
X143099412Y-90894587D01*
X143218587Y-90775412D01*
X143358722Y-90681776D01*
X143514431Y-90617280D01*
X143679729Y-90584400D01*
X143848271Y-90584400D01*
X144013569Y-90617280D01*
G37*
G36*
X141473569Y-90617280D02*
G01*
X141629278Y-90681776D01*
X141769413Y-90775412D01*
X141888588Y-90894587D01*
X141982224Y-91034722D01*
X142046720Y-91190431D01*
X142079600Y-91355729D01*
X142079600Y-91524271D01*
X142046720Y-91689569D01*
X141982224Y-91845278D01*
X141888588Y-91985413D01*
X141769413Y-92104588D01*
X141629278Y-92198224D01*
X141473569Y-92262720D01*
X141308271Y-92295600D01*
X141139729Y-92295600D01*
X140974431Y-92262720D01*
X140818722Y-92198224D01*
X140678587Y-92104588D01*
X140559412Y-91985413D01*
X140465776Y-91845278D01*
X140401280Y-91689569D01*
X140368400Y-91524271D01*
X140368400Y-91355729D01*
X140401280Y-91190431D01*
X140465776Y-91034722D01*
X140559412Y-90894587D01*
X140678587Y-90775412D01*
X140818722Y-90681776D01*
X140974431Y-90617280D01*
X141139729Y-90584400D01*
X141308271Y-90584400D01*
X141473569Y-90617280D01*
G37*
G36*
X138933569Y-90617280D02*
G01*
X139089278Y-90681776D01*
X139229413Y-90775412D01*
X139348588Y-90894587D01*
X139442224Y-91034722D01*
X139506720Y-91190431D01*
X139539600Y-91355729D01*
X139539600Y-91524271D01*
X139506720Y-91689569D01*
X139442224Y-91845278D01*
X139348588Y-91985413D01*
X139229413Y-92104588D01*
X139089278Y-92198224D01*
X138933569Y-92262720D01*
X138768271Y-92295600D01*
X138599729Y-92295600D01*
X138434431Y-92262720D01*
X138278722Y-92198224D01*
X138138587Y-92104588D01*
X138019412Y-91985413D01*
X137925776Y-91845278D01*
X137861280Y-91689569D01*
X137828400Y-91524271D01*
X137828400Y-91355729D01*
X137861280Y-91190431D01*
X137925776Y-91034722D01*
X138019412Y-90894587D01*
X138138587Y-90775412D01*
X138278722Y-90681776D01*
X138434431Y-90617280D01*
X138599729Y-90584400D01*
X138768271Y-90584400D01*
X138933569Y-90617280D01*
G37*
G36*
X134459600Y-92295600D02*
G01*
X132748400Y-92295600D01*
X132748400Y-90584400D01*
X134459600Y-90584400D01*
X134459600Y-92295600D01*
G37*
G36*
X136393569Y-90617280D02*
G01*
X136549278Y-90681776D01*
X136689413Y-90775412D01*
X136808588Y-90894587D01*
X136902224Y-91034722D01*
X136966720Y-91190431D01*
X136999600Y-91355729D01*
X136999600Y-91524271D01*
X136966720Y-91689569D01*
X136902224Y-91845278D01*
X136808588Y-91985413D01*
X136689413Y-92104588D01*
X136549278Y-92198224D01*
X136393569Y-92262720D01*
X136228271Y-92295600D01*
X136059729Y-92295600D01*
X135894431Y-92262720D01*
X135738722Y-92198224D01*
X135598587Y-92104588D01*
X135479412Y-91985413D01*
X135385776Y-91845278D01*
X135321280Y-91689569D01*
X135288400Y-91524271D01*
X135288400Y-91355729D01*
X135321280Y-91190431D01*
X135385776Y-91034722D01*
X135479412Y-90894587D01*
X135598587Y-90775412D01*
X135738722Y-90681776D01*
X135894431Y-90617280D01*
X136059729Y-90584400D01*
X136228271Y-90584400D01*
X136393569Y-90617280D01*
G37*
G36*
X202598254Y-86927818D02*
G01*
X202971511Y-87082426D01*
X202971513Y-87082427D01*
X203307436Y-87306884D01*
X203593116Y-87592564D01*
X203817574Y-87928489D01*
X203972182Y-88301746D01*
X204051000Y-88697993D01*
X204051000Y-89102007D01*
X203972182Y-89498254D01*
X203940372Y-89575049D01*
X203817573Y-89871513D01*
X203593116Y-90207436D01*
X203307436Y-90493116D01*
X202971513Y-90717573D01*
X202971512Y-90717574D01*
X202971511Y-90717574D01*
X202598254Y-90872182D01*
X202202007Y-90951000D01*
X201797993Y-90951000D01*
X201401746Y-90872182D01*
X201028489Y-90717574D01*
X201028488Y-90717574D01*
X201028487Y-90717573D01*
X200692564Y-90493116D01*
X200406884Y-90207436D01*
X200182427Y-89871513D01*
X200059628Y-89575049D01*
X200027818Y-89498254D01*
X199949000Y-89102007D01*
X199949000Y-88697993D01*
X200027818Y-88301746D01*
X200182426Y-87928489D01*
X200406884Y-87592564D01*
X200692564Y-87306884D01*
X201028487Y-87082427D01*
X201028489Y-87082426D01*
X201401746Y-86927818D01*
X201797993Y-86849000D01*
X202202007Y-86849000D01*
X202598254Y-86927818D01*
G37*
G36*
X211121307Y-86137498D02*
G01*
X211159318Y-86149029D01*
X211194342Y-86167749D01*
X211225049Y-86192951D01*
X211250251Y-86223658D01*
X211268971Y-86258682D01*
X211280502Y-86296693D01*
X211285000Y-86342363D01*
X211285000Y-89425637D01*
X211280502Y-89471307D01*
X211268971Y-89509318D01*
X211250251Y-89544342D01*
X211225049Y-89575049D01*
X211194342Y-89600251D01*
X211159318Y-89618971D01*
X211121307Y-89630502D01*
X211075637Y-89635000D01*
X210267363Y-89635000D01*
X210221693Y-89630502D01*
X210183682Y-89618971D01*
X210148658Y-89600251D01*
X210117951Y-89575049D01*
X210092749Y-89544342D01*
X210074029Y-89509318D01*
X210062498Y-89471307D01*
X210058000Y-89425637D01*
X210058000Y-86342363D01*
X210062498Y-86296693D01*
X210074029Y-86258682D01*
X210092749Y-86223658D01*
X210117951Y-86192951D01*
X210148658Y-86167749D01*
X210183682Y-86149029D01*
X210221693Y-86137498D01*
X210267363Y-86133000D01*
X211075637Y-86133000D01*
X211121307Y-86137498D01*
G37*
G36*
X206846307Y-86137498D02*
G01*
X206884318Y-86149029D01*
X206919342Y-86167749D01*
X206950049Y-86192951D01*
X206975251Y-86223658D01*
X206993971Y-86258682D01*
X207005502Y-86296693D01*
X207010000Y-86342363D01*
X207010000Y-89425637D01*
X207005502Y-89471307D01*
X206993971Y-89509318D01*
X206975251Y-89544342D01*
X206950049Y-89575049D01*
X206919342Y-89600251D01*
X206884318Y-89618971D01*
X206846307Y-89630502D01*
X206800637Y-89635000D01*
X205992363Y-89635000D01*
X205946693Y-89630502D01*
X205908682Y-89618971D01*
X205873658Y-89600251D01*
X205842951Y-89575049D01*
X205817749Y-89544342D01*
X205799029Y-89509318D01*
X205787498Y-89471307D01*
X205783000Y-89425637D01*
X205783000Y-86342363D01*
X205787498Y-86296693D01*
X205799029Y-86258682D01*
X205817749Y-86223658D01*
X205842951Y-86192951D01*
X205873658Y-86167749D01*
X205908682Y-86149029D01*
X205946693Y-86137498D01*
X205992363Y-86133000D01*
X206800637Y-86133000D01*
X206846307Y-86137498D01*
G37*
G36*
X198374549Y-83671116D02*
G01*
X198485734Y-83693232D01*
X198695203Y-83779997D01*
X198883720Y-83905960D01*
X199044040Y-84066280D01*
X199170003Y-84254797D01*
X199256768Y-84464266D01*
X199301000Y-84686636D01*
X199301000Y-84913364D01*
X199256768Y-85135734D01*
X199170003Y-85345203D01*
X199044040Y-85533720D01*
X198883720Y-85694040D01*
X198695203Y-85820003D01*
X198485734Y-85906768D01*
X198374549Y-85928884D01*
X198263365Y-85951000D01*
X198036635Y-85951000D01*
X197925451Y-85928884D01*
X197814266Y-85906768D01*
X197604797Y-85820003D01*
X197416280Y-85694040D01*
X197255960Y-85533720D01*
X197129997Y-85345203D01*
X197043232Y-85135734D01*
X196999000Y-84913364D01*
X196999000Y-84686636D01*
X197043232Y-84464266D01*
X197129997Y-84254797D01*
X197255960Y-84066280D01*
X197416280Y-83905960D01*
X197604797Y-83779997D01*
X197814266Y-83693232D01*
X197925451Y-83671116D01*
X198036635Y-83649000D01*
X198263365Y-83649000D01*
X198374549Y-83671116D01*
G37*
G36*
X199438228Y-77531703D02*
G01*
X199593100Y-77595853D01*
X199732481Y-77688985D01*
X199851015Y-77807519D01*
X199944147Y-77946900D01*
X200008297Y-78101772D01*
X200041000Y-78266184D01*
X200041000Y-78433816D01*
X200008297Y-78598228D01*
X199944147Y-78753100D01*
X199851015Y-78892481D01*
X199732481Y-79011015D01*
X199593100Y-79104147D01*
X199438228Y-79168297D01*
X199273816Y-79201000D01*
X199106184Y-79201000D01*
X198941772Y-79168297D01*
X198786900Y-79104147D01*
X198647519Y-79011015D01*
X198528985Y-78892481D01*
X198435853Y-78753100D01*
X198371703Y-78598228D01*
X198339000Y-78433816D01*
X198339000Y-78266184D01*
X198371703Y-78101772D01*
X198435853Y-77946900D01*
X198528985Y-77807519D01*
X198647519Y-77688985D01*
X198786900Y-77595853D01*
X198941772Y-77531703D01*
X199106184Y-77499000D01*
X199273816Y-77499000D01*
X199438228Y-77531703D01*
G37*
G36*
X201978228Y-77531703D02*
G01*
X202133100Y-77595853D01*
X202272481Y-77688985D01*
X202391015Y-77807519D01*
X202484147Y-77946900D01*
X202548297Y-78101772D01*
X202581000Y-78266184D01*
X202581000Y-78433816D01*
X202548297Y-78598228D01*
X202484147Y-78753100D01*
X202391015Y-78892481D01*
X202272481Y-79011015D01*
X202133100Y-79104147D01*
X201978228Y-79168297D01*
X201813816Y-79201000D01*
X201646184Y-79201000D01*
X201481772Y-79168297D01*
X201326900Y-79104147D01*
X201187519Y-79011015D01*
X201068985Y-78892481D01*
X200975853Y-78753100D01*
X200911703Y-78598228D01*
X200879000Y-78433816D01*
X200879000Y-78266184D01*
X200911703Y-78101772D01*
X200975853Y-77946900D01*
X201068985Y-77807519D01*
X201187519Y-77688985D01*
X201326900Y-77595853D01*
X201481772Y-77531703D01*
X201646184Y-77499000D01*
X201813816Y-77499000D01*
X201978228Y-77531703D01*
G37*
G36*
X207058228Y-77531703D02*
G01*
X207213100Y-77595853D01*
X207352481Y-77688985D01*
X207471015Y-77807519D01*
X207564147Y-77946900D01*
X207628297Y-78101772D01*
X207661000Y-78266184D01*
X207661000Y-78433816D01*
X207628297Y-78598228D01*
X207564147Y-78753100D01*
X207471015Y-78892481D01*
X207352481Y-79011015D01*
X207213100Y-79104147D01*
X207058228Y-79168297D01*
X206893816Y-79201000D01*
X206726184Y-79201000D01*
X206561772Y-79168297D01*
X206406900Y-79104147D01*
X206267519Y-79011015D01*
X206148985Y-78892481D01*
X206055853Y-78753100D01*
X205991703Y-78598228D01*
X205959000Y-78433816D01*
X205959000Y-78266184D01*
X205991703Y-78101772D01*
X206055853Y-77946900D01*
X206148985Y-77807519D01*
X206267519Y-77688985D01*
X206406900Y-77595853D01*
X206561772Y-77531703D01*
X206726184Y-77499000D01*
X206893816Y-77499000D01*
X207058228Y-77531703D01*
G37*
G36*
X204518228Y-77531703D02*
G01*
X204673100Y-77595853D01*
X204812481Y-77688985D01*
X204931015Y-77807519D01*
X205024147Y-77946900D01*
X205088297Y-78101772D01*
X205121000Y-78266184D01*
X205121000Y-78433816D01*
X205088297Y-78598228D01*
X205024147Y-78753100D01*
X204931015Y-78892481D01*
X204812481Y-79011015D01*
X204673100Y-79104147D01*
X204518228Y-79168297D01*
X204353816Y-79201000D01*
X204186184Y-79201000D01*
X204021772Y-79168297D01*
X203866900Y-79104147D01*
X203727519Y-79011015D01*
X203608985Y-78892481D01*
X203515853Y-78753100D01*
X203451703Y-78598228D01*
X203419000Y-78433816D01*
X203419000Y-78266184D01*
X203451703Y-78101772D01*
X203515853Y-77946900D01*
X203608985Y-77807519D01*
X203727519Y-77688985D01*
X203866900Y-77595853D01*
X204021772Y-77531703D01*
X204186184Y-77499000D01*
X204353816Y-77499000D01*
X204518228Y-77531703D01*
G37*
G36*
X207058228Y-74991703D02*
G01*
X207213100Y-75055853D01*
X207352481Y-75148985D01*
X207471015Y-75267519D01*
X207564147Y-75406900D01*
X207628297Y-75561772D01*
X207661000Y-75726184D01*
X207661000Y-75893816D01*
X207628297Y-76058228D01*
X207564147Y-76213100D01*
X207471015Y-76352481D01*
X207352481Y-76471015D01*
X207213100Y-76564147D01*
X207058228Y-76628297D01*
X206893816Y-76661000D01*
X206726184Y-76661000D01*
X206561772Y-76628297D01*
X206406900Y-76564147D01*
X206267519Y-76471015D01*
X206148985Y-76352481D01*
X206055853Y-76213100D01*
X205991703Y-76058228D01*
X205959000Y-75893816D01*
X205959000Y-75726184D01*
X205991703Y-75561772D01*
X206055853Y-75406900D01*
X206148985Y-75267519D01*
X206267519Y-75148985D01*
X206406900Y-75055853D01*
X206561772Y-74991703D01*
X206726184Y-74959000D01*
X206893816Y-74959000D01*
X207058228Y-74991703D01*
G37*
G36*
X201978228Y-74991703D02*
G01*
X202133100Y-75055853D01*
X202272481Y-75148985D01*
X202391015Y-75267519D01*
X202484147Y-75406900D01*
X202548297Y-75561772D01*
X202581000Y-75726184D01*
X202581000Y-75893816D01*
X202548297Y-76058228D01*
X202484147Y-76213100D01*
X202391015Y-76352481D01*
X202272481Y-76471015D01*
X202133100Y-76564147D01*
X201978228Y-76628297D01*
X201813816Y-76661000D01*
X201646184Y-76661000D01*
X201481772Y-76628297D01*
X201326900Y-76564147D01*
X201187519Y-76471015D01*
X201068985Y-76352481D01*
X200975853Y-76213100D01*
X200911703Y-76058228D01*
X200879000Y-75893816D01*
X200879000Y-75726184D01*
X200911703Y-75561772D01*
X200975853Y-75406900D01*
X201068985Y-75267519D01*
X201187519Y-75148985D01*
X201326900Y-75055853D01*
X201481772Y-74991703D01*
X201646184Y-74959000D01*
X201813816Y-74959000D01*
X201978228Y-74991703D01*
G37*
G36*
X199438228Y-74991703D02*
G01*
X199593100Y-75055853D01*
X199732481Y-75148985D01*
X199851015Y-75267519D01*
X199944147Y-75406900D01*
X200008297Y-75561772D01*
X200041000Y-75726184D01*
X200041000Y-75893816D01*
X200008297Y-76058228D01*
X199944147Y-76213100D01*
X199851015Y-76352481D01*
X199732481Y-76471015D01*
X199593100Y-76564147D01*
X199438228Y-76628297D01*
X199273816Y-76661000D01*
X199106184Y-76661000D01*
X198941772Y-76628297D01*
X198786900Y-76564147D01*
X198647519Y-76471015D01*
X198528985Y-76352481D01*
X198435853Y-76213100D01*
X198371703Y-76058228D01*
X198339000Y-75893816D01*
X198339000Y-75726184D01*
X198371703Y-75561772D01*
X198435853Y-75406900D01*
X198528985Y-75267519D01*
X198647519Y-75148985D01*
X198786900Y-75055853D01*
X198941772Y-74991703D01*
X199106184Y-74959000D01*
X199273816Y-74959000D01*
X199438228Y-74991703D01*
G37*
G36*
X204518228Y-74991703D02*
G01*
X204673100Y-75055853D01*
X204812481Y-75148985D01*
X204931015Y-75267519D01*
X205024147Y-75406900D01*
X205088297Y-75561772D01*
X205121000Y-75726184D01*
X205121000Y-75893816D01*
X205088297Y-76058228D01*
X205024147Y-76213100D01*
X204931015Y-76352481D01*
X204812481Y-76471015D01*
X204673100Y-76564147D01*
X204518228Y-76628297D01*
X204353816Y-76661000D01*
X204186184Y-76661000D01*
X204021772Y-76628297D01*
X203866900Y-76564147D01*
X203727519Y-76471015D01*
X203608985Y-76352481D01*
X203515853Y-76213100D01*
X203451703Y-76058228D01*
X203419000Y-75893816D01*
X203419000Y-75726184D01*
X203451703Y-75561772D01*
X203515853Y-75406900D01*
X203608985Y-75267519D01*
X203727519Y-75148985D01*
X203866900Y-75055853D01*
X204021772Y-74991703D01*
X204186184Y-74959000D01*
X204353816Y-74959000D01*
X204518228Y-74991703D01*
G37*
G36*
X199438228Y-72451703D02*
G01*
X199593100Y-72515853D01*
X199732481Y-72608985D01*
X199851015Y-72727519D01*
X199944147Y-72866900D01*
X200008297Y-73021772D01*
X200041000Y-73186184D01*
X200041000Y-73353816D01*
X200008297Y-73518228D01*
X199944147Y-73673100D01*
X199851015Y-73812481D01*
X199732481Y-73931015D01*
X199593100Y-74024147D01*
X199438228Y-74088297D01*
X199273816Y-74121000D01*
X199106184Y-74121000D01*
X198941772Y-74088297D01*
X198786900Y-74024147D01*
X198647519Y-73931015D01*
X198528985Y-73812481D01*
X198435853Y-73673100D01*
X198371703Y-73518228D01*
X198339000Y-73353816D01*
X198339000Y-73186184D01*
X198371703Y-73021772D01*
X198435853Y-72866900D01*
X198528985Y-72727519D01*
X198647519Y-72608985D01*
X198786900Y-72515853D01*
X198941772Y-72451703D01*
X199106184Y-72419000D01*
X199273816Y-72419000D01*
X199438228Y-72451703D01*
G37*
G36*
X204518228Y-72451703D02*
G01*
X204673100Y-72515853D01*
X204812481Y-72608985D01*
X204931015Y-72727519D01*
X205024147Y-72866900D01*
X205088297Y-73021772D01*
X205121000Y-73186184D01*
X205121000Y-73353816D01*
X205088297Y-73518228D01*
X205024147Y-73673100D01*
X204931015Y-73812481D01*
X204812481Y-73931015D01*
X204673100Y-74024147D01*
X204518228Y-74088297D01*
X204353816Y-74121000D01*
X204186184Y-74121000D01*
X204021772Y-74088297D01*
X203866900Y-74024147D01*
X203727519Y-73931015D01*
X203608985Y-73812481D01*
X203515853Y-73673100D01*
X203451703Y-73518228D01*
X203419000Y-73353816D01*
X203419000Y-73186184D01*
X203451703Y-73021772D01*
X203515853Y-72866900D01*
X203608985Y-72727519D01*
X203727519Y-72608985D01*
X203866900Y-72515853D01*
X204021772Y-72451703D01*
X204186184Y-72419000D01*
X204353816Y-72419000D01*
X204518228Y-72451703D01*
G37*
G36*
X201978228Y-72451703D02*
G01*
X202133100Y-72515853D01*
X202272481Y-72608985D01*
X202391015Y-72727519D01*
X202484147Y-72866900D01*
X202548297Y-73021772D01*
X202581000Y-73186184D01*
X202581000Y-73353816D01*
X202548297Y-73518228D01*
X202484147Y-73673100D01*
X202391015Y-73812481D01*
X202272481Y-73931015D01*
X202133100Y-74024147D01*
X201978228Y-74088297D01*
X201813816Y-74121000D01*
X201646184Y-74121000D01*
X201481772Y-74088297D01*
X201326900Y-74024147D01*
X201187519Y-73931015D01*
X201068985Y-73812481D01*
X200975853Y-73673100D01*
X200911703Y-73518228D01*
X200879000Y-73353816D01*
X200879000Y-73186184D01*
X200911703Y-73021772D01*
X200975853Y-72866900D01*
X201068985Y-72727519D01*
X201187519Y-72608985D01*
X201326900Y-72515853D01*
X201481772Y-72451703D01*
X201646184Y-72419000D01*
X201813816Y-72419000D01*
X201978228Y-72451703D01*
G37*
G36*
X207058228Y-72451703D02*
G01*
X207213100Y-72515853D01*
X207352481Y-72608985D01*
X207471015Y-72727519D01*
X207564147Y-72866900D01*
X207628297Y-73021772D01*
X207661000Y-73186184D01*
X207661000Y-73353816D01*
X207628297Y-73518228D01*
X207564147Y-73673100D01*
X207471015Y-73812481D01*
X207352481Y-73931015D01*
X207213100Y-74024147D01*
X207058228Y-74088297D01*
X206893816Y-74121000D01*
X206726184Y-74121000D01*
X206561772Y-74088297D01*
X206406900Y-74024147D01*
X206267519Y-73931015D01*
X206148985Y-73812481D01*
X206055853Y-73673100D01*
X205991703Y-73518228D01*
X205959000Y-73353816D01*
X205959000Y-73186184D01*
X205991703Y-73021772D01*
X206055853Y-72866900D01*
X206148985Y-72727519D01*
X206267519Y-72608985D01*
X206406900Y-72515853D01*
X206561772Y-72451703D01*
X206726184Y-72419000D01*
X206893816Y-72419000D01*
X207058228Y-72451703D01*
G37*
G36*
X188366400Y-72618600D02*
G01*
X185928000Y-72618600D01*
X185928000Y-71196200D01*
X188366400Y-71196200D01*
X188366400Y-72618600D01*
G37*
G36*
X199438228Y-69911703D02*
G01*
X199593100Y-69975853D01*
X199732481Y-70068985D01*
X199851015Y-70187519D01*
X199944147Y-70326900D01*
X200008297Y-70481772D01*
X200041000Y-70646184D01*
X200041000Y-70813816D01*
X200008297Y-70978228D01*
X199944147Y-71133100D01*
X199851015Y-71272481D01*
X199732481Y-71391015D01*
X199593100Y-71484147D01*
X199438228Y-71548297D01*
X199273816Y-71581000D01*
X199106184Y-71581000D01*
X198941772Y-71548297D01*
X198786900Y-71484147D01*
X198647519Y-71391015D01*
X198528985Y-71272481D01*
X198435853Y-71133100D01*
X198371703Y-70978228D01*
X198339000Y-70813816D01*
X198339000Y-70646184D01*
X198371703Y-70481772D01*
X198435853Y-70326900D01*
X198528985Y-70187519D01*
X198647519Y-70068985D01*
X198786900Y-69975853D01*
X198941772Y-69911703D01*
X199106184Y-69879000D01*
X199273816Y-69879000D01*
X199438228Y-69911703D01*
G37*
G36*
X207058228Y-69911703D02*
G01*
X207213100Y-69975853D01*
X207352481Y-70068985D01*
X207471015Y-70187519D01*
X207564147Y-70326900D01*
X207628297Y-70481772D01*
X207661000Y-70646184D01*
X207661000Y-70813816D01*
X207628297Y-70978228D01*
X207564147Y-71133100D01*
X207471015Y-71272481D01*
X207352481Y-71391015D01*
X207213100Y-71484147D01*
X207058228Y-71548297D01*
X206893816Y-71581000D01*
X206726184Y-71581000D01*
X206561772Y-71548297D01*
X206406900Y-71484147D01*
X206267519Y-71391015D01*
X206148985Y-71272481D01*
X206055853Y-71133100D01*
X205991703Y-70978228D01*
X205959000Y-70813816D01*
X205959000Y-70646184D01*
X205991703Y-70481772D01*
X206055853Y-70326900D01*
X206148985Y-70187519D01*
X206267519Y-70068985D01*
X206406900Y-69975853D01*
X206561772Y-69911703D01*
X206726184Y-69879000D01*
X206893816Y-69879000D01*
X207058228Y-69911703D01*
G37*
G36*
X201978228Y-69911703D02*
G01*
X202133100Y-69975853D01*
X202272481Y-70068985D01*
X202391015Y-70187519D01*
X202484147Y-70326900D01*
X202548297Y-70481772D01*
X202581000Y-70646184D01*
X202581000Y-70813816D01*
X202548297Y-70978228D01*
X202484147Y-71133100D01*
X202391015Y-71272481D01*
X202272481Y-71391015D01*
X202133100Y-71484147D01*
X201978228Y-71548297D01*
X201813816Y-71581000D01*
X201646184Y-71581000D01*
X201481772Y-71548297D01*
X201326900Y-71484147D01*
X201187519Y-71391015D01*
X201068985Y-71272481D01*
X200975853Y-71133100D01*
X200911703Y-70978228D01*
X200879000Y-70813816D01*
X200879000Y-70646184D01*
X200911703Y-70481772D01*
X200975853Y-70326900D01*
X201068985Y-70187519D01*
X201187519Y-70068985D01*
X201326900Y-69975853D01*
X201481772Y-69911703D01*
X201646184Y-69879000D01*
X201813816Y-69879000D01*
X201978228Y-69911703D01*
G37*
G36*
X204518228Y-69911703D02*
G01*
X204673100Y-69975853D01*
X204812481Y-70068985D01*
X204931015Y-70187519D01*
X205024147Y-70326900D01*
X205088297Y-70481772D01*
X205121000Y-70646184D01*
X205121000Y-70813816D01*
X205088297Y-70978228D01*
X205024147Y-71133100D01*
X204931015Y-71272481D01*
X204812481Y-71391015D01*
X204673100Y-71484147D01*
X204518228Y-71548297D01*
X204353816Y-71581000D01*
X204186184Y-71581000D01*
X204021772Y-71548297D01*
X203866900Y-71484147D01*
X203727519Y-71391015D01*
X203608985Y-71272481D01*
X203515853Y-71133100D01*
X203451703Y-70978228D01*
X203419000Y-70813816D01*
X203419000Y-70646184D01*
X203451703Y-70481772D01*
X203515853Y-70326900D01*
X203608985Y-70187519D01*
X203727519Y-70068985D01*
X203866900Y-69975853D01*
X204021772Y-69911703D01*
X204186184Y-69879000D01*
X204353816Y-69879000D01*
X204518228Y-69911703D01*
G37*
G36*
X194546600Y-71497600D02*
G01*
X192143400Y-71497600D01*
X192143400Y-67694400D01*
X194546600Y-67694400D01*
X194546600Y-71497600D01*
G37*
G36*
X188366400Y-70307200D02*
G01*
X185928000Y-70307200D01*
X185928000Y-68884800D01*
X188366400Y-68884800D01*
X188366400Y-70307200D01*
G37*
G36*
X199438228Y-67371703D02*
G01*
X199593100Y-67435853D01*
X199732481Y-67528985D01*
X199851015Y-67647519D01*
X199944147Y-67786900D01*
X200008297Y-67941772D01*
X200041000Y-68106184D01*
X200041000Y-68273816D01*
X200008297Y-68438228D01*
X199944147Y-68593100D01*
X199851015Y-68732481D01*
X199732481Y-68851015D01*
X199593100Y-68944147D01*
X199438228Y-69008297D01*
X199273816Y-69041000D01*
X199106184Y-69041000D01*
X198941772Y-69008297D01*
X198786900Y-68944147D01*
X198647519Y-68851015D01*
X198528985Y-68732481D01*
X198435853Y-68593100D01*
X198371703Y-68438228D01*
X198339000Y-68273816D01*
X198339000Y-68106184D01*
X198371703Y-67941772D01*
X198435853Y-67786900D01*
X198528985Y-67647519D01*
X198647519Y-67528985D01*
X198786900Y-67435853D01*
X198941772Y-67371703D01*
X199106184Y-67339000D01*
X199273816Y-67339000D01*
X199438228Y-67371703D01*
G37*
G36*
X201978228Y-67371703D02*
G01*
X202133100Y-67435853D01*
X202272481Y-67528985D01*
X202391015Y-67647519D01*
X202484147Y-67786900D01*
X202548297Y-67941772D01*
X202581000Y-68106184D01*
X202581000Y-68273816D01*
X202548297Y-68438228D01*
X202484147Y-68593100D01*
X202391015Y-68732481D01*
X202272481Y-68851015D01*
X202133100Y-68944147D01*
X201978228Y-69008297D01*
X201813816Y-69041000D01*
X201646184Y-69041000D01*
X201481772Y-69008297D01*
X201326900Y-68944147D01*
X201187519Y-68851015D01*
X201068985Y-68732481D01*
X200975853Y-68593100D01*
X200911703Y-68438228D01*
X200879000Y-68273816D01*
X200879000Y-68106184D01*
X200911703Y-67941772D01*
X200975853Y-67786900D01*
X201068985Y-67647519D01*
X201187519Y-67528985D01*
X201326900Y-67435853D01*
X201481772Y-67371703D01*
X201646184Y-67339000D01*
X201813816Y-67339000D01*
X201978228Y-67371703D01*
G37*
G36*
X204518228Y-67371703D02*
G01*
X204673100Y-67435853D01*
X204812481Y-67528985D01*
X204931015Y-67647519D01*
X205024147Y-67786900D01*
X205088297Y-67941772D01*
X205121000Y-68106184D01*
X205121000Y-68273816D01*
X205088297Y-68438228D01*
X205024147Y-68593100D01*
X204931015Y-68732481D01*
X204812481Y-68851015D01*
X204673100Y-68944147D01*
X204518228Y-69008297D01*
X204353816Y-69041000D01*
X204186184Y-69041000D01*
X204021772Y-69008297D01*
X203866900Y-68944147D01*
X203727519Y-68851015D01*
X203608985Y-68732481D01*
X203515853Y-68593100D01*
X203451703Y-68438228D01*
X203419000Y-68273816D01*
X203419000Y-68106184D01*
X203451703Y-67941772D01*
X203515853Y-67786900D01*
X203608985Y-67647519D01*
X203727519Y-67528985D01*
X203866900Y-67435853D01*
X204021772Y-67371703D01*
X204186184Y-67339000D01*
X204353816Y-67339000D01*
X204518228Y-67371703D01*
G37*
G36*
X207058228Y-67371703D02*
G01*
X207213100Y-67435853D01*
X207352481Y-67528985D01*
X207471015Y-67647519D01*
X207564147Y-67786900D01*
X207628297Y-67941772D01*
X207661000Y-68106184D01*
X207661000Y-68273816D01*
X207628297Y-68438228D01*
X207564147Y-68593100D01*
X207471015Y-68732481D01*
X207352481Y-68851015D01*
X207213100Y-68944147D01*
X207058228Y-69008297D01*
X206893816Y-69041000D01*
X206726184Y-69041000D01*
X206561772Y-69008297D01*
X206406900Y-68944147D01*
X206267519Y-68851015D01*
X206148985Y-68732481D01*
X206055853Y-68593100D01*
X205991703Y-68438228D01*
X205959000Y-68273816D01*
X205959000Y-68106184D01*
X205991703Y-67941772D01*
X206055853Y-67786900D01*
X206148985Y-67647519D01*
X206267519Y-67528985D01*
X206406900Y-67435853D01*
X206561772Y-67371703D01*
X206726184Y-67339000D01*
X206893816Y-67339000D01*
X207058228Y-67371703D01*
G37*
G36*
X188366400Y-67995800D02*
G01*
X185928000Y-67995800D01*
X185928000Y-66573400D01*
X188366400Y-66573400D01*
X188366400Y-67995800D01*
G37*
G36*
X204518228Y-64831703D02*
G01*
X204673100Y-64895853D01*
X204812481Y-64988985D01*
X204931015Y-65107519D01*
X205024147Y-65246900D01*
X205088297Y-65401772D01*
X205121000Y-65566184D01*
X205121000Y-65733816D01*
X205088297Y-65898228D01*
X205024147Y-66053100D01*
X204931015Y-66192481D01*
X204812481Y-66311015D01*
X204673100Y-66404147D01*
X204518228Y-66468297D01*
X204353816Y-66501000D01*
X204186184Y-66501000D01*
X204021772Y-66468297D01*
X203866900Y-66404147D01*
X203727519Y-66311015D01*
X203608985Y-66192481D01*
X203515853Y-66053100D01*
X203451703Y-65898228D01*
X203419000Y-65733816D01*
X203419000Y-65566184D01*
X203451703Y-65401772D01*
X203515853Y-65246900D01*
X203608985Y-65107519D01*
X203727519Y-64988985D01*
X203866900Y-64895853D01*
X204021772Y-64831703D01*
X204186184Y-64799000D01*
X204353816Y-64799000D01*
X204518228Y-64831703D01*
G37*
G36*
X207058228Y-64831703D02*
G01*
X207213100Y-64895853D01*
X207352481Y-64988985D01*
X207471015Y-65107519D01*
X207564147Y-65246900D01*
X207628297Y-65401772D01*
X207661000Y-65566184D01*
X207661000Y-65733816D01*
X207628297Y-65898228D01*
X207564147Y-66053100D01*
X207471015Y-66192481D01*
X207352481Y-66311015D01*
X207213100Y-66404147D01*
X207058228Y-66468297D01*
X206893816Y-66501000D01*
X206726184Y-66501000D01*
X206561772Y-66468297D01*
X206406900Y-66404147D01*
X206267519Y-66311015D01*
X206148985Y-66192481D01*
X206055853Y-66053100D01*
X205991703Y-65898228D01*
X205959000Y-65733816D01*
X205959000Y-65566184D01*
X205991703Y-65401772D01*
X206055853Y-65246900D01*
X206148985Y-65107519D01*
X206267519Y-64988985D01*
X206406900Y-64895853D01*
X206561772Y-64831703D01*
X206726184Y-64799000D01*
X206893816Y-64799000D01*
X207058228Y-64831703D01*
G37*
G36*
X201978228Y-64831703D02*
G01*
X202133100Y-64895853D01*
X202272481Y-64988985D01*
X202391015Y-65107519D01*
X202484147Y-65246900D01*
X202548297Y-65401772D01*
X202581000Y-65566184D01*
X202581000Y-65733816D01*
X202548297Y-65898228D01*
X202484147Y-66053100D01*
X202391015Y-66192481D01*
X202272481Y-66311015D01*
X202133100Y-66404147D01*
X201978228Y-66468297D01*
X201813816Y-66501000D01*
X201646184Y-66501000D01*
X201481772Y-66468297D01*
X201326900Y-66404147D01*
X201187519Y-66311015D01*
X201068985Y-66192481D01*
X200975853Y-66053100D01*
X200911703Y-65898228D01*
X200879000Y-65733816D01*
X200879000Y-65566184D01*
X200911703Y-65401772D01*
X200975853Y-65246900D01*
X201068985Y-65107519D01*
X201187519Y-64988985D01*
X201326900Y-64895853D01*
X201481772Y-64831703D01*
X201646184Y-64799000D01*
X201813816Y-64799000D01*
X201978228Y-64831703D01*
G37*
G36*
X199438228Y-64831703D02*
G01*
X199593100Y-64895853D01*
X199732481Y-64988985D01*
X199851015Y-65107519D01*
X199944147Y-65246900D01*
X200008297Y-65401772D01*
X200041000Y-65566184D01*
X200041000Y-65733816D01*
X200008297Y-65898228D01*
X199944147Y-66053100D01*
X199851015Y-66192481D01*
X199732481Y-66311015D01*
X199593100Y-66404147D01*
X199438228Y-66468297D01*
X199273816Y-66501000D01*
X199106184Y-66501000D01*
X198941772Y-66468297D01*
X198786900Y-66404147D01*
X198647519Y-66311015D01*
X198528985Y-66192481D01*
X198435853Y-66053100D01*
X198371703Y-65898228D01*
X198339000Y-65733816D01*
X198339000Y-65566184D01*
X198371703Y-65401772D01*
X198435853Y-65246900D01*
X198528985Y-65107519D01*
X198647519Y-64988985D01*
X198786900Y-64895853D01*
X198941772Y-64831703D01*
X199106184Y-64799000D01*
X199273816Y-64799000D01*
X199438228Y-64831703D01*
G37*
G36*
X177272984Y-63233358D02*
G01*
X177419593Y-63294086D01*
X177419595Y-63294087D01*
X177486014Y-63338467D01*
X177551539Y-63382249D01*
X177663751Y-63494461D01*
X177751914Y-63626407D01*
X177812642Y-63773016D01*
X177843600Y-63928654D01*
X177843600Y-64087346D01*
X177812642Y-64242984D01*
X177751914Y-64389593D01*
X177751913Y-64389595D01*
X177663750Y-64521540D01*
X177551540Y-64633750D01*
X177419595Y-64721913D01*
X177419594Y-64721914D01*
X177419593Y-64721914D01*
X177272984Y-64782642D01*
X177117346Y-64813600D01*
X176958654Y-64813600D01*
X176803016Y-64782642D01*
X176656407Y-64721914D01*
X176656406Y-64721914D01*
X176656405Y-64721913D01*
X176524460Y-64633750D01*
X176412250Y-64521540D01*
X176324087Y-64389595D01*
X176324086Y-64389593D01*
X176263358Y-64242984D01*
X176232400Y-64087346D01*
X176232400Y-63928654D01*
X176263358Y-63773016D01*
X176324086Y-63626407D01*
X176412249Y-63494461D01*
X176524461Y-63382249D01*
X176589986Y-63338467D01*
X176656405Y-63294087D01*
X176656407Y-63294086D01*
X176803016Y-63233358D01*
X176958654Y-63202400D01*
X177117346Y-63202400D01*
X177272984Y-63233358D01*
G37*
G36*
X164572984Y-63233358D02*
G01*
X164719593Y-63294086D01*
X164719595Y-63294087D01*
X164786014Y-63338467D01*
X164851539Y-63382249D01*
X164963751Y-63494461D01*
X165051914Y-63626407D01*
X165112642Y-63773016D01*
X165143600Y-63928654D01*
X165143600Y-64087346D01*
X165112642Y-64242984D01*
X165051914Y-64389593D01*
X165051913Y-64389595D01*
X164963750Y-64521540D01*
X164851540Y-64633750D01*
X164719595Y-64721913D01*
X164719594Y-64721914D01*
X164719593Y-64721914D01*
X164572984Y-64782642D01*
X164417346Y-64813600D01*
X164258654Y-64813600D01*
X164103016Y-64782642D01*
X163956407Y-64721914D01*
X163956406Y-64721914D01*
X163956405Y-64721913D01*
X163824460Y-64633750D01*
X163712250Y-64521540D01*
X163624087Y-64389595D01*
X163624086Y-64389593D01*
X163563358Y-64242984D01*
X163532400Y-64087346D01*
X163532400Y-63928654D01*
X163563358Y-63773016D01*
X163624086Y-63626407D01*
X163712249Y-63494461D01*
X163824461Y-63382249D01*
X163889986Y-63338467D01*
X163956405Y-63294087D01*
X163956407Y-63294086D01*
X164103016Y-63233358D01*
X164258654Y-63202400D01*
X164417346Y-63202400D01*
X164572984Y-63233358D01*
G37*
G36*
X188366400Y-63982600D02*
G01*
X185928000Y-63982600D01*
X185928000Y-62560200D01*
X188366400Y-62560200D01*
X188366400Y-63982600D01*
G37*
G36*
X199438228Y-62291703D02*
G01*
X199593100Y-62355853D01*
X199732481Y-62448985D01*
X199851015Y-62567519D01*
X199944147Y-62706900D01*
X200008297Y-62861772D01*
X200041000Y-63026184D01*
X200041000Y-63193816D01*
X200008297Y-63358228D01*
X199944147Y-63513100D01*
X199851015Y-63652481D01*
X199732481Y-63771015D01*
X199593100Y-63864147D01*
X199438228Y-63928297D01*
X199273816Y-63961000D01*
X199106184Y-63961000D01*
X198941772Y-63928297D01*
X198786900Y-63864147D01*
X198647519Y-63771015D01*
X198528985Y-63652481D01*
X198435853Y-63513100D01*
X198371703Y-63358228D01*
X198339000Y-63193816D01*
X198339000Y-63026184D01*
X198371703Y-62861772D01*
X198435853Y-62706900D01*
X198528985Y-62567519D01*
X198647519Y-62448985D01*
X198786900Y-62355853D01*
X198941772Y-62291703D01*
X199106184Y-62259000D01*
X199273816Y-62259000D01*
X199438228Y-62291703D01*
G37*
G36*
X204518228Y-62291703D02*
G01*
X204673100Y-62355853D01*
X204812481Y-62448985D01*
X204931015Y-62567519D01*
X205024147Y-62706900D01*
X205088297Y-62861772D01*
X205121000Y-63026184D01*
X205121000Y-63193816D01*
X205088297Y-63358228D01*
X205024147Y-63513100D01*
X204931015Y-63652481D01*
X204812481Y-63771015D01*
X204673100Y-63864147D01*
X204518228Y-63928297D01*
X204353816Y-63961000D01*
X204186184Y-63961000D01*
X204021772Y-63928297D01*
X203866900Y-63864147D01*
X203727519Y-63771015D01*
X203608985Y-63652481D01*
X203515853Y-63513100D01*
X203451703Y-63358228D01*
X203419000Y-63193816D01*
X203419000Y-63026184D01*
X203451703Y-62861772D01*
X203515853Y-62706900D01*
X203608985Y-62567519D01*
X203727519Y-62448985D01*
X203866900Y-62355853D01*
X204021772Y-62291703D01*
X204186184Y-62259000D01*
X204353816Y-62259000D01*
X204518228Y-62291703D01*
G37*
G36*
X207058228Y-62291703D02*
G01*
X207213100Y-62355853D01*
X207352481Y-62448985D01*
X207471015Y-62567519D01*
X207564147Y-62706900D01*
X207628297Y-62861772D01*
X207661000Y-63026184D01*
X207661000Y-63193816D01*
X207628297Y-63358228D01*
X207564147Y-63513100D01*
X207471015Y-63652481D01*
X207352481Y-63771015D01*
X207213100Y-63864147D01*
X207058228Y-63928297D01*
X206893816Y-63961000D01*
X206726184Y-63961000D01*
X206561772Y-63928297D01*
X206406900Y-63864147D01*
X206267519Y-63771015D01*
X206148985Y-63652481D01*
X206055853Y-63513100D01*
X205991703Y-63358228D01*
X205959000Y-63193816D01*
X205959000Y-63026184D01*
X205991703Y-62861772D01*
X206055853Y-62706900D01*
X206148985Y-62567519D01*
X206267519Y-62448985D01*
X206406900Y-62355853D01*
X206561772Y-62291703D01*
X206726184Y-62259000D01*
X206893816Y-62259000D01*
X207058228Y-62291703D01*
G37*
G36*
X201978228Y-62291703D02*
G01*
X202133100Y-62355853D01*
X202272481Y-62448985D01*
X202391015Y-62567519D01*
X202484147Y-62706900D01*
X202548297Y-62861772D01*
X202581000Y-63026184D01*
X202581000Y-63193816D01*
X202548297Y-63358228D01*
X202484147Y-63513100D01*
X202391015Y-63652481D01*
X202272481Y-63771015D01*
X202133100Y-63864147D01*
X201978228Y-63928297D01*
X201813816Y-63961000D01*
X201646184Y-63961000D01*
X201481772Y-63928297D01*
X201326900Y-63864147D01*
X201187519Y-63771015D01*
X201068985Y-63652481D01*
X200975853Y-63513100D01*
X200911703Y-63358228D01*
X200879000Y-63193816D01*
X200879000Y-63026184D01*
X200911703Y-62861772D01*
X200975853Y-62706900D01*
X201068985Y-62567519D01*
X201187519Y-62448985D01*
X201326900Y-62355853D01*
X201481772Y-62291703D01*
X201646184Y-62259000D01*
X201813816Y-62259000D01*
X201978228Y-62291703D01*
G37*
G36*
X194546600Y-62861600D02*
G01*
X192143400Y-62861600D01*
X192143400Y-59058400D01*
X194546600Y-59058400D01*
X194546600Y-62861600D01*
G37*
G36*
X164572984Y-60693358D02*
G01*
X164719593Y-60754086D01*
X164719595Y-60754087D01*
X164786014Y-60798467D01*
X164851539Y-60842249D01*
X164963751Y-60954461D01*
X165051914Y-61086407D01*
X165112642Y-61233016D01*
X165143600Y-61388654D01*
X165143600Y-61547346D01*
X165112642Y-61702984D01*
X165051914Y-61849593D01*
X165051913Y-61849595D01*
X164963750Y-61981540D01*
X164851540Y-62093750D01*
X164719595Y-62181913D01*
X164719594Y-62181914D01*
X164719593Y-62181914D01*
X164572984Y-62242642D01*
X164417346Y-62273600D01*
X164258654Y-62273600D01*
X164103016Y-62242642D01*
X163956407Y-62181914D01*
X163956406Y-62181914D01*
X163956405Y-62181913D01*
X163824460Y-62093750D01*
X163712250Y-61981540D01*
X163624087Y-61849595D01*
X163624086Y-61849593D01*
X163563358Y-61702984D01*
X163532400Y-61547346D01*
X163532400Y-61388654D01*
X163563358Y-61233016D01*
X163624086Y-61086407D01*
X163712249Y-60954461D01*
X163824461Y-60842249D01*
X163889986Y-60798467D01*
X163956405Y-60754087D01*
X163956407Y-60754086D01*
X164103016Y-60693358D01*
X164258654Y-60662400D01*
X164417346Y-60662400D01*
X164572984Y-60693358D01*
G37*
G36*
X177272984Y-60693358D02*
G01*
X177419593Y-60754086D01*
X177419595Y-60754087D01*
X177486014Y-60798467D01*
X177551539Y-60842249D01*
X177663751Y-60954461D01*
X177751914Y-61086407D01*
X177812642Y-61233016D01*
X177843600Y-61388654D01*
X177843600Y-61547346D01*
X177812642Y-61702984D01*
X177751914Y-61849593D01*
X177751913Y-61849595D01*
X177663750Y-61981540D01*
X177551540Y-62093750D01*
X177419595Y-62181913D01*
X177419594Y-62181914D01*
X177419593Y-62181914D01*
X177272984Y-62242642D01*
X177117346Y-62273600D01*
X176958654Y-62273600D01*
X176803016Y-62242642D01*
X176656407Y-62181914D01*
X176656406Y-62181914D01*
X176656405Y-62181913D01*
X176524460Y-62093750D01*
X176412250Y-61981540D01*
X176324087Y-61849595D01*
X176324086Y-61849593D01*
X176263358Y-61702984D01*
X176232400Y-61547346D01*
X176232400Y-61388654D01*
X176263358Y-61233016D01*
X176324086Y-61086407D01*
X176412249Y-60954461D01*
X176524461Y-60842249D01*
X176589986Y-60798467D01*
X176656405Y-60754087D01*
X176656407Y-60754086D01*
X176803016Y-60693358D01*
X176958654Y-60662400D01*
X177117346Y-60662400D01*
X177272984Y-60693358D01*
G37*
G36*
X188366400Y-61671200D02*
G01*
X185928000Y-61671200D01*
X185928000Y-60248800D01*
X188366400Y-60248800D01*
X188366400Y-61671200D01*
G37*
G36*
X207058228Y-59751703D02*
G01*
X207213100Y-59815853D01*
X207352481Y-59908985D01*
X207471015Y-60027519D01*
X207564147Y-60166900D01*
X207628297Y-60321772D01*
X207661000Y-60486184D01*
X207661000Y-60653816D01*
X207628297Y-60818228D01*
X207564147Y-60973100D01*
X207471015Y-61112481D01*
X207352481Y-61231015D01*
X207213100Y-61324147D01*
X207058228Y-61388297D01*
X206893816Y-61421000D01*
X206726184Y-61421000D01*
X206561772Y-61388297D01*
X206406900Y-61324147D01*
X206267519Y-61231015D01*
X206148985Y-61112481D01*
X206055853Y-60973100D01*
X205991703Y-60818228D01*
X205959000Y-60653816D01*
X205959000Y-60486184D01*
X205991703Y-60321772D01*
X206055853Y-60166900D01*
X206148985Y-60027519D01*
X206267519Y-59908985D01*
X206406900Y-59815853D01*
X206561772Y-59751703D01*
X206726184Y-59719000D01*
X206893816Y-59719000D01*
X207058228Y-59751703D01*
G37*
G36*
X204518228Y-59751703D02*
G01*
X204673100Y-59815853D01*
X204812481Y-59908985D01*
X204931015Y-60027519D01*
X205024147Y-60166900D01*
X205088297Y-60321772D01*
X205121000Y-60486184D01*
X205121000Y-60653816D01*
X205088297Y-60818228D01*
X205024147Y-60973100D01*
X204931015Y-61112481D01*
X204812481Y-61231015D01*
X204673100Y-61324147D01*
X204518228Y-61388297D01*
X204353816Y-61421000D01*
X204186184Y-61421000D01*
X204021772Y-61388297D01*
X203866900Y-61324147D01*
X203727519Y-61231015D01*
X203608985Y-61112481D01*
X203515853Y-60973100D01*
X203451703Y-60818228D01*
X203419000Y-60653816D01*
X203419000Y-60486184D01*
X203451703Y-60321772D01*
X203515853Y-60166900D01*
X203608985Y-60027519D01*
X203727519Y-59908985D01*
X203866900Y-59815853D01*
X204021772Y-59751703D01*
X204186184Y-59719000D01*
X204353816Y-59719000D01*
X204518228Y-59751703D01*
G37*
G36*
X201978228Y-59751703D02*
G01*
X202133100Y-59815853D01*
X202272481Y-59908985D01*
X202391015Y-60027519D01*
X202484147Y-60166900D01*
X202548297Y-60321772D01*
X202581000Y-60486184D01*
X202581000Y-60653816D01*
X202548297Y-60818228D01*
X202484147Y-60973100D01*
X202391015Y-61112481D01*
X202272481Y-61231015D01*
X202133100Y-61324147D01*
X201978228Y-61388297D01*
X201813816Y-61421000D01*
X201646184Y-61421000D01*
X201481772Y-61388297D01*
X201326900Y-61324147D01*
X201187519Y-61231015D01*
X201068985Y-61112481D01*
X200975853Y-60973100D01*
X200911703Y-60818228D01*
X200879000Y-60653816D01*
X200879000Y-60486184D01*
X200911703Y-60321772D01*
X200975853Y-60166900D01*
X201068985Y-60027519D01*
X201187519Y-59908985D01*
X201326900Y-59815853D01*
X201481772Y-59751703D01*
X201646184Y-59719000D01*
X201813816Y-59719000D01*
X201978228Y-59751703D01*
G37*
G36*
X199438228Y-59751703D02*
G01*
X199593100Y-59815853D01*
X199732481Y-59908985D01*
X199851015Y-60027519D01*
X199944147Y-60166900D01*
X200008297Y-60321772D01*
X200041000Y-60486184D01*
X200041000Y-60653816D01*
X200008297Y-60818228D01*
X199944147Y-60973100D01*
X199851015Y-61112481D01*
X199732481Y-61231015D01*
X199593100Y-61324147D01*
X199438228Y-61388297D01*
X199273816Y-61421000D01*
X199106184Y-61421000D01*
X198941772Y-61388297D01*
X198786900Y-61324147D01*
X198647519Y-61231015D01*
X198528985Y-61112481D01*
X198435853Y-60973100D01*
X198371703Y-60818228D01*
X198339000Y-60653816D01*
X198339000Y-60486184D01*
X198371703Y-60321772D01*
X198435853Y-60166900D01*
X198528985Y-60027519D01*
X198647519Y-59908985D01*
X198786900Y-59815853D01*
X198941772Y-59751703D01*
X199106184Y-59719000D01*
X199273816Y-59719000D01*
X199438228Y-59751703D01*
G37*
G36*
X164572984Y-58153358D02*
G01*
X164719593Y-58214086D01*
X164719595Y-58214087D01*
X164786014Y-58258467D01*
X164851539Y-58302249D01*
X164963751Y-58414461D01*
X165051914Y-58546407D01*
X165112642Y-58693016D01*
X165143600Y-58848654D01*
X165143600Y-59007346D01*
X165112642Y-59162984D01*
X165051914Y-59309593D01*
X165051913Y-59309595D01*
X164963750Y-59441540D01*
X164851540Y-59553750D01*
X164719595Y-59641913D01*
X164719594Y-59641914D01*
X164719593Y-59641914D01*
X164572984Y-59702642D01*
X164417346Y-59733600D01*
X164258654Y-59733600D01*
X164103016Y-59702642D01*
X163956407Y-59641914D01*
X163956406Y-59641914D01*
X163956405Y-59641913D01*
X163824460Y-59553750D01*
X163712250Y-59441540D01*
X163624087Y-59309595D01*
X163624086Y-59309593D01*
X163563358Y-59162984D01*
X163532400Y-59007346D01*
X163532400Y-58848654D01*
X163563358Y-58693016D01*
X163624086Y-58546407D01*
X163712249Y-58414461D01*
X163824461Y-58302249D01*
X163889986Y-58258467D01*
X163956405Y-58214087D01*
X163956407Y-58214086D01*
X164103016Y-58153358D01*
X164258654Y-58122400D01*
X164417346Y-58122400D01*
X164572984Y-58153358D01*
G37*
G36*
X177272984Y-58153358D02*
G01*
X177419593Y-58214086D01*
X177419595Y-58214087D01*
X177486014Y-58258467D01*
X177551539Y-58302249D01*
X177663751Y-58414461D01*
X177751914Y-58546407D01*
X177812642Y-58693016D01*
X177843600Y-58848654D01*
X177843600Y-59007346D01*
X177812642Y-59162984D01*
X177751914Y-59309593D01*
X177751913Y-59309595D01*
X177663750Y-59441540D01*
X177551540Y-59553750D01*
X177419595Y-59641913D01*
X177419594Y-59641914D01*
X177419593Y-59641914D01*
X177272984Y-59702642D01*
X177117346Y-59733600D01*
X176958654Y-59733600D01*
X176803016Y-59702642D01*
X176656407Y-59641914D01*
X176656406Y-59641914D01*
X176656405Y-59641913D01*
X176524460Y-59553750D01*
X176412250Y-59441540D01*
X176324087Y-59309595D01*
X176324086Y-59309593D01*
X176263358Y-59162984D01*
X176232400Y-59007346D01*
X176232400Y-58848654D01*
X176263358Y-58693016D01*
X176324086Y-58546407D01*
X176412249Y-58414461D01*
X176524461Y-58302249D01*
X176589986Y-58258467D01*
X176656405Y-58214087D01*
X176656407Y-58214086D01*
X176803016Y-58153358D01*
X176958654Y-58122400D01*
X177117346Y-58122400D01*
X177272984Y-58153358D01*
G37*
G36*
X188366400Y-59359800D02*
G01*
X185928000Y-59359800D01*
X185928000Y-57937400D01*
X188366400Y-57937400D01*
X188366400Y-59359800D01*
G37*
G36*
X199438228Y-57211703D02*
G01*
X199593100Y-57275853D01*
X199732481Y-57368985D01*
X199851015Y-57487519D01*
X199944147Y-57626900D01*
X200008297Y-57781772D01*
X200041000Y-57946184D01*
X200041000Y-58113816D01*
X200008297Y-58278228D01*
X199944147Y-58433100D01*
X199851015Y-58572481D01*
X199732481Y-58691015D01*
X199593100Y-58784147D01*
X199438228Y-58848297D01*
X199273816Y-58881000D01*
X199106184Y-58881000D01*
X198941772Y-58848297D01*
X198786900Y-58784147D01*
X198647519Y-58691015D01*
X198528985Y-58572481D01*
X198435853Y-58433100D01*
X198371703Y-58278228D01*
X198339000Y-58113816D01*
X198339000Y-57946184D01*
X198371703Y-57781772D01*
X198435853Y-57626900D01*
X198528985Y-57487519D01*
X198647519Y-57368985D01*
X198786900Y-57275853D01*
X198941772Y-57211703D01*
X199106184Y-57179000D01*
X199273816Y-57179000D01*
X199438228Y-57211703D01*
G37*
G36*
X204518228Y-57211703D02*
G01*
X204673100Y-57275853D01*
X204812481Y-57368985D01*
X204931015Y-57487519D01*
X205024147Y-57626900D01*
X205088297Y-57781772D01*
X205121000Y-57946184D01*
X205121000Y-58113816D01*
X205088297Y-58278228D01*
X205024147Y-58433100D01*
X204931015Y-58572481D01*
X204812481Y-58691015D01*
X204673100Y-58784147D01*
X204518228Y-58848297D01*
X204353816Y-58881000D01*
X204186184Y-58881000D01*
X204021772Y-58848297D01*
X203866900Y-58784147D01*
X203727519Y-58691015D01*
X203608985Y-58572481D01*
X203515853Y-58433100D01*
X203451703Y-58278228D01*
X203419000Y-58113816D01*
X203419000Y-57946184D01*
X203451703Y-57781772D01*
X203515853Y-57626900D01*
X203608985Y-57487519D01*
X203727519Y-57368985D01*
X203866900Y-57275853D01*
X204021772Y-57211703D01*
X204186184Y-57179000D01*
X204353816Y-57179000D01*
X204518228Y-57211703D01*
G37*
G36*
X207058228Y-57211703D02*
G01*
X207213100Y-57275853D01*
X207352481Y-57368985D01*
X207471015Y-57487519D01*
X207564147Y-57626900D01*
X207628297Y-57781772D01*
X207661000Y-57946184D01*
X207661000Y-58113816D01*
X207628297Y-58278228D01*
X207564147Y-58433100D01*
X207471015Y-58572481D01*
X207352481Y-58691015D01*
X207213100Y-58784147D01*
X207058228Y-58848297D01*
X206893816Y-58881000D01*
X206726184Y-58881000D01*
X206561772Y-58848297D01*
X206406900Y-58784147D01*
X206267519Y-58691015D01*
X206148985Y-58572481D01*
X206055853Y-58433100D01*
X205991703Y-58278228D01*
X205959000Y-58113816D01*
X205959000Y-57946184D01*
X205991703Y-57781772D01*
X206055853Y-57626900D01*
X206148985Y-57487519D01*
X206267519Y-57368985D01*
X206406900Y-57275853D01*
X206561772Y-57211703D01*
X206726184Y-57179000D01*
X206893816Y-57179000D01*
X207058228Y-57211703D01*
G37*
G36*
X201978228Y-57211703D02*
G01*
X202133100Y-57275853D01*
X202272481Y-57368985D01*
X202391015Y-57487519D01*
X202484147Y-57626900D01*
X202548297Y-57781772D01*
X202581000Y-57946184D01*
X202581000Y-58113816D01*
X202548297Y-58278228D01*
X202484147Y-58433100D01*
X202391015Y-58572481D01*
X202272481Y-58691015D01*
X202133100Y-58784147D01*
X201978228Y-58848297D01*
X201813816Y-58881000D01*
X201646184Y-58881000D01*
X201481772Y-58848297D01*
X201326900Y-58784147D01*
X201187519Y-58691015D01*
X201068985Y-58572481D01*
X200975853Y-58433100D01*
X200911703Y-58278228D01*
X200879000Y-58113816D01*
X200879000Y-57946184D01*
X200911703Y-57781772D01*
X200975853Y-57626900D01*
X201068985Y-57487519D01*
X201187519Y-57368985D01*
X201326900Y-57275853D01*
X201481772Y-57211703D01*
X201646184Y-57179000D01*
X201813816Y-57179000D01*
X201978228Y-57211703D01*
G37*
G36*
X177272984Y-55613358D02*
G01*
X177419593Y-55674086D01*
X177419595Y-55674087D01*
X177486014Y-55718467D01*
X177551539Y-55762249D01*
X177663751Y-55874461D01*
X177751914Y-56006407D01*
X177812642Y-56153016D01*
X177843600Y-56308654D01*
X177843600Y-56467346D01*
X177812642Y-56622984D01*
X177751914Y-56769593D01*
X177751913Y-56769595D01*
X177663750Y-56901540D01*
X177551540Y-57013750D01*
X177419595Y-57101913D01*
X177419594Y-57101914D01*
X177419593Y-57101914D01*
X177272984Y-57162642D01*
X177117346Y-57193600D01*
X176958654Y-57193600D01*
X176803016Y-57162642D01*
X176656407Y-57101914D01*
X176656406Y-57101914D01*
X176656405Y-57101913D01*
X176524460Y-57013750D01*
X176412250Y-56901540D01*
X176324087Y-56769595D01*
X176324086Y-56769593D01*
X176263358Y-56622984D01*
X176232400Y-56467346D01*
X176232400Y-56308654D01*
X176263358Y-56153016D01*
X176324086Y-56006407D01*
X176412249Y-55874461D01*
X176524461Y-55762249D01*
X176589986Y-55718467D01*
X176656405Y-55674087D01*
X176656407Y-55674086D01*
X176803016Y-55613358D01*
X176958654Y-55582400D01*
X177117346Y-55582400D01*
X177272984Y-55613358D01*
G37*
G36*
X164572984Y-55613358D02*
G01*
X164719593Y-55674086D01*
X164719595Y-55674087D01*
X164786014Y-55718467D01*
X164851539Y-55762249D01*
X164963751Y-55874461D01*
X165051914Y-56006407D01*
X165112642Y-56153016D01*
X165143600Y-56308654D01*
X165143600Y-56467346D01*
X165112642Y-56622984D01*
X165051914Y-56769593D01*
X165051913Y-56769595D01*
X164963750Y-56901540D01*
X164851540Y-57013750D01*
X164719595Y-57101913D01*
X164719594Y-57101914D01*
X164719593Y-57101914D01*
X164572984Y-57162642D01*
X164417346Y-57193600D01*
X164258654Y-57193600D01*
X164103016Y-57162642D01*
X163956407Y-57101914D01*
X163956406Y-57101914D01*
X163956405Y-57101913D01*
X163824460Y-57013750D01*
X163712250Y-56901540D01*
X163624087Y-56769595D01*
X163624086Y-56769593D01*
X163563358Y-56622984D01*
X163532400Y-56467346D01*
X163532400Y-56308654D01*
X163563358Y-56153016D01*
X163624086Y-56006407D01*
X163712249Y-55874461D01*
X163824461Y-55762249D01*
X163889986Y-55718467D01*
X163956405Y-55674087D01*
X163956407Y-55674086D01*
X164103016Y-55613358D01*
X164258654Y-55582400D01*
X164417346Y-55582400D01*
X164572984Y-55613358D01*
G37*
G36*
X204518228Y-54671703D02*
G01*
X204673100Y-54735853D01*
X204812481Y-54828985D01*
X204931015Y-54947519D01*
X205024147Y-55086900D01*
X205088297Y-55241772D01*
X205121000Y-55406184D01*
X205121000Y-55573816D01*
X205088297Y-55738228D01*
X205024147Y-55893100D01*
X204931015Y-56032481D01*
X204812481Y-56151015D01*
X204673100Y-56244147D01*
X204518228Y-56308297D01*
X204353816Y-56341000D01*
X204186184Y-56341000D01*
X204021772Y-56308297D01*
X203866900Y-56244147D01*
X203727519Y-56151015D01*
X203608985Y-56032481D01*
X203515853Y-55893100D01*
X203451703Y-55738228D01*
X203419000Y-55573816D01*
X203419000Y-55406184D01*
X203451703Y-55241772D01*
X203515853Y-55086900D01*
X203608985Y-54947519D01*
X203727519Y-54828985D01*
X203866900Y-54735853D01*
X204021772Y-54671703D01*
X204186184Y-54639000D01*
X204353816Y-54639000D01*
X204518228Y-54671703D01*
G37*
G36*
X207058228Y-54671703D02*
G01*
X207213100Y-54735853D01*
X207352481Y-54828985D01*
X207471015Y-54947519D01*
X207564147Y-55086900D01*
X207628297Y-55241772D01*
X207661000Y-55406184D01*
X207661000Y-55573816D01*
X207628297Y-55738228D01*
X207564147Y-55893100D01*
X207471015Y-56032481D01*
X207352481Y-56151015D01*
X207213100Y-56244147D01*
X207058228Y-56308297D01*
X206893816Y-56341000D01*
X206726184Y-56341000D01*
X206561772Y-56308297D01*
X206406900Y-56244147D01*
X206267519Y-56151015D01*
X206148985Y-56032481D01*
X206055853Y-55893100D01*
X205991703Y-55738228D01*
X205959000Y-55573816D01*
X205959000Y-55406184D01*
X205991703Y-55241772D01*
X206055853Y-55086900D01*
X206148985Y-54947519D01*
X206267519Y-54828985D01*
X206406900Y-54735853D01*
X206561772Y-54671703D01*
X206726184Y-54639000D01*
X206893816Y-54639000D01*
X207058228Y-54671703D01*
G37*
G36*
X201978228Y-54671703D02*
G01*
X202133100Y-54735853D01*
X202272481Y-54828985D01*
X202391015Y-54947519D01*
X202484147Y-55086900D01*
X202548297Y-55241772D01*
X202581000Y-55406184D01*
X202581000Y-55573816D01*
X202548297Y-55738228D01*
X202484147Y-55893100D01*
X202391015Y-56032481D01*
X202272481Y-56151015D01*
X202133100Y-56244147D01*
X201978228Y-56308297D01*
X201813816Y-56341000D01*
X201646184Y-56341000D01*
X201481772Y-56308297D01*
X201326900Y-56244147D01*
X201187519Y-56151015D01*
X201068985Y-56032481D01*
X200975853Y-55893100D01*
X200911703Y-55738228D01*
X200879000Y-55573816D01*
X200879000Y-55406184D01*
X200911703Y-55241772D01*
X200975853Y-55086900D01*
X201068985Y-54947519D01*
X201187519Y-54828985D01*
X201326900Y-54735853D01*
X201481772Y-54671703D01*
X201646184Y-54639000D01*
X201813816Y-54639000D01*
X201978228Y-54671703D01*
G37*
G36*
X199438228Y-54671703D02*
G01*
X199593100Y-54735853D01*
X199732481Y-54828985D01*
X199851015Y-54947519D01*
X199944147Y-55086900D01*
X200008297Y-55241772D01*
X200041000Y-55406184D01*
X200041000Y-55573816D01*
X200008297Y-55738228D01*
X199944147Y-55893100D01*
X199851015Y-56032481D01*
X199732481Y-56151015D01*
X199593100Y-56244147D01*
X199438228Y-56308297D01*
X199273816Y-56341000D01*
X199106184Y-56341000D01*
X198941772Y-56308297D01*
X198786900Y-56244147D01*
X198647519Y-56151015D01*
X198528985Y-56032481D01*
X198435853Y-55893100D01*
X198371703Y-55738228D01*
X198339000Y-55573816D01*
X198339000Y-55406184D01*
X198371703Y-55241772D01*
X198435853Y-55086900D01*
X198528985Y-54947519D01*
X198647519Y-54828985D01*
X198786900Y-54735853D01*
X198941772Y-54671703D01*
X199106184Y-54639000D01*
X199273816Y-54639000D01*
X199438228Y-54671703D01*
G37*
G36*
X164572984Y-53073358D02*
G01*
X164719593Y-53134086D01*
X164719595Y-53134087D01*
X164786014Y-53178467D01*
X164851539Y-53222249D01*
X164963751Y-53334461D01*
X165051914Y-53466407D01*
X165112642Y-53613016D01*
X165143600Y-53768654D01*
X165143600Y-53927346D01*
X165112642Y-54082984D01*
X165051914Y-54229593D01*
X165051913Y-54229595D01*
X164963750Y-54361540D01*
X164851540Y-54473750D01*
X164719595Y-54561913D01*
X164719594Y-54561914D01*
X164719593Y-54561914D01*
X164572984Y-54622642D01*
X164417346Y-54653600D01*
X164258654Y-54653600D01*
X164103016Y-54622642D01*
X163956407Y-54561914D01*
X163956406Y-54561914D01*
X163956405Y-54561913D01*
X163824460Y-54473750D01*
X163712250Y-54361540D01*
X163624087Y-54229595D01*
X163624086Y-54229593D01*
X163563358Y-54082984D01*
X163532400Y-53927346D01*
X163532400Y-53768654D01*
X163563358Y-53613016D01*
X163624086Y-53466407D01*
X163712249Y-53334461D01*
X163824461Y-53222249D01*
X163889986Y-53178467D01*
X163956405Y-53134087D01*
X163956407Y-53134086D01*
X164103016Y-53073358D01*
X164258654Y-53042400D01*
X164417346Y-53042400D01*
X164572984Y-53073358D01*
G37*
G36*
X177272984Y-53073358D02*
G01*
X177419593Y-53134086D01*
X177419595Y-53134087D01*
X177486014Y-53178467D01*
X177551539Y-53222249D01*
X177663751Y-53334461D01*
X177751914Y-53466407D01*
X177812642Y-53613016D01*
X177843600Y-53768654D01*
X177843600Y-53927346D01*
X177812642Y-54082984D01*
X177751914Y-54229593D01*
X177751913Y-54229595D01*
X177663750Y-54361540D01*
X177551540Y-54473750D01*
X177419595Y-54561913D01*
X177419594Y-54561914D01*
X177419593Y-54561914D01*
X177272984Y-54622642D01*
X177117346Y-54653600D01*
X176958654Y-54653600D01*
X176803016Y-54622642D01*
X176656407Y-54561914D01*
X176656406Y-54561914D01*
X176656405Y-54561913D01*
X176524460Y-54473750D01*
X176412250Y-54361540D01*
X176324087Y-54229595D01*
X176324086Y-54229593D01*
X176263358Y-54082984D01*
X176232400Y-53927346D01*
X176232400Y-53768654D01*
X176263358Y-53613016D01*
X176324086Y-53466407D01*
X176412249Y-53334461D01*
X176524461Y-53222249D01*
X176589986Y-53178467D01*
X176656405Y-53134087D01*
X176656407Y-53134086D01*
X176803016Y-53073358D01*
X176958654Y-53042400D01*
X177117346Y-53042400D01*
X177272984Y-53073358D01*
G37*
G36*
X204561981Y-51027468D02*
G01*
X204744151Y-51102926D01*
X204908100Y-51212473D01*
X205047527Y-51351900D01*
X205157074Y-51515849D01*
X205232532Y-51698019D01*
X205271000Y-51891410D01*
X205271000Y-52088590D01*
X205232532Y-52281981D01*
X205157074Y-52464151D01*
X205047527Y-52628100D01*
X204908100Y-52767527D01*
X204744151Y-52877074D01*
X204561981Y-52952532D01*
X204465285Y-52971766D01*
X204368591Y-52991000D01*
X204171409Y-52991000D01*
X204074715Y-52971766D01*
X203978019Y-52952532D01*
X203795849Y-52877074D01*
X203631900Y-52767527D01*
X203492473Y-52628100D01*
X203382926Y-52464151D01*
X203307468Y-52281981D01*
X203269000Y-52088590D01*
X203269000Y-51891410D01*
X203307468Y-51698019D01*
X203382926Y-51515849D01*
X203492473Y-51351900D01*
X203631900Y-51212473D01*
X203795849Y-51102926D01*
X203978019Y-51027468D01*
X204171409Y-50989000D01*
X204368591Y-50989000D01*
X204561981Y-51027468D01*
G37*
G36*
X207101981Y-51027468D02*
G01*
X207284151Y-51102926D01*
X207448100Y-51212473D01*
X207587527Y-51351900D01*
X207697074Y-51515849D01*
X207772532Y-51698019D01*
X207811000Y-51891410D01*
X207811000Y-52088590D01*
X207772532Y-52281981D01*
X207697074Y-52464151D01*
X207587527Y-52628100D01*
X207448100Y-52767527D01*
X207284151Y-52877074D01*
X207101981Y-52952532D01*
X207005285Y-52971766D01*
X206908591Y-52991000D01*
X206711409Y-52991000D01*
X206614715Y-52971766D01*
X206518019Y-52952532D01*
X206335849Y-52877074D01*
X206171900Y-52767527D01*
X206032473Y-52628100D01*
X205922926Y-52464151D01*
X205847468Y-52281981D01*
X205809000Y-52088590D01*
X205809000Y-51891410D01*
X205847468Y-51698019D01*
X205922926Y-51515849D01*
X206032473Y-51351900D01*
X206171900Y-51212473D01*
X206335849Y-51102926D01*
X206518019Y-51027468D01*
X206711409Y-50989000D01*
X206908591Y-50989000D01*
X207101981Y-51027468D01*
G37*
G36*
X199481981Y-51027468D02*
G01*
X199664151Y-51102926D01*
X199828100Y-51212473D01*
X199967527Y-51351900D01*
X200077074Y-51515849D01*
X200152532Y-51698019D01*
X200191000Y-51891410D01*
X200191000Y-52088590D01*
X200152532Y-52281981D01*
X200077074Y-52464151D01*
X199967527Y-52628100D01*
X199828100Y-52767527D01*
X199664151Y-52877074D01*
X199481981Y-52952532D01*
X199385285Y-52971766D01*
X199288591Y-52991000D01*
X199091409Y-52991000D01*
X198994715Y-52971766D01*
X198898019Y-52952532D01*
X198715849Y-52877074D01*
X198551900Y-52767527D01*
X198412473Y-52628100D01*
X198302926Y-52464151D01*
X198227468Y-52281981D01*
X198189000Y-52088590D01*
X198189000Y-51891410D01*
X198227468Y-51698019D01*
X198302926Y-51515849D01*
X198412473Y-51351900D01*
X198551900Y-51212473D01*
X198715849Y-51102926D01*
X198898019Y-51027468D01*
X199091409Y-50989000D01*
X199288591Y-50989000D01*
X199481981Y-51027468D01*
G37*
G36*
X202021981Y-51027468D02*
G01*
X202204151Y-51102926D01*
X202368100Y-51212473D01*
X202507527Y-51351900D01*
X202617074Y-51515849D01*
X202692532Y-51698019D01*
X202731000Y-51891410D01*
X202731000Y-52088590D01*
X202692532Y-52281981D01*
X202617074Y-52464151D01*
X202507527Y-52628100D01*
X202368100Y-52767527D01*
X202204151Y-52877074D01*
X202021981Y-52952532D01*
X201925285Y-52971766D01*
X201828591Y-52991000D01*
X201631409Y-52991000D01*
X201534715Y-52971766D01*
X201438019Y-52952532D01*
X201255849Y-52877074D01*
X201091900Y-52767527D01*
X200952473Y-52628100D01*
X200842926Y-52464151D01*
X200767468Y-52281981D01*
X200729000Y-52088590D01*
X200729000Y-51891410D01*
X200767468Y-51698019D01*
X200842926Y-51515849D01*
X200952473Y-51351900D01*
X201091900Y-51212473D01*
X201255849Y-51102926D01*
X201438019Y-51027468D01*
X201631409Y-50989000D01*
X201828591Y-50989000D01*
X202021981Y-51027468D01*
G37*
G36*
X164572984Y-50533358D02*
G01*
X164719593Y-50594086D01*
X164719595Y-50594087D01*
X164786014Y-50638467D01*
X164851539Y-50682249D01*
X164963751Y-50794461D01*
X165051914Y-50926407D01*
X165112642Y-51073016D01*
X165143600Y-51228654D01*
X165143600Y-51387346D01*
X165112642Y-51542984D01*
X165070019Y-51645884D01*
X165051913Y-51689595D01*
X164963750Y-51821540D01*
X164851540Y-51933750D01*
X164719595Y-52021913D01*
X164719594Y-52021914D01*
X164719593Y-52021914D01*
X164572984Y-52082642D01*
X164417346Y-52113600D01*
X164258654Y-52113600D01*
X164103016Y-52082642D01*
X163956407Y-52021914D01*
X163956406Y-52021914D01*
X163956405Y-52021913D01*
X163824460Y-51933750D01*
X163712250Y-51821540D01*
X163624087Y-51689595D01*
X163605981Y-51645884D01*
X163563358Y-51542984D01*
X163532400Y-51387346D01*
X163532400Y-51228654D01*
X163563358Y-51073016D01*
X163624086Y-50926407D01*
X163712249Y-50794461D01*
X163824461Y-50682249D01*
X163889986Y-50638467D01*
X163956405Y-50594087D01*
X163956407Y-50594086D01*
X164103016Y-50533358D01*
X164258654Y-50502400D01*
X164417346Y-50502400D01*
X164572984Y-50533358D01*
G37*
G36*
X177272984Y-50533358D02*
G01*
X177419593Y-50594086D01*
X177419595Y-50594087D01*
X177486014Y-50638467D01*
X177551539Y-50682249D01*
X177663751Y-50794461D01*
X177751914Y-50926407D01*
X177812642Y-51073016D01*
X177843600Y-51228654D01*
X177843600Y-51387346D01*
X177812642Y-51542984D01*
X177770019Y-51645884D01*
X177751913Y-51689595D01*
X177663750Y-51821540D01*
X177551540Y-51933750D01*
X177419595Y-52021913D01*
X177419594Y-52021914D01*
X177419593Y-52021914D01*
X177272984Y-52082642D01*
X177117346Y-52113600D01*
X176958654Y-52113600D01*
X176803016Y-52082642D01*
X176656407Y-52021914D01*
X176656406Y-52021914D01*
X176656405Y-52021913D01*
X176524460Y-51933750D01*
X176412250Y-51821540D01*
X176324087Y-51689595D01*
X176305981Y-51645884D01*
X176263358Y-51542984D01*
X176232400Y-51387346D01*
X176232400Y-51228654D01*
X176263358Y-51073016D01*
X176324086Y-50926407D01*
X176412249Y-50794461D01*
X176524461Y-50682249D01*
X176589986Y-50638467D01*
X176656405Y-50594087D01*
X176656407Y-50594086D01*
X176803016Y-50533358D01*
X176958654Y-50502400D01*
X177117346Y-50502400D01*
X177272984Y-50533358D01*
G37*
G36*
X190673195Y-50311522D02*
G01*
X190722267Y-50321283D01*
X190860942Y-50378724D01*
X190985747Y-50462116D01*
X191091884Y-50568253D01*
X191175276Y-50693058D01*
X191232717Y-50831733D01*
X191262000Y-50978950D01*
X191262000Y-51129050D01*
X191232717Y-51276267D01*
X191175276Y-51414942D01*
X191091884Y-51539747D01*
X190985747Y-51645884D01*
X190860942Y-51729276D01*
X190722267Y-51786717D01*
X190673195Y-51796478D01*
X190575052Y-51816000D01*
X190424948Y-51816000D01*
X190326805Y-51796478D01*
X190277733Y-51786717D01*
X190139058Y-51729276D01*
X190014253Y-51645884D01*
X189908116Y-51539747D01*
X189824724Y-51414942D01*
X189767283Y-51276267D01*
X189738000Y-51129050D01*
X189738000Y-50978950D01*
X189767283Y-50831733D01*
X189824724Y-50693058D01*
X189908116Y-50568253D01*
X190014253Y-50462116D01*
X190139058Y-50378724D01*
X190277733Y-50321283D01*
X190326805Y-50311522D01*
X190424948Y-50292000D01*
X190575052Y-50292000D01*
X190673195Y-50311522D01*
G37*
G36*
X183053195Y-50311522D02*
G01*
X183102267Y-50321283D01*
X183240942Y-50378724D01*
X183365747Y-50462116D01*
X183471884Y-50568253D01*
X183555276Y-50693058D01*
X183612717Y-50831733D01*
X183642000Y-50978950D01*
X183642000Y-51129050D01*
X183612717Y-51276267D01*
X183555276Y-51414942D01*
X183471884Y-51539747D01*
X183365747Y-51645884D01*
X183240942Y-51729276D01*
X183102267Y-51786717D01*
X183053195Y-51796478D01*
X182955052Y-51816000D01*
X182804948Y-51816000D01*
X182706805Y-51796478D01*
X182657733Y-51786717D01*
X182519058Y-51729276D01*
X182394253Y-51645884D01*
X182288116Y-51539747D01*
X182204724Y-51414942D01*
X182147283Y-51276267D01*
X182118000Y-51129050D01*
X182118000Y-50978950D01*
X182147283Y-50831733D01*
X182204724Y-50693058D01*
X182288116Y-50568253D01*
X182394253Y-50462116D01*
X182519058Y-50378724D01*
X182657733Y-50321283D01*
X182706805Y-50311522D01*
X182804948Y-50292000D01*
X182955052Y-50292000D01*
X183053195Y-50311522D01*
G37*
G36*
X177272984Y-47993358D02*
G01*
X177419593Y-48054086D01*
X177419595Y-48054087D01*
X177486014Y-48098467D01*
X177551539Y-48142249D01*
X177663751Y-48254461D01*
X177751914Y-48386407D01*
X177812642Y-48533016D01*
X177843600Y-48688654D01*
X177843600Y-48847346D01*
X177812642Y-49002984D01*
X177785907Y-49067527D01*
X177751913Y-49149595D01*
X177663750Y-49281540D01*
X177551540Y-49393750D01*
X177419595Y-49481913D01*
X177419594Y-49481914D01*
X177419593Y-49481914D01*
X177272984Y-49542642D01*
X177117346Y-49573600D01*
X176958654Y-49573600D01*
X176803016Y-49542642D01*
X176656407Y-49481914D01*
X176656406Y-49481914D01*
X176656405Y-49481913D01*
X176524460Y-49393750D01*
X176412250Y-49281540D01*
X176324087Y-49149595D01*
X176290093Y-49067527D01*
X176263358Y-49002984D01*
X176232400Y-48847346D01*
X176232400Y-48688654D01*
X176263358Y-48533016D01*
X176324086Y-48386407D01*
X176412249Y-48254461D01*
X176524461Y-48142249D01*
X176589986Y-48098467D01*
X176656405Y-48054087D01*
X176656407Y-48054086D01*
X176803016Y-47993358D01*
X176958654Y-47962400D01*
X177117346Y-47962400D01*
X177272984Y-47993358D01*
G37*
G36*
X164572984Y-47993358D02*
G01*
X164719593Y-48054086D01*
X164719595Y-48054087D01*
X164786014Y-48098467D01*
X164851539Y-48142249D01*
X164963751Y-48254461D01*
X165051914Y-48386407D01*
X165112642Y-48533016D01*
X165143600Y-48688654D01*
X165143600Y-48847346D01*
X165112642Y-49002984D01*
X165085907Y-49067527D01*
X165051913Y-49149595D01*
X164963750Y-49281540D01*
X164851540Y-49393750D01*
X164719595Y-49481913D01*
X164719594Y-49481914D01*
X164719593Y-49481914D01*
X164572984Y-49542642D01*
X164417346Y-49573600D01*
X164258654Y-49573600D01*
X164103016Y-49542642D01*
X163956407Y-49481914D01*
X163956406Y-49481914D01*
X163956405Y-49481913D01*
X163824460Y-49393750D01*
X163712250Y-49281540D01*
X163624087Y-49149595D01*
X163590093Y-49067527D01*
X163563358Y-49002984D01*
X163532400Y-48847346D01*
X163532400Y-48688654D01*
X163563358Y-48533016D01*
X163624086Y-48386407D01*
X163712249Y-48254461D01*
X163824461Y-48142249D01*
X163889986Y-48098467D01*
X163956405Y-48054087D01*
X163956407Y-48054086D01*
X164103016Y-47993358D01*
X164258654Y-47962400D01*
X164417346Y-47962400D01*
X164572984Y-47993358D01*
G37*
G36*
X202021981Y-47327468D02*
G01*
X202204151Y-47402926D01*
X202368100Y-47512473D01*
X202507527Y-47651900D01*
X202617074Y-47815849D01*
X202690602Y-47993359D01*
X202692532Y-47998020D01*
X202721222Y-48142250D01*
X202731000Y-48191410D01*
X202731000Y-48388590D01*
X202692532Y-48581981D01*
X202617074Y-48764151D01*
X202507527Y-48928100D01*
X202368100Y-49067527D01*
X202204151Y-49177074D01*
X202021981Y-49252532D01*
X201828591Y-49291000D01*
X201631409Y-49291000D01*
X201534715Y-49271766D01*
X201438019Y-49252532D01*
X201255849Y-49177074D01*
X201091900Y-49067527D01*
X200952473Y-48928100D01*
X200842926Y-48764151D01*
X200767468Y-48581981D01*
X200729000Y-48388590D01*
X200729000Y-48191410D01*
X200738779Y-48142250D01*
X200767468Y-47998020D01*
X200769399Y-47993359D01*
X200842926Y-47815849D01*
X200952473Y-47651900D01*
X201091900Y-47512473D01*
X201255849Y-47402926D01*
X201438019Y-47327468D01*
X201631409Y-47289000D01*
X201828591Y-47289000D01*
X202021981Y-47327468D01*
G37*
G36*
X204561981Y-47327468D02*
G01*
X204744151Y-47402926D01*
X204908100Y-47512473D01*
X205047527Y-47651900D01*
X205157074Y-47815849D01*
X205230602Y-47993359D01*
X205232532Y-47998020D01*
X205261222Y-48142250D01*
X205271000Y-48191410D01*
X205271000Y-48388590D01*
X205232532Y-48581981D01*
X205157074Y-48764151D01*
X205047527Y-48928100D01*
X204908100Y-49067527D01*
X204744151Y-49177074D01*
X204561981Y-49252532D01*
X204368591Y-49291000D01*
X204171409Y-49291000D01*
X204074715Y-49271766D01*
X203978019Y-49252532D01*
X203795849Y-49177074D01*
X203631900Y-49067527D01*
X203492473Y-48928100D01*
X203382926Y-48764151D01*
X203307468Y-48581981D01*
X203269000Y-48388590D01*
X203269000Y-48191410D01*
X203278779Y-48142250D01*
X203307468Y-47998020D01*
X203309399Y-47993359D01*
X203382926Y-47815849D01*
X203492473Y-47651900D01*
X203631900Y-47512473D01*
X203795849Y-47402926D01*
X203978019Y-47327468D01*
X204171409Y-47289000D01*
X204368591Y-47289000D01*
X204561981Y-47327468D01*
G37*
G36*
X207101981Y-47327468D02*
G01*
X207284151Y-47402926D01*
X207448100Y-47512473D01*
X207587527Y-47651900D01*
X207697074Y-47815849D01*
X207770602Y-47993359D01*
X207772532Y-47998020D01*
X207801222Y-48142250D01*
X207811000Y-48191410D01*
X207811000Y-48388590D01*
X207772532Y-48581981D01*
X207697074Y-48764151D01*
X207587527Y-48928100D01*
X207448100Y-49067527D01*
X207284151Y-49177074D01*
X207101981Y-49252532D01*
X206908591Y-49291000D01*
X206711409Y-49291000D01*
X206614715Y-49271766D01*
X206518019Y-49252532D01*
X206335849Y-49177074D01*
X206171900Y-49067527D01*
X206032473Y-48928100D01*
X205922926Y-48764151D01*
X205847468Y-48581981D01*
X205809000Y-48388590D01*
X205809000Y-48191410D01*
X205818779Y-48142250D01*
X205847468Y-47998020D01*
X205849399Y-47993359D01*
X205922926Y-47815849D01*
X206032473Y-47651900D01*
X206171900Y-47512473D01*
X206335849Y-47402926D01*
X206518019Y-47327468D01*
X206711409Y-47289000D01*
X206908591Y-47289000D01*
X207101981Y-47327468D01*
G37*
G36*
X199481981Y-47327468D02*
G01*
X199664151Y-47402926D01*
X199828100Y-47512473D01*
X199967527Y-47651900D01*
X200077074Y-47815849D01*
X200150602Y-47993359D01*
X200152532Y-47998020D01*
X200181222Y-48142250D01*
X200191000Y-48191410D01*
X200191000Y-48388590D01*
X200152532Y-48581981D01*
X200077074Y-48764151D01*
X199967527Y-48928100D01*
X199828100Y-49067527D01*
X199664151Y-49177074D01*
X199481981Y-49252532D01*
X199288591Y-49291000D01*
X199091409Y-49291000D01*
X198994715Y-49271766D01*
X198898019Y-49252532D01*
X198715849Y-49177074D01*
X198551900Y-49067527D01*
X198412473Y-48928100D01*
X198302926Y-48764151D01*
X198227468Y-48581981D01*
X198189000Y-48388590D01*
X198189000Y-48191410D01*
X198198779Y-48142250D01*
X198227468Y-47998020D01*
X198229399Y-47993359D01*
X198302926Y-47815849D01*
X198412473Y-47651900D01*
X198551900Y-47512473D01*
X198715849Y-47402926D01*
X198898019Y-47327468D01*
X199091409Y-47289000D01*
X199288591Y-47289000D01*
X199481981Y-47327468D01*
G37*
G36*
X177272984Y-45453358D02*
G01*
X177419593Y-45514086D01*
X177419595Y-45514087D01*
X177486014Y-45558467D01*
X177551539Y-45602249D01*
X177663751Y-45714461D01*
X177751914Y-45846407D01*
X177812642Y-45993016D01*
X177843600Y-46148654D01*
X177843600Y-46307346D01*
X177812642Y-46462984D01*
X177751914Y-46609593D01*
X177751913Y-46609595D01*
X177663750Y-46741540D01*
X177551540Y-46853750D01*
X177419595Y-46941913D01*
X177419594Y-46941914D01*
X177419593Y-46941914D01*
X177272984Y-47002642D01*
X177117346Y-47033600D01*
X176958654Y-47033600D01*
X176803016Y-47002642D01*
X176656407Y-46941914D01*
X176656406Y-46941914D01*
X176656405Y-46941913D01*
X176524460Y-46853750D01*
X176412250Y-46741540D01*
X176324087Y-46609595D01*
X176324086Y-46609593D01*
X176263358Y-46462984D01*
X176232400Y-46307346D01*
X176232400Y-46148654D01*
X176263358Y-45993016D01*
X176324086Y-45846407D01*
X176412249Y-45714461D01*
X176524461Y-45602249D01*
X176589986Y-45558467D01*
X176656405Y-45514087D01*
X176656407Y-45514086D01*
X176803016Y-45453358D01*
X176958654Y-45422400D01*
X177117346Y-45422400D01*
X177272984Y-45453358D01*
G37*
G36*
X164572984Y-45453358D02*
G01*
X164719593Y-45514086D01*
X164719595Y-45514087D01*
X164786014Y-45558467D01*
X164851539Y-45602249D01*
X164963751Y-45714461D01*
X165051914Y-45846407D01*
X165112642Y-45993016D01*
X165143600Y-46148654D01*
X165143600Y-46307346D01*
X165112642Y-46462984D01*
X165051914Y-46609593D01*
X165051913Y-46609595D01*
X164963750Y-46741540D01*
X164851540Y-46853750D01*
X164719595Y-46941913D01*
X164719594Y-46941914D01*
X164719593Y-46941914D01*
X164572984Y-47002642D01*
X164417346Y-47033600D01*
X164258654Y-47033600D01*
X164103016Y-47002642D01*
X163956407Y-46941914D01*
X163956406Y-46941914D01*
X163956405Y-46941913D01*
X163824460Y-46853750D01*
X163712250Y-46741540D01*
X163624087Y-46609595D01*
X163624086Y-46609593D01*
X163563358Y-46462984D01*
X163532400Y-46307346D01*
X163532400Y-46148654D01*
X163563358Y-45993016D01*
X163624086Y-45846407D01*
X163712249Y-45714461D01*
X163824461Y-45602249D01*
X163889986Y-45558467D01*
X163956405Y-45514087D01*
X163956407Y-45514086D01*
X164103016Y-45453358D01*
X164258654Y-45422400D01*
X164417346Y-45422400D01*
X164572984Y-45453358D01*
G37*
G36*
X198374549Y-41071116D02*
G01*
X198485734Y-41093232D01*
X198695203Y-41179997D01*
X198883720Y-41305960D01*
X199044040Y-41466280D01*
X199170003Y-41654797D01*
X199256768Y-41864266D01*
X199301000Y-42086636D01*
X199301000Y-42313364D01*
X199256768Y-42535734D01*
X199170003Y-42745203D01*
X199044040Y-42933720D01*
X198883720Y-43094040D01*
X198695203Y-43220003D01*
X198485734Y-43306768D01*
X198374549Y-43328884D01*
X198263365Y-43351000D01*
X198036635Y-43351000D01*
X197925451Y-43328884D01*
X197814266Y-43306768D01*
X197604797Y-43220003D01*
X197416280Y-43094040D01*
X197255960Y-42933720D01*
X197129997Y-42745203D01*
X197043232Y-42535734D01*
X196999000Y-42313364D01*
X196999000Y-42086636D01*
X197043232Y-41864266D01*
X197129997Y-41654797D01*
X197255960Y-41466280D01*
X197416280Y-41305960D01*
X197604797Y-41179997D01*
X197814266Y-41093232D01*
X197925451Y-41071116D01*
X198036635Y-41049000D01*
X198263365Y-41049000D01*
X198374549Y-41071116D01*
G37*
G36*
X189636400Y-42138600D02*
G01*
X187198000Y-42138600D01*
X187198000Y-40716200D01*
X189636400Y-40716200D01*
X189636400Y-42138600D01*
G37*
G36*
X195816600Y-41017600D02*
G01*
X193413400Y-41017600D01*
X193413400Y-37214400D01*
X195816600Y-37214400D01*
X195816600Y-41017600D01*
G37*
G36*
X202598254Y-36127818D02*
G01*
X202971511Y-36282426D01*
X202971513Y-36282427D01*
X203307436Y-36506884D01*
X203593116Y-36792564D01*
X203817574Y-37128489D01*
X203972182Y-37501746D01*
X204051000Y-37897993D01*
X204051000Y-38302007D01*
X203972182Y-38698254D01*
X203817574Y-39071511D01*
X203817573Y-39071513D01*
X203593116Y-39407436D01*
X203307436Y-39693116D01*
X202971513Y-39917573D01*
X202971512Y-39917574D01*
X202971511Y-39917574D01*
X202598254Y-40072182D01*
X202202007Y-40151000D01*
X201797993Y-40151000D01*
X201401746Y-40072182D01*
X201028489Y-39917574D01*
X201028488Y-39917574D01*
X201028487Y-39917573D01*
X200692564Y-39693116D01*
X200406884Y-39407436D01*
X200182427Y-39071513D01*
X200182426Y-39071511D01*
X200027818Y-38698254D01*
X199949000Y-38302007D01*
X199949000Y-37897993D01*
X200027818Y-37501746D01*
X200182426Y-37128489D01*
X200406884Y-36792564D01*
X200692564Y-36506884D01*
X201028487Y-36282427D01*
X201028489Y-36282426D01*
X201401746Y-36127818D01*
X201797993Y-36049000D01*
X202202007Y-36049000D01*
X202598254Y-36127818D01*
G37*
G36*
X189636400Y-39827200D02*
G01*
X187198000Y-39827200D01*
X187198000Y-38404800D01*
X189636400Y-38404800D01*
X189636400Y-39827200D01*
G37*
G36*
X189636400Y-37515800D02*
G01*
X187198000Y-37515800D01*
X187198000Y-36093400D01*
X189636400Y-36093400D01*
X189636400Y-37515800D01*
G37*
G36*
X189636400Y-33756600D02*
G01*
X187198000Y-33756600D01*
X187198000Y-32334200D01*
X189636400Y-32334200D01*
X189636400Y-33756600D01*
G37*
G36*
X195816600Y-32635600D02*
G01*
X193413400Y-32635600D01*
X193413400Y-28832400D01*
X195816600Y-28832400D01*
X195816600Y-32635600D01*
G37*
G36*
X168491903Y-30439587D02*
G01*
X168649068Y-30504687D01*
X168790513Y-30599198D01*
X168910802Y-30719487D01*
X169005313Y-30860932D01*
X169070413Y-31018097D01*
X169103600Y-31184943D01*
X169103600Y-31355057D01*
X169070413Y-31521903D01*
X169005313Y-31679068D01*
X168910802Y-31820513D01*
X168790513Y-31940802D01*
X168649068Y-32035313D01*
X168491903Y-32100413D01*
X168325057Y-32133600D01*
X168154943Y-32133600D01*
X167988097Y-32100413D01*
X167830932Y-32035313D01*
X167689487Y-31940802D01*
X167569198Y-31820513D01*
X167474687Y-31679068D01*
X167409587Y-31521903D01*
X167376400Y-31355057D01*
X167376400Y-31184943D01*
X167409587Y-31018097D01*
X167474687Y-30860932D01*
X167569198Y-30719487D01*
X167689487Y-30599198D01*
X167830932Y-30504687D01*
X167988097Y-30439587D01*
X168154943Y-30406400D01*
X168325057Y-30406400D01*
X168491903Y-30439587D01*
G37*
G36*
X140551903Y-30439587D02*
G01*
X140709068Y-30504687D01*
X140850513Y-30599198D01*
X140970802Y-30719487D01*
X141065313Y-30860932D01*
X141130413Y-31018097D01*
X141163600Y-31184943D01*
X141163600Y-31355057D01*
X141130413Y-31521903D01*
X141065313Y-31679068D01*
X140970802Y-31820513D01*
X140850513Y-31940802D01*
X140709068Y-32035313D01*
X140551903Y-32100413D01*
X140385057Y-32133600D01*
X140214943Y-32133600D01*
X140048097Y-32100413D01*
X139890932Y-32035313D01*
X139749487Y-31940802D01*
X139629198Y-31820513D01*
X139534687Y-31679068D01*
X139469587Y-31521903D01*
X139436400Y-31355057D01*
X139436400Y-31184943D01*
X139469587Y-31018097D01*
X139534687Y-30860932D01*
X139629198Y-30719487D01*
X139749487Y-30599198D01*
X139890932Y-30504687D01*
X140048097Y-30439587D01*
X140214943Y-30406400D01*
X140385057Y-30406400D01*
X140551903Y-30439587D01*
G37*
G36*
X143091903Y-30439587D02*
G01*
X143249068Y-30504687D01*
X143390513Y-30599198D01*
X143510802Y-30719487D01*
X143605313Y-30860932D01*
X143670413Y-31018097D01*
X143703600Y-31184943D01*
X143703600Y-31355057D01*
X143670413Y-31521903D01*
X143605313Y-31679068D01*
X143510802Y-31820513D01*
X143390513Y-31940802D01*
X143249068Y-32035313D01*
X143091903Y-32100413D01*
X142925057Y-32133600D01*
X142754943Y-32133600D01*
X142588097Y-32100413D01*
X142430932Y-32035313D01*
X142289487Y-31940802D01*
X142169198Y-31820513D01*
X142074687Y-31679068D01*
X142009587Y-31521903D01*
X141976400Y-31355057D01*
X141976400Y-31184943D01*
X142009587Y-31018097D01*
X142074687Y-30860932D01*
X142169198Y-30719487D01*
X142289487Y-30599198D01*
X142430932Y-30504687D01*
X142588097Y-30439587D01*
X142754943Y-30406400D01*
X142925057Y-30406400D01*
X143091903Y-30439587D01*
G37*
G36*
X148171903Y-30439587D02*
G01*
X148329068Y-30504687D01*
X148470513Y-30599198D01*
X148590802Y-30719487D01*
X148685313Y-30860932D01*
X148750413Y-31018097D01*
X148783600Y-31184943D01*
X148783600Y-31355057D01*
X148750413Y-31521903D01*
X148685313Y-31679068D01*
X148590802Y-31820513D01*
X148470513Y-31940802D01*
X148329068Y-32035313D01*
X148171903Y-32100413D01*
X148005057Y-32133600D01*
X147834943Y-32133600D01*
X147668097Y-32100413D01*
X147510932Y-32035313D01*
X147369487Y-31940802D01*
X147249198Y-31820513D01*
X147154687Y-31679068D01*
X147089587Y-31521903D01*
X147056400Y-31355057D01*
X147056400Y-31184943D01*
X147089587Y-31018097D01*
X147154687Y-30860932D01*
X147249198Y-30719487D01*
X147369487Y-30599198D01*
X147510932Y-30504687D01*
X147668097Y-30439587D01*
X147834943Y-30406400D01*
X148005057Y-30406400D01*
X148171903Y-30439587D01*
G37*
G36*
X150711903Y-30439587D02*
G01*
X150869068Y-30504687D01*
X151010513Y-30599198D01*
X151130802Y-30719487D01*
X151225313Y-30860932D01*
X151290413Y-31018097D01*
X151323600Y-31184943D01*
X151323600Y-31355057D01*
X151290413Y-31521903D01*
X151225313Y-31679068D01*
X151130802Y-31820513D01*
X151010513Y-31940802D01*
X150869068Y-32035313D01*
X150711903Y-32100413D01*
X150545057Y-32133600D01*
X150374943Y-32133600D01*
X150208097Y-32100413D01*
X150050932Y-32035313D01*
X149909487Y-31940802D01*
X149789198Y-31820513D01*
X149694687Y-31679068D01*
X149629587Y-31521903D01*
X149596400Y-31355057D01*
X149596400Y-31184943D01*
X149629587Y-31018097D01*
X149694687Y-30860932D01*
X149789198Y-30719487D01*
X149909487Y-30599198D01*
X150050932Y-30504687D01*
X150208097Y-30439587D01*
X150374943Y-30406400D01*
X150545057Y-30406400D01*
X150711903Y-30439587D01*
G37*
G36*
X153251903Y-30439587D02*
G01*
X153409068Y-30504687D01*
X153550513Y-30599198D01*
X153670802Y-30719487D01*
X153765313Y-30860932D01*
X153830413Y-31018097D01*
X153863600Y-31184943D01*
X153863600Y-31355057D01*
X153830413Y-31521903D01*
X153765313Y-31679068D01*
X153670802Y-31820513D01*
X153550513Y-31940802D01*
X153409068Y-32035313D01*
X153251903Y-32100413D01*
X153085057Y-32133600D01*
X152914943Y-32133600D01*
X152748097Y-32100413D01*
X152590932Y-32035313D01*
X152449487Y-31940802D01*
X152329198Y-31820513D01*
X152234687Y-31679068D01*
X152169587Y-31521903D01*
X152136400Y-31355057D01*
X152136400Y-31184943D01*
X152169587Y-31018097D01*
X152234687Y-30860932D01*
X152329198Y-30719487D01*
X152449487Y-30599198D01*
X152590932Y-30504687D01*
X152748097Y-30439587D01*
X152914943Y-30406400D01*
X153085057Y-30406400D01*
X153251903Y-30439587D01*
G37*
G36*
X125311903Y-30439587D02*
G01*
X125469068Y-30504687D01*
X125610513Y-30599198D01*
X125730802Y-30719487D01*
X125825313Y-30860932D01*
X125890413Y-31018097D01*
X125923600Y-31184943D01*
X125923600Y-31355057D01*
X125890413Y-31521903D01*
X125825313Y-31679068D01*
X125730802Y-31820513D01*
X125610513Y-31940802D01*
X125469068Y-32035313D01*
X125311903Y-32100413D01*
X125145057Y-32133600D01*
X124974943Y-32133600D01*
X124808097Y-32100413D01*
X124650932Y-32035313D01*
X124509487Y-31940802D01*
X124389198Y-31820513D01*
X124294687Y-31679068D01*
X124229587Y-31521903D01*
X124196400Y-31355057D01*
X124196400Y-31184943D01*
X124229587Y-31018097D01*
X124294687Y-30860932D01*
X124389198Y-30719487D01*
X124509487Y-30599198D01*
X124650932Y-30504687D01*
X124808097Y-30439587D01*
X124974943Y-30406400D01*
X125145057Y-30406400D01*
X125311903Y-30439587D01*
G37*
G36*
X127851903Y-30439587D02*
G01*
X128009068Y-30504687D01*
X128150513Y-30599198D01*
X128270802Y-30719487D01*
X128365313Y-30860932D01*
X128430413Y-31018097D01*
X128463600Y-31184943D01*
X128463600Y-31355057D01*
X128430413Y-31521903D01*
X128365313Y-31679068D01*
X128270802Y-31820513D01*
X128150513Y-31940802D01*
X128009068Y-32035313D01*
X127851903Y-32100413D01*
X127685057Y-32133600D01*
X127514943Y-32133600D01*
X127348097Y-32100413D01*
X127190932Y-32035313D01*
X127049487Y-31940802D01*
X126929198Y-31820513D01*
X126834687Y-31679068D01*
X126769587Y-31521903D01*
X126736400Y-31355057D01*
X126736400Y-31184943D01*
X126769587Y-31018097D01*
X126834687Y-30860932D01*
X126929198Y-30719487D01*
X127049487Y-30599198D01*
X127190932Y-30504687D01*
X127348097Y-30439587D01*
X127514943Y-30406400D01*
X127685057Y-30406400D01*
X127851903Y-30439587D01*
G37*
G36*
X130391903Y-30439587D02*
G01*
X130549068Y-30504687D01*
X130690513Y-30599198D01*
X130810802Y-30719487D01*
X130905313Y-30860932D01*
X130970413Y-31018097D01*
X131003600Y-31184943D01*
X131003600Y-31355057D01*
X130970413Y-31521903D01*
X130905313Y-31679068D01*
X130810802Y-31820513D01*
X130690513Y-31940802D01*
X130549068Y-32035313D01*
X130391903Y-32100413D01*
X130225057Y-32133600D01*
X130054943Y-32133600D01*
X129888097Y-32100413D01*
X129730932Y-32035313D01*
X129589487Y-31940802D01*
X129469198Y-31820513D01*
X129374687Y-31679068D01*
X129309587Y-31521903D01*
X129276400Y-31355057D01*
X129276400Y-31184943D01*
X129309587Y-31018097D01*
X129374687Y-30860932D01*
X129469198Y-30719487D01*
X129589487Y-30599198D01*
X129730932Y-30504687D01*
X129888097Y-30439587D01*
X130054943Y-30406400D01*
X130225057Y-30406400D01*
X130391903Y-30439587D01*
G37*
G36*
X132931903Y-30439587D02*
G01*
X133089068Y-30504687D01*
X133230513Y-30599198D01*
X133350802Y-30719487D01*
X133445313Y-30860932D01*
X133510413Y-31018097D01*
X133543600Y-31184943D01*
X133543600Y-31355057D01*
X133510413Y-31521903D01*
X133445313Y-31679068D01*
X133350802Y-31820513D01*
X133230513Y-31940802D01*
X133089068Y-32035313D01*
X132931903Y-32100413D01*
X132765057Y-32133600D01*
X132594943Y-32133600D01*
X132428097Y-32100413D01*
X132270932Y-32035313D01*
X132129487Y-31940802D01*
X132009198Y-31820513D01*
X131914687Y-31679068D01*
X131849587Y-31521903D01*
X131816400Y-31355057D01*
X131816400Y-31184943D01*
X131849587Y-31018097D01*
X131914687Y-30860932D01*
X132009198Y-30719487D01*
X132129487Y-30599198D01*
X132270932Y-30504687D01*
X132428097Y-30439587D01*
X132594943Y-30406400D01*
X132765057Y-30406400D01*
X132931903Y-30439587D01*
G37*
G36*
X135471903Y-30439587D02*
G01*
X135629068Y-30504687D01*
X135770513Y-30599198D01*
X135890802Y-30719487D01*
X135985313Y-30860932D01*
X136050413Y-31018097D01*
X136083600Y-31184943D01*
X136083600Y-31355057D01*
X136050413Y-31521903D01*
X135985313Y-31679068D01*
X135890802Y-31820513D01*
X135770513Y-31940802D01*
X135629068Y-32035313D01*
X135471903Y-32100413D01*
X135305057Y-32133600D01*
X135134943Y-32133600D01*
X134968097Y-32100413D01*
X134810932Y-32035313D01*
X134669487Y-31940802D01*
X134549198Y-31820513D01*
X134454687Y-31679068D01*
X134389587Y-31521903D01*
X134356400Y-31355057D01*
X134356400Y-31184943D01*
X134389587Y-31018097D01*
X134454687Y-30860932D01*
X134549198Y-30719487D01*
X134669487Y-30599198D01*
X134810932Y-30504687D01*
X134968097Y-30439587D01*
X135134943Y-30406400D01*
X135305057Y-30406400D01*
X135471903Y-30439587D01*
G37*
G36*
X138011903Y-30439587D02*
G01*
X138169068Y-30504687D01*
X138310513Y-30599198D01*
X138430802Y-30719487D01*
X138525313Y-30860932D01*
X138590413Y-31018097D01*
X138623600Y-31184943D01*
X138623600Y-31355057D01*
X138590413Y-31521903D01*
X138525313Y-31679068D01*
X138430802Y-31820513D01*
X138310513Y-31940802D01*
X138169068Y-32035313D01*
X138011903Y-32100413D01*
X137845057Y-32133600D01*
X137674943Y-32133600D01*
X137508097Y-32100413D01*
X137350932Y-32035313D01*
X137209487Y-31940802D01*
X137089198Y-31820513D01*
X136994687Y-31679068D01*
X136929587Y-31521903D01*
X136896400Y-31355057D01*
X136896400Y-31184943D01*
X136929587Y-31018097D01*
X136994687Y-30860932D01*
X137089198Y-30719487D01*
X137209487Y-30599198D01*
X137350932Y-30504687D01*
X137508097Y-30439587D01*
X137674943Y-30406400D01*
X137845057Y-30406400D01*
X138011903Y-30439587D01*
G37*
G36*
X155791903Y-30439587D02*
G01*
X155949068Y-30504687D01*
X156090513Y-30599198D01*
X156210802Y-30719487D01*
X156305313Y-30860932D01*
X156370413Y-31018097D01*
X156403600Y-31184943D01*
X156403600Y-31355057D01*
X156370413Y-31521903D01*
X156305313Y-31679068D01*
X156210802Y-31820513D01*
X156090513Y-31940802D01*
X155949068Y-32035313D01*
X155791903Y-32100413D01*
X155625057Y-32133600D01*
X155454943Y-32133600D01*
X155288097Y-32100413D01*
X155130932Y-32035313D01*
X154989487Y-31940802D01*
X154869198Y-31820513D01*
X154774687Y-31679068D01*
X154709587Y-31521903D01*
X154676400Y-31355057D01*
X154676400Y-31184943D01*
X154709587Y-31018097D01*
X154774687Y-30860932D01*
X154869198Y-30719487D01*
X154989487Y-30599198D01*
X155130932Y-30504687D01*
X155288097Y-30439587D01*
X155454943Y-30406400D01*
X155625057Y-30406400D01*
X155791903Y-30439587D01*
G37*
G36*
X165951903Y-30439587D02*
G01*
X166109068Y-30504687D01*
X166250513Y-30599198D01*
X166370802Y-30719487D01*
X166465313Y-30860932D01*
X166530413Y-31018097D01*
X166563600Y-31184943D01*
X166563600Y-31355057D01*
X166530413Y-31521903D01*
X166465313Y-31679068D01*
X166370802Y-31820513D01*
X166250513Y-31940802D01*
X166109068Y-32035313D01*
X165951903Y-32100413D01*
X165785057Y-32133600D01*
X165614943Y-32133600D01*
X165448097Y-32100413D01*
X165290932Y-32035313D01*
X165149487Y-31940802D01*
X165029198Y-31820513D01*
X164934687Y-31679068D01*
X164869587Y-31521903D01*
X164836400Y-31355057D01*
X164836400Y-31184943D01*
X164869587Y-31018097D01*
X164934687Y-30860932D01*
X165029198Y-30719487D01*
X165149487Y-30599198D01*
X165290932Y-30504687D01*
X165448097Y-30439587D01*
X165614943Y-30406400D01*
X165785057Y-30406400D01*
X165951903Y-30439587D01*
G37*
G36*
X183731903Y-30439587D02*
G01*
X183889068Y-30504687D01*
X184030513Y-30599198D01*
X184150802Y-30719487D01*
X184245313Y-30860932D01*
X184310413Y-31018097D01*
X184343600Y-31184943D01*
X184343600Y-31355057D01*
X184310413Y-31521903D01*
X184245313Y-31679068D01*
X184150802Y-31820513D01*
X184030513Y-31940802D01*
X183889068Y-32035313D01*
X183731903Y-32100413D01*
X183565057Y-32133600D01*
X183394943Y-32133600D01*
X183228097Y-32100413D01*
X183070932Y-32035313D01*
X182929487Y-31940802D01*
X182809198Y-31820513D01*
X182714687Y-31679068D01*
X182649587Y-31521903D01*
X182616400Y-31355057D01*
X182616400Y-31184943D01*
X182649587Y-31018097D01*
X182714687Y-30860932D01*
X182809198Y-30719487D01*
X182929487Y-30599198D01*
X183070932Y-30504687D01*
X183228097Y-30439587D01*
X183394943Y-30406400D01*
X183565057Y-30406400D01*
X183731903Y-30439587D01*
G37*
G36*
X181191903Y-30439587D02*
G01*
X181349068Y-30504687D01*
X181490513Y-30599198D01*
X181610802Y-30719487D01*
X181705313Y-30860932D01*
X181770413Y-31018097D01*
X181803600Y-31184943D01*
X181803600Y-31355057D01*
X181770413Y-31521903D01*
X181705313Y-31679068D01*
X181610802Y-31820513D01*
X181490513Y-31940802D01*
X181349068Y-32035313D01*
X181191903Y-32100413D01*
X181025057Y-32133600D01*
X180854943Y-32133600D01*
X180688097Y-32100413D01*
X180530932Y-32035313D01*
X180389487Y-31940802D01*
X180269198Y-31820513D01*
X180174687Y-31679068D01*
X180109587Y-31521903D01*
X180076400Y-31355057D01*
X180076400Y-31184943D01*
X180109587Y-31018097D01*
X180174687Y-30860932D01*
X180269198Y-30719487D01*
X180389487Y-30599198D01*
X180530932Y-30504687D01*
X180688097Y-30439587D01*
X180854943Y-30406400D01*
X181025057Y-30406400D01*
X181191903Y-30439587D01*
G37*
G36*
X158331903Y-30439587D02*
G01*
X158489068Y-30504687D01*
X158630513Y-30599198D01*
X158750802Y-30719487D01*
X158845313Y-30860932D01*
X158910413Y-31018097D01*
X158943600Y-31184943D01*
X158943600Y-31355057D01*
X158910413Y-31521903D01*
X158845313Y-31679068D01*
X158750802Y-31820513D01*
X158630513Y-31940802D01*
X158489068Y-32035313D01*
X158331903Y-32100413D01*
X158165057Y-32133600D01*
X157994943Y-32133600D01*
X157828097Y-32100413D01*
X157670932Y-32035313D01*
X157529487Y-31940802D01*
X157409198Y-31820513D01*
X157314687Y-31679068D01*
X157249587Y-31521903D01*
X157216400Y-31355057D01*
X157216400Y-31184943D01*
X157249587Y-31018097D01*
X157314687Y-30860932D01*
X157409198Y-30719487D01*
X157529487Y-30599198D01*
X157670932Y-30504687D01*
X157828097Y-30439587D01*
X157994943Y-30406400D01*
X158165057Y-30406400D01*
X158331903Y-30439587D01*
G37*
G36*
X178651903Y-30439587D02*
G01*
X178809068Y-30504687D01*
X178950513Y-30599198D01*
X179070802Y-30719487D01*
X179165313Y-30860932D01*
X179230413Y-31018097D01*
X179263600Y-31184943D01*
X179263600Y-31355057D01*
X179230413Y-31521903D01*
X179165313Y-31679068D01*
X179070802Y-31820513D01*
X178950513Y-31940802D01*
X178809068Y-32035313D01*
X178651903Y-32100413D01*
X178485057Y-32133600D01*
X178314943Y-32133600D01*
X178148097Y-32100413D01*
X177990932Y-32035313D01*
X177849487Y-31940802D01*
X177729198Y-31820513D01*
X177634687Y-31679068D01*
X177569587Y-31521903D01*
X177536400Y-31355057D01*
X177536400Y-31184943D01*
X177569587Y-31018097D01*
X177634687Y-30860932D01*
X177729198Y-30719487D01*
X177849487Y-30599198D01*
X177990932Y-30504687D01*
X178148097Y-30439587D01*
X178314943Y-30406400D01*
X178485057Y-30406400D01*
X178651903Y-30439587D01*
G37*
G36*
X176111903Y-30439587D02*
G01*
X176269068Y-30504687D01*
X176410513Y-30599198D01*
X176530802Y-30719487D01*
X176625313Y-30860932D01*
X176690413Y-31018097D01*
X176723600Y-31184943D01*
X176723600Y-31355057D01*
X176690413Y-31521903D01*
X176625313Y-31679068D01*
X176530802Y-31820513D01*
X176410513Y-31940802D01*
X176269068Y-32035313D01*
X176111903Y-32100413D01*
X175945057Y-32133600D01*
X175774943Y-32133600D01*
X175608097Y-32100413D01*
X175450932Y-32035313D01*
X175309487Y-31940802D01*
X175189198Y-31820513D01*
X175094687Y-31679068D01*
X175029587Y-31521903D01*
X174996400Y-31355057D01*
X174996400Y-31184943D01*
X175029587Y-31018097D01*
X175094687Y-30860932D01*
X175189198Y-30719487D01*
X175309487Y-30599198D01*
X175450932Y-30504687D01*
X175608097Y-30439587D01*
X175774943Y-30406400D01*
X175945057Y-30406400D01*
X176111903Y-30439587D01*
G37*
G36*
X160871903Y-30439587D02*
G01*
X161029068Y-30504687D01*
X161170513Y-30599198D01*
X161290802Y-30719487D01*
X161385313Y-30860932D01*
X161450413Y-31018097D01*
X161483600Y-31184943D01*
X161483600Y-31355057D01*
X161450413Y-31521903D01*
X161385313Y-31679068D01*
X161290802Y-31820513D01*
X161170513Y-31940802D01*
X161029068Y-32035313D01*
X160871903Y-32100413D01*
X160705057Y-32133600D01*
X160534943Y-32133600D01*
X160368097Y-32100413D01*
X160210932Y-32035313D01*
X160069487Y-31940802D01*
X159949198Y-31820513D01*
X159854687Y-31679068D01*
X159789587Y-31521903D01*
X159756400Y-31355057D01*
X159756400Y-31184943D01*
X159789587Y-31018097D01*
X159854687Y-30860932D01*
X159949198Y-30719487D01*
X160069487Y-30599198D01*
X160210932Y-30504687D01*
X160368097Y-30439587D01*
X160534943Y-30406400D01*
X160705057Y-30406400D01*
X160871903Y-30439587D01*
G37*
G36*
X173571903Y-30439587D02*
G01*
X173729068Y-30504687D01*
X173870513Y-30599198D01*
X173990802Y-30719487D01*
X174085313Y-30860932D01*
X174150413Y-31018097D01*
X174183600Y-31184943D01*
X174183600Y-31355057D01*
X174150413Y-31521903D01*
X174085313Y-31679068D01*
X173990802Y-31820513D01*
X173870513Y-31940802D01*
X173729068Y-32035313D01*
X173571903Y-32100413D01*
X173405057Y-32133600D01*
X173234943Y-32133600D01*
X173068097Y-32100413D01*
X172910932Y-32035313D01*
X172769487Y-31940802D01*
X172649198Y-31820513D01*
X172554687Y-31679068D01*
X172489587Y-31521903D01*
X172456400Y-31355057D01*
X172456400Y-31184943D01*
X172489587Y-31018097D01*
X172554687Y-30860932D01*
X172649198Y-30719487D01*
X172769487Y-30599198D01*
X172910932Y-30504687D01*
X173068097Y-30439587D01*
X173234943Y-30406400D01*
X173405057Y-30406400D01*
X173571903Y-30439587D01*
G37*
G36*
X171031903Y-30439587D02*
G01*
X171189068Y-30504687D01*
X171330513Y-30599198D01*
X171450802Y-30719487D01*
X171545313Y-30860932D01*
X171610413Y-31018097D01*
X171643600Y-31184943D01*
X171643600Y-31355057D01*
X171610413Y-31521903D01*
X171545313Y-31679068D01*
X171450802Y-31820513D01*
X171330513Y-31940802D01*
X171189068Y-32035313D01*
X171031903Y-32100413D01*
X170865057Y-32133600D01*
X170694943Y-32133600D01*
X170528097Y-32100413D01*
X170370932Y-32035313D01*
X170229487Y-31940802D01*
X170109198Y-31820513D01*
X170014687Y-31679068D01*
X169949587Y-31521903D01*
X169916400Y-31355057D01*
X169916400Y-31184943D01*
X169949587Y-31018097D01*
X170014687Y-30860932D01*
X170109198Y-30719487D01*
X170229487Y-30599198D01*
X170370932Y-30504687D01*
X170528097Y-30439587D01*
X170694943Y-30406400D01*
X170865057Y-30406400D01*
X171031903Y-30439587D01*
G37*
G36*
X163411903Y-30439587D02*
G01*
X163569068Y-30504687D01*
X163710513Y-30599198D01*
X163830802Y-30719487D01*
X163925313Y-30860932D01*
X163990413Y-31018097D01*
X164023600Y-31184943D01*
X164023600Y-31355057D01*
X163990413Y-31521903D01*
X163925313Y-31679068D01*
X163830802Y-31820513D01*
X163710513Y-31940802D01*
X163569068Y-32035313D01*
X163411903Y-32100413D01*
X163245057Y-32133600D01*
X163074943Y-32133600D01*
X162908097Y-32100413D01*
X162750932Y-32035313D01*
X162609487Y-31940802D01*
X162489198Y-31820513D01*
X162394687Y-31679068D01*
X162329587Y-31521903D01*
X162296400Y-31355057D01*
X162296400Y-31184943D01*
X162329587Y-31018097D01*
X162394687Y-30860932D01*
X162489198Y-30719487D01*
X162609487Y-30599198D01*
X162750932Y-30504687D01*
X162908097Y-30439587D01*
X163074943Y-30406400D01*
X163245057Y-30406400D01*
X163411903Y-30439587D01*
G37*
G36*
X145631903Y-30439587D02*
G01*
X145789068Y-30504687D01*
X145930513Y-30599198D01*
X146050802Y-30719487D01*
X146145313Y-30860932D01*
X146210413Y-31018097D01*
X146243600Y-31184943D01*
X146243600Y-31355057D01*
X146210413Y-31521903D01*
X146145313Y-31679068D01*
X146050802Y-31820513D01*
X145930513Y-31940802D01*
X145789068Y-32035313D01*
X145631903Y-32100413D01*
X145465057Y-32133600D01*
X145294943Y-32133600D01*
X145128097Y-32100413D01*
X144970932Y-32035313D01*
X144829487Y-31940802D01*
X144709198Y-31820513D01*
X144614687Y-31679068D01*
X144549587Y-31521903D01*
X144516400Y-31355057D01*
X144516400Y-31184943D01*
X144549587Y-31018097D01*
X144614687Y-30860932D01*
X144709198Y-30719487D01*
X144829487Y-30599198D01*
X144970932Y-30504687D01*
X145128097Y-30439587D01*
X145294943Y-30406400D01*
X145465057Y-30406400D01*
X145631903Y-30439587D01*
G37*
G36*
X189636400Y-31445200D02*
G01*
X187198000Y-31445200D01*
X187198000Y-30022800D01*
X189636400Y-30022800D01*
X189636400Y-31445200D01*
G37*
G36*
X183731903Y-27899587D02*
G01*
X183889068Y-27964687D01*
X184030513Y-28059198D01*
X184150802Y-28179487D01*
X184245313Y-28320932D01*
X184310413Y-28478097D01*
X184343600Y-28644943D01*
X184343600Y-28815057D01*
X184310413Y-28981903D01*
X184245313Y-29139068D01*
X184150802Y-29280513D01*
X184030513Y-29400802D01*
X183889068Y-29495313D01*
X183731903Y-29560413D01*
X183565057Y-29593600D01*
X183394943Y-29593600D01*
X183228097Y-29560413D01*
X183070932Y-29495313D01*
X182929487Y-29400802D01*
X182809198Y-29280513D01*
X182714687Y-29139068D01*
X182649587Y-28981903D01*
X182616400Y-28815057D01*
X182616400Y-28644943D01*
X182649587Y-28478097D01*
X182714687Y-28320932D01*
X182809198Y-28179487D01*
X182929487Y-28059198D01*
X183070932Y-27964687D01*
X183228097Y-27899587D01*
X183394943Y-27866400D01*
X183565057Y-27866400D01*
X183731903Y-27899587D01*
G37*
G36*
X181191903Y-27899587D02*
G01*
X181349068Y-27964687D01*
X181490513Y-28059198D01*
X181610802Y-28179487D01*
X181705313Y-28320932D01*
X181770413Y-28478097D01*
X181803600Y-28644943D01*
X181803600Y-28815057D01*
X181770413Y-28981903D01*
X181705313Y-29139068D01*
X181610802Y-29280513D01*
X181490513Y-29400802D01*
X181349068Y-29495313D01*
X181191903Y-29560413D01*
X181025057Y-29593600D01*
X180854943Y-29593600D01*
X180688097Y-29560413D01*
X180530932Y-29495313D01*
X180389487Y-29400802D01*
X180269198Y-29280513D01*
X180174687Y-29139068D01*
X180109587Y-28981903D01*
X180076400Y-28815057D01*
X180076400Y-28644943D01*
X180109587Y-28478097D01*
X180174687Y-28320932D01*
X180269198Y-28179487D01*
X180389487Y-28059198D01*
X180530932Y-27964687D01*
X180688097Y-27899587D01*
X180854943Y-27866400D01*
X181025057Y-27866400D01*
X181191903Y-27899587D01*
G37*
G36*
X178651903Y-27899587D02*
G01*
X178809068Y-27964687D01*
X178950513Y-28059198D01*
X179070802Y-28179487D01*
X179165313Y-28320932D01*
X179230413Y-28478097D01*
X179263600Y-28644943D01*
X179263600Y-28815057D01*
X179230413Y-28981903D01*
X179165313Y-29139068D01*
X179070802Y-29280513D01*
X178950513Y-29400802D01*
X178809068Y-29495313D01*
X178651903Y-29560413D01*
X178485057Y-29593600D01*
X178314943Y-29593600D01*
X178148097Y-29560413D01*
X177990932Y-29495313D01*
X177849487Y-29400802D01*
X177729198Y-29280513D01*
X177634687Y-29139068D01*
X177569587Y-28981903D01*
X177536400Y-28815057D01*
X177536400Y-28644943D01*
X177569587Y-28478097D01*
X177634687Y-28320932D01*
X177729198Y-28179487D01*
X177849487Y-28059198D01*
X177990932Y-27964687D01*
X178148097Y-27899587D01*
X178314943Y-27866400D01*
X178485057Y-27866400D01*
X178651903Y-27899587D01*
G37*
G36*
X176111903Y-27899587D02*
G01*
X176269068Y-27964687D01*
X176410513Y-28059198D01*
X176530802Y-28179487D01*
X176625313Y-28320932D01*
X176690413Y-28478097D01*
X176723600Y-28644943D01*
X176723600Y-28815057D01*
X176690413Y-28981903D01*
X176625313Y-29139068D01*
X176530802Y-29280513D01*
X176410513Y-29400802D01*
X176269068Y-29495313D01*
X176111903Y-29560413D01*
X175945057Y-29593600D01*
X175774943Y-29593600D01*
X175608097Y-29560413D01*
X175450932Y-29495313D01*
X175309487Y-29400802D01*
X175189198Y-29280513D01*
X175094687Y-29139068D01*
X175029587Y-28981903D01*
X174996400Y-28815057D01*
X174996400Y-28644943D01*
X175029587Y-28478097D01*
X175094687Y-28320932D01*
X175189198Y-28179487D01*
X175309487Y-28059198D01*
X175450932Y-27964687D01*
X175608097Y-27899587D01*
X175774943Y-27866400D01*
X175945057Y-27866400D01*
X176111903Y-27899587D01*
G37*
G36*
X173571903Y-27899587D02*
G01*
X173729068Y-27964687D01*
X173870513Y-28059198D01*
X173990802Y-28179487D01*
X174085313Y-28320932D01*
X174150413Y-28478097D01*
X174183600Y-28644943D01*
X174183600Y-28815057D01*
X174150413Y-28981903D01*
X174085313Y-29139068D01*
X173990802Y-29280513D01*
X173870513Y-29400802D01*
X173729068Y-29495313D01*
X173571903Y-29560413D01*
X173405057Y-29593600D01*
X173234943Y-29593600D01*
X173068097Y-29560413D01*
X172910932Y-29495313D01*
X172769487Y-29400802D01*
X172649198Y-29280513D01*
X172554687Y-29139068D01*
X172489587Y-28981903D01*
X172456400Y-28815057D01*
X172456400Y-28644943D01*
X172489587Y-28478097D01*
X172554687Y-28320932D01*
X172649198Y-28179487D01*
X172769487Y-28059198D01*
X172910932Y-27964687D01*
X173068097Y-27899587D01*
X173234943Y-27866400D01*
X173405057Y-27866400D01*
X173571903Y-27899587D01*
G37*
G36*
X168491903Y-27899587D02*
G01*
X168649068Y-27964687D01*
X168790513Y-28059198D01*
X168910802Y-28179487D01*
X169005313Y-28320932D01*
X169070413Y-28478097D01*
X169103600Y-28644943D01*
X169103600Y-28815057D01*
X169070413Y-28981903D01*
X169005313Y-29139068D01*
X168910802Y-29280513D01*
X168790513Y-29400802D01*
X168649068Y-29495313D01*
X168491903Y-29560413D01*
X168325057Y-29593600D01*
X168154943Y-29593600D01*
X167988097Y-29560413D01*
X167830932Y-29495313D01*
X167689487Y-29400802D01*
X167569198Y-29280513D01*
X167474687Y-29139068D01*
X167409587Y-28981903D01*
X167376400Y-28815057D01*
X167376400Y-28644943D01*
X167409587Y-28478097D01*
X167474687Y-28320932D01*
X167569198Y-28179487D01*
X167689487Y-28059198D01*
X167830932Y-27964687D01*
X167988097Y-27899587D01*
X168154943Y-27866400D01*
X168325057Y-27866400D01*
X168491903Y-27899587D01*
G37*
G36*
X160871903Y-27899587D02*
G01*
X161029068Y-27964687D01*
X161170513Y-28059198D01*
X161290802Y-28179487D01*
X161385313Y-28320932D01*
X161450413Y-28478097D01*
X161483600Y-28644943D01*
X161483600Y-28815057D01*
X161450413Y-28981903D01*
X161385313Y-29139068D01*
X161290802Y-29280513D01*
X161170513Y-29400802D01*
X161029068Y-29495313D01*
X160871903Y-29560413D01*
X160705057Y-29593600D01*
X160534943Y-29593600D01*
X160368097Y-29560413D01*
X160210932Y-29495313D01*
X160069487Y-29400802D01*
X159949198Y-29280513D01*
X159854687Y-29139068D01*
X159789587Y-28981903D01*
X159756400Y-28815057D01*
X159756400Y-28644943D01*
X159789587Y-28478097D01*
X159854687Y-28320932D01*
X159949198Y-28179487D01*
X160069487Y-28059198D01*
X160210932Y-27964687D01*
X160368097Y-27899587D01*
X160534943Y-27866400D01*
X160705057Y-27866400D01*
X160871903Y-27899587D01*
G37*
G36*
X171031903Y-27899587D02*
G01*
X171189068Y-27964687D01*
X171330513Y-28059198D01*
X171450802Y-28179487D01*
X171545313Y-28320932D01*
X171610413Y-28478097D01*
X171643600Y-28644943D01*
X171643600Y-28815057D01*
X171610413Y-28981903D01*
X171545313Y-29139068D01*
X171450802Y-29280513D01*
X171330513Y-29400802D01*
X171189068Y-29495313D01*
X171031903Y-29560413D01*
X170865057Y-29593600D01*
X170694943Y-29593600D01*
X170528097Y-29560413D01*
X170370932Y-29495313D01*
X170229487Y-29400802D01*
X170109198Y-29280513D01*
X170014687Y-29139068D01*
X169949587Y-28981903D01*
X169916400Y-28815057D01*
X169916400Y-28644943D01*
X169949587Y-28478097D01*
X170014687Y-28320932D01*
X170109198Y-28179487D01*
X170229487Y-28059198D01*
X170370932Y-27964687D01*
X170528097Y-27899587D01*
X170694943Y-27866400D01*
X170865057Y-27866400D01*
X171031903Y-27899587D01*
G37*
G36*
X150711903Y-27899587D02*
G01*
X150869068Y-27964687D01*
X151010513Y-28059198D01*
X151130802Y-28179487D01*
X151225313Y-28320932D01*
X151290413Y-28478097D01*
X151323600Y-28644943D01*
X151323600Y-28815057D01*
X151290413Y-28981903D01*
X151225313Y-29139068D01*
X151130802Y-29280513D01*
X151010513Y-29400802D01*
X150869068Y-29495313D01*
X150711903Y-29560413D01*
X150545057Y-29593600D01*
X150374943Y-29593600D01*
X150208097Y-29560413D01*
X150050932Y-29495313D01*
X149909487Y-29400802D01*
X149789198Y-29280513D01*
X149694687Y-29139068D01*
X149629587Y-28981903D01*
X149596400Y-28815057D01*
X149596400Y-28644943D01*
X149629587Y-28478097D01*
X149694687Y-28320932D01*
X149789198Y-28179487D01*
X149909487Y-28059198D01*
X150050932Y-27964687D01*
X150208097Y-27899587D01*
X150374943Y-27866400D01*
X150545057Y-27866400D01*
X150711903Y-27899587D01*
G37*
G36*
X153251903Y-27899587D02*
G01*
X153409068Y-27964687D01*
X153550513Y-28059198D01*
X153670802Y-28179487D01*
X153765313Y-28320932D01*
X153830413Y-28478097D01*
X153863600Y-28644943D01*
X153863600Y-28815057D01*
X153830413Y-28981903D01*
X153765313Y-29139068D01*
X153670802Y-29280513D01*
X153550513Y-29400802D01*
X153409068Y-29495313D01*
X153251903Y-29560413D01*
X153085057Y-29593600D01*
X152914943Y-29593600D01*
X152748097Y-29560413D01*
X152590932Y-29495313D01*
X152449487Y-29400802D01*
X152329198Y-29280513D01*
X152234687Y-29139068D01*
X152169587Y-28981903D01*
X152136400Y-28815057D01*
X152136400Y-28644943D01*
X152169587Y-28478097D01*
X152234687Y-28320932D01*
X152329198Y-28179487D01*
X152449487Y-28059198D01*
X152590932Y-27964687D01*
X152748097Y-27899587D01*
X152914943Y-27866400D01*
X153085057Y-27866400D01*
X153251903Y-27899587D01*
G37*
G36*
X148171903Y-27899587D02*
G01*
X148329068Y-27964687D01*
X148470513Y-28059198D01*
X148590802Y-28179487D01*
X148685313Y-28320932D01*
X148750413Y-28478097D01*
X148783600Y-28644943D01*
X148783600Y-28815057D01*
X148750413Y-28981903D01*
X148685313Y-29139068D01*
X148590802Y-29280513D01*
X148470513Y-29400802D01*
X148329068Y-29495313D01*
X148171903Y-29560413D01*
X148005057Y-29593600D01*
X147834943Y-29593600D01*
X147668097Y-29560413D01*
X147510932Y-29495313D01*
X147369487Y-29400802D01*
X147249198Y-29280513D01*
X147154687Y-29139068D01*
X147089587Y-28981903D01*
X147056400Y-28815057D01*
X147056400Y-28644943D01*
X147089587Y-28478097D01*
X147154687Y-28320932D01*
X147249198Y-28179487D01*
X147369487Y-28059198D01*
X147510932Y-27964687D01*
X147668097Y-27899587D01*
X147834943Y-27866400D01*
X148005057Y-27866400D01*
X148171903Y-27899587D01*
G37*
G36*
X145631903Y-27899587D02*
G01*
X145789068Y-27964687D01*
X145930513Y-28059198D01*
X146050802Y-28179487D01*
X146145313Y-28320932D01*
X146210413Y-28478097D01*
X146243600Y-28644943D01*
X146243600Y-28815057D01*
X146210413Y-28981903D01*
X146145313Y-29139068D01*
X146050802Y-29280513D01*
X145930513Y-29400802D01*
X145789068Y-29495313D01*
X145631903Y-29560413D01*
X145465057Y-29593600D01*
X145294943Y-29593600D01*
X145128097Y-29560413D01*
X144970932Y-29495313D01*
X144829487Y-29400802D01*
X144709198Y-29280513D01*
X144614687Y-29139068D01*
X144549587Y-28981903D01*
X144516400Y-28815057D01*
X144516400Y-28644943D01*
X144549587Y-28478097D01*
X144614687Y-28320932D01*
X144709198Y-28179487D01*
X144829487Y-28059198D01*
X144970932Y-27964687D01*
X145128097Y-27899587D01*
X145294943Y-27866400D01*
X145465057Y-27866400D01*
X145631903Y-27899587D01*
G37*
G36*
X155791903Y-27899587D02*
G01*
X155949068Y-27964687D01*
X156090513Y-28059198D01*
X156210802Y-28179487D01*
X156305313Y-28320932D01*
X156370413Y-28478097D01*
X156403600Y-28644943D01*
X156403600Y-28815057D01*
X156370413Y-28981903D01*
X156305313Y-29139068D01*
X156210802Y-29280513D01*
X156090513Y-29400802D01*
X155949068Y-29495313D01*
X155791903Y-29560413D01*
X155625057Y-29593600D01*
X155454943Y-29593600D01*
X155288097Y-29560413D01*
X155130932Y-29495313D01*
X154989487Y-29400802D01*
X154869198Y-29280513D01*
X154774687Y-29139068D01*
X154709587Y-28981903D01*
X154676400Y-28815057D01*
X154676400Y-28644943D01*
X154709587Y-28478097D01*
X154774687Y-28320932D01*
X154869198Y-28179487D01*
X154989487Y-28059198D01*
X155130932Y-27964687D01*
X155288097Y-27899587D01*
X155454943Y-27866400D01*
X155625057Y-27866400D01*
X155791903Y-27899587D01*
G37*
G36*
X143091903Y-27899587D02*
G01*
X143249068Y-27964687D01*
X143390513Y-28059198D01*
X143510802Y-28179487D01*
X143605313Y-28320932D01*
X143670413Y-28478097D01*
X143703600Y-28644943D01*
X143703600Y-28815057D01*
X143670413Y-28981903D01*
X143605313Y-29139068D01*
X143510802Y-29280513D01*
X143390513Y-29400802D01*
X143249068Y-29495313D01*
X143091903Y-29560413D01*
X142925057Y-29593600D01*
X142754943Y-29593600D01*
X142588097Y-29560413D01*
X142430932Y-29495313D01*
X142289487Y-29400802D01*
X142169198Y-29280513D01*
X142074687Y-29139068D01*
X142009587Y-28981903D01*
X141976400Y-28815057D01*
X141976400Y-28644943D01*
X142009587Y-28478097D01*
X142074687Y-28320932D01*
X142169198Y-28179487D01*
X142289487Y-28059198D01*
X142430932Y-27964687D01*
X142588097Y-27899587D01*
X142754943Y-27866400D01*
X142925057Y-27866400D01*
X143091903Y-27899587D01*
G37*
G36*
X140551903Y-27899587D02*
G01*
X140709068Y-27964687D01*
X140850513Y-28059198D01*
X140970802Y-28179487D01*
X141065313Y-28320932D01*
X141130413Y-28478097D01*
X141163600Y-28644943D01*
X141163600Y-28815057D01*
X141130413Y-28981903D01*
X141065313Y-29139068D01*
X140970802Y-29280513D01*
X140850513Y-29400802D01*
X140709068Y-29495313D01*
X140551903Y-29560413D01*
X140385057Y-29593600D01*
X140214943Y-29593600D01*
X140048097Y-29560413D01*
X139890932Y-29495313D01*
X139749487Y-29400802D01*
X139629198Y-29280513D01*
X139534687Y-29139068D01*
X139469587Y-28981903D01*
X139436400Y-28815057D01*
X139436400Y-28644943D01*
X139469587Y-28478097D01*
X139534687Y-28320932D01*
X139629198Y-28179487D01*
X139749487Y-28059198D01*
X139890932Y-27964687D01*
X140048097Y-27899587D01*
X140214943Y-27866400D01*
X140385057Y-27866400D01*
X140551903Y-27899587D01*
G37*
G36*
X138011903Y-27899587D02*
G01*
X138169068Y-27964687D01*
X138310513Y-28059198D01*
X138430802Y-28179487D01*
X138525313Y-28320932D01*
X138590413Y-28478097D01*
X138623600Y-28644943D01*
X138623600Y-28815057D01*
X138590413Y-28981903D01*
X138525313Y-29139068D01*
X138430802Y-29280513D01*
X138310513Y-29400802D01*
X138169068Y-29495313D01*
X138011903Y-29560413D01*
X137845057Y-29593600D01*
X137674943Y-29593600D01*
X137508097Y-29560413D01*
X137350932Y-29495313D01*
X137209487Y-29400802D01*
X137089198Y-29280513D01*
X136994687Y-29139068D01*
X136929587Y-28981903D01*
X136896400Y-28815057D01*
X136896400Y-28644943D01*
X136929587Y-28478097D01*
X136994687Y-28320932D01*
X137089198Y-28179487D01*
X137209487Y-28059198D01*
X137350932Y-27964687D01*
X137508097Y-27899587D01*
X137674943Y-27866400D01*
X137845057Y-27866400D01*
X138011903Y-27899587D01*
G37*
G36*
X158331903Y-27899587D02*
G01*
X158489068Y-27964687D01*
X158630513Y-28059198D01*
X158750802Y-28179487D01*
X158845313Y-28320932D01*
X158910413Y-28478097D01*
X158943600Y-28644943D01*
X158943600Y-28815057D01*
X158910413Y-28981903D01*
X158845313Y-29139068D01*
X158750802Y-29280513D01*
X158630513Y-29400802D01*
X158489068Y-29495313D01*
X158331903Y-29560413D01*
X158165057Y-29593600D01*
X157994943Y-29593600D01*
X157828097Y-29560413D01*
X157670932Y-29495313D01*
X157529487Y-29400802D01*
X157409198Y-29280513D01*
X157314687Y-29139068D01*
X157249587Y-28981903D01*
X157216400Y-28815057D01*
X157216400Y-28644943D01*
X157249587Y-28478097D01*
X157314687Y-28320932D01*
X157409198Y-28179487D01*
X157529487Y-28059198D01*
X157670932Y-27964687D01*
X157828097Y-27899587D01*
X157994943Y-27866400D01*
X158165057Y-27866400D01*
X158331903Y-27899587D01*
G37*
G36*
X135471903Y-27899587D02*
G01*
X135629068Y-27964687D01*
X135770513Y-28059198D01*
X135890802Y-28179487D01*
X135985313Y-28320932D01*
X136050413Y-28478097D01*
X136083600Y-28644943D01*
X136083600Y-28815057D01*
X136050413Y-28981903D01*
X135985313Y-29139068D01*
X135890802Y-29280513D01*
X135770513Y-29400802D01*
X135629068Y-29495313D01*
X135471903Y-29560413D01*
X135305057Y-29593600D01*
X135134943Y-29593600D01*
X134968097Y-29560413D01*
X134810932Y-29495313D01*
X134669487Y-29400802D01*
X134549198Y-29280513D01*
X134454687Y-29139068D01*
X134389587Y-28981903D01*
X134356400Y-28815057D01*
X134356400Y-28644943D01*
X134389587Y-28478097D01*
X134454687Y-28320932D01*
X134549198Y-28179487D01*
X134669487Y-28059198D01*
X134810932Y-27964687D01*
X134968097Y-27899587D01*
X135134943Y-27866400D01*
X135305057Y-27866400D01*
X135471903Y-27899587D01*
G37*
G36*
X132931903Y-27899587D02*
G01*
X133089068Y-27964687D01*
X133230513Y-28059198D01*
X133350802Y-28179487D01*
X133445313Y-28320932D01*
X133510413Y-28478097D01*
X133543600Y-28644943D01*
X133543600Y-28815057D01*
X133510413Y-28981903D01*
X133445313Y-29139068D01*
X133350802Y-29280513D01*
X133230513Y-29400802D01*
X133089068Y-29495313D01*
X132931903Y-29560413D01*
X132765057Y-29593600D01*
X132594943Y-29593600D01*
X132428097Y-29560413D01*
X132270932Y-29495313D01*
X132129487Y-29400802D01*
X132009198Y-29280513D01*
X131914687Y-29139068D01*
X131849587Y-28981903D01*
X131816400Y-28815057D01*
X131816400Y-28644943D01*
X131849587Y-28478097D01*
X131914687Y-28320932D01*
X132009198Y-28179487D01*
X132129487Y-28059198D01*
X132270932Y-27964687D01*
X132428097Y-27899587D01*
X132594943Y-27866400D01*
X132765057Y-27866400D01*
X132931903Y-27899587D01*
G37*
G36*
X130391903Y-27899587D02*
G01*
X130549068Y-27964687D01*
X130690513Y-28059198D01*
X130810802Y-28179487D01*
X130905313Y-28320932D01*
X130970413Y-28478097D01*
X131003600Y-28644943D01*
X131003600Y-28815057D01*
X130970413Y-28981903D01*
X130905313Y-29139068D01*
X130810802Y-29280513D01*
X130690513Y-29400802D01*
X130549068Y-29495313D01*
X130391903Y-29560413D01*
X130225057Y-29593600D01*
X130054943Y-29593600D01*
X129888097Y-29560413D01*
X129730932Y-29495313D01*
X129589487Y-29400802D01*
X129469198Y-29280513D01*
X129374687Y-29139068D01*
X129309587Y-28981903D01*
X129276400Y-28815057D01*
X129276400Y-28644943D01*
X129309587Y-28478097D01*
X129374687Y-28320932D01*
X129469198Y-28179487D01*
X129589487Y-28059198D01*
X129730932Y-27964687D01*
X129888097Y-27899587D01*
X130054943Y-27866400D01*
X130225057Y-27866400D01*
X130391903Y-27899587D01*
G37*
G36*
X163411903Y-27899587D02*
G01*
X163569068Y-27964687D01*
X163710513Y-28059198D01*
X163830802Y-28179487D01*
X163925313Y-28320932D01*
X163990413Y-28478097D01*
X164023600Y-28644943D01*
X164023600Y-28815057D01*
X163990413Y-28981903D01*
X163925313Y-29139068D01*
X163830802Y-29280513D01*
X163710513Y-29400802D01*
X163569068Y-29495313D01*
X163411903Y-29560413D01*
X163245057Y-29593600D01*
X163074943Y-29593600D01*
X162908097Y-29560413D01*
X162750932Y-29495313D01*
X162609487Y-29400802D01*
X162489198Y-29280513D01*
X162394687Y-29139068D01*
X162329587Y-28981903D01*
X162296400Y-28815057D01*
X162296400Y-28644943D01*
X162329587Y-28478097D01*
X162394687Y-28320932D01*
X162489198Y-28179487D01*
X162609487Y-28059198D01*
X162750932Y-27964687D01*
X162908097Y-27899587D01*
X163074943Y-27866400D01*
X163245057Y-27866400D01*
X163411903Y-27899587D01*
G37*
G36*
X127851903Y-27899587D02*
G01*
X128009068Y-27964687D01*
X128150513Y-28059198D01*
X128270802Y-28179487D01*
X128365313Y-28320932D01*
X128430413Y-28478097D01*
X128463600Y-28644943D01*
X128463600Y-28815057D01*
X128430413Y-28981903D01*
X128365313Y-29139068D01*
X128270802Y-29280513D01*
X128150513Y-29400802D01*
X128009068Y-29495313D01*
X127851903Y-29560413D01*
X127685057Y-29593600D01*
X127514943Y-29593600D01*
X127348097Y-29560413D01*
X127190932Y-29495313D01*
X127049487Y-29400802D01*
X126929198Y-29280513D01*
X126834687Y-29139068D01*
X126769587Y-28981903D01*
X126736400Y-28815057D01*
X126736400Y-28644943D01*
X126769587Y-28478097D01*
X126834687Y-28320932D01*
X126929198Y-28179487D01*
X127049487Y-28059198D01*
X127190932Y-27964687D01*
X127348097Y-27899587D01*
X127514943Y-27866400D01*
X127685057Y-27866400D01*
X127851903Y-27899587D01*
G37*
G36*
X165951903Y-27899587D02*
G01*
X166109068Y-27964687D01*
X166250513Y-28059198D01*
X166370802Y-28179487D01*
X166465313Y-28320932D01*
X166530413Y-28478097D01*
X166563600Y-28644943D01*
X166563600Y-28815057D01*
X166530413Y-28981903D01*
X166465313Y-29139068D01*
X166370802Y-29280513D01*
X166250513Y-29400802D01*
X166109068Y-29495313D01*
X165951903Y-29560413D01*
X165785057Y-29593600D01*
X165614943Y-29593600D01*
X165448097Y-29560413D01*
X165290932Y-29495313D01*
X165149487Y-29400802D01*
X165029198Y-29280513D01*
X164934687Y-29139068D01*
X164869587Y-28981903D01*
X164836400Y-28815057D01*
X164836400Y-28644943D01*
X164869587Y-28478097D01*
X164934687Y-28320932D01*
X165029198Y-28179487D01*
X165149487Y-28059198D01*
X165290932Y-27964687D01*
X165448097Y-27899587D01*
X165614943Y-27866400D01*
X165785057Y-27866400D01*
X165951903Y-27899587D01*
G37*
G36*
X125311903Y-27899587D02*
G01*
X125469068Y-27964687D01*
X125610513Y-28059198D01*
X125730802Y-28179487D01*
X125825313Y-28320932D01*
X125890413Y-28478097D01*
X125923600Y-28644943D01*
X125923600Y-28815057D01*
X125890413Y-28981903D01*
X125825313Y-29139068D01*
X125730802Y-29280513D01*
X125610513Y-29400802D01*
X125469068Y-29495313D01*
X125311903Y-29560413D01*
X125145057Y-29593600D01*
X124974943Y-29593600D01*
X124808097Y-29560413D01*
X124650932Y-29495313D01*
X124509487Y-29400802D01*
X124389198Y-29280513D01*
X124294687Y-29139068D01*
X124229587Y-28981903D01*
X124196400Y-28815057D01*
X124196400Y-28644943D01*
X124229587Y-28478097D01*
X124294687Y-28320932D01*
X124389198Y-28179487D01*
X124509487Y-28059198D01*
X124650932Y-27964687D01*
X124808097Y-27899587D01*
X124974943Y-27866400D01*
X125145057Y-27866400D01*
X125311903Y-27899587D01*
G37*
G36*
X189636400Y-29133800D02*
G01*
X187198000Y-29133800D01*
X187198000Y-27711400D01*
X189636400Y-27711400D01*
X189636400Y-29133800D01*
G37*
M02*
