M48
INCH,TZ
T1C0.0157
T2C0.0315
T3C0.0394
T4C0.0400
T5C0.0433
T6C0.0472
T7C0.0492
T8C0.0866
T9C0.1575
%
G90
G05
T1
X45460Y-42760
X45758Y-28770
X45955Y-29409
X45960Y-22460
X46004Y-28044
X46760Y-30720
X46800Y-19600
X47240Y-41900
X47293Y-37884
X47600Y-28320
X47618Y-29449
X47780Y-27500
X47904Y-42490
X48031Y-34390
X48120Y-26860
X48240Y-24300
X48275Y-42448
X48386Y-36575
X48760Y-22300
X49900Y-9600
X50236Y-35866
X50280Y-41640
X50394Y-36417
X50455Y-25275
X50460Y-8540
X50580Y-30580
X50740Y-28600
X50980Y-10400
X51200Y-19700
X51545Y-23366
X51940Y-8100
X52126Y-27283
X52283Y-22510
X52327Y-24580
X52720Y-39280
X52940Y-41700
X53268Y-21230
X53287Y-34252
X53340Y-42300
X53540Y-41300
X53750Y-24577
X53920Y-10200
X53980Y-8120
X54045Y-27500
X54124Y-26457
X54396Y-18316
X54420Y-9420
X54508Y-29715
X54518Y-32648
X54740Y-18080
X55260Y-19858
X55600Y-39780
X55876Y-23435
X55960Y-20140
X56004Y-24774
X56240Y-30039
X56693Y-30472
X56800Y-41700
X56840Y-9220
X56900Y-17740
X56980Y-29400
X57283Y-25600
X57380Y-28500
X57460Y-15760
X57460Y-21103
X57560Y-14760
X57640Y-19560
X57660Y-28820
X58012Y-23652
X58060Y-36020
X58074Y-33240
X58074Y-33660
X58074Y-34040
X58074Y-34420
X58074Y-34840
X58220Y-29120
X58465Y-24331
X58760Y-21180
X58800Y-41200
X58820Y-7040
X58920Y-9400
X59140Y-26620
X59200Y-24940
X59240Y-21140
X59640Y-19240
X59700Y-26800
X59740Y-20580
X59960Y-7060
X60080Y-35932
X60260Y-29900
X60300Y-26620
X60600Y-41300
X60820Y-24960
X60860Y-9000
X60950Y-8100
X61300Y-17720
X61320Y-19800
X61380Y-22580
X61380Y-24440
X61380Y-26240
X61380Y-28140
X61380Y-30440
X61380Y-32300
X61380Y-33660
X61467Y-7392
X61500Y-39400
X61780Y-28800
X62020Y-35020
X62100Y-9860
X62180Y-28640
X62417Y-40937
X62665Y-39265
X62680Y-8660
X62811Y-42286
X62920Y-30600
X62960Y-27040
X62960Y-33800
X63280Y-25580
X63300Y-29500
X63350Y-17750
X63560Y-15640
X63600Y-40300
X63900Y-30520
X64220Y-21440
X64334Y-28714
X64700Y-41000
X64740Y-36583
X64800Y-30240
X64840Y-27460
X64900Y-8720
X64920Y-24480
X65120Y-29460
X65163Y-9563
X65200Y-41100
X65220Y-15640
X65500Y-18650
X65500Y-30860
X65520Y-31700
X65700Y-32920
X65842Y-42286
X65882Y-22788
X65960Y-27000
X66085Y-18441
X66100Y-40200
X66200Y-41900
X66320Y-16500
X66380Y-34340
X66600Y-29700
X66850Y-31900
X66979Y-27012
X67040Y-17520
X67160Y-30960
X67300Y-34600
X67300Y-39800
X67380Y-32740
X67438Y-17522
X67900Y-15980
X67900Y-41400
X67920Y-21800
X68200Y-39500
X68300Y-30940
X68320Y-30540
X68440Y-23540
X68480Y-20460
X68980Y-23460
X69480Y-29140
X69650Y-33000
X69900Y-39900
X69960Y-23520
X69980Y-24360
X69985Y-29326
X70120Y-28240
X70300Y-14050
X70300Y-15500
X70300Y-29600
X70350Y-31300
X70400Y-30020
X70540Y-21540
X70738Y-17581
X70738Y-18027
X70800Y-23420
X71080Y-16700
X71258Y-26610
X71400Y-8480
X71500Y-40100
X71650Y-26600
X71950Y-32916
X72020Y-34960
X72050Y-26600
X72100Y-34000
X72175Y-13356
X72247Y-28223
X72250Y-33200
X72290Y-28594
X72293Y-14075
X72350Y-33650
X72450Y-26600
X73000Y-22900
X73000Y-27880
X73000Y-31200
X73000Y-34140
X73000Y-36400
X73060Y-29840
X73079Y-16461
X73681Y-20157
X73816Y-25558
X73940Y-29020
X74081Y-25293
X74400Y-39400
X74702Y-13300
X74705Y-31831
X74734Y-29154
X74800Y-31200
X74800Y-34470
X74800Y-37200
X74813Y-22825
X74820Y-24380
X74862Y-15896
X74872Y-16771
X74970Y-12234
X74990Y-23317
X75000Y-35850
X75010Y-29823
X75050Y-36700
X75100Y-20750
X75100Y-32500
X75122Y-14432
X75157Y-18110
X75167Y-29154
X75174Y-23714
X75207Y-19114
X75217Y-31841
X75236Y-27186
X75250Y-17200
X75300Y-33787
X75300Y-34700
X75480Y-13300
X75541Y-22923
X75542Y-37100
X75600Y-29154
X75659Y-31841
X75768Y-16771
X75778Y-27539
X75800Y-39100
X75807Y-23415
X75827Y-26732
X75837Y-34646
X76014Y-32618
X76024Y-30335
X76024Y-33337
X76033Y-29163
X76073Y-14144
X76083Y-12067
X76093Y-31821
X76155Y-20243
X76171Y-12707
X76400Y-27186
X76400Y-29151
X76400Y-36228
X76520Y-41280
X76627Y-42358
X76663Y-31811
X76762Y-38593
X76762Y-39144
X76890Y-19134
X76890Y-36230
X77001Y-42374
X77047Y-18327
X77106Y-37475
X77106Y-37933
X77126Y-16083
X77386Y-20469
X77457Y-42441
X77461Y-15541
X77470Y-11988
X77490Y-14124
X77502Y-33900
X77640Y-28794
X77820Y-37700
X78162Y-37234
X78200Y-34726
X78200Y-35100
X78400Y-35800
X78920Y-32220
X79100Y-36500
X79400Y-32000
X79660Y-37580
X79800Y-33500
X79860Y-42280
X79960Y-17180
X80700Y-34200
X80860Y-21180
X80900Y-32000
X81400Y-38560
X81600Y-33000
X81680Y-17400
X81980Y-23340
X82100Y-21960
X82200Y-26300
X82254Y-25325
X82360Y-35500
X82920Y-37120
X83280Y-12300
X83394Y-16998
X83440Y-38980
X83520Y-10760
X83520Y-16420
X83600Y-21640
T2
X73807Y-9689
X76760Y-10240
X67050Y-18900
X67050Y-19900
X67050Y-20900
X67050Y-21900
X67050Y-22900
X67050Y-23900
X67050Y-24900
X67050Y-25900
X72050Y-18900
X72050Y-19900
X72050Y-20900
X72050Y-21900
X72050Y-22900
X72050Y-23900
X72050Y-24900
X72050Y-25900
T3
X52000Y-39950
X53000Y-39950
X53563Y-13937
X53563Y-14937
X53563Y-15937
X53563Y-16937
X53563Y-17937
X53563Y-18937
X56250Y-31150
X56250Y-32150
X56250Y-33150
X56250Y-34150
X56250Y-35150
X56250Y-36150
X49150Y-39950
X50150Y-39950
X48970Y-14370
X48970Y-15370
X48970Y-16370
X48970Y-17370
X49970Y-14370
X49970Y-15370
X49970Y-16370
X49970Y-17370
T4
X49236Y-37492
X49236Y-38492
X50236Y-37492
X50236Y-38492
X51236Y-37492
X51236Y-38492
X52236Y-37492
X52236Y-38492
X53236Y-37492
X53236Y-38492
X54236Y-37492
X54236Y-38492
X55236Y-37492
X55236Y-38492
X56236Y-37492
X56236Y-38492
X57236Y-37492
X57236Y-38492
X58236Y-37492
X58236Y-38492
X59236Y-37492
X59236Y-38492
X60236Y-37492
X60236Y-38492
X61236Y-37492
X61236Y-38492
X62236Y-37492
X62236Y-38492
X63236Y-37492
X63236Y-38492
X64236Y-37492
X64236Y-38492
X65236Y-37492
X65236Y-38492
X66236Y-37492
X66236Y-38492
X67236Y-37492
X67236Y-38492
X68236Y-37492
X68236Y-38492
X69236Y-37492
X69236Y-38492
X70236Y-37492
X70236Y-38492
X71236Y-37492
X71236Y-38492
X72236Y-37492
X72236Y-38492
X49236Y-11311
X49236Y-12311
X50236Y-11311
X50236Y-12311
X51236Y-11311
X51236Y-12311
X52236Y-11311
X52236Y-12311
X53236Y-11311
X53236Y-12311
X54236Y-11311
X54236Y-12311
X55236Y-11311
X55236Y-12311
X56236Y-11311
X56236Y-12311
X57236Y-11311
X57236Y-12311
X58236Y-11311
X58236Y-12311
X59236Y-11311
X59236Y-12311
X60236Y-11311
X60236Y-12311
X61236Y-11311
X61236Y-12311
X62236Y-11311
X62236Y-12311
X63236Y-11311
X63236Y-12311
X64236Y-11311
X64236Y-12311
X65236Y-11311
X65236Y-12311
X66236Y-11311
X66236Y-12311
X67236Y-11311
X67236Y-12311
X68236Y-11311
X68236Y-12311
X69236Y-11311
X69236Y-12311
X70236Y-11311
X70236Y-12311
X71236Y-11311
X71236Y-12311
X72236Y-11311
X72236Y-12311
T5
X55825Y-27441
X56825Y-27441
X57825Y-27441
T6
X78421Y-21846
X78421Y-22846
X78421Y-23846
X78421Y-24846
X78421Y-25846
X78421Y-26846
X78421Y-27846
X78421Y-28846
X78421Y-29846
X78421Y-30846
X79421Y-21846
X79421Y-22846
X79421Y-23846
X79421Y-24846
X79421Y-25846
X79421Y-26846
X79421Y-27846
X79421Y-28846
X79421Y-29846
X79421Y-30846
X80421Y-21846
X80421Y-22846
X80421Y-23846
X80421Y-24846
X80421Y-25846
X80421Y-26846
X80421Y-27846
X80421Y-28846
X80421Y-29846
X80421Y-30846
X81421Y-21846
X81421Y-22846
X81421Y-23846
X81421Y-24846
X81421Y-25846
X81421Y-26846
X81421Y-27846
X81421Y-28846
X81421Y-29846
X81421Y-30846
T7
X78421Y-19012
X78421Y-20469
X79421Y-19012
X79421Y-20469
X80421Y-19012
X80421Y-20469
X81421Y-19012
X81421Y-20469
T8
X78012Y-16614
X78012Y-33386
T9
X79528Y-15000
X79528Y-35000
T0
M30
