G04 #@! TF.GenerationSoftware,KiCad,Pcbnew,5.1.5-52549c5~84~ubuntu18.04.1*
G04 #@! TF.CreationDate,2020-03-28T20:03:14+01:00*
G04 #@! TF.ProjectId,Speeduino_base,53706565-6475-4696-9e6f-5f626173652e,rev?*
G04 #@! TF.SameCoordinates,Original*
G04 #@! TF.FileFunction,Legend,Bot*
G04 #@! TF.FilePolarity,Positive*
%FSLAX46Y46*%
G04 Gerber Fmt 4.6, Leading zero omitted, Abs format (unit mm)*
G04 Created by KiCad (PCBNEW 5.1.5-52549c5~84~ubuntu18.04.1) date 2020-03-28 20:03:14*
%MOMM*%
%LPD*%
G04 APERTURE LIST*
%ADD10C,0.120000*%
%ADD11C,0.152400*%
%ADD12C,0.203200*%
%ADD13C,0.150000*%
%ADD14C,0.096520*%
%ADD15C,0.097536*%
G04 APERTURE END LIST*
D10*
X128255000Y-45450000D02*
X123055000Y-45450000D01*
X128255000Y-37770000D02*
X128255000Y-45450000D01*
X123055000Y-35170000D02*
X123055000Y-45450000D01*
X128255000Y-37770000D02*
X125655000Y-37770000D01*
X125655000Y-37770000D02*
X125655000Y-35170000D01*
X125655000Y-35170000D02*
X123055000Y-35170000D01*
X128255000Y-36500000D02*
X128255000Y-35170000D01*
X128255000Y-35170000D02*
X126925000Y-35170000D01*
D11*
X184750000Y-98405000D02*
X184750000Y-94595000D01*
X182210000Y-94595000D02*
X182845000Y-93960000D01*
X184115000Y-93960000D02*
X182845000Y-93960000D01*
X184750000Y-94595000D02*
X184115000Y-93960000D01*
X184115000Y-99040000D02*
X184750000Y-98405000D01*
X184115000Y-99040000D02*
X182845000Y-99040000D01*
X182210000Y-98405000D02*
X182845000Y-99040000D01*
X182210000Y-98405000D02*
X182210000Y-94595000D01*
X179670000Y-94595000D02*
X180305000Y-93960000D01*
X181575000Y-93960000D02*
X180305000Y-93960000D01*
X182210000Y-94595000D02*
X181575000Y-93960000D01*
X181575000Y-99040000D02*
X182210000Y-98405000D01*
X181575000Y-99040000D02*
X180305000Y-99040000D01*
X179670000Y-98405000D02*
X180305000Y-99040000D01*
X179670000Y-98405000D02*
X179670000Y-94595000D01*
X177130000Y-94595000D02*
X177765000Y-93960000D01*
X179035000Y-93960000D02*
X177765000Y-93960000D01*
X179670000Y-94595000D02*
X179035000Y-93960000D01*
X179035000Y-99040000D02*
X179670000Y-98405000D01*
X179035000Y-99040000D02*
X177765000Y-99040000D01*
X177130000Y-98405000D02*
X177765000Y-99040000D01*
X177130000Y-98405000D02*
X177130000Y-94595000D01*
X174590000Y-94595000D02*
X175225000Y-93960000D01*
X176495000Y-93960000D02*
X175225000Y-93960000D01*
X177130000Y-94595000D02*
X176495000Y-93960000D01*
X176495000Y-99040000D02*
X177130000Y-98405000D01*
X176495000Y-99040000D02*
X175225000Y-99040000D01*
X174590000Y-98405000D02*
X175225000Y-99040000D01*
X174590000Y-98405000D02*
X174590000Y-94595000D01*
X172050000Y-94595000D02*
X172685000Y-93960000D01*
X173955000Y-93960000D02*
X172685000Y-93960000D01*
X174590000Y-94595000D02*
X173955000Y-93960000D01*
X173955000Y-99040000D02*
X174590000Y-98405000D01*
X173955000Y-99040000D02*
X172685000Y-99040000D01*
X172050000Y-98405000D02*
X172685000Y-99040000D01*
X172050000Y-98405000D02*
X172050000Y-94595000D01*
X169510000Y-98405000D02*
X169510000Y-94595000D01*
X166970000Y-98405000D02*
X166970000Y-94595000D01*
X164430000Y-98405000D02*
X164430000Y-94595000D01*
X161890000Y-98405000D02*
X161890000Y-94595000D01*
X159350000Y-98405000D02*
X159350000Y-94595000D01*
X156810000Y-98405000D02*
X156810000Y-94595000D01*
X154270000Y-98405000D02*
X154270000Y-94595000D01*
X151730000Y-98405000D02*
X151730000Y-94595000D01*
X149190000Y-98405000D02*
X149190000Y-94595000D01*
X146650000Y-98405000D02*
X146650000Y-94595000D01*
X144110000Y-98405000D02*
X144110000Y-94595000D01*
X141570000Y-98405000D02*
X141570000Y-94595000D01*
X139030000Y-98405000D02*
X139030000Y-94595000D01*
X136490000Y-98405000D02*
X136490000Y-94595000D01*
X133950000Y-98405000D02*
X133950000Y-94595000D01*
X131410000Y-98405000D02*
X131410000Y-94595000D01*
X128870000Y-98405000D02*
X128870000Y-94595000D01*
X126330000Y-98405000D02*
X126330000Y-94595000D01*
X139030000Y-94595000D02*
X139665000Y-93960000D01*
X140935000Y-93960000D02*
X139665000Y-93960000D01*
X141570000Y-94595000D02*
X140935000Y-93960000D01*
X141570000Y-94595000D02*
X142205000Y-93960000D01*
X143475000Y-93960000D02*
X142205000Y-93960000D01*
X144110000Y-94595000D02*
X143475000Y-93960000D01*
X144110000Y-94595000D02*
X144745000Y-93960000D01*
X146015000Y-93960000D02*
X144745000Y-93960000D01*
X146650000Y-94595000D02*
X146015000Y-93960000D01*
X146650000Y-94595000D02*
X147285000Y-93960000D01*
X148555000Y-93960000D02*
X147285000Y-93960000D01*
X149190000Y-94595000D02*
X148555000Y-93960000D01*
X149190000Y-94595000D02*
X149825000Y-93960000D01*
X151095000Y-93960000D02*
X149825000Y-93960000D01*
X151730000Y-94595000D02*
X151095000Y-93960000D01*
X151730000Y-94595000D02*
X152365000Y-93960000D01*
X153635000Y-93960000D02*
X152365000Y-93960000D01*
X154270000Y-94595000D02*
X153635000Y-93960000D01*
X154270000Y-94595000D02*
X154905000Y-93960000D01*
X156175000Y-93960000D02*
X154905000Y-93960000D01*
X156810000Y-94595000D02*
X156175000Y-93960000D01*
X156810000Y-94595000D02*
X157445000Y-93960000D01*
X158715000Y-93960000D02*
X157445000Y-93960000D01*
X159350000Y-94595000D02*
X158715000Y-93960000D01*
X159985000Y-93960000D02*
X159350000Y-94595000D01*
X159985000Y-93960000D02*
X161255000Y-93960000D01*
X161890000Y-94595000D02*
X161255000Y-93960000D01*
X162525000Y-93960000D02*
X161890000Y-94595000D01*
X162525000Y-93960000D02*
X163795000Y-93960000D01*
X164430000Y-94595000D02*
X163795000Y-93960000D01*
X164430000Y-94595000D02*
X165065000Y-93960000D01*
X166335000Y-93960000D02*
X165065000Y-93960000D01*
X166970000Y-94595000D02*
X166335000Y-93960000D01*
X166970000Y-94595000D02*
X167605000Y-93960000D01*
X168875000Y-93960000D02*
X167605000Y-93960000D01*
X169510000Y-94595000D02*
X168875000Y-93960000D01*
X169510000Y-94595000D02*
X170145000Y-93960000D01*
X171415000Y-93960000D02*
X170145000Y-93960000D01*
X172050000Y-94595000D02*
X171415000Y-93960000D01*
X171415000Y-99040000D02*
X172050000Y-98405000D01*
X171415000Y-99040000D02*
X170145000Y-99040000D01*
X169510000Y-98405000D02*
X170145000Y-99040000D01*
X168875000Y-99040000D02*
X169510000Y-98405000D01*
X168875000Y-99040000D02*
X167605000Y-99040000D01*
X166970000Y-98405000D02*
X167605000Y-99040000D01*
X166335000Y-99040000D02*
X166970000Y-98405000D01*
X166335000Y-99040000D02*
X165065000Y-99040000D01*
X164430000Y-98405000D02*
X165065000Y-99040000D01*
X163795000Y-99040000D02*
X164430000Y-98405000D01*
X163795000Y-99040000D02*
X162525000Y-99040000D01*
X161890000Y-98405000D02*
X162525000Y-99040000D01*
X161255000Y-99040000D02*
X161890000Y-98405000D01*
X161255000Y-99040000D02*
X159985000Y-99040000D01*
X159350000Y-98405000D02*
X159985000Y-99040000D01*
X158715000Y-99040000D02*
X159350000Y-98405000D01*
X158715000Y-99040000D02*
X157445000Y-99040000D01*
X156810000Y-98405000D02*
X157445000Y-99040000D01*
X156175000Y-99040000D02*
X156810000Y-98405000D01*
X156175000Y-99040000D02*
X154905000Y-99040000D01*
X154270000Y-98405000D02*
X154905000Y-99040000D01*
X154270000Y-98405000D02*
X153635000Y-99040000D01*
X152365000Y-99040000D02*
X153635000Y-99040000D01*
X151730000Y-98405000D02*
X152365000Y-99040000D01*
X151095000Y-99040000D02*
X151730000Y-98405000D01*
X149825000Y-99040000D02*
X151095000Y-99040000D01*
X149190000Y-98405000D02*
X149825000Y-99040000D01*
X148555000Y-99040000D02*
X149190000Y-98405000D01*
X147285000Y-99040000D02*
X148555000Y-99040000D01*
X146650000Y-98405000D02*
X147285000Y-99040000D01*
X146015000Y-99040000D02*
X146650000Y-98405000D01*
X144745000Y-99040000D02*
X146015000Y-99040000D01*
X144110000Y-98405000D02*
X144745000Y-99040000D01*
X143475000Y-99040000D02*
X144110000Y-98405000D01*
X142205000Y-99040000D02*
X143475000Y-99040000D01*
X141570000Y-98405000D02*
X142205000Y-99040000D01*
X140935000Y-99040000D02*
X141570000Y-98405000D01*
X139665000Y-99040000D02*
X140935000Y-99040000D01*
X139030000Y-98405000D02*
X139665000Y-99040000D01*
X138395000Y-99040000D02*
X139030000Y-98405000D01*
X137125000Y-99040000D02*
X138395000Y-99040000D01*
X136490000Y-98405000D02*
X137125000Y-99040000D01*
X135855000Y-99040000D02*
X136490000Y-98405000D01*
X134585000Y-99040000D02*
X135855000Y-99040000D01*
X133950000Y-98405000D02*
X134585000Y-99040000D01*
X133315000Y-99040000D02*
X133950000Y-98405000D01*
X132045000Y-99040000D02*
X133315000Y-99040000D01*
X131410000Y-98405000D02*
X132045000Y-99040000D01*
X130775000Y-99040000D02*
X131410000Y-98405000D01*
X129505000Y-99040000D02*
X130775000Y-99040000D01*
X128870000Y-98405000D02*
X129505000Y-99040000D01*
X128235000Y-99040000D02*
X128870000Y-98405000D01*
X126965000Y-99040000D02*
X128235000Y-99040000D01*
X126330000Y-98405000D02*
X126965000Y-99040000D01*
X125695000Y-99040000D02*
X126330000Y-98405000D01*
X124425000Y-99040000D02*
X125695000Y-99040000D01*
X123790000Y-98405000D02*
X124425000Y-99040000D01*
X123790000Y-94595000D02*
X123790000Y-98405000D01*
X138395000Y-93960000D02*
X139030000Y-94595000D01*
X137125000Y-93960000D02*
X138395000Y-93960000D01*
X136490000Y-94595000D02*
X137125000Y-93960000D01*
X135855000Y-93960000D02*
X136490000Y-94595000D01*
X134585000Y-93960000D02*
X135855000Y-93960000D01*
X133950000Y-94595000D02*
X134585000Y-93960000D01*
X133315000Y-93960000D02*
X133950000Y-94595000D01*
X132045000Y-93960000D02*
X133315000Y-93960000D01*
X131410000Y-94595000D02*
X132045000Y-93960000D01*
X130775000Y-93960000D02*
X131410000Y-94595000D01*
X129505000Y-93960000D02*
X130775000Y-93960000D01*
X128870000Y-94595000D02*
X129505000Y-93960000D01*
X128235000Y-93960000D02*
X128870000Y-94595000D01*
X126965000Y-93960000D02*
X128235000Y-93960000D01*
X126330000Y-94595000D02*
X126965000Y-93960000D01*
X125695000Y-93960000D02*
X126330000Y-94595000D01*
X124425000Y-93960000D02*
X125695000Y-93960000D01*
X123790000Y-94595000D02*
X124425000Y-93960000D01*
D10*
X204479000Y-45175000D02*
X209459000Y-45175000D01*
X204479000Y-42455000D02*
X209459000Y-42455000D01*
X204479000Y-45175000D02*
X204479000Y-42455000D01*
D12*
X192735000Y-72328312D02*
X192735000Y-65775112D01*
X189179000Y-72328312D02*
X192735000Y-72328312D01*
X189179000Y-65775112D02*
X189179000Y-72328312D01*
X192735000Y-65775112D02*
X189179000Y-65775112D01*
X192735000Y-37058600D02*
X192735000Y-30505400D01*
X189179000Y-37058600D02*
X192735000Y-37058600D01*
X189179000Y-30505400D02*
X189179000Y-37058600D01*
X192735000Y-30505400D02*
X189179000Y-30505400D01*
X192735000Y-54693456D02*
X192735000Y-48140256D01*
X189179000Y-54693456D02*
X192735000Y-54693456D01*
X189179000Y-48140256D02*
X189179000Y-54693456D01*
X192735000Y-48140256D02*
X189179000Y-48140256D01*
X192735000Y-45876028D02*
X192735000Y-39322828D01*
X189179000Y-45876028D02*
X192735000Y-45876028D01*
X189179000Y-39322828D02*
X189179000Y-45876028D01*
X192735000Y-39322828D02*
X189179000Y-39322828D01*
X192735000Y-63510884D02*
X192735000Y-56957684D01*
X189179000Y-63510884D02*
X192735000Y-63510884D01*
X189179000Y-56957684D02*
X189179000Y-63510884D01*
X192735000Y-56957684D02*
X189179000Y-56957684D01*
X192735000Y-98780600D02*
X192735000Y-92227400D01*
X189179000Y-98780600D02*
X192735000Y-98780600D01*
X189179000Y-92227400D02*
X189179000Y-98780600D01*
X192735000Y-92227400D02*
X189179000Y-92227400D01*
X192735000Y-89963168D02*
X192735000Y-83409968D01*
X189179000Y-89963168D02*
X192735000Y-89963168D01*
X189179000Y-83409968D02*
X189179000Y-89963168D01*
X192735000Y-83409968D02*
X189179000Y-83409968D01*
X192735000Y-81145740D02*
X192735000Y-74592540D01*
X189179000Y-81145740D02*
X192735000Y-81145740D01*
X189179000Y-74592540D02*
X189179000Y-81145740D01*
X192735000Y-74592540D02*
X189179000Y-74592540D01*
D11*
X184750000Y-31905000D02*
X184750000Y-28095000D01*
X182210000Y-28095000D02*
X182845000Y-27460000D01*
X184115000Y-27460000D02*
X182845000Y-27460000D01*
X184750000Y-28095000D02*
X184115000Y-27460000D01*
X184115000Y-32540000D02*
X184750000Y-31905000D01*
X184115000Y-32540000D02*
X182845000Y-32540000D01*
X182210000Y-31905000D02*
X182845000Y-32540000D01*
X182210000Y-31905000D02*
X182210000Y-28095000D01*
X179670000Y-28095000D02*
X180305000Y-27460000D01*
X181575000Y-27460000D02*
X180305000Y-27460000D01*
X182210000Y-28095000D02*
X181575000Y-27460000D01*
X181575000Y-32540000D02*
X182210000Y-31905000D01*
X181575000Y-32540000D02*
X180305000Y-32540000D01*
X179670000Y-31905000D02*
X180305000Y-32540000D01*
X179670000Y-31905000D02*
X179670000Y-28095000D01*
X177130000Y-28095000D02*
X177765000Y-27460000D01*
X179035000Y-27460000D02*
X177765000Y-27460000D01*
X179670000Y-28095000D02*
X179035000Y-27460000D01*
X179035000Y-32540000D02*
X179670000Y-31905000D01*
X179035000Y-32540000D02*
X177765000Y-32540000D01*
X177130000Y-31905000D02*
X177765000Y-32540000D01*
X177130000Y-31905000D02*
X177130000Y-28095000D01*
X174590000Y-28095000D02*
X175225000Y-27460000D01*
X176495000Y-27460000D02*
X175225000Y-27460000D01*
X177130000Y-28095000D02*
X176495000Y-27460000D01*
X176495000Y-32540000D02*
X177130000Y-31905000D01*
X176495000Y-32540000D02*
X175225000Y-32540000D01*
X174590000Y-31905000D02*
X175225000Y-32540000D01*
X174590000Y-31905000D02*
X174590000Y-28095000D01*
X172050000Y-28095000D02*
X172685000Y-27460000D01*
X173955000Y-27460000D02*
X172685000Y-27460000D01*
X174590000Y-28095000D02*
X173955000Y-27460000D01*
X173955000Y-32540000D02*
X174590000Y-31905000D01*
X173955000Y-32540000D02*
X172685000Y-32540000D01*
X172050000Y-31905000D02*
X172685000Y-32540000D01*
X172050000Y-31905000D02*
X172050000Y-28095000D01*
X169510000Y-31905000D02*
X169510000Y-28095000D01*
X166970000Y-31905000D02*
X166970000Y-28095000D01*
X164430000Y-31905000D02*
X164430000Y-28095000D01*
X161890000Y-31905000D02*
X161890000Y-28095000D01*
X159350000Y-31905000D02*
X159350000Y-28095000D01*
X156810000Y-31905000D02*
X156810000Y-28095000D01*
X154270000Y-31905000D02*
X154270000Y-28095000D01*
X151730000Y-31905000D02*
X151730000Y-28095000D01*
X149190000Y-31905000D02*
X149190000Y-28095000D01*
X146650000Y-31905000D02*
X146650000Y-28095000D01*
X144110000Y-31905000D02*
X144110000Y-28095000D01*
X141570000Y-31905000D02*
X141570000Y-28095000D01*
X139030000Y-31905000D02*
X139030000Y-28095000D01*
X136490000Y-31905000D02*
X136490000Y-28095000D01*
X133950000Y-31905000D02*
X133950000Y-28095000D01*
X131410000Y-31905000D02*
X131410000Y-28095000D01*
X128870000Y-31905000D02*
X128870000Y-28095000D01*
X126330000Y-31905000D02*
X126330000Y-28095000D01*
X139030000Y-28095000D02*
X139665000Y-27460000D01*
X140935000Y-27460000D02*
X139665000Y-27460000D01*
X141570000Y-28095000D02*
X140935000Y-27460000D01*
X141570000Y-28095000D02*
X142205000Y-27460000D01*
X143475000Y-27460000D02*
X142205000Y-27460000D01*
X144110000Y-28095000D02*
X143475000Y-27460000D01*
X144110000Y-28095000D02*
X144745000Y-27460000D01*
X146015000Y-27460000D02*
X144745000Y-27460000D01*
X146650000Y-28095000D02*
X146015000Y-27460000D01*
X146650000Y-28095000D02*
X147285000Y-27460000D01*
X148555000Y-27460000D02*
X147285000Y-27460000D01*
X149190000Y-28095000D02*
X148555000Y-27460000D01*
X149190000Y-28095000D02*
X149825000Y-27460000D01*
X151095000Y-27460000D02*
X149825000Y-27460000D01*
X151730000Y-28095000D02*
X151095000Y-27460000D01*
X151730000Y-28095000D02*
X152365000Y-27460000D01*
X153635000Y-27460000D02*
X152365000Y-27460000D01*
X154270000Y-28095000D02*
X153635000Y-27460000D01*
X154270000Y-28095000D02*
X154905000Y-27460000D01*
X156175000Y-27460000D02*
X154905000Y-27460000D01*
X156810000Y-28095000D02*
X156175000Y-27460000D01*
X156810000Y-28095000D02*
X157445000Y-27460000D01*
X158715000Y-27460000D02*
X157445000Y-27460000D01*
X159350000Y-28095000D02*
X158715000Y-27460000D01*
X159985000Y-27460000D02*
X159350000Y-28095000D01*
X159985000Y-27460000D02*
X161255000Y-27460000D01*
X161890000Y-28095000D02*
X161255000Y-27460000D01*
X162525000Y-27460000D02*
X161890000Y-28095000D01*
X162525000Y-27460000D02*
X163795000Y-27460000D01*
X164430000Y-28095000D02*
X163795000Y-27460000D01*
X164430000Y-28095000D02*
X165065000Y-27460000D01*
X166335000Y-27460000D02*
X165065000Y-27460000D01*
X166970000Y-28095000D02*
X166335000Y-27460000D01*
X166970000Y-28095000D02*
X167605000Y-27460000D01*
X168875000Y-27460000D02*
X167605000Y-27460000D01*
X169510000Y-28095000D02*
X168875000Y-27460000D01*
X169510000Y-28095000D02*
X170145000Y-27460000D01*
X171415000Y-27460000D02*
X170145000Y-27460000D01*
X172050000Y-28095000D02*
X171415000Y-27460000D01*
X171415000Y-32540000D02*
X172050000Y-31905000D01*
X171415000Y-32540000D02*
X170145000Y-32540000D01*
X169510000Y-31905000D02*
X170145000Y-32540000D01*
X168875000Y-32540000D02*
X169510000Y-31905000D01*
X168875000Y-32540000D02*
X167605000Y-32540000D01*
X166970000Y-31905000D02*
X167605000Y-32540000D01*
X166335000Y-32540000D02*
X166970000Y-31905000D01*
X166335000Y-32540000D02*
X165065000Y-32540000D01*
X164430000Y-31905000D02*
X165065000Y-32540000D01*
X163795000Y-32540000D02*
X164430000Y-31905000D01*
X163795000Y-32540000D02*
X162525000Y-32540000D01*
X161890000Y-31905000D02*
X162525000Y-32540000D01*
X161255000Y-32540000D02*
X161890000Y-31905000D01*
X161255000Y-32540000D02*
X159985000Y-32540000D01*
X159350000Y-31905000D02*
X159985000Y-32540000D01*
X158715000Y-32540000D02*
X159350000Y-31905000D01*
X158715000Y-32540000D02*
X157445000Y-32540000D01*
X156810000Y-31905000D02*
X157445000Y-32540000D01*
X156175000Y-32540000D02*
X156810000Y-31905000D01*
X156175000Y-32540000D02*
X154905000Y-32540000D01*
X154270000Y-31905000D02*
X154905000Y-32540000D01*
X154270000Y-31905000D02*
X153635000Y-32540000D01*
X152365000Y-32540000D02*
X153635000Y-32540000D01*
X151730000Y-31905000D02*
X152365000Y-32540000D01*
X151095000Y-32540000D02*
X151730000Y-31905000D01*
X149825000Y-32540000D02*
X151095000Y-32540000D01*
X149190000Y-31905000D02*
X149825000Y-32540000D01*
X148555000Y-32540000D02*
X149190000Y-31905000D01*
X147285000Y-32540000D02*
X148555000Y-32540000D01*
X146650000Y-31905000D02*
X147285000Y-32540000D01*
X146015000Y-32540000D02*
X146650000Y-31905000D01*
X144745000Y-32540000D02*
X146015000Y-32540000D01*
X144110000Y-31905000D02*
X144745000Y-32540000D01*
X143475000Y-32540000D02*
X144110000Y-31905000D01*
X142205000Y-32540000D02*
X143475000Y-32540000D01*
X141570000Y-31905000D02*
X142205000Y-32540000D01*
X140935000Y-32540000D02*
X141570000Y-31905000D01*
X139665000Y-32540000D02*
X140935000Y-32540000D01*
X139030000Y-31905000D02*
X139665000Y-32540000D01*
X138395000Y-32540000D02*
X139030000Y-31905000D01*
X137125000Y-32540000D02*
X138395000Y-32540000D01*
X136490000Y-31905000D02*
X137125000Y-32540000D01*
X135855000Y-32540000D02*
X136490000Y-31905000D01*
X134585000Y-32540000D02*
X135855000Y-32540000D01*
X133950000Y-31905000D02*
X134585000Y-32540000D01*
X133315000Y-32540000D02*
X133950000Y-31905000D01*
X132045000Y-32540000D02*
X133315000Y-32540000D01*
X131410000Y-31905000D02*
X132045000Y-32540000D01*
X130775000Y-32540000D02*
X131410000Y-31905000D01*
X129505000Y-32540000D02*
X130775000Y-32540000D01*
X128870000Y-31905000D02*
X129505000Y-32540000D01*
X128235000Y-32540000D02*
X128870000Y-31905000D01*
X126965000Y-32540000D02*
X128235000Y-32540000D01*
X126330000Y-31905000D02*
X126965000Y-32540000D01*
X125695000Y-32540000D02*
X126330000Y-31905000D01*
X124425000Y-32540000D02*
X125695000Y-32540000D01*
X123790000Y-31905000D02*
X124425000Y-32540000D01*
X123790000Y-28095000D02*
X123790000Y-31905000D01*
X138395000Y-27460000D02*
X139030000Y-28095000D01*
X137125000Y-27460000D02*
X138395000Y-27460000D01*
X136490000Y-28095000D02*
X137125000Y-27460000D01*
X135855000Y-27460000D02*
X136490000Y-28095000D01*
X134585000Y-27460000D02*
X135855000Y-27460000D01*
X133950000Y-28095000D02*
X134585000Y-27460000D01*
X133315000Y-27460000D02*
X133950000Y-28095000D01*
X132045000Y-27460000D02*
X133315000Y-27460000D01*
X131410000Y-28095000D02*
X132045000Y-27460000D01*
X130775000Y-27460000D02*
X131410000Y-28095000D01*
X129505000Y-27460000D02*
X130775000Y-27460000D01*
X128870000Y-28095000D02*
X129505000Y-27460000D01*
X128235000Y-27460000D02*
X128870000Y-28095000D01*
X126965000Y-27460000D02*
X128235000Y-27460000D01*
X126330000Y-28095000D02*
X126965000Y-27460000D01*
X125695000Y-27460000D02*
X126330000Y-28095000D01*
X124425000Y-27460000D02*
X125695000Y-27460000D01*
X123790000Y-28095000D02*
X124425000Y-27460000D01*
D13*
X125988333Y-33622380D02*
X125988333Y-34336666D01*
X126035952Y-34479523D01*
X126131190Y-34574761D01*
X126274047Y-34622380D01*
X126369285Y-34622380D01*
X125559761Y-33717619D02*
X125512142Y-33670000D01*
X125416904Y-33622380D01*
X125178809Y-33622380D01*
X125083571Y-33670000D01*
X125035952Y-33717619D01*
X124988333Y-33812857D01*
X124988333Y-33908095D01*
X125035952Y-34050952D01*
X125607380Y-34622380D01*
X124988333Y-34622380D01*
X208773285Y-46267380D02*
X208773285Y-45267380D01*
X208535190Y-45267380D01*
X208392333Y-45315000D01*
X208297095Y-45410238D01*
X208249476Y-45505476D01*
X208201857Y-45695952D01*
X208201857Y-45838809D01*
X208249476Y-46029285D01*
X208297095Y-46124523D01*
X208392333Y-46219761D01*
X208535190Y-46267380D01*
X208773285Y-46267380D01*
X207820904Y-45362619D02*
X207773285Y-45315000D01*
X207678047Y-45267380D01*
X207439952Y-45267380D01*
X207344714Y-45315000D01*
X207297095Y-45362619D01*
X207249476Y-45457857D01*
X207249476Y-45553095D01*
X207297095Y-45695952D01*
X207868523Y-46267380D01*
X207249476Y-46267380D01*
X206392333Y-45267380D02*
X206582809Y-45267380D01*
X206678047Y-45315000D01*
X206725666Y-45362619D01*
X206820904Y-45505476D01*
X206868523Y-45695952D01*
X206868523Y-46076904D01*
X206820904Y-46172142D01*
X206773285Y-46219761D01*
X206678047Y-46267380D01*
X206487571Y-46267380D01*
X206392333Y-46219761D01*
X206344714Y-46172142D01*
X206297095Y-46076904D01*
X206297095Y-45838809D01*
X206344714Y-45743571D01*
X206392333Y-45695952D01*
X206487571Y-45648333D01*
X206678047Y-45648333D01*
X206773285Y-45695952D01*
X206820904Y-45743571D01*
X206868523Y-45838809D01*
D14*
X191065252Y-69058521D02*
X191007800Y-68943616D01*
X190892895Y-68828712D01*
X190720538Y-68656354D01*
X190663085Y-68541450D01*
X190663085Y-68426545D01*
X190950347Y-68483997D02*
X190892895Y-68369093D01*
X190777990Y-68254188D01*
X190548180Y-68196735D01*
X190146014Y-68196735D01*
X189916204Y-68254188D01*
X189801300Y-68369093D01*
X189743847Y-68483997D01*
X189743847Y-68713807D01*
X189801300Y-68828712D01*
X189916204Y-68943616D01*
X190146014Y-69001069D01*
X190548180Y-69001069D01*
X190777990Y-68943616D01*
X190892895Y-68828712D01*
X190950347Y-68713807D01*
X190950347Y-68483997D01*
X190950347Y-70150116D02*
X190950347Y-69460688D01*
X190950347Y-69805402D02*
X189743847Y-69805402D01*
X189916204Y-69690497D01*
X190031109Y-69575593D01*
X190088561Y-69460688D01*
X189743847Y-70552283D02*
X189743847Y-71299164D01*
X190203466Y-70896997D01*
X190203466Y-71069354D01*
X190260919Y-71184259D01*
X190318371Y-71241712D01*
X190433276Y-71299164D01*
X190720538Y-71299164D01*
X190835442Y-71241712D01*
X190892895Y-71184259D01*
X190950347Y-71069354D01*
X190950347Y-70724640D01*
X190892895Y-70609735D01*
X190835442Y-70552283D01*
D15*
X185894209Y-69690601D02*
X185857440Y-69727370D01*
X185820670Y-69800909D01*
X185820670Y-69984757D01*
X185857440Y-70058296D01*
X185894209Y-70095065D01*
X185967748Y-70131835D01*
X186041287Y-70131835D01*
X186151596Y-70095065D01*
X186592830Y-69653831D01*
X186592830Y-70131835D01*
X186602230Y-72293835D02*
X186602230Y-71852601D01*
X186602230Y-72073218D02*
X185830070Y-72073218D01*
X185940379Y-71999679D01*
X186013918Y-71926140D01*
X186050687Y-71852601D01*
X192945457Y-66862696D02*
X193460230Y-66862696D01*
X192651300Y-66678848D02*
X193202843Y-66495001D01*
X193202843Y-66973005D01*
X185830070Y-67342431D02*
X185830070Y-67820435D01*
X186124226Y-67563048D01*
X186124226Y-67673357D01*
X186160996Y-67746896D01*
X186197765Y-67783665D01*
X186271304Y-67820435D01*
X186455152Y-67820435D01*
X186528691Y-67783665D01*
X186565460Y-67746896D01*
X186602230Y-67673357D01*
X186602230Y-67452740D01*
X186565460Y-67379201D01*
X186528691Y-67342431D01*
D14*
X191065252Y-33788809D02*
X191007800Y-33673904D01*
X190892895Y-33559000D01*
X190720538Y-33386642D01*
X190663085Y-33271738D01*
X190663085Y-33156833D01*
X190950347Y-33214285D02*
X190892895Y-33099381D01*
X190777990Y-32984476D01*
X190548180Y-32927023D01*
X190146014Y-32927023D01*
X189916204Y-32984476D01*
X189801300Y-33099381D01*
X189743847Y-33214285D01*
X189743847Y-33444095D01*
X189801300Y-33559000D01*
X189916204Y-33673904D01*
X190146014Y-33731357D01*
X190548180Y-33731357D01*
X190777990Y-33673904D01*
X190892895Y-33559000D01*
X190950347Y-33444095D01*
X190950347Y-33214285D01*
X190950347Y-34880404D02*
X190950347Y-34190976D01*
X190950347Y-34535690D02*
X189743847Y-34535690D01*
X189916204Y-34420785D01*
X190031109Y-34305881D01*
X190088561Y-34190976D01*
X190260919Y-35569833D02*
X190203466Y-35454928D01*
X190146014Y-35397476D01*
X190031109Y-35340023D01*
X189973657Y-35340023D01*
X189858752Y-35397476D01*
X189801300Y-35454928D01*
X189743847Y-35569833D01*
X189743847Y-35799642D01*
X189801300Y-35914547D01*
X189858752Y-35972000D01*
X189973657Y-36029452D01*
X190031109Y-36029452D01*
X190146014Y-35972000D01*
X190203466Y-35914547D01*
X190260919Y-35799642D01*
X190260919Y-35569833D01*
X190318371Y-35454928D01*
X190375823Y-35397476D01*
X190490728Y-35340023D01*
X190720538Y-35340023D01*
X190835442Y-35397476D01*
X190892895Y-35454928D01*
X190950347Y-35569833D01*
X190950347Y-35799642D01*
X190892895Y-35914547D01*
X190835442Y-35972000D01*
X190720538Y-36029452D01*
X190490728Y-36029452D01*
X190375823Y-35972000D01*
X190318371Y-35914547D01*
X190260919Y-35799642D01*
D15*
X185894209Y-34420889D02*
X185857440Y-34457658D01*
X185820670Y-34531197D01*
X185820670Y-34715045D01*
X185857440Y-34788584D01*
X185894209Y-34825353D01*
X185967748Y-34862123D01*
X186041287Y-34862123D01*
X186151596Y-34825353D01*
X186592830Y-34384119D01*
X186592830Y-34862123D01*
X186602230Y-37024123D02*
X186602230Y-36582889D01*
X186602230Y-36803506D02*
X185830070Y-36803506D01*
X185940379Y-36729967D01*
X186013918Y-36656428D01*
X186050687Y-36582889D01*
X192945457Y-31592984D02*
X193460230Y-31592984D01*
X192651300Y-31409136D02*
X193202843Y-31225289D01*
X193202843Y-31703293D01*
X185830070Y-32072719D02*
X185830070Y-32550723D01*
X186124226Y-32293336D01*
X186124226Y-32403645D01*
X186160996Y-32477184D01*
X186197765Y-32513953D01*
X186271304Y-32550723D01*
X186455152Y-32550723D01*
X186528691Y-32513953D01*
X186565460Y-32477184D01*
X186602230Y-32403645D01*
X186602230Y-32183028D01*
X186565460Y-32109489D01*
X186528691Y-32072719D01*
D14*
X191065252Y-51423665D02*
X191007800Y-51308760D01*
X190892895Y-51193856D01*
X190720538Y-51021498D01*
X190663085Y-50906594D01*
X190663085Y-50791689D01*
X190950347Y-50849141D02*
X190892895Y-50734237D01*
X190777990Y-50619332D01*
X190548180Y-50561879D01*
X190146014Y-50561879D01*
X189916204Y-50619332D01*
X189801300Y-50734237D01*
X189743847Y-50849141D01*
X189743847Y-51078951D01*
X189801300Y-51193856D01*
X189916204Y-51308760D01*
X190146014Y-51366213D01*
X190548180Y-51366213D01*
X190777990Y-51308760D01*
X190892895Y-51193856D01*
X190950347Y-51078951D01*
X190950347Y-50849141D01*
X190950347Y-52515260D02*
X190950347Y-51825832D01*
X190950347Y-52170546D02*
X189743847Y-52170546D01*
X189916204Y-52055641D01*
X190031109Y-51940737D01*
X190088561Y-51825832D01*
X189743847Y-52917427D02*
X189743847Y-53721760D01*
X190950347Y-53204689D01*
D15*
X185894209Y-52055745D02*
X185857440Y-52092514D01*
X185820670Y-52166053D01*
X185820670Y-52349901D01*
X185857440Y-52423440D01*
X185894209Y-52460209D01*
X185967748Y-52496979D01*
X186041287Y-52496979D01*
X186151596Y-52460209D01*
X186592830Y-52018975D01*
X186592830Y-52496979D01*
X186602230Y-54658979D02*
X186602230Y-54217745D01*
X186602230Y-54438362D02*
X185830070Y-54438362D01*
X185940379Y-54364823D01*
X186013918Y-54291284D01*
X186050687Y-54217745D01*
X192945457Y-49227840D02*
X193460230Y-49227840D01*
X192651300Y-49043992D02*
X193202843Y-48860145D01*
X193202843Y-49338149D01*
X185830070Y-49707575D02*
X185830070Y-50185579D01*
X186124226Y-49928192D01*
X186124226Y-50038501D01*
X186160996Y-50112040D01*
X186197765Y-50148809D01*
X186271304Y-50185579D01*
X186455152Y-50185579D01*
X186528691Y-50148809D01*
X186565460Y-50112040D01*
X186602230Y-50038501D01*
X186602230Y-49817884D01*
X186565460Y-49744345D01*
X186528691Y-49707575D01*
D14*
X191065252Y-42606237D02*
X191007800Y-42491332D01*
X190892895Y-42376428D01*
X190720538Y-42204070D01*
X190663085Y-42089166D01*
X190663085Y-41974261D01*
X190950347Y-42031713D02*
X190892895Y-41916809D01*
X190777990Y-41801904D01*
X190548180Y-41744451D01*
X190146014Y-41744451D01*
X189916204Y-41801904D01*
X189801300Y-41916809D01*
X189743847Y-42031713D01*
X189743847Y-42261523D01*
X189801300Y-42376428D01*
X189916204Y-42491332D01*
X190146014Y-42548785D01*
X190548180Y-42548785D01*
X190777990Y-42491332D01*
X190892895Y-42376428D01*
X190950347Y-42261523D01*
X190950347Y-42031713D01*
X190950347Y-43697832D02*
X190950347Y-43008404D01*
X190950347Y-43353118D02*
X189743847Y-43353118D01*
X189916204Y-43238213D01*
X190031109Y-43123309D01*
X190088561Y-43008404D01*
X189743847Y-44731975D02*
X189743847Y-44502166D01*
X189801300Y-44387261D01*
X189858752Y-44329809D01*
X190031109Y-44214904D01*
X190260919Y-44157451D01*
X190720538Y-44157451D01*
X190835442Y-44214904D01*
X190892895Y-44272356D01*
X190950347Y-44387261D01*
X190950347Y-44617070D01*
X190892895Y-44731975D01*
X190835442Y-44789428D01*
X190720538Y-44846880D01*
X190433276Y-44846880D01*
X190318371Y-44789428D01*
X190260919Y-44731975D01*
X190203466Y-44617070D01*
X190203466Y-44387261D01*
X190260919Y-44272356D01*
X190318371Y-44214904D01*
X190433276Y-44157451D01*
D15*
X185894209Y-43238317D02*
X185857440Y-43275086D01*
X185820670Y-43348625D01*
X185820670Y-43532473D01*
X185857440Y-43606012D01*
X185894209Y-43642781D01*
X185967748Y-43679551D01*
X186041287Y-43679551D01*
X186151596Y-43642781D01*
X186592830Y-43201547D01*
X186592830Y-43679551D01*
X186602230Y-45841551D02*
X186602230Y-45400317D01*
X186602230Y-45620934D02*
X185830070Y-45620934D01*
X185940379Y-45547395D01*
X186013918Y-45473856D01*
X186050687Y-45400317D01*
X192945457Y-40410412D02*
X193460230Y-40410412D01*
X192651300Y-40226564D02*
X193202843Y-40042717D01*
X193202843Y-40520721D01*
X185830070Y-40890147D02*
X185830070Y-41368151D01*
X186124226Y-41110764D01*
X186124226Y-41221073D01*
X186160996Y-41294612D01*
X186197765Y-41331381D01*
X186271304Y-41368151D01*
X186455152Y-41368151D01*
X186528691Y-41331381D01*
X186565460Y-41294612D01*
X186602230Y-41221073D01*
X186602230Y-41000456D01*
X186565460Y-40926917D01*
X186528691Y-40890147D01*
D14*
X191065252Y-60241093D02*
X191007800Y-60126188D01*
X190892895Y-60011284D01*
X190720538Y-59838926D01*
X190663085Y-59724022D01*
X190663085Y-59609117D01*
X190950347Y-59666569D02*
X190892895Y-59551665D01*
X190777990Y-59436760D01*
X190548180Y-59379307D01*
X190146014Y-59379307D01*
X189916204Y-59436760D01*
X189801300Y-59551665D01*
X189743847Y-59666569D01*
X189743847Y-59896379D01*
X189801300Y-60011284D01*
X189916204Y-60126188D01*
X190146014Y-60183641D01*
X190548180Y-60183641D01*
X190777990Y-60126188D01*
X190892895Y-60011284D01*
X190950347Y-59896379D01*
X190950347Y-59666569D01*
X190950347Y-61332688D02*
X190950347Y-60643260D01*
X190950347Y-60987974D02*
X189743847Y-60987974D01*
X189916204Y-60873069D01*
X190031109Y-60758165D01*
X190088561Y-60643260D01*
X189743847Y-62424284D02*
X189743847Y-61849760D01*
X190318371Y-61792307D01*
X190260919Y-61849760D01*
X190203466Y-61964665D01*
X190203466Y-62251926D01*
X190260919Y-62366831D01*
X190318371Y-62424284D01*
X190433276Y-62481736D01*
X190720538Y-62481736D01*
X190835442Y-62424284D01*
X190892895Y-62366831D01*
X190950347Y-62251926D01*
X190950347Y-61964665D01*
X190892895Y-61849760D01*
X190835442Y-61792307D01*
D15*
X185894209Y-60873173D02*
X185857440Y-60909942D01*
X185820670Y-60983481D01*
X185820670Y-61167329D01*
X185857440Y-61240868D01*
X185894209Y-61277637D01*
X185967748Y-61314407D01*
X186041287Y-61314407D01*
X186151596Y-61277637D01*
X186592830Y-60836403D01*
X186592830Y-61314407D01*
X186602230Y-63476407D02*
X186602230Y-63035173D01*
X186602230Y-63255790D02*
X185830070Y-63255790D01*
X185940379Y-63182251D01*
X186013918Y-63108712D01*
X186050687Y-63035173D01*
X192945457Y-58045268D02*
X193460230Y-58045268D01*
X192651300Y-57861420D02*
X193202843Y-57677573D01*
X193202843Y-58155577D01*
X185830070Y-58525003D02*
X185830070Y-59003007D01*
X186124226Y-58745620D01*
X186124226Y-58855929D01*
X186160996Y-58929468D01*
X186197765Y-58966237D01*
X186271304Y-59003007D01*
X186455152Y-59003007D01*
X186528691Y-58966237D01*
X186565460Y-58929468D01*
X186602230Y-58855929D01*
X186602230Y-58635312D01*
X186565460Y-58561773D01*
X186528691Y-58525003D01*
D14*
X191065252Y-96659857D02*
X191007800Y-96544952D01*
X190892895Y-96430047D01*
X190720538Y-96257690D01*
X190663085Y-96142785D01*
X190663085Y-96027881D01*
X190950347Y-96085333D02*
X190892895Y-95970428D01*
X190777990Y-95855523D01*
X190548180Y-95798071D01*
X190146014Y-95798071D01*
X189916204Y-95855523D01*
X189801300Y-95970428D01*
X189743847Y-96085333D01*
X189743847Y-96315142D01*
X189801300Y-96430047D01*
X189916204Y-96544952D01*
X190146014Y-96602404D01*
X190548180Y-96602404D01*
X190777990Y-96544952D01*
X190892895Y-96430047D01*
X190950347Y-96315142D01*
X190950347Y-96085333D01*
X189743847Y-97636547D02*
X189743847Y-97406738D01*
X189801300Y-97291833D01*
X189858752Y-97234381D01*
X190031109Y-97119476D01*
X190260919Y-97062023D01*
X190720538Y-97062023D01*
X190835442Y-97119476D01*
X190892895Y-97176928D01*
X190950347Y-97291833D01*
X190950347Y-97521642D01*
X190892895Y-97636547D01*
X190835442Y-97694000D01*
X190720538Y-97751452D01*
X190433276Y-97751452D01*
X190318371Y-97694000D01*
X190260919Y-97636547D01*
X190203466Y-97521642D01*
X190203466Y-97291833D01*
X190260919Y-97176928D01*
X190318371Y-97119476D01*
X190433276Y-97062023D01*
D15*
X185894209Y-96142889D02*
X185857440Y-96179658D01*
X185820670Y-96253197D01*
X185820670Y-96437045D01*
X185857440Y-96510584D01*
X185894209Y-96547353D01*
X185967748Y-96584123D01*
X186041287Y-96584123D01*
X186151596Y-96547353D01*
X186592830Y-96106119D01*
X186592830Y-96584123D01*
X186602230Y-98746123D02*
X186602230Y-98304889D01*
X186602230Y-98525506D02*
X185830070Y-98525506D01*
X185940379Y-98451967D01*
X186013918Y-98378428D01*
X186050687Y-98304889D01*
X192945457Y-93314984D02*
X193460230Y-93314984D01*
X192651300Y-93131136D02*
X193202843Y-92947289D01*
X193202843Y-93425293D01*
X185830070Y-93794719D02*
X185830070Y-94272723D01*
X186124226Y-94015336D01*
X186124226Y-94125645D01*
X186160996Y-94199184D01*
X186197765Y-94235953D01*
X186271304Y-94272723D01*
X186455152Y-94272723D01*
X186528691Y-94235953D01*
X186565460Y-94199184D01*
X186602230Y-94125645D01*
X186602230Y-93905028D01*
X186565460Y-93831489D01*
X186528691Y-93794719D01*
D14*
X191065252Y-87842425D02*
X191007800Y-87727520D01*
X190892895Y-87612615D01*
X190720538Y-87440258D01*
X190663085Y-87325353D01*
X190663085Y-87210449D01*
X190950347Y-87267901D02*
X190892895Y-87152996D01*
X190777990Y-87038091D01*
X190548180Y-86980639D01*
X190146014Y-86980639D01*
X189916204Y-87038091D01*
X189801300Y-87152996D01*
X189743847Y-87267901D01*
X189743847Y-87497710D01*
X189801300Y-87612615D01*
X189916204Y-87727520D01*
X190146014Y-87784972D01*
X190548180Y-87784972D01*
X190777990Y-87727520D01*
X190892895Y-87612615D01*
X190950347Y-87497710D01*
X190950347Y-87267901D01*
X189743847Y-88876568D02*
X189743847Y-88302044D01*
X190318371Y-88244591D01*
X190260919Y-88302044D01*
X190203466Y-88416949D01*
X190203466Y-88704210D01*
X190260919Y-88819115D01*
X190318371Y-88876568D01*
X190433276Y-88934020D01*
X190720538Y-88934020D01*
X190835442Y-88876568D01*
X190892895Y-88819115D01*
X190950347Y-88704210D01*
X190950347Y-88416949D01*
X190892895Y-88302044D01*
X190835442Y-88244591D01*
D15*
X185894209Y-87325457D02*
X185857440Y-87362226D01*
X185820670Y-87435765D01*
X185820670Y-87619613D01*
X185857440Y-87693152D01*
X185894209Y-87729921D01*
X185967748Y-87766691D01*
X186041287Y-87766691D01*
X186151596Y-87729921D01*
X186592830Y-87288687D01*
X186592830Y-87766691D01*
X186602230Y-89928691D02*
X186602230Y-89487457D01*
X186602230Y-89708074D02*
X185830070Y-89708074D01*
X185940379Y-89634535D01*
X186013918Y-89560996D01*
X186050687Y-89487457D01*
X192945457Y-84497552D02*
X193460230Y-84497552D01*
X192651300Y-84313704D02*
X193202843Y-84129857D01*
X193202843Y-84607861D01*
X185830070Y-84977287D02*
X185830070Y-85455291D01*
X186124226Y-85197904D01*
X186124226Y-85308213D01*
X186160996Y-85381752D01*
X186197765Y-85418521D01*
X186271304Y-85455291D01*
X186455152Y-85455291D01*
X186528691Y-85418521D01*
X186565460Y-85381752D01*
X186602230Y-85308213D01*
X186602230Y-85087596D01*
X186565460Y-85014057D01*
X186528691Y-84977287D01*
D14*
X191065252Y-77875949D02*
X191007800Y-77761044D01*
X190892895Y-77646140D01*
X190720538Y-77473782D01*
X190663085Y-77358878D01*
X190663085Y-77243973D01*
X190950347Y-77301425D02*
X190892895Y-77186521D01*
X190777990Y-77071616D01*
X190548180Y-77014163D01*
X190146014Y-77014163D01*
X189916204Y-77071616D01*
X189801300Y-77186521D01*
X189743847Y-77301425D01*
X189743847Y-77531235D01*
X189801300Y-77646140D01*
X189916204Y-77761044D01*
X190146014Y-77818497D01*
X190548180Y-77818497D01*
X190777990Y-77761044D01*
X190892895Y-77646140D01*
X190950347Y-77531235D01*
X190950347Y-77301425D01*
X190950347Y-78967544D02*
X190950347Y-78278116D01*
X190950347Y-78622830D02*
X189743847Y-78622830D01*
X189916204Y-78507925D01*
X190031109Y-78393021D01*
X190088561Y-78278116D01*
X189858752Y-79427163D02*
X189801300Y-79484616D01*
X189743847Y-79599521D01*
X189743847Y-79886782D01*
X189801300Y-80001687D01*
X189858752Y-80059140D01*
X189973657Y-80116592D01*
X190088561Y-80116592D01*
X190260919Y-80059140D01*
X190950347Y-79369711D01*
X190950347Y-80116592D01*
D15*
X185894209Y-78508029D02*
X185857440Y-78544798D01*
X185820670Y-78618337D01*
X185820670Y-78802185D01*
X185857440Y-78875724D01*
X185894209Y-78912493D01*
X185967748Y-78949263D01*
X186041287Y-78949263D01*
X186151596Y-78912493D01*
X186592830Y-78471259D01*
X186592830Y-78949263D01*
X186602230Y-81111263D02*
X186602230Y-80670029D01*
X186602230Y-80890646D02*
X185830070Y-80890646D01*
X185940379Y-80817107D01*
X186013918Y-80743568D01*
X186050687Y-80670029D01*
X192945457Y-75680124D02*
X193460230Y-75680124D01*
X192651300Y-75496276D02*
X193202843Y-75312429D01*
X193202843Y-75790433D01*
X185830070Y-76159859D02*
X185830070Y-76637863D01*
X186124226Y-76380476D01*
X186124226Y-76490785D01*
X186160996Y-76564324D01*
X186197765Y-76601093D01*
X186271304Y-76637863D01*
X186455152Y-76637863D01*
X186528691Y-76601093D01*
X186565460Y-76564324D01*
X186602230Y-76490785D01*
X186602230Y-76270168D01*
X186565460Y-76196629D01*
X186528691Y-76159859D01*
M02*
