G04 #@! TF.GenerationSoftware,KiCad,Pcbnew,5.1.6-c6e7f7d~86~ubuntu18.04.1*
G04 #@! TF.CreationDate,2020-07-04T00:52:20+02:00*
G04 #@! TF.ProjectId,PeakHoldPWMDriver,5065616b-486f-46c6-9450-574d44726976,rev?*
G04 #@! TF.SameCoordinates,Original*
G04 #@! TF.FileFunction,Legend,Top*
G04 #@! TF.FilePolarity,Positive*
%FSLAX46Y46*%
G04 Gerber Fmt 4.6, Leading zero omitted, Abs format (unit mm)*
G04 Created by KiCad (PCBNEW 5.1.6-c6e7f7d~86~ubuntu18.04.1) date 2020-07-04 00:52:20*
%MOMM*%
%LPD*%
G01*
G04 APERTURE LIST*
%ADD10C,0.150000*%
%ADD11C,0.200000*%
%ADD12C,0.300000*%
%ADD13C,0.120000*%
G04 APERTURE END LIST*
D10*
X179443333Y-88273380D02*
X178967142Y-88273380D01*
X178967142Y-87273380D01*
X179776666Y-88273380D02*
X179776666Y-87273380D01*
X180110000Y-87987666D01*
X180443333Y-87273380D01*
X180443333Y-88273380D01*
X180871904Y-87368619D02*
X180919523Y-87321000D01*
X181014761Y-87273380D01*
X181252857Y-87273380D01*
X181348095Y-87321000D01*
X181395714Y-87368619D01*
X181443333Y-87463857D01*
X181443333Y-87559095D01*
X181395714Y-87701952D01*
X180824285Y-88273380D01*
X181443333Y-88273380D01*
X181919523Y-88273380D02*
X182110000Y-88273380D01*
X182205238Y-88225761D01*
X182252857Y-88178142D01*
X182348095Y-88035285D01*
X182395714Y-87844809D01*
X182395714Y-87463857D01*
X182348095Y-87368619D01*
X182300476Y-87321000D01*
X182205238Y-87273380D01*
X182014761Y-87273380D01*
X181919523Y-87321000D01*
X181871904Y-87368619D01*
X181824285Y-87463857D01*
X181824285Y-87701952D01*
X181871904Y-87797190D01*
X181919523Y-87844809D01*
X182014761Y-87892428D01*
X182205238Y-87892428D01*
X182300476Y-87844809D01*
X182348095Y-87797190D01*
X182395714Y-87701952D01*
X183014761Y-87273380D02*
X183110000Y-87273380D01*
X183205238Y-87321000D01*
X183252857Y-87368619D01*
X183300476Y-87463857D01*
X183348095Y-87654333D01*
X183348095Y-87892428D01*
X183300476Y-88082904D01*
X183252857Y-88178142D01*
X183205238Y-88225761D01*
X183110000Y-88273380D01*
X183014761Y-88273380D01*
X182919523Y-88225761D01*
X182871904Y-88178142D01*
X182824285Y-88082904D01*
X182776666Y-87892428D01*
X182776666Y-87654333D01*
X182824285Y-87463857D01*
X182871904Y-87368619D01*
X182919523Y-87321000D01*
X183014761Y-87273380D01*
X184300476Y-88273380D02*
X183729047Y-88273380D01*
X184014761Y-88273380D02*
X184014761Y-87273380D01*
X183919523Y-87416238D01*
X183824285Y-87511476D01*
X183729047Y-87559095D01*
X178086190Y-89828142D02*
X178038571Y-89875761D01*
X177895714Y-89923380D01*
X177800476Y-89923380D01*
X177657619Y-89875761D01*
X177562380Y-89780523D01*
X177514761Y-89685285D01*
X177467142Y-89494809D01*
X177467142Y-89351952D01*
X177514761Y-89161476D01*
X177562380Y-89066238D01*
X177657619Y-88971000D01*
X177800476Y-88923380D01*
X177895714Y-88923380D01*
X178038571Y-88971000D01*
X178086190Y-89018619D01*
X178657619Y-89923380D02*
X178562380Y-89875761D01*
X178514761Y-89828142D01*
X178467142Y-89732904D01*
X178467142Y-89447190D01*
X178514761Y-89351952D01*
X178562380Y-89304333D01*
X178657619Y-89256714D01*
X178800476Y-89256714D01*
X178895714Y-89304333D01*
X178943333Y-89351952D01*
X178990952Y-89447190D01*
X178990952Y-89732904D01*
X178943333Y-89828142D01*
X178895714Y-89875761D01*
X178800476Y-89923380D01*
X178657619Y-89923380D01*
X179419523Y-89923380D02*
X179419523Y-89256714D01*
X179419523Y-89351952D02*
X179467142Y-89304333D01*
X179562380Y-89256714D01*
X179705238Y-89256714D01*
X179800476Y-89304333D01*
X179848095Y-89399571D01*
X179848095Y-89923380D01*
X179848095Y-89399571D02*
X179895714Y-89304333D01*
X179990952Y-89256714D01*
X180133809Y-89256714D01*
X180229047Y-89304333D01*
X180276666Y-89399571D01*
X180276666Y-89923380D01*
X180752857Y-89256714D02*
X180752857Y-90256714D01*
X180752857Y-89304333D02*
X180848095Y-89256714D01*
X181038571Y-89256714D01*
X181133809Y-89304333D01*
X181181428Y-89351952D01*
X181229047Y-89447190D01*
X181229047Y-89732904D01*
X181181428Y-89828142D01*
X181133809Y-89875761D01*
X181038571Y-89923380D01*
X180848095Y-89923380D01*
X180752857Y-89875761D01*
X182086190Y-89923380D02*
X182086190Y-89399571D01*
X182038571Y-89304333D01*
X181943333Y-89256714D01*
X181752857Y-89256714D01*
X181657619Y-89304333D01*
X182086190Y-89875761D02*
X181990952Y-89923380D01*
X181752857Y-89923380D01*
X181657619Y-89875761D01*
X181610000Y-89780523D01*
X181610000Y-89685285D01*
X181657619Y-89590047D01*
X181752857Y-89542428D01*
X181990952Y-89542428D01*
X182086190Y-89494809D01*
X182562380Y-89923380D02*
X182562380Y-89256714D01*
X182562380Y-89447190D02*
X182610000Y-89351952D01*
X182657619Y-89304333D01*
X182752857Y-89256714D01*
X182848095Y-89256714D01*
X183610000Y-89923380D02*
X183610000Y-89399571D01*
X183562380Y-89304333D01*
X183467142Y-89256714D01*
X183276666Y-89256714D01*
X183181428Y-89304333D01*
X183610000Y-89875761D02*
X183514761Y-89923380D01*
X183276666Y-89923380D01*
X183181428Y-89875761D01*
X183133809Y-89780523D01*
X183133809Y-89685285D01*
X183181428Y-89590047D01*
X183276666Y-89542428D01*
X183514761Y-89542428D01*
X183610000Y-89494809D01*
X183943333Y-89256714D02*
X184324285Y-89256714D01*
X184086190Y-88923380D02*
X184086190Y-89780523D01*
X184133809Y-89875761D01*
X184229047Y-89923380D01*
X184324285Y-89923380D01*
X184800476Y-89923380D02*
X184705238Y-89875761D01*
X184657619Y-89828142D01*
X184610000Y-89732904D01*
X184610000Y-89447190D01*
X184657619Y-89351952D01*
X184705238Y-89304333D01*
X184800476Y-89256714D01*
X184943333Y-89256714D01*
X185038571Y-89304333D01*
X185086190Y-89351952D01*
X185133809Y-89447190D01*
X185133809Y-89732904D01*
X185086190Y-89828142D01*
X185038571Y-89875761D01*
X184943333Y-89923380D01*
X184800476Y-89923380D01*
X185562380Y-89923380D02*
X185562380Y-89256714D01*
X185562380Y-89447190D02*
X185610000Y-89351952D01*
X185657619Y-89304333D01*
X185752857Y-89256714D01*
X185848095Y-89256714D01*
X168045380Y-92447714D02*
X168045380Y-91781047D01*
X169045380Y-92209619D01*
X168378714Y-90971523D02*
X169045380Y-90971523D01*
X167997761Y-91209619D02*
X168712047Y-91447714D01*
X168712047Y-90828666D01*
X169045380Y-90447714D02*
X168045380Y-90447714D01*
X168521571Y-90447714D02*
X168521571Y-89876285D01*
X169045380Y-89876285D02*
X168045380Y-89876285D01*
X168950142Y-88828666D02*
X168997761Y-88876285D01*
X169045380Y-89019142D01*
X169045380Y-89114380D01*
X168997761Y-89257238D01*
X168902523Y-89352476D01*
X168807285Y-89400095D01*
X168616809Y-89447714D01*
X168473952Y-89447714D01*
X168283476Y-89400095D01*
X168188238Y-89352476D01*
X168093000Y-89257238D01*
X168045380Y-89114380D01*
X168045380Y-89019142D01*
X168093000Y-88876285D01*
X168140619Y-88828666D01*
X168045380Y-88495333D02*
X168045380Y-87876285D01*
X168426333Y-88209619D01*
X168426333Y-88066761D01*
X168473952Y-87971523D01*
X168521571Y-87923904D01*
X168616809Y-87876285D01*
X168854904Y-87876285D01*
X168950142Y-87923904D01*
X168997761Y-87971523D01*
X169045380Y-88066761D01*
X169045380Y-88352476D01*
X168997761Y-88447714D01*
X168950142Y-88495333D01*
X168140619Y-87495333D02*
X168093000Y-87447714D01*
X168045380Y-87352476D01*
X168045380Y-87114380D01*
X168093000Y-87019142D01*
X168140619Y-86971523D01*
X168235857Y-86923904D01*
X168331095Y-86923904D01*
X168473952Y-86971523D01*
X169045380Y-87542952D01*
X169045380Y-86923904D01*
X169695380Y-92257238D02*
X169695380Y-92066761D01*
X169743000Y-91971523D01*
X169838238Y-91876285D01*
X170028714Y-91828666D01*
X170362047Y-91828666D01*
X170552523Y-91876285D01*
X170647761Y-91971523D01*
X170695380Y-92066761D01*
X170695380Y-92257238D01*
X170647761Y-92352476D01*
X170552523Y-92447714D01*
X170362047Y-92495333D01*
X170028714Y-92495333D01*
X169838238Y-92447714D01*
X169743000Y-92352476D01*
X169695380Y-92257238D01*
X170695380Y-90828666D02*
X170219190Y-91162000D01*
X170695380Y-91400095D02*
X169695380Y-91400095D01*
X169695380Y-91019142D01*
X169743000Y-90923904D01*
X169790619Y-90876285D01*
X169885857Y-90828666D01*
X170028714Y-90828666D01*
X170123952Y-90876285D01*
X170171571Y-90923904D01*
X170219190Y-91019142D01*
X170219190Y-91400095D01*
X170028714Y-89209619D02*
X170838238Y-89209619D01*
X170933476Y-89257238D01*
X170981095Y-89304857D01*
X171028714Y-89400095D01*
X171028714Y-89542952D01*
X170981095Y-89638190D01*
X170647761Y-89209619D02*
X170695380Y-89304857D01*
X170695380Y-89495333D01*
X170647761Y-89590571D01*
X170600142Y-89638190D01*
X170504904Y-89685809D01*
X170219190Y-89685809D01*
X170123952Y-89638190D01*
X170076333Y-89590571D01*
X170028714Y-89495333D01*
X170028714Y-89304857D01*
X170076333Y-89209619D01*
X170695380Y-88304857D02*
X170171571Y-88304857D01*
X170076333Y-88352476D01*
X170028714Y-88447714D01*
X170028714Y-88638190D01*
X170076333Y-88733428D01*
X170647761Y-88304857D02*
X170695380Y-88400095D01*
X170695380Y-88638190D01*
X170647761Y-88733428D01*
X170552523Y-88781047D01*
X170457285Y-88781047D01*
X170362047Y-88733428D01*
X170314428Y-88638190D01*
X170314428Y-88400095D01*
X170266809Y-88304857D01*
X170028714Y-87971523D02*
X170028714Y-87590571D01*
X169695380Y-87828666D02*
X170552523Y-87828666D01*
X170647761Y-87781047D01*
X170695380Y-87685809D01*
X170695380Y-87590571D01*
X170647761Y-86876285D02*
X170695380Y-86971523D01*
X170695380Y-87162000D01*
X170647761Y-87257238D01*
X170552523Y-87304857D01*
X170171571Y-87304857D01*
X170076333Y-87257238D01*
X170028714Y-87162000D01*
X170028714Y-86971523D01*
X170076333Y-86876285D01*
X170171571Y-86828666D01*
X170266809Y-86828666D01*
X170362047Y-87304857D01*
X169061380Y-75683714D02*
X169061380Y-75017047D01*
X170061380Y-75445619D01*
X169394714Y-74207523D02*
X170061380Y-74207523D01*
X169013761Y-74445619D02*
X169728047Y-74683714D01*
X169728047Y-74064666D01*
X170061380Y-73683714D02*
X169061380Y-73683714D01*
X169537571Y-73683714D02*
X169537571Y-73112285D01*
X170061380Y-73112285D02*
X169061380Y-73112285D01*
X169966142Y-72064666D02*
X170013761Y-72112285D01*
X170061380Y-72255142D01*
X170061380Y-72350380D01*
X170013761Y-72493238D01*
X169918523Y-72588476D01*
X169823285Y-72636095D01*
X169632809Y-72683714D01*
X169489952Y-72683714D01*
X169299476Y-72636095D01*
X169204238Y-72588476D01*
X169109000Y-72493238D01*
X169061380Y-72350380D01*
X169061380Y-72255142D01*
X169109000Y-72112285D01*
X169156619Y-72064666D01*
X169061380Y-71445619D02*
X169061380Y-71350380D01*
X169109000Y-71255142D01*
X169156619Y-71207523D01*
X169251857Y-71159904D01*
X169442333Y-71112285D01*
X169680428Y-71112285D01*
X169870904Y-71159904D01*
X169966142Y-71207523D01*
X170013761Y-71255142D01*
X170061380Y-71350380D01*
X170061380Y-71445619D01*
X170013761Y-71540857D01*
X169966142Y-71588476D01*
X169870904Y-71636095D01*
X169680428Y-71683714D01*
X169442333Y-71683714D01*
X169251857Y-71636095D01*
X169156619Y-71588476D01*
X169109000Y-71540857D01*
X169061380Y-71445619D01*
X169489952Y-70540857D02*
X169442333Y-70636095D01*
X169394714Y-70683714D01*
X169299476Y-70731333D01*
X169251857Y-70731333D01*
X169156619Y-70683714D01*
X169109000Y-70636095D01*
X169061380Y-70540857D01*
X169061380Y-70350380D01*
X169109000Y-70255142D01*
X169156619Y-70207523D01*
X169251857Y-70159904D01*
X169299476Y-70159904D01*
X169394714Y-70207523D01*
X169442333Y-70255142D01*
X169489952Y-70350380D01*
X169489952Y-70540857D01*
X169537571Y-70636095D01*
X169585190Y-70683714D01*
X169680428Y-70731333D01*
X169870904Y-70731333D01*
X169966142Y-70683714D01*
X170013761Y-70636095D01*
X170061380Y-70540857D01*
X170061380Y-70350380D01*
X170013761Y-70255142D01*
X169966142Y-70207523D01*
X169870904Y-70159904D01*
X169680428Y-70159904D01*
X169585190Y-70207523D01*
X169537571Y-70255142D01*
X169489952Y-70350380D01*
X171425666Y-76159904D02*
X171425666Y-75683714D01*
X171711380Y-76255142D02*
X170711380Y-75921809D01*
X171711380Y-75588476D01*
X171711380Y-75255142D02*
X170711380Y-75255142D01*
X171711380Y-74683714D01*
X170711380Y-74683714D01*
X171711380Y-74207523D02*
X170711380Y-74207523D01*
X170711380Y-73969428D01*
X170759000Y-73826571D01*
X170854238Y-73731333D01*
X170949476Y-73683714D01*
X171139952Y-73636095D01*
X171282809Y-73636095D01*
X171473285Y-73683714D01*
X171568523Y-73731333D01*
X171663761Y-73826571D01*
X171711380Y-73969428D01*
X171711380Y-74207523D01*
X171044714Y-72017047D02*
X171854238Y-72017047D01*
X171949476Y-72064666D01*
X171997095Y-72112285D01*
X172044714Y-72207523D01*
X172044714Y-72350380D01*
X171997095Y-72445619D01*
X171663761Y-72017047D02*
X171711380Y-72112285D01*
X171711380Y-72302761D01*
X171663761Y-72398000D01*
X171616142Y-72445619D01*
X171520904Y-72493238D01*
X171235190Y-72493238D01*
X171139952Y-72445619D01*
X171092333Y-72398000D01*
X171044714Y-72302761D01*
X171044714Y-72112285D01*
X171092333Y-72017047D01*
X171711380Y-71112285D02*
X171187571Y-71112285D01*
X171092333Y-71159904D01*
X171044714Y-71255142D01*
X171044714Y-71445619D01*
X171092333Y-71540857D01*
X171663761Y-71112285D02*
X171711380Y-71207523D01*
X171711380Y-71445619D01*
X171663761Y-71540857D01*
X171568523Y-71588476D01*
X171473285Y-71588476D01*
X171378047Y-71540857D01*
X171330428Y-71445619D01*
X171330428Y-71207523D01*
X171282809Y-71112285D01*
X171044714Y-70778952D02*
X171044714Y-70398000D01*
X170711380Y-70636095D02*
X171568523Y-70636095D01*
X171663761Y-70588476D01*
X171711380Y-70493238D01*
X171711380Y-70398000D01*
X171663761Y-69683714D02*
X171711380Y-69778952D01*
X171711380Y-69969428D01*
X171663761Y-70064666D01*
X171568523Y-70112285D01*
X171187571Y-70112285D01*
X171092333Y-70064666D01*
X171044714Y-69969428D01*
X171044714Y-69778952D01*
X171092333Y-69683714D01*
X171187571Y-69636095D01*
X171282809Y-69636095D01*
X171378047Y-70112285D01*
X164489380Y-106925714D02*
X164489380Y-106259047D01*
X165489380Y-106687619D01*
X164822714Y-105449523D02*
X165489380Y-105449523D01*
X164441761Y-105687619D02*
X165156047Y-105925714D01*
X165156047Y-105306666D01*
X165489380Y-104925714D02*
X164489380Y-104925714D01*
X164965571Y-104925714D02*
X164965571Y-104354285D01*
X165489380Y-104354285D02*
X164489380Y-104354285D01*
X165394142Y-103306666D02*
X165441761Y-103354285D01*
X165489380Y-103497142D01*
X165489380Y-103592380D01*
X165441761Y-103735238D01*
X165346523Y-103830476D01*
X165251285Y-103878095D01*
X165060809Y-103925714D01*
X164917952Y-103925714D01*
X164727476Y-103878095D01*
X164632238Y-103830476D01*
X164537000Y-103735238D01*
X164489380Y-103592380D01*
X164489380Y-103497142D01*
X164537000Y-103354285D01*
X164584619Y-103306666D01*
X164489380Y-102687619D02*
X164489380Y-102592380D01*
X164537000Y-102497142D01*
X164584619Y-102449523D01*
X164679857Y-102401904D01*
X164870333Y-102354285D01*
X165108428Y-102354285D01*
X165298904Y-102401904D01*
X165394142Y-102449523D01*
X165441761Y-102497142D01*
X165489380Y-102592380D01*
X165489380Y-102687619D01*
X165441761Y-102782857D01*
X165394142Y-102830476D01*
X165298904Y-102878095D01*
X165108428Y-102925714D01*
X164870333Y-102925714D01*
X164679857Y-102878095D01*
X164584619Y-102830476D01*
X164537000Y-102782857D01*
X164489380Y-102687619D01*
X164917952Y-101782857D02*
X164870333Y-101878095D01*
X164822714Y-101925714D01*
X164727476Y-101973333D01*
X164679857Y-101973333D01*
X164584619Y-101925714D01*
X164537000Y-101878095D01*
X164489380Y-101782857D01*
X164489380Y-101592380D01*
X164537000Y-101497142D01*
X164584619Y-101449523D01*
X164679857Y-101401904D01*
X164727476Y-101401904D01*
X164822714Y-101449523D01*
X164870333Y-101497142D01*
X164917952Y-101592380D01*
X164917952Y-101782857D01*
X164965571Y-101878095D01*
X165013190Y-101925714D01*
X165108428Y-101973333D01*
X165298904Y-101973333D01*
X165394142Y-101925714D01*
X165441761Y-101878095D01*
X165489380Y-101782857D01*
X165489380Y-101592380D01*
X165441761Y-101497142D01*
X165394142Y-101449523D01*
X165298904Y-101401904D01*
X165108428Y-101401904D01*
X165013190Y-101449523D01*
X164965571Y-101497142D01*
X164917952Y-101592380D01*
X166853666Y-107401904D02*
X166853666Y-106925714D01*
X167139380Y-107497142D02*
X166139380Y-107163809D01*
X167139380Y-106830476D01*
X167139380Y-106497142D02*
X166139380Y-106497142D01*
X167139380Y-105925714D01*
X166139380Y-105925714D01*
X167139380Y-105449523D02*
X166139380Y-105449523D01*
X166139380Y-105211428D01*
X166187000Y-105068571D01*
X166282238Y-104973333D01*
X166377476Y-104925714D01*
X166567952Y-104878095D01*
X166710809Y-104878095D01*
X166901285Y-104925714D01*
X166996523Y-104973333D01*
X167091761Y-105068571D01*
X167139380Y-105211428D01*
X167139380Y-105449523D01*
X166472714Y-103259047D02*
X167282238Y-103259047D01*
X167377476Y-103306666D01*
X167425095Y-103354285D01*
X167472714Y-103449523D01*
X167472714Y-103592380D01*
X167425095Y-103687619D01*
X167091761Y-103259047D02*
X167139380Y-103354285D01*
X167139380Y-103544761D01*
X167091761Y-103640000D01*
X167044142Y-103687619D01*
X166948904Y-103735238D01*
X166663190Y-103735238D01*
X166567952Y-103687619D01*
X166520333Y-103640000D01*
X166472714Y-103544761D01*
X166472714Y-103354285D01*
X166520333Y-103259047D01*
X167139380Y-102354285D02*
X166615571Y-102354285D01*
X166520333Y-102401904D01*
X166472714Y-102497142D01*
X166472714Y-102687619D01*
X166520333Y-102782857D01*
X167091761Y-102354285D02*
X167139380Y-102449523D01*
X167139380Y-102687619D01*
X167091761Y-102782857D01*
X166996523Y-102830476D01*
X166901285Y-102830476D01*
X166806047Y-102782857D01*
X166758428Y-102687619D01*
X166758428Y-102449523D01*
X166710809Y-102354285D01*
X166472714Y-102020952D02*
X166472714Y-101640000D01*
X166139380Y-101878095D02*
X166996523Y-101878095D01*
X167091761Y-101830476D01*
X167139380Y-101735238D01*
X167139380Y-101640000D01*
X167091761Y-100925714D02*
X167139380Y-101020952D01*
X167139380Y-101211428D01*
X167091761Y-101306666D01*
X166996523Y-101354285D01*
X166615571Y-101354285D01*
X166520333Y-101306666D01*
X166472714Y-101211428D01*
X166472714Y-101020952D01*
X166520333Y-100925714D01*
X166615571Y-100878095D01*
X166710809Y-100878095D01*
X166806047Y-101354285D01*
X152916285Y-92099380D02*
X153582952Y-92099380D01*
X153154380Y-93099380D01*
X154392476Y-92432714D02*
X154392476Y-93099380D01*
X154154380Y-92051761D02*
X153916285Y-92766047D01*
X154535333Y-92766047D01*
X154916285Y-93099380D02*
X154916285Y-92099380D01*
X154916285Y-92575571D02*
X155487714Y-92575571D01*
X155487714Y-93099380D02*
X155487714Y-92099380D01*
X156535333Y-93004142D02*
X156487714Y-93051761D01*
X156344857Y-93099380D01*
X156249619Y-93099380D01*
X156106761Y-93051761D01*
X156011523Y-92956523D01*
X155963904Y-92861285D01*
X155916285Y-92670809D01*
X155916285Y-92527952D01*
X155963904Y-92337476D01*
X156011523Y-92242238D01*
X156106761Y-92147000D01*
X156249619Y-92099380D01*
X156344857Y-92099380D01*
X156487714Y-92147000D01*
X156535333Y-92194619D01*
X156868666Y-92099380D02*
X157535333Y-92099380D01*
X157106761Y-93099380D01*
X158344857Y-92432714D02*
X158344857Y-93099380D01*
X158106761Y-92051761D02*
X157868666Y-92766047D01*
X158487714Y-92766047D01*
X152678190Y-94225571D02*
X152344857Y-94225571D01*
X152344857Y-94749380D02*
X152344857Y-93749380D01*
X152821047Y-93749380D01*
X153344857Y-94749380D02*
X153249619Y-94701761D01*
X153202000Y-94606523D01*
X153202000Y-93749380D01*
X153725809Y-94749380D02*
X153725809Y-94082714D01*
X153725809Y-93749380D02*
X153678190Y-93797000D01*
X153725809Y-93844619D01*
X153773428Y-93797000D01*
X153725809Y-93749380D01*
X153725809Y-93844619D01*
X154202000Y-94082714D02*
X154202000Y-95082714D01*
X154202000Y-94130333D02*
X154297238Y-94082714D01*
X154487714Y-94082714D01*
X154582952Y-94130333D01*
X154630571Y-94177952D01*
X154678190Y-94273190D01*
X154678190Y-94558904D01*
X154630571Y-94654142D01*
X154582952Y-94701761D01*
X154487714Y-94749380D01*
X154297238Y-94749380D01*
X154202000Y-94701761D01*
X155106761Y-94368428D02*
X155868666Y-94368428D01*
X156678190Y-94225571D02*
X156344857Y-94225571D01*
X156344857Y-94749380D02*
X156344857Y-93749380D01*
X156821047Y-93749380D01*
X157344857Y-94749380D02*
X157249619Y-94701761D01*
X157202000Y-94606523D01*
X157202000Y-93749380D01*
X157868666Y-94749380D02*
X157773428Y-94701761D01*
X157725809Y-94654142D01*
X157678190Y-94558904D01*
X157678190Y-94273190D01*
X157725809Y-94177952D01*
X157773428Y-94130333D01*
X157868666Y-94082714D01*
X158011523Y-94082714D01*
X158106761Y-94130333D01*
X158154380Y-94177952D01*
X158202000Y-94273190D01*
X158202000Y-94558904D01*
X158154380Y-94654142D01*
X158106761Y-94701761D01*
X158011523Y-94749380D01*
X157868666Y-94749380D01*
X158630571Y-94082714D02*
X158630571Y-95082714D01*
X158630571Y-94130333D02*
X158725809Y-94082714D01*
X158916285Y-94082714D01*
X159011523Y-94130333D01*
X159059142Y-94177952D01*
X159106761Y-94273190D01*
X159106761Y-94558904D01*
X159059142Y-94654142D01*
X159011523Y-94701761D01*
X158916285Y-94749380D01*
X158725809Y-94749380D01*
X158630571Y-94701761D01*
X153170285Y-79653380D02*
X153836952Y-79653380D01*
X153408380Y-80653380D01*
X154646476Y-79986714D02*
X154646476Y-80653380D01*
X154408380Y-79605761D02*
X154170285Y-80320047D01*
X154789333Y-80320047D01*
X155170285Y-80653380D02*
X155170285Y-79653380D01*
X155170285Y-80129571D02*
X155741714Y-80129571D01*
X155741714Y-80653380D02*
X155741714Y-79653380D01*
X156789333Y-80558142D02*
X156741714Y-80605761D01*
X156598857Y-80653380D01*
X156503619Y-80653380D01*
X156360761Y-80605761D01*
X156265523Y-80510523D01*
X156217904Y-80415285D01*
X156170285Y-80224809D01*
X156170285Y-80081952D01*
X156217904Y-79891476D01*
X156265523Y-79796238D01*
X156360761Y-79701000D01*
X156503619Y-79653380D01*
X156598857Y-79653380D01*
X156741714Y-79701000D01*
X156789333Y-79748619D01*
X157122666Y-79653380D02*
X157789333Y-79653380D01*
X157360761Y-80653380D01*
X158598857Y-79986714D02*
X158598857Y-80653380D01*
X158360761Y-79605761D02*
X158122666Y-80320047D01*
X158741714Y-80320047D01*
X152932190Y-81779571D02*
X152598857Y-81779571D01*
X152598857Y-82303380D02*
X152598857Y-81303380D01*
X153075047Y-81303380D01*
X153598857Y-82303380D02*
X153503619Y-82255761D01*
X153456000Y-82160523D01*
X153456000Y-81303380D01*
X153979809Y-82303380D02*
X153979809Y-81636714D01*
X153979809Y-81303380D02*
X153932190Y-81351000D01*
X153979809Y-81398619D01*
X154027428Y-81351000D01*
X153979809Y-81303380D01*
X153979809Y-81398619D01*
X154456000Y-81636714D02*
X154456000Y-82636714D01*
X154456000Y-81684333D02*
X154551238Y-81636714D01*
X154741714Y-81636714D01*
X154836952Y-81684333D01*
X154884571Y-81731952D01*
X154932190Y-81827190D01*
X154932190Y-82112904D01*
X154884571Y-82208142D01*
X154836952Y-82255761D01*
X154741714Y-82303380D01*
X154551238Y-82303380D01*
X154456000Y-82255761D01*
X155360761Y-81922428D02*
X156122666Y-81922428D01*
X156932190Y-81779571D02*
X156598857Y-81779571D01*
X156598857Y-82303380D02*
X156598857Y-81303380D01*
X157075047Y-81303380D01*
X157598857Y-82303380D02*
X157503619Y-82255761D01*
X157456000Y-82160523D01*
X157456000Y-81303380D01*
X158122666Y-82303380D02*
X158027428Y-82255761D01*
X157979809Y-82208142D01*
X157932190Y-82112904D01*
X157932190Y-81827190D01*
X157979809Y-81731952D01*
X158027428Y-81684333D01*
X158122666Y-81636714D01*
X158265523Y-81636714D01*
X158360761Y-81684333D01*
X158408380Y-81731952D01*
X158456000Y-81827190D01*
X158456000Y-82112904D01*
X158408380Y-82208142D01*
X158360761Y-82255761D01*
X158265523Y-82303380D01*
X158122666Y-82303380D01*
X158884571Y-81636714D02*
X158884571Y-82636714D01*
X158884571Y-81684333D02*
X158979809Y-81636714D01*
X159170285Y-81636714D01*
X159265523Y-81684333D01*
X159313142Y-81731952D01*
X159360761Y-81827190D01*
X159360761Y-82112904D01*
X159313142Y-82208142D01*
X159265523Y-82255761D01*
X159170285Y-82303380D01*
X158979809Y-82303380D01*
X158884571Y-82255761D01*
X121348666Y-102306380D02*
X120777238Y-102306380D01*
X121062952Y-102306380D02*
X121062952Y-101306380D01*
X120967714Y-101449238D01*
X120872476Y-101544476D01*
X120777238Y-101592095D01*
X121682000Y-101306380D02*
X122301047Y-101306380D01*
X121967714Y-101687333D01*
X122110571Y-101687333D01*
X122205809Y-101734952D01*
X122253428Y-101782571D01*
X122301047Y-101877809D01*
X122301047Y-102115904D01*
X122253428Y-102211142D01*
X122205809Y-102258761D01*
X122110571Y-102306380D01*
X121824857Y-102306380D01*
X121729619Y-102258761D01*
X121682000Y-102211142D01*
X122729619Y-102211142D02*
X122777238Y-102258761D01*
X122729619Y-102306380D01*
X122682000Y-102258761D01*
X122729619Y-102211142D01*
X122729619Y-102306380D01*
X123348666Y-101734952D02*
X123253428Y-101687333D01*
X123205809Y-101639714D01*
X123158190Y-101544476D01*
X123158190Y-101496857D01*
X123205809Y-101401619D01*
X123253428Y-101354000D01*
X123348666Y-101306380D01*
X123539142Y-101306380D01*
X123634380Y-101354000D01*
X123682000Y-101401619D01*
X123729619Y-101496857D01*
X123729619Y-101544476D01*
X123682000Y-101639714D01*
X123634380Y-101687333D01*
X123539142Y-101734952D01*
X123348666Y-101734952D01*
X123253428Y-101782571D01*
X123205809Y-101830190D01*
X123158190Y-101925428D01*
X123158190Y-102115904D01*
X123205809Y-102211142D01*
X123253428Y-102258761D01*
X123348666Y-102306380D01*
X123539142Y-102306380D01*
X123634380Y-102258761D01*
X123682000Y-102211142D01*
X123729619Y-102115904D01*
X123729619Y-101925428D01*
X123682000Y-101830190D01*
X123634380Y-101782571D01*
X123539142Y-101734952D01*
X124015333Y-101306380D02*
X124348666Y-102306380D01*
X124682000Y-101306380D01*
X122491523Y-98258380D02*
X122015333Y-98258380D01*
X121967714Y-98734571D01*
X122015333Y-98686952D01*
X122110571Y-98639333D01*
X122348666Y-98639333D01*
X122443904Y-98686952D01*
X122491523Y-98734571D01*
X122539142Y-98829809D01*
X122539142Y-99067904D01*
X122491523Y-99163142D01*
X122443904Y-99210761D01*
X122348666Y-99258380D01*
X122110571Y-99258380D01*
X122015333Y-99210761D01*
X121967714Y-99163142D01*
X122824857Y-98258380D02*
X123158190Y-99258380D01*
X123491523Y-98258380D01*
D11*
X150676857Y-68646857D02*
X150676857Y-67446857D01*
X151134000Y-67446857D01*
X151248285Y-67504000D01*
X151305428Y-67561142D01*
X151362571Y-67675428D01*
X151362571Y-67846857D01*
X151305428Y-67961142D01*
X151248285Y-68018285D01*
X151134000Y-68075428D01*
X150676857Y-68075428D01*
X151762571Y-67446857D02*
X152048285Y-68646857D01*
X152276857Y-67789714D01*
X152505428Y-68646857D01*
X152791142Y-67446857D01*
X153248285Y-68646857D02*
X153248285Y-67446857D01*
X153648285Y-68304000D01*
X154048285Y-67446857D01*
X154048285Y-68646857D01*
X155534000Y-68646857D02*
X155534000Y-67446857D01*
X155991142Y-67446857D01*
X156105428Y-67504000D01*
X156162571Y-67561142D01*
X156219714Y-67675428D01*
X156219714Y-67846857D01*
X156162571Y-67961142D01*
X156105428Y-68018285D01*
X155991142Y-68075428D01*
X155534000Y-68075428D01*
X157191142Y-68589714D02*
X157076857Y-68646857D01*
X156848285Y-68646857D01*
X156734000Y-68589714D01*
X156676857Y-68475428D01*
X156676857Y-68018285D01*
X156734000Y-67904000D01*
X156848285Y-67846857D01*
X157076857Y-67846857D01*
X157191142Y-67904000D01*
X157248285Y-68018285D01*
X157248285Y-68132571D01*
X156676857Y-68246857D01*
X158276857Y-68646857D02*
X158276857Y-68018285D01*
X158219714Y-67904000D01*
X158105428Y-67846857D01*
X157876857Y-67846857D01*
X157762571Y-67904000D01*
X158276857Y-68589714D02*
X158162571Y-68646857D01*
X157876857Y-68646857D01*
X157762571Y-68589714D01*
X157705428Y-68475428D01*
X157705428Y-68361142D01*
X157762571Y-68246857D01*
X157876857Y-68189714D01*
X158162571Y-68189714D01*
X158276857Y-68132571D01*
X158848285Y-68646857D02*
X158848285Y-67446857D01*
X158962571Y-68189714D02*
X159305428Y-68646857D01*
X159305428Y-67846857D02*
X158848285Y-68304000D01*
X160791142Y-68646857D02*
X160734000Y-68646857D01*
X160619714Y-68589714D01*
X160448285Y-68418285D01*
X160162571Y-68075428D01*
X160048285Y-67904000D01*
X159991142Y-67732571D01*
X159991142Y-67618285D01*
X160048285Y-67504000D01*
X160162571Y-67446857D01*
X160219714Y-67446857D01*
X160334000Y-67504000D01*
X160391142Y-67618285D01*
X160391142Y-67675428D01*
X160334000Y-67789714D01*
X160276857Y-67846857D01*
X159934000Y-68075428D01*
X159876857Y-68132571D01*
X159819714Y-68246857D01*
X159819714Y-68418285D01*
X159876857Y-68532571D01*
X159934000Y-68589714D01*
X160048285Y-68646857D01*
X160219714Y-68646857D01*
X160334000Y-68589714D01*
X160391142Y-68532571D01*
X160562571Y-68304000D01*
X160619714Y-68132571D01*
X160619714Y-68018285D01*
X161305428Y-68646857D02*
X161305428Y-67446857D01*
X161305428Y-68018285D02*
X161991142Y-68018285D01*
X161991142Y-68646857D02*
X161991142Y-67446857D01*
X162734000Y-68646857D02*
X162619714Y-68589714D01*
X162562571Y-68532571D01*
X162505428Y-68418285D01*
X162505428Y-68075428D01*
X162562571Y-67961142D01*
X162619714Y-67904000D01*
X162734000Y-67846857D01*
X162905428Y-67846857D01*
X163019714Y-67904000D01*
X163076857Y-67961142D01*
X163134000Y-68075428D01*
X163134000Y-68418285D01*
X163076857Y-68532571D01*
X163019714Y-68589714D01*
X162905428Y-68646857D01*
X162734000Y-68646857D01*
X163819714Y-68646857D02*
X163705428Y-68589714D01*
X163648285Y-68475428D01*
X163648285Y-67446857D01*
X164791142Y-68646857D02*
X164791142Y-67446857D01*
X164791142Y-68589714D02*
X164676857Y-68646857D01*
X164448285Y-68646857D01*
X164334000Y-68589714D01*
X164276857Y-68532571D01*
X164219714Y-68418285D01*
X164219714Y-68075428D01*
X164276857Y-67961142D01*
X164334000Y-67904000D01*
X164448285Y-67846857D01*
X164676857Y-67846857D01*
X164791142Y-67904000D01*
X151619714Y-70646857D02*
X151619714Y-69446857D01*
X152191142Y-69846857D02*
X152191142Y-70646857D01*
X152191142Y-69961142D02*
X152248285Y-69904000D01*
X152362571Y-69846857D01*
X152534000Y-69846857D01*
X152648285Y-69904000D01*
X152705428Y-70018285D01*
X152705428Y-70646857D01*
X153276857Y-69846857D02*
X153276857Y-70875428D01*
X153219714Y-70989714D01*
X153105428Y-71046857D01*
X153048285Y-71046857D01*
X153276857Y-69446857D02*
X153219714Y-69504000D01*
X153276857Y-69561142D01*
X153334000Y-69504000D01*
X153276857Y-69446857D01*
X153276857Y-69561142D01*
X154305428Y-70589714D02*
X154191142Y-70646857D01*
X153962571Y-70646857D01*
X153848285Y-70589714D01*
X153791142Y-70475428D01*
X153791142Y-70018285D01*
X153848285Y-69904000D01*
X153962571Y-69846857D01*
X154191142Y-69846857D01*
X154305428Y-69904000D01*
X154362571Y-70018285D01*
X154362571Y-70132571D01*
X153791142Y-70246857D01*
X155391142Y-70589714D02*
X155276857Y-70646857D01*
X155048285Y-70646857D01*
X154934000Y-70589714D01*
X154876857Y-70532571D01*
X154819714Y-70418285D01*
X154819714Y-70075428D01*
X154876857Y-69961142D01*
X154934000Y-69904000D01*
X155048285Y-69846857D01*
X155276857Y-69846857D01*
X155391142Y-69904000D01*
X155734000Y-69846857D02*
X156191142Y-69846857D01*
X155905428Y-69446857D02*
X155905428Y-70475428D01*
X155962571Y-70589714D01*
X156076857Y-70646857D01*
X156191142Y-70646857D01*
X156762571Y-70646857D02*
X156648285Y-70589714D01*
X156591142Y-70532571D01*
X156534000Y-70418285D01*
X156534000Y-70075428D01*
X156591142Y-69961142D01*
X156648285Y-69904000D01*
X156762571Y-69846857D01*
X156934000Y-69846857D01*
X157048285Y-69904000D01*
X157105428Y-69961142D01*
X157162571Y-70075428D01*
X157162571Y-70418285D01*
X157105428Y-70532571D01*
X157048285Y-70589714D01*
X156934000Y-70646857D01*
X156762571Y-70646857D01*
X157676857Y-70646857D02*
X157676857Y-69846857D01*
X157676857Y-70075428D02*
X157734000Y-69961142D01*
X157791142Y-69904000D01*
X157905428Y-69846857D01*
X158019714Y-69846857D01*
X159848285Y-70646857D02*
X159848285Y-69446857D01*
X159848285Y-70589714D02*
X159734000Y-70646857D01*
X159505428Y-70646857D01*
X159391142Y-70589714D01*
X159334000Y-70532571D01*
X159276857Y-70418285D01*
X159276857Y-70075428D01*
X159334000Y-69961142D01*
X159391142Y-69904000D01*
X159505428Y-69846857D01*
X159734000Y-69846857D01*
X159848285Y-69904000D01*
X160419714Y-70646857D02*
X160419714Y-69846857D01*
X160419714Y-70075428D02*
X160476857Y-69961142D01*
X160534000Y-69904000D01*
X160648285Y-69846857D01*
X160762571Y-69846857D01*
X161162571Y-70646857D02*
X161162571Y-69846857D01*
X161162571Y-69446857D02*
X161105428Y-69504000D01*
X161162571Y-69561142D01*
X161219714Y-69504000D01*
X161162571Y-69446857D01*
X161162571Y-69561142D01*
X161619714Y-69846857D02*
X161905428Y-70646857D01*
X162191142Y-69846857D01*
X163105428Y-70589714D02*
X162991142Y-70646857D01*
X162762571Y-70646857D01*
X162648285Y-70589714D01*
X162591142Y-70475428D01*
X162591142Y-70018285D01*
X162648285Y-69904000D01*
X162762571Y-69846857D01*
X162991142Y-69846857D01*
X163105428Y-69904000D01*
X163162571Y-70018285D01*
X163162571Y-70132571D01*
X162591142Y-70246857D01*
X163676857Y-70646857D02*
X163676857Y-69846857D01*
X163676857Y-70075428D02*
X163734000Y-69961142D01*
X163791142Y-69904000D01*
X163905428Y-69846857D01*
X164019714Y-69846857D01*
X151705428Y-71846857D02*
X151705428Y-72646857D01*
X151419714Y-71389714D02*
X151134000Y-72246857D01*
X151876857Y-72246857D01*
X153019714Y-72532571D02*
X152962571Y-72589714D01*
X152791142Y-72646857D01*
X152676857Y-72646857D01*
X152505428Y-72589714D01*
X152391142Y-72475428D01*
X152334000Y-72361142D01*
X152276857Y-72132571D01*
X152276857Y-71961142D01*
X152334000Y-71732571D01*
X152391142Y-71618285D01*
X152505428Y-71504000D01*
X152676857Y-71446857D01*
X152791142Y-71446857D01*
X152962571Y-71504000D01*
X153019714Y-71561142D01*
X153419714Y-71846857D02*
X153705428Y-72646857D01*
X153991142Y-71846857D02*
X153705428Y-72646857D01*
X153591142Y-72932571D01*
X153534000Y-72989714D01*
X153419714Y-73046857D01*
X154619714Y-72646857D02*
X154505428Y-72589714D01*
X154448285Y-72475428D01*
X154448285Y-71446857D01*
X155076857Y-72532571D02*
X155134000Y-72589714D01*
X155076857Y-72646857D01*
X155019714Y-72589714D01*
X155076857Y-72532571D01*
X155076857Y-72646857D01*
X156562571Y-72646857D02*
X156562571Y-71446857D01*
X156562571Y-71904000D02*
X156676857Y-71846857D01*
X156905428Y-71846857D01*
X157019714Y-71904000D01*
X157076857Y-71961142D01*
X157134000Y-72075428D01*
X157134000Y-72418285D01*
X157076857Y-72532571D01*
X157019714Y-72589714D01*
X156905428Y-72646857D01*
X156676857Y-72646857D01*
X156562571Y-72589714D01*
X157534000Y-71846857D02*
X157819714Y-72646857D01*
X158105428Y-71846857D02*
X157819714Y-72646857D01*
X157705428Y-72932571D01*
X157648285Y-72989714D01*
X157534000Y-73046857D01*
X159305428Y-71446857D02*
X159991142Y-71446857D01*
X159648285Y-72646857D02*
X159648285Y-71446857D01*
X160391142Y-71846857D02*
X160391142Y-72875428D01*
X160334000Y-72989714D01*
X160219714Y-73046857D01*
X160162571Y-73046857D01*
X160391142Y-71446857D02*
X160334000Y-71504000D01*
X160391142Y-71561142D01*
X160448285Y-71504000D01*
X160391142Y-71446857D01*
X160391142Y-71561142D01*
X161419714Y-72589714D02*
X161305428Y-72646857D01*
X161076857Y-72646857D01*
X160962571Y-72589714D01*
X160905428Y-72475428D01*
X160905428Y-72018285D01*
X160962571Y-71904000D01*
X161076857Y-71846857D01*
X161305428Y-71846857D01*
X161419714Y-71904000D01*
X161476857Y-72018285D01*
X161476857Y-72132571D01*
X160905428Y-72246857D01*
X162448285Y-72589714D02*
X162334000Y-72646857D01*
X162105428Y-72646857D01*
X161991142Y-72589714D01*
X161934000Y-72475428D01*
X161934000Y-72018285D01*
X161991142Y-71904000D01*
X162105428Y-71846857D01*
X162334000Y-71846857D01*
X162448285Y-71904000D01*
X162505428Y-72018285D01*
X162505428Y-72132571D01*
X161934000Y-72246857D01*
X163019714Y-72646857D02*
X163019714Y-71846857D01*
X163019714Y-72075428D02*
X163076857Y-71961142D01*
X163134000Y-71904000D01*
X163248285Y-71846857D01*
X163362571Y-71846857D01*
X164276857Y-72646857D02*
X164276857Y-71446857D01*
X164276857Y-72589714D02*
X164162571Y-72646857D01*
X163934000Y-72646857D01*
X163819714Y-72589714D01*
X163762571Y-72532571D01*
X163705428Y-72418285D01*
X163705428Y-72075428D01*
X163762571Y-71961142D01*
X163819714Y-71904000D01*
X163934000Y-71846857D01*
X164162571Y-71846857D01*
X164276857Y-71904000D01*
D12*
X175684571Y-98984285D02*
X174184571Y-98984285D01*
X174184571Y-98412857D01*
X174256000Y-98270000D01*
X174327428Y-98198571D01*
X174470285Y-98127142D01*
X174684571Y-98127142D01*
X174827428Y-98198571D01*
X174898857Y-98270000D01*
X174970285Y-98412857D01*
X174970285Y-98984285D01*
X174898857Y-97484285D02*
X174898857Y-96984285D01*
X175684571Y-96770000D02*
X175684571Y-97484285D01*
X174184571Y-97484285D01*
X174184571Y-96770000D01*
X175256000Y-96198571D02*
X175256000Y-95484285D01*
X175684571Y-96341428D02*
X174184571Y-95841428D01*
X175684571Y-95341428D01*
X175684571Y-94841428D02*
X174184571Y-94841428D01*
X175684571Y-93984285D02*
X174827428Y-94627142D01*
X174184571Y-93984285D02*
X175041714Y-94841428D01*
X130726571Y-71405428D02*
X129226571Y-71405428D01*
X129940857Y-71405428D02*
X129940857Y-70548285D01*
X130726571Y-70548285D02*
X129226571Y-70548285D01*
X129226571Y-69548285D02*
X129226571Y-69262571D01*
X129298000Y-69119714D01*
X129440857Y-68976857D01*
X129726571Y-68905428D01*
X130226571Y-68905428D01*
X130512285Y-68976857D01*
X130655142Y-69119714D01*
X130726571Y-69262571D01*
X130726571Y-69548285D01*
X130655142Y-69691142D01*
X130512285Y-69834000D01*
X130226571Y-69905428D01*
X129726571Y-69905428D01*
X129440857Y-69834000D01*
X129298000Y-69691142D01*
X129226571Y-69548285D01*
X130726571Y-67548285D02*
X130726571Y-68262571D01*
X129226571Y-68262571D01*
X130726571Y-67048285D02*
X129226571Y-67048285D01*
X129226571Y-66691142D01*
X129298000Y-66476857D01*
X129440857Y-66334000D01*
X129583714Y-66262571D01*
X129869428Y-66191142D01*
X130083714Y-66191142D01*
X130369428Y-66262571D01*
X130512285Y-66334000D01*
X130655142Y-66476857D01*
X130726571Y-66691142D01*
X130726571Y-67048285D01*
D13*
X174696000Y-111268000D02*
X170396000Y-111268000D01*
X170396000Y-111268000D02*
X170396000Y-113268000D01*
X170396000Y-113268000D02*
X174696000Y-113268000D01*
X160906000Y-93522000D02*
X160906000Y-90762000D01*
X160906000Y-90762000D02*
X160066000Y-90762000D01*
X160906000Y-93522000D02*
X160906000Y-96282000D01*
X160906000Y-96282000D02*
X160066000Y-96282000D01*
X150486000Y-93522000D02*
X150486000Y-90762000D01*
X150486000Y-90762000D02*
X151326000Y-90762000D01*
X150486000Y-93522000D02*
X150486000Y-96282000D01*
X150486000Y-96282000D02*
X151326000Y-96282000D01*
X151326000Y-96282000D02*
X151326000Y-97972000D01*
X167513500Y-68020000D02*
X165823500Y-68020000D01*
X167513500Y-67180000D02*
X167513500Y-68020000D01*
X170273500Y-67180000D02*
X167513500Y-67180000D01*
X173033500Y-67180000D02*
X173033500Y-68020000D01*
X170273500Y-67180000D02*
X173033500Y-67180000D01*
X167513500Y-77600000D02*
X167513500Y-76760000D01*
X170273500Y-77600000D02*
X167513500Y-77600000D01*
X173033500Y-77600000D02*
X173033500Y-76760000D01*
X170273500Y-77600000D02*
X173033500Y-77600000D01*
X165955500Y-109604000D02*
X168715500Y-109604000D01*
X168715500Y-109604000D02*
X168715500Y-108764000D01*
X165955500Y-109604000D02*
X163195500Y-109604000D01*
X163195500Y-109604000D02*
X163195500Y-108764000D01*
X165955500Y-99184000D02*
X168715500Y-99184000D01*
X168715500Y-99184000D02*
X168715500Y-100024000D01*
X165955500Y-99184000D02*
X163195500Y-99184000D01*
X163195500Y-99184000D02*
X163195500Y-100024000D01*
X163195500Y-100024000D02*
X161505500Y-100024000D01*
X166658000Y-85292000D02*
X164968000Y-85292000D01*
X166658000Y-84452000D02*
X166658000Y-85292000D01*
X169418000Y-84452000D02*
X166658000Y-84452000D01*
X172178000Y-84452000D02*
X172178000Y-85292000D01*
X169418000Y-84452000D02*
X172178000Y-84452000D01*
X166658000Y-94872000D02*
X166658000Y-94032000D01*
X169418000Y-94872000D02*
X166658000Y-94872000D01*
X172178000Y-94872000D02*
X172178000Y-94032000D01*
X169418000Y-94872000D02*
X172178000Y-94872000D01*
X185264000Y-69722000D02*
X185264000Y-66422000D01*
X185264000Y-66422000D02*
X179864000Y-66422000D01*
X185264000Y-69722000D02*
X179864000Y-69722000D01*
X185412000Y-102996000D02*
X185412000Y-99696000D01*
X185412000Y-99696000D02*
X180012000Y-99696000D01*
X185412000Y-102996000D02*
X180012000Y-102996000D01*
X184904000Y-78612000D02*
X184904000Y-75312000D01*
X184904000Y-75312000D02*
X179504000Y-75312000D01*
X184904000Y-78612000D02*
X179504000Y-78612000D01*
X185158000Y-111632000D02*
X185158000Y-108332000D01*
X185158000Y-108332000D02*
X179758000Y-108332000D01*
X185158000Y-111632000D02*
X179758000Y-111632000D01*
X136046000Y-96394000D02*
X136046000Y-99694000D01*
X136046000Y-99694000D02*
X141446000Y-99694000D01*
X136046000Y-96394000D02*
X141446000Y-96394000D01*
X187520000Y-80852564D02*
X187520000Y-76748436D01*
X190940000Y-80852564D02*
X190940000Y-76748436D01*
X191448000Y-109961936D02*
X191448000Y-114066064D01*
X188028000Y-109961936D02*
X188028000Y-114066064D01*
X152312000Y-100854000D02*
X145012000Y-100854000D01*
X145012000Y-100854000D02*
X145012000Y-102854000D01*
X145012000Y-102854000D02*
X152312000Y-102854000D01*
X127405000Y-101119000D02*
X124945000Y-101119000D01*
X124945000Y-101119000D02*
X124945000Y-102589000D01*
X124945000Y-102589000D02*
X127405000Y-102589000D01*
X127405000Y-98071000D02*
X124945000Y-98071000D01*
X124945000Y-98071000D02*
X124945000Y-99541000D01*
X124945000Y-99541000D02*
X127405000Y-99541000D01*
X199420000Y-81896000D02*
X199420000Y-80636000D01*
X199420000Y-75076000D02*
X199420000Y-76336000D01*
X195660000Y-81896000D02*
X199420000Y-81896000D01*
X193410000Y-75076000D02*
X199420000Y-75076000D01*
X199370000Y-98660000D02*
X199370000Y-97400000D01*
X199370000Y-91840000D02*
X199370000Y-93100000D01*
X195610000Y-98660000D02*
X199370000Y-98660000D01*
X193360000Y-91840000D02*
X199370000Y-91840000D01*
X199420000Y-90278000D02*
X199420000Y-89018000D01*
X199420000Y-83458000D02*
X199420000Y-84718000D01*
X195660000Y-90278000D02*
X199420000Y-90278000D01*
X193410000Y-83458000D02*
X199420000Y-83458000D01*
X199420000Y-107282000D02*
X199420000Y-106022000D01*
X199420000Y-100462000D02*
X199420000Y-101722000D01*
X195660000Y-107282000D02*
X199420000Y-107282000D01*
X193410000Y-100462000D02*
X199420000Y-100462000D01*
X160912000Y-81119500D02*
X160912000Y-78359500D01*
X160912000Y-78359500D02*
X160072000Y-78359500D01*
X160912000Y-81119500D02*
X160912000Y-83879500D01*
X160912000Y-83879500D02*
X160072000Y-83879500D01*
X150492000Y-81119500D02*
X150492000Y-78359500D01*
X150492000Y-78359500D02*
X151332000Y-78359500D01*
X150492000Y-81119500D02*
X150492000Y-83879500D01*
X150492000Y-83879500D02*
X151332000Y-83879500D01*
X151332000Y-83879500D02*
X151332000Y-85569500D01*
X136085733Y-84326000D02*
X136428267Y-84326000D01*
X136085733Y-85346000D02*
X136428267Y-85346000D01*
X136113733Y-90422000D02*
X136456267Y-90422000D01*
X136113733Y-91442000D02*
X136456267Y-91442000D01*
X176782000Y-80548267D02*
X176782000Y-80205733D01*
X177802000Y-80548267D02*
X177802000Y-80205733D01*
X178306000Y-114584267D02*
X178306000Y-114241733D01*
X179326000Y-114584267D02*
X179326000Y-114241733D01*
X146810000Y-83850267D02*
X146810000Y-83507733D01*
X147830000Y-83850267D02*
X147830000Y-83507733D01*
X147064000Y-93502267D02*
X147064000Y-93159733D01*
X148084000Y-93502267D02*
X148084000Y-93159733D01*
X136113733Y-87374000D02*
X136456267Y-87374000D01*
X136113733Y-88394000D02*
X136456267Y-88394000D01*
X136113733Y-93724000D02*
X136456267Y-93724000D01*
X136113733Y-94744000D02*
X136456267Y-94744000D01*
X125000000Y-80588267D02*
X125000000Y-80245733D01*
X126020000Y-80588267D02*
X126020000Y-80245733D01*
X124970000Y-90484267D02*
X124970000Y-90141733D01*
X125990000Y-90484267D02*
X125990000Y-90141733D01*
X124970000Y-85424267D02*
X124970000Y-85081733D01*
X125990000Y-85424267D02*
X125990000Y-85081733D01*
X124966000Y-95308267D02*
X124966000Y-94965733D01*
X125986000Y-95308267D02*
X125986000Y-94965733D01*
X181080000Y-70998000D02*
X181080000Y-71928000D01*
X181080000Y-74158000D02*
X181080000Y-73228000D01*
X181080000Y-74158000D02*
X184240000Y-74158000D01*
X181080000Y-70998000D02*
X182540000Y-70998000D01*
X181588000Y-79766000D02*
X181588000Y-80696000D01*
X181588000Y-82926000D02*
X181588000Y-81996000D01*
X181588000Y-82926000D02*
X184748000Y-82926000D01*
X181588000Y-79766000D02*
X183048000Y-79766000D01*
X183390000Y-112720000D02*
X183390000Y-113650000D01*
X183390000Y-115880000D02*
X183390000Y-114950000D01*
X183390000Y-115880000D02*
X186550000Y-115880000D01*
X183390000Y-112720000D02*
X184850000Y-112720000D01*
X143230000Y-95052000D02*
X143230000Y-94122000D01*
X143230000Y-91892000D02*
X143230000Y-92822000D01*
X143230000Y-91892000D02*
X140070000Y-91892000D01*
X143230000Y-95052000D02*
X141770000Y-95052000D01*
X132040000Y-82072000D02*
X132040000Y-81142000D01*
X132040000Y-78912000D02*
X132040000Y-79842000D01*
X132040000Y-78912000D02*
X128880000Y-78912000D01*
X132040000Y-82072000D02*
X130580000Y-82072000D01*
X131848000Y-91816000D02*
X131848000Y-90886000D01*
X131848000Y-88656000D02*
X131848000Y-89586000D01*
X131848000Y-88656000D02*
X128688000Y-88656000D01*
X131848000Y-91816000D02*
X130388000Y-91816000D01*
X132020000Y-86918000D02*
X132020000Y-85988000D01*
X132020000Y-83758000D02*
X132020000Y-84688000D01*
X132020000Y-83758000D02*
X128860000Y-83758000D01*
X132020000Y-86918000D02*
X130560000Y-86918000D01*
X131848000Y-96576000D02*
X131848000Y-95646000D01*
X131848000Y-93416000D02*
X131848000Y-94346000D01*
X131848000Y-93416000D02*
X128688000Y-93416000D01*
X131848000Y-96576000D02*
X130388000Y-96576000D01*
X209718000Y-114198000D02*
G75*
G03*
X209718000Y-114198000I-1900000J0D01*
G01*
X209718000Y-68478000D02*
G75*
G03*
X209718000Y-68478000I-1900000J0D01*
G01*
X208818000Y-114198000D02*
G75*
G03*
X208818000Y-114198000I-1000000J0D01*
G01*
X208818000Y-68478000D02*
G75*
G03*
X208818000Y-68478000I-1000000J0D01*
G01*
X202908000Y-116848000D02*
X211728000Y-116848000D01*
X211728000Y-116848000D02*
X211728000Y-65828000D01*
X211728000Y-65828000D02*
X202908000Y-65828000D01*
X202908000Y-65828000D02*
X202908000Y-116848000D01*
X203718000Y-116848000D02*
X203718000Y-115308000D01*
X203718000Y-65828000D02*
X203718000Y-67368000D01*
X203718000Y-108118000D02*
X203718000Y-105038000D01*
X203718000Y-103038000D02*
X203718000Y-99958000D01*
X203718000Y-97958000D02*
X203718000Y-94878000D01*
X203718000Y-92878000D02*
X203718000Y-89798000D01*
X203718000Y-87798000D02*
X203718000Y-84718000D01*
X203718000Y-82718000D02*
X203718000Y-79638000D01*
X203718000Y-77638000D02*
X203718000Y-74558000D01*
X204718000Y-115198000D02*
X202908000Y-115198000D01*
X202908000Y-115198000D02*
X202908000Y-113198000D01*
X202908000Y-113198000D02*
X204718000Y-113198000D01*
X204718000Y-113198000D02*
X204718000Y-115198000D01*
X204718000Y-69478000D02*
X202908000Y-69478000D01*
X202908000Y-69478000D02*
X202908000Y-67478000D01*
X202908000Y-67478000D02*
X204718000Y-67478000D01*
X204718000Y-67478000D02*
X204718000Y-69478000D01*
X203718000Y-113198000D02*
X203718000Y-110118000D01*
X203718000Y-72558000D02*
X203718000Y-69478000D01*
X204718000Y-110118000D02*
X202908000Y-110118000D01*
X202908000Y-110118000D02*
X202908000Y-108118000D01*
X202908000Y-108118000D02*
X204718000Y-108118000D01*
X204718000Y-108118000D02*
X204718000Y-110118000D01*
X204718000Y-105038000D02*
X202908000Y-105038000D01*
X202908000Y-105038000D02*
X202908000Y-103038000D01*
X202908000Y-103038000D02*
X204718000Y-103038000D01*
X204718000Y-103038000D02*
X204718000Y-105038000D01*
X204718000Y-99958000D02*
X202908000Y-99958000D01*
X202908000Y-99958000D02*
X202908000Y-97958000D01*
X202908000Y-97958000D02*
X204718000Y-97958000D01*
X204718000Y-97958000D02*
X204718000Y-99958000D01*
X204718000Y-94878000D02*
X202908000Y-94878000D01*
X202908000Y-94878000D02*
X202908000Y-92878000D01*
X202908000Y-92878000D02*
X204718000Y-92878000D01*
X204718000Y-92878000D02*
X204718000Y-94878000D01*
X204718000Y-89798000D02*
X202908000Y-89798000D01*
X202908000Y-89798000D02*
X202908000Y-87798000D01*
X202908000Y-87798000D02*
X204718000Y-87798000D01*
X204718000Y-87798000D02*
X204718000Y-89798000D01*
X204718000Y-84718000D02*
X202908000Y-84718000D01*
X202908000Y-84718000D02*
X202908000Y-82718000D01*
X202908000Y-82718000D02*
X204718000Y-82718000D01*
X204718000Y-82718000D02*
X204718000Y-84718000D01*
X204718000Y-79638000D02*
X202908000Y-79638000D01*
X202908000Y-79638000D02*
X202908000Y-77638000D01*
X202908000Y-77638000D02*
X204718000Y-77638000D01*
X204718000Y-77638000D02*
X204718000Y-79638000D01*
X204718000Y-74558000D02*
X202908000Y-74558000D01*
X202908000Y-74558000D02*
X202908000Y-72558000D01*
X202908000Y-72558000D02*
X204718000Y-72558000D01*
X204718000Y-72558000D02*
X204718000Y-74558000D01*
X210018000Y-107118000D02*
X210018000Y-106038000D01*
X210018000Y-102038000D02*
X210018000Y-100958000D01*
X210018000Y-96958000D02*
X210018000Y-95878000D01*
X210018000Y-91878000D02*
X210018000Y-90798000D01*
X210018000Y-86798000D02*
X210018000Y-85718000D01*
X210018000Y-81718000D02*
X210018000Y-80638000D01*
X210018000Y-76638000D02*
X210018000Y-75558000D01*
X210018000Y-111118000D02*
X210018000Y-111858000D01*
X210018000Y-111858000D02*
X204718000Y-111858000D01*
X204718000Y-111858000D02*
X204718000Y-70818000D01*
X204718000Y-70818000D02*
X210018000Y-70818000D01*
X210018000Y-70818000D02*
X210018000Y-71558000D01*
X202108000Y-108818000D02*
X202708000Y-109118000D01*
X202708000Y-109118000D02*
X202108000Y-109418000D01*
X202108000Y-109418000D02*
X202108000Y-108818000D01*
X210033821Y-71571159D02*
G75*
G02*
X210018000Y-75558000I-1665821J-1986841D01*
G01*
X210033821Y-76651159D02*
G75*
G02*
X210018000Y-80638000I-1665821J-1986841D01*
G01*
X210033821Y-81731159D02*
G75*
G02*
X210018000Y-85718000I-1665821J-1986841D01*
G01*
X210033821Y-86811159D02*
G75*
G02*
X210018000Y-90798000I-1665821J-1986841D01*
G01*
X210033821Y-91891159D02*
G75*
G02*
X210018000Y-95878000I-1665821J-1986841D01*
G01*
X210033821Y-96971159D02*
G75*
G02*
X210018000Y-100958000I-1665821J-1986841D01*
G01*
X210033821Y-102051159D02*
G75*
G02*
X210018000Y-106038000I-1665821J-1986841D01*
G01*
X210033821Y-107131159D02*
G75*
G02*
X210018000Y-111118000I-1665821J-1986841D01*
G01*
X118670000Y-108996000D02*
G75*
G03*
X118670000Y-108996000I-1900000J0D01*
G01*
X118670000Y-73436000D02*
G75*
G03*
X118670000Y-73436000I-1900000J0D01*
G01*
X117770000Y-108996000D02*
G75*
G03*
X117770000Y-108996000I-1000000J0D01*
G01*
X117770000Y-73436000D02*
G75*
G03*
X117770000Y-73436000I-1000000J0D01*
G01*
X111860000Y-111646000D02*
X120680000Y-111646000D01*
X120680000Y-111646000D02*
X120680000Y-70786000D01*
X120680000Y-70786000D02*
X111860000Y-70786000D01*
X111860000Y-70786000D02*
X111860000Y-111646000D01*
X112670000Y-111646000D02*
X112670000Y-110106000D01*
X112670000Y-70786000D02*
X112670000Y-72326000D01*
X112670000Y-102916000D02*
X112670000Y-99836000D01*
X112670000Y-97836000D02*
X112670000Y-94756000D01*
X112670000Y-92756000D02*
X112670000Y-89676000D01*
X112670000Y-87676000D02*
X112670000Y-84596000D01*
X112670000Y-82596000D02*
X112670000Y-79516000D01*
X113670000Y-109996000D02*
X111860000Y-109996000D01*
X111860000Y-109996000D02*
X111860000Y-107996000D01*
X111860000Y-107996000D02*
X113670000Y-107996000D01*
X113670000Y-107996000D02*
X113670000Y-109996000D01*
X113670000Y-74436000D02*
X111860000Y-74436000D01*
X111860000Y-74436000D02*
X111860000Y-72436000D01*
X111860000Y-72436000D02*
X113670000Y-72436000D01*
X113670000Y-72436000D02*
X113670000Y-74436000D01*
X112670000Y-107996000D02*
X112670000Y-104916000D01*
X112670000Y-77516000D02*
X112670000Y-74436000D01*
X113670000Y-104916000D02*
X111860000Y-104916000D01*
X111860000Y-104916000D02*
X111860000Y-102916000D01*
X111860000Y-102916000D02*
X113670000Y-102916000D01*
X113670000Y-102916000D02*
X113670000Y-104916000D01*
X113670000Y-99836000D02*
X111860000Y-99836000D01*
X111860000Y-99836000D02*
X111860000Y-97836000D01*
X111860000Y-97836000D02*
X113670000Y-97836000D01*
X113670000Y-97836000D02*
X113670000Y-99836000D01*
X113670000Y-94756000D02*
X111860000Y-94756000D01*
X111860000Y-94756000D02*
X111860000Y-92756000D01*
X111860000Y-92756000D02*
X113670000Y-92756000D01*
X113670000Y-92756000D02*
X113670000Y-94756000D01*
X113670000Y-89676000D02*
X111860000Y-89676000D01*
X111860000Y-89676000D02*
X111860000Y-87676000D01*
X111860000Y-87676000D02*
X113670000Y-87676000D01*
X113670000Y-87676000D02*
X113670000Y-89676000D01*
X113670000Y-84596000D02*
X111860000Y-84596000D01*
X111860000Y-84596000D02*
X111860000Y-82596000D01*
X111860000Y-82596000D02*
X113670000Y-82596000D01*
X113670000Y-82596000D02*
X113670000Y-84596000D01*
X113670000Y-79516000D02*
X111860000Y-79516000D01*
X111860000Y-79516000D02*
X111860000Y-77516000D01*
X111860000Y-77516000D02*
X113670000Y-77516000D01*
X113670000Y-77516000D02*
X113670000Y-79516000D01*
X118970000Y-101916000D02*
X118970000Y-100836000D01*
X118970000Y-96836000D02*
X118970000Y-95756000D01*
X118970000Y-91756000D02*
X118970000Y-90676000D01*
X118970000Y-86676000D02*
X118970000Y-85596000D01*
X118970000Y-81596000D02*
X118970000Y-80516000D01*
X118970000Y-105916000D02*
X118970000Y-106656000D01*
X118970000Y-106656000D02*
X113670000Y-106656000D01*
X113670000Y-106656000D02*
X113670000Y-75776000D01*
X113670000Y-75776000D02*
X118970000Y-75776000D01*
X118970000Y-75776000D02*
X118970000Y-76516000D01*
X111060000Y-103616000D02*
X111660000Y-103916000D01*
X111660000Y-103916000D02*
X111060000Y-104216000D01*
X111060000Y-104216000D02*
X111060000Y-103616000D01*
X118985821Y-76529159D02*
G75*
G02*
X118970000Y-80516000I-1665821J-1986841D01*
G01*
X118985821Y-81609159D02*
G75*
G02*
X118970000Y-85596000I-1665821J-1986841D01*
G01*
X118985821Y-86689159D02*
G75*
G02*
X118970000Y-90676000I-1665821J-1986841D01*
G01*
X118985821Y-91769159D02*
G75*
G02*
X118970000Y-95756000I-1665821J-1986841D01*
G01*
X118985821Y-96849159D02*
G75*
G02*
X118970000Y-100836000I-1665821J-1986841D01*
G01*
X118985821Y-101929159D02*
G75*
G02*
X118970000Y-105916000I-1665821J-1986841D01*
G01*
X131448000Y-109768000D02*
X150648000Y-109768000D01*
X150648000Y-109768000D02*
X150648000Y-114768000D01*
X150648000Y-114768000D02*
X131448000Y-114768000D01*
X131448000Y-114768000D02*
X131448000Y-109768000D01*
X130928000Y-109148000D02*
X151168000Y-109148000D01*
X130928000Y-109148000D02*
X130928000Y-115388000D01*
X151168000Y-115388000D02*
X151168000Y-109148000D01*
X151168000Y-115388000D02*
X130928000Y-115388000D01*
X136212000Y-105587252D02*
X136212000Y-102814748D01*
X139632000Y-105587252D02*
X139632000Y-102814748D01*
X141494000Y-71430000D02*
X141494000Y-75730000D01*
X141494000Y-75730000D02*
X143494000Y-75730000D01*
X143494000Y-75730000D02*
X143494000Y-71430000D01*
X133294000Y-73168000D02*
X128994000Y-73168000D01*
X128994000Y-73168000D02*
X128994000Y-75168000D01*
X128994000Y-75168000D02*
X133294000Y-75168000D01*
X153268000Y-113341564D02*
X153268000Y-112137436D01*
X155088000Y-113341564D02*
X155088000Y-112137436D01*
X155088000Y-105533436D02*
X155088000Y-106737564D01*
X153268000Y-105533436D02*
X153268000Y-106737564D01*
X144410000Y-66716000D02*
X141460000Y-66716000D01*
X142610000Y-69936000D02*
X144410000Y-69936000D01*
X176986000Y-91245500D02*
X176986000Y-92935500D01*
X176146000Y-91245500D02*
X176986000Y-91245500D01*
X176146000Y-88485500D02*
X176146000Y-91245500D01*
X176146000Y-85725500D02*
X176986000Y-85725500D01*
X176146000Y-88485500D02*
X176146000Y-85725500D01*
X186566000Y-91245500D02*
X185726000Y-91245500D01*
X186566000Y-88485500D02*
X186566000Y-91245500D01*
X186566000Y-85725500D02*
X185726000Y-85725500D01*
X186566000Y-88485500D02*
X186566000Y-85725500D01*
X136946000Y-71962000D02*
X132206000Y-71962000D01*
X136946000Y-66722000D02*
X132206000Y-66722000D01*
X132206000Y-70582000D02*
X132206000Y-71962000D01*
X132206000Y-66722000D02*
X132206000Y-68102000D01*
X136946000Y-69082000D02*
X136946000Y-69602000D01*
X136946000Y-66722000D02*
X136946000Y-67303000D01*
X136946000Y-71382000D02*
X136946000Y-71962000D01*
X182246000Y-99020000D02*
X177506000Y-99020000D01*
X182246000Y-93780000D02*
X177506000Y-93780000D01*
X177506000Y-97640000D02*
X177506000Y-99020000D01*
X177506000Y-93780000D02*
X177506000Y-95160000D01*
X182246000Y-96140000D02*
X182246000Y-96660000D01*
X182246000Y-93780000D02*
X182246000Y-94361000D01*
X182246000Y-98440000D02*
X182246000Y-99020000D01*
X163832000Y-78911267D02*
X163832000Y-78568733D01*
X162812000Y-78911267D02*
X162812000Y-78568733D01*
X163578000Y-91357267D02*
X163578000Y-91014733D01*
X162558000Y-91357267D02*
X162558000Y-91014733D01*
X163832000Y-84104267D02*
X163832000Y-83761733D01*
X162812000Y-84104267D02*
X162812000Y-83761733D01*
X162812000Y-96094733D02*
X162812000Y-96437267D01*
X163832000Y-96094733D02*
X163832000Y-96437267D01*
X147572000Y-68041733D02*
X147572000Y-68384267D01*
X148592000Y-68041733D02*
X148592000Y-68384267D01*
X136367733Y-75440000D02*
X136710267Y-75440000D01*
X136367733Y-74420000D02*
X136710267Y-74420000D01*
X126207733Y-77980000D02*
X126550267Y-77980000D01*
X126207733Y-76960000D02*
X126550267Y-76960000D01*
X173540267Y-106170000D02*
X173197733Y-106170000D01*
X173540267Y-107190000D02*
X173197733Y-107190000D01*
X190940000Y-72095564D02*
X190940000Y-67991436D01*
X187520000Y-72095564D02*
X187520000Y-67991436D01*
X188028000Y-100370436D02*
X188028000Y-104474564D01*
X191448000Y-100370436D02*
X191448000Y-104474564D01*
X146781733Y-72646000D02*
X147124267Y-72646000D01*
X146781733Y-71626000D02*
X147124267Y-71626000D01*
X147901000Y-103410000D02*
X147901000Y-104920000D01*
X144200000Y-103410000D02*
X144200000Y-104920000D01*
X140930000Y-104920000D02*
X151170000Y-104920000D01*
X151170000Y-103410000D02*
X151170000Y-108051000D01*
X140930000Y-103410000D02*
X140930000Y-108051000D01*
X140930000Y-108051000D02*
X151170000Y-108051000D01*
X140930000Y-103410000D02*
X151170000Y-103410000D01*
X147830000Y-79024267D02*
X147830000Y-78681733D01*
X146810000Y-79024267D02*
X146810000Y-78681733D01*
X177802000Y-72448267D02*
X177802000Y-72105733D01*
X176782000Y-72448267D02*
X176782000Y-72105733D01*
X148084000Y-88676267D02*
X148084000Y-88333733D01*
X147064000Y-88676267D02*
X147064000Y-88333733D01*
X178056000Y-105835267D02*
X178056000Y-105492733D01*
X177036000Y-105835267D02*
X177036000Y-105492733D01*
X130271733Y-102364000D02*
X130614267Y-102364000D01*
X130271733Y-101344000D02*
X130614267Y-101344000D01*
X130271733Y-99316000D02*
X130614267Y-99316000D01*
X130271733Y-98296000D02*
X130614267Y-98296000D01*
D10*
X133956000Y-107044000D02*
X133956000Y-103144000D01*
X121956000Y-107044000D02*
X121956000Y-103144000D01*
X133956000Y-107044000D02*
X121956000Y-107044000D01*
X133956000Y-103144000D02*
X121956000Y-103144000D01*
D13*
X180826000Y-104018000D02*
X182286000Y-104018000D01*
X180826000Y-107178000D02*
X183986000Y-107178000D01*
X180826000Y-107178000D02*
X180826000Y-106248000D01*
X180826000Y-104018000D02*
X180826000Y-104948000D01*
X143024000Y-80574000D02*
X141564000Y-80574000D01*
X143024000Y-77414000D02*
X139864000Y-77414000D01*
X143024000Y-77414000D02*
X143024000Y-78344000D01*
X143024000Y-80574000D02*
X143024000Y-79644000D01*
X143254000Y-90226000D02*
X141794000Y-90226000D01*
X143254000Y-87066000D02*
X140094000Y-87066000D01*
X143254000Y-87066000D02*
X143254000Y-87996000D01*
X143254000Y-90226000D02*
X143254000Y-89296000D01*
X142976000Y-85400000D02*
X141516000Y-85400000D01*
X142976000Y-82240000D02*
X139816000Y-82240000D01*
X142976000Y-82240000D02*
X142976000Y-83170000D01*
X142976000Y-85400000D02*
X142976000Y-84470000D01*
X157990000Y-112552267D02*
X157990000Y-112209733D01*
X156970000Y-112552267D02*
X156970000Y-112209733D01*
X156716000Y-106367733D02*
X156716000Y-106710267D01*
X157736000Y-106367733D02*
X157736000Y-106710267D01*
D10*
X172207904Y-110720380D02*
X172207904Y-109720380D01*
X172446000Y-109720380D01*
X172588857Y-109768000D01*
X172684095Y-109863238D01*
X172731714Y-109958476D01*
X172779333Y-110148952D01*
X172779333Y-110291809D01*
X172731714Y-110482285D01*
X172684095Y-110577523D01*
X172588857Y-110672761D01*
X172446000Y-110720380D01*
X172207904Y-110720380D01*
X173636476Y-110053714D02*
X173636476Y-110720380D01*
X173398380Y-109672761D02*
X173160285Y-110387047D01*
X173779333Y-110387047D01*
X149098380Y-94283904D02*
X149907904Y-94283904D01*
X150003142Y-94236285D01*
X150050761Y-94188666D01*
X150098380Y-94093428D01*
X150098380Y-93902952D01*
X150050761Y-93807714D01*
X150003142Y-93760095D01*
X149907904Y-93712476D01*
X149098380Y-93712476D01*
X149098380Y-93331523D02*
X149098380Y-92712476D01*
X149479333Y-93045809D01*
X149479333Y-92902952D01*
X149526952Y-92807714D01*
X149574571Y-92760095D01*
X149669809Y-92712476D01*
X149907904Y-92712476D01*
X150003142Y-92760095D01*
X150050761Y-92807714D01*
X150098380Y-92902952D01*
X150098380Y-93188666D01*
X150050761Y-93283904D01*
X150003142Y-93331523D01*
X169672095Y-78192380D02*
X169672095Y-79001904D01*
X169719714Y-79097142D01*
X169767333Y-79144761D01*
X169862571Y-79192380D01*
X170053047Y-79192380D01*
X170148285Y-79144761D01*
X170195904Y-79097142D01*
X170243523Y-79001904D01*
X170243523Y-78192380D01*
X170862571Y-78620952D02*
X170767333Y-78573333D01*
X170719714Y-78525714D01*
X170672095Y-78430476D01*
X170672095Y-78382857D01*
X170719714Y-78287619D01*
X170767333Y-78240000D01*
X170862571Y-78192380D01*
X171053047Y-78192380D01*
X171148285Y-78240000D01*
X171195904Y-78287619D01*
X171243523Y-78382857D01*
X171243523Y-78430476D01*
X171195904Y-78525714D01*
X171148285Y-78573333D01*
X171053047Y-78620952D01*
X170862571Y-78620952D01*
X170767333Y-78668571D01*
X170719714Y-78716190D01*
X170672095Y-78811428D01*
X170672095Y-79001904D01*
X170719714Y-79097142D01*
X170767333Y-79144761D01*
X170862571Y-79192380D01*
X171053047Y-79192380D01*
X171148285Y-79144761D01*
X171195904Y-79097142D01*
X171243523Y-79001904D01*
X171243523Y-78811428D01*
X171195904Y-78716190D01*
X171148285Y-78668571D01*
X171053047Y-78620952D01*
X165193595Y-97796380D02*
X165193595Y-98605904D01*
X165241214Y-98701142D01*
X165288833Y-98748761D01*
X165384071Y-98796380D01*
X165574547Y-98796380D01*
X165669785Y-98748761D01*
X165717404Y-98701142D01*
X165765023Y-98605904D01*
X165765023Y-97796380D01*
X166145976Y-97796380D02*
X166812642Y-97796380D01*
X166384071Y-98796380D01*
X168656095Y-83064380D02*
X168656095Y-83873904D01*
X168703714Y-83969142D01*
X168751333Y-84016761D01*
X168846571Y-84064380D01*
X169037047Y-84064380D01*
X169132285Y-84016761D01*
X169179904Y-83969142D01*
X169227523Y-83873904D01*
X169227523Y-83064380D01*
X170227523Y-84064380D02*
X169656095Y-84064380D01*
X169941809Y-84064380D02*
X169941809Y-83064380D01*
X169846571Y-83207238D01*
X169751333Y-83302476D01*
X169656095Y-83350095D01*
X175569714Y-68524380D02*
X175569714Y-67524380D01*
X175807809Y-67524380D01*
X175950666Y-67572000D01*
X176045904Y-67667238D01*
X176093523Y-67762476D01*
X176141142Y-67952952D01*
X176141142Y-68095809D01*
X176093523Y-68286285D01*
X176045904Y-68381523D01*
X175950666Y-68476761D01*
X175807809Y-68524380D01*
X175569714Y-68524380D01*
X177093523Y-68524380D02*
X176522095Y-68524380D01*
X176807809Y-68524380D02*
X176807809Y-67524380D01*
X176712571Y-67667238D01*
X176617333Y-67762476D01*
X176522095Y-67810095D01*
X178045904Y-68524380D02*
X177474476Y-68524380D01*
X177760190Y-68524380D02*
X177760190Y-67524380D01*
X177664952Y-67667238D01*
X177569714Y-67762476D01*
X177474476Y-67810095D01*
X175823714Y-101798380D02*
X175823714Y-100798380D01*
X176061809Y-100798380D01*
X176204666Y-100846000D01*
X176299904Y-100941238D01*
X176347523Y-101036476D01*
X176395142Y-101226952D01*
X176395142Y-101369809D01*
X176347523Y-101560285D01*
X176299904Y-101655523D01*
X176204666Y-101750761D01*
X176061809Y-101798380D01*
X175823714Y-101798380D01*
X177347523Y-101798380D02*
X176776095Y-101798380D01*
X177061809Y-101798380D02*
X177061809Y-100798380D01*
X176966571Y-100941238D01*
X176871333Y-101036476D01*
X176776095Y-101084095D01*
X177966571Y-100798380D02*
X178061809Y-100798380D01*
X178157047Y-100846000D01*
X178204666Y-100893619D01*
X178252285Y-100988857D01*
X178299904Y-101179333D01*
X178299904Y-101417428D01*
X178252285Y-101607904D01*
X178204666Y-101703142D01*
X178157047Y-101750761D01*
X178061809Y-101798380D01*
X177966571Y-101798380D01*
X177871333Y-101750761D01*
X177823714Y-101703142D01*
X177776095Y-101607904D01*
X177728476Y-101417428D01*
X177728476Y-101179333D01*
X177776095Y-100988857D01*
X177823714Y-100893619D01*
X177871333Y-100846000D01*
X177966571Y-100798380D01*
X176299904Y-77414380D02*
X176299904Y-76414380D01*
X176538000Y-76414380D01*
X176680857Y-76462000D01*
X176776095Y-76557238D01*
X176823714Y-76652476D01*
X176871333Y-76842952D01*
X176871333Y-76985809D01*
X176823714Y-77176285D01*
X176776095Y-77271523D01*
X176680857Y-77366761D01*
X176538000Y-77414380D01*
X176299904Y-77414380D01*
X177347523Y-77414380D02*
X177538000Y-77414380D01*
X177633238Y-77366761D01*
X177680857Y-77319142D01*
X177776095Y-77176285D01*
X177823714Y-76985809D01*
X177823714Y-76604857D01*
X177776095Y-76509619D01*
X177728476Y-76462000D01*
X177633238Y-76414380D01*
X177442761Y-76414380D01*
X177347523Y-76462000D01*
X177299904Y-76509619D01*
X177252285Y-76604857D01*
X177252285Y-76842952D01*
X177299904Y-76938190D01*
X177347523Y-76985809D01*
X177442761Y-77033428D01*
X177633238Y-77033428D01*
X177728476Y-76985809D01*
X177776095Y-76938190D01*
X177823714Y-76842952D01*
X176299904Y-110434380D02*
X176299904Y-109434380D01*
X176538000Y-109434380D01*
X176680857Y-109482000D01*
X176776095Y-109577238D01*
X176823714Y-109672476D01*
X176871333Y-109862952D01*
X176871333Y-110005809D01*
X176823714Y-110196285D01*
X176776095Y-110291523D01*
X176680857Y-110386761D01*
X176538000Y-110434380D01*
X176299904Y-110434380D01*
X177442761Y-109862952D02*
X177347523Y-109815333D01*
X177299904Y-109767714D01*
X177252285Y-109672476D01*
X177252285Y-109624857D01*
X177299904Y-109529619D01*
X177347523Y-109482000D01*
X177442761Y-109434380D01*
X177633238Y-109434380D01*
X177728476Y-109482000D01*
X177776095Y-109529619D01*
X177823714Y-109624857D01*
X177823714Y-109672476D01*
X177776095Y-109767714D01*
X177728476Y-109815333D01*
X177633238Y-109862952D01*
X177442761Y-109862952D01*
X177347523Y-109910571D01*
X177299904Y-109958190D01*
X177252285Y-110053428D01*
X177252285Y-110243904D01*
X177299904Y-110339142D01*
X177347523Y-110386761D01*
X177442761Y-110434380D01*
X177633238Y-110434380D01*
X177728476Y-110386761D01*
X177776095Y-110339142D01*
X177823714Y-110243904D01*
X177823714Y-110053428D01*
X177776095Y-109958190D01*
X177728476Y-109910571D01*
X177633238Y-109862952D01*
X138707904Y-95996380D02*
X138707904Y-94996380D01*
X138946000Y-94996380D01*
X139088857Y-95044000D01*
X139184095Y-95139238D01*
X139231714Y-95234476D01*
X139279333Y-95424952D01*
X139279333Y-95567809D01*
X139231714Y-95758285D01*
X139184095Y-95853523D01*
X139088857Y-95948761D01*
X138946000Y-95996380D01*
X138707904Y-95996380D01*
X139612666Y-94996380D02*
X140231714Y-94996380D01*
X139898380Y-95377333D01*
X140041238Y-95377333D01*
X140136476Y-95424952D01*
X140184095Y-95472571D01*
X140231714Y-95567809D01*
X140231714Y-95805904D01*
X140184095Y-95901142D01*
X140136476Y-95948761D01*
X140041238Y-95996380D01*
X139755523Y-95996380D01*
X139660285Y-95948761D01*
X139612666Y-95901142D01*
X124888666Y-69048380D02*
X124888666Y-69762666D01*
X124841047Y-69905523D01*
X124745809Y-70000761D01*
X124602952Y-70048380D01*
X124507714Y-70048380D01*
X125793428Y-69048380D02*
X125602952Y-69048380D01*
X125507714Y-69096000D01*
X125460095Y-69143619D01*
X125364857Y-69286476D01*
X125317238Y-69476952D01*
X125317238Y-69857904D01*
X125364857Y-69953142D01*
X125412476Y-70000761D01*
X125507714Y-70048380D01*
X125698190Y-70048380D01*
X125793428Y-70000761D01*
X125841047Y-69953142D01*
X125888666Y-69857904D01*
X125888666Y-69619809D01*
X125841047Y-69524571D01*
X125793428Y-69476952D01*
X125698190Y-69429333D01*
X125507714Y-69429333D01*
X125412476Y-69476952D01*
X125364857Y-69524571D01*
X125317238Y-69619809D01*
X197532666Y-111974380D02*
X197532666Y-112688666D01*
X197485047Y-112831523D01*
X197389809Y-112926761D01*
X197246952Y-112974380D01*
X197151714Y-112974380D01*
X198485047Y-111974380D02*
X198008857Y-111974380D01*
X197961238Y-112450571D01*
X198008857Y-112402952D01*
X198104095Y-112355333D01*
X198342190Y-112355333D01*
X198437428Y-112402952D01*
X198485047Y-112450571D01*
X198532666Y-112545809D01*
X198532666Y-112783904D01*
X198485047Y-112879142D01*
X198437428Y-112926761D01*
X198342190Y-112974380D01*
X198104095Y-112974380D01*
X198008857Y-112926761D01*
X197961238Y-112879142D01*
X124888666Y-112228380D02*
X124888666Y-112942666D01*
X124841047Y-113085523D01*
X124745809Y-113180761D01*
X124602952Y-113228380D01*
X124507714Y-113228380D01*
X125793428Y-112561714D02*
X125793428Y-113228380D01*
X125555333Y-112180761D02*
X125317238Y-112895047D01*
X125936285Y-112895047D01*
X197532666Y-69302380D02*
X197532666Y-70016666D01*
X197485047Y-70159523D01*
X197389809Y-70254761D01*
X197246952Y-70302380D01*
X197151714Y-70302380D01*
X197913619Y-69302380D02*
X198532666Y-69302380D01*
X198199333Y-69683333D01*
X198342190Y-69683333D01*
X198437428Y-69730952D01*
X198485047Y-69778571D01*
X198532666Y-69873809D01*
X198532666Y-70111904D01*
X198485047Y-70207142D01*
X198437428Y-70254761D01*
X198342190Y-70302380D01*
X198056476Y-70302380D01*
X197961238Y-70254761D01*
X197913619Y-70207142D01*
X187142380Y-79128857D02*
X186666190Y-79462190D01*
X187142380Y-79700285D02*
X186142380Y-79700285D01*
X186142380Y-79319333D01*
X186190000Y-79224095D01*
X186237619Y-79176476D01*
X186332857Y-79128857D01*
X186475714Y-79128857D01*
X186570952Y-79176476D01*
X186618571Y-79224095D01*
X186666190Y-79319333D01*
X186666190Y-79700285D01*
X187142380Y-78176476D02*
X187142380Y-78747904D01*
X187142380Y-78462190D02*
X186142380Y-78462190D01*
X186285238Y-78557428D01*
X186380476Y-78652666D01*
X186428095Y-78747904D01*
X186142380Y-77843142D02*
X186142380Y-77176476D01*
X187142380Y-77605047D01*
X187396380Y-110370857D02*
X186920190Y-110704190D01*
X187396380Y-110942285D02*
X186396380Y-110942285D01*
X186396380Y-110561333D01*
X186444000Y-110466095D01*
X186491619Y-110418476D01*
X186586857Y-110370857D01*
X186729714Y-110370857D01*
X186824952Y-110418476D01*
X186872571Y-110466095D01*
X186920190Y-110561333D01*
X186920190Y-110942285D01*
X187396380Y-109418476D02*
X187396380Y-109989904D01*
X187396380Y-109704190D02*
X186396380Y-109704190D01*
X186539238Y-109799428D01*
X186634476Y-109894666D01*
X186682095Y-109989904D01*
X186396380Y-108561333D02*
X186396380Y-108751809D01*
X186444000Y-108847047D01*
X186491619Y-108894666D01*
X186634476Y-108989904D01*
X186824952Y-109037523D01*
X187205904Y-109037523D01*
X187301142Y-108989904D01*
X187348761Y-108942285D01*
X187396380Y-108847047D01*
X187396380Y-108656571D01*
X187348761Y-108561333D01*
X187301142Y-108513714D01*
X187205904Y-108466095D01*
X186967809Y-108466095D01*
X186872571Y-108513714D01*
X186824952Y-108561333D01*
X186777333Y-108656571D01*
X186777333Y-108847047D01*
X186824952Y-108942285D01*
X186872571Y-108989904D01*
X186967809Y-109037523D01*
X148823904Y-102052380D02*
X148823904Y-101052380D01*
X149062000Y-101052380D01*
X149204857Y-101100000D01*
X149300095Y-101195238D01*
X149347714Y-101290476D01*
X149395333Y-101480952D01*
X149395333Y-101623809D01*
X149347714Y-101814285D01*
X149300095Y-101909523D01*
X149204857Y-102004761D01*
X149062000Y-102052380D01*
X148823904Y-102052380D01*
X149728666Y-101052380D02*
X150395333Y-101052380D01*
X149966761Y-102052380D01*
X125866904Y-100876380D02*
X125866904Y-99876380D01*
X126105000Y-99876380D01*
X126247857Y-99924000D01*
X126343095Y-100019238D01*
X126390714Y-100114476D01*
X126438333Y-100304952D01*
X126438333Y-100447809D01*
X126390714Y-100638285D01*
X126343095Y-100733523D01*
X126247857Y-100828761D01*
X126105000Y-100876380D01*
X125866904Y-100876380D01*
X127295476Y-99876380D02*
X127105000Y-99876380D01*
X127009761Y-99924000D01*
X126962142Y-99971619D01*
X126866904Y-100114476D01*
X126819285Y-100304952D01*
X126819285Y-100685904D01*
X126866904Y-100781142D01*
X126914523Y-100828761D01*
X127009761Y-100876380D01*
X127200238Y-100876380D01*
X127295476Y-100828761D01*
X127343095Y-100781142D01*
X127390714Y-100685904D01*
X127390714Y-100447809D01*
X127343095Y-100352571D01*
X127295476Y-100304952D01*
X127200238Y-100257333D01*
X127009761Y-100257333D01*
X126914523Y-100304952D01*
X126866904Y-100352571D01*
X126819285Y-100447809D01*
X125866904Y-97828380D02*
X125866904Y-96828380D01*
X126105000Y-96828380D01*
X126247857Y-96876000D01*
X126343095Y-96971238D01*
X126390714Y-97066476D01*
X126438333Y-97256952D01*
X126438333Y-97399809D01*
X126390714Y-97590285D01*
X126343095Y-97685523D01*
X126247857Y-97780761D01*
X126105000Y-97828380D01*
X125866904Y-97828380D01*
X127343095Y-96828380D02*
X126866904Y-96828380D01*
X126819285Y-97304571D01*
X126866904Y-97256952D01*
X126962142Y-97209333D01*
X127200238Y-97209333D01*
X127295476Y-97256952D01*
X127343095Y-97304571D01*
X127390714Y-97399809D01*
X127390714Y-97637904D01*
X127343095Y-97733142D01*
X127295476Y-97780761D01*
X127200238Y-97828380D01*
X126962142Y-97828380D01*
X126866904Y-97780761D01*
X126819285Y-97733142D01*
X196786571Y-74969619D02*
X196691333Y-74922000D01*
X196596095Y-74826761D01*
X196453238Y-74683904D01*
X196358000Y-74636285D01*
X196262761Y-74636285D01*
X196310380Y-74874380D02*
X196215142Y-74826761D01*
X196119904Y-74731523D01*
X196072285Y-74541047D01*
X196072285Y-74207714D01*
X196119904Y-74017238D01*
X196215142Y-73922000D01*
X196310380Y-73874380D01*
X196500857Y-73874380D01*
X196596095Y-73922000D01*
X196691333Y-74017238D01*
X196738952Y-74207714D01*
X196738952Y-74541047D01*
X196691333Y-74731523D01*
X196596095Y-74826761D01*
X196500857Y-74874380D01*
X196310380Y-74874380D01*
X197691333Y-74874380D02*
X197119904Y-74874380D01*
X197405619Y-74874380D02*
X197405619Y-73874380D01*
X197310380Y-74017238D01*
X197215142Y-74112476D01*
X197119904Y-74160095D01*
X198548476Y-73874380D02*
X198358000Y-73874380D01*
X198262761Y-73922000D01*
X198215142Y-73969619D01*
X198119904Y-74112476D01*
X198072285Y-74302952D01*
X198072285Y-74683904D01*
X198119904Y-74779142D01*
X198167523Y-74826761D01*
X198262761Y-74874380D01*
X198453238Y-74874380D01*
X198548476Y-74826761D01*
X198596095Y-74779142D01*
X198643714Y-74683904D01*
X198643714Y-74445809D01*
X198596095Y-74350571D01*
X198548476Y-74302952D01*
X198453238Y-74255333D01*
X198262761Y-74255333D01*
X198167523Y-74302952D01*
X198119904Y-74350571D01*
X198072285Y-74445809D01*
X197142571Y-91733619D02*
X197047333Y-91686000D01*
X196952095Y-91590761D01*
X196809238Y-91447904D01*
X196714000Y-91400285D01*
X196618761Y-91400285D01*
X196666380Y-91638380D02*
X196571142Y-91590761D01*
X196475904Y-91495523D01*
X196428285Y-91305047D01*
X196428285Y-90971714D01*
X196475904Y-90781238D01*
X196571142Y-90686000D01*
X196666380Y-90638380D01*
X196856857Y-90638380D01*
X196952095Y-90686000D01*
X197047333Y-90781238D01*
X197094952Y-90971714D01*
X197094952Y-91305047D01*
X197047333Y-91495523D01*
X196952095Y-91590761D01*
X196856857Y-91638380D01*
X196666380Y-91638380D01*
X198047333Y-91638380D02*
X197475904Y-91638380D01*
X197761619Y-91638380D02*
X197761619Y-90638380D01*
X197666380Y-90781238D01*
X197571142Y-90876476D01*
X197475904Y-90924095D01*
X198904476Y-90971714D02*
X198904476Y-91638380D01*
X198666380Y-90590761D02*
X198428285Y-91305047D01*
X199047333Y-91305047D01*
X197262761Y-83351619D02*
X197167523Y-83304000D01*
X197072285Y-83208761D01*
X196929428Y-83065904D01*
X196834190Y-83018285D01*
X196738952Y-83018285D01*
X196786571Y-83256380D02*
X196691333Y-83208761D01*
X196596095Y-83113523D01*
X196548476Y-82923047D01*
X196548476Y-82589714D01*
X196596095Y-82399238D01*
X196691333Y-82304000D01*
X196786571Y-82256380D01*
X196977047Y-82256380D01*
X197072285Y-82304000D01*
X197167523Y-82399238D01*
X197215142Y-82589714D01*
X197215142Y-82923047D01*
X197167523Y-83113523D01*
X197072285Y-83208761D01*
X196977047Y-83256380D01*
X196786571Y-83256380D01*
X197786571Y-82684952D02*
X197691333Y-82637333D01*
X197643714Y-82589714D01*
X197596095Y-82494476D01*
X197596095Y-82446857D01*
X197643714Y-82351619D01*
X197691333Y-82304000D01*
X197786571Y-82256380D01*
X197977047Y-82256380D01*
X198072285Y-82304000D01*
X198119904Y-82351619D01*
X198167523Y-82446857D01*
X198167523Y-82494476D01*
X198119904Y-82589714D01*
X198072285Y-82637333D01*
X197977047Y-82684952D01*
X197786571Y-82684952D01*
X197691333Y-82732571D01*
X197643714Y-82780190D01*
X197596095Y-82875428D01*
X197596095Y-83065904D01*
X197643714Y-83161142D01*
X197691333Y-83208761D01*
X197786571Y-83256380D01*
X197977047Y-83256380D01*
X198072285Y-83208761D01*
X198119904Y-83161142D01*
X198167523Y-83065904D01*
X198167523Y-82875428D01*
X198119904Y-82780190D01*
X198072285Y-82732571D01*
X197977047Y-82684952D01*
X197414761Y-100369619D02*
X197319523Y-100322000D01*
X197224285Y-100226761D01*
X197081428Y-100083904D01*
X196986190Y-100036285D01*
X196890952Y-100036285D01*
X196938571Y-100274380D02*
X196843333Y-100226761D01*
X196748095Y-100131523D01*
X196700476Y-99941047D01*
X196700476Y-99607714D01*
X196748095Y-99417238D01*
X196843333Y-99322000D01*
X196938571Y-99274380D01*
X197129047Y-99274380D01*
X197224285Y-99322000D01*
X197319523Y-99417238D01*
X197367142Y-99607714D01*
X197367142Y-99941047D01*
X197319523Y-100131523D01*
X197224285Y-100226761D01*
X197129047Y-100274380D01*
X196938571Y-100274380D01*
X197700476Y-99274380D02*
X198367142Y-99274380D01*
X197938571Y-100274380D01*
X149104380Y-81881404D02*
X149913904Y-81881404D01*
X150009142Y-81833785D01*
X150056761Y-81786166D01*
X150104380Y-81690928D01*
X150104380Y-81500452D01*
X150056761Y-81405214D01*
X150009142Y-81357595D01*
X149913904Y-81309976D01*
X149104380Y-81309976D01*
X149104380Y-80357595D02*
X149104380Y-80833785D01*
X149580571Y-80881404D01*
X149532952Y-80833785D01*
X149485333Y-80738547D01*
X149485333Y-80500452D01*
X149532952Y-80405214D01*
X149580571Y-80357595D01*
X149675809Y-80309976D01*
X149913904Y-80309976D01*
X150009142Y-80357595D01*
X150056761Y-80405214D01*
X150104380Y-80500452D01*
X150104380Y-80738547D01*
X150056761Y-80833785D01*
X150009142Y-80881404D01*
X135614142Y-83858380D02*
X135280809Y-83382190D01*
X135042714Y-83858380D02*
X135042714Y-82858380D01*
X135423666Y-82858380D01*
X135518904Y-82906000D01*
X135566523Y-82953619D01*
X135614142Y-83048857D01*
X135614142Y-83191714D01*
X135566523Y-83286952D01*
X135518904Y-83334571D01*
X135423666Y-83382190D01*
X135042714Y-83382190D01*
X135995095Y-82953619D02*
X136042714Y-82906000D01*
X136137952Y-82858380D01*
X136376047Y-82858380D01*
X136471285Y-82906000D01*
X136518904Y-82953619D01*
X136566523Y-83048857D01*
X136566523Y-83144095D01*
X136518904Y-83286952D01*
X135947476Y-83858380D01*
X136566523Y-83858380D01*
X137423666Y-83191714D02*
X137423666Y-83858380D01*
X137185571Y-82810761D02*
X136947476Y-83525047D01*
X137566523Y-83525047D01*
X135642142Y-89954380D02*
X135308809Y-89478190D01*
X135070714Y-89954380D02*
X135070714Y-88954380D01*
X135451666Y-88954380D01*
X135546904Y-89002000D01*
X135594523Y-89049619D01*
X135642142Y-89144857D01*
X135642142Y-89287714D01*
X135594523Y-89382952D01*
X135546904Y-89430571D01*
X135451666Y-89478190D01*
X135070714Y-89478190D01*
X136023095Y-89049619D02*
X136070714Y-89002000D01*
X136165952Y-88954380D01*
X136404047Y-88954380D01*
X136499285Y-89002000D01*
X136546904Y-89049619D01*
X136594523Y-89144857D01*
X136594523Y-89240095D01*
X136546904Y-89382952D01*
X135975476Y-89954380D01*
X136594523Y-89954380D01*
X136975476Y-89049619D02*
X137023095Y-89002000D01*
X137118333Y-88954380D01*
X137356428Y-88954380D01*
X137451666Y-89002000D01*
X137499285Y-89049619D01*
X137546904Y-89144857D01*
X137546904Y-89240095D01*
X137499285Y-89382952D01*
X136927857Y-89954380D01*
X137546904Y-89954380D01*
X176314380Y-81019857D02*
X175838190Y-81353190D01*
X176314380Y-81591285D02*
X175314380Y-81591285D01*
X175314380Y-81210333D01*
X175362000Y-81115095D01*
X175409619Y-81067476D01*
X175504857Y-81019857D01*
X175647714Y-81019857D01*
X175742952Y-81067476D01*
X175790571Y-81115095D01*
X175838190Y-81210333D01*
X175838190Y-81591285D01*
X176314380Y-80067476D02*
X176314380Y-80638904D01*
X176314380Y-80353190D02*
X175314380Y-80353190D01*
X175457238Y-80448428D01*
X175552476Y-80543666D01*
X175600095Y-80638904D01*
X175314380Y-79162714D02*
X175314380Y-79638904D01*
X175790571Y-79686523D01*
X175742952Y-79638904D01*
X175695333Y-79543666D01*
X175695333Y-79305571D01*
X175742952Y-79210333D01*
X175790571Y-79162714D01*
X175885809Y-79115095D01*
X176123904Y-79115095D01*
X176219142Y-79162714D01*
X176266761Y-79210333D01*
X176314380Y-79305571D01*
X176314380Y-79543666D01*
X176266761Y-79638904D01*
X176219142Y-79686523D01*
X177838380Y-115055857D02*
X177362190Y-115389190D01*
X177838380Y-115627285D02*
X176838380Y-115627285D01*
X176838380Y-115246333D01*
X176886000Y-115151095D01*
X176933619Y-115103476D01*
X177028857Y-115055857D01*
X177171714Y-115055857D01*
X177266952Y-115103476D01*
X177314571Y-115151095D01*
X177362190Y-115246333D01*
X177362190Y-115627285D01*
X177838380Y-114103476D02*
X177838380Y-114674904D01*
X177838380Y-114389190D02*
X176838380Y-114389190D01*
X176981238Y-114484428D01*
X177076476Y-114579666D01*
X177124095Y-114674904D01*
X177171714Y-113246333D02*
X177838380Y-113246333D01*
X176790761Y-113484428D02*
X177505047Y-113722523D01*
X177505047Y-113103476D01*
X146342380Y-84321857D02*
X145866190Y-84655190D01*
X146342380Y-84893285D02*
X145342380Y-84893285D01*
X145342380Y-84512333D01*
X145390000Y-84417095D01*
X145437619Y-84369476D01*
X145532857Y-84321857D01*
X145675714Y-84321857D01*
X145770952Y-84369476D01*
X145818571Y-84417095D01*
X145866190Y-84512333D01*
X145866190Y-84893285D01*
X146342380Y-83369476D02*
X146342380Y-83940904D01*
X146342380Y-83655190D02*
X145342380Y-83655190D01*
X145485238Y-83750428D01*
X145580476Y-83845666D01*
X145628095Y-83940904D01*
X145342380Y-83036142D02*
X145342380Y-82417095D01*
X145723333Y-82750428D01*
X145723333Y-82607571D01*
X145770952Y-82512333D01*
X145818571Y-82464714D01*
X145913809Y-82417095D01*
X146151904Y-82417095D01*
X146247142Y-82464714D01*
X146294761Y-82512333D01*
X146342380Y-82607571D01*
X146342380Y-82893285D01*
X146294761Y-82988523D01*
X146247142Y-83036142D01*
X146596380Y-93973857D02*
X146120190Y-94307190D01*
X146596380Y-94545285D02*
X145596380Y-94545285D01*
X145596380Y-94164333D01*
X145644000Y-94069095D01*
X145691619Y-94021476D01*
X145786857Y-93973857D01*
X145929714Y-93973857D01*
X146024952Y-94021476D01*
X146072571Y-94069095D01*
X146120190Y-94164333D01*
X146120190Y-94545285D01*
X146596380Y-93021476D02*
X146596380Y-93592904D01*
X146596380Y-93307190D02*
X145596380Y-93307190D01*
X145739238Y-93402428D01*
X145834476Y-93497666D01*
X145882095Y-93592904D01*
X145691619Y-92640523D02*
X145644000Y-92592904D01*
X145596380Y-92497666D01*
X145596380Y-92259571D01*
X145644000Y-92164333D01*
X145691619Y-92116714D01*
X145786857Y-92069095D01*
X145882095Y-92069095D01*
X146024952Y-92116714D01*
X146596380Y-92688142D01*
X146596380Y-92069095D01*
X135642142Y-86906380D02*
X135308809Y-86430190D01*
X135070714Y-86906380D02*
X135070714Y-85906380D01*
X135451666Y-85906380D01*
X135546904Y-85954000D01*
X135594523Y-86001619D01*
X135642142Y-86096857D01*
X135642142Y-86239714D01*
X135594523Y-86334952D01*
X135546904Y-86382571D01*
X135451666Y-86430190D01*
X135070714Y-86430190D01*
X136594523Y-86906380D02*
X136023095Y-86906380D01*
X136308809Y-86906380D02*
X136308809Y-85906380D01*
X136213571Y-86049238D01*
X136118333Y-86144476D01*
X136023095Y-86192095D01*
X137546904Y-86906380D02*
X136975476Y-86906380D01*
X137261190Y-86906380D02*
X137261190Y-85906380D01*
X137165952Y-86049238D01*
X137070714Y-86144476D01*
X136975476Y-86192095D01*
X135642142Y-93256380D02*
X135308809Y-92780190D01*
X135070714Y-93256380D02*
X135070714Y-92256380D01*
X135451666Y-92256380D01*
X135546904Y-92304000D01*
X135594523Y-92351619D01*
X135642142Y-92446857D01*
X135642142Y-92589714D01*
X135594523Y-92684952D01*
X135546904Y-92732571D01*
X135451666Y-92780190D01*
X135070714Y-92780190D01*
X136594523Y-93256380D02*
X136023095Y-93256380D01*
X136308809Y-93256380D02*
X136308809Y-92256380D01*
X136213571Y-92399238D01*
X136118333Y-92494476D01*
X136023095Y-92542095D01*
X137213571Y-92256380D02*
X137308809Y-92256380D01*
X137404047Y-92304000D01*
X137451666Y-92351619D01*
X137499285Y-92446857D01*
X137546904Y-92637333D01*
X137546904Y-92875428D01*
X137499285Y-93065904D01*
X137451666Y-93161142D01*
X137404047Y-93208761D01*
X137308809Y-93256380D01*
X137213571Y-93256380D01*
X137118333Y-93208761D01*
X137070714Y-93161142D01*
X137023095Y-93065904D01*
X136975476Y-92875428D01*
X136975476Y-92637333D01*
X137023095Y-92446857D01*
X137070714Y-92351619D01*
X137118333Y-92304000D01*
X137213571Y-92256380D01*
X127452380Y-80906857D02*
X126976190Y-81240190D01*
X127452380Y-81478285D02*
X126452380Y-81478285D01*
X126452380Y-81097333D01*
X126500000Y-81002095D01*
X126547619Y-80954476D01*
X126642857Y-80906857D01*
X126785714Y-80906857D01*
X126880952Y-80954476D01*
X126928571Y-81002095D01*
X126976190Y-81097333D01*
X126976190Y-81478285D01*
X126547619Y-80525904D02*
X126500000Y-80478285D01*
X126452380Y-80383047D01*
X126452380Y-80144952D01*
X126500000Y-80049714D01*
X126547619Y-80002095D01*
X126642857Y-79954476D01*
X126738095Y-79954476D01*
X126880952Y-80002095D01*
X127452380Y-80573523D01*
X127452380Y-79954476D01*
X127452380Y-79002095D02*
X127452380Y-79573523D01*
X127452380Y-79287809D02*
X126452380Y-79287809D01*
X126595238Y-79383047D01*
X126690476Y-79478285D01*
X126738095Y-79573523D01*
X124502380Y-90955857D02*
X124026190Y-91289190D01*
X124502380Y-91527285D02*
X123502380Y-91527285D01*
X123502380Y-91146333D01*
X123550000Y-91051095D01*
X123597619Y-91003476D01*
X123692857Y-90955857D01*
X123835714Y-90955857D01*
X123930952Y-91003476D01*
X123978571Y-91051095D01*
X124026190Y-91146333D01*
X124026190Y-91527285D01*
X123597619Y-90574904D02*
X123550000Y-90527285D01*
X123502380Y-90432047D01*
X123502380Y-90193952D01*
X123550000Y-90098714D01*
X123597619Y-90051095D01*
X123692857Y-90003476D01*
X123788095Y-90003476D01*
X123930952Y-90051095D01*
X124502380Y-90622523D01*
X124502380Y-90003476D01*
X123502380Y-89384428D02*
X123502380Y-89289190D01*
X123550000Y-89193952D01*
X123597619Y-89146333D01*
X123692857Y-89098714D01*
X123883333Y-89051095D01*
X124121428Y-89051095D01*
X124311904Y-89098714D01*
X124407142Y-89146333D01*
X124454761Y-89193952D01*
X124502380Y-89289190D01*
X124502380Y-89384428D01*
X124454761Y-89479666D01*
X124407142Y-89527285D01*
X124311904Y-89574904D01*
X124121428Y-89622523D01*
X123883333Y-89622523D01*
X123692857Y-89574904D01*
X123597619Y-89527285D01*
X123550000Y-89479666D01*
X123502380Y-89384428D01*
X124502380Y-85419666D02*
X124026190Y-85753000D01*
X124502380Y-85991095D02*
X123502380Y-85991095D01*
X123502380Y-85610142D01*
X123550000Y-85514904D01*
X123597619Y-85467285D01*
X123692857Y-85419666D01*
X123835714Y-85419666D01*
X123930952Y-85467285D01*
X123978571Y-85514904D01*
X124026190Y-85610142D01*
X124026190Y-85991095D01*
X124502380Y-84943476D02*
X124502380Y-84753000D01*
X124454761Y-84657761D01*
X124407142Y-84610142D01*
X124264285Y-84514904D01*
X124073809Y-84467285D01*
X123692857Y-84467285D01*
X123597619Y-84514904D01*
X123550000Y-84562523D01*
X123502380Y-84657761D01*
X123502380Y-84848238D01*
X123550000Y-84943476D01*
X123597619Y-84991095D01*
X123692857Y-85038714D01*
X123930952Y-85038714D01*
X124026190Y-84991095D01*
X124073809Y-84943476D01*
X124121428Y-84848238D01*
X124121428Y-84657761D01*
X124073809Y-84562523D01*
X124026190Y-84514904D01*
X123930952Y-84467285D01*
X124498380Y-95303666D02*
X124022190Y-95637000D01*
X124498380Y-95875095D02*
X123498380Y-95875095D01*
X123498380Y-95494142D01*
X123546000Y-95398904D01*
X123593619Y-95351285D01*
X123688857Y-95303666D01*
X123831714Y-95303666D01*
X123926952Y-95351285D01*
X123974571Y-95398904D01*
X124022190Y-95494142D01*
X124022190Y-95875095D01*
X123926952Y-94732238D02*
X123879333Y-94827476D01*
X123831714Y-94875095D01*
X123736476Y-94922714D01*
X123688857Y-94922714D01*
X123593619Y-94875095D01*
X123546000Y-94827476D01*
X123498380Y-94732238D01*
X123498380Y-94541761D01*
X123546000Y-94446523D01*
X123593619Y-94398904D01*
X123688857Y-94351285D01*
X123736476Y-94351285D01*
X123831714Y-94398904D01*
X123879333Y-94446523D01*
X123926952Y-94541761D01*
X123926952Y-94732238D01*
X123974571Y-94827476D01*
X124022190Y-94875095D01*
X124117428Y-94922714D01*
X124307904Y-94922714D01*
X124403142Y-94875095D01*
X124450761Y-94827476D01*
X124498380Y-94732238D01*
X124498380Y-94541761D01*
X124450761Y-94446523D01*
X124403142Y-94398904D01*
X124307904Y-94351285D01*
X124117428Y-94351285D01*
X124022190Y-94398904D01*
X123974571Y-94446523D01*
X123926952Y-94541761D01*
X185967619Y-73149428D02*
X185920000Y-73244666D01*
X185824761Y-73339904D01*
X185681904Y-73482761D01*
X185634285Y-73578000D01*
X185634285Y-73673238D01*
X185872380Y-73625619D02*
X185824761Y-73720857D01*
X185729523Y-73816095D01*
X185539047Y-73863714D01*
X185205714Y-73863714D01*
X185015238Y-73816095D01*
X184920000Y-73720857D01*
X184872380Y-73625619D01*
X184872380Y-73435142D01*
X184920000Y-73339904D01*
X185015238Y-73244666D01*
X185205714Y-73197047D01*
X185539047Y-73197047D01*
X185729523Y-73244666D01*
X185824761Y-73339904D01*
X185872380Y-73435142D01*
X185872380Y-73625619D01*
X185872380Y-72244666D02*
X185872380Y-72816095D01*
X185872380Y-72530380D02*
X184872380Y-72530380D01*
X185015238Y-72625619D01*
X185110476Y-72720857D01*
X185158095Y-72816095D01*
X184872380Y-71339904D02*
X184872380Y-71816095D01*
X185348571Y-71863714D01*
X185300952Y-71816095D01*
X185253333Y-71720857D01*
X185253333Y-71482761D01*
X185300952Y-71387523D01*
X185348571Y-71339904D01*
X185443809Y-71292285D01*
X185681904Y-71292285D01*
X185777142Y-71339904D01*
X185824761Y-71387523D01*
X185872380Y-71482761D01*
X185872380Y-71720857D01*
X185824761Y-71816095D01*
X185777142Y-71863714D01*
X186475619Y-81441238D02*
X186428000Y-81536476D01*
X186332761Y-81631714D01*
X186189904Y-81774571D01*
X186142285Y-81869809D01*
X186142285Y-81965047D01*
X186380380Y-81917428D02*
X186332761Y-82012666D01*
X186237523Y-82107904D01*
X186047047Y-82155523D01*
X185713714Y-82155523D01*
X185523238Y-82107904D01*
X185428000Y-82012666D01*
X185380380Y-81917428D01*
X185380380Y-81726952D01*
X185428000Y-81631714D01*
X185523238Y-81536476D01*
X185713714Y-81488857D01*
X186047047Y-81488857D01*
X186237523Y-81536476D01*
X186332761Y-81631714D01*
X186380380Y-81726952D01*
X186380380Y-81917428D01*
X185380380Y-80631714D02*
X185380380Y-80822190D01*
X185428000Y-80917428D01*
X185475619Y-80965047D01*
X185618476Y-81060285D01*
X185808952Y-81107904D01*
X186189904Y-81107904D01*
X186285142Y-81060285D01*
X186332761Y-81012666D01*
X186380380Y-80917428D01*
X186380380Y-80726952D01*
X186332761Y-80631714D01*
X186285142Y-80584095D01*
X186189904Y-80536476D01*
X185951809Y-80536476D01*
X185856571Y-80584095D01*
X185808952Y-80631714D01*
X185761333Y-80726952D01*
X185761333Y-80917428D01*
X185808952Y-81012666D01*
X185856571Y-81060285D01*
X185951809Y-81107904D01*
X182665619Y-112871238D02*
X182618000Y-112966476D01*
X182522761Y-113061714D01*
X182379904Y-113204571D01*
X182332285Y-113299809D01*
X182332285Y-113395047D01*
X182570380Y-113347428D02*
X182522761Y-113442666D01*
X182427523Y-113537904D01*
X182237047Y-113585523D01*
X181903714Y-113585523D01*
X181713238Y-113537904D01*
X181618000Y-113442666D01*
X181570380Y-113347428D01*
X181570380Y-113156952D01*
X181618000Y-113061714D01*
X181713238Y-112966476D01*
X181903714Y-112918857D01*
X182237047Y-112918857D01*
X182427523Y-112966476D01*
X182522761Y-113061714D01*
X182570380Y-113156952D01*
X182570380Y-113347428D01*
X181570380Y-112014095D02*
X181570380Y-112490285D01*
X182046571Y-112537904D01*
X181998952Y-112490285D01*
X181951333Y-112395047D01*
X181951333Y-112156952D01*
X181998952Y-112061714D01*
X182046571Y-112014095D01*
X182141809Y-111966476D01*
X182379904Y-111966476D01*
X182475142Y-112014095D01*
X182522761Y-112061714D01*
X182570380Y-112156952D01*
X182570380Y-112395047D01*
X182522761Y-112490285D01*
X182475142Y-112537904D01*
X142374761Y-91519619D02*
X142279523Y-91472000D01*
X142184285Y-91376761D01*
X142041428Y-91233904D01*
X141946190Y-91186285D01*
X141850952Y-91186285D01*
X141898571Y-91424380D02*
X141803333Y-91376761D01*
X141708095Y-91281523D01*
X141660476Y-91091047D01*
X141660476Y-90757714D01*
X141708095Y-90567238D01*
X141803333Y-90472000D01*
X141898571Y-90424380D01*
X142089047Y-90424380D01*
X142184285Y-90472000D01*
X142279523Y-90567238D01*
X142327142Y-90757714D01*
X142327142Y-91091047D01*
X142279523Y-91281523D01*
X142184285Y-91376761D01*
X142089047Y-91424380D01*
X141898571Y-91424380D01*
X142660476Y-90424380D02*
X143279523Y-90424380D01*
X142946190Y-90805333D01*
X143089047Y-90805333D01*
X143184285Y-90852952D01*
X143231904Y-90900571D01*
X143279523Y-90995809D01*
X143279523Y-91233904D01*
X143231904Y-91329142D01*
X143184285Y-91376761D01*
X143089047Y-91424380D01*
X142803333Y-91424380D01*
X142708095Y-91376761D01*
X142660476Y-91329142D01*
X130708571Y-78539619D02*
X130613333Y-78492000D01*
X130518095Y-78396761D01*
X130375238Y-78253904D01*
X130280000Y-78206285D01*
X130184761Y-78206285D01*
X130232380Y-78444380D02*
X130137142Y-78396761D01*
X130041904Y-78301523D01*
X129994285Y-78111047D01*
X129994285Y-77777714D01*
X130041904Y-77587238D01*
X130137142Y-77492000D01*
X130232380Y-77444380D01*
X130422857Y-77444380D01*
X130518095Y-77492000D01*
X130613333Y-77587238D01*
X130660952Y-77777714D01*
X130660952Y-78111047D01*
X130613333Y-78301523D01*
X130518095Y-78396761D01*
X130422857Y-78444380D01*
X130232380Y-78444380D01*
X131613333Y-78444380D02*
X131041904Y-78444380D01*
X131327619Y-78444380D02*
X131327619Y-77444380D01*
X131232380Y-77587238D01*
X131137142Y-77682476D01*
X131041904Y-77730095D01*
X132232380Y-77444380D02*
X132327619Y-77444380D01*
X132422857Y-77492000D01*
X132470476Y-77539619D01*
X132518095Y-77634857D01*
X132565714Y-77825333D01*
X132565714Y-78063428D01*
X132518095Y-78253904D01*
X132470476Y-78349142D01*
X132422857Y-78396761D01*
X132327619Y-78444380D01*
X132232380Y-78444380D01*
X132137142Y-78396761D01*
X132089523Y-78349142D01*
X132041904Y-78253904D01*
X131994285Y-78063428D01*
X131994285Y-77825333D01*
X132041904Y-77634857D01*
X132089523Y-77539619D01*
X132137142Y-77492000D01*
X132232380Y-77444380D01*
X130992761Y-88283619D02*
X130897523Y-88236000D01*
X130802285Y-88140761D01*
X130659428Y-87997904D01*
X130564190Y-87950285D01*
X130468952Y-87950285D01*
X130516571Y-88188380D02*
X130421333Y-88140761D01*
X130326095Y-88045523D01*
X130278476Y-87855047D01*
X130278476Y-87521714D01*
X130326095Y-87331238D01*
X130421333Y-87236000D01*
X130516571Y-87188380D01*
X130707047Y-87188380D01*
X130802285Y-87236000D01*
X130897523Y-87331238D01*
X130945142Y-87521714D01*
X130945142Y-87855047D01*
X130897523Y-88045523D01*
X130802285Y-88140761D01*
X130707047Y-88188380D01*
X130516571Y-88188380D01*
X131421333Y-88188380D02*
X131611809Y-88188380D01*
X131707047Y-88140761D01*
X131754666Y-88093142D01*
X131849904Y-87950285D01*
X131897523Y-87759809D01*
X131897523Y-87378857D01*
X131849904Y-87283619D01*
X131802285Y-87236000D01*
X131707047Y-87188380D01*
X131516571Y-87188380D01*
X131421333Y-87236000D01*
X131373714Y-87283619D01*
X131326095Y-87378857D01*
X131326095Y-87616952D01*
X131373714Y-87712190D01*
X131421333Y-87759809D01*
X131516571Y-87807428D01*
X131707047Y-87807428D01*
X131802285Y-87759809D01*
X131849904Y-87712190D01*
X131897523Y-87616952D01*
X131164761Y-83385619D02*
X131069523Y-83338000D01*
X130974285Y-83242761D01*
X130831428Y-83099904D01*
X130736190Y-83052285D01*
X130640952Y-83052285D01*
X130688571Y-83290380D02*
X130593333Y-83242761D01*
X130498095Y-83147523D01*
X130450476Y-82957047D01*
X130450476Y-82623714D01*
X130498095Y-82433238D01*
X130593333Y-82338000D01*
X130688571Y-82290380D01*
X130879047Y-82290380D01*
X130974285Y-82338000D01*
X131069523Y-82433238D01*
X131117142Y-82623714D01*
X131117142Y-82957047D01*
X131069523Y-83147523D01*
X130974285Y-83242761D01*
X130879047Y-83290380D01*
X130688571Y-83290380D01*
X131498095Y-82385619D02*
X131545714Y-82338000D01*
X131640952Y-82290380D01*
X131879047Y-82290380D01*
X131974285Y-82338000D01*
X132021904Y-82385619D01*
X132069523Y-82480857D01*
X132069523Y-82576095D01*
X132021904Y-82718952D01*
X131450476Y-83290380D01*
X132069523Y-83290380D01*
X130992761Y-93043619D02*
X130897523Y-92996000D01*
X130802285Y-92900761D01*
X130659428Y-92757904D01*
X130564190Y-92710285D01*
X130468952Y-92710285D01*
X130516571Y-92948380D02*
X130421333Y-92900761D01*
X130326095Y-92805523D01*
X130278476Y-92615047D01*
X130278476Y-92281714D01*
X130326095Y-92091238D01*
X130421333Y-91996000D01*
X130516571Y-91948380D01*
X130707047Y-91948380D01*
X130802285Y-91996000D01*
X130897523Y-92091238D01*
X130945142Y-92281714D01*
X130945142Y-92615047D01*
X130897523Y-92805523D01*
X130802285Y-92900761D01*
X130707047Y-92948380D01*
X130516571Y-92948380D01*
X131897523Y-92948380D02*
X131326095Y-92948380D01*
X131611809Y-92948380D02*
X131611809Y-91948380D01*
X131516571Y-92091238D01*
X131421333Y-92186476D01*
X131326095Y-92234095D01*
X201270380Y-91671333D02*
X201984666Y-91671333D01*
X202127523Y-91718952D01*
X202222761Y-91814190D01*
X202270380Y-91957047D01*
X202270380Y-92052285D01*
X201365619Y-91242761D02*
X201318000Y-91195142D01*
X201270380Y-91099904D01*
X201270380Y-90861809D01*
X201318000Y-90766571D01*
X201365619Y-90718952D01*
X201460857Y-90671333D01*
X201556095Y-90671333D01*
X201698952Y-90718952D01*
X202270380Y-91290380D01*
X202270380Y-90671333D01*
X110222380Y-91549333D02*
X110936666Y-91549333D01*
X111079523Y-91596952D01*
X111174761Y-91692190D01*
X111222380Y-91835047D01*
X111222380Y-91930285D01*
X111222380Y-90549333D02*
X111222380Y-91120761D01*
X111222380Y-90835047D02*
X110222380Y-90835047D01*
X110365238Y-90930285D01*
X110460476Y-91025523D01*
X110508095Y-91120761D01*
X138252666Y-108296571D02*
X137919333Y-108296571D01*
X137919333Y-108820380D02*
X137919333Y-107820380D01*
X138395523Y-107820380D01*
X139300285Y-108820380D02*
X138728857Y-108820380D01*
X139014571Y-108820380D02*
X139014571Y-107820380D01*
X138919333Y-107963238D01*
X138824095Y-108058476D01*
X138728857Y-108106095D01*
X135200571Y-104534333D02*
X135200571Y-104867666D01*
X135724380Y-104867666D02*
X134724380Y-104867666D01*
X134724380Y-104391476D01*
X134819619Y-104058142D02*
X134772000Y-104010523D01*
X134724380Y-103915285D01*
X134724380Y-103677190D01*
X134772000Y-103581952D01*
X134819619Y-103534333D01*
X134914857Y-103486714D01*
X135010095Y-103486714D01*
X135152952Y-103534333D01*
X135724380Y-104105761D01*
X135724380Y-103486714D01*
X140946380Y-73918095D02*
X139946380Y-73918095D01*
X139946380Y-73680000D01*
X139994000Y-73537142D01*
X140089238Y-73441904D01*
X140184476Y-73394285D01*
X140374952Y-73346666D01*
X140517809Y-73346666D01*
X140708285Y-73394285D01*
X140803523Y-73441904D01*
X140898761Y-73537142D01*
X140946380Y-73680000D01*
X140946380Y-73918095D01*
X140041619Y-72965714D02*
X139994000Y-72918095D01*
X139946380Y-72822857D01*
X139946380Y-72584761D01*
X139994000Y-72489523D01*
X140041619Y-72441904D01*
X140136857Y-72394285D01*
X140232095Y-72394285D01*
X140374952Y-72441904D01*
X140946380Y-73013333D01*
X140946380Y-72394285D01*
X127023904Y-74620380D02*
X127023904Y-73620380D01*
X127262000Y-73620380D01*
X127404857Y-73668000D01*
X127500095Y-73763238D01*
X127547714Y-73858476D01*
X127595333Y-74048952D01*
X127595333Y-74191809D01*
X127547714Y-74382285D01*
X127500095Y-74477523D01*
X127404857Y-74572761D01*
X127262000Y-74620380D01*
X127023904Y-74620380D01*
X128547714Y-74620380D02*
X127976285Y-74620380D01*
X128262000Y-74620380D02*
X128262000Y-73620380D01*
X128166761Y-73763238D01*
X128071523Y-73858476D01*
X127976285Y-73906095D01*
X152715142Y-112906166D02*
X152762761Y-112953785D01*
X152810380Y-113096642D01*
X152810380Y-113191880D01*
X152762761Y-113334738D01*
X152667523Y-113429976D01*
X152572285Y-113477595D01*
X152381809Y-113525214D01*
X152238952Y-113525214D01*
X152048476Y-113477595D01*
X151953238Y-113429976D01*
X151858000Y-113334738D01*
X151810380Y-113191880D01*
X151810380Y-113096642D01*
X151858000Y-112953785D01*
X151905619Y-112906166D01*
X152143714Y-112049023D02*
X152810380Y-112049023D01*
X151762761Y-112287119D02*
X152477047Y-112525214D01*
X152477047Y-111906166D01*
X152757142Y-106084666D02*
X152804761Y-106132285D01*
X152852380Y-106275142D01*
X152852380Y-106370380D01*
X152804761Y-106513238D01*
X152709523Y-106608476D01*
X152614285Y-106656095D01*
X152423809Y-106703714D01*
X152280952Y-106703714D01*
X152090476Y-106656095D01*
X151995238Y-106608476D01*
X151900000Y-106513238D01*
X151852380Y-106370380D01*
X151852380Y-106275142D01*
X151900000Y-106132285D01*
X151947619Y-106084666D01*
X152852380Y-105132285D02*
X152852380Y-105703714D01*
X152852380Y-105418000D02*
X151852380Y-105418000D01*
X151995238Y-105513238D01*
X152090476Y-105608476D01*
X152138095Y-105703714D01*
X139446095Y-66762380D02*
X139446095Y-67571904D01*
X139493714Y-67667142D01*
X139541333Y-67714761D01*
X139636571Y-67762380D01*
X139827047Y-67762380D01*
X139922285Y-67714761D01*
X139969904Y-67667142D01*
X140017523Y-67571904D01*
X140017523Y-66762380D01*
X140922285Y-67095714D02*
X140922285Y-67762380D01*
X140684190Y-66714761D02*
X140446095Y-67429047D01*
X141065142Y-67429047D01*
X174758380Y-89247404D02*
X175567904Y-89247404D01*
X175663142Y-89199785D01*
X175710761Y-89152166D01*
X175758380Y-89056928D01*
X175758380Y-88866452D01*
X175710761Y-88771214D01*
X175663142Y-88723595D01*
X175567904Y-88675976D01*
X174758380Y-88675976D01*
X174853619Y-88247404D02*
X174806000Y-88199785D01*
X174758380Y-88104547D01*
X174758380Y-87866452D01*
X174806000Y-87771214D01*
X174853619Y-87723595D01*
X174948857Y-87675976D01*
X175044095Y-87675976D01*
X175186952Y-87723595D01*
X175758380Y-88295023D01*
X175758380Y-87675976D01*
X139678380Y-69937238D02*
X139202190Y-70270571D01*
X139678380Y-70508666D02*
X138678380Y-70508666D01*
X138678380Y-70127714D01*
X138726000Y-70032476D01*
X138773619Y-69984857D01*
X138868857Y-69937238D01*
X139011714Y-69937238D01*
X139106952Y-69984857D01*
X139154571Y-70032476D01*
X139202190Y-70127714D01*
X139202190Y-70508666D01*
X138678380Y-69651523D02*
X139678380Y-69318190D01*
X138678380Y-68984857D01*
X139678380Y-68127714D02*
X139678380Y-68699142D01*
X139678380Y-68413428D02*
X138678380Y-68413428D01*
X138821238Y-68508666D01*
X138916476Y-68603904D01*
X138964095Y-68699142D01*
X184978380Y-96995238D02*
X184502190Y-97328571D01*
X184978380Y-97566666D02*
X183978380Y-97566666D01*
X183978380Y-97185714D01*
X184026000Y-97090476D01*
X184073619Y-97042857D01*
X184168857Y-96995238D01*
X184311714Y-96995238D01*
X184406952Y-97042857D01*
X184454571Y-97090476D01*
X184502190Y-97185714D01*
X184502190Y-97566666D01*
X183978380Y-96709523D02*
X184978380Y-96376190D01*
X183978380Y-96042857D01*
X184073619Y-95757142D02*
X184026000Y-95709523D01*
X183978380Y-95614285D01*
X183978380Y-95376190D01*
X184026000Y-95280952D01*
X184073619Y-95233333D01*
X184168857Y-95185714D01*
X184264095Y-95185714D01*
X184406952Y-95233333D01*
X184978380Y-95804761D01*
X184978380Y-95185714D01*
X162344380Y-79382857D02*
X161868190Y-79716190D01*
X162344380Y-79954285D02*
X161344380Y-79954285D01*
X161344380Y-79573333D01*
X161392000Y-79478095D01*
X161439619Y-79430476D01*
X161534857Y-79382857D01*
X161677714Y-79382857D01*
X161772952Y-79430476D01*
X161820571Y-79478095D01*
X161868190Y-79573333D01*
X161868190Y-79954285D01*
X161344380Y-79049523D02*
X161344380Y-78430476D01*
X161725333Y-78763809D01*
X161725333Y-78620952D01*
X161772952Y-78525714D01*
X161820571Y-78478095D01*
X161915809Y-78430476D01*
X162153904Y-78430476D01*
X162249142Y-78478095D01*
X162296761Y-78525714D01*
X162344380Y-78620952D01*
X162344380Y-78906666D01*
X162296761Y-79001904D01*
X162249142Y-79049523D01*
X162344380Y-77478095D02*
X162344380Y-78049523D01*
X162344380Y-77763809D02*
X161344380Y-77763809D01*
X161487238Y-77859047D01*
X161582476Y-77954285D01*
X161630095Y-78049523D01*
X162090380Y-91828857D02*
X161614190Y-92162190D01*
X162090380Y-92400285D02*
X161090380Y-92400285D01*
X161090380Y-92019333D01*
X161138000Y-91924095D01*
X161185619Y-91876476D01*
X161280857Y-91828857D01*
X161423714Y-91828857D01*
X161518952Y-91876476D01*
X161566571Y-91924095D01*
X161614190Y-92019333D01*
X161614190Y-92400285D01*
X161185619Y-91447904D02*
X161138000Y-91400285D01*
X161090380Y-91305047D01*
X161090380Y-91066952D01*
X161138000Y-90971714D01*
X161185619Y-90924095D01*
X161280857Y-90876476D01*
X161376095Y-90876476D01*
X161518952Y-90924095D01*
X162090380Y-91495523D01*
X162090380Y-90876476D01*
X162090380Y-90400285D02*
X162090380Y-90209809D01*
X162042761Y-90114571D01*
X161995142Y-90066952D01*
X161852285Y-89971714D01*
X161661809Y-89924095D01*
X161280857Y-89924095D01*
X161185619Y-89971714D01*
X161138000Y-90019333D01*
X161090380Y-90114571D01*
X161090380Y-90305047D01*
X161138000Y-90400285D01*
X161185619Y-90447904D01*
X161280857Y-90495523D01*
X161518952Y-90495523D01*
X161614190Y-90447904D01*
X161661809Y-90400285D01*
X161709428Y-90305047D01*
X161709428Y-90114571D01*
X161661809Y-90019333D01*
X161614190Y-89971714D01*
X161518952Y-89924095D01*
X162344380Y-84575857D02*
X161868190Y-84909190D01*
X162344380Y-85147285D02*
X161344380Y-85147285D01*
X161344380Y-84766333D01*
X161392000Y-84671095D01*
X161439619Y-84623476D01*
X161534857Y-84575857D01*
X161677714Y-84575857D01*
X161772952Y-84623476D01*
X161820571Y-84671095D01*
X161868190Y-84766333D01*
X161868190Y-85147285D01*
X162344380Y-83623476D02*
X162344380Y-84194904D01*
X162344380Y-83909190D02*
X161344380Y-83909190D01*
X161487238Y-84004428D01*
X161582476Y-84099666D01*
X161630095Y-84194904D01*
X162344380Y-83147285D02*
X162344380Y-82956809D01*
X162296761Y-82861571D01*
X162249142Y-82813952D01*
X162106285Y-82718714D01*
X161915809Y-82671095D01*
X161534857Y-82671095D01*
X161439619Y-82718714D01*
X161392000Y-82766333D01*
X161344380Y-82861571D01*
X161344380Y-83052047D01*
X161392000Y-83147285D01*
X161439619Y-83194904D01*
X161534857Y-83242523D01*
X161772952Y-83242523D01*
X161868190Y-83194904D01*
X161915809Y-83147285D01*
X161963428Y-83052047D01*
X161963428Y-82861571D01*
X161915809Y-82766333D01*
X161868190Y-82718714D01*
X161772952Y-82671095D01*
X162250380Y-96908857D02*
X161774190Y-97242190D01*
X162250380Y-97480285D02*
X161250380Y-97480285D01*
X161250380Y-97099333D01*
X161298000Y-97004095D01*
X161345619Y-96956476D01*
X161440857Y-96908857D01*
X161583714Y-96908857D01*
X161678952Y-96956476D01*
X161726571Y-97004095D01*
X161774190Y-97099333D01*
X161774190Y-97480285D01*
X162250380Y-95956476D02*
X162250380Y-96527904D01*
X162250380Y-96242190D02*
X161250380Y-96242190D01*
X161393238Y-96337428D01*
X161488476Y-96432666D01*
X161536095Y-96527904D01*
X161678952Y-95385047D02*
X161631333Y-95480285D01*
X161583714Y-95527904D01*
X161488476Y-95575523D01*
X161440857Y-95575523D01*
X161345619Y-95527904D01*
X161298000Y-95480285D01*
X161250380Y-95385047D01*
X161250380Y-95194571D01*
X161298000Y-95099333D01*
X161345619Y-95051714D01*
X161440857Y-95004095D01*
X161488476Y-95004095D01*
X161583714Y-95051714D01*
X161631333Y-95099333D01*
X161678952Y-95194571D01*
X161678952Y-95385047D01*
X161726571Y-95480285D01*
X161774190Y-95527904D01*
X161869428Y-95575523D01*
X162059904Y-95575523D01*
X162155142Y-95527904D01*
X162202761Y-95480285D01*
X162250380Y-95385047D01*
X162250380Y-95194571D01*
X162202761Y-95099333D01*
X162155142Y-95051714D01*
X162059904Y-95004095D01*
X161869428Y-95004095D01*
X161774190Y-95051714D01*
X161726571Y-95099333D01*
X161678952Y-95194571D01*
X147264380Y-68379666D02*
X146788190Y-68713000D01*
X147264380Y-68951095D02*
X146264380Y-68951095D01*
X146264380Y-68570142D01*
X146312000Y-68474904D01*
X146359619Y-68427285D01*
X146454857Y-68379666D01*
X146597714Y-68379666D01*
X146692952Y-68427285D01*
X146740571Y-68474904D01*
X146788190Y-68570142D01*
X146788190Y-68951095D01*
X146597714Y-67522523D02*
X147264380Y-67522523D01*
X146216761Y-67760619D02*
X146931047Y-67998714D01*
X146931047Y-67379666D01*
X136372333Y-73952380D02*
X136039000Y-73476190D01*
X135800904Y-73952380D02*
X135800904Y-72952380D01*
X136181857Y-72952380D01*
X136277095Y-73000000D01*
X136324714Y-73047619D01*
X136372333Y-73142857D01*
X136372333Y-73285714D01*
X136324714Y-73380952D01*
X136277095Y-73428571D01*
X136181857Y-73476190D01*
X135800904Y-73476190D01*
X136705666Y-72952380D02*
X137324714Y-72952380D01*
X136991380Y-73333333D01*
X137134238Y-73333333D01*
X137229476Y-73380952D01*
X137277095Y-73428571D01*
X137324714Y-73523809D01*
X137324714Y-73761904D01*
X137277095Y-73857142D01*
X137229476Y-73904761D01*
X137134238Y-73952380D01*
X136848523Y-73952380D01*
X136753285Y-73904761D01*
X136705666Y-73857142D01*
X126212333Y-76492380D02*
X125879000Y-76016190D01*
X125640904Y-76492380D02*
X125640904Y-75492380D01*
X126021857Y-75492380D01*
X126117095Y-75540000D01*
X126164714Y-75587619D01*
X126212333Y-75682857D01*
X126212333Y-75825714D01*
X126164714Y-75920952D01*
X126117095Y-75968571D01*
X126021857Y-76016190D01*
X125640904Y-76016190D01*
X126593285Y-75587619D02*
X126640904Y-75540000D01*
X126736142Y-75492380D01*
X126974238Y-75492380D01*
X127069476Y-75540000D01*
X127117095Y-75587619D01*
X127164714Y-75682857D01*
X127164714Y-75778095D01*
X127117095Y-75920952D01*
X126545666Y-76492380D01*
X127164714Y-76492380D01*
X172553333Y-105862380D02*
X172220000Y-105386190D01*
X171981904Y-105862380D02*
X171981904Y-104862380D01*
X172362857Y-104862380D01*
X172458095Y-104910000D01*
X172505714Y-104957619D01*
X172553333Y-105052857D01*
X172553333Y-105195714D01*
X172505714Y-105290952D01*
X172458095Y-105338571D01*
X172362857Y-105386190D01*
X171981904Y-105386190D01*
X172886666Y-104862380D02*
X173553333Y-104862380D01*
X173124761Y-105862380D01*
X187142380Y-70492857D02*
X186666190Y-70826190D01*
X187142380Y-71064285D02*
X186142380Y-71064285D01*
X186142380Y-70683333D01*
X186190000Y-70588095D01*
X186237619Y-70540476D01*
X186332857Y-70492857D01*
X186475714Y-70492857D01*
X186570952Y-70540476D01*
X186618571Y-70588095D01*
X186666190Y-70683333D01*
X186666190Y-71064285D01*
X186142380Y-70159523D02*
X186142380Y-69540476D01*
X186523333Y-69873809D01*
X186523333Y-69730952D01*
X186570952Y-69635714D01*
X186618571Y-69588095D01*
X186713809Y-69540476D01*
X186951904Y-69540476D01*
X187047142Y-69588095D01*
X187094761Y-69635714D01*
X187142380Y-69730952D01*
X187142380Y-70016666D01*
X187094761Y-70111904D01*
X187047142Y-70159523D01*
X186142380Y-68921428D02*
X186142380Y-68826190D01*
X186190000Y-68730952D01*
X186237619Y-68683333D01*
X186332857Y-68635714D01*
X186523333Y-68588095D01*
X186761428Y-68588095D01*
X186951904Y-68635714D01*
X187047142Y-68683333D01*
X187094761Y-68730952D01*
X187142380Y-68826190D01*
X187142380Y-68921428D01*
X187094761Y-69016666D01*
X187047142Y-69064285D01*
X186951904Y-69111904D01*
X186761428Y-69159523D01*
X186523333Y-69159523D01*
X186332857Y-69111904D01*
X186237619Y-69064285D01*
X186190000Y-69016666D01*
X186142380Y-68921428D01*
X187650380Y-103065357D02*
X187174190Y-103398690D01*
X187650380Y-103636785D02*
X186650380Y-103636785D01*
X186650380Y-103255833D01*
X186698000Y-103160595D01*
X186745619Y-103112976D01*
X186840857Y-103065357D01*
X186983714Y-103065357D01*
X187078952Y-103112976D01*
X187126571Y-103160595D01*
X187174190Y-103255833D01*
X187174190Y-103636785D01*
X186745619Y-102684404D02*
X186698000Y-102636785D01*
X186650380Y-102541547D01*
X186650380Y-102303452D01*
X186698000Y-102208214D01*
X186745619Y-102160595D01*
X186840857Y-102112976D01*
X186936095Y-102112976D01*
X187078952Y-102160595D01*
X187650380Y-102732023D01*
X187650380Y-102112976D01*
X187078952Y-101541547D02*
X187031333Y-101636785D01*
X186983714Y-101684404D01*
X186888476Y-101732023D01*
X186840857Y-101732023D01*
X186745619Y-101684404D01*
X186698000Y-101636785D01*
X186650380Y-101541547D01*
X186650380Y-101351071D01*
X186698000Y-101255833D01*
X186745619Y-101208214D01*
X186840857Y-101160595D01*
X186888476Y-101160595D01*
X186983714Y-101208214D01*
X187031333Y-101255833D01*
X187078952Y-101351071D01*
X187078952Y-101541547D01*
X187126571Y-101636785D01*
X187174190Y-101684404D01*
X187269428Y-101732023D01*
X187459904Y-101732023D01*
X187555142Y-101684404D01*
X187602761Y-101636785D01*
X187650380Y-101541547D01*
X187650380Y-101351071D01*
X187602761Y-101255833D01*
X187555142Y-101208214D01*
X187459904Y-101160595D01*
X187269428Y-101160595D01*
X187174190Y-101208214D01*
X187126571Y-101255833D01*
X187078952Y-101351071D01*
X146786333Y-71063142D02*
X146738714Y-71110761D01*
X146595857Y-71158380D01*
X146500619Y-71158380D01*
X146357761Y-71110761D01*
X146262523Y-71015523D01*
X146214904Y-70920285D01*
X146167285Y-70729809D01*
X146167285Y-70586952D01*
X146214904Y-70396476D01*
X146262523Y-70301238D01*
X146357761Y-70206000D01*
X146500619Y-70158380D01*
X146595857Y-70158380D01*
X146738714Y-70206000D01*
X146786333Y-70253619D01*
X147167285Y-70253619D02*
X147214904Y-70206000D01*
X147310142Y-70158380D01*
X147548238Y-70158380D01*
X147643476Y-70206000D01*
X147691095Y-70253619D01*
X147738714Y-70348857D01*
X147738714Y-70444095D01*
X147691095Y-70586952D01*
X147119666Y-71158380D01*
X147738714Y-71158380D01*
X140970095Y-101862380D02*
X140970095Y-102671904D01*
X141017714Y-102767142D01*
X141065333Y-102814761D01*
X141160571Y-102862380D01*
X141351047Y-102862380D01*
X141446285Y-102814761D01*
X141493904Y-102767142D01*
X141541523Y-102671904D01*
X141541523Y-101862380D01*
X142446285Y-101862380D02*
X142255809Y-101862380D01*
X142160571Y-101910000D01*
X142112952Y-101957619D01*
X142017714Y-102100476D01*
X141970095Y-102290952D01*
X141970095Y-102671904D01*
X142017714Y-102767142D01*
X142065333Y-102814761D01*
X142160571Y-102862380D01*
X142351047Y-102862380D01*
X142446285Y-102814761D01*
X142493904Y-102767142D01*
X142541523Y-102671904D01*
X142541523Y-102433809D01*
X142493904Y-102338571D01*
X142446285Y-102290952D01*
X142351047Y-102243333D01*
X142160571Y-102243333D01*
X142065333Y-102290952D01*
X142017714Y-102338571D01*
X141970095Y-102433809D01*
X146342380Y-79495857D02*
X145866190Y-79829190D01*
X146342380Y-80067285D02*
X145342380Y-80067285D01*
X145342380Y-79686333D01*
X145390000Y-79591095D01*
X145437619Y-79543476D01*
X145532857Y-79495857D01*
X145675714Y-79495857D01*
X145770952Y-79543476D01*
X145818571Y-79591095D01*
X145866190Y-79686333D01*
X145866190Y-80067285D01*
X145437619Y-79114904D02*
X145390000Y-79067285D01*
X145342380Y-78972047D01*
X145342380Y-78733952D01*
X145390000Y-78638714D01*
X145437619Y-78591095D01*
X145532857Y-78543476D01*
X145628095Y-78543476D01*
X145770952Y-78591095D01*
X146342380Y-79162523D01*
X146342380Y-78543476D01*
X145342380Y-77638714D02*
X145342380Y-78114904D01*
X145818571Y-78162523D01*
X145770952Y-78114904D01*
X145723333Y-78019666D01*
X145723333Y-77781571D01*
X145770952Y-77686333D01*
X145818571Y-77638714D01*
X145913809Y-77591095D01*
X146151904Y-77591095D01*
X146247142Y-77638714D01*
X146294761Y-77686333D01*
X146342380Y-77781571D01*
X146342380Y-78019666D01*
X146294761Y-78114904D01*
X146247142Y-78162523D01*
X176314380Y-72919857D02*
X175838190Y-73253190D01*
X176314380Y-73491285D02*
X175314380Y-73491285D01*
X175314380Y-73110333D01*
X175362000Y-73015095D01*
X175409619Y-72967476D01*
X175504857Y-72919857D01*
X175647714Y-72919857D01*
X175742952Y-72967476D01*
X175790571Y-73015095D01*
X175838190Y-73110333D01*
X175838190Y-73491285D01*
X175409619Y-72538904D02*
X175362000Y-72491285D01*
X175314380Y-72396047D01*
X175314380Y-72157952D01*
X175362000Y-72062714D01*
X175409619Y-72015095D01*
X175504857Y-71967476D01*
X175600095Y-71967476D01*
X175742952Y-72015095D01*
X176314380Y-72586523D01*
X176314380Y-71967476D01*
X175314380Y-71634142D02*
X175314380Y-70967476D01*
X176314380Y-71396047D01*
X146596380Y-89147857D02*
X146120190Y-89481190D01*
X146596380Y-89719285D02*
X145596380Y-89719285D01*
X145596380Y-89338333D01*
X145644000Y-89243095D01*
X145691619Y-89195476D01*
X145786857Y-89147857D01*
X145929714Y-89147857D01*
X146024952Y-89195476D01*
X146072571Y-89243095D01*
X146120190Y-89338333D01*
X146120190Y-89719285D01*
X145691619Y-88766904D02*
X145644000Y-88719285D01*
X145596380Y-88624047D01*
X145596380Y-88385952D01*
X145644000Y-88290714D01*
X145691619Y-88243095D01*
X145786857Y-88195476D01*
X145882095Y-88195476D01*
X146024952Y-88243095D01*
X146596380Y-88814523D01*
X146596380Y-88195476D01*
X145596380Y-87862142D02*
X145596380Y-87243095D01*
X145977333Y-87576428D01*
X145977333Y-87433571D01*
X146024952Y-87338333D01*
X146072571Y-87290714D01*
X146167809Y-87243095D01*
X146405904Y-87243095D01*
X146501142Y-87290714D01*
X146548761Y-87338333D01*
X146596380Y-87433571D01*
X146596380Y-87719285D01*
X146548761Y-87814523D01*
X146501142Y-87862142D01*
X176568380Y-106306857D02*
X176092190Y-106640190D01*
X176568380Y-106878285D02*
X175568380Y-106878285D01*
X175568380Y-106497333D01*
X175616000Y-106402095D01*
X175663619Y-106354476D01*
X175758857Y-106306857D01*
X175901714Y-106306857D01*
X175996952Y-106354476D01*
X176044571Y-106402095D01*
X176092190Y-106497333D01*
X176092190Y-106878285D01*
X175663619Y-105925904D02*
X175616000Y-105878285D01*
X175568380Y-105783047D01*
X175568380Y-105544952D01*
X175616000Y-105449714D01*
X175663619Y-105402095D01*
X175758857Y-105354476D01*
X175854095Y-105354476D01*
X175996952Y-105402095D01*
X176568380Y-105973523D01*
X176568380Y-105354476D01*
X175568380Y-104497333D02*
X175568380Y-104687809D01*
X175616000Y-104783047D01*
X175663619Y-104830666D01*
X175806476Y-104925904D01*
X175996952Y-104973523D01*
X176377904Y-104973523D01*
X176473142Y-104925904D01*
X176520761Y-104878285D01*
X176568380Y-104783047D01*
X176568380Y-104592571D01*
X176520761Y-104497333D01*
X176473142Y-104449714D01*
X176377904Y-104402095D01*
X176139809Y-104402095D01*
X176044571Y-104449714D01*
X175996952Y-104497333D01*
X175949333Y-104592571D01*
X175949333Y-104783047D01*
X175996952Y-104878285D01*
X176044571Y-104925904D01*
X176139809Y-104973523D01*
X130276333Y-100876380D02*
X129943000Y-100400190D01*
X129704904Y-100876380D02*
X129704904Y-99876380D01*
X130085857Y-99876380D01*
X130181095Y-99924000D01*
X130228714Y-99971619D01*
X130276333Y-100066857D01*
X130276333Y-100209714D01*
X130228714Y-100304952D01*
X130181095Y-100352571D01*
X130085857Y-100400190D01*
X129704904Y-100400190D01*
X131133476Y-99876380D02*
X130943000Y-99876380D01*
X130847761Y-99924000D01*
X130800142Y-99971619D01*
X130704904Y-100114476D01*
X130657285Y-100304952D01*
X130657285Y-100685904D01*
X130704904Y-100781142D01*
X130752523Y-100828761D01*
X130847761Y-100876380D01*
X131038238Y-100876380D01*
X131133476Y-100828761D01*
X131181095Y-100781142D01*
X131228714Y-100685904D01*
X131228714Y-100447809D01*
X131181095Y-100352571D01*
X131133476Y-100304952D01*
X131038238Y-100257333D01*
X130847761Y-100257333D01*
X130752523Y-100304952D01*
X130704904Y-100352571D01*
X130657285Y-100447809D01*
X130276333Y-97828380D02*
X129943000Y-97352190D01*
X129704904Y-97828380D02*
X129704904Y-96828380D01*
X130085857Y-96828380D01*
X130181095Y-96876000D01*
X130228714Y-96923619D01*
X130276333Y-97018857D01*
X130276333Y-97161714D01*
X130228714Y-97256952D01*
X130181095Y-97304571D01*
X130085857Y-97352190D01*
X129704904Y-97352190D01*
X131181095Y-96828380D02*
X130704904Y-96828380D01*
X130657285Y-97304571D01*
X130704904Y-97256952D01*
X130800142Y-97209333D01*
X131038238Y-97209333D01*
X131133476Y-97256952D01*
X131181095Y-97304571D01*
X131228714Y-97399809D01*
X131228714Y-97637904D01*
X131181095Y-97733142D01*
X131133476Y-97780761D01*
X131038238Y-97828380D01*
X130800142Y-97828380D01*
X130704904Y-97780761D01*
X130657285Y-97733142D01*
X127789333Y-104592380D02*
X127456000Y-104116190D01*
X127217904Y-104592380D02*
X127217904Y-103592380D01*
X127598857Y-103592380D01*
X127694095Y-103640000D01*
X127741714Y-103687619D01*
X127789333Y-103782857D01*
X127789333Y-103925714D01*
X127741714Y-104020952D01*
X127694095Y-104068571D01*
X127598857Y-104116190D01*
X127217904Y-104116190D01*
X128741714Y-104592380D02*
X128170285Y-104592380D01*
X128456000Y-104592380D02*
X128456000Y-103592380D01*
X128360761Y-103735238D01*
X128265523Y-103830476D01*
X128170285Y-103878095D01*
X185689619Y-106169428D02*
X185642000Y-106264666D01*
X185546761Y-106359904D01*
X185403904Y-106502761D01*
X185356285Y-106598000D01*
X185356285Y-106693238D01*
X185594380Y-106645619D02*
X185546761Y-106740857D01*
X185451523Y-106836095D01*
X185261047Y-106883714D01*
X184927714Y-106883714D01*
X184737238Y-106836095D01*
X184642000Y-106740857D01*
X184594380Y-106645619D01*
X184594380Y-106455142D01*
X184642000Y-106359904D01*
X184737238Y-106264666D01*
X184927714Y-106217047D01*
X185261047Y-106217047D01*
X185451523Y-106264666D01*
X185546761Y-106359904D01*
X185594380Y-106455142D01*
X185594380Y-106645619D01*
X185594380Y-105264666D02*
X185594380Y-105836095D01*
X185594380Y-105550380D02*
X184594380Y-105550380D01*
X184737238Y-105645619D01*
X184832476Y-105740857D01*
X184880095Y-105836095D01*
X184594380Y-104931333D02*
X184594380Y-104312285D01*
X184975333Y-104645619D01*
X184975333Y-104502761D01*
X185022952Y-104407523D01*
X185070571Y-104359904D01*
X185165809Y-104312285D01*
X185403904Y-104312285D01*
X185499142Y-104359904D01*
X185546761Y-104407523D01*
X185594380Y-104502761D01*
X185594380Y-104788476D01*
X185546761Y-104883714D01*
X185499142Y-104931333D01*
X141692571Y-77041619D02*
X141597333Y-76994000D01*
X141502095Y-76898761D01*
X141359238Y-76755904D01*
X141264000Y-76708285D01*
X141168761Y-76708285D01*
X141216380Y-76946380D02*
X141121142Y-76898761D01*
X141025904Y-76803523D01*
X140978285Y-76613047D01*
X140978285Y-76279714D01*
X141025904Y-76089238D01*
X141121142Y-75994000D01*
X141216380Y-75946380D01*
X141406857Y-75946380D01*
X141502095Y-75994000D01*
X141597333Y-76089238D01*
X141644952Y-76279714D01*
X141644952Y-76613047D01*
X141597333Y-76803523D01*
X141502095Y-76898761D01*
X141406857Y-76946380D01*
X141216380Y-76946380D01*
X142597333Y-76946380D02*
X142025904Y-76946380D01*
X142311619Y-76946380D02*
X142311619Y-75946380D01*
X142216380Y-76089238D01*
X142121142Y-76184476D01*
X142025904Y-76232095D01*
X142978285Y-76041619D02*
X143025904Y-75994000D01*
X143121142Y-75946380D01*
X143359238Y-75946380D01*
X143454476Y-75994000D01*
X143502095Y-76041619D01*
X143549714Y-76136857D01*
X143549714Y-76232095D01*
X143502095Y-76374952D01*
X142930666Y-76946380D01*
X143549714Y-76946380D01*
X141922571Y-86693619D02*
X141827333Y-86646000D01*
X141732095Y-86550761D01*
X141589238Y-86407904D01*
X141494000Y-86360285D01*
X141398761Y-86360285D01*
X141446380Y-86598380D02*
X141351142Y-86550761D01*
X141255904Y-86455523D01*
X141208285Y-86265047D01*
X141208285Y-85931714D01*
X141255904Y-85741238D01*
X141351142Y-85646000D01*
X141446380Y-85598380D01*
X141636857Y-85598380D01*
X141732095Y-85646000D01*
X141827333Y-85741238D01*
X141874952Y-85931714D01*
X141874952Y-86265047D01*
X141827333Y-86455523D01*
X141732095Y-86550761D01*
X141636857Y-86598380D01*
X141446380Y-86598380D01*
X142827333Y-86598380D02*
X142255904Y-86598380D01*
X142541619Y-86598380D02*
X142541619Y-85598380D01*
X142446380Y-85741238D01*
X142351142Y-85836476D01*
X142255904Y-85884095D01*
X143779714Y-86598380D02*
X143208285Y-86598380D01*
X143494000Y-86598380D02*
X143494000Y-85598380D01*
X143398761Y-85741238D01*
X143303523Y-85836476D01*
X143208285Y-85884095D01*
X142120761Y-81867619D02*
X142025523Y-81820000D01*
X141930285Y-81724761D01*
X141787428Y-81581904D01*
X141692190Y-81534285D01*
X141596952Y-81534285D01*
X141644571Y-81772380D02*
X141549333Y-81724761D01*
X141454095Y-81629523D01*
X141406476Y-81439047D01*
X141406476Y-81105714D01*
X141454095Y-80915238D01*
X141549333Y-80820000D01*
X141644571Y-80772380D01*
X141835047Y-80772380D01*
X141930285Y-80820000D01*
X142025523Y-80915238D01*
X142073142Y-81105714D01*
X142073142Y-81439047D01*
X142025523Y-81629523D01*
X141930285Y-81724761D01*
X141835047Y-81772380D01*
X141644571Y-81772380D01*
X142930285Y-81105714D02*
X142930285Y-81772380D01*
X142692190Y-80724761D02*
X142454095Y-81439047D01*
X143073142Y-81439047D01*
X156407142Y-112547666D02*
X156454761Y-112595285D01*
X156502380Y-112738142D01*
X156502380Y-112833380D01*
X156454761Y-112976238D01*
X156359523Y-113071476D01*
X156264285Y-113119095D01*
X156073809Y-113166714D01*
X155930952Y-113166714D01*
X155740476Y-113119095D01*
X155645238Y-113071476D01*
X155550000Y-112976238D01*
X155502380Y-112833380D01*
X155502380Y-112738142D01*
X155550000Y-112595285D01*
X155597619Y-112547666D01*
X155502380Y-111642904D02*
X155502380Y-112119095D01*
X155978571Y-112166714D01*
X155930952Y-112119095D01*
X155883333Y-112023857D01*
X155883333Y-111785761D01*
X155930952Y-111690523D01*
X155978571Y-111642904D01*
X156073809Y-111595285D01*
X156311904Y-111595285D01*
X156407142Y-111642904D01*
X156454761Y-111690523D01*
X156502380Y-111785761D01*
X156502380Y-112023857D01*
X156454761Y-112119095D01*
X156407142Y-112166714D01*
X156313142Y-106564666D02*
X156360761Y-106612285D01*
X156408380Y-106755142D01*
X156408380Y-106850380D01*
X156360761Y-106993238D01*
X156265523Y-107088476D01*
X156170285Y-107136095D01*
X155979809Y-107183714D01*
X155836952Y-107183714D01*
X155646476Y-107136095D01*
X155551238Y-107088476D01*
X155456000Y-106993238D01*
X155408380Y-106850380D01*
X155408380Y-106755142D01*
X155456000Y-106612285D01*
X155503619Y-106564666D01*
X155408380Y-106231333D02*
X155408380Y-105612285D01*
X155789333Y-105945619D01*
X155789333Y-105802761D01*
X155836952Y-105707523D01*
X155884571Y-105659904D01*
X155979809Y-105612285D01*
X156217904Y-105612285D01*
X156313142Y-105659904D01*
X156360761Y-105707523D01*
X156408380Y-105802761D01*
X156408380Y-106088476D01*
X156360761Y-106183714D01*
X156313142Y-106231333D01*
M02*
