M48
INCH,TZ
T1C0.0157
T2C0.0315
T3C0.0433
T4C0.0551
T5C0.0787
T6C0.1260
%
G90
G05
T1
X44900Y-43700
X45600Y-28600
X45900Y-43500
X46200Y-44700
X47000Y-27100
X47300Y-29400
X48900Y-30500
X48900Y-32000
X48900Y-33900
X48900Y-35900
X48900Y-37800
X51800Y-32500
X51800Y-34300
X51800Y-36500
X51800Y-38100
X53300Y-38600
X53311Y-36489
X53400Y-30700
X54100Y-30300
X54400Y-32100
X54900Y-31500
X54900Y-33400
X54900Y-35300
X54900Y-37200
X57500Y-35200
X57600Y-26400
X57800Y-32000
X58000Y-30000
X58500Y-33300
X58700Y-37500
X58900Y-33000
X58900Y-34500
X59200Y-37500
X59388Y-38188
X59400Y-30100
X59400Y-38600
X59500Y-34500
X59800Y-31100
X59800Y-36200
X60000Y-28900
X60200Y-27800
X60200Y-37400
X60300Y-43176
X60800Y-34200
X60800Y-37000
X61026Y-30574
X61300Y-34200
X61500Y-32700
X61600Y-37285
X61800Y-34900
X61842Y-26942
X61900Y-41200
X62140Y-29540
X62300Y-33900
X62492Y-39600
X62600Y-37500
X63000Y-37100
X63200Y-39400
X63200Y-40100
X63300Y-32200
X63300Y-41600
X63400Y-30200
X63400Y-42891
X63900Y-29700
X63900Y-36200
X63900Y-37400
X63985Y-34285
X64200Y-34922
X64600Y-38200
X64793Y-28601
X64800Y-32700
X65078Y-32415
X65800Y-30500
X66000Y-36300
X66000Y-42100
X66021Y-34800
X66100Y-40600
X66200Y-39100
X66400Y-28900
X66500Y-29400
X66500Y-37800
X66600Y-33700
X67200Y-29600
X67200Y-39100
X67300Y-37700
X67300Y-39600
X67385Y-28424
X67424Y-27376
X67700Y-38600
X67800Y-29500
X67800Y-32700
X68100Y-32400
X68600Y-41700
X68700Y-39500
X68800Y-35300
X68823Y-33977
X69100Y-38100
X69200Y-33400
X69200Y-34800
X69300Y-28400
X69300Y-38900
X69400Y-32000
X69500Y-36900
X69500Y-43176
X69800Y-30700
X69824Y-27376
X70600Y-42400
X70700Y-32813
X71300Y-29500
X71400Y-31100
X71500Y-42600
X71900Y-36800
X72100Y-40800
X72300Y-28500
X72600Y-34500
X72900Y-36900
X73100Y-31700
X73300Y-32900
X73300Y-42000
X73700Y-34500
X74100Y-33915
X74544Y-37744
X75200Y-33500
X75418Y-27400
X75700Y-37500
X75768Y-31232
X75800Y-36900
X75800Y-40300
X75800Y-40900
X75900Y-29700
X75900Y-33200
X75900Y-41600
X76700Y-29200
X78040Y-31760
X78040Y-35060
X78040Y-39540
X80100Y-28200
X80700Y-44600
X82300Y-44600
T2
X48900Y-41100
X51853Y-41651
T3
X56500Y-42000
X57500Y-42000
X58500Y-42000
T4
X81818Y-28960
X81818Y-30960
X81818Y-32960
X81818Y-34960
X81818Y-36960
X81818Y-38960
X81818Y-40960
X81818Y-42960
X45972Y-30912
X45972Y-32912
X45972Y-34912
X45972Y-36912
X45972Y-38912
X45972Y-40912
T6
X78040Y-27400
X49300Y-44329
X49300Y-27400
X78040Y-44329
T5
G00X52913Y-44200
M15
G01X54487Y-44200
M16
G05
G00X56574Y-44200
M15
G01X58149Y-44200
M16
G05
T0
M30
