G04 #@! TF.GenerationSoftware,KiCad,Pcbnew,5.1.6-c6e7f7d~86~ubuntu18.04.1*
G04 #@! TF.CreationDate,2020-07-04T00:52:20+02:00*
G04 #@! TF.ProjectId,PeakHoldPWMDriver,5065616b-486f-46c6-9450-574d44726976,rev?*
G04 #@! TF.SameCoordinates,Original*
G04 #@! TF.FileFunction,Copper,L2,Bot*
G04 #@! TF.FilePolarity,Positive*
%FSLAX46Y46*%
G04 Gerber Fmt 4.6, Leading zero omitted, Abs format (unit mm)*
G04 Created by KiCad (PCBNEW 5.1.6-c6e7f7d~86~ubuntu18.04.1) date 2020-07-04 00:52:20*
%MOMM*%
%LPD*%
G01*
G04 APERTURE LIST*
G04 #@! TA.AperFunction,ComponentPad*
%ADD10C,5.600000*%
G04 #@! TD*
G04 #@! TA.AperFunction,ComponentPad*
%ADD11O,3.600000X2.080000*%
G04 #@! TD*
G04 #@! TA.AperFunction,ComponentPad*
%ADD12O,8.000000X3.800000*%
G04 #@! TD*
G04 #@! TA.AperFunction,ComponentPad*
%ADD13O,1.905000X2.000000*%
G04 #@! TD*
G04 #@! TA.AperFunction,ComponentPad*
%ADD14R,1.905000X2.000000*%
G04 #@! TD*
G04 #@! TA.AperFunction,ComponentPad*
%ADD15C,1.800000*%
G04 #@! TD*
G04 #@! TA.AperFunction,ViaPad*
%ADD16C,0.800000*%
G04 #@! TD*
G04 #@! TA.AperFunction,Conductor*
%ADD17C,0.250000*%
G04 #@! TD*
G04 #@! TA.AperFunction,Conductor*
%ADD18C,4.000000*%
G04 #@! TD*
G04 #@! TA.AperFunction,Conductor*
%ADD19C,1.000000*%
G04 #@! TD*
G04 #@! TA.AperFunction,Conductor*
%ADD20C,0.254000*%
G04 #@! TD*
G04 APERTURE END LIST*
D10*
X125222000Y-69596000D03*
X198222000Y-112596000D03*
X125222000Y-112596000D03*
X198222000Y-69596000D03*
D11*
X207818000Y-73558000D03*
X207818000Y-78638000D03*
X207818000Y-83718000D03*
X207818000Y-88798000D03*
X207818000Y-93878000D03*
X207818000Y-98958000D03*
X207818000Y-104038000D03*
G04 #@! TA.AperFunction,ComponentPad*
G36*
G01*
X209368001Y-110158000D02*
X206267999Y-110158000D01*
G75*
G02*
X206018000Y-109908001I0J249999D01*
G01*
X206018000Y-108327999D01*
G75*
G02*
X206267999Y-108078000I249999J0D01*
G01*
X209368001Y-108078000D01*
G75*
G02*
X209618000Y-108327999I0J-249999D01*
G01*
X209618000Y-109908001D01*
G75*
G02*
X209368001Y-110158000I-249999J0D01*
G01*
G37*
G04 #@! TD.AperFunction*
X116770000Y-78516000D03*
X116770000Y-83596000D03*
X116770000Y-88676000D03*
X116770000Y-93756000D03*
X116770000Y-98836000D03*
G04 #@! TA.AperFunction,ComponentPad*
G36*
G01*
X118320001Y-104956000D02*
X115219999Y-104956000D01*
G75*
G02*
X114970000Y-104706001I0J249999D01*
G01*
X114970000Y-103125999D01*
G75*
G02*
X115219999Y-102876000I249999J0D01*
G01*
X118320001Y-102876000D01*
G75*
G02*
X118570000Y-103125999I0J-249999D01*
G01*
X118570000Y-104706001D01*
G75*
G02*
X118320001Y-104956000I-249999J0D01*
G01*
G37*
G04 #@! TD.AperFunction*
D12*
X145698000Y-112268000D03*
X136398000Y-112268000D03*
D13*
X148590000Y-106680000D03*
X146050000Y-106680000D03*
D14*
X143510000Y-106680000D03*
D15*
X124206000Y-104394000D03*
X131706000Y-105794000D03*
D16*
X153162000Y-109668000D03*
X124206000Y-96012000D03*
X124206000Y-77470000D03*
X124206000Y-81280000D03*
X124206000Y-86106000D03*
X124206000Y-91186000D03*
X135382000Y-98044000D03*
X135410000Y-92682000D03*
X174810142Y-86301858D03*
X162521990Y-87083990D03*
X151892000Y-91948000D03*
X162306000Y-91948000D03*
X174244000Y-105918000D03*
X170942000Y-100584000D03*
X168910000Y-96012000D03*
X162306000Y-94996000D03*
X151892000Y-78994000D03*
X147320000Y-76200000D03*
X186182000Y-106680000D03*
X192532000Y-103886000D03*
X188214000Y-86143000D03*
X192451476Y-79328524D03*
X185674000Y-80518000D03*
X191008000Y-85090000D03*
X183134000Y-103632000D03*
X192278000Y-95250000D03*
X194818000Y-74168000D03*
X183642000Y-72390000D03*
X184404000Y-87630000D03*
X186182000Y-83566000D03*
X146304000Y-67056000D03*
X160528000Y-100076000D03*
X160782000Y-81788000D03*
X172212000Y-74930000D03*
X167640000Y-106934000D03*
X157078523Y-68432523D03*
X158242000Y-86106000D03*
X169164000Y-85598000D03*
X198222000Y-100432000D03*
X187198000Y-87630000D03*
X179578000Y-83346019D03*
X131572000Y-82550000D03*
X131572000Y-87122000D03*
X131572000Y-92710000D03*
X131572000Y-96774000D03*
X139446000Y-94488000D03*
X139446000Y-80010000D03*
X139446000Y-89662000D03*
X139446000Y-84836000D03*
X167132000Y-77470000D03*
X161036000Y-108943000D03*
X157226000Y-104648000D03*
X152908000Y-94996000D03*
X138176000Y-81534000D03*
X135636000Y-77978000D03*
X137414000Y-76962000D03*
X119380000Y-68834000D03*
X115824000Y-72644000D03*
X120142000Y-74676000D03*
X114046000Y-110998000D03*
X117348000Y-113538000D03*
X116586000Y-110490000D03*
X204978000Y-113284000D03*
X209042000Y-113284000D03*
X203454000Y-71628000D03*
X191560990Y-69596000D03*
X152908000Y-70612000D03*
X152400000Y-73406000D03*
X155007000Y-77657000D03*
X162306000Y-75438000D03*
X161036000Y-76708000D03*
X149606000Y-87630000D03*
X151130000Y-87630000D03*
X154432000Y-86868000D03*
X155702000Y-86868000D03*
X171256001Y-69535999D03*
X177352001Y-69535999D03*
X181102000Y-74930000D03*
X181356000Y-78994000D03*
X174498000Y-100330000D03*
X176022000Y-98806000D03*
X181610000Y-108204000D03*
X198222000Y-89052000D03*
X198222000Y-80670000D03*
X160020000Y-94234000D03*
X170688000Y-99314000D03*
X168148000Y-99314000D03*
X170942000Y-95758000D03*
X175768000Y-84836000D03*
X170688000Y-75184000D03*
X146812000Y-81280000D03*
X168910000Y-74676000D03*
X149098000Y-95250000D03*
X150368000Y-95250000D03*
X160528000Y-101854000D03*
X150876000Y-98044000D03*
X160782000Y-105664000D03*
X164574334Y-72646010D03*
X150876000Y-76454000D03*
X168656000Y-73406000D03*
X192532000Y-93726000D03*
X167640000Y-92202000D03*
X189341182Y-95869182D03*
X185166000Y-93726000D03*
X171958000Y-98044000D03*
X156464000Y-94705000D03*
X176022000Y-72136000D03*
X171156990Y-72196000D03*
X157834479Y-75030479D03*
X179324000Y-107696000D03*
X158729010Y-100584000D03*
X150846597Y-96998597D03*
X148590000Y-84582000D03*
X176276000Y-81280000D03*
X192532000Y-102362000D03*
X167692997Y-88392000D03*
X192786000Y-105664000D03*
X182626000Y-93472000D03*
X175768000Y-88392000D03*
X192786000Y-84328000D03*
X176530000Y-109668000D03*
X146050000Y-89408000D03*
X149606000Y-83820000D03*
X177292000Y-77978000D03*
X192786000Y-75438000D03*
X174752000Y-89662000D03*
X164084000Y-97028000D03*
X175514000Y-96774000D03*
X159004000Y-95250000D03*
X164592000Y-83058000D03*
X172212000Y-83058000D03*
X156210000Y-83058000D03*
X176530000Y-93726000D03*
X156972000Y-88646000D03*
X163068000Y-88703002D03*
X165299108Y-82333000D03*
X172974000Y-82296000D03*
X167894000Y-103124000D03*
X154432000Y-93980000D03*
D17*
X150174000Y-106680000D02*
X148590000Y-106680000D01*
X153162000Y-109668000D02*
X150174000Y-106680000D01*
X124206000Y-81280000D02*
X124206000Y-77470000D01*
X124206000Y-86106000D02*
X124206000Y-81280000D01*
X124206000Y-96012000D02*
X124206000Y-91186000D01*
X124206000Y-91186000D02*
X124206000Y-86106000D01*
X135382000Y-92710000D02*
X135410000Y-92682000D01*
X135382000Y-98044000D02*
X135382000Y-92710000D01*
X139954000Y-98044000D02*
X148590000Y-106680000D01*
X135382000Y-98044000D02*
X139954000Y-98044000D01*
X174028010Y-87083990D02*
X162521990Y-87083990D01*
X174810142Y-86301858D02*
X174028010Y-87083990D01*
X151892000Y-91948000D02*
X162306000Y-91948000D01*
X174244000Y-105918000D02*
X174244000Y-103886000D01*
X174244000Y-103886000D02*
X170942000Y-100584000D01*
X168910000Y-96012000D02*
X167894000Y-94996000D01*
X167894000Y-94996000D02*
X162306000Y-94996000D01*
X145324999Y-103414999D02*
X148590000Y-106680000D01*
X145324999Y-89059999D02*
X145324999Y-103414999D01*
X145701999Y-88682999D02*
X145324999Y-89059999D01*
X148626999Y-88682999D02*
X145701999Y-88682999D01*
X151892000Y-91948000D02*
X148626999Y-88682999D01*
X151892000Y-78994000D02*
X150114000Y-78994000D01*
X150114000Y-78994000D02*
X147320000Y-76200000D01*
D18*
X191149998Y-112268000D02*
X196483998Y-106934000D01*
X145698000Y-112268000D02*
X161544000Y-112268000D01*
X206018000Y-109118000D02*
X207818000Y-109118000D01*
X203834000Y-106934000D02*
X206018000Y-109118000D01*
X196483998Y-106934000D02*
X203834000Y-106934000D01*
X203817990Y-102695944D02*
X207555934Y-98958000D01*
X203817990Y-105380056D02*
X203817990Y-102695944D01*
X207555934Y-98958000D02*
X207818000Y-98958000D01*
X203834000Y-105396066D02*
X203817990Y-105380056D01*
X203834000Y-106934000D02*
X203834000Y-105396066D01*
X203817990Y-92535944D02*
X203817990Y-102695944D01*
X207555934Y-88798000D02*
X203817990Y-92535944D01*
X207818000Y-88798000D02*
X207555934Y-88798000D01*
X203817990Y-82375944D02*
X203817990Y-92535944D01*
X207555934Y-78638000D02*
X203817990Y-82375944D01*
X207818000Y-78638000D02*
X207555934Y-78638000D01*
X161544000Y-112268000D02*
X165354000Y-112268000D01*
X165354000Y-112268000D02*
X191149998Y-112268000D01*
D19*
X186182000Y-106680000D02*
X189738000Y-106680000D01*
X189738000Y-106680000D02*
X192532000Y-103886000D01*
D17*
X192060999Y-79719001D02*
X192451476Y-79328524D01*
X192060999Y-85962999D02*
X192060999Y-79719001D01*
X191880998Y-86143000D02*
X192060999Y-85962999D01*
X188214000Y-86143000D02*
X191880998Y-86143000D01*
D19*
X185674000Y-80518000D02*
X185928000Y-80518000D01*
X185674000Y-80518000D02*
X186436000Y-80518000D01*
X186436000Y-80518000D02*
X191008000Y-85090000D01*
X183134000Y-103632000D02*
X191516000Y-95250000D01*
X191516000Y-95250000D02*
X192278000Y-95250000D01*
X194818000Y-74168000D02*
X186944000Y-74168000D01*
X186944000Y-74168000D02*
X185420000Y-74168000D01*
X185420000Y-74168000D02*
X183642000Y-72390000D01*
D17*
X184404000Y-87630000D02*
X185928000Y-87630000D01*
X185928000Y-87630000D02*
X186182000Y-87376000D01*
X186182000Y-87376000D02*
X186182000Y-83566000D01*
X146364000Y-66996000D02*
X146304000Y-67056000D01*
X155702000Y-67056000D02*
X146304000Y-67056000D01*
X157078523Y-68432523D02*
X155702000Y-67056000D01*
X161181999Y-81388001D02*
X171849999Y-81388001D01*
X160782000Y-81788000D02*
X161181999Y-81388001D01*
X171849999Y-81388001D02*
X172212000Y-81026000D01*
X172212000Y-81026000D02*
X172212000Y-74930000D01*
X160528000Y-100076000D02*
X167386000Y-106934000D01*
X167386000Y-106934000D02*
X167640000Y-106934000D01*
X158242000Y-86106000D02*
X168656000Y-86106000D01*
X168656000Y-86106000D02*
X169164000Y-85598000D01*
D18*
X198222000Y-100432000D02*
X198222000Y-102260000D01*
X198222000Y-69596000D02*
X198222000Y-80670000D01*
X129032000Y-73406000D02*
X125222000Y-69596000D01*
X125222000Y-112278000D02*
X131706000Y-105794000D01*
X125222000Y-112596000D02*
X125222000Y-112278000D01*
X131572000Y-73406000D02*
X129032000Y-73406000D01*
X131572000Y-105660000D02*
X131706000Y-105794000D01*
X117502000Y-99568000D02*
X116770000Y-98836000D01*
X131572000Y-99568000D02*
X131572000Y-105660000D01*
X131572000Y-99568000D02*
X117502000Y-99568000D01*
D17*
X180083020Y-82840999D02*
X179578000Y-83346019D01*
X186530001Y-82840999D02*
X180083020Y-82840999D01*
X187198000Y-87630000D02*
X187198000Y-83508998D01*
X187198000Y-83508998D02*
X186530001Y-82840999D01*
D18*
X131572000Y-73406000D02*
X131572000Y-82550000D01*
X131572000Y-82550000D02*
X131572000Y-87122000D01*
X131572000Y-87122000D02*
X131572000Y-92710000D01*
X131572000Y-92710000D02*
X131572000Y-96774000D01*
X131572000Y-96774000D02*
X131572000Y-99568000D01*
D17*
X139446000Y-94488000D02*
X139446000Y-89662000D01*
X139446000Y-89662000D02*
X139446000Y-84836000D01*
X139446000Y-84836000D02*
X139446000Y-80010000D01*
X134112000Y-80010000D02*
X131572000Y-82550000D01*
X139446000Y-80010000D02*
X134112000Y-80010000D01*
X161036000Y-108943000D02*
X157457000Y-108943000D01*
X157457000Y-108943000D02*
X157226000Y-108712000D01*
X157226000Y-108712000D02*
X157226000Y-104648000D01*
D18*
X198161999Y-69535999D02*
X198222000Y-69596000D01*
X160040899Y-69535999D02*
X171256001Y-69535999D01*
X158202898Y-71374000D02*
X160040899Y-69535999D01*
X157642956Y-71374000D02*
X158202898Y-71374000D01*
X155610956Y-73406000D02*
X157642956Y-71374000D01*
X131572000Y-73406000D02*
X152400000Y-73406000D01*
X152400000Y-73406000D02*
X155610956Y-73406000D01*
X171256001Y-69535999D02*
X177352001Y-69535999D01*
X177352001Y-69535999D02*
X198161999Y-69535999D01*
X198222000Y-89052000D02*
X198222000Y-100432000D01*
X198222000Y-80670000D02*
X198222000Y-89052000D01*
D17*
X160528000Y-101854000D02*
X154686000Y-101854000D01*
X154686000Y-101854000D02*
X150876000Y-98044000D01*
X160782000Y-102108000D02*
X160528000Y-101854000D01*
X160782000Y-105664000D02*
X160782000Y-102108000D01*
X164574334Y-72646010D02*
X161038010Y-72646010D01*
X158559480Y-75378480D02*
X157483960Y-76454000D01*
X161038010Y-72646010D02*
X158559480Y-75124540D01*
X158559480Y-75124540D02*
X158559480Y-75378480D01*
X157483960Y-76454000D02*
X150876000Y-76454000D01*
X167896010Y-72646010D02*
X164574334Y-72646010D01*
X168656000Y-73406000D02*
X167896010Y-72646010D01*
X191516000Y-92710000D02*
X192532000Y-93726000D01*
X173228000Y-92710000D02*
X191516000Y-92710000D01*
X172212000Y-93726000D02*
X173228000Y-92710000D01*
X167640000Y-92202000D02*
X169164000Y-93726000D01*
X169164000Y-93726000D02*
X172212000Y-93726000D01*
X189341182Y-95869182D02*
X187198000Y-93726000D01*
X187198000Y-93726000D02*
X185166000Y-93726000D01*
X159766000Y-98044000D02*
X171958000Y-98044000D01*
X159766000Y-98044000D02*
X156210000Y-94488000D01*
X156210000Y-94488000D02*
X156247000Y-94488000D01*
X156247000Y-94488000D02*
X156464000Y-94705000D01*
X175807010Y-71921010D02*
X176022000Y-72136000D01*
X170881999Y-71921009D02*
X171156990Y-72196000D01*
X160943949Y-71921009D02*
X170881999Y-71921009D01*
X157834479Y-75030479D02*
X160943949Y-71921009D01*
X175962000Y-72196000D02*
X176022000Y-72136000D01*
X171156990Y-72196000D02*
X175962000Y-72196000D01*
X158729010Y-100584000D02*
X154432000Y-100584000D01*
X151601001Y-97695999D02*
X151187002Y-97282000D01*
X154432000Y-100584000D02*
X151601001Y-97753001D01*
X151601001Y-97753001D02*
X151601001Y-97695999D01*
X151187002Y-97282000D02*
X151130000Y-97282000D01*
X151130000Y-97282000D02*
X150846597Y-96998597D01*
X172720000Y-84582000D02*
X148590000Y-84582000D01*
X172720000Y-84582000D02*
X172974000Y-84582000D01*
X172974000Y-84582000D02*
X176276000Y-81280000D01*
X192532000Y-102362000D02*
X193257001Y-101636999D01*
X167692997Y-88464999D02*
X167692997Y-88392000D01*
X173898589Y-91403001D02*
X193257001Y-91403001D01*
X172628589Y-92673001D02*
X173898589Y-91403001D01*
X170339999Y-92673001D02*
X172628589Y-92673001D01*
X167692997Y-90025999D02*
X170339999Y-92673001D01*
X167692997Y-88392000D02*
X167692997Y-90025999D01*
X193257001Y-101636999D02*
X193257001Y-91403001D01*
X182308991Y-93789009D02*
X182626000Y-93472000D01*
X182308991Y-103973731D02*
X182308991Y-93789009D01*
X185840270Y-107505010D02*
X182308991Y-103973731D01*
X192786000Y-105664000D02*
X190944990Y-107505010D01*
X190944990Y-107505010D02*
X185840270Y-107505010D01*
X193185999Y-84727999D02*
X193185999Y-87126741D01*
X192786000Y-84328000D02*
X193185999Y-84727999D01*
X193185999Y-87126741D02*
X191920740Y-88392000D01*
X191920740Y-88392000D02*
X175768000Y-88392000D01*
X176530000Y-109668000D02*
X154960990Y-109668000D01*
X154960990Y-109668000D02*
X146050000Y-100757010D01*
X146050000Y-100757010D02*
X146050000Y-89408000D01*
X149606000Y-83820000D02*
X172720000Y-83820000D01*
X177292000Y-79190998D02*
X177292000Y-77978000D01*
X172720000Y-83820000D02*
X172720000Y-83762998D01*
X172720000Y-83762998D02*
X177292000Y-79190998D01*
X193636008Y-87313142D02*
X192049150Y-88900000D01*
X192786000Y-75438000D02*
X193636009Y-76288009D01*
X193636009Y-76288009D02*
X193636008Y-87313142D01*
X189863590Y-88900000D02*
X189101590Y-89662000D01*
X192049150Y-88900000D02*
X189863590Y-88900000D01*
X189101590Y-89662000D02*
X174752000Y-89662000D01*
X164084000Y-97028000D02*
X172212000Y-97028000D01*
X172212000Y-97028000D02*
X175260000Y-97028000D01*
X175260000Y-97028000D02*
X175514000Y-96774000D01*
X160782000Y-97028000D02*
X164084000Y-97028000D01*
X159004000Y-95250000D02*
X160782000Y-97028000D01*
X164592000Y-83058000D02*
X172212000Y-83058000D01*
X156210000Y-83058000D02*
X164592000Y-83058000D01*
X176530000Y-93726000D02*
X176079990Y-94176010D01*
X176079990Y-94176010D02*
X168541008Y-94176010D01*
X163068000Y-88703002D02*
X157029002Y-88703002D01*
X157029002Y-88703002D02*
X156972000Y-88646000D01*
X163166499Y-88801501D02*
X163068000Y-88703002D01*
X168541008Y-94176010D02*
X163166499Y-88801501D01*
X165299108Y-82333000D02*
X172937000Y-82333000D01*
X172937000Y-82333000D02*
X172974000Y-82296000D01*
X159660445Y-99350999D02*
X155537990Y-95228544D01*
X167894000Y-103124000D02*
X164120999Y-99350999D01*
X164120999Y-99350999D02*
X159660445Y-99350999D01*
X155537990Y-95228544D02*
X155537990Y-95085990D01*
X155537990Y-95085990D02*
X154432000Y-93980000D01*
D20*
G36*
X123311470Y-66721361D02*
G01*
X123297308Y-66730823D01*
X122985124Y-67179519D01*
X125222000Y-69416395D01*
X127458876Y-67179519D01*
X127146692Y-66730823D01*
X126616973Y-66446000D01*
X145811167Y-66446000D01*
X145806141Y-66449358D01*
X145697358Y-66558141D01*
X145611887Y-66686058D01*
X145553013Y-66828191D01*
X145523000Y-66979078D01*
X145523000Y-67132922D01*
X145553013Y-67283809D01*
X145611887Y-67425942D01*
X145697358Y-67553859D01*
X145806141Y-67662642D01*
X145934058Y-67748113D01*
X146076191Y-67806987D01*
X146227078Y-67837000D01*
X146380922Y-67837000D01*
X146531809Y-67806987D01*
X146673942Y-67748113D01*
X146801859Y-67662642D01*
X146902501Y-67562000D01*
X155492409Y-67562000D01*
X156297523Y-68367115D01*
X156297523Y-68509445D01*
X156327536Y-68660332D01*
X156386410Y-68802465D01*
X156471881Y-68930382D01*
X156580664Y-69039165D01*
X156708581Y-69124636D01*
X156850714Y-69183510D01*
X157001601Y-69213523D01*
X157155445Y-69213523D01*
X157306332Y-69183510D01*
X157448465Y-69124636D01*
X157576382Y-69039165D01*
X157685165Y-68930382D01*
X157770636Y-68802465D01*
X157829510Y-68660332D01*
X157859523Y-68509445D01*
X157859523Y-68355601D01*
X157829510Y-68204714D01*
X157770636Y-68062581D01*
X157685165Y-67934664D01*
X157576382Y-67825881D01*
X157448465Y-67740410D01*
X157306332Y-67681536D01*
X157155445Y-67651523D01*
X157013115Y-67651523D01*
X156077376Y-66715785D01*
X156061527Y-66696473D01*
X155984479Y-66633241D01*
X155896575Y-66586255D01*
X155801193Y-66557322D01*
X155726854Y-66550000D01*
X155726846Y-66550000D01*
X155702000Y-66547553D01*
X155677154Y-66550000D01*
X146902501Y-66550000D01*
X146801859Y-66449358D01*
X146796833Y-66446000D01*
X196829705Y-66446000D01*
X196311470Y-66721361D01*
X196297308Y-66730823D01*
X195985124Y-67179519D01*
X198222000Y-69416395D01*
X200458876Y-67179519D01*
X200146692Y-66730823D01*
X199616973Y-66446000D01*
X211430000Y-66446000D01*
X211430001Y-115672000D01*
X199753565Y-115672000D01*
X200132530Y-115470639D01*
X200146692Y-115461177D01*
X200458876Y-115012481D01*
X198222000Y-112775605D01*
X195985124Y-115012481D01*
X196297308Y-115461177D01*
X196689401Y-115672000D01*
X126753565Y-115672000D01*
X127132530Y-115470639D01*
X127146692Y-115461177D01*
X127458876Y-115012481D01*
X125222000Y-112775605D01*
X122985124Y-115012481D01*
X123297308Y-115461177D01*
X123689401Y-115672000D01*
X112166000Y-115672000D01*
X112166000Y-112587484D01*
X121770390Y-112587484D01*
X121835051Y-113261023D01*
X122029870Y-113909006D01*
X122347361Y-114506530D01*
X122356823Y-114520692D01*
X122805519Y-114832876D01*
X125042395Y-112596000D01*
X125401605Y-112596000D01*
X127638481Y-114832876D01*
X128087177Y-114520692D01*
X128407612Y-113924741D01*
X128605626Y-113277727D01*
X128673610Y-112604516D01*
X128641304Y-112268000D01*
X132005964Y-112268000D01*
X132050005Y-112715154D01*
X132180435Y-113145124D01*
X132392242Y-113541387D01*
X132677286Y-113888714D01*
X133024613Y-114173758D01*
X133420876Y-114385565D01*
X133850846Y-114515995D01*
X134185950Y-114549000D01*
X138610050Y-114549000D01*
X138945154Y-114515995D01*
X139375124Y-114385565D01*
X139771387Y-114173758D01*
X140118714Y-113888714D01*
X140403758Y-113541387D01*
X140615565Y-113145124D01*
X140745995Y-112715154D01*
X140790036Y-112268000D01*
X140745995Y-111820846D01*
X140615565Y-111390876D01*
X140403758Y-110994613D01*
X140118714Y-110647286D01*
X139771387Y-110362242D01*
X139375124Y-110150435D01*
X138945154Y-110020005D01*
X138610050Y-109987000D01*
X134185950Y-109987000D01*
X133850846Y-110020005D01*
X133420876Y-110150435D01*
X133024613Y-110362242D01*
X132677286Y-110647286D01*
X132392242Y-110994613D01*
X132180435Y-111390876D01*
X132050005Y-111820846D01*
X132005964Y-112268000D01*
X128641304Y-112268000D01*
X128608949Y-111930977D01*
X128414130Y-111282994D01*
X128096639Y-110685470D01*
X128087177Y-110671308D01*
X127638481Y-110359124D01*
X125401605Y-112596000D01*
X125042395Y-112596000D01*
X122805519Y-110359124D01*
X122356823Y-110671308D01*
X122036388Y-111267259D01*
X121838374Y-111914273D01*
X121770390Y-112587484D01*
X112166000Y-112587484D01*
X112166000Y-110179519D01*
X122985124Y-110179519D01*
X125222000Y-112416395D01*
X127458876Y-110179519D01*
X127146692Y-109730823D01*
X126550741Y-109410388D01*
X125903727Y-109212374D01*
X125230516Y-109144390D01*
X124556977Y-109209051D01*
X123908994Y-109403870D01*
X123311470Y-109721361D01*
X123297308Y-109730823D01*
X122985124Y-110179519D01*
X112166000Y-110179519D01*
X112166000Y-106858080D01*
X130821525Y-106858080D01*
X130905208Y-107112261D01*
X131177775Y-107243158D01*
X131470642Y-107318365D01*
X131772553Y-107334991D01*
X132071907Y-107292397D01*
X132357199Y-107192222D01*
X132506792Y-107112261D01*
X132590475Y-106858080D01*
X131706000Y-105973605D01*
X130821525Y-106858080D01*
X112166000Y-106858080D01*
X112166000Y-105860553D01*
X130165009Y-105860553D01*
X130207603Y-106159907D01*
X130307778Y-106445199D01*
X130387739Y-106594792D01*
X130641920Y-106678475D01*
X131526395Y-105794000D01*
X131885605Y-105794000D01*
X132770080Y-106678475D01*
X133024261Y-106594792D01*
X133155158Y-106322225D01*
X133230365Y-106029358D01*
X133246991Y-105727447D01*
X133240240Y-105680000D01*
X142174657Y-105680000D01*
X142174657Y-107680000D01*
X142182013Y-107754689D01*
X142203799Y-107826508D01*
X142239178Y-107892696D01*
X142286789Y-107950711D01*
X142344804Y-107998322D01*
X142410992Y-108033701D01*
X142482811Y-108055487D01*
X142557500Y-108062843D01*
X144462500Y-108062843D01*
X144537189Y-108055487D01*
X144609008Y-108033701D01*
X144675196Y-107998322D01*
X144733211Y-107950711D01*
X144780822Y-107892696D01*
X144816201Y-107826508D01*
X144837987Y-107754689D01*
X144839365Y-107740702D01*
X144940563Y-107861315D01*
X145183077Y-108055969D01*
X145458906Y-108199571D01*
X145677020Y-108270563D01*
X145923000Y-108150594D01*
X145923000Y-106807000D01*
X145903000Y-106807000D01*
X145903000Y-106553000D01*
X145923000Y-106553000D01*
X145923000Y-105209406D01*
X145677020Y-105089437D01*
X145458906Y-105160429D01*
X145183077Y-105304031D01*
X144940563Y-105498685D01*
X144839365Y-105619298D01*
X144837987Y-105605311D01*
X144816201Y-105533492D01*
X144780822Y-105467304D01*
X144733211Y-105409289D01*
X144675196Y-105361678D01*
X144609008Y-105326299D01*
X144537189Y-105304513D01*
X144462500Y-105297157D01*
X142557500Y-105297157D01*
X142482811Y-105304513D01*
X142410992Y-105326299D01*
X142344804Y-105361678D01*
X142286789Y-105409289D01*
X142239178Y-105467304D01*
X142203799Y-105533492D01*
X142182013Y-105605311D01*
X142174657Y-105680000D01*
X133240240Y-105680000D01*
X133204397Y-105428093D01*
X133104222Y-105142801D01*
X133024261Y-104993208D01*
X132770080Y-104909525D01*
X131885605Y-105794000D01*
X131526395Y-105794000D01*
X130641920Y-104909525D01*
X130387739Y-104993208D01*
X130256842Y-105265775D01*
X130181635Y-105558642D01*
X130165009Y-105860553D01*
X112166000Y-105860553D01*
X112166000Y-103125999D01*
X114587157Y-103125999D01*
X114587157Y-104706001D01*
X114599317Y-104829462D01*
X114635329Y-104948179D01*
X114693810Y-105057589D01*
X114772512Y-105153488D01*
X114868411Y-105232190D01*
X114977821Y-105290671D01*
X115096538Y-105326683D01*
X115219999Y-105338843D01*
X118320001Y-105338843D01*
X118443462Y-105326683D01*
X118562179Y-105290671D01*
X118671589Y-105232190D01*
X118767488Y-105153488D01*
X118846190Y-105057589D01*
X118904671Y-104948179D01*
X118940683Y-104829462D01*
X118952843Y-104706001D01*
X118952843Y-104267833D01*
X122925000Y-104267833D01*
X122925000Y-104520167D01*
X122974228Y-104767654D01*
X123070793Y-105000781D01*
X123210982Y-105210590D01*
X123389410Y-105389018D01*
X123599219Y-105529207D01*
X123832346Y-105625772D01*
X124079833Y-105675000D01*
X124332167Y-105675000D01*
X124579654Y-105625772D01*
X124812781Y-105529207D01*
X125022590Y-105389018D01*
X125201018Y-105210590D01*
X125341207Y-105000781D01*
X125437772Y-104767654D01*
X125445277Y-104729920D01*
X130821525Y-104729920D01*
X131706000Y-105614395D01*
X132590475Y-104729920D01*
X132506792Y-104475739D01*
X132234225Y-104344842D01*
X131941358Y-104269635D01*
X131639447Y-104253009D01*
X131340093Y-104295603D01*
X131054801Y-104395778D01*
X130905208Y-104475739D01*
X130821525Y-104729920D01*
X125445277Y-104729920D01*
X125487000Y-104520167D01*
X125487000Y-104267833D01*
X125437772Y-104020346D01*
X125341207Y-103787219D01*
X125201018Y-103577410D01*
X125022590Y-103398982D01*
X124812781Y-103258793D01*
X124579654Y-103162228D01*
X124332167Y-103113000D01*
X124079833Y-103113000D01*
X123832346Y-103162228D01*
X123599219Y-103258793D01*
X123389410Y-103398982D01*
X123210982Y-103577410D01*
X123070793Y-103787219D01*
X122974228Y-104020346D01*
X122925000Y-104267833D01*
X118952843Y-104267833D01*
X118952843Y-103125999D01*
X118940683Y-103002538D01*
X118904671Y-102883821D01*
X118846190Y-102774411D01*
X118767488Y-102678512D01*
X118671589Y-102599810D01*
X118562179Y-102541329D01*
X118443462Y-102505317D01*
X118320001Y-102493157D01*
X115219999Y-102493157D01*
X115096538Y-102505317D01*
X114977821Y-102541329D01*
X114868411Y-102599810D01*
X114772512Y-102678512D01*
X114693810Y-102774411D01*
X114635329Y-102883821D01*
X114599317Y-103002538D01*
X114587157Y-103125999D01*
X112166000Y-103125999D01*
X112166000Y-99222710D01*
X114380252Y-99222710D01*
X114413901Y-99359663D01*
X114546731Y-99660984D01*
X114735794Y-99930602D01*
X114973824Y-100158155D01*
X115251673Y-100334898D01*
X115558664Y-100454039D01*
X115883000Y-100511000D01*
X116643000Y-100511000D01*
X116643000Y-98963000D01*
X116897000Y-98963000D01*
X116897000Y-100511000D01*
X117657000Y-100511000D01*
X117981336Y-100454039D01*
X118288327Y-100334898D01*
X118566176Y-100158155D01*
X118804206Y-99930602D01*
X118993269Y-99660984D01*
X119126099Y-99359663D01*
X119159748Y-99222710D01*
X119040922Y-98963000D01*
X116897000Y-98963000D01*
X116643000Y-98963000D01*
X114499078Y-98963000D01*
X114380252Y-99222710D01*
X112166000Y-99222710D01*
X112166000Y-98449290D01*
X114380252Y-98449290D01*
X114499078Y-98709000D01*
X116643000Y-98709000D01*
X116643000Y-97161000D01*
X116897000Y-97161000D01*
X116897000Y-98709000D01*
X119040922Y-98709000D01*
X119159748Y-98449290D01*
X119126099Y-98312337D01*
X118993269Y-98011016D01*
X118962459Y-97967078D01*
X134601000Y-97967078D01*
X134601000Y-98120922D01*
X134631013Y-98271809D01*
X134689887Y-98413942D01*
X134775358Y-98541859D01*
X134884141Y-98650642D01*
X135012058Y-98736113D01*
X135154191Y-98794987D01*
X135305078Y-98825000D01*
X135458922Y-98825000D01*
X135609809Y-98794987D01*
X135751942Y-98736113D01*
X135879859Y-98650642D01*
X135980501Y-98550000D01*
X139744409Y-98550000D01*
X144949631Y-103755223D01*
X144965473Y-103774526D01*
X144984776Y-103790368D01*
X146329458Y-105135050D01*
X146177000Y-105209406D01*
X146177000Y-106553000D01*
X146197000Y-106553000D01*
X146197000Y-106807000D01*
X146177000Y-106807000D01*
X146177000Y-108150594D01*
X146422980Y-108270563D01*
X146641094Y-108199571D01*
X146916923Y-108055969D01*
X147159437Y-107861315D01*
X147359316Y-107623089D01*
X147459270Y-107440879D01*
X147475871Y-107471937D01*
X147642512Y-107674989D01*
X147845564Y-107841629D01*
X148077224Y-107965454D01*
X148328589Y-108041705D01*
X148590000Y-108067452D01*
X148851412Y-108041705D01*
X149102777Y-107965454D01*
X149334437Y-107841629D01*
X149537489Y-107674989D01*
X149704129Y-107471936D01*
X149827954Y-107240276D01*
X149844419Y-107186000D01*
X149964409Y-107186000D01*
X152381000Y-109602592D01*
X152381000Y-109744922D01*
X152409261Y-109887000D01*
X145581037Y-109887000D01*
X145231243Y-109921452D01*
X145015160Y-109987000D01*
X143485950Y-109987000D01*
X143150846Y-110020005D01*
X142720876Y-110150435D01*
X142324613Y-110362242D01*
X141977286Y-110647286D01*
X141692242Y-110994613D01*
X141480435Y-111390876D01*
X141350005Y-111820846D01*
X141305964Y-112268000D01*
X141350005Y-112715154D01*
X141480435Y-113145124D01*
X141692242Y-113541387D01*
X141977286Y-113888714D01*
X142324613Y-114173758D01*
X142720876Y-114385565D01*
X143150846Y-114515995D01*
X143485950Y-114549000D01*
X145015160Y-114549000D01*
X145231243Y-114614548D01*
X145581037Y-114649000D01*
X191033042Y-114649000D01*
X191149998Y-114660519D01*
X191266954Y-114649000D01*
X191266961Y-114649000D01*
X191616755Y-114614548D01*
X192065576Y-114478400D01*
X192479211Y-114257308D01*
X192841765Y-113959767D01*
X192916332Y-113868907D01*
X194834713Y-111950527D01*
X194770390Y-112587484D01*
X194835051Y-113261023D01*
X195029870Y-113909006D01*
X195347361Y-114506530D01*
X195356823Y-114520692D01*
X195805519Y-114832876D01*
X198042395Y-112596000D01*
X198401605Y-112596000D01*
X200638481Y-114832876D01*
X201087177Y-114520692D01*
X201407612Y-113924741D01*
X201605626Y-113277727D01*
X201673610Y-112604516D01*
X201608949Y-111930977D01*
X201414130Y-111282994D01*
X201096639Y-110685470D01*
X201087177Y-110671308D01*
X200638481Y-110359124D01*
X198401605Y-112596000D01*
X198042395Y-112596000D01*
X198028253Y-112581858D01*
X198207858Y-112402253D01*
X198222000Y-112416395D01*
X200458876Y-110179519D01*
X200146692Y-109730823D01*
X199550741Y-109410388D01*
X199239059Y-109315000D01*
X202847758Y-109315000D01*
X204251674Y-110718917D01*
X204326233Y-110809767D01*
X204688787Y-111107308D01*
X205102422Y-111328400D01*
X205446782Y-111432860D01*
X205551242Y-111464548D01*
X205599650Y-111469316D01*
X205901037Y-111499000D01*
X205901043Y-111499000D01*
X206017999Y-111510519D01*
X206134955Y-111499000D01*
X207934963Y-111499000D01*
X208284757Y-111464548D01*
X208733578Y-111328400D01*
X209147213Y-111107308D01*
X209509767Y-110809767D01*
X209807308Y-110447213D01*
X210028400Y-110033578D01*
X210164548Y-109584757D01*
X210210520Y-109118000D01*
X210164548Y-108651243D01*
X210028400Y-108202422D01*
X209807308Y-107788787D01*
X209509767Y-107426233D01*
X209147213Y-107128692D01*
X208733578Y-106907600D01*
X208284757Y-106771452D01*
X207934963Y-106737000D01*
X207004242Y-106737000D01*
X206215000Y-105947758D01*
X206215000Y-105513032D01*
X206226520Y-105396066D01*
X206204857Y-105176110D01*
X206264715Y-105225235D01*
X206511576Y-105357184D01*
X206779435Y-105438439D01*
X206988196Y-105459000D01*
X208647804Y-105459000D01*
X208856565Y-105438439D01*
X209124424Y-105357184D01*
X209371285Y-105225235D01*
X209587660Y-105047660D01*
X209765235Y-104831285D01*
X209897184Y-104584424D01*
X209978439Y-104316565D01*
X210005875Y-104038000D01*
X209978439Y-103759435D01*
X209897184Y-103491576D01*
X209765235Y-103244715D01*
X209587660Y-103028340D01*
X209371285Y-102850765D01*
X209124424Y-102718816D01*
X208856565Y-102637561D01*
X208647804Y-102617000D01*
X207264175Y-102617000D01*
X208703718Y-101177458D01*
X208733578Y-101168400D01*
X209147213Y-100947308D01*
X209509767Y-100649767D01*
X209807308Y-100287213D01*
X210028400Y-99873578D01*
X210164548Y-99424757D01*
X210210520Y-98958000D01*
X210164548Y-98491243D01*
X210028400Y-98042422D01*
X209807308Y-97628787D01*
X209509767Y-97266233D01*
X209147213Y-96968692D01*
X208733578Y-96747600D01*
X208284757Y-96611452D01*
X207934963Y-96577000D01*
X207672889Y-96577000D01*
X207555933Y-96565481D01*
X207438977Y-96577000D01*
X207438971Y-96577000D01*
X207152238Y-96605241D01*
X207089176Y-96611452D01*
X206744135Y-96716119D01*
X206640356Y-96747600D01*
X206226721Y-96968692D01*
X206198990Y-96991450D01*
X206198990Y-95011296D01*
X206264715Y-95065235D01*
X206511576Y-95197184D01*
X206779435Y-95278439D01*
X206988196Y-95299000D01*
X208647804Y-95299000D01*
X208856565Y-95278439D01*
X209124424Y-95197184D01*
X209371285Y-95065235D01*
X209587660Y-94887660D01*
X209765235Y-94671285D01*
X209897184Y-94424424D01*
X209978439Y-94156565D01*
X210005875Y-93878000D01*
X209978439Y-93599435D01*
X209897184Y-93331576D01*
X209765235Y-93084715D01*
X209587660Y-92868340D01*
X209371285Y-92690765D01*
X209124424Y-92558816D01*
X208856565Y-92477561D01*
X208647804Y-92457000D01*
X207264175Y-92457000D01*
X208703718Y-91017458D01*
X208733578Y-91008400D01*
X209147213Y-90787308D01*
X209509767Y-90489767D01*
X209807308Y-90127213D01*
X210028400Y-89713578D01*
X210164548Y-89264757D01*
X210210520Y-88798000D01*
X210164548Y-88331243D01*
X210028400Y-87882422D01*
X209807308Y-87468787D01*
X209509767Y-87106233D01*
X209147213Y-86808692D01*
X208733578Y-86587600D01*
X208284757Y-86451452D01*
X207934963Y-86417000D01*
X207672889Y-86417000D01*
X207555933Y-86405481D01*
X207438977Y-86417000D01*
X207438971Y-86417000D01*
X207137584Y-86446684D01*
X207089176Y-86451452D01*
X206712356Y-86565759D01*
X206640356Y-86587600D01*
X206226721Y-86808692D01*
X206198990Y-86831450D01*
X206198990Y-84851296D01*
X206264715Y-84905235D01*
X206511576Y-85037184D01*
X206779435Y-85118439D01*
X206988196Y-85139000D01*
X208647804Y-85139000D01*
X208856565Y-85118439D01*
X209124424Y-85037184D01*
X209371285Y-84905235D01*
X209587660Y-84727660D01*
X209765235Y-84511285D01*
X209897184Y-84264424D01*
X209978439Y-83996565D01*
X210005875Y-83718000D01*
X209978439Y-83439435D01*
X209897184Y-83171576D01*
X209765235Y-82924715D01*
X209587660Y-82708340D01*
X209371285Y-82530765D01*
X209124424Y-82398816D01*
X208856565Y-82317561D01*
X208647804Y-82297000D01*
X207264175Y-82297000D01*
X208703718Y-80857458D01*
X208733578Y-80848400D01*
X209147213Y-80627308D01*
X209509767Y-80329767D01*
X209807308Y-79967213D01*
X210028400Y-79553578D01*
X210164548Y-79104757D01*
X210210520Y-78638000D01*
X210164548Y-78171243D01*
X210028400Y-77722422D01*
X209807308Y-77308787D01*
X209509767Y-76946233D01*
X209147213Y-76648692D01*
X208733578Y-76427600D01*
X208284757Y-76291452D01*
X207934963Y-76257000D01*
X207672889Y-76257000D01*
X207555933Y-76245481D01*
X207438977Y-76257000D01*
X207438971Y-76257000D01*
X207137584Y-76286684D01*
X207089176Y-76291452D01*
X206806905Y-76377078D01*
X206640356Y-76427600D01*
X206226721Y-76648692D01*
X205864167Y-76946233D01*
X205789604Y-77037088D01*
X202217083Y-80609610D01*
X202126223Y-80684177D01*
X201828682Y-81046732D01*
X201646270Y-81388002D01*
X201607590Y-81460367D01*
X201475307Y-81896448D01*
X201471442Y-81909188D01*
X201436990Y-82258982D01*
X201436990Y-82258988D01*
X201425471Y-82375944D01*
X201436990Y-82492900D01*
X201436991Y-92418972D01*
X201436990Y-92418982D01*
X201436990Y-92418988D01*
X201425471Y-92535944D01*
X201436990Y-92652900D01*
X201436991Y-102578971D01*
X201436990Y-102578981D01*
X201436990Y-102578988D01*
X201425471Y-102695944D01*
X201436990Y-102812900D01*
X201436990Y-104553000D01*
X196600953Y-104553000D01*
X196483997Y-104541481D01*
X196367041Y-104553000D01*
X196367035Y-104553000D01*
X196065648Y-104582684D01*
X196017240Y-104587452D01*
X195626436Y-104706001D01*
X195568420Y-104723600D01*
X195154785Y-104944692D01*
X195017220Y-105057589D01*
X194883887Y-105167013D01*
X194792231Y-105242233D01*
X194717673Y-105333082D01*
X190163757Y-109887000D01*
X177282739Y-109887000D01*
X177311000Y-109744922D01*
X177311000Y-109591078D01*
X177280987Y-109440191D01*
X177222113Y-109298058D01*
X177136642Y-109170141D01*
X177027859Y-109061358D01*
X176899942Y-108975887D01*
X176757809Y-108917013D01*
X176606922Y-108887000D01*
X176453078Y-108887000D01*
X176302191Y-108917013D01*
X176160058Y-108975887D01*
X176032141Y-109061358D01*
X175931499Y-109162000D01*
X155170582Y-109162000D01*
X146556000Y-100547419D01*
X146556000Y-96921675D01*
X150065597Y-96921675D01*
X150065597Y-97075519D01*
X150095610Y-97226406D01*
X150154484Y-97368539D01*
X150239955Y-97496456D01*
X150279499Y-97536000D01*
X150269358Y-97546141D01*
X150183887Y-97674058D01*
X150125013Y-97816191D01*
X150095000Y-97967078D01*
X150095000Y-98120922D01*
X150125013Y-98271809D01*
X150183887Y-98413942D01*
X150269358Y-98541859D01*
X150378141Y-98650642D01*
X150506058Y-98736113D01*
X150648191Y-98794987D01*
X150799078Y-98825000D01*
X150941409Y-98825000D01*
X154310628Y-102194220D01*
X154326473Y-102213527D01*
X154403521Y-102276759D01*
X154491425Y-102323745D01*
X154586807Y-102352678D01*
X154686000Y-102362448D01*
X154710854Y-102360000D01*
X159929499Y-102360000D01*
X160030141Y-102460642D01*
X160158058Y-102546113D01*
X160276001Y-102594967D01*
X160276000Y-105065499D01*
X160175358Y-105166141D01*
X160089887Y-105294058D01*
X160031013Y-105436191D01*
X160001000Y-105587078D01*
X160001000Y-105740922D01*
X160031013Y-105891809D01*
X160089887Y-106033942D01*
X160175358Y-106161859D01*
X160284141Y-106270642D01*
X160412058Y-106356113D01*
X160554191Y-106414987D01*
X160705078Y-106445000D01*
X160858922Y-106445000D01*
X161009809Y-106414987D01*
X161151942Y-106356113D01*
X161279859Y-106270642D01*
X161388642Y-106161859D01*
X161474113Y-106033942D01*
X161532987Y-105891809D01*
X161563000Y-105740922D01*
X161563000Y-105587078D01*
X161532987Y-105436191D01*
X161474113Y-105294058D01*
X161388642Y-105166141D01*
X161288000Y-105065499D01*
X161288000Y-102132845D01*
X161290447Y-102107999D01*
X161288000Y-102083153D01*
X161288000Y-102083146D01*
X161284927Y-102051946D01*
X161309000Y-101930922D01*
X161309000Y-101777078D01*
X161278987Y-101626191D01*
X161220113Y-101484058D01*
X161219400Y-101482992D01*
X166886728Y-107150320D01*
X166889013Y-107161809D01*
X166947887Y-107303942D01*
X167033358Y-107431859D01*
X167142141Y-107540642D01*
X167270058Y-107626113D01*
X167412191Y-107684987D01*
X167563078Y-107715000D01*
X167716922Y-107715000D01*
X167867809Y-107684987D01*
X168009942Y-107626113D01*
X168020470Y-107619078D01*
X178543000Y-107619078D01*
X178543000Y-107772922D01*
X178573013Y-107923809D01*
X178631887Y-108065942D01*
X178717358Y-108193859D01*
X178826141Y-108302642D01*
X178954058Y-108388113D01*
X179096191Y-108446987D01*
X179247078Y-108477000D01*
X179400922Y-108477000D01*
X179551809Y-108446987D01*
X179693942Y-108388113D01*
X179821859Y-108302642D01*
X179930642Y-108193859D01*
X180016113Y-108065942D01*
X180074987Y-107923809D01*
X180105000Y-107772922D01*
X180105000Y-107619078D01*
X180074987Y-107468191D01*
X180016113Y-107326058D01*
X179930642Y-107198141D01*
X179821859Y-107089358D01*
X179693942Y-107003887D01*
X179551809Y-106945013D01*
X179400922Y-106915000D01*
X179247078Y-106915000D01*
X179096191Y-106945013D01*
X178954058Y-107003887D01*
X178826141Y-107089358D01*
X178717358Y-107198141D01*
X178631887Y-107326058D01*
X178573013Y-107468191D01*
X178543000Y-107619078D01*
X168020470Y-107619078D01*
X168137859Y-107540642D01*
X168246642Y-107431859D01*
X168332113Y-107303942D01*
X168390987Y-107161809D01*
X168421000Y-107010922D01*
X168421000Y-106857078D01*
X168390987Y-106706191D01*
X168332113Y-106564058D01*
X168246642Y-106436141D01*
X168137859Y-106327358D01*
X168009942Y-106241887D01*
X167867809Y-106183013D01*
X167716922Y-106153000D01*
X167563078Y-106153000D01*
X167412191Y-106183013D01*
X167368643Y-106201051D01*
X161309000Y-100141409D01*
X161309000Y-99999078D01*
X161280739Y-99856999D01*
X163911408Y-99856999D01*
X167113000Y-103058592D01*
X167113000Y-103200922D01*
X167143013Y-103351809D01*
X167201887Y-103493942D01*
X167287358Y-103621859D01*
X167396141Y-103730642D01*
X167524058Y-103816113D01*
X167666191Y-103874987D01*
X167817078Y-103905000D01*
X167970922Y-103905000D01*
X168121809Y-103874987D01*
X168263942Y-103816113D01*
X168391859Y-103730642D01*
X168500642Y-103621859D01*
X168586113Y-103493942D01*
X168644987Y-103351809D01*
X168675000Y-103200922D01*
X168675000Y-103047078D01*
X168644987Y-102896191D01*
X168586113Y-102754058D01*
X168500642Y-102626141D01*
X168391859Y-102517358D01*
X168263942Y-102431887D01*
X168121809Y-102373013D01*
X167970922Y-102343000D01*
X167828592Y-102343000D01*
X165992670Y-100507078D01*
X170161000Y-100507078D01*
X170161000Y-100660922D01*
X170191013Y-100811809D01*
X170249887Y-100953942D01*
X170335358Y-101081859D01*
X170444141Y-101190642D01*
X170572058Y-101276113D01*
X170714191Y-101334987D01*
X170865078Y-101365000D01*
X171007409Y-101365000D01*
X173738001Y-104095593D01*
X173738000Y-105319499D01*
X173637358Y-105420141D01*
X173551887Y-105548058D01*
X173493013Y-105690191D01*
X173463000Y-105841078D01*
X173463000Y-105994922D01*
X173493013Y-106145809D01*
X173551887Y-106287942D01*
X173637358Y-106415859D01*
X173746141Y-106524642D01*
X173874058Y-106610113D01*
X174016191Y-106668987D01*
X174167078Y-106699000D01*
X174320922Y-106699000D01*
X174471809Y-106668987D01*
X174613942Y-106610113D01*
X174741859Y-106524642D01*
X174850642Y-106415859D01*
X174936113Y-106287942D01*
X174994987Y-106145809D01*
X175025000Y-105994922D01*
X175025000Y-105841078D01*
X174994987Y-105690191D01*
X174936113Y-105548058D01*
X174850642Y-105420141D01*
X174750000Y-105319499D01*
X174750000Y-103910845D01*
X174752447Y-103885999D01*
X174750000Y-103861153D01*
X174750000Y-103861146D01*
X174742678Y-103786807D01*
X174740358Y-103779157D01*
X174713745Y-103691425D01*
X174681981Y-103632000D01*
X174666759Y-103603521D01*
X174603527Y-103526473D01*
X174584220Y-103510628D01*
X171723000Y-100649409D01*
X171723000Y-100507078D01*
X171692987Y-100356191D01*
X171634113Y-100214058D01*
X171548642Y-100086141D01*
X171439859Y-99977358D01*
X171311942Y-99891887D01*
X171169809Y-99833013D01*
X171018922Y-99803000D01*
X170865078Y-99803000D01*
X170714191Y-99833013D01*
X170572058Y-99891887D01*
X170444141Y-99977358D01*
X170335358Y-100086141D01*
X170249887Y-100214058D01*
X170191013Y-100356191D01*
X170161000Y-100507078D01*
X165992670Y-100507078D01*
X164496375Y-99010784D01*
X164480526Y-98991472D01*
X164403478Y-98928240D01*
X164315574Y-98881254D01*
X164220192Y-98852321D01*
X164145853Y-98844999D01*
X164145845Y-98844999D01*
X164120999Y-98842552D01*
X164096153Y-98844999D01*
X159870037Y-98844999D01*
X159501300Y-98476262D01*
X159571425Y-98513745D01*
X159644607Y-98535944D01*
X159666806Y-98542678D01*
X159676694Y-98543652D01*
X159741146Y-98550000D01*
X159741153Y-98550000D01*
X159765999Y-98552447D01*
X159790845Y-98550000D01*
X171359499Y-98550000D01*
X171460141Y-98650642D01*
X171588058Y-98736113D01*
X171730191Y-98794987D01*
X171881078Y-98825000D01*
X172034922Y-98825000D01*
X172185809Y-98794987D01*
X172327942Y-98736113D01*
X172455859Y-98650642D01*
X172564642Y-98541859D01*
X172650113Y-98413942D01*
X172708987Y-98271809D01*
X172739000Y-98120922D01*
X172739000Y-97967078D01*
X172708987Y-97816191D01*
X172650113Y-97674058D01*
X172564642Y-97546141D01*
X172552501Y-97534000D01*
X175235154Y-97534000D01*
X175260000Y-97536447D01*
X175284846Y-97534000D01*
X175284854Y-97534000D01*
X175316054Y-97530927D01*
X175437078Y-97555000D01*
X175590922Y-97555000D01*
X175741809Y-97524987D01*
X175883942Y-97466113D01*
X176011859Y-97380642D01*
X176120642Y-97271859D01*
X176206113Y-97143942D01*
X176264987Y-97001809D01*
X176295000Y-96850922D01*
X176295000Y-96697078D01*
X176264987Y-96546191D01*
X176206113Y-96404058D01*
X176120642Y-96276141D01*
X176011859Y-96167358D01*
X175883942Y-96081887D01*
X175741809Y-96023013D01*
X175590922Y-95993000D01*
X175437078Y-95993000D01*
X175286191Y-96023013D01*
X175144058Y-96081887D01*
X175016141Y-96167358D01*
X174907358Y-96276141D01*
X174821887Y-96404058D01*
X174773033Y-96522000D01*
X169504501Y-96522000D01*
X169516642Y-96509859D01*
X169602113Y-96381942D01*
X169660987Y-96239809D01*
X169691000Y-96088922D01*
X169691000Y-95935078D01*
X169660987Y-95784191D01*
X169602113Y-95642058D01*
X169516642Y-95514141D01*
X169407859Y-95405358D01*
X169279942Y-95319887D01*
X169137809Y-95261013D01*
X168986922Y-95231000D01*
X168844592Y-95231000D01*
X168269376Y-94655785D01*
X168253527Y-94636473D01*
X168176479Y-94573241D01*
X168088575Y-94526255D01*
X167993193Y-94497322D01*
X167918854Y-94490000D01*
X167918846Y-94490000D01*
X167894000Y-94487553D01*
X167869154Y-94490000D01*
X162904501Y-94490000D01*
X162803859Y-94389358D01*
X162675942Y-94303887D01*
X162533809Y-94245013D01*
X162382922Y-94215000D01*
X162229078Y-94215000D01*
X162078191Y-94245013D01*
X161936058Y-94303887D01*
X161808141Y-94389358D01*
X161699358Y-94498141D01*
X161613887Y-94626058D01*
X161555013Y-94768191D01*
X161525000Y-94919078D01*
X161525000Y-95072922D01*
X161555013Y-95223809D01*
X161613887Y-95365942D01*
X161699358Y-95493859D01*
X161808141Y-95602642D01*
X161936058Y-95688113D01*
X162078191Y-95746987D01*
X162229078Y-95777000D01*
X162382922Y-95777000D01*
X162533809Y-95746987D01*
X162675942Y-95688113D01*
X162803859Y-95602642D01*
X162904501Y-95502000D01*
X167684409Y-95502000D01*
X168129000Y-95946592D01*
X168129000Y-96088922D01*
X168159013Y-96239809D01*
X168217887Y-96381942D01*
X168303358Y-96509859D01*
X168315499Y-96522000D01*
X164682501Y-96522000D01*
X164581859Y-96421358D01*
X164453942Y-96335887D01*
X164311809Y-96277013D01*
X164160922Y-96247000D01*
X164007078Y-96247000D01*
X163856191Y-96277013D01*
X163714058Y-96335887D01*
X163586141Y-96421358D01*
X163485499Y-96522000D01*
X160991592Y-96522000D01*
X159785000Y-95315409D01*
X159785000Y-95173078D01*
X159754987Y-95022191D01*
X159696113Y-94880058D01*
X159610642Y-94752141D01*
X159501859Y-94643358D01*
X159373942Y-94557887D01*
X159231809Y-94499013D01*
X159080922Y-94469000D01*
X158927078Y-94469000D01*
X158776191Y-94499013D01*
X158634058Y-94557887D01*
X158506141Y-94643358D01*
X158397358Y-94752141D01*
X158311887Y-94880058D01*
X158253013Y-95022191D01*
X158223000Y-95173078D01*
X158223000Y-95326922D01*
X158253013Y-95477809D01*
X158311887Y-95619942D01*
X158397358Y-95747859D01*
X158506141Y-95856642D01*
X158634058Y-95942113D01*
X158776191Y-96000987D01*
X158927078Y-96031000D01*
X159069409Y-96031000D01*
X160406628Y-97368220D01*
X160422473Y-97387527D01*
X160499521Y-97450759D01*
X160587425Y-97497745D01*
X160682807Y-97526678D01*
X160782000Y-97536448D01*
X160806854Y-97534000D01*
X163485499Y-97534000D01*
X163489499Y-97538000D01*
X159975592Y-97538000D01*
X157240772Y-94803180D01*
X157245000Y-94781922D01*
X157245000Y-94628078D01*
X157214987Y-94477191D01*
X157156113Y-94335058D01*
X157070642Y-94207141D01*
X156961859Y-94098358D01*
X156833942Y-94012887D01*
X156691809Y-93954013D01*
X156540922Y-93924000D01*
X156387078Y-93924000D01*
X156236191Y-93954013D01*
X156163471Y-93984135D01*
X156110807Y-93989322D01*
X156015425Y-94018255D01*
X155927521Y-94065241D01*
X155850473Y-94128473D01*
X155787241Y-94205521D01*
X155740255Y-94293425D01*
X155711322Y-94388807D01*
X155701552Y-94488000D01*
X155704636Y-94519307D01*
X155701693Y-94534101D01*
X155213000Y-94045409D01*
X155213000Y-93903078D01*
X155182987Y-93752191D01*
X155124113Y-93610058D01*
X155038642Y-93482141D01*
X154929859Y-93373358D01*
X154801942Y-93287887D01*
X154659809Y-93229013D01*
X154508922Y-93199000D01*
X154355078Y-93199000D01*
X154204191Y-93229013D01*
X154062058Y-93287887D01*
X153934141Y-93373358D01*
X153825358Y-93482141D01*
X153739887Y-93610058D01*
X153681013Y-93752191D01*
X153651000Y-93903078D01*
X153651000Y-94056922D01*
X153681013Y-94207809D01*
X153739887Y-94349942D01*
X153825358Y-94477859D01*
X153934141Y-94586642D01*
X154062058Y-94672113D01*
X154204191Y-94730987D01*
X154355078Y-94761000D01*
X154497409Y-94761000D01*
X155036599Y-95300191D01*
X155039312Y-95327736D01*
X155068245Y-95423118D01*
X155115231Y-95511023D01*
X155178463Y-95588071D01*
X155197775Y-95603920D01*
X159285073Y-99691219D01*
X159300918Y-99710526D01*
X159377966Y-99773758D01*
X159432674Y-99803000D01*
X159465870Y-99820744D01*
X159561252Y-99849677D01*
X159660445Y-99859447D01*
X159685299Y-99856999D01*
X159775261Y-99856999D01*
X159747000Y-99999078D01*
X159747000Y-100152922D01*
X159777013Y-100303809D01*
X159835887Y-100445942D01*
X159921358Y-100573859D01*
X160030141Y-100682642D01*
X160158058Y-100768113D01*
X160300191Y-100826987D01*
X160451078Y-100857000D01*
X160593409Y-100857000D01*
X160899009Y-101162600D01*
X160897942Y-101161887D01*
X160755809Y-101103013D01*
X160604922Y-101073000D01*
X160451078Y-101073000D01*
X160300191Y-101103013D01*
X160158058Y-101161887D01*
X160030141Y-101247358D01*
X159929499Y-101348000D01*
X158891398Y-101348000D01*
X158956819Y-101334987D01*
X159098952Y-101276113D01*
X159226869Y-101190642D01*
X159335652Y-101081859D01*
X159421123Y-100953942D01*
X159479997Y-100811809D01*
X159510010Y-100660922D01*
X159510010Y-100507078D01*
X159479997Y-100356191D01*
X159421123Y-100214058D01*
X159335652Y-100086141D01*
X159226869Y-99977358D01*
X159098952Y-99891887D01*
X158956819Y-99833013D01*
X158805932Y-99803000D01*
X158652088Y-99803000D01*
X158501201Y-99833013D01*
X158359068Y-99891887D01*
X158231151Y-99977358D01*
X158130509Y-100078000D01*
X154641592Y-100078000D01*
X152073241Y-97509650D01*
X152070746Y-97501424D01*
X152051871Y-97466113D01*
X152023760Y-97413520D01*
X151960528Y-97336472D01*
X151941221Y-97320627D01*
X151627597Y-97007004D01*
X151627597Y-96921675D01*
X151597584Y-96770788D01*
X151538710Y-96628655D01*
X151453239Y-96500738D01*
X151344456Y-96391955D01*
X151216539Y-96306484D01*
X151074406Y-96247610D01*
X150923519Y-96217597D01*
X150769675Y-96217597D01*
X150618788Y-96247610D01*
X150476655Y-96306484D01*
X150348738Y-96391955D01*
X150239955Y-96500738D01*
X150154484Y-96628655D01*
X150095610Y-96770788D01*
X150065597Y-96921675D01*
X146556000Y-96921675D01*
X146556000Y-90006501D01*
X146656642Y-89905859D01*
X146742113Y-89777942D01*
X146800987Y-89635809D01*
X146831000Y-89484922D01*
X146831000Y-89331078D01*
X146802739Y-89188999D01*
X148417408Y-89188999D01*
X151111000Y-91882592D01*
X151111000Y-92024922D01*
X151141013Y-92175809D01*
X151199887Y-92317942D01*
X151285358Y-92445859D01*
X151394141Y-92554642D01*
X151522058Y-92640113D01*
X151664191Y-92698987D01*
X151815078Y-92729000D01*
X151968922Y-92729000D01*
X152119809Y-92698987D01*
X152261942Y-92640113D01*
X152389859Y-92554642D01*
X152490501Y-92454000D01*
X161707499Y-92454000D01*
X161808141Y-92554642D01*
X161936058Y-92640113D01*
X162078191Y-92698987D01*
X162229078Y-92729000D01*
X162382922Y-92729000D01*
X162533809Y-92698987D01*
X162675942Y-92640113D01*
X162803859Y-92554642D01*
X162912642Y-92445859D01*
X162998113Y-92317942D01*
X163056987Y-92175809D01*
X163087000Y-92024922D01*
X163087000Y-91871078D01*
X163056987Y-91720191D01*
X162998113Y-91578058D01*
X162912642Y-91450141D01*
X162803859Y-91341358D01*
X162675942Y-91255887D01*
X162533809Y-91197013D01*
X162382922Y-91167000D01*
X162229078Y-91167000D01*
X162078191Y-91197013D01*
X161936058Y-91255887D01*
X161808141Y-91341358D01*
X161707499Y-91442000D01*
X152490501Y-91442000D01*
X152389859Y-91341358D01*
X152261942Y-91255887D01*
X152119809Y-91197013D01*
X151968922Y-91167000D01*
X151826592Y-91167000D01*
X149228670Y-88569078D01*
X156191000Y-88569078D01*
X156191000Y-88722922D01*
X156221013Y-88873809D01*
X156279887Y-89015942D01*
X156365358Y-89143859D01*
X156474141Y-89252642D01*
X156602058Y-89338113D01*
X156744191Y-89396987D01*
X156895078Y-89427000D01*
X157048922Y-89427000D01*
X157199809Y-89396987D01*
X157341942Y-89338113D01*
X157469859Y-89252642D01*
X157513499Y-89209002D01*
X162469499Y-89209002D01*
X162570141Y-89309644D01*
X162698058Y-89395115D01*
X162840191Y-89453989D01*
X162991078Y-89484002D01*
X163133409Y-89484002D01*
X168165636Y-94516230D01*
X168181481Y-94535537D01*
X168258529Y-94598769D01*
X168329068Y-94636473D01*
X168346433Y-94645755D01*
X168441815Y-94674688D01*
X168541008Y-94684458D01*
X168565862Y-94682010D01*
X176055144Y-94682010D01*
X176079990Y-94684457D01*
X176104836Y-94682010D01*
X176104844Y-94682010D01*
X176179183Y-94674688D01*
X176274565Y-94645755D01*
X176362469Y-94598769D01*
X176439517Y-94535537D01*
X176455366Y-94516225D01*
X176464591Y-94507000D01*
X176606922Y-94507000D01*
X176757809Y-94476987D01*
X176899942Y-94418113D01*
X177027859Y-94332642D01*
X177136642Y-94223859D01*
X177222113Y-94095942D01*
X177280987Y-93953809D01*
X177311000Y-93802922D01*
X177311000Y-93649078D01*
X177280987Y-93498191D01*
X177222113Y-93356058D01*
X177136642Y-93228141D01*
X177124501Y-93216000D01*
X181886690Y-93216000D01*
X181875013Y-93244191D01*
X181845000Y-93395078D01*
X181845000Y-93548922D01*
X181850037Y-93574246D01*
X181839246Y-93594435D01*
X181810313Y-93689817D01*
X181800544Y-93789009D01*
X181802992Y-93813865D01*
X181802992Y-95933372D01*
X181780871Y-95822164D01*
X181631539Y-95461645D01*
X181414743Y-95137186D01*
X181138814Y-94861257D01*
X180814355Y-94644461D01*
X180453836Y-94495129D01*
X180071111Y-94419000D01*
X179680889Y-94419000D01*
X179298164Y-94495129D01*
X178937645Y-94644461D01*
X178613186Y-94861257D01*
X178337257Y-95137186D01*
X178120461Y-95461645D01*
X177971129Y-95822164D01*
X177895000Y-96204889D01*
X177895000Y-96595111D01*
X177971129Y-96977836D01*
X178120461Y-97338355D01*
X178337257Y-97662814D01*
X178613186Y-97938743D01*
X178937645Y-98155539D01*
X179298164Y-98304871D01*
X179680889Y-98381000D01*
X180071111Y-98381000D01*
X180453836Y-98304871D01*
X180814355Y-98155539D01*
X181138814Y-97938743D01*
X181414743Y-97662814D01*
X181631539Y-97338355D01*
X181780871Y-96977836D01*
X181802992Y-96866628D01*
X181802991Y-103948885D01*
X181800544Y-103973731D01*
X181802991Y-103998577D01*
X181802991Y-103998584D01*
X181810313Y-104072923D01*
X181839246Y-104168305D01*
X181886232Y-104256210D01*
X181949464Y-104333258D01*
X181968776Y-104349107D01*
X185464898Y-107845230D01*
X185480743Y-107864537D01*
X185557791Y-107927769D01*
X185645695Y-107974755D01*
X185741077Y-108003688D01*
X185840270Y-108013458D01*
X185865124Y-108011010D01*
X190920144Y-108011010D01*
X190944990Y-108013457D01*
X190969836Y-108011010D01*
X190969844Y-108011010D01*
X191044183Y-108003688D01*
X191139565Y-107974755D01*
X191227469Y-107927769D01*
X191304517Y-107864537D01*
X191320366Y-107845225D01*
X192720592Y-106445000D01*
X192862922Y-106445000D01*
X193013809Y-106414987D01*
X193155942Y-106356113D01*
X193283859Y-106270642D01*
X193392642Y-106161859D01*
X193478113Y-106033942D01*
X193536987Y-105891809D01*
X193567000Y-105740922D01*
X193567000Y-105587078D01*
X193536987Y-105436191D01*
X193478113Y-105294058D01*
X193392642Y-105166141D01*
X193283859Y-105057358D01*
X193155942Y-104971887D01*
X193013809Y-104913013D01*
X192862922Y-104883000D01*
X192780922Y-104883000D01*
X193185559Y-104478363D01*
X193268068Y-104377826D01*
X193349875Y-104224775D01*
X193400251Y-104058706D01*
X193417262Y-103886000D01*
X193400251Y-103713294D01*
X193349875Y-103547225D01*
X193268068Y-103394175D01*
X193157974Y-103260026D01*
X193023825Y-103149932D01*
X192870775Y-103068125D01*
X192869239Y-103067659D01*
X192901942Y-103054113D01*
X193029859Y-102968642D01*
X193138642Y-102859859D01*
X193224113Y-102731942D01*
X193282987Y-102589809D01*
X193313000Y-102438922D01*
X193313000Y-102296592D01*
X193597221Y-102012371D01*
X193616528Y-101996526D01*
X193679760Y-101919478D01*
X193726746Y-101831574D01*
X193742279Y-101780367D01*
X193755679Y-101736193D01*
X193760697Y-101685241D01*
X193763001Y-101661853D01*
X193763001Y-101661846D01*
X193765448Y-101637000D01*
X193763001Y-101612154D01*
X193763001Y-91427855D01*
X193765449Y-91403001D01*
X193755679Y-91303808D01*
X193726746Y-91208426D01*
X193679760Y-91120522D01*
X193616528Y-91043474D01*
X193539480Y-90980242D01*
X193451576Y-90933256D01*
X193356194Y-90904323D01*
X193281855Y-90897001D01*
X193257001Y-90894553D01*
X193232147Y-90897001D01*
X173923434Y-90897001D01*
X173898588Y-90894554D01*
X173873742Y-90897001D01*
X173873735Y-90897001D01*
X173809283Y-90903349D01*
X173799395Y-90904323D01*
X173704014Y-90933256D01*
X173616110Y-90980242D01*
X173539062Y-91043474D01*
X173523217Y-91062781D01*
X172418998Y-92167001D01*
X170549591Y-92167001D01*
X168198997Y-89816408D01*
X168198997Y-89585078D01*
X173971000Y-89585078D01*
X173971000Y-89738922D01*
X174001013Y-89889809D01*
X174059887Y-90031942D01*
X174145358Y-90159859D01*
X174254141Y-90268642D01*
X174382058Y-90354113D01*
X174524191Y-90412987D01*
X174675078Y-90443000D01*
X174828922Y-90443000D01*
X174979809Y-90412987D01*
X175121942Y-90354113D01*
X175249859Y-90268642D01*
X175350501Y-90168000D01*
X189076744Y-90168000D01*
X189101590Y-90170447D01*
X189126436Y-90168000D01*
X189126444Y-90168000D01*
X189200783Y-90160678D01*
X189296165Y-90131745D01*
X189384069Y-90084759D01*
X189461117Y-90021527D01*
X189476966Y-90002215D01*
X190073182Y-89406000D01*
X192024304Y-89406000D01*
X192049150Y-89408447D01*
X192073996Y-89406000D01*
X192074004Y-89406000D01*
X192148343Y-89398678D01*
X192243725Y-89369745D01*
X192331629Y-89322759D01*
X192408677Y-89259527D01*
X192424526Y-89240215D01*
X193976233Y-87688509D01*
X193995534Y-87672669D01*
X194011374Y-87653368D01*
X194011378Y-87653364D01*
X194058766Y-87595621D01*
X194105753Y-87507717D01*
X194134686Y-87412336D01*
X194144455Y-87313143D01*
X194142007Y-87288286D01*
X194142009Y-76312855D01*
X194144456Y-76288008D01*
X194142009Y-76263162D01*
X194142009Y-76263156D01*
X194136635Y-76208590D01*
X194134687Y-76188815D01*
X194111925Y-76113779D01*
X194105754Y-76093435D01*
X194058768Y-76005531D01*
X194041307Y-75984255D01*
X194011379Y-75947787D01*
X194011376Y-75947784D01*
X193995536Y-75928483D01*
X193976235Y-75912643D01*
X193567000Y-75503409D01*
X193567000Y-75361078D01*
X193536987Y-75210191D01*
X193478113Y-75068058D01*
X193465379Y-75049000D01*
X194861273Y-75049000D01*
X194990706Y-75036252D01*
X195156775Y-74985875D01*
X195309825Y-74904068D01*
X195443975Y-74793975D01*
X195554068Y-74659825D01*
X195635875Y-74506775D01*
X195686252Y-74340706D01*
X195703262Y-74168000D01*
X195686252Y-73995294D01*
X195635875Y-73829225D01*
X195554068Y-73676175D01*
X195457086Y-73558000D01*
X205630125Y-73558000D01*
X205657561Y-73836565D01*
X205738816Y-74104424D01*
X205870765Y-74351285D01*
X206048340Y-74567660D01*
X206264715Y-74745235D01*
X206511576Y-74877184D01*
X206779435Y-74958439D01*
X206988196Y-74979000D01*
X208647804Y-74979000D01*
X208856565Y-74958439D01*
X209124424Y-74877184D01*
X209371285Y-74745235D01*
X209587660Y-74567660D01*
X209765235Y-74351285D01*
X209897184Y-74104424D01*
X209978439Y-73836565D01*
X210005875Y-73558000D01*
X209978439Y-73279435D01*
X209897184Y-73011576D01*
X209765235Y-72764715D01*
X209587660Y-72548340D01*
X209371285Y-72370765D01*
X209124424Y-72238816D01*
X208856565Y-72157561D01*
X208647804Y-72137000D01*
X206988196Y-72137000D01*
X206779435Y-72157561D01*
X206511576Y-72238816D01*
X206264715Y-72370765D01*
X206048340Y-72548340D01*
X205870765Y-72764715D01*
X205738816Y-73011576D01*
X205657561Y-73279435D01*
X205630125Y-73558000D01*
X195457086Y-73558000D01*
X195443975Y-73542025D01*
X195309825Y-73431932D01*
X195156775Y-73350125D01*
X194990706Y-73299748D01*
X194861273Y-73287000D01*
X185784922Y-73287000D01*
X184510403Y-72012481D01*
X195985124Y-72012481D01*
X196297308Y-72461177D01*
X196893259Y-72781612D01*
X197540273Y-72979626D01*
X198213484Y-73047610D01*
X198887023Y-72982949D01*
X199535006Y-72788130D01*
X200132530Y-72470639D01*
X200146692Y-72461177D01*
X200458876Y-72012481D01*
X198222000Y-69775605D01*
X195985124Y-72012481D01*
X184510403Y-72012481D01*
X184234362Y-71736441D01*
X184133825Y-71653932D01*
X183980774Y-71572125D01*
X183814705Y-71521749D01*
X183642000Y-71504738D01*
X183469295Y-71521749D01*
X183303226Y-71572125D01*
X183150175Y-71653932D01*
X183016026Y-71764026D01*
X182905932Y-71898175D01*
X182824125Y-72051226D01*
X182773749Y-72217295D01*
X182756738Y-72390000D01*
X182773749Y-72562705D01*
X182824125Y-72728774D01*
X182905932Y-72881825D01*
X182988441Y-72982362D01*
X184766439Y-74760361D01*
X184794025Y-74793975D01*
X184852619Y-74842061D01*
X184928174Y-74904068D01*
X185029896Y-74958439D01*
X185081225Y-74985875D01*
X185247294Y-75036252D01*
X185376727Y-75049000D01*
X185376730Y-75049000D01*
X185420000Y-75053262D01*
X185463270Y-75049000D01*
X192106621Y-75049000D01*
X192093887Y-75068058D01*
X192035013Y-75210191D01*
X192005000Y-75361078D01*
X192005000Y-75514922D01*
X192035013Y-75665809D01*
X192093887Y-75807942D01*
X192179358Y-75935859D01*
X192288141Y-76044642D01*
X192416058Y-76130113D01*
X192558191Y-76188987D01*
X192709078Y-76219000D01*
X192851409Y-76219000D01*
X193130010Y-76497602D01*
X193130010Y-78938259D01*
X193058118Y-78830665D01*
X192949335Y-78721882D01*
X192821418Y-78636411D01*
X192679285Y-78577537D01*
X192528398Y-78547524D01*
X192374554Y-78547524D01*
X192223667Y-78577537D01*
X192081534Y-78636411D01*
X191953617Y-78721882D01*
X191844834Y-78830665D01*
X191759363Y-78958582D01*
X191700489Y-79100715D01*
X191670476Y-79251602D01*
X191670476Y-79397244D01*
X191638241Y-79436522D01*
X191623690Y-79463745D01*
X191591254Y-79524427D01*
X191562321Y-79619809D01*
X191552552Y-79719001D01*
X191555000Y-79743857D01*
X191554999Y-84391077D01*
X187089566Y-79925645D01*
X187061975Y-79892025D01*
X186927825Y-79781932D01*
X186774775Y-79700125D01*
X186608706Y-79649748D01*
X186479273Y-79637000D01*
X186479270Y-79637000D01*
X186436000Y-79632738D01*
X186392730Y-79637000D01*
X185630727Y-79637000D01*
X185501294Y-79649748D01*
X185335225Y-79700125D01*
X185182175Y-79781932D01*
X185048025Y-79892025D01*
X184937932Y-80026175D01*
X184856125Y-80179225D01*
X184805748Y-80345294D01*
X184788738Y-80518000D01*
X184805748Y-80690706D01*
X184856125Y-80856775D01*
X184937932Y-81009825D01*
X185048025Y-81143975D01*
X185182175Y-81254068D01*
X185335225Y-81335875D01*
X185501294Y-81386252D01*
X185630727Y-81399000D01*
X186071079Y-81399000D01*
X190309078Y-85637000D01*
X188812501Y-85637000D01*
X188711859Y-85536358D01*
X188583942Y-85450887D01*
X188441809Y-85392013D01*
X188290922Y-85362000D01*
X188137078Y-85362000D01*
X187986191Y-85392013D01*
X187844058Y-85450887D01*
X187716141Y-85536358D01*
X187607358Y-85645141D01*
X187521887Y-85773058D01*
X187463013Y-85915191D01*
X187433000Y-86066078D01*
X187433000Y-86219922D01*
X187463013Y-86370809D01*
X187521887Y-86512942D01*
X187607358Y-86640859D01*
X187716141Y-86749642D01*
X187844058Y-86835113D01*
X187986191Y-86893987D01*
X188137078Y-86924000D01*
X188290922Y-86924000D01*
X188441809Y-86893987D01*
X188583942Y-86835113D01*
X188711859Y-86749642D01*
X188812501Y-86649000D01*
X191856152Y-86649000D01*
X191880998Y-86651447D01*
X191905844Y-86649000D01*
X191905852Y-86649000D01*
X191980191Y-86641678D01*
X192075573Y-86612745D01*
X192163477Y-86565759D01*
X192240525Y-86502527D01*
X192256374Y-86483215D01*
X192401214Y-86338375D01*
X192420526Y-86322526D01*
X192483758Y-86245478D01*
X192530744Y-86157574D01*
X192559677Y-86062192D01*
X192566999Y-85987853D01*
X192566999Y-85987852D01*
X192569447Y-85962999D01*
X192566999Y-85938145D01*
X192566999Y-85080739D01*
X192679999Y-85103216D01*
X192680000Y-86917148D01*
X191711149Y-87886000D01*
X186387591Y-87886000D01*
X186522215Y-87751376D01*
X186541527Y-87735527D01*
X186604759Y-87658479D01*
X186651745Y-87570575D01*
X186680678Y-87475193D01*
X186688000Y-87400854D01*
X186688000Y-87400847D01*
X186690447Y-87376001D01*
X186688000Y-87351155D01*
X186688000Y-84164501D01*
X186788642Y-84063859D01*
X186874113Y-83935942D01*
X186932987Y-83793809D01*
X186963000Y-83642922D01*
X186963000Y-83489078D01*
X186932987Y-83338191D01*
X186874113Y-83196058D01*
X186788642Y-83068141D01*
X186679859Y-82959358D01*
X186551942Y-82873887D01*
X186409809Y-82815013D01*
X186258922Y-82785000D01*
X186105078Y-82785000D01*
X185954191Y-82815013D01*
X185812058Y-82873887D01*
X185684141Y-82959358D01*
X185575358Y-83068141D01*
X185489887Y-83196058D01*
X185431013Y-83338191D01*
X185401000Y-83489078D01*
X185401000Y-83642922D01*
X185431013Y-83793809D01*
X185489887Y-83935942D01*
X185575358Y-84063859D01*
X185676001Y-84164502D01*
X185676000Y-87124000D01*
X185002501Y-87124000D01*
X184901859Y-87023358D01*
X184773942Y-86937887D01*
X184631809Y-86879013D01*
X184480922Y-86849000D01*
X184327078Y-86849000D01*
X184176191Y-86879013D01*
X184034058Y-86937887D01*
X183906141Y-87023358D01*
X183797358Y-87132141D01*
X183711887Y-87260058D01*
X183653013Y-87402191D01*
X183623000Y-87553078D01*
X183623000Y-87706922D01*
X183653013Y-87857809D01*
X183664690Y-87886000D01*
X176366501Y-87886000D01*
X176265859Y-87785358D01*
X176137942Y-87699887D01*
X175995809Y-87641013D01*
X175844922Y-87611000D01*
X175691078Y-87611000D01*
X175540191Y-87641013D01*
X175398058Y-87699887D01*
X175270141Y-87785358D01*
X175161358Y-87894141D01*
X175075887Y-88022058D01*
X175017013Y-88164191D01*
X174987000Y-88315078D01*
X174987000Y-88468922D01*
X175017013Y-88619809D01*
X175075887Y-88761942D01*
X175161358Y-88889859D01*
X175270141Y-88998642D01*
X175398058Y-89084113D01*
X175540191Y-89142987D01*
X175605612Y-89156000D01*
X175350501Y-89156000D01*
X175249859Y-89055358D01*
X175121942Y-88969887D01*
X174979809Y-88911013D01*
X174828922Y-88881000D01*
X174675078Y-88881000D01*
X174524191Y-88911013D01*
X174382058Y-88969887D01*
X174254141Y-89055358D01*
X174145358Y-89164141D01*
X174059887Y-89292058D01*
X174001013Y-89434191D01*
X173971000Y-89585078D01*
X168198997Y-89585078D01*
X168198997Y-88990501D01*
X168299639Y-88889859D01*
X168385110Y-88761942D01*
X168443984Y-88619809D01*
X168473997Y-88468922D01*
X168473997Y-88315078D01*
X168443984Y-88164191D01*
X168385110Y-88022058D01*
X168299639Y-87894141D01*
X168190856Y-87785358D01*
X168062939Y-87699887D01*
X167920806Y-87641013D01*
X167769919Y-87611000D01*
X167616075Y-87611000D01*
X167465188Y-87641013D01*
X167323055Y-87699887D01*
X167195138Y-87785358D01*
X167086355Y-87894141D01*
X167000884Y-88022058D01*
X166942010Y-88164191D01*
X166911997Y-88315078D01*
X166911997Y-88468922D01*
X166942010Y-88619809D01*
X167000884Y-88761942D01*
X167086355Y-88889859D01*
X167186997Y-88990501D01*
X167186998Y-90001143D01*
X167184550Y-90025999D01*
X167194319Y-90125191D01*
X167223252Y-90220573D01*
X167223253Y-90220574D01*
X167270239Y-90308478D01*
X167333471Y-90385526D01*
X167352778Y-90401371D01*
X169964627Y-93013221D01*
X169980472Y-93032528D01*
X170057520Y-93095760D01*
X170126738Y-93132758D01*
X170145424Y-93142746D01*
X170240805Y-93171679D01*
X170250693Y-93172653D01*
X170315145Y-93179001D01*
X170315152Y-93179001D01*
X170339998Y-93181448D01*
X170364844Y-93179001D01*
X172043408Y-93179001D01*
X172002409Y-93220000D01*
X169373592Y-93220000D01*
X168421000Y-92267409D01*
X168421000Y-92125078D01*
X168390987Y-91974191D01*
X168332113Y-91832058D01*
X168246642Y-91704141D01*
X168137859Y-91595358D01*
X168009942Y-91509887D01*
X167867809Y-91451013D01*
X167716922Y-91421000D01*
X167563078Y-91421000D01*
X167412191Y-91451013D01*
X167270058Y-91509887D01*
X167142141Y-91595358D01*
X167033358Y-91704141D01*
X166947887Y-91832058D01*
X166937566Y-91856976D01*
X163849000Y-88768411D01*
X163849000Y-88626080D01*
X163818987Y-88475193D01*
X163760113Y-88333060D01*
X163674642Y-88205143D01*
X163565859Y-88096360D01*
X163437942Y-88010889D01*
X163295809Y-87952015D01*
X163144922Y-87922002D01*
X162991078Y-87922002D01*
X162840191Y-87952015D01*
X162698058Y-88010889D01*
X162570141Y-88096360D01*
X162469499Y-88197002D01*
X157611290Y-88197002D01*
X157578642Y-88148141D01*
X157469859Y-88039358D01*
X157341942Y-87953887D01*
X157199809Y-87895013D01*
X157048922Y-87865000D01*
X156895078Y-87865000D01*
X156744191Y-87895013D01*
X156602058Y-87953887D01*
X156474141Y-88039358D01*
X156365358Y-88148141D01*
X156279887Y-88276058D01*
X156221013Y-88418191D01*
X156191000Y-88569078D01*
X149228670Y-88569078D01*
X149002375Y-88342784D01*
X148986526Y-88323472D01*
X148909478Y-88260240D01*
X148821574Y-88213254D01*
X148726192Y-88184321D01*
X148651853Y-88176999D01*
X148651845Y-88176999D01*
X148626999Y-88174552D01*
X148602153Y-88176999D01*
X145726853Y-88176999D01*
X145701999Y-88174551D01*
X145677145Y-88176999D01*
X145602806Y-88184321D01*
X145507424Y-88213254D01*
X145419520Y-88260240D01*
X145342472Y-88323472D01*
X145326627Y-88342779D01*
X144984784Y-88684623D01*
X144965472Y-88700472D01*
X144902240Y-88777520D01*
X144855254Y-88865425D01*
X144826321Y-88960807D01*
X144818999Y-89035146D01*
X144818999Y-89035153D01*
X144816552Y-89059999D01*
X144818999Y-89084845D01*
X144819000Y-102193408D01*
X140329376Y-97703785D01*
X140313527Y-97684473D01*
X140236479Y-97621241D01*
X140148575Y-97574255D01*
X140053193Y-97545322D01*
X139978854Y-97538000D01*
X139978846Y-97538000D01*
X139954000Y-97535553D01*
X139929154Y-97538000D01*
X135980501Y-97538000D01*
X135888000Y-97445499D01*
X135888000Y-93301911D01*
X135907859Y-93288642D01*
X136016642Y-93179859D01*
X136102113Y-93051942D01*
X136160987Y-92909809D01*
X136191000Y-92758922D01*
X136191000Y-92605078D01*
X136160987Y-92454191D01*
X136102113Y-92312058D01*
X136016642Y-92184141D01*
X135907859Y-92075358D01*
X135779942Y-91989887D01*
X135637809Y-91931013D01*
X135486922Y-91901000D01*
X135333078Y-91901000D01*
X135182191Y-91931013D01*
X135040058Y-91989887D01*
X134912141Y-92075358D01*
X134803358Y-92184141D01*
X134717887Y-92312058D01*
X134659013Y-92454191D01*
X134629000Y-92605078D01*
X134629000Y-92758922D01*
X134659013Y-92909809D01*
X134717887Y-93051942D01*
X134803358Y-93179859D01*
X134876001Y-93252502D01*
X134876000Y-97445499D01*
X134775358Y-97546141D01*
X134689887Y-97674058D01*
X134631013Y-97816191D01*
X134601000Y-97967078D01*
X118962459Y-97967078D01*
X118804206Y-97741398D01*
X118566176Y-97513845D01*
X118288327Y-97337102D01*
X117981336Y-97217961D01*
X117657000Y-97161000D01*
X116897000Y-97161000D01*
X116643000Y-97161000D01*
X115883000Y-97161000D01*
X115558664Y-97217961D01*
X115251673Y-97337102D01*
X114973824Y-97513845D01*
X114735794Y-97741398D01*
X114546731Y-98011016D01*
X114413901Y-98312337D01*
X114380252Y-98449290D01*
X112166000Y-98449290D01*
X112166000Y-93756000D01*
X114582125Y-93756000D01*
X114609561Y-94034565D01*
X114690816Y-94302424D01*
X114822765Y-94549285D01*
X115000340Y-94765660D01*
X115216715Y-94943235D01*
X115463576Y-95075184D01*
X115731435Y-95156439D01*
X115940196Y-95177000D01*
X117599804Y-95177000D01*
X117808565Y-95156439D01*
X118076424Y-95075184D01*
X118323285Y-94943235D01*
X118539660Y-94765660D01*
X118717235Y-94549285D01*
X118849184Y-94302424D01*
X118930439Y-94034565D01*
X118957875Y-93756000D01*
X118930439Y-93477435D01*
X118849184Y-93209576D01*
X118717235Y-92962715D01*
X118539660Y-92746340D01*
X118323285Y-92568765D01*
X118076424Y-92436816D01*
X117808565Y-92355561D01*
X117599804Y-92335000D01*
X115940196Y-92335000D01*
X115731435Y-92355561D01*
X115463576Y-92436816D01*
X115216715Y-92568765D01*
X115000340Y-92746340D01*
X114822765Y-92962715D01*
X114690816Y-93209576D01*
X114609561Y-93477435D01*
X114582125Y-93756000D01*
X112166000Y-93756000D01*
X112166000Y-88676000D01*
X114582125Y-88676000D01*
X114609561Y-88954565D01*
X114690816Y-89222424D01*
X114822765Y-89469285D01*
X115000340Y-89685660D01*
X115216715Y-89863235D01*
X115463576Y-89995184D01*
X115731435Y-90076439D01*
X115940196Y-90097000D01*
X117599804Y-90097000D01*
X117808565Y-90076439D01*
X118076424Y-89995184D01*
X118323285Y-89863235D01*
X118539660Y-89685660D01*
X118717235Y-89469285D01*
X118849184Y-89222424D01*
X118930439Y-88954565D01*
X118957875Y-88676000D01*
X118930439Y-88397435D01*
X118849184Y-88129576D01*
X118717235Y-87882715D01*
X118539660Y-87666340D01*
X118323285Y-87488765D01*
X118076424Y-87356816D01*
X117808565Y-87275561D01*
X117599804Y-87255000D01*
X115940196Y-87255000D01*
X115731435Y-87275561D01*
X115463576Y-87356816D01*
X115216715Y-87488765D01*
X115000340Y-87666340D01*
X114822765Y-87882715D01*
X114690816Y-88129576D01*
X114609561Y-88397435D01*
X114582125Y-88676000D01*
X112166000Y-88676000D01*
X112166000Y-83596000D01*
X114582125Y-83596000D01*
X114609561Y-83874565D01*
X114690816Y-84142424D01*
X114822765Y-84389285D01*
X115000340Y-84605660D01*
X115216715Y-84783235D01*
X115463576Y-84915184D01*
X115731435Y-84996439D01*
X115940196Y-85017000D01*
X117599804Y-85017000D01*
X117808565Y-84996439D01*
X118076424Y-84915184D01*
X118323285Y-84783235D01*
X118539660Y-84605660D01*
X118717235Y-84389285D01*
X118849184Y-84142424D01*
X118930439Y-83874565D01*
X118957875Y-83596000D01*
X118930439Y-83317435D01*
X118849184Y-83049576D01*
X118717235Y-82802715D01*
X118539660Y-82586340D01*
X118323285Y-82408765D01*
X118076424Y-82276816D01*
X117808565Y-82195561D01*
X117599804Y-82175000D01*
X115940196Y-82175000D01*
X115731435Y-82195561D01*
X115463576Y-82276816D01*
X115216715Y-82408765D01*
X115000340Y-82586340D01*
X114822765Y-82802715D01*
X114690816Y-83049576D01*
X114609561Y-83317435D01*
X114582125Y-83596000D01*
X112166000Y-83596000D01*
X112166000Y-78516000D01*
X114582125Y-78516000D01*
X114609561Y-78794565D01*
X114690816Y-79062424D01*
X114822765Y-79309285D01*
X115000340Y-79525660D01*
X115216715Y-79703235D01*
X115463576Y-79835184D01*
X115731435Y-79916439D01*
X115940196Y-79937000D01*
X117599804Y-79937000D01*
X117808565Y-79916439D01*
X118076424Y-79835184D01*
X118323285Y-79703235D01*
X118539660Y-79525660D01*
X118717235Y-79309285D01*
X118849184Y-79062424D01*
X118930439Y-78794565D01*
X118957875Y-78516000D01*
X118930439Y-78237435D01*
X118849184Y-77969576D01*
X118717235Y-77722715D01*
X118539660Y-77506340D01*
X118401651Y-77393078D01*
X123425000Y-77393078D01*
X123425000Y-77546922D01*
X123455013Y-77697809D01*
X123513887Y-77839942D01*
X123599358Y-77967859D01*
X123700001Y-78068502D01*
X123700000Y-80681499D01*
X123599358Y-80782141D01*
X123513887Y-80910058D01*
X123455013Y-81052191D01*
X123425000Y-81203078D01*
X123425000Y-81356922D01*
X123455013Y-81507809D01*
X123513887Y-81649942D01*
X123599358Y-81777859D01*
X123700001Y-81878502D01*
X123700000Y-85507499D01*
X123599358Y-85608141D01*
X123513887Y-85736058D01*
X123455013Y-85878191D01*
X123425000Y-86029078D01*
X123425000Y-86182922D01*
X123455013Y-86333809D01*
X123513887Y-86475942D01*
X123599358Y-86603859D01*
X123700001Y-86704502D01*
X123700000Y-90587499D01*
X123599358Y-90688141D01*
X123513887Y-90816058D01*
X123455013Y-90958191D01*
X123425000Y-91109078D01*
X123425000Y-91262922D01*
X123455013Y-91413809D01*
X123513887Y-91555942D01*
X123599358Y-91683859D01*
X123700001Y-91784502D01*
X123700000Y-95413499D01*
X123599358Y-95514141D01*
X123513887Y-95642058D01*
X123455013Y-95784191D01*
X123425000Y-95935078D01*
X123425000Y-96088922D01*
X123455013Y-96239809D01*
X123513887Y-96381942D01*
X123599358Y-96509859D01*
X123708141Y-96618642D01*
X123836058Y-96704113D01*
X123978191Y-96762987D01*
X124129078Y-96793000D01*
X124282922Y-96793000D01*
X124433809Y-96762987D01*
X124575942Y-96704113D01*
X124703859Y-96618642D01*
X124812642Y-96509859D01*
X124898113Y-96381942D01*
X124956987Y-96239809D01*
X124987000Y-96088922D01*
X124987000Y-95935078D01*
X124956987Y-95784191D01*
X124898113Y-95642058D01*
X124812642Y-95514141D01*
X124712000Y-95413499D01*
X124712000Y-91784501D01*
X124812642Y-91683859D01*
X124898113Y-91555942D01*
X124956987Y-91413809D01*
X124987000Y-91262922D01*
X124987000Y-91109078D01*
X124956987Y-90958191D01*
X124898113Y-90816058D01*
X124812642Y-90688141D01*
X124712000Y-90587499D01*
X124712000Y-86704501D01*
X124812642Y-86603859D01*
X124898113Y-86475942D01*
X124956987Y-86333809D01*
X124987000Y-86182922D01*
X124987000Y-86029078D01*
X124956987Y-85878191D01*
X124898113Y-85736058D01*
X124812642Y-85608141D01*
X124712000Y-85507499D01*
X124712000Y-84505078D01*
X147809000Y-84505078D01*
X147809000Y-84658922D01*
X147839013Y-84809809D01*
X147897887Y-84951942D01*
X147983358Y-85079859D01*
X148092141Y-85188642D01*
X148220058Y-85274113D01*
X148362191Y-85332987D01*
X148513078Y-85363000D01*
X148666922Y-85363000D01*
X148817809Y-85332987D01*
X148959942Y-85274113D01*
X149087859Y-85188642D01*
X149188501Y-85088000D01*
X168569499Y-85088000D01*
X168557358Y-85100141D01*
X168471887Y-85228058D01*
X168413013Y-85370191D01*
X168383000Y-85521078D01*
X168383000Y-85600000D01*
X158840501Y-85600000D01*
X158739859Y-85499358D01*
X158611942Y-85413887D01*
X158469809Y-85355013D01*
X158318922Y-85325000D01*
X158165078Y-85325000D01*
X158014191Y-85355013D01*
X157872058Y-85413887D01*
X157744141Y-85499358D01*
X157635358Y-85608141D01*
X157549887Y-85736058D01*
X157491013Y-85878191D01*
X157461000Y-86029078D01*
X157461000Y-86182922D01*
X157491013Y-86333809D01*
X157549887Y-86475942D01*
X157635358Y-86603859D01*
X157744141Y-86712642D01*
X157872058Y-86798113D01*
X158014191Y-86856987D01*
X158165078Y-86887000D01*
X158318922Y-86887000D01*
X158469809Y-86856987D01*
X158611942Y-86798113D01*
X158739859Y-86712642D01*
X158840501Y-86612000D01*
X161898063Y-86612000D01*
X161829877Y-86714048D01*
X161771003Y-86856181D01*
X161740990Y-87007068D01*
X161740990Y-87160912D01*
X161771003Y-87311799D01*
X161829877Y-87453932D01*
X161915348Y-87581849D01*
X162024131Y-87690632D01*
X162152048Y-87776103D01*
X162294181Y-87834977D01*
X162445068Y-87864990D01*
X162598912Y-87864990D01*
X162749799Y-87834977D01*
X162891932Y-87776103D01*
X163019849Y-87690632D01*
X163120491Y-87589990D01*
X174003164Y-87589990D01*
X174028010Y-87592437D01*
X174052856Y-87589990D01*
X174052864Y-87589990D01*
X174127203Y-87582668D01*
X174222585Y-87553735D01*
X174310489Y-87506749D01*
X174387537Y-87443517D01*
X174403386Y-87424205D01*
X174744733Y-87082858D01*
X174887064Y-87082858D01*
X175037951Y-87052845D01*
X175180084Y-86993971D01*
X175308001Y-86908500D01*
X175416784Y-86799717D01*
X175502255Y-86671800D01*
X175561129Y-86529667D01*
X175591142Y-86378780D01*
X175591142Y-86224936D01*
X175561129Y-86074049D01*
X175502255Y-85931916D01*
X175416784Y-85803999D01*
X175308001Y-85695216D01*
X175180084Y-85609745D01*
X175037951Y-85550871D01*
X174887064Y-85520858D01*
X174733220Y-85520858D01*
X174582333Y-85550871D01*
X174440200Y-85609745D01*
X174312283Y-85695216D01*
X174203500Y-85803999D01*
X174118029Y-85931916D01*
X174059155Y-86074049D01*
X174029142Y-86224936D01*
X174029142Y-86367267D01*
X173818419Y-86577990D01*
X168843174Y-86577990D01*
X168850575Y-86575745D01*
X168938479Y-86528759D01*
X169015527Y-86465527D01*
X169031376Y-86446215D01*
X169098591Y-86379000D01*
X169240922Y-86379000D01*
X169391809Y-86348987D01*
X169533942Y-86290113D01*
X169661859Y-86204642D01*
X169770642Y-86095859D01*
X169856113Y-85967942D01*
X169914987Y-85825809D01*
X169945000Y-85674922D01*
X169945000Y-85521078D01*
X169914987Y-85370191D01*
X169856113Y-85228058D01*
X169770642Y-85100141D01*
X169758501Y-85088000D01*
X172949154Y-85088000D01*
X172974000Y-85090447D01*
X172998846Y-85088000D01*
X172998854Y-85088000D01*
X173073193Y-85080678D01*
X173168575Y-85051745D01*
X173256479Y-85004759D01*
X173333527Y-84941527D01*
X173349376Y-84922215D01*
X176210592Y-82061000D01*
X176352922Y-82061000D01*
X176503809Y-82030987D01*
X176645942Y-81972113D01*
X176773859Y-81886642D01*
X176882642Y-81777859D01*
X176968113Y-81649942D01*
X177026987Y-81507809D01*
X177057000Y-81356922D01*
X177057000Y-81203078D01*
X177026987Y-81052191D01*
X176968113Y-80910058D01*
X176882642Y-80782141D01*
X176773859Y-80673358D01*
X176645942Y-80587887D01*
X176621024Y-80577566D01*
X177632220Y-79566370D01*
X177651527Y-79550525D01*
X177714759Y-79473477D01*
X177761745Y-79385573D01*
X177790678Y-79290191D01*
X177798000Y-79215852D01*
X177798000Y-79215845D01*
X177800447Y-79190999D01*
X177798000Y-79166153D01*
X177798000Y-78576501D01*
X177898642Y-78475859D01*
X177984113Y-78347942D01*
X178042987Y-78205809D01*
X178073000Y-78054922D01*
X178073000Y-77901078D01*
X178042987Y-77750191D01*
X177984113Y-77608058D01*
X177898642Y-77480141D01*
X177789859Y-77371358D01*
X177661942Y-77285887D01*
X177519809Y-77227013D01*
X177368922Y-77197000D01*
X177215078Y-77197000D01*
X177064191Y-77227013D01*
X176922058Y-77285887D01*
X176794141Y-77371358D01*
X176685358Y-77480141D01*
X176599887Y-77608058D01*
X176541013Y-77750191D01*
X176511000Y-77901078D01*
X176511000Y-78054922D01*
X176541013Y-78205809D01*
X176599887Y-78347942D01*
X176685358Y-78475859D01*
X176786001Y-78576502D01*
X176786000Y-78981406D01*
X173717439Y-82049968D01*
X173666113Y-81926058D01*
X173580642Y-81798141D01*
X173471859Y-81689358D01*
X173343942Y-81603887D01*
X173201809Y-81545013D01*
X173050922Y-81515000D01*
X172897078Y-81515000D01*
X172746191Y-81545013D01*
X172604058Y-81603887D01*
X172476141Y-81689358D01*
X172367358Y-81798141D01*
X172348075Y-81827000D01*
X172102095Y-81827000D01*
X172132478Y-81810760D01*
X172209526Y-81747528D01*
X172225375Y-81728216D01*
X172552220Y-81401372D01*
X172571527Y-81385527D01*
X172634759Y-81308479D01*
X172681745Y-81220575D01*
X172710678Y-81125193D01*
X172718000Y-81050854D01*
X172718000Y-81050853D01*
X172720448Y-81026000D01*
X172718000Y-81001146D01*
X172718000Y-75528501D01*
X172818642Y-75427859D01*
X172904113Y-75299942D01*
X172962987Y-75157809D01*
X172993000Y-75006922D01*
X172993000Y-74853078D01*
X172962987Y-74702191D01*
X172904113Y-74560058D01*
X172818642Y-74432141D01*
X172709859Y-74323358D01*
X172581942Y-74237887D01*
X172439809Y-74179013D01*
X172288922Y-74149000D01*
X172135078Y-74149000D01*
X171984191Y-74179013D01*
X171842058Y-74237887D01*
X171714141Y-74323358D01*
X171605358Y-74432141D01*
X171519887Y-74560058D01*
X171461013Y-74702191D01*
X171431000Y-74853078D01*
X171431000Y-75006922D01*
X171461013Y-75157809D01*
X171519887Y-75299942D01*
X171605358Y-75427859D01*
X171706001Y-75528502D01*
X171706000Y-80816408D01*
X171640408Y-80882001D01*
X161206844Y-80882001D01*
X161181998Y-80879554D01*
X161157152Y-80882001D01*
X161157145Y-80882001D01*
X161082806Y-80889323D01*
X160987424Y-80918256D01*
X160899520Y-80965242D01*
X160848638Y-81007000D01*
X160705078Y-81007000D01*
X160554191Y-81037013D01*
X160412058Y-81095887D01*
X160284141Y-81181358D01*
X160175358Y-81290141D01*
X160089887Y-81418058D01*
X160031013Y-81560191D01*
X160001000Y-81711078D01*
X160001000Y-81864922D01*
X160031013Y-82015809D01*
X160089887Y-82157942D01*
X160175358Y-82285859D01*
X160284141Y-82394642D01*
X160412058Y-82480113D01*
X160554191Y-82538987D01*
X160619612Y-82552000D01*
X156808501Y-82552000D01*
X156707859Y-82451358D01*
X156579942Y-82365887D01*
X156437809Y-82307013D01*
X156286922Y-82277000D01*
X156133078Y-82277000D01*
X155982191Y-82307013D01*
X155840058Y-82365887D01*
X155712141Y-82451358D01*
X155603358Y-82560141D01*
X155517887Y-82688058D01*
X155459013Y-82830191D01*
X155429000Y-82981078D01*
X155429000Y-83134922D01*
X155459013Y-83285809D01*
X155470690Y-83314000D01*
X150204501Y-83314000D01*
X150103859Y-83213358D01*
X149975942Y-83127887D01*
X149833809Y-83069013D01*
X149682922Y-83039000D01*
X149529078Y-83039000D01*
X149378191Y-83069013D01*
X149236058Y-83127887D01*
X149108141Y-83213358D01*
X148999358Y-83322141D01*
X148913887Y-83450058D01*
X148855013Y-83592191D01*
X148825000Y-83743078D01*
X148825000Y-83833992D01*
X148817809Y-83831013D01*
X148666922Y-83801000D01*
X148513078Y-83801000D01*
X148362191Y-83831013D01*
X148220058Y-83889887D01*
X148092141Y-83975358D01*
X147983358Y-84084141D01*
X147897887Y-84212058D01*
X147839013Y-84354191D01*
X147809000Y-84505078D01*
X124712000Y-84505078D01*
X124712000Y-81878501D01*
X124812642Y-81777859D01*
X124898113Y-81649942D01*
X124956987Y-81507809D01*
X124987000Y-81356922D01*
X124987000Y-81203078D01*
X124956987Y-81052191D01*
X124898113Y-80910058D01*
X124812642Y-80782141D01*
X124712000Y-80681499D01*
X124712000Y-78068501D01*
X124812642Y-77967859D01*
X124898113Y-77839942D01*
X124956987Y-77697809D01*
X124987000Y-77546922D01*
X124987000Y-77393078D01*
X124956987Y-77242191D01*
X124898113Y-77100058D01*
X124812642Y-76972141D01*
X124703859Y-76863358D01*
X124575942Y-76777887D01*
X124433809Y-76719013D01*
X124282922Y-76689000D01*
X124129078Y-76689000D01*
X123978191Y-76719013D01*
X123836058Y-76777887D01*
X123708141Y-76863358D01*
X123599358Y-76972141D01*
X123513887Y-77100058D01*
X123455013Y-77242191D01*
X123425000Y-77393078D01*
X118401651Y-77393078D01*
X118323285Y-77328765D01*
X118076424Y-77196816D01*
X117808565Y-77115561D01*
X117599804Y-77095000D01*
X115940196Y-77095000D01*
X115731435Y-77115561D01*
X115463576Y-77196816D01*
X115216715Y-77328765D01*
X115000340Y-77506340D01*
X114822765Y-77722715D01*
X114690816Y-77969576D01*
X114609561Y-78237435D01*
X114582125Y-78516000D01*
X112166000Y-78516000D01*
X112166000Y-76123078D01*
X146539000Y-76123078D01*
X146539000Y-76276922D01*
X146569013Y-76427809D01*
X146627887Y-76569942D01*
X146713358Y-76697859D01*
X146822141Y-76806642D01*
X146950058Y-76892113D01*
X147092191Y-76950987D01*
X147243078Y-76981000D01*
X147385409Y-76981000D01*
X149738628Y-79334220D01*
X149754473Y-79353527D01*
X149831521Y-79416759D01*
X149919425Y-79463745D01*
X150014807Y-79492678D01*
X150114000Y-79502448D01*
X150138854Y-79500000D01*
X151293499Y-79500000D01*
X151394141Y-79600642D01*
X151522058Y-79686113D01*
X151664191Y-79744987D01*
X151815078Y-79775000D01*
X151968922Y-79775000D01*
X152119809Y-79744987D01*
X152261942Y-79686113D01*
X152389859Y-79600642D01*
X152498642Y-79491859D01*
X152584113Y-79363942D01*
X152642987Y-79221809D01*
X152673000Y-79070922D01*
X152673000Y-78917078D01*
X152642987Y-78766191D01*
X152584113Y-78624058D01*
X152498642Y-78496141D01*
X152389859Y-78387358D01*
X152261942Y-78301887D01*
X152119809Y-78243013D01*
X151968922Y-78213000D01*
X151815078Y-78213000D01*
X151664191Y-78243013D01*
X151522058Y-78301887D01*
X151394141Y-78387358D01*
X151293499Y-78488000D01*
X150323592Y-78488000D01*
X148212670Y-76377078D01*
X150095000Y-76377078D01*
X150095000Y-76530922D01*
X150125013Y-76681809D01*
X150183887Y-76823942D01*
X150269358Y-76951859D01*
X150378141Y-77060642D01*
X150506058Y-77146113D01*
X150648191Y-77204987D01*
X150799078Y-77235000D01*
X150952922Y-77235000D01*
X151103809Y-77204987D01*
X151245942Y-77146113D01*
X151373859Y-77060642D01*
X151474501Y-76960000D01*
X157459114Y-76960000D01*
X157483960Y-76962447D01*
X157508806Y-76960000D01*
X157508814Y-76960000D01*
X157583153Y-76952678D01*
X157678535Y-76923745D01*
X157766439Y-76876759D01*
X157843487Y-76813527D01*
X157859336Y-76794215D01*
X158899700Y-75753852D01*
X158919007Y-75738007D01*
X158982239Y-75660959D01*
X159029225Y-75573055D01*
X159051317Y-75500224D01*
X159058158Y-75477673D01*
X159063064Y-75427859D01*
X159065480Y-75403333D01*
X159065480Y-75403326D01*
X159067927Y-75378480D01*
X159065480Y-75353634D01*
X159065480Y-75334131D01*
X161247602Y-73152010D01*
X163975833Y-73152010D01*
X164076475Y-73252652D01*
X164204392Y-73338123D01*
X164346525Y-73396997D01*
X164497412Y-73427010D01*
X164651256Y-73427010D01*
X164802143Y-73396997D01*
X164944276Y-73338123D01*
X165072193Y-73252652D01*
X165172835Y-73152010D01*
X167686419Y-73152010D01*
X167875000Y-73340591D01*
X167875000Y-73482922D01*
X167905013Y-73633809D01*
X167963887Y-73775942D01*
X168049358Y-73903859D01*
X168158141Y-74012642D01*
X168286058Y-74098113D01*
X168428191Y-74156987D01*
X168579078Y-74187000D01*
X168732922Y-74187000D01*
X168883809Y-74156987D01*
X169025942Y-74098113D01*
X169153859Y-74012642D01*
X169262642Y-73903859D01*
X169348113Y-73775942D01*
X169406987Y-73633809D01*
X169437000Y-73482922D01*
X169437000Y-73329078D01*
X169406987Y-73178191D01*
X169348113Y-73036058D01*
X169262642Y-72908141D01*
X169153859Y-72799358D01*
X169025942Y-72713887D01*
X168883809Y-72655013D01*
X168732922Y-72625000D01*
X168590591Y-72625000D01*
X168392600Y-72427009D01*
X170407328Y-72427009D01*
X170464877Y-72565942D01*
X170550348Y-72693859D01*
X170659131Y-72802642D01*
X170787048Y-72888113D01*
X170929181Y-72946987D01*
X171080068Y-72977000D01*
X171233912Y-72977000D01*
X171384799Y-72946987D01*
X171526932Y-72888113D01*
X171654849Y-72802642D01*
X171755491Y-72702000D01*
X175483499Y-72702000D01*
X175524141Y-72742642D01*
X175652058Y-72828113D01*
X175794191Y-72886987D01*
X175945078Y-72917000D01*
X176098922Y-72917000D01*
X176249809Y-72886987D01*
X176391942Y-72828113D01*
X176519859Y-72742642D01*
X176628642Y-72633859D01*
X176714113Y-72505942D01*
X176772987Y-72363809D01*
X176803000Y-72212922D01*
X176803000Y-72059078D01*
X176772987Y-71908191D01*
X176714113Y-71766058D01*
X176628642Y-71638141D01*
X176519859Y-71529358D01*
X176391942Y-71443887D01*
X176249809Y-71385013D01*
X176098922Y-71355000D01*
X175945078Y-71355000D01*
X175794191Y-71385013D01*
X175693913Y-71426550D01*
X175612436Y-71451265D01*
X175524532Y-71498252D01*
X175447483Y-71561483D01*
X175384252Y-71638532D01*
X175356741Y-71690000D01*
X171755491Y-71690000D01*
X171654849Y-71589358D01*
X171526932Y-71503887D01*
X171384799Y-71445013D01*
X171233912Y-71415000D01*
X171080068Y-71415000D01*
X171005754Y-71429782D01*
X170981192Y-71422331D01*
X170906853Y-71415009D01*
X170906845Y-71415009D01*
X170881999Y-71412562D01*
X170857153Y-71415009D01*
X160968803Y-71415009D01*
X160943949Y-71412561D01*
X160919095Y-71415009D01*
X160844756Y-71422331D01*
X160749374Y-71451264D01*
X160661470Y-71498250D01*
X160584422Y-71561482D01*
X160568577Y-71580789D01*
X157899888Y-74249479D01*
X157757557Y-74249479D01*
X157606670Y-74279492D01*
X157464537Y-74338366D01*
X157336620Y-74423837D01*
X157227837Y-74532620D01*
X157142366Y-74660537D01*
X157083492Y-74802670D01*
X157053479Y-74953557D01*
X157053479Y-75107401D01*
X157083492Y-75258288D01*
X157142366Y-75400421D01*
X157227837Y-75528338D01*
X157336620Y-75637121D01*
X157464537Y-75722592D01*
X157489455Y-75732914D01*
X157274369Y-75948000D01*
X151474501Y-75948000D01*
X151373859Y-75847358D01*
X151245942Y-75761887D01*
X151103809Y-75703013D01*
X150952922Y-75673000D01*
X150799078Y-75673000D01*
X150648191Y-75703013D01*
X150506058Y-75761887D01*
X150378141Y-75847358D01*
X150269358Y-75956141D01*
X150183887Y-76084058D01*
X150125013Y-76226191D01*
X150095000Y-76377078D01*
X148212670Y-76377078D01*
X148101000Y-76265409D01*
X148101000Y-76123078D01*
X148070987Y-75972191D01*
X148012113Y-75830058D01*
X147926642Y-75702141D01*
X147817859Y-75593358D01*
X147689942Y-75507887D01*
X147547809Y-75449013D01*
X147396922Y-75419000D01*
X147243078Y-75419000D01*
X147092191Y-75449013D01*
X146950058Y-75507887D01*
X146822141Y-75593358D01*
X146713358Y-75702141D01*
X146627887Y-75830058D01*
X146569013Y-75972191D01*
X146539000Y-76123078D01*
X112166000Y-76123078D01*
X112166000Y-72012481D01*
X122985124Y-72012481D01*
X123297308Y-72461177D01*
X123893259Y-72781612D01*
X124540273Y-72979626D01*
X125213484Y-73047610D01*
X125887023Y-72982949D01*
X126535006Y-72788130D01*
X127132530Y-72470639D01*
X127146692Y-72461177D01*
X127458876Y-72012481D01*
X125222000Y-69775605D01*
X122985124Y-72012481D01*
X112166000Y-72012481D01*
X112166000Y-69587484D01*
X121770390Y-69587484D01*
X121835051Y-70261023D01*
X122029870Y-70909006D01*
X122347361Y-71506530D01*
X122356823Y-71520692D01*
X122805519Y-71832876D01*
X125042395Y-69596000D01*
X125401605Y-69596000D01*
X127638481Y-71832876D01*
X128087177Y-71520692D01*
X128407612Y-70924741D01*
X128605626Y-70277727D01*
X128673610Y-69604516D01*
X128629677Y-69146889D01*
X132595000Y-69146889D01*
X132595000Y-69537111D01*
X132671129Y-69919836D01*
X132820461Y-70280355D01*
X133037257Y-70604814D01*
X133313186Y-70880743D01*
X133637645Y-71097539D01*
X133998164Y-71246871D01*
X134380889Y-71323000D01*
X134771111Y-71323000D01*
X135153836Y-71246871D01*
X135514355Y-71097539D01*
X135838814Y-70880743D01*
X136114743Y-70604814D01*
X136331539Y-70280355D01*
X136480871Y-69919836D01*
X136546980Y-69587484D01*
X194770390Y-69587484D01*
X194835051Y-70261023D01*
X195029870Y-70909006D01*
X195347361Y-71506530D01*
X195356823Y-71520692D01*
X195805519Y-71832876D01*
X198042395Y-69596000D01*
X198401605Y-69596000D01*
X200638481Y-71832876D01*
X201087177Y-71520692D01*
X201407612Y-70924741D01*
X201605626Y-70277727D01*
X201673610Y-69604516D01*
X201608949Y-68930977D01*
X201414130Y-68282994D01*
X201096639Y-67685470D01*
X201087177Y-67671308D01*
X200638481Y-67359124D01*
X198401605Y-69596000D01*
X198042395Y-69596000D01*
X195805519Y-67359124D01*
X195356823Y-67671308D01*
X195036388Y-68267259D01*
X194838374Y-68914273D01*
X194770390Y-69587484D01*
X136546980Y-69587484D01*
X136557000Y-69537111D01*
X136557000Y-69146889D01*
X136480871Y-68764164D01*
X136331539Y-68403645D01*
X136114743Y-68079186D01*
X135838814Y-67803257D01*
X135514355Y-67586461D01*
X135153836Y-67437129D01*
X134771111Y-67361000D01*
X134380889Y-67361000D01*
X133998164Y-67437129D01*
X133637645Y-67586461D01*
X133313186Y-67803257D01*
X133037257Y-68079186D01*
X132820461Y-68403645D01*
X132671129Y-68764164D01*
X132595000Y-69146889D01*
X128629677Y-69146889D01*
X128608949Y-68930977D01*
X128414130Y-68282994D01*
X128096639Y-67685470D01*
X128087177Y-67671308D01*
X127638481Y-67359124D01*
X125401605Y-69596000D01*
X125042395Y-69596000D01*
X122805519Y-67359124D01*
X122356823Y-67671308D01*
X122036388Y-68267259D01*
X121838374Y-68914273D01*
X121770390Y-69587484D01*
X112166000Y-69587484D01*
X112166000Y-66446000D01*
X123829705Y-66446000D01*
X123311470Y-66721361D01*
G37*
X123311470Y-66721361D02*
X123297308Y-66730823D01*
X122985124Y-67179519D01*
X125222000Y-69416395D01*
X127458876Y-67179519D01*
X127146692Y-66730823D01*
X126616973Y-66446000D01*
X145811167Y-66446000D01*
X145806141Y-66449358D01*
X145697358Y-66558141D01*
X145611887Y-66686058D01*
X145553013Y-66828191D01*
X145523000Y-66979078D01*
X145523000Y-67132922D01*
X145553013Y-67283809D01*
X145611887Y-67425942D01*
X145697358Y-67553859D01*
X145806141Y-67662642D01*
X145934058Y-67748113D01*
X146076191Y-67806987D01*
X146227078Y-67837000D01*
X146380922Y-67837000D01*
X146531809Y-67806987D01*
X146673942Y-67748113D01*
X146801859Y-67662642D01*
X146902501Y-67562000D01*
X155492409Y-67562000D01*
X156297523Y-68367115D01*
X156297523Y-68509445D01*
X156327536Y-68660332D01*
X156386410Y-68802465D01*
X156471881Y-68930382D01*
X156580664Y-69039165D01*
X156708581Y-69124636D01*
X156850714Y-69183510D01*
X157001601Y-69213523D01*
X157155445Y-69213523D01*
X157306332Y-69183510D01*
X157448465Y-69124636D01*
X157576382Y-69039165D01*
X157685165Y-68930382D01*
X157770636Y-68802465D01*
X157829510Y-68660332D01*
X157859523Y-68509445D01*
X157859523Y-68355601D01*
X157829510Y-68204714D01*
X157770636Y-68062581D01*
X157685165Y-67934664D01*
X157576382Y-67825881D01*
X157448465Y-67740410D01*
X157306332Y-67681536D01*
X157155445Y-67651523D01*
X157013115Y-67651523D01*
X156077376Y-66715785D01*
X156061527Y-66696473D01*
X155984479Y-66633241D01*
X155896575Y-66586255D01*
X155801193Y-66557322D01*
X155726854Y-66550000D01*
X155726846Y-66550000D01*
X155702000Y-66547553D01*
X155677154Y-66550000D01*
X146902501Y-66550000D01*
X146801859Y-66449358D01*
X146796833Y-66446000D01*
X196829705Y-66446000D01*
X196311470Y-66721361D01*
X196297308Y-66730823D01*
X195985124Y-67179519D01*
X198222000Y-69416395D01*
X200458876Y-67179519D01*
X200146692Y-66730823D01*
X199616973Y-66446000D01*
X211430000Y-66446000D01*
X211430001Y-115672000D01*
X199753565Y-115672000D01*
X200132530Y-115470639D01*
X200146692Y-115461177D01*
X200458876Y-115012481D01*
X198222000Y-112775605D01*
X195985124Y-115012481D01*
X196297308Y-115461177D01*
X196689401Y-115672000D01*
X126753565Y-115672000D01*
X127132530Y-115470639D01*
X127146692Y-115461177D01*
X127458876Y-115012481D01*
X125222000Y-112775605D01*
X122985124Y-115012481D01*
X123297308Y-115461177D01*
X123689401Y-115672000D01*
X112166000Y-115672000D01*
X112166000Y-112587484D01*
X121770390Y-112587484D01*
X121835051Y-113261023D01*
X122029870Y-113909006D01*
X122347361Y-114506530D01*
X122356823Y-114520692D01*
X122805519Y-114832876D01*
X125042395Y-112596000D01*
X125401605Y-112596000D01*
X127638481Y-114832876D01*
X128087177Y-114520692D01*
X128407612Y-113924741D01*
X128605626Y-113277727D01*
X128673610Y-112604516D01*
X128641304Y-112268000D01*
X132005964Y-112268000D01*
X132050005Y-112715154D01*
X132180435Y-113145124D01*
X132392242Y-113541387D01*
X132677286Y-113888714D01*
X133024613Y-114173758D01*
X133420876Y-114385565D01*
X133850846Y-114515995D01*
X134185950Y-114549000D01*
X138610050Y-114549000D01*
X138945154Y-114515995D01*
X139375124Y-114385565D01*
X139771387Y-114173758D01*
X140118714Y-113888714D01*
X140403758Y-113541387D01*
X140615565Y-113145124D01*
X140745995Y-112715154D01*
X140790036Y-112268000D01*
X140745995Y-111820846D01*
X140615565Y-111390876D01*
X140403758Y-110994613D01*
X140118714Y-110647286D01*
X139771387Y-110362242D01*
X139375124Y-110150435D01*
X138945154Y-110020005D01*
X138610050Y-109987000D01*
X134185950Y-109987000D01*
X133850846Y-110020005D01*
X133420876Y-110150435D01*
X133024613Y-110362242D01*
X132677286Y-110647286D01*
X132392242Y-110994613D01*
X132180435Y-111390876D01*
X132050005Y-111820846D01*
X132005964Y-112268000D01*
X128641304Y-112268000D01*
X128608949Y-111930977D01*
X128414130Y-111282994D01*
X128096639Y-110685470D01*
X128087177Y-110671308D01*
X127638481Y-110359124D01*
X125401605Y-112596000D01*
X125042395Y-112596000D01*
X122805519Y-110359124D01*
X122356823Y-110671308D01*
X122036388Y-111267259D01*
X121838374Y-111914273D01*
X121770390Y-112587484D01*
X112166000Y-112587484D01*
X112166000Y-110179519D01*
X122985124Y-110179519D01*
X125222000Y-112416395D01*
X127458876Y-110179519D01*
X127146692Y-109730823D01*
X126550741Y-109410388D01*
X125903727Y-109212374D01*
X125230516Y-109144390D01*
X124556977Y-109209051D01*
X123908994Y-109403870D01*
X123311470Y-109721361D01*
X123297308Y-109730823D01*
X122985124Y-110179519D01*
X112166000Y-110179519D01*
X112166000Y-106858080D01*
X130821525Y-106858080D01*
X130905208Y-107112261D01*
X131177775Y-107243158D01*
X131470642Y-107318365D01*
X131772553Y-107334991D01*
X132071907Y-107292397D01*
X132357199Y-107192222D01*
X132506792Y-107112261D01*
X132590475Y-106858080D01*
X131706000Y-105973605D01*
X130821525Y-106858080D01*
X112166000Y-106858080D01*
X112166000Y-105860553D01*
X130165009Y-105860553D01*
X130207603Y-106159907D01*
X130307778Y-106445199D01*
X130387739Y-106594792D01*
X130641920Y-106678475D01*
X131526395Y-105794000D01*
X131885605Y-105794000D01*
X132770080Y-106678475D01*
X133024261Y-106594792D01*
X133155158Y-106322225D01*
X133230365Y-106029358D01*
X133246991Y-105727447D01*
X133240240Y-105680000D01*
X142174657Y-105680000D01*
X142174657Y-107680000D01*
X142182013Y-107754689D01*
X142203799Y-107826508D01*
X142239178Y-107892696D01*
X142286789Y-107950711D01*
X142344804Y-107998322D01*
X142410992Y-108033701D01*
X142482811Y-108055487D01*
X142557500Y-108062843D01*
X144462500Y-108062843D01*
X144537189Y-108055487D01*
X144609008Y-108033701D01*
X144675196Y-107998322D01*
X144733211Y-107950711D01*
X144780822Y-107892696D01*
X144816201Y-107826508D01*
X144837987Y-107754689D01*
X144839365Y-107740702D01*
X144940563Y-107861315D01*
X145183077Y-108055969D01*
X145458906Y-108199571D01*
X145677020Y-108270563D01*
X145923000Y-108150594D01*
X145923000Y-106807000D01*
X145903000Y-106807000D01*
X145903000Y-106553000D01*
X145923000Y-106553000D01*
X145923000Y-105209406D01*
X145677020Y-105089437D01*
X145458906Y-105160429D01*
X145183077Y-105304031D01*
X144940563Y-105498685D01*
X144839365Y-105619298D01*
X144837987Y-105605311D01*
X144816201Y-105533492D01*
X144780822Y-105467304D01*
X144733211Y-105409289D01*
X144675196Y-105361678D01*
X144609008Y-105326299D01*
X144537189Y-105304513D01*
X144462500Y-105297157D01*
X142557500Y-105297157D01*
X142482811Y-105304513D01*
X142410992Y-105326299D01*
X142344804Y-105361678D01*
X142286789Y-105409289D01*
X142239178Y-105467304D01*
X142203799Y-105533492D01*
X142182013Y-105605311D01*
X142174657Y-105680000D01*
X133240240Y-105680000D01*
X133204397Y-105428093D01*
X133104222Y-105142801D01*
X133024261Y-104993208D01*
X132770080Y-104909525D01*
X131885605Y-105794000D01*
X131526395Y-105794000D01*
X130641920Y-104909525D01*
X130387739Y-104993208D01*
X130256842Y-105265775D01*
X130181635Y-105558642D01*
X130165009Y-105860553D01*
X112166000Y-105860553D01*
X112166000Y-103125999D01*
X114587157Y-103125999D01*
X114587157Y-104706001D01*
X114599317Y-104829462D01*
X114635329Y-104948179D01*
X114693810Y-105057589D01*
X114772512Y-105153488D01*
X114868411Y-105232190D01*
X114977821Y-105290671D01*
X115096538Y-105326683D01*
X115219999Y-105338843D01*
X118320001Y-105338843D01*
X118443462Y-105326683D01*
X118562179Y-105290671D01*
X118671589Y-105232190D01*
X118767488Y-105153488D01*
X118846190Y-105057589D01*
X118904671Y-104948179D01*
X118940683Y-104829462D01*
X118952843Y-104706001D01*
X118952843Y-104267833D01*
X122925000Y-104267833D01*
X122925000Y-104520167D01*
X122974228Y-104767654D01*
X123070793Y-105000781D01*
X123210982Y-105210590D01*
X123389410Y-105389018D01*
X123599219Y-105529207D01*
X123832346Y-105625772D01*
X124079833Y-105675000D01*
X124332167Y-105675000D01*
X124579654Y-105625772D01*
X124812781Y-105529207D01*
X125022590Y-105389018D01*
X125201018Y-105210590D01*
X125341207Y-105000781D01*
X125437772Y-104767654D01*
X125445277Y-104729920D01*
X130821525Y-104729920D01*
X131706000Y-105614395D01*
X132590475Y-104729920D01*
X132506792Y-104475739D01*
X132234225Y-104344842D01*
X131941358Y-104269635D01*
X131639447Y-104253009D01*
X131340093Y-104295603D01*
X131054801Y-104395778D01*
X130905208Y-104475739D01*
X130821525Y-104729920D01*
X125445277Y-104729920D01*
X125487000Y-104520167D01*
X125487000Y-104267833D01*
X125437772Y-104020346D01*
X125341207Y-103787219D01*
X125201018Y-103577410D01*
X125022590Y-103398982D01*
X124812781Y-103258793D01*
X124579654Y-103162228D01*
X124332167Y-103113000D01*
X124079833Y-103113000D01*
X123832346Y-103162228D01*
X123599219Y-103258793D01*
X123389410Y-103398982D01*
X123210982Y-103577410D01*
X123070793Y-103787219D01*
X122974228Y-104020346D01*
X122925000Y-104267833D01*
X118952843Y-104267833D01*
X118952843Y-103125999D01*
X118940683Y-103002538D01*
X118904671Y-102883821D01*
X118846190Y-102774411D01*
X118767488Y-102678512D01*
X118671589Y-102599810D01*
X118562179Y-102541329D01*
X118443462Y-102505317D01*
X118320001Y-102493157D01*
X115219999Y-102493157D01*
X115096538Y-102505317D01*
X114977821Y-102541329D01*
X114868411Y-102599810D01*
X114772512Y-102678512D01*
X114693810Y-102774411D01*
X114635329Y-102883821D01*
X114599317Y-103002538D01*
X114587157Y-103125999D01*
X112166000Y-103125999D01*
X112166000Y-99222710D01*
X114380252Y-99222710D01*
X114413901Y-99359663D01*
X114546731Y-99660984D01*
X114735794Y-99930602D01*
X114973824Y-100158155D01*
X115251673Y-100334898D01*
X115558664Y-100454039D01*
X115883000Y-100511000D01*
X116643000Y-100511000D01*
X116643000Y-98963000D01*
X116897000Y-98963000D01*
X116897000Y-100511000D01*
X117657000Y-100511000D01*
X117981336Y-100454039D01*
X118288327Y-100334898D01*
X118566176Y-100158155D01*
X118804206Y-99930602D01*
X118993269Y-99660984D01*
X119126099Y-99359663D01*
X119159748Y-99222710D01*
X119040922Y-98963000D01*
X116897000Y-98963000D01*
X116643000Y-98963000D01*
X114499078Y-98963000D01*
X114380252Y-99222710D01*
X112166000Y-99222710D01*
X112166000Y-98449290D01*
X114380252Y-98449290D01*
X114499078Y-98709000D01*
X116643000Y-98709000D01*
X116643000Y-97161000D01*
X116897000Y-97161000D01*
X116897000Y-98709000D01*
X119040922Y-98709000D01*
X119159748Y-98449290D01*
X119126099Y-98312337D01*
X118993269Y-98011016D01*
X118962459Y-97967078D01*
X134601000Y-97967078D01*
X134601000Y-98120922D01*
X134631013Y-98271809D01*
X134689887Y-98413942D01*
X134775358Y-98541859D01*
X134884141Y-98650642D01*
X135012058Y-98736113D01*
X135154191Y-98794987D01*
X135305078Y-98825000D01*
X135458922Y-98825000D01*
X135609809Y-98794987D01*
X135751942Y-98736113D01*
X135879859Y-98650642D01*
X135980501Y-98550000D01*
X139744409Y-98550000D01*
X144949631Y-103755223D01*
X144965473Y-103774526D01*
X144984776Y-103790368D01*
X146329458Y-105135050D01*
X146177000Y-105209406D01*
X146177000Y-106553000D01*
X146197000Y-106553000D01*
X146197000Y-106807000D01*
X146177000Y-106807000D01*
X146177000Y-108150594D01*
X146422980Y-108270563D01*
X146641094Y-108199571D01*
X146916923Y-108055969D01*
X147159437Y-107861315D01*
X147359316Y-107623089D01*
X147459270Y-107440879D01*
X147475871Y-107471937D01*
X147642512Y-107674989D01*
X147845564Y-107841629D01*
X148077224Y-107965454D01*
X148328589Y-108041705D01*
X148590000Y-108067452D01*
X148851412Y-108041705D01*
X149102777Y-107965454D01*
X149334437Y-107841629D01*
X149537489Y-107674989D01*
X149704129Y-107471936D01*
X149827954Y-107240276D01*
X149844419Y-107186000D01*
X149964409Y-107186000D01*
X152381000Y-109602592D01*
X152381000Y-109744922D01*
X152409261Y-109887000D01*
X145581037Y-109887000D01*
X145231243Y-109921452D01*
X145015160Y-109987000D01*
X143485950Y-109987000D01*
X143150846Y-110020005D01*
X142720876Y-110150435D01*
X142324613Y-110362242D01*
X141977286Y-110647286D01*
X141692242Y-110994613D01*
X141480435Y-111390876D01*
X141350005Y-111820846D01*
X141305964Y-112268000D01*
X141350005Y-112715154D01*
X141480435Y-113145124D01*
X141692242Y-113541387D01*
X141977286Y-113888714D01*
X142324613Y-114173758D01*
X142720876Y-114385565D01*
X143150846Y-114515995D01*
X143485950Y-114549000D01*
X145015160Y-114549000D01*
X145231243Y-114614548D01*
X145581037Y-114649000D01*
X191033042Y-114649000D01*
X191149998Y-114660519D01*
X191266954Y-114649000D01*
X191266961Y-114649000D01*
X191616755Y-114614548D01*
X192065576Y-114478400D01*
X192479211Y-114257308D01*
X192841765Y-113959767D01*
X192916332Y-113868907D01*
X194834713Y-111950527D01*
X194770390Y-112587484D01*
X194835051Y-113261023D01*
X195029870Y-113909006D01*
X195347361Y-114506530D01*
X195356823Y-114520692D01*
X195805519Y-114832876D01*
X198042395Y-112596000D01*
X198401605Y-112596000D01*
X200638481Y-114832876D01*
X201087177Y-114520692D01*
X201407612Y-113924741D01*
X201605626Y-113277727D01*
X201673610Y-112604516D01*
X201608949Y-111930977D01*
X201414130Y-111282994D01*
X201096639Y-110685470D01*
X201087177Y-110671308D01*
X200638481Y-110359124D01*
X198401605Y-112596000D01*
X198042395Y-112596000D01*
X198028253Y-112581858D01*
X198207858Y-112402253D01*
X198222000Y-112416395D01*
X200458876Y-110179519D01*
X200146692Y-109730823D01*
X199550741Y-109410388D01*
X199239059Y-109315000D01*
X202847758Y-109315000D01*
X204251674Y-110718917D01*
X204326233Y-110809767D01*
X204688787Y-111107308D01*
X205102422Y-111328400D01*
X205446782Y-111432860D01*
X205551242Y-111464548D01*
X205599650Y-111469316D01*
X205901037Y-111499000D01*
X205901043Y-111499000D01*
X206017999Y-111510519D01*
X206134955Y-111499000D01*
X207934963Y-111499000D01*
X208284757Y-111464548D01*
X208733578Y-111328400D01*
X209147213Y-111107308D01*
X209509767Y-110809767D01*
X209807308Y-110447213D01*
X210028400Y-110033578D01*
X210164548Y-109584757D01*
X210210520Y-109118000D01*
X210164548Y-108651243D01*
X210028400Y-108202422D01*
X209807308Y-107788787D01*
X209509767Y-107426233D01*
X209147213Y-107128692D01*
X208733578Y-106907600D01*
X208284757Y-106771452D01*
X207934963Y-106737000D01*
X207004242Y-106737000D01*
X206215000Y-105947758D01*
X206215000Y-105513032D01*
X206226520Y-105396066D01*
X206204857Y-105176110D01*
X206264715Y-105225235D01*
X206511576Y-105357184D01*
X206779435Y-105438439D01*
X206988196Y-105459000D01*
X208647804Y-105459000D01*
X208856565Y-105438439D01*
X209124424Y-105357184D01*
X209371285Y-105225235D01*
X209587660Y-105047660D01*
X209765235Y-104831285D01*
X209897184Y-104584424D01*
X209978439Y-104316565D01*
X210005875Y-104038000D01*
X209978439Y-103759435D01*
X209897184Y-103491576D01*
X209765235Y-103244715D01*
X209587660Y-103028340D01*
X209371285Y-102850765D01*
X209124424Y-102718816D01*
X208856565Y-102637561D01*
X208647804Y-102617000D01*
X207264175Y-102617000D01*
X208703718Y-101177458D01*
X208733578Y-101168400D01*
X209147213Y-100947308D01*
X209509767Y-100649767D01*
X209807308Y-100287213D01*
X210028400Y-99873578D01*
X210164548Y-99424757D01*
X210210520Y-98958000D01*
X210164548Y-98491243D01*
X210028400Y-98042422D01*
X209807308Y-97628787D01*
X209509767Y-97266233D01*
X209147213Y-96968692D01*
X208733578Y-96747600D01*
X208284757Y-96611452D01*
X207934963Y-96577000D01*
X207672889Y-96577000D01*
X207555933Y-96565481D01*
X207438977Y-96577000D01*
X207438971Y-96577000D01*
X207152238Y-96605241D01*
X207089176Y-96611452D01*
X206744135Y-96716119D01*
X206640356Y-96747600D01*
X206226721Y-96968692D01*
X206198990Y-96991450D01*
X206198990Y-95011296D01*
X206264715Y-95065235D01*
X206511576Y-95197184D01*
X206779435Y-95278439D01*
X206988196Y-95299000D01*
X208647804Y-95299000D01*
X208856565Y-95278439D01*
X209124424Y-95197184D01*
X209371285Y-95065235D01*
X209587660Y-94887660D01*
X209765235Y-94671285D01*
X209897184Y-94424424D01*
X209978439Y-94156565D01*
X210005875Y-93878000D01*
X209978439Y-93599435D01*
X209897184Y-93331576D01*
X209765235Y-93084715D01*
X209587660Y-92868340D01*
X209371285Y-92690765D01*
X209124424Y-92558816D01*
X208856565Y-92477561D01*
X208647804Y-92457000D01*
X207264175Y-92457000D01*
X208703718Y-91017458D01*
X208733578Y-91008400D01*
X209147213Y-90787308D01*
X209509767Y-90489767D01*
X209807308Y-90127213D01*
X210028400Y-89713578D01*
X210164548Y-89264757D01*
X210210520Y-88798000D01*
X210164548Y-88331243D01*
X210028400Y-87882422D01*
X209807308Y-87468787D01*
X209509767Y-87106233D01*
X209147213Y-86808692D01*
X208733578Y-86587600D01*
X208284757Y-86451452D01*
X207934963Y-86417000D01*
X207672889Y-86417000D01*
X207555933Y-86405481D01*
X207438977Y-86417000D01*
X207438971Y-86417000D01*
X207137584Y-86446684D01*
X207089176Y-86451452D01*
X206712356Y-86565759D01*
X206640356Y-86587600D01*
X206226721Y-86808692D01*
X206198990Y-86831450D01*
X206198990Y-84851296D01*
X206264715Y-84905235D01*
X206511576Y-85037184D01*
X206779435Y-85118439D01*
X206988196Y-85139000D01*
X208647804Y-85139000D01*
X208856565Y-85118439D01*
X209124424Y-85037184D01*
X209371285Y-84905235D01*
X209587660Y-84727660D01*
X209765235Y-84511285D01*
X209897184Y-84264424D01*
X209978439Y-83996565D01*
X210005875Y-83718000D01*
X209978439Y-83439435D01*
X209897184Y-83171576D01*
X209765235Y-82924715D01*
X209587660Y-82708340D01*
X209371285Y-82530765D01*
X209124424Y-82398816D01*
X208856565Y-82317561D01*
X208647804Y-82297000D01*
X207264175Y-82297000D01*
X208703718Y-80857458D01*
X208733578Y-80848400D01*
X209147213Y-80627308D01*
X209509767Y-80329767D01*
X209807308Y-79967213D01*
X210028400Y-79553578D01*
X210164548Y-79104757D01*
X210210520Y-78638000D01*
X210164548Y-78171243D01*
X210028400Y-77722422D01*
X209807308Y-77308787D01*
X209509767Y-76946233D01*
X209147213Y-76648692D01*
X208733578Y-76427600D01*
X208284757Y-76291452D01*
X207934963Y-76257000D01*
X207672889Y-76257000D01*
X207555933Y-76245481D01*
X207438977Y-76257000D01*
X207438971Y-76257000D01*
X207137584Y-76286684D01*
X207089176Y-76291452D01*
X206806905Y-76377078D01*
X206640356Y-76427600D01*
X206226721Y-76648692D01*
X205864167Y-76946233D01*
X205789604Y-77037088D01*
X202217083Y-80609610D01*
X202126223Y-80684177D01*
X201828682Y-81046732D01*
X201646270Y-81388002D01*
X201607590Y-81460367D01*
X201475307Y-81896448D01*
X201471442Y-81909188D01*
X201436990Y-82258982D01*
X201436990Y-82258988D01*
X201425471Y-82375944D01*
X201436990Y-82492900D01*
X201436991Y-92418972D01*
X201436990Y-92418982D01*
X201436990Y-92418988D01*
X201425471Y-92535944D01*
X201436990Y-92652900D01*
X201436991Y-102578971D01*
X201436990Y-102578981D01*
X201436990Y-102578988D01*
X201425471Y-102695944D01*
X201436990Y-102812900D01*
X201436990Y-104553000D01*
X196600953Y-104553000D01*
X196483997Y-104541481D01*
X196367041Y-104553000D01*
X196367035Y-104553000D01*
X196065648Y-104582684D01*
X196017240Y-104587452D01*
X195626436Y-104706001D01*
X195568420Y-104723600D01*
X195154785Y-104944692D01*
X195017220Y-105057589D01*
X194883887Y-105167013D01*
X194792231Y-105242233D01*
X194717673Y-105333082D01*
X190163757Y-109887000D01*
X177282739Y-109887000D01*
X177311000Y-109744922D01*
X177311000Y-109591078D01*
X177280987Y-109440191D01*
X177222113Y-109298058D01*
X177136642Y-109170141D01*
X177027859Y-109061358D01*
X176899942Y-108975887D01*
X176757809Y-108917013D01*
X176606922Y-108887000D01*
X176453078Y-108887000D01*
X176302191Y-108917013D01*
X176160058Y-108975887D01*
X176032141Y-109061358D01*
X175931499Y-109162000D01*
X155170582Y-109162000D01*
X146556000Y-100547419D01*
X146556000Y-96921675D01*
X150065597Y-96921675D01*
X150065597Y-97075519D01*
X150095610Y-97226406D01*
X150154484Y-97368539D01*
X150239955Y-97496456D01*
X150279499Y-97536000D01*
X150269358Y-97546141D01*
X150183887Y-97674058D01*
X150125013Y-97816191D01*
X150095000Y-97967078D01*
X150095000Y-98120922D01*
X150125013Y-98271809D01*
X150183887Y-98413942D01*
X150269358Y-98541859D01*
X150378141Y-98650642D01*
X150506058Y-98736113D01*
X150648191Y-98794987D01*
X150799078Y-98825000D01*
X150941409Y-98825000D01*
X154310628Y-102194220D01*
X154326473Y-102213527D01*
X154403521Y-102276759D01*
X154491425Y-102323745D01*
X154586807Y-102352678D01*
X154686000Y-102362448D01*
X154710854Y-102360000D01*
X159929499Y-102360000D01*
X160030141Y-102460642D01*
X160158058Y-102546113D01*
X160276001Y-102594967D01*
X160276000Y-105065499D01*
X160175358Y-105166141D01*
X160089887Y-105294058D01*
X160031013Y-105436191D01*
X160001000Y-105587078D01*
X160001000Y-105740922D01*
X160031013Y-105891809D01*
X160089887Y-106033942D01*
X160175358Y-106161859D01*
X160284141Y-106270642D01*
X160412058Y-106356113D01*
X160554191Y-106414987D01*
X160705078Y-106445000D01*
X160858922Y-106445000D01*
X161009809Y-106414987D01*
X161151942Y-106356113D01*
X161279859Y-106270642D01*
X161388642Y-106161859D01*
X161474113Y-106033942D01*
X161532987Y-105891809D01*
X161563000Y-105740922D01*
X161563000Y-105587078D01*
X161532987Y-105436191D01*
X161474113Y-105294058D01*
X161388642Y-105166141D01*
X161288000Y-105065499D01*
X161288000Y-102132845D01*
X161290447Y-102107999D01*
X161288000Y-102083153D01*
X161288000Y-102083146D01*
X161284927Y-102051946D01*
X161309000Y-101930922D01*
X161309000Y-101777078D01*
X161278987Y-101626191D01*
X161220113Y-101484058D01*
X161219400Y-101482992D01*
X166886728Y-107150320D01*
X166889013Y-107161809D01*
X166947887Y-107303942D01*
X167033358Y-107431859D01*
X167142141Y-107540642D01*
X167270058Y-107626113D01*
X167412191Y-107684987D01*
X167563078Y-107715000D01*
X167716922Y-107715000D01*
X167867809Y-107684987D01*
X168009942Y-107626113D01*
X168020470Y-107619078D01*
X178543000Y-107619078D01*
X178543000Y-107772922D01*
X178573013Y-107923809D01*
X178631887Y-108065942D01*
X178717358Y-108193859D01*
X178826141Y-108302642D01*
X178954058Y-108388113D01*
X179096191Y-108446987D01*
X179247078Y-108477000D01*
X179400922Y-108477000D01*
X179551809Y-108446987D01*
X179693942Y-108388113D01*
X179821859Y-108302642D01*
X179930642Y-108193859D01*
X180016113Y-108065942D01*
X180074987Y-107923809D01*
X180105000Y-107772922D01*
X180105000Y-107619078D01*
X180074987Y-107468191D01*
X180016113Y-107326058D01*
X179930642Y-107198141D01*
X179821859Y-107089358D01*
X179693942Y-107003887D01*
X179551809Y-106945013D01*
X179400922Y-106915000D01*
X179247078Y-106915000D01*
X179096191Y-106945013D01*
X178954058Y-107003887D01*
X178826141Y-107089358D01*
X178717358Y-107198141D01*
X178631887Y-107326058D01*
X178573013Y-107468191D01*
X178543000Y-107619078D01*
X168020470Y-107619078D01*
X168137859Y-107540642D01*
X168246642Y-107431859D01*
X168332113Y-107303942D01*
X168390987Y-107161809D01*
X168421000Y-107010922D01*
X168421000Y-106857078D01*
X168390987Y-106706191D01*
X168332113Y-106564058D01*
X168246642Y-106436141D01*
X168137859Y-106327358D01*
X168009942Y-106241887D01*
X167867809Y-106183013D01*
X167716922Y-106153000D01*
X167563078Y-106153000D01*
X167412191Y-106183013D01*
X167368643Y-106201051D01*
X161309000Y-100141409D01*
X161309000Y-99999078D01*
X161280739Y-99856999D01*
X163911408Y-99856999D01*
X167113000Y-103058592D01*
X167113000Y-103200922D01*
X167143013Y-103351809D01*
X167201887Y-103493942D01*
X167287358Y-103621859D01*
X167396141Y-103730642D01*
X167524058Y-103816113D01*
X167666191Y-103874987D01*
X167817078Y-103905000D01*
X167970922Y-103905000D01*
X168121809Y-103874987D01*
X168263942Y-103816113D01*
X168391859Y-103730642D01*
X168500642Y-103621859D01*
X168586113Y-103493942D01*
X168644987Y-103351809D01*
X168675000Y-103200922D01*
X168675000Y-103047078D01*
X168644987Y-102896191D01*
X168586113Y-102754058D01*
X168500642Y-102626141D01*
X168391859Y-102517358D01*
X168263942Y-102431887D01*
X168121809Y-102373013D01*
X167970922Y-102343000D01*
X167828592Y-102343000D01*
X165992670Y-100507078D01*
X170161000Y-100507078D01*
X170161000Y-100660922D01*
X170191013Y-100811809D01*
X170249887Y-100953942D01*
X170335358Y-101081859D01*
X170444141Y-101190642D01*
X170572058Y-101276113D01*
X170714191Y-101334987D01*
X170865078Y-101365000D01*
X171007409Y-101365000D01*
X173738001Y-104095593D01*
X173738000Y-105319499D01*
X173637358Y-105420141D01*
X173551887Y-105548058D01*
X173493013Y-105690191D01*
X173463000Y-105841078D01*
X173463000Y-105994922D01*
X173493013Y-106145809D01*
X173551887Y-106287942D01*
X173637358Y-106415859D01*
X173746141Y-106524642D01*
X173874058Y-106610113D01*
X174016191Y-106668987D01*
X174167078Y-106699000D01*
X174320922Y-106699000D01*
X174471809Y-106668987D01*
X174613942Y-106610113D01*
X174741859Y-106524642D01*
X174850642Y-106415859D01*
X174936113Y-106287942D01*
X174994987Y-106145809D01*
X175025000Y-105994922D01*
X175025000Y-105841078D01*
X174994987Y-105690191D01*
X174936113Y-105548058D01*
X174850642Y-105420141D01*
X174750000Y-105319499D01*
X174750000Y-103910845D01*
X174752447Y-103885999D01*
X174750000Y-103861153D01*
X174750000Y-103861146D01*
X174742678Y-103786807D01*
X174740358Y-103779157D01*
X174713745Y-103691425D01*
X174681981Y-103632000D01*
X174666759Y-103603521D01*
X174603527Y-103526473D01*
X174584220Y-103510628D01*
X171723000Y-100649409D01*
X171723000Y-100507078D01*
X171692987Y-100356191D01*
X171634113Y-100214058D01*
X171548642Y-100086141D01*
X171439859Y-99977358D01*
X171311942Y-99891887D01*
X171169809Y-99833013D01*
X171018922Y-99803000D01*
X170865078Y-99803000D01*
X170714191Y-99833013D01*
X170572058Y-99891887D01*
X170444141Y-99977358D01*
X170335358Y-100086141D01*
X170249887Y-100214058D01*
X170191013Y-100356191D01*
X170161000Y-100507078D01*
X165992670Y-100507078D01*
X164496375Y-99010784D01*
X164480526Y-98991472D01*
X164403478Y-98928240D01*
X164315574Y-98881254D01*
X164220192Y-98852321D01*
X164145853Y-98844999D01*
X164145845Y-98844999D01*
X164120999Y-98842552D01*
X164096153Y-98844999D01*
X159870037Y-98844999D01*
X159501300Y-98476262D01*
X159571425Y-98513745D01*
X159644607Y-98535944D01*
X159666806Y-98542678D01*
X159676694Y-98543652D01*
X159741146Y-98550000D01*
X159741153Y-98550000D01*
X159765999Y-98552447D01*
X159790845Y-98550000D01*
X171359499Y-98550000D01*
X171460141Y-98650642D01*
X171588058Y-98736113D01*
X171730191Y-98794987D01*
X171881078Y-98825000D01*
X172034922Y-98825000D01*
X172185809Y-98794987D01*
X172327942Y-98736113D01*
X172455859Y-98650642D01*
X172564642Y-98541859D01*
X172650113Y-98413942D01*
X172708987Y-98271809D01*
X172739000Y-98120922D01*
X172739000Y-97967078D01*
X172708987Y-97816191D01*
X172650113Y-97674058D01*
X172564642Y-97546141D01*
X172552501Y-97534000D01*
X175235154Y-97534000D01*
X175260000Y-97536447D01*
X175284846Y-97534000D01*
X175284854Y-97534000D01*
X175316054Y-97530927D01*
X175437078Y-97555000D01*
X175590922Y-97555000D01*
X175741809Y-97524987D01*
X175883942Y-97466113D01*
X176011859Y-97380642D01*
X176120642Y-97271859D01*
X176206113Y-97143942D01*
X176264987Y-97001809D01*
X176295000Y-96850922D01*
X176295000Y-96697078D01*
X176264987Y-96546191D01*
X176206113Y-96404058D01*
X176120642Y-96276141D01*
X176011859Y-96167358D01*
X175883942Y-96081887D01*
X175741809Y-96023013D01*
X175590922Y-95993000D01*
X175437078Y-95993000D01*
X175286191Y-96023013D01*
X175144058Y-96081887D01*
X175016141Y-96167358D01*
X174907358Y-96276141D01*
X174821887Y-96404058D01*
X174773033Y-96522000D01*
X169504501Y-96522000D01*
X169516642Y-96509859D01*
X169602113Y-96381942D01*
X169660987Y-96239809D01*
X169691000Y-96088922D01*
X169691000Y-95935078D01*
X169660987Y-95784191D01*
X169602113Y-95642058D01*
X169516642Y-95514141D01*
X169407859Y-95405358D01*
X169279942Y-95319887D01*
X169137809Y-95261013D01*
X168986922Y-95231000D01*
X168844592Y-95231000D01*
X168269376Y-94655785D01*
X168253527Y-94636473D01*
X168176479Y-94573241D01*
X168088575Y-94526255D01*
X167993193Y-94497322D01*
X167918854Y-94490000D01*
X167918846Y-94490000D01*
X167894000Y-94487553D01*
X167869154Y-94490000D01*
X162904501Y-94490000D01*
X162803859Y-94389358D01*
X162675942Y-94303887D01*
X162533809Y-94245013D01*
X162382922Y-94215000D01*
X162229078Y-94215000D01*
X162078191Y-94245013D01*
X161936058Y-94303887D01*
X161808141Y-94389358D01*
X161699358Y-94498141D01*
X161613887Y-94626058D01*
X161555013Y-94768191D01*
X161525000Y-94919078D01*
X161525000Y-95072922D01*
X161555013Y-95223809D01*
X161613887Y-95365942D01*
X161699358Y-95493859D01*
X161808141Y-95602642D01*
X161936058Y-95688113D01*
X162078191Y-95746987D01*
X162229078Y-95777000D01*
X162382922Y-95777000D01*
X162533809Y-95746987D01*
X162675942Y-95688113D01*
X162803859Y-95602642D01*
X162904501Y-95502000D01*
X167684409Y-95502000D01*
X168129000Y-95946592D01*
X168129000Y-96088922D01*
X168159013Y-96239809D01*
X168217887Y-96381942D01*
X168303358Y-96509859D01*
X168315499Y-96522000D01*
X164682501Y-96522000D01*
X164581859Y-96421358D01*
X164453942Y-96335887D01*
X164311809Y-96277013D01*
X164160922Y-96247000D01*
X164007078Y-96247000D01*
X163856191Y-96277013D01*
X163714058Y-96335887D01*
X163586141Y-96421358D01*
X163485499Y-96522000D01*
X160991592Y-96522000D01*
X159785000Y-95315409D01*
X159785000Y-95173078D01*
X159754987Y-95022191D01*
X159696113Y-94880058D01*
X159610642Y-94752141D01*
X159501859Y-94643358D01*
X159373942Y-94557887D01*
X159231809Y-94499013D01*
X159080922Y-94469000D01*
X158927078Y-94469000D01*
X158776191Y-94499013D01*
X158634058Y-94557887D01*
X158506141Y-94643358D01*
X158397358Y-94752141D01*
X158311887Y-94880058D01*
X158253013Y-95022191D01*
X158223000Y-95173078D01*
X158223000Y-95326922D01*
X158253013Y-95477809D01*
X158311887Y-95619942D01*
X158397358Y-95747859D01*
X158506141Y-95856642D01*
X158634058Y-95942113D01*
X158776191Y-96000987D01*
X158927078Y-96031000D01*
X159069409Y-96031000D01*
X160406628Y-97368220D01*
X160422473Y-97387527D01*
X160499521Y-97450759D01*
X160587425Y-97497745D01*
X160682807Y-97526678D01*
X160782000Y-97536448D01*
X160806854Y-97534000D01*
X163485499Y-97534000D01*
X163489499Y-97538000D01*
X159975592Y-97538000D01*
X157240772Y-94803180D01*
X157245000Y-94781922D01*
X157245000Y-94628078D01*
X157214987Y-94477191D01*
X157156113Y-94335058D01*
X157070642Y-94207141D01*
X156961859Y-94098358D01*
X156833942Y-94012887D01*
X156691809Y-93954013D01*
X156540922Y-93924000D01*
X156387078Y-93924000D01*
X156236191Y-93954013D01*
X156163471Y-93984135D01*
X156110807Y-93989322D01*
X156015425Y-94018255D01*
X155927521Y-94065241D01*
X155850473Y-94128473D01*
X155787241Y-94205521D01*
X155740255Y-94293425D01*
X155711322Y-94388807D01*
X155701552Y-94488000D01*
X155704636Y-94519307D01*
X155701693Y-94534101D01*
X155213000Y-94045409D01*
X155213000Y-93903078D01*
X155182987Y-93752191D01*
X155124113Y-93610058D01*
X155038642Y-93482141D01*
X154929859Y-93373358D01*
X154801942Y-93287887D01*
X154659809Y-93229013D01*
X154508922Y-93199000D01*
X154355078Y-93199000D01*
X154204191Y-93229013D01*
X154062058Y-93287887D01*
X153934141Y-93373358D01*
X153825358Y-93482141D01*
X153739887Y-93610058D01*
X153681013Y-93752191D01*
X153651000Y-93903078D01*
X153651000Y-94056922D01*
X153681013Y-94207809D01*
X153739887Y-94349942D01*
X153825358Y-94477859D01*
X153934141Y-94586642D01*
X154062058Y-94672113D01*
X154204191Y-94730987D01*
X154355078Y-94761000D01*
X154497409Y-94761000D01*
X155036599Y-95300191D01*
X155039312Y-95327736D01*
X155068245Y-95423118D01*
X155115231Y-95511023D01*
X155178463Y-95588071D01*
X155197775Y-95603920D01*
X159285073Y-99691219D01*
X159300918Y-99710526D01*
X159377966Y-99773758D01*
X159432674Y-99803000D01*
X159465870Y-99820744D01*
X159561252Y-99849677D01*
X159660445Y-99859447D01*
X159685299Y-99856999D01*
X159775261Y-99856999D01*
X159747000Y-99999078D01*
X159747000Y-100152922D01*
X159777013Y-100303809D01*
X159835887Y-100445942D01*
X159921358Y-100573859D01*
X160030141Y-100682642D01*
X160158058Y-100768113D01*
X160300191Y-100826987D01*
X160451078Y-100857000D01*
X160593409Y-100857000D01*
X160899009Y-101162600D01*
X160897942Y-101161887D01*
X160755809Y-101103013D01*
X160604922Y-101073000D01*
X160451078Y-101073000D01*
X160300191Y-101103013D01*
X160158058Y-101161887D01*
X160030141Y-101247358D01*
X159929499Y-101348000D01*
X158891398Y-101348000D01*
X158956819Y-101334987D01*
X159098952Y-101276113D01*
X159226869Y-101190642D01*
X159335652Y-101081859D01*
X159421123Y-100953942D01*
X159479997Y-100811809D01*
X159510010Y-100660922D01*
X159510010Y-100507078D01*
X159479997Y-100356191D01*
X159421123Y-100214058D01*
X159335652Y-100086141D01*
X159226869Y-99977358D01*
X159098952Y-99891887D01*
X158956819Y-99833013D01*
X158805932Y-99803000D01*
X158652088Y-99803000D01*
X158501201Y-99833013D01*
X158359068Y-99891887D01*
X158231151Y-99977358D01*
X158130509Y-100078000D01*
X154641592Y-100078000D01*
X152073241Y-97509650D01*
X152070746Y-97501424D01*
X152051871Y-97466113D01*
X152023760Y-97413520D01*
X151960528Y-97336472D01*
X151941221Y-97320627D01*
X151627597Y-97007004D01*
X151627597Y-96921675D01*
X151597584Y-96770788D01*
X151538710Y-96628655D01*
X151453239Y-96500738D01*
X151344456Y-96391955D01*
X151216539Y-96306484D01*
X151074406Y-96247610D01*
X150923519Y-96217597D01*
X150769675Y-96217597D01*
X150618788Y-96247610D01*
X150476655Y-96306484D01*
X150348738Y-96391955D01*
X150239955Y-96500738D01*
X150154484Y-96628655D01*
X150095610Y-96770788D01*
X150065597Y-96921675D01*
X146556000Y-96921675D01*
X146556000Y-90006501D01*
X146656642Y-89905859D01*
X146742113Y-89777942D01*
X146800987Y-89635809D01*
X146831000Y-89484922D01*
X146831000Y-89331078D01*
X146802739Y-89188999D01*
X148417408Y-89188999D01*
X151111000Y-91882592D01*
X151111000Y-92024922D01*
X151141013Y-92175809D01*
X151199887Y-92317942D01*
X151285358Y-92445859D01*
X151394141Y-92554642D01*
X151522058Y-92640113D01*
X151664191Y-92698987D01*
X151815078Y-92729000D01*
X151968922Y-92729000D01*
X152119809Y-92698987D01*
X152261942Y-92640113D01*
X152389859Y-92554642D01*
X152490501Y-92454000D01*
X161707499Y-92454000D01*
X161808141Y-92554642D01*
X161936058Y-92640113D01*
X162078191Y-92698987D01*
X162229078Y-92729000D01*
X162382922Y-92729000D01*
X162533809Y-92698987D01*
X162675942Y-92640113D01*
X162803859Y-92554642D01*
X162912642Y-92445859D01*
X162998113Y-92317942D01*
X163056987Y-92175809D01*
X163087000Y-92024922D01*
X163087000Y-91871078D01*
X163056987Y-91720191D01*
X162998113Y-91578058D01*
X162912642Y-91450141D01*
X162803859Y-91341358D01*
X162675942Y-91255887D01*
X162533809Y-91197013D01*
X162382922Y-91167000D01*
X162229078Y-91167000D01*
X162078191Y-91197013D01*
X161936058Y-91255887D01*
X161808141Y-91341358D01*
X161707499Y-91442000D01*
X152490501Y-91442000D01*
X152389859Y-91341358D01*
X152261942Y-91255887D01*
X152119809Y-91197013D01*
X151968922Y-91167000D01*
X151826592Y-91167000D01*
X149228670Y-88569078D01*
X156191000Y-88569078D01*
X156191000Y-88722922D01*
X156221013Y-88873809D01*
X156279887Y-89015942D01*
X156365358Y-89143859D01*
X156474141Y-89252642D01*
X156602058Y-89338113D01*
X156744191Y-89396987D01*
X156895078Y-89427000D01*
X157048922Y-89427000D01*
X157199809Y-89396987D01*
X157341942Y-89338113D01*
X157469859Y-89252642D01*
X157513499Y-89209002D01*
X162469499Y-89209002D01*
X162570141Y-89309644D01*
X162698058Y-89395115D01*
X162840191Y-89453989D01*
X162991078Y-89484002D01*
X163133409Y-89484002D01*
X168165636Y-94516230D01*
X168181481Y-94535537D01*
X168258529Y-94598769D01*
X168329068Y-94636473D01*
X168346433Y-94645755D01*
X168441815Y-94674688D01*
X168541008Y-94684458D01*
X168565862Y-94682010D01*
X176055144Y-94682010D01*
X176079990Y-94684457D01*
X176104836Y-94682010D01*
X176104844Y-94682010D01*
X176179183Y-94674688D01*
X176274565Y-94645755D01*
X176362469Y-94598769D01*
X176439517Y-94535537D01*
X176455366Y-94516225D01*
X176464591Y-94507000D01*
X176606922Y-94507000D01*
X176757809Y-94476987D01*
X176899942Y-94418113D01*
X177027859Y-94332642D01*
X177136642Y-94223859D01*
X177222113Y-94095942D01*
X177280987Y-93953809D01*
X177311000Y-93802922D01*
X177311000Y-93649078D01*
X177280987Y-93498191D01*
X177222113Y-93356058D01*
X177136642Y-93228141D01*
X177124501Y-93216000D01*
X181886690Y-93216000D01*
X181875013Y-93244191D01*
X181845000Y-93395078D01*
X181845000Y-93548922D01*
X181850037Y-93574246D01*
X181839246Y-93594435D01*
X181810313Y-93689817D01*
X181800544Y-93789009D01*
X181802992Y-93813865D01*
X181802992Y-95933372D01*
X181780871Y-95822164D01*
X181631539Y-95461645D01*
X181414743Y-95137186D01*
X181138814Y-94861257D01*
X180814355Y-94644461D01*
X180453836Y-94495129D01*
X180071111Y-94419000D01*
X179680889Y-94419000D01*
X179298164Y-94495129D01*
X178937645Y-94644461D01*
X178613186Y-94861257D01*
X178337257Y-95137186D01*
X178120461Y-95461645D01*
X177971129Y-95822164D01*
X177895000Y-96204889D01*
X177895000Y-96595111D01*
X177971129Y-96977836D01*
X178120461Y-97338355D01*
X178337257Y-97662814D01*
X178613186Y-97938743D01*
X178937645Y-98155539D01*
X179298164Y-98304871D01*
X179680889Y-98381000D01*
X180071111Y-98381000D01*
X180453836Y-98304871D01*
X180814355Y-98155539D01*
X181138814Y-97938743D01*
X181414743Y-97662814D01*
X181631539Y-97338355D01*
X181780871Y-96977836D01*
X181802992Y-96866628D01*
X181802991Y-103948885D01*
X181800544Y-103973731D01*
X181802991Y-103998577D01*
X181802991Y-103998584D01*
X181810313Y-104072923D01*
X181839246Y-104168305D01*
X181886232Y-104256210D01*
X181949464Y-104333258D01*
X181968776Y-104349107D01*
X185464898Y-107845230D01*
X185480743Y-107864537D01*
X185557791Y-107927769D01*
X185645695Y-107974755D01*
X185741077Y-108003688D01*
X185840270Y-108013458D01*
X185865124Y-108011010D01*
X190920144Y-108011010D01*
X190944990Y-108013457D01*
X190969836Y-108011010D01*
X190969844Y-108011010D01*
X191044183Y-108003688D01*
X191139565Y-107974755D01*
X191227469Y-107927769D01*
X191304517Y-107864537D01*
X191320366Y-107845225D01*
X192720592Y-106445000D01*
X192862922Y-106445000D01*
X193013809Y-106414987D01*
X193155942Y-106356113D01*
X193283859Y-106270642D01*
X193392642Y-106161859D01*
X193478113Y-106033942D01*
X193536987Y-105891809D01*
X193567000Y-105740922D01*
X193567000Y-105587078D01*
X193536987Y-105436191D01*
X193478113Y-105294058D01*
X193392642Y-105166141D01*
X193283859Y-105057358D01*
X193155942Y-104971887D01*
X193013809Y-104913013D01*
X192862922Y-104883000D01*
X192780922Y-104883000D01*
X193185559Y-104478363D01*
X193268068Y-104377826D01*
X193349875Y-104224775D01*
X193400251Y-104058706D01*
X193417262Y-103886000D01*
X193400251Y-103713294D01*
X193349875Y-103547225D01*
X193268068Y-103394175D01*
X193157974Y-103260026D01*
X193023825Y-103149932D01*
X192870775Y-103068125D01*
X192869239Y-103067659D01*
X192901942Y-103054113D01*
X193029859Y-102968642D01*
X193138642Y-102859859D01*
X193224113Y-102731942D01*
X193282987Y-102589809D01*
X193313000Y-102438922D01*
X193313000Y-102296592D01*
X193597221Y-102012371D01*
X193616528Y-101996526D01*
X193679760Y-101919478D01*
X193726746Y-101831574D01*
X193742279Y-101780367D01*
X193755679Y-101736193D01*
X193760697Y-101685241D01*
X193763001Y-101661853D01*
X193763001Y-101661846D01*
X193765448Y-101637000D01*
X193763001Y-101612154D01*
X193763001Y-91427855D01*
X193765449Y-91403001D01*
X193755679Y-91303808D01*
X193726746Y-91208426D01*
X193679760Y-91120522D01*
X193616528Y-91043474D01*
X193539480Y-90980242D01*
X193451576Y-90933256D01*
X193356194Y-90904323D01*
X193281855Y-90897001D01*
X193257001Y-90894553D01*
X193232147Y-90897001D01*
X173923434Y-90897001D01*
X173898588Y-90894554D01*
X173873742Y-90897001D01*
X173873735Y-90897001D01*
X173809283Y-90903349D01*
X173799395Y-90904323D01*
X173704014Y-90933256D01*
X173616110Y-90980242D01*
X173539062Y-91043474D01*
X173523217Y-91062781D01*
X172418998Y-92167001D01*
X170549591Y-92167001D01*
X168198997Y-89816408D01*
X168198997Y-89585078D01*
X173971000Y-89585078D01*
X173971000Y-89738922D01*
X174001013Y-89889809D01*
X174059887Y-90031942D01*
X174145358Y-90159859D01*
X174254141Y-90268642D01*
X174382058Y-90354113D01*
X174524191Y-90412987D01*
X174675078Y-90443000D01*
X174828922Y-90443000D01*
X174979809Y-90412987D01*
X175121942Y-90354113D01*
X175249859Y-90268642D01*
X175350501Y-90168000D01*
X189076744Y-90168000D01*
X189101590Y-90170447D01*
X189126436Y-90168000D01*
X189126444Y-90168000D01*
X189200783Y-90160678D01*
X189296165Y-90131745D01*
X189384069Y-90084759D01*
X189461117Y-90021527D01*
X189476966Y-90002215D01*
X190073182Y-89406000D01*
X192024304Y-89406000D01*
X192049150Y-89408447D01*
X192073996Y-89406000D01*
X192074004Y-89406000D01*
X192148343Y-89398678D01*
X192243725Y-89369745D01*
X192331629Y-89322759D01*
X192408677Y-89259527D01*
X192424526Y-89240215D01*
X193976233Y-87688509D01*
X193995534Y-87672669D01*
X194011374Y-87653368D01*
X194011378Y-87653364D01*
X194058766Y-87595621D01*
X194105753Y-87507717D01*
X194134686Y-87412336D01*
X194144455Y-87313143D01*
X194142007Y-87288286D01*
X194142009Y-76312855D01*
X194144456Y-76288008D01*
X194142009Y-76263162D01*
X194142009Y-76263156D01*
X194136635Y-76208590D01*
X194134687Y-76188815D01*
X194111925Y-76113779D01*
X194105754Y-76093435D01*
X194058768Y-76005531D01*
X194041307Y-75984255D01*
X194011379Y-75947787D01*
X194011376Y-75947784D01*
X193995536Y-75928483D01*
X193976235Y-75912643D01*
X193567000Y-75503409D01*
X193567000Y-75361078D01*
X193536987Y-75210191D01*
X193478113Y-75068058D01*
X193465379Y-75049000D01*
X194861273Y-75049000D01*
X194990706Y-75036252D01*
X195156775Y-74985875D01*
X195309825Y-74904068D01*
X195443975Y-74793975D01*
X195554068Y-74659825D01*
X195635875Y-74506775D01*
X195686252Y-74340706D01*
X195703262Y-74168000D01*
X195686252Y-73995294D01*
X195635875Y-73829225D01*
X195554068Y-73676175D01*
X195457086Y-73558000D01*
X205630125Y-73558000D01*
X205657561Y-73836565D01*
X205738816Y-74104424D01*
X205870765Y-74351285D01*
X206048340Y-74567660D01*
X206264715Y-74745235D01*
X206511576Y-74877184D01*
X206779435Y-74958439D01*
X206988196Y-74979000D01*
X208647804Y-74979000D01*
X208856565Y-74958439D01*
X209124424Y-74877184D01*
X209371285Y-74745235D01*
X209587660Y-74567660D01*
X209765235Y-74351285D01*
X209897184Y-74104424D01*
X209978439Y-73836565D01*
X210005875Y-73558000D01*
X209978439Y-73279435D01*
X209897184Y-73011576D01*
X209765235Y-72764715D01*
X209587660Y-72548340D01*
X209371285Y-72370765D01*
X209124424Y-72238816D01*
X208856565Y-72157561D01*
X208647804Y-72137000D01*
X206988196Y-72137000D01*
X206779435Y-72157561D01*
X206511576Y-72238816D01*
X206264715Y-72370765D01*
X206048340Y-72548340D01*
X205870765Y-72764715D01*
X205738816Y-73011576D01*
X205657561Y-73279435D01*
X205630125Y-73558000D01*
X195457086Y-73558000D01*
X195443975Y-73542025D01*
X195309825Y-73431932D01*
X195156775Y-73350125D01*
X194990706Y-73299748D01*
X194861273Y-73287000D01*
X185784922Y-73287000D01*
X184510403Y-72012481D01*
X195985124Y-72012481D01*
X196297308Y-72461177D01*
X196893259Y-72781612D01*
X197540273Y-72979626D01*
X198213484Y-73047610D01*
X198887023Y-72982949D01*
X199535006Y-72788130D01*
X200132530Y-72470639D01*
X200146692Y-72461177D01*
X200458876Y-72012481D01*
X198222000Y-69775605D01*
X195985124Y-72012481D01*
X184510403Y-72012481D01*
X184234362Y-71736441D01*
X184133825Y-71653932D01*
X183980774Y-71572125D01*
X183814705Y-71521749D01*
X183642000Y-71504738D01*
X183469295Y-71521749D01*
X183303226Y-71572125D01*
X183150175Y-71653932D01*
X183016026Y-71764026D01*
X182905932Y-71898175D01*
X182824125Y-72051226D01*
X182773749Y-72217295D01*
X182756738Y-72390000D01*
X182773749Y-72562705D01*
X182824125Y-72728774D01*
X182905932Y-72881825D01*
X182988441Y-72982362D01*
X184766439Y-74760361D01*
X184794025Y-74793975D01*
X184852619Y-74842061D01*
X184928174Y-74904068D01*
X185029896Y-74958439D01*
X185081225Y-74985875D01*
X185247294Y-75036252D01*
X185376727Y-75049000D01*
X185376730Y-75049000D01*
X185420000Y-75053262D01*
X185463270Y-75049000D01*
X192106621Y-75049000D01*
X192093887Y-75068058D01*
X192035013Y-75210191D01*
X192005000Y-75361078D01*
X192005000Y-75514922D01*
X192035013Y-75665809D01*
X192093887Y-75807942D01*
X192179358Y-75935859D01*
X192288141Y-76044642D01*
X192416058Y-76130113D01*
X192558191Y-76188987D01*
X192709078Y-76219000D01*
X192851409Y-76219000D01*
X193130010Y-76497602D01*
X193130010Y-78938259D01*
X193058118Y-78830665D01*
X192949335Y-78721882D01*
X192821418Y-78636411D01*
X192679285Y-78577537D01*
X192528398Y-78547524D01*
X192374554Y-78547524D01*
X192223667Y-78577537D01*
X192081534Y-78636411D01*
X191953617Y-78721882D01*
X191844834Y-78830665D01*
X191759363Y-78958582D01*
X191700489Y-79100715D01*
X191670476Y-79251602D01*
X191670476Y-79397244D01*
X191638241Y-79436522D01*
X191623690Y-79463745D01*
X191591254Y-79524427D01*
X191562321Y-79619809D01*
X191552552Y-79719001D01*
X191555000Y-79743857D01*
X191554999Y-84391077D01*
X187089566Y-79925645D01*
X187061975Y-79892025D01*
X186927825Y-79781932D01*
X186774775Y-79700125D01*
X186608706Y-79649748D01*
X186479273Y-79637000D01*
X186479270Y-79637000D01*
X186436000Y-79632738D01*
X186392730Y-79637000D01*
X185630727Y-79637000D01*
X185501294Y-79649748D01*
X185335225Y-79700125D01*
X185182175Y-79781932D01*
X185048025Y-79892025D01*
X184937932Y-80026175D01*
X184856125Y-80179225D01*
X184805748Y-80345294D01*
X184788738Y-80518000D01*
X184805748Y-80690706D01*
X184856125Y-80856775D01*
X184937932Y-81009825D01*
X185048025Y-81143975D01*
X185182175Y-81254068D01*
X185335225Y-81335875D01*
X185501294Y-81386252D01*
X185630727Y-81399000D01*
X186071079Y-81399000D01*
X190309078Y-85637000D01*
X188812501Y-85637000D01*
X188711859Y-85536358D01*
X188583942Y-85450887D01*
X188441809Y-85392013D01*
X188290922Y-85362000D01*
X188137078Y-85362000D01*
X187986191Y-85392013D01*
X187844058Y-85450887D01*
X187716141Y-85536358D01*
X187607358Y-85645141D01*
X187521887Y-85773058D01*
X187463013Y-85915191D01*
X187433000Y-86066078D01*
X187433000Y-86219922D01*
X187463013Y-86370809D01*
X187521887Y-86512942D01*
X187607358Y-86640859D01*
X187716141Y-86749642D01*
X187844058Y-86835113D01*
X187986191Y-86893987D01*
X188137078Y-86924000D01*
X188290922Y-86924000D01*
X188441809Y-86893987D01*
X188583942Y-86835113D01*
X188711859Y-86749642D01*
X188812501Y-86649000D01*
X191856152Y-86649000D01*
X191880998Y-86651447D01*
X191905844Y-86649000D01*
X191905852Y-86649000D01*
X191980191Y-86641678D01*
X192075573Y-86612745D01*
X192163477Y-86565759D01*
X192240525Y-86502527D01*
X192256374Y-86483215D01*
X192401214Y-86338375D01*
X192420526Y-86322526D01*
X192483758Y-86245478D01*
X192530744Y-86157574D01*
X192559677Y-86062192D01*
X192566999Y-85987853D01*
X192566999Y-85987852D01*
X192569447Y-85962999D01*
X192566999Y-85938145D01*
X192566999Y-85080739D01*
X192679999Y-85103216D01*
X192680000Y-86917148D01*
X191711149Y-87886000D01*
X186387591Y-87886000D01*
X186522215Y-87751376D01*
X186541527Y-87735527D01*
X186604759Y-87658479D01*
X186651745Y-87570575D01*
X186680678Y-87475193D01*
X186688000Y-87400854D01*
X186688000Y-87400847D01*
X186690447Y-87376001D01*
X186688000Y-87351155D01*
X186688000Y-84164501D01*
X186788642Y-84063859D01*
X186874113Y-83935942D01*
X186932987Y-83793809D01*
X186963000Y-83642922D01*
X186963000Y-83489078D01*
X186932987Y-83338191D01*
X186874113Y-83196058D01*
X186788642Y-83068141D01*
X186679859Y-82959358D01*
X186551942Y-82873887D01*
X186409809Y-82815013D01*
X186258922Y-82785000D01*
X186105078Y-82785000D01*
X185954191Y-82815013D01*
X185812058Y-82873887D01*
X185684141Y-82959358D01*
X185575358Y-83068141D01*
X185489887Y-83196058D01*
X185431013Y-83338191D01*
X185401000Y-83489078D01*
X185401000Y-83642922D01*
X185431013Y-83793809D01*
X185489887Y-83935942D01*
X185575358Y-84063859D01*
X185676001Y-84164502D01*
X185676000Y-87124000D01*
X185002501Y-87124000D01*
X184901859Y-87023358D01*
X184773942Y-86937887D01*
X184631809Y-86879013D01*
X184480922Y-86849000D01*
X184327078Y-86849000D01*
X184176191Y-86879013D01*
X184034058Y-86937887D01*
X183906141Y-87023358D01*
X183797358Y-87132141D01*
X183711887Y-87260058D01*
X183653013Y-87402191D01*
X183623000Y-87553078D01*
X183623000Y-87706922D01*
X183653013Y-87857809D01*
X183664690Y-87886000D01*
X176366501Y-87886000D01*
X176265859Y-87785358D01*
X176137942Y-87699887D01*
X175995809Y-87641013D01*
X175844922Y-87611000D01*
X175691078Y-87611000D01*
X175540191Y-87641013D01*
X175398058Y-87699887D01*
X175270141Y-87785358D01*
X175161358Y-87894141D01*
X175075887Y-88022058D01*
X175017013Y-88164191D01*
X174987000Y-88315078D01*
X174987000Y-88468922D01*
X175017013Y-88619809D01*
X175075887Y-88761942D01*
X175161358Y-88889859D01*
X175270141Y-88998642D01*
X175398058Y-89084113D01*
X175540191Y-89142987D01*
X175605612Y-89156000D01*
X175350501Y-89156000D01*
X175249859Y-89055358D01*
X175121942Y-88969887D01*
X174979809Y-88911013D01*
X174828922Y-88881000D01*
X174675078Y-88881000D01*
X174524191Y-88911013D01*
X174382058Y-88969887D01*
X174254141Y-89055358D01*
X174145358Y-89164141D01*
X174059887Y-89292058D01*
X174001013Y-89434191D01*
X173971000Y-89585078D01*
X168198997Y-89585078D01*
X168198997Y-88990501D01*
X168299639Y-88889859D01*
X168385110Y-88761942D01*
X168443984Y-88619809D01*
X168473997Y-88468922D01*
X168473997Y-88315078D01*
X168443984Y-88164191D01*
X168385110Y-88022058D01*
X168299639Y-87894141D01*
X168190856Y-87785358D01*
X168062939Y-87699887D01*
X167920806Y-87641013D01*
X167769919Y-87611000D01*
X167616075Y-87611000D01*
X167465188Y-87641013D01*
X167323055Y-87699887D01*
X167195138Y-87785358D01*
X167086355Y-87894141D01*
X167000884Y-88022058D01*
X166942010Y-88164191D01*
X166911997Y-88315078D01*
X166911997Y-88468922D01*
X166942010Y-88619809D01*
X167000884Y-88761942D01*
X167086355Y-88889859D01*
X167186997Y-88990501D01*
X167186998Y-90001143D01*
X167184550Y-90025999D01*
X167194319Y-90125191D01*
X167223252Y-90220573D01*
X167223253Y-90220574D01*
X167270239Y-90308478D01*
X167333471Y-90385526D01*
X167352778Y-90401371D01*
X169964627Y-93013221D01*
X169980472Y-93032528D01*
X170057520Y-93095760D01*
X170126738Y-93132758D01*
X170145424Y-93142746D01*
X170240805Y-93171679D01*
X170250693Y-93172653D01*
X170315145Y-93179001D01*
X170315152Y-93179001D01*
X170339998Y-93181448D01*
X170364844Y-93179001D01*
X172043408Y-93179001D01*
X172002409Y-93220000D01*
X169373592Y-93220000D01*
X168421000Y-92267409D01*
X168421000Y-92125078D01*
X168390987Y-91974191D01*
X168332113Y-91832058D01*
X168246642Y-91704141D01*
X168137859Y-91595358D01*
X168009942Y-91509887D01*
X167867809Y-91451013D01*
X167716922Y-91421000D01*
X167563078Y-91421000D01*
X167412191Y-91451013D01*
X167270058Y-91509887D01*
X167142141Y-91595358D01*
X167033358Y-91704141D01*
X166947887Y-91832058D01*
X166937566Y-91856976D01*
X163849000Y-88768411D01*
X163849000Y-88626080D01*
X163818987Y-88475193D01*
X163760113Y-88333060D01*
X163674642Y-88205143D01*
X163565859Y-88096360D01*
X163437942Y-88010889D01*
X163295809Y-87952015D01*
X163144922Y-87922002D01*
X162991078Y-87922002D01*
X162840191Y-87952015D01*
X162698058Y-88010889D01*
X162570141Y-88096360D01*
X162469499Y-88197002D01*
X157611290Y-88197002D01*
X157578642Y-88148141D01*
X157469859Y-88039358D01*
X157341942Y-87953887D01*
X157199809Y-87895013D01*
X157048922Y-87865000D01*
X156895078Y-87865000D01*
X156744191Y-87895013D01*
X156602058Y-87953887D01*
X156474141Y-88039358D01*
X156365358Y-88148141D01*
X156279887Y-88276058D01*
X156221013Y-88418191D01*
X156191000Y-88569078D01*
X149228670Y-88569078D01*
X149002375Y-88342784D01*
X148986526Y-88323472D01*
X148909478Y-88260240D01*
X148821574Y-88213254D01*
X148726192Y-88184321D01*
X148651853Y-88176999D01*
X148651845Y-88176999D01*
X148626999Y-88174552D01*
X148602153Y-88176999D01*
X145726853Y-88176999D01*
X145701999Y-88174551D01*
X145677145Y-88176999D01*
X145602806Y-88184321D01*
X145507424Y-88213254D01*
X145419520Y-88260240D01*
X145342472Y-88323472D01*
X145326627Y-88342779D01*
X144984784Y-88684623D01*
X144965472Y-88700472D01*
X144902240Y-88777520D01*
X144855254Y-88865425D01*
X144826321Y-88960807D01*
X144818999Y-89035146D01*
X144818999Y-89035153D01*
X144816552Y-89059999D01*
X144818999Y-89084845D01*
X144819000Y-102193408D01*
X140329376Y-97703785D01*
X140313527Y-97684473D01*
X140236479Y-97621241D01*
X140148575Y-97574255D01*
X140053193Y-97545322D01*
X139978854Y-97538000D01*
X139978846Y-97538000D01*
X139954000Y-97535553D01*
X139929154Y-97538000D01*
X135980501Y-97538000D01*
X135888000Y-97445499D01*
X135888000Y-93301911D01*
X135907859Y-93288642D01*
X136016642Y-93179859D01*
X136102113Y-93051942D01*
X136160987Y-92909809D01*
X136191000Y-92758922D01*
X136191000Y-92605078D01*
X136160987Y-92454191D01*
X136102113Y-92312058D01*
X136016642Y-92184141D01*
X135907859Y-92075358D01*
X135779942Y-91989887D01*
X135637809Y-91931013D01*
X135486922Y-91901000D01*
X135333078Y-91901000D01*
X135182191Y-91931013D01*
X135040058Y-91989887D01*
X134912141Y-92075358D01*
X134803358Y-92184141D01*
X134717887Y-92312058D01*
X134659013Y-92454191D01*
X134629000Y-92605078D01*
X134629000Y-92758922D01*
X134659013Y-92909809D01*
X134717887Y-93051942D01*
X134803358Y-93179859D01*
X134876001Y-93252502D01*
X134876000Y-97445499D01*
X134775358Y-97546141D01*
X134689887Y-97674058D01*
X134631013Y-97816191D01*
X134601000Y-97967078D01*
X118962459Y-97967078D01*
X118804206Y-97741398D01*
X118566176Y-97513845D01*
X118288327Y-97337102D01*
X117981336Y-97217961D01*
X117657000Y-97161000D01*
X116897000Y-97161000D01*
X116643000Y-97161000D01*
X115883000Y-97161000D01*
X115558664Y-97217961D01*
X115251673Y-97337102D01*
X114973824Y-97513845D01*
X114735794Y-97741398D01*
X114546731Y-98011016D01*
X114413901Y-98312337D01*
X114380252Y-98449290D01*
X112166000Y-98449290D01*
X112166000Y-93756000D01*
X114582125Y-93756000D01*
X114609561Y-94034565D01*
X114690816Y-94302424D01*
X114822765Y-94549285D01*
X115000340Y-94765660D01*
X115216715Y-94943235D01*
X115463576Y-95075184D01*
X115731435Y-95156439D01*
X115940196Y-95177000D01*
X117599804Y-95177000D01*
X117808565Y-95156439D01*
X118076424Y-95075184D01*
X118323285Y-94943235D01*
X118539660Y-94765660D01*
X118717235Y-94549285D01*
X118849184Y-94302424D01*
X118930439Y-94034565D01*
X118957875Y-93756000D01*
X118930439Y-93477435D01*
X118849184Y-93209576D01*
X118717235Y-92962715D01*
X118539660Y-92746340D01*
X118323285Y-92568765D01*
X118076424Y-92436816D01*
X117808565Y-92355561D01*
X117599804Y-92335000D01*
X115940196Y-92335000D01*
X115731435Y-92355561D01*
X115463576Y-92436816D01*
X115216715Y-92568765D01*
X115000340Y-92746340D01*
X114822765Y-92962715D01*
X114690816Y-93209576D01*
X114609561Y-93477435D01*
X114582125Y-93756000D01*
X112166000Y-93756000D01*
X112166000Y-88676000D01*
X114582125Y-88676000D01*
X114609561Y-88954565D01*
X114690816Y-89222424D01*
X114822765Y-89469285D01*
X115000340Y-89685660D01*
X115216715Y-89863235D01*
X115463576Y-89995184D01*
X115731435Y-90076439D01*
X115940196Y-90097000D01*
X117599804Y-90097000D01*
X117808565Y-90076439D01*
X118076424Y-89995184D01*
X118323285Y-89863235D01*
X118539660Y-89685660D01*
X118717235Y-89469285D01*
X118849184Y-89222424D01*
X118930439Y-88954565D01*
X118957875Y-88676000D01*
X118930439Y-88397435D01*
X118849184Y-88129576D01*
X118717235Y-87882715D01*
X118539660Y-87666340D01*
X118323285Y-87488765D01*
X118076424Y-87356816D01*
X117808565Y-87275561D01*
X117599804Y-87255000D01*
X115940196Y-87255000D01*
X115731435Y-87275561D01*
X115463576Y-87356816D01*
X115216715Y-87488765D01*
X115000340Y-87666340D01*
X114822765Y-87882715D01*
X114690816Y-88129576D01*
X114609561Y-88397435D01*
X114582125Y-88676000D01*
X112166000Y-88676000D01*
X112166000Y-83596000D01*
X114582125Y-83596000D01*
X114609561Y-83874565D01*
X114690816Y-84142424D01*
X114822765Y-84389285D01*
X115000340Y-84605660D01*
X115216715Y-84783235D01*
X115463576Y-84915184D01*
X115731435Y-84996439D01*
X115940196Y-85017000D01*
X117599804Y-85017000D01*
X117808565Y-84996439D01*
X118076424Y-84915184D01*
X118323285Y-84783235D01*
X118539660Y-84605660D01*
X118717235Y-84389285D01*
X118849184Y-84142424D01*
X118930439Y-83874565D01*
X118957875Y-83596000D01*
X118930439Y-83317435D01*
X118849184Y-83049576D01*
X118717235Y-82802715D01*
X118539660Y-82586340D01*
X118323285Y-82408765D01*
X118076424Y-82276816D01*
X117808565Y-82195561D01*
X117599804Y-82175000D01*
X115940196Y-82175000D01*
X115731435Y-82195561D01*
X115463576Y-82276816D01*
X115216715Y-82408765D01*
X115000340Y-82586340D01*
X114822765Y-82802715D01*
X114690816Y-83049576D01*
X114609561Y-83317435D01*
X114582125Y-83596000D01*
X112166000Y-83596000D01*
X112166000Y-78516000D01*
X114582125Y-78516000D01*
X114609561Y-78794565D01*
X114690816Y-79062424D01*
X114822765Y-79309285D01*
X115000340Y-79525660D01*
X115216715Y-79703235D01*
X115463576Y-79835184D01*
X115731435Y-79916439D01*
X115940196Y-79937000D01*
X117599804Y-79937000D01*
X117808565Y-79916439D01*
X118076424Y-79835184D01*
X118323285Y-79703235D01*
X118539660Y-79525660D01*
X118717235Y-79309285D01*
X118849184Y-79062424D01*
X118930439Y-78794565D01*
X118957875Y-78516000D01*
X118930439Y-78237435D01*
X118849184Y-77969576D01*
X118717235Y-77722715D01*
X118539660Y-77506340D01*
X118401651Y-77393078D01*
X123425000Y-77393078D01*
X123425000Y-77546922D01*
X123455013Y-77697809D01*
X123513887Y-77839942D01*
X123599358Y-77967859D01*
X123700001Y-78068502D01*
X123700000Y-80681499D01*
X123599358Y-80782141D01*
X123513887Y-80910058D01*
X123455013Y-81052191D01*
X123425000Y-81203078D01*
X123425000Y-81356922D01*
X123455013Y-81507809D01*
X123513887Y-81649942D01*
X123599358Y-81777859D01*
X123700001Y-81878502D01*
X123700000Y-85507499D01*
X123599358Y-85608141D01*
X123513887Y-85736058D01*
X123455013Y-85878191D01*
X123425000Y-86029078D01*
X123425000Y-86182922D01*
X123455013Y-86333809D01*
X123513887Y-86475942D01*
X123599358Y-86603859D01*
X123700001Y-86704502D01*
X123700000Y-90587499D01*
X123599358Y-90688141D01*
X123513887Y-90816058D01*
X123455013Y-90958191D01*
X123425000Y-91109078D01*
X123425000Y-91262922D01*
X123455013Y-91413809D01*
X123513887Y-91555942D01*
X123599358Y-91683859D01*
X123700001Y-91784502D01*
X123700000Y-95413499D01*
X123599358Y-95514141D01*
X123513887Y-95642058D01*
X123455013Y-95784191D01*
X123425000Y-95935078D01*
X123425000Y-96088922D01*
X123455013Y-96239809D01*
X123513887Y-96381942D01*
X123599358Y-96509859D01*
X123708141Y-96618642D01*
X123836058Y-96704113D01*
X123978191Y-96762987D01*
X124129078Y-96793000D01*
X124282922Y-96793000D01*
X124433809Y-96762987D01*
X124575942Y-96704113D01*
X124703859Y-96618642D01*
X124812642Y-96509859D01*
X124898113Y-96381942D01*
X124956987Y-96239809D01*
X124987000Y-96088922D01*
X124987000Y-95935078D01*
X124956987Y-95784191D01*
X124898113Y-95642058D01*
X124812642Y-95514141D01*
X124712000Y-95413499D01*
X124712000Y-91784501D01*
X124812642Y-91683859D01*
X124898113Y-91555942D01*
X124956987Y-91413809D01*
X124987000Y-91262922D01*
X124987000Y-91109078D01*
X124956987Y-90958191D01*
X124898113Y-90816058D01*
X124812642Y-90688141D01*
X124712000Y-90587499D01*
X124712000Y-86704501D01*
X124812642Y-86603859D01*
X124898113Y-86475942D01*
X124956987Y-86333809D01*
X124987000Y-86182922D01*
X124987000Y-86029078D01*
X124956987Y-85878191D01*
X124898113Y-85736058D01*
X124812642Y-85608141D01*
X124712000Y-85507499D01*
X124712000Y-84505078D01*
X147809000Y-84505078D01*
X147809000Y-84658922D01*
X147839013Y-84809809D01*
X147897887Y-84951942D01*
X147983358Y-85079859D01*
X148092141Y-85188642D01*
X148220058Y-85274113D01*
X148362191Y-85332987D01*
X148513078Y-85363000D01*
X148666922Y-85363000D01*
X148817809Y-85332987D01*
X148959942Y-85274113D01*
X149087859Y-85188642D01*
X149188501Y-85088000D01*
X168569499Y-85088000D01*
X168557358Y-85100141D01*
X168471887Y-85228058D01*
X168413013Y-85370191D01*
X168383000Y-85521078D01*
X168383000Y-85600000D01*
X158840501Y-85600000D01*
X158739859Y-85499358D01*
X158611942Y-85413887D01*
X158469809Y-85355013D01*
X158318922Y-85325000D01*
X158165078Y-85325000D01*
X158014191Y-85355013D01*
X157872058Y-85413887D01*
X157744141Y-85499358D01*
X157635358Y-85608141D01*
X157549887Y-85736058D01*
X157491013Y-85878191D01*
X157461000Y-86029078D01*
X157461000Y-86182922D01*
X157491013Y-86333809D01*
X157549887Y-86475942D01*
X157635358Y-86603859D01*
X157744141Y-86712642D01*
X157872058Y-86798113D01*
X158014191Y-86856987D01*
X158165078Y-86887000D01*
X158318922Y-86887000D01*
X158469809Y-86856987D01*
X158611942Y-86798113D01*
X158739859Y-86712642D01*
X158840501Y-86612000D01*
X161898063Y-86612000D01*
X161829877Y-86714048D01*
X161771003Y-86856181D01*
X161740990Y-87007068D01*
X161740990Y-87160912D01*
X161771003Y-87311799D01*
X161829877Y-87453932D01*
X161915348Y-87581849D01*
X162024131Y-87690632D01*
X162152048Y-87776103D01*
X162294181Y-87834977D01*
X162445068Y-87864990D01*
X162598912Y-87864990D01*
X162749799Y-87834977D01*
X162891932Y-87776103D01*
X163019849Y-87690632D01*
X163120491Y-87589990D01*
X174003164Y-87589990D01*
X174028010Y-87592437D01*
X174052856Y-87589990D01*
X174052864Y-87589990D01*
X174127203Y-87582668D01*
X174222585Y-87553735D01*
X174310489Y-87506749D01*
X174387537Y-87443517D01*
X174403386Y-87424205D01*
X174744733Y-87082858D01*
X174887064Y-87082858D01*
X175037951Y-87052845D01*
X175180084Y-86993971D01*
X175308001Y-86908500D01*
X175416784Y-86799717D01*
X175502255Y-86671800D01*
X175561129Y-86529667D01*
X175591142Y-86378780D01*
X175591142Y-86224936D01*
X175561129Y-86074049D01*
X175502255Y-85931916D01*
X175416784Y-85803999D01*
X175308001Y-85695216D01*
X175180084Y-85609745D01*
X175037951Y-85550871D01*
X174887064Y-85520858D01*
X174733220Y-85520858D01*
X174582333Y-85550871D01*
X174440200Y-85609745D01*
X174312283Y-85695216D01*
X174203500Y-85803999D01*
X174118029Y-85931916D01*
X174059155Y-86074049D01*
X174029142Y-86224936D01*
X174029142Y-86367267D01*
X173818419Y-86577990D01*
X168843174Y-86577990D01*
X168850575Y-86575745D01*
X168938479Y-86528759D01*
X169015527Y-86465527D01*
X169031376Y-86446215D01*
X169098591Y-86379000D01*
X169240922Y-86379000D01*
X169391809Y-86348987D01*
X169533942Y-86290113D01*
X169661859Y-86204642D01*
X169770642Y-86095859D01*
X169856113Y-85967942D01*
X169914987Y-85825809D01*
X169945000Y-85674922D01*
X169945000Y-85521078D01*
X169914987Y-85370191D01*
X169856113Y-85228058D01*
X169770642Y-85100141D01*
X169758501Y-85088000D01*
X172949154Y-85088000D01*
X172974000Y-85090447D01*
X172998846Y-85088000D01*
X172998854Y-85088000D01*
X173073193Y-85080678D01*
X173168575Y-85051745D01*
X173256479Y-85004759D01*
X173333527Y-84941527D01*
X173349376Y-84922215D01*
X176210592Y-82061000D01*
X176352922Y-82061000D01*
X176503809Y-82030987D01*
X176645942Y-81972113D01*
X176773859Y-81886642D01*
X176882642Y-81777859D01*
X176968113Y-81649942D01*
X177026987Y-81507809D01*
X177057000Y-81356922D01*
X177057000Y-81203078D01*
X177026987Y-81052191D01*
X176968113Y-80910058D01*
X176882642Y-80782141D01*
X176773859Y-80673358D01*
X176645942Y-80587887D01*
X176621024Y-80577566D01*
X177632220Y-79566370D01*
X177651527Y-79550525D01*
X177714759Y-79473477D01*
X177761745Y-79385573D01*
X177790678Y-79290191D01*
X177798000Y-79215852D01*
X177798000Y-79215845D01*
X177800447Y-79190999D01*
X177798000Y-79166153D01*
X177798000Y-78576501D01*
X177898642Y-78475859D01*
X177984113Y-78347942D01*
X178042987Y-78205809D01*
X178073000Y-78054922D01*
X178073000Y-77901078D01*
X178042987Y-77750191D01*
X177984113Y-77608058D01*
X177898642Y-77480141D01*
X177789859Y-77371358D01*
X177661942Y-77285887D01*
X177519809Y-77227013D01*
X177368922Y-77197000D01*
X177215078Y-77197000D01*
X177064191Y-77227013D01*
X176922058Y-77285887D01*
X176794141Y-77371358D01*
X176685358Y-77480141D01*
X176599887Y-77608058D01*
X176541013Y-77750191D01*
X176511000Y-77901078D01*
X176511000Y-78054922D01*
X176541013Y-78205809D01*
X176599887Y-78347942D01*
X176685358Y-78475859D01*
X176786001Y-78576502D01*
X176786000Y-78981406D01*
X173717439Y-82049968D01*
X173666113Y-81926058D01*
X173580642Y-81798141D01*
X173471859Y-81689358D01*
X173343942Y-81603887D01*
X173201809Y-81545013D01*
X173050922Y-81515000D01*
X172897078Y-81515000D01*
X172746191Y-81545013D01*
X172604058Y-81603887D01*
X172476141Y-81689358D01*
X172367358Y-81798141D01*
X172348075Y-81827000D01*
X172102095Y-81827000D01*
X172132478Y-81810760D01*
X172209526Y-81747528D01*
X172225375Y-81728216D01*
X172552220Y-81401372D01*
X172571527Y-81385527D01*
X172634759Y-81308479D01*
X172681745Y-81220575D01*
X172710678Y-81125193D01*
X172718000Y-81050854D01*
X172718000Y-81050853D01*
X172720448Y-81026000D01*
X172718000Y-81001146D01*
X172718000Y-75528501D01*
X172818642Y-75427859D01*
X172904113Y-75299942D01*
X172962987Y-75157809D01*
X172993000Y-75006922D01*
X172993000Y-74853078D01*
X172962987Y-74702191D01*
X172904113Y-74560058D01*
X172818642Y-74432141D01*
X172709859Y-74323358D01*
X172581942Y-74237887D01*
X172439809Y-74179013D01*
X172288922Y-74149000D01*
X172135078Y-74149000D01*
X171984191Y-74179013D01*
X171842058Y-74237887D01*
X171714141Y-74323358D01*
X171605358Y-74432141D01*
X171519887Y-74560058D01*
X171461013Y-74702191D01*
X171431000Y-74853078D01*
X171431000Y-75006922D01*
X171461013Y-75157809D01*
X171519887Y-75299942D01*
X171605358Y-75427859D01*
X171706001Y-75528502D01*
X171706000Y-80816408D01*
X171640408Y-80882001D01*
X161206844Y-80882001D01*
X161181998Y-80879554D01*
X161157152Y-80882001D01*
X161157145Y-80882001D01*
X161082806Y-80889323D01*
X160987424Y-80918256D01*
X160899520Y-80965242D01*
X160848638Y-81007000D01*
X160705078Y-81007000D01*
X160554191Y-81037013D01*
X160412058Y-81095887D01*
X160284141Y-81181358D01*
X160175358Y-81290141D01*
X160089887Y-81418058D01*
X160031013Y-81560191D01*
X160001000Y-81711078D01*
X160001000Y-81864922D01*
X160031013Y-82015809D01*
X160089887Y-82157942D01*
X160175358Y-82285859D01*
X160284141Y-82394642D01*
X160412058Y-82480113D01*
X160554191Y-82538987D01*
X160619612Y-82552000D01*
X156808501Y-82552000D01*
X156707859Y-82451358D01*
X156579942Y-82365887D01*
X156437809Y-82307013D01*
X156286922Y-82277000D01*
X156133078Y-82277000D01*
X155982191Y-82307013D01*
X155840058Y-82365887D01*
X155712141Y-82451358D01*
X155603358Y-82560141D01*
X155517887Y-82688058D01*
X155459013Y-82830191D01*
X155429000Y-82981078D01*
X155429000Y-83134922D01*
X155459013Y-83285809D01*
X155470690Y-83314000D01*
X150204501Y-83314000D01*
X150103859Y-83213358D01*
X149975942Y-83127887D01*
X149833809Y-83069013D01*
X149682922Y-83039000D01*
X149529078Y-83039000D01*
X149378191Y-83069013D01*
X149236058Y-83127887D01*
X149108141Y-83213358D01*
X148999358Y-83322141D01*
X148913887Y-83450058D01*
X148855013Y-83592191D01*
X148825000Y-83743078D01*
X148825000Y-83833992D01*
X148817809Y-83831013D01*
X148666922Y-83801000D01*
X148513078Y-83801000D01*
X148362191Y-83831013D01*
X148220058Y-83889887D01*
X148092141Y-83975358D01*
X147983358Y-84084141D01*
X147897887Y-84212058D01*
X147839013Y-84354191D01*
X147809000Y-84505078D01*
X124712000Y-84505078D01*
X124712000Y-81878501D01*
X124812642Y-81777859D01*
X124898113Y-81649942D01*
X124956987Y-81507809D01*
X124987000Y-81356922D01*
X124987000Y-81203078D01*
X124956987Y-81052191D01*
X124898113Y-80910058D01*
X124812642Y-80782141D01*
X124712000Y-80681499D01*
X124712000Y-78068501D01*
X124812642Y-77967859D01*
X124898113Y-77839942D01*
X124956987Y-77697809D01*
X124987000Y-77546922D01*
X124987000Y-77393078D01*
X124956987Y-77242191D01*
X124898113Y-77100058D01*
X124812642Y-76972141D01*
X124703859Y-76863358D01*
X124575942Y-76777887D01*
X124433809Y-76719013D01*
X124282922Y-76689000D01*
X124129078Y-76689000D01*
X123978191Y-76719013D01*
X123836058Y-76777887D01*
X123708141Y-76863358D01*
X123599358Y-76972141D01*
X123513887Y-77100058D01*
X123455013Y-77242191D01*
X123425000Y-77393078D01*
X118401651Y-77393078D01*
X118323285Y-77328765D01*
X118076424Y-77196816D01*
X117808565Y-77115561D01*
X117599804Y-77095000D01*
X115940196Y-77095000D01*
X115731435Y-77115561D01*
X115463576Y-77196816D01*
X115216715Y-77328765D01*
X115000340Y-77506340D01*
X114822765Y-77722715D01*
X114690816Y-77969576D01*
X114609561Y-78237435D01*
X114582125Y-78516000D01*
X112166000Y-78516000D01*
X112166000Y-76123078D01*
X146539000Y-76123078D01*
X146539000Y-76276922D01*
X146569013Y-76427809D01*
X146627887Y-76569942D01*
X146713358Y-76697859D01*
X146822141Y-76806642D01*
X146950058Y-76892113D01*
X147092191Y-76950987D01*
X147243078Y-76981000D01*
X147385409Y-76981000D01*
X149738628Y-79334220D01*
X149754473Y-79353527D01*
X149831521Y-79416759D01*
X149919425Y-79463745D01*
X150014807Y-79492678D01*
X150114000Y-79502448D01*
X150138854Y-79500000D01*
X151293499Y-79500000D01*
X151394141Y-79600642D01*
X151522058Y-79686113D01*
X151664191Y-79744987D01*
X151815078Y-79775000D01*
X151968922Y-79775000D01*
X152119809Y-79744987D01*
X152261942Y-79686113D01*
X152389859Y-79600642D01*
X152498642Y-79491859D01*
X152584113Y-79363942D01*
X152642987Y-79221809D01*
X152673000Y-79070922D01*
X152673000Y-78917078D01*
X152642987Y-78766191D01*
X152584113Y-78624058D01*
X152498642Y-78496141D01*
X152389859Y-78387358D01*
X152261942Y-78301887D01*
X152119809Y-78243013D01*
X151968922Y-78213000D01*
X151815078Y-78213000D01*
X151664191Y-78243013D01*
X151522058Y-78301887D01*
X151394141Y-78387358D01*
X151293499Y-78488000D01*
X150323592Y-78488000D01*
X148212670Y-76377078D01*
X150095000Y-76377078D01*
X150095000Y-76530922D01*
X150125013Y-76681809D01*
X150183887Y-76823942D01*
X150269358Y-76951859D01*
X150378141Y-77060642D01*
X150506058Y-77146113D01*
X150648191Y-77204987D01*
X150799078Y-77235000D01*
X150952922Y-77235000D01*
X151103809Y-77204987D01*
X151245942Y-77146113D01*
X151373859Y-77060642D01*
X151474501Y-76960000D01*
X157459114Y-76960000D01*
X157483960Y-76962447D01*
X157508806Y-76960000D01*
X157508814Y-76960000D01*
X157583153Y-76952678D01*
X157678535Y-76923745D01*
X157766439Y-76876759D01*
X157843487Y-76813527D01*
X157859336Y-76794215D01*
X158899700Y-75753852D01*
X158919007Y-75738007D01*
X158982239Y-75660959D01*
X159029225Y-75573055D01*
X159051317Y-75500224D01*
X159058158Y-75477673D01*
X159063064Y-75427859D01*
X159065480Y-75403333D01*
X159065480Y-75403326D01*
X159067927Y-75378480D01*
X159065480Y-75353634D01*
X159065480Y-75334131D01*
X161247602Y-73152010D01*
X163975833Y-73152010D01*
X164076475Y-73252652D01*
X164204392Y-73338123D01*
X164346525Y-73396997D01*
X164497412Y-73427010D01*
X164651256Y-73427010D01*
X164802143Y-73396997D01*
X164944276Y-73338123D01*
X165072193Y-73252652D01*
X165172835Y-73152010D01*
X167686419Y-73152010D01*
X167875000Y-73340591D01*
X167875000Y-73482922D01*
X167905013Y-73633809D01*
X167963887Y-73775942D01*
X168049358Y-73903859D01*
X168158141Y-74012642D01*
X168286058Y-74098113D01*
X168428191Y-74156987D01*
X168579078Y-74187000D01*
X168732922Y-74187000D01*
X168883809Y-74156987D01*
X169025942Y-74098113D01*
X169153859Y-74012642D01*
X169262642Y-73903859D01*
X169348113Y-73775942D01*
X169406987Y-73633809D01*
X169437000Y-73482922D01*
X169437000Y-73329078D01*
X169406987Y-73178191D01*
X169348113Y-73036058D01*
X169262642Y-72908141D01*
X169153859Y-72799358D01*
X169025942Y-72713887D01*
X168883809Y-72655013D01*
X168732922Y-72625000D01*
X168590591Y-72625000D01*
X168392600Y-72427009D01*
X170407328Y-72427009D01*
X170464877Y-72565942D01*
X170550348Y-72693859D01*
X170659131Y-72802642D01*
X170787048Y-72888113D01*
X170929181Y-72946987D01*
X171080068Y-72977000D01*
X171233912Y-72977000D01*
X171384799Y-72946987D01*
X171526932Y-72888113D01*
X171654849Y-72802642D01*
X171755491Y-72702000D01*
X175483499Y-72702000D01*
X175524141Y-72742642D01*
X175652058Y-72828113D01*
X175794191Y-72886987D01*
X175945078Y-72917000D01*
X176098922Y-72917000D01*
X176249809Y-72886987D01*
X176391942Y-72828113D01*
X176519859Y-72742642D01*
X176628642Y-72633859D01*
X176714113Y-72505942D01*
X176772987Y-72363809D01*
X176803000Y-72212922D01*
X176803000Y-72059078D01*
X176772987Y-71908191D01*
X176714113Y-71766058D01*
X176628642Y-71638141D01*
X176519859Y-71529358D01*
X176391942Y-71443887D01*
X176249809Y-71385013D01*
X176098922Y-71355000D01*
X175945078Y-71355000D01*
X175794191Y-71385013D01*
X175693913Y-71426550D01*
X175612436Y-71451265D01*
X175524532Y-71498252D01*
X175447483Y-71561483D01*
X175384252Y-71638532D01*
X175356741Y-71690000D01*
X171755491Y-71690000D01*
X171654849Y-71589358D01*
X171526932Y-71503887D01*
X171384799Y-71445013D01*
X171233912Y-71415000D01*
X171080068Y-71415000D01*
X171005754Y-71429782D01*
X170981192Y-71422331D01*
X170906853Y-71415009D01*
X170906845Y-71415009D01*
X170881999Y-71412562D01*
X170857153Y-71415009D01*
X160968803Y-71415009D01*
X160943949Y-71412561D01*
X160919095Y-71415009D01*
X160844756Y-71422331D01*
X160749374Y-71451264D01*
X160661470Y-71498250D01*
X160584422Y-71561482D01*
X160568577Y-71580789D01*
X157899888Y-74249479D01*
X157757557Y-74249479D01*
X157606670Y-74279492D01*
X157464537Y-74338366D01*
X157336620Y-74423837D01*
X157227837Y-74532620D01*
X157142366Y-74660537D01*
X157083492Y-74802670D01*
X157053479Y-74953557D01*
X157053479Y-75107401D01*
X157083492Y-75258288D01*
X157142366Y-75400421D01*
X157227837Y-75528338D01*
X157336620Y-75637121D01*
X157464537Y-75722592D01*
X157489455Y-75732914D01*
X157274369Y-75948000D01*
X151474501Y-75948000D01*
X151373859Y-75847358D01*
X151245942Y-75761887D01*
X151103809Y-75703013D01*
X150952922Y-75673000D01*
X150799078Y-75673000D01*
X150648191Y-75703013D01*
X150506058Y-75761887D01*
X150378141Y-75847358D01*
X150269358Y-75956141D01*
X150183887Y-76084058D01*
X150125013Y-76226191D01*
X150095000Y-76377078D01*
X148212670Y-76377078D01*
X148101000Y-76265409D01*
X148101000Y-76123078D01*
X148070987Y-75972191D01*
X148012113Y-75830058D01*
X147926642Y-75702141D01*
X147817859Y-75593358D01*
X147689942Y-75507887D01*
X147547809Y-75449013D01*
X147396922Y-75419000D01*
X147243078Y-75419000D01*
X147092191Y-75449013D01*
X146950058Y-75507887D01*
X146822141Y-75593358D01*
X146713358Y-75702141D01*
X146627887Y-75830058D01*
X146569013Y-75972191D01*
X146539000Y-76123078D01*
X112166000Y-76123078D01*
X112166000Y-72012481D01*
X122985124Y-72012481D01*
X123297308Y-72461177D01*
X123893259Y-72781612D01*
X124540273Y-72979626D01*
X125213484Y-73047610D01*
X125887023Y-72982949D01*
X126535006Y-72788130D01*
X127132530Y-72470639D01*
X127146692Y-72461177D01*
X127458876Y-72012481D01*
X125222000Y-69775605D01*
X122985124Y-72012481D01*
X112166000Y-72012481D01*
X112166000Y-69587484D01*
X121770390Y-69587484D01*
X121835051Y-70261023D01*
X122029870Y-70909006D01*
X122347361Y-71506530D01*
X122356823Y-71520692D01*
X122805519Y-71832876D01*
X125042395Y-69596000D01*
X125401605Y-69596000D01*
X127638481Y-71832876D01*
X128087177Y-71520692D01*
X128407612Y-70924741D01*
X128605626Y-70277727D01*
X128673610Y-69604516D01*
X128629677Y-69146889D01*
X132595000Y-69146889D01*
X132595000Y-69537111D01*
X132671129Y-69919836D01*
X132820461Y-70280355D01*
X133037257Y-70604814D01*
X133313186Y-70880743D01*
X133637645Y-71097539D01*
X133998164Y-71246871D01*
X134380889Y-71323000D01*
X134771111Y-71323000D01*
X135153836Y-71246871D01*
X135514355Y-71097539D01*
X135838814Y-70880743D01*
X136114743Y-70604814D01*
X136331539Y-70280355D01*
X136480871Y-69919836D01*
X136546980Y-69587484D01*
X194770390Y-69587484D01*
X194835051Y-70261023D01*
X195029870Y-70909006D01*
X195347361Y-71506530D01*
X195356823Y-71520692D01*
X195805519Y-71832876D01*
X198042395Y-69596000D01*
X198401605Y-69596000D01*
X200638481Y-71832876D01*
X201087177Y-71520692D01*
X201407612Y-70924741D01*
X201605626Y-70277727D01*
X201673610Y-69604516D01*
X201608949Y-68930977D01*
X201414130Y-68282994D01*
X201096639Y-67685470D01*
X201087177Y-67671308D01*
X200638481Y-67359124D01*
X198401605Y-69596000D01*
X198042395Y-69596000D01*
X195805519Y-67359124D01*
X195356823Y-67671308D01*
X195036388Y-68267259D01*
X194838374Y-68914273D01*
X194770390Y-69587484D01*
X136546980Y-69587484D01*
X136557000Y-69537111D01*
X136557000Y-69146889D01*
X136480871Y-68764164D01*
X136331539Y-68403645D01*
X136114743Y-68079186D01*
X135838814Y-67803257D01*
X135514355Y-67586461D01*
X135153836Y-67437129D01*
X134771111Y-67361000D01*
X134380889Y-67361000D01*
X133998164Y-67437129D01*
X133637645Y-67586461D01*
X133313186Y-67803257D01*
X133037257Y-68079186D01*
X132820461Y-68403645D01*
X132671129Y-68764164D01*
X132595000Y-69146889D01*
X128629677Y-69146889D01*
X128608949Y-68930977D01*
X128414130Y-68282994D01*
X128096639Y-67685470D01*
X128087177Y-67671308D01*
X127638481Y-67359124D01*
X125401605Y-69596000D01*
X125042395Y-69596000D01*
X122805519Y-67359124D01*
X122356823Y-67671308D01*
X122036388Y-68267259D01*
X121838374Y-68914273D01*
X121770390Y-69587484D01*
X112166000Y-69587484D01*
X112166000Y-66446000D01*
X123829705Y-66446000D01*
X123311470Y-66721361D01*
M02*
