G04 #@! TF.GenerationSoftware,KiCad,Pcbnew,5.1.6-c6e7f7d~86~ubuntu18.04.1*
G04 #@! TF.CreationDate,2020-07-03T23:55:57+02:00*
G04 #@! TF.ProjectId,Speeduino_base,53706565-6475-4696-9e6f-5f626173652e,rev?*
G04 #@! TF.SameCoordinates,Original*
G04 #@! TF.FileFunction,Legend,Bot*
G04 #@! TF.FilePolarity,Positive*
%FSLAX46Y46*%
G04 Gerber Fmt 4.6, Leading zero omitted, Abs format (unit mm)*
G04 Created by KiCad (PCBNEW 5.1.6-c6e7f7d~86~ubuntu18.04.1) date 2020-07-03 23:55:57*
%MOMM*%
%LPD*%
G01*
G04 APERTURE LIST*
%ADD10C,0.127000*%
%ADD11C,0.120000*%
%ADD12C,0.203200*%
%ADD13C,0.152400*%
%ADD14C,0.092900*%
%ADD15C,0.150000*%
%ADD16C,0.096520*%
%ADD17C,0.097536*%
G04 APERTURE END LIST*
D10*
X189807000Y-43865000D02*
X187013000Y-43865000D01*
X187013000Y-43865000D02*
X187013000Y-45135000D01*
X187013000Y-45135000D02*
X189807000Y-45135000D01*
X189807000Y-45135000D02*
X189807000Y-43865000D01*
X190297000Y-25415000D02*
X187503000Y-25415000D01*
X187503000Y-25415000D02*
X187503000Y-26685000D01*
X187503000Y-26685000D02*
X190297000Y-26685000D01*
X190297000Y-26685000D02*
X190297000Y-25415000D01*
X190372000Y-34895000D02*
X187578000Y-34895000D01*
X187578000Y-34895000D02*
X187578000Y-36165000D01*
X187578000Y-36165000D02*
X190372000Y-36165000D01*
X190372000Y-36165000D02*
X190372000Y-34895000D01*
X190042000Y-53185000D02*
X187248000Y-53185000D01*
X187248000Y-53185000D02*
X187248000Y-54455000D01*
X187248000Y-54455000D02*
X190042000Y-54455000D01*
X190042000Y-54455000D02*
X190042000Y-53185000D01*
D11*
X193690000Y-28105000D02*
X193690000Y-27175000D01*
X193690000Y-24945000D02*
X193690000Y-25875000D01*
X193690000Y-24945000D02*
X196850000Y-24945000D01*
X193690000Y-28105000D02*
X195150000Y-28105000D01*
X193540000Y-46330000D02*
X193540000Y-45400000D01*
X193540000Y-43170000D02*
X193540000Y-44100000D01*
X193540000Y-43170000D02*
X196700000Y-43170000D01*
X193540000Y-46330000D02*
X195000000Y-46330000D01*
X193690000Y-55405000D02*
X193690000Y-54475000D01*
X193690000Y-52245000D02*
X193690000Y-53175000D01*
X193690000Y-52245000D02*
X196850000Y-52245000D01*
X193690000Y-55405000D02*
X195150000Y-55405000D01*
X193590000Y-37080000D02*
X193590000Y-36150000D01*
X193590000Y-33920000D02*
X193590000Y-34850000D01*
X193590000Y-33920000D02*
X196750000Y-33920000D01*
X193590000Y-37080000D02*
X195050000Y-37080000D01*
D12*
X192929000Y-27648400D02*
X189373000Y-27648400D01*
X189373000Y-27648400D02*
X189373000Y-34201600D01*
X189373000Y-34201600D02*
X192929000Y-34201600D01*
X192929000Y-34201600D02*
X192929000Y-27648400D01*
X192929000Y-46099542D02*
X189373000Y-46099542D01*
X189373000Y-46099542D02*
X189373000Y-52652742D01*
X189373000Y-52652742D02*
X192929000Y-52652742D01*
X192929000Y-52652742D02*
X192929000Y-46099542D01*
X192929000Y-36873971D02*
X189373000Y-36873971D01*
X189373000Y-36873971D02*
X189373000Y-43427171D01*
X189373000Y-43427171D02*
X192929000Y-43427171D01*
X192929000Y-43427171D02*
X192929000Y-36873971D01*
D11*
X128255000Y-35170000D02*
X126925000Y-35170000D01*
X128255000Y-36500000D02*
X128255000Y-35170000D01*
X125655000Y-35170000D02*
X123055000Y-35170000D01*
X125655000Y-37770000D02*
X125655000Y-35170000D01*
X128255000Y-37770000D02*
X125655000Y-37770000D01*
X123055000Y-35170000D02*
X123055000Y-45450000D01*
X128255000Y-37770000D02*
X128255000Y-45450000D01*
X128255000Y-45450000D02*
X123055000Y-45450000D01*
D13*
X123790000Y-94595000D02*
X124425000Y-93960000D01*
X124425000Y-93960000D02*
X125695000Y-93960000D01*
X125695000Y-93960000D02*
X126330000Y-94595000D01*
X126330000Y-94595000D02*
X126965000Y-93960000D01*
X126965000Y-93960000D02*
X128235000Y-93960000D01*
X128235000Y-93960000D02*
X128870000Y-94595000D01*
X128870000Y-94595000D02*
X129505000Y-93960000D01*
X129505000Y-93960000D02*
X130775000Y-93960000D01*
X130775000Y-93960000D02*
X131410000Y-94595000D01*
X131410000Y-94595000D02*
X132045000Y-93960000D01*
X132045000Y-93960000D02*
X133315000Y-93960000D01*
X133315000Y-93960000D02*
X133950000Y-94595000D01*
X133950000Y-94595000D02*
X134585000Y-93960000D01*
X134585000Y-93960000D02*
X135855000Y-93960000D01*
X135855000Y-93960000D02*
X136490000Y-94595000D01*
X136490000Y-94595000D02*
X137125000Y-93960000D01*
X137125000Y-93960000D02*
X138395000Y-93960000D01*
X138395000Y-93960000D02*
X139030000Y-94595000D01*
X123790000Y-94595000D02*
X123790000Y-98405000D01*
X123790000Y-98405000D02*
X124425000Y-99040000D01*
X124425000Y-99040000D02*
X125695000Y-99040000D01*
X125695000Y-99040000D02*
X126330000Y-98405000D01*
X126330000Y-98405000D02*
X126965000Y-99040000D01*
X126965000Y-99040000D02*
X128235000Y-99040000D01*
X128235000Y-99040000D02*
X128870000Y-98405000D01*
X128870000Y-98405000D02*
X129505000Y-99040000D01*
X129505000Y-99040000D02*
X130775000Y-99040000D01*
X130775000Y-99040000D02*
X131410000Y-98405000D01*
X131410000Y-98405000D02*
X132045000Y-99040000D01*
X132045000Y-99040000D02*
X133315000Y-99040000D01*
X133315000Y-99040000D02*
X133950000Y-98405000D01*
X133950000Y-98405000D02*
X134585000Y-99040000D01*
X134585000Y-99040000D02*
X135855000Y-99040000D01*
X135855000Y-99040000D02*
X136490000Y-98405000D01*
X136490000Y-98405000D02*
X137125000Y-99040000D01*
X137125000Y-99040000D02*
X138395000Y-99040000D01*
X138395000Y-99040000D02*
X139030000Y-98405000D01*
X139030000Y-98405000D02*
X139665000Y-99040000D01*
X139665000Y-99040000D02*
X140935000Y-99040000D01*
X140935000Y-99040000D02*
X141570000Y-98405000D01*
X141570000Y-98405000D02*
X142205000Y-99040000D01*
X142205000Y-99040000D02*
X143475000Y-99040000D01*
X143475000Y-99040000D02*
X144110000Y-98405000D01*
X144110000Y-98405000D02*
X144745000Y-99040000D01*
X144745000Y-99040000D02*
X146015000Y-99040000D01*
X146015000Y-99040000D02*
X146650000Y-98405000D01*
X146650000Y-98405000D02*
X147285000Y-99040000D01*
X147285000Y-99040000D02*
X148555000Y-99040000D01*
X148555000Y-99040000D02*
X149190000Y-98405000D01*
X149190000Y-98405000D02*
X149825000Y-99040000D01*
X149825000Y-99040000D02*
X151095000Y-99040000D01*
X151095000Y-99040000D02*
X151730000Y-98405000D01*
X151730000Y-98405000D02*
X152365000Y-99040000D01*
X152365000Y-99040000D02*
X153635000Y-99040000D01*
X154270000Y-98405000D02*
X153635000Y-99040000D01*
X154270000Y-98405000D02*
X154905000Y-99040000D01*
X156175000Y-99040000D02*
X154905000Y-99040000D01*
X156175000Y-99040000D02*
X156810000Y-98405000D01*
X156810000Y-98405000D02*
X157445000Y-99040000D01*
X158715000Y-99040000D02*
X157445000Y-99040000D01*
X158715000Y-99040000D02*
X159350000Y-98405000D01*
X159350000Y-98405000D02*
X159985000Y-99040000D01*
X161255000Y-99040000D02*
X159985000Y-99040000D01*
X161255000Y-99040000D02*
X161890000Y-98405000D01*
X161890000Y-98405000D02*
X162525000Y-99040000D01*
X163795000Y-99040000D02*
X162525000Y-99040000D01*
X163795000Y-99040000D02*
X164430000Y-98405000D01*
X164430000Y-98405000D02*
X165065000Y-99040000D01*
X166335000Y-99040000D02*
X165065000Y-99040000D01*
X166335000Y-99040000D02*
X166970000Y-98405000D01*
X166970000Y-98405000D02*
X167605000Y-99040000D01*
X168875000Y-99040000D02*
X167605000Y-99040000D01*
X168875000Y-99040000D02*
X169510000Y-98405000D01*
X169510000Y-98405000D02*
X170145000Y-99040000D01*
X171415000Y-99040000D02*
X170145000Y-99040000D01*
X171415000Y-99040000D02*
X172050000Y-98405000D01*
X172050000Y-94595000D02*
X171415000Y-93960000D01*
X171415000Y-93960000D02*
X170145000Y-93960000D01*
X169510000Y-94595000D02*
X170145000Y-93960000D01*
X169510000Y-94595000D02*
X168875000Y-93960000D01*
X168875000Y-93960000D02*
X167605000Y-93960000D01*
X166970000Y-94595000D02*
X167605000Y-93960000D01*
X166970000Y-94595000D02*
X166335000Y-93960000D01*
X166335000Y-93960000D02*
X165065000Y-93960000D01*
X164430000Y-94595000D02*
X165065000Y-93960000D01*
X164430000Y-94595000D02*
X163795000Y-93960000D01*
X162525000Y-93960000D02*
X163795000Y-93960000D01*
X162525000Y-93960000D02*
X161890000Y-94595000D01*
X161890000Y-94595000D02*
X161255000Y-93960000D01*
X159985000Y-93960000D02*
X161255000Y-93960000D01*
X159985000Y-93960000D02*
X159350000Y-94595000D01*
X159350000Y-94595000D02*
X158715000Y-93960000D01*
X158715000Y-93960000D02*
X157445000Y-93960000D01*
X156810000Y-94595000D02*
X157445000Y-93960000D01*
X156810000Y-94595000D02*
X156175000Y-93960000D01*
X156175000Y-93960000D02*
X154905000Y-93960000D01*
X154270000Y-94595000D02*
X154905000Y-93960000D01*
X154270000Y-94595000D02*
X153635000Y-93960000D01*
X153635000Y-93960000D02*
X152365000Y-93960000D01*
X151730000Y-94595000D02*
X152365000Y-93960000D01*
X151730000Y-94595000D02*
X151095000Y-93960000D01*
X151095000Y-93960000D02*
X149825000Y-93960000D01*
X149190000Y-94595000D02*
X149825000Y-93960000D01*
X149190000Y-94595000D02*
X148555000Y-93960000D01*
X148555000Y-93960000D02*
X147285000Y-93960000D01*
X146650000Y-94595000D02*
X147285000Y-93960000D01*
X146650000Y-94595000D02*
X146015000Y-93960000D01*
X146015000Y-93960000D02*
X144745000Y-93960000D01*
X144110000Y-94595000D02*
X144745000Y-93960000D01*
X144110000Y-94595000D02*
X143475000Y-93960000D01*
X143475000Y-93960000D02*
X142205000Y-93960000D01*
X141570000Y-94595000D02*
X142205000Y-93960000D01*
X141570000Y-94595000D02*
X140935000Y-93960000D01*
X140935000Y-93960000D02*
X139665000Y-93960000D01*
X139030000Y-94595000D02*
X139665000Y-93960000D01*
X126330000Y-98405000D02*
X126330000Y-94595000D01*
X128870000Y-98405000D02*
X128870000Y-94595000D01*
X131410000Y-98405000D02*
X131410000Y-94595000D01*
X133950000Y-98405000D02*
X133950000Y-94595000D01*
X136490000Y-98405000D02*
X136490000Y-94595000D01*
X139030000Y-98405000D02*
X139030000Y-94595000D01*
X141570000Y-98405000D02*
X141570000Y-94595000D01*
X144110000Y-98405000D02*
X144110000Y-94595000D01*
X146650000Y-98405000D02*
X146650000Y-94595000D01*
X149190000Y-98405000D02*
X149190000Y-94595000D01*
X151730000Y-98405000D02*
X151730000Y-94595000D01*
X154270000Y-98405000D02*
X154270000Y-94595000D01*
X156810000Y-98405000D02*
X156810000Y-94595000D01*
X159350000Y-98405000D02*
X159350000Y-94595000D01*
X161890000Y-98405000D02*
X161890000Y-94595000D01*
X164430000Y-98405000D02*
X164430000Y-94595000D01*
X166970000Y-98405000D02*
X166970000Y-94595000D01*
X169510000Y-98405000D02*
X169510000Y-94595000D01*
X172050000Y-98405000D02*
X172050000Y-94595000D01*
X172050000Y-98405000D02*
X172685000Y-99040000D01*
X173955000Y-99040000D02*
X172685000Y-99040000D01*
X173955000Y-99040000D02*
X174590000Y-98405000D01*
X174590000Y-94595000D02*
X173955000Y-93960000D01*
X173955000Y-93960000D02*
X172685000Y-93960000D01*
X172050000Y-94595000D02*
X172685000Y-93960000D01*
X174590000Y-98405000D02*
X174590000Y-94595000D01*
X174590000Y-98405000D02*
X175225000Y-99040000D01*
X176495000Y-99040000D02*
X175225000Y-99040000D01*
X176495000Y-99040000D02*
X177130000Y-98405000D01*
X177130000Y-94595000D02*
X176495000Y-93960000D01*
X176495000Y-93960000D02*
X175225000Y-93960000D01*
X174590000Y-94595000D02*
X175225000Y-93960000D01*
X177130000Y-98405000D02*
X177130000Y-94595000D01*
X177130000Y-98405000D02*
X177765000Y-99040000D01*
X179035000Y-99040000D02*
X177765000Y-99040000D01*
X179035000Y-99040000D02*
X179670000Y-98405000D01*
X179670000Y-94595000D02*
X179035000Y-93960000D01*
X179035000Y-93960000D02*
X177765000Y-93960000D01*
X177130000Y-94595000D02*
X177765000Y-93960000D01*
X179670000Y-98405000D02*
X179670000Y-94595000D01*
X179670000Y-98405000D02*
X180305000Y-99040000D01*
X181575000Y-99040000D02*
X180305000Y-99040000D01*
X181575000Y-99040000D02*
X182210000Y-98405000D01*
X182210000Y-94595000D02*
X181575000Y-93960000D01*
X181575000Y-93960000D02*
X180305000Y-93960000D01*
X179670000Y-94595000D02*
X180305000Y-93960000D01*
X182210000Y-98405000D02*
X182210000Y-94595000D01*
X182210000Y-98405000D02*
X182845000Y-99040000D01*
X184115000Y-99040000D02*
X182845000Y-99040000D01*
X184115000Y-99040000D02*
X184750000Y-98405000D01*
X184750000Y-94595000D02*
X184115000Y-93960000D01*
X184115000Y-93960000D02*
X182845000Y-93960000D01*
X182210000Y-94595000D02*
X182845000Y-93960000D01*
X184750000Y-98405000D02*
X184750000Y-94595000D01*
D12*
X192929000Y-64550684D02*
X189373000Y-64550684D01*
X189373000Y-64550684D02*
X189373000Y-71103884D01*
X189373000Y-71103884D02*
X192929000Y-71103884D01*
X192929000Y-71103884D02*
X192929000Y-64550684D01*
X192929000Y-55325113D02*
X189373000Y-55325113D01*
X189373000Y-55325113D02*
X189373000Y-61878313D01*
X189373000Y-61878313D02*
X192929000Y-61878313D01*
X192929000Y-61878313D02*
X192929000Y-55325113D01*
X192929000Y-92227400D02*
X189373000Y-92227400D01*
X189373000Y-92227400D02*
X189373000Y-98780600D01*
X189373000Y-98780600D02*
X192929000Y-98780600D01*
X192929000Y-98780600D02*
X192929000Y-92227400D01*
X192929000Y-83001826D02*
X189373000Y-83001826D01*
X189373000Y-83001826D02*
X189373000Y-89555026D01*
X189373000Y-89555026D02*
X192929000Y-89555026D01*
X192929000Y-89555026D02*
X192929000Y-83001826D01*
X192929000Y-73776255D02*
X189373000Y-73776255D01*
X189373000Y-73776255D02*
X189373000Y-80329455D01*
X189373000Y-80329455D02*
X192929000Y-80329455D01*
X192929000Y-80329455D02*
X192929000Y-73776255D01*
D13*
X123790000Y-28095000D02*
X124425000Y-27460000D01*
X124425000Y-27460000D02*
X125695000Y-27460000D01*
X125695000Y-27460000D02*
X126330000Y-28095000D01*
X126330000Y-28095000D02*
X126965000Y-27460000D01*
X126965000Y-27460000D02*
X128235000Y-27460000D01*
X128235000Y-27460000D02*
X128870000Y-28095000D01*
X128870000Y-28095000D02*
X129505000Y-27460000D01*
X129505000Y-27460000D02*
X130775000Y-27460000D01*
X130775000Y-27460000D02*
X131410000Y-28095000D01*
X131410000Y-28095000D02*
X132045000Y-27460000D01*
X132045000Y-27460000D02*
X133315000Y-27460000D01*
X133315000Y-27460000D02*
X133950000Y-28095000D01*
X133950000Y-28095000D02*
X134585000Y-27460000D01*
X134585000Y-27460000D02*
X135855000Y-27460000D01*
X135855000Y-27460000D02*
X136490000Y-28095000D01*
X136490000Y-28095000D02*
X137125000Y-27460000D01*
X137125000Y-27460000D02*
X138395000Y-27460000D01*
X138395000Y-27460000D02*
X139030000Y-28095000D01*
X123790000Y-28095000D02*
X123790000Y-31905000D01*
X123790000Y-31905000D02*
X124425000Y-32540000D01*
X124425000Y-32540000D02*
X125695000Y-32540000D01*
X125695000Y-32540000D02*
X126330000Y-31905000D01*
X126330000Y-31905000D02*
X126965000Y-32540000D01*
X126965000Y-32540000D02*
X128235000Y-32540000D01*
X128235000Y-32540000D02*
X128870000Y-31905000D01*
X128870000Y-31905000D02*
X129505000Y-32540000D01*
X129505000Y-32540000D02*
X130775000Y-32540000D01*
X130775000Y-32540000D02*
X131410000Y-31905000D01*
X131410000Y-31905000D02*
X132045000Y-32540000D01*
X132045000Y-32540000D02*
X133315000Y-32540000D01*
X133315000Y-32540000D02*
X133950000Y-31905000D01*
X133950000Y-31905000D02*
X134585000Y-32540000D01*
X134585000Y-32540000D02*
X135855000Y-32540000D01*
X135855000Y-32540000D02*
X136490000Y-31905000D01*
X136490000Y-31905000D02*
X137125000Y-32540000D01*
X137125000Y-32540000D02*
X138395000Y-32540000D01*
X138395000Y-32540000D02*
X139030000Y-31905000D01*
X139030000Y-31905000D02*
X139665000Y-32540000D01*
X139665000Y-32540000D02*
X140935000Y-32540000D01*
X140935000Y-32540000D02*
X141570000Y-31905000D01*
X141570000Y-31905000D02*
X142205000Y-32540000D01*
X142205000Y-32540000D02*
X143475000Y-32540000D01*
X143475000Y-32540000D02*
X144110000Y-31905000D01*
X144110000Y-31905000D02*
X144745000Y-32540000D01*
X144745000Y-32540000D02*
X146015000Y-32540000D01*
X146015000Y-32540000D02*
X146650000Y-31905000D01*
X146650000Y-31905000D02*
X147285000Y-32540000D01*
X147285000Y-32540000D02*
X148555000Y-32540000D01*
X148555000Y-32540000D02*
X149190000Y-31905000D01*
X149190000Y-31905000D02*
X149825000Y-32540000D01*
X149825000Y-32540000D02*
X151095000Y-32540000D01*
X151095000Y-32540000D02*
X151730000Y-31905000D01*
X151730000Y-31905000D02*
X152365000Y-32540000D01*
X152365000Y-32540000D02*
X153635000Y-32540000D01*
X154270000Y-31905000D02*
X153635000Y-32540000D01*
X154270000Y-31905000D02*
X154905000Y-32540000D01*
X156175000Y-32540000D02*
X154905000Y-32540000D01*
X156175000Y-32540000D02*
X156810000Y-31905000D01*
X156810000Y-31905000D02*
X157445000Y-32540000D01*
X158715000Y-32540000D02*
X157445000Y-32540000D01*
X158715000Y-32540000D02*
X159350000Y-31905000D01*
X159350000Y-31905000D02*
X159985000Y-32540000D01*
X161255000Y-32540000D02*
X159985000Y-32540000D01*
X161255000Y-32540000D02*
X161890000Y-31905000D01*
X161890000Y-31905000D02*
X162525000Y-32540000D01*
X163795000Y-32540000D02*
X162525000Y-32540000D01*
X163795000Y-32540000D02*
X164430000Y-31905000D01*
X164430000Y-31905000D02*
X165065000Y-32540000D01*
X166335000Y-32540000D02*
X165065000Y-32540000D01*
X166335000Y-32540000D02*
X166970000Y-31905000D01*
X166970000Y-31905000D02*
X167605000Y-32540000D01*
X168875000Y-32540000D02*
X167605000Y-32540000D01*
X168875000Y-32540000D02*
X169510000Y-31905000D01*
X169510000Y-31905000D02*
X170145000Y-32540000D01*
X171415000Y-32540000D02*
X170145000Y-32540000D01*
X171415000Y-32540000D02*
X172050000Y-31905000D01*
X172050000Y-28095000D02*
X171415000Y-27460000D01*
X171415000Y-27460000D02*
X170145000Y-27460000D01*
X169510000Y-28095000D02*
X170145000Y-27460000D01*
X169510000Y-28095000D02*
X168875000Y-27460000D01*
X168875000Y-27460000D02*
X167605000Y-27460000D01*
X166970000Y-28095000D02*
X167605000Y-27460000D01*
X166970000Y-28095000D02*
X166335000Y-27460000D01*
X166335000Y-27460000D02*
X165065000Y-27460000D01*
X164430000Y-28095000D02*
X165065000Y-27460000D01*
X164430000Y-28095000D02*
X163795000Y-27460000D01*
X162525000Y-27460000D02*
X163795000Y-27460000D01*
X162525000Y-27460000D02*
X161890000Y-28095000D01*
X161890000Y-28095000D02*
X161255000Y-27460000D01*
X159985000Y-27460000D02*
X161255000Y-27460000D01*
X159985000Y-27460000D02*
X159350000Y-28095000D01*
X159350000Y-28095000D02*
X158715000Y-27460000D01*
X158715000Y-27460000D02*
X157445000Y-27460000D01*
X156810000Y-28095000D02*
X157445000Y-27460000D01*
X156810000Y-28095000D02*
X156175000Y-27460000D01*
X156175000Y-27460000D02*
X154905000Y-27460000D01*
X154270000Y-28095000D02*
X154905000Y-27460000D01*
X154270000Y-28095000D02*
X153635000Y-27460000D01*
X153635000Y-27460000D02*
X152365000Y-27460000D01*
X151730000Y-28095000D02*
X152365000Y-27460000D01*
X151730000Y-28095000D02*
X151095000Y-27460000D01*
X151095000Y-27460000D02*
X149825000Y-27460000D01*
X149190000Y-28095000D02*
X149825000Y-27460000D01*
X149190000Y-28095000D02*
X148555000Y-27460000D01*
X148555000Y-27460000D02*
X147285000Y-27460000D01*
X146650000Y-28095000D02*
X147285000Y-27460000D01*
X146650000Y-28095000D02*
X146015000Y-27460000D01*
X146015000Y-27460000D02*
X144745000Y-27460000D01*
X144110000Y-28095000D02*
X144745000Y-27460000D01*
X144110000Y-28095000D02*
X143475000Y-27460000D01*
X143475000Y-27460000D02*
X142205000Y-27460000D01*
X141570000Y-28095000D02*
X142205000Y-27460000D01*
X141570000Y-28095000D02*
X140935000Y-27460000D01*
X140935000Y-27460000D02*
X139665000Y-27460000D01*
X139030000Y-28095000D02*
X139665000Y-27460000D01*
X126330000Y-31905000D02*
X126330000Y-28095000D01*
X128870000Y-31905000D02*
X128870000Y-28095000D01*
X131410000Y-31905000D02*
X131410000Y-28095000D01*
X133950000Y-31905000D02*
X133950000Y-28095000D01*
X136490000Y-31905000D02*
X136490000Y-28095000D01*
X139030000Y-31905000D02*
X139030000Y-28095000D01*
X141570000Y-31905000D02*
X141570000Y-28095000D01*
X144110000Y-31905000D02*
X144110000Y-28095000D01*
X146650000Y-31905000D02*
X146650000Y-28095000D01*
X149190000Y-31905000D02*
X149190000Y-28095000D01*
X151730000Y-31905000D02*
X151730000Y-28095000D01*
X154270000Y-31905000D02*
X154270000Y-28095000D01*
X156810000Y-31905000D02*
X156810000Y-28095000D01*
X159350000Y-31905000D02*
X159350000Y-28095000D01*
X161890000Y-31905000D02*
X161890000Y-28095000D01*
X164430000Y-31905000D02*
X164430000Y-28095000D01*
X166970000Y-31905000D02*
X166970000Y-28095000D01*
X169510000Y-31905000D02*
X169510000Y-28095000D01*
X172050000Y-31905000D02*
X172050000Y-28095000D01*
X172050000Y-31905000D02*
X172685000Y-32540000D01*
X173955000Y-32540000D02*
X172685000Y-32540000D01*
X173955000Y-32540000D02*
X174590000Y-31905000D01*
X174590000Y-28095000D02*
X173955000Y-27460000D01*
X173955000Y-27460000D02*
X172685000Y-27460000D01*
X172050000Y-28095000D02*
X172685000Y-27460000D01*
X174590000Y-31905000D02*
X174590000Y-28095000D01*
X174590000Y-31905000D02*
X175225000Y-32540000D01*
X176495000Y-32540000D02*
X175225000Y-32540000D01*
X176495000Y-32540000D02*
X177130000Y-31905000D01*
X177130000Y-28095000D02*
X176495000Y-27460000D01*
X176495000Y-27460000D02*
X175225000Y-27460000D01*
X174590000Y-28095000D02*
X175225000Y-27460000D01*
X177130000Y-31905000D02*
X177130000Y-28095000D01*
X177130000Y-31905000D02*
X177765000Y-32540000D01*
X179035000Y-32540000D02*
X177765000Y-32540000D01*
X179035000Y-32540000D02*
X179670000Y-31905000D01*
X179670000Y-28095000D02*
X179035000Y-27460000D01*
X179035000Y-27460000D02*
X177765000Y-27460000D01*
X177130000Y-28095000D02*
X177765000Y-27460000D01*
X179670000Y-31905000D02*
X179670000Y-28095000D01*
X179670000Y-31905000D02*
X180305000Y-32540000D01*
X181575000Y-32540000D02*
X180305000Y-32540000D01*
X181575000Y-32540000D02*
X182210000Y-31905000D01*
X182210000Y-28095000D02*
X181575000Y-27460000D01*
X181575000Y-27460000D02*
X180305000Y-27460000D01*
X179670000Y-28095000D02*
X180305000Y-27460000D01*
X182210000Y-31905000D02*
X182210000Y-28095000D01*
X182210000Y-31905000D02*
X182845000Y-32540000D01*
X184115000Y-32540000D02*
X182845000Y-32540000D01*
X184115000Y-32540000D02*
X184750000Y-31905000D01*
X184750000Y-28095000D02*
X184115000Y-27460000D01*
X184115000Y-27460000D02*
X182845000Y-27460000D01*
X182210000Y-28095000D02*
X182845000Y-27460000D01*
X184750000Y-31905000D02*
X184750000Y-28095000D01*
D14*
X183855931Y-43888283D02*
X184137448Y-43486116D01*
X184338531Y-43888283D02*
X184338531Y-43043733D01*
X184016798Y-43043733D01*
X183936365Y-43083950D01*
X183896148Y-43124166D01*
X183855931Y-43204600D01*
X183855931Y-43325250D01*
X183896148Y-43405683D01*
X183936365Y-43445900D01*
X184016798Y-43486116D01*
X184338531Y-43486116D01*
X183453765Y-43888283D02*
X183292898Y-43888283D01*
X183212465Y-43848066D01*
X183172248Y-43807850D01*
X183091815Y-43687200D01*
X183051598Y-43526333D01*
X183051598Y-43204600D01*
X183091815Y-43124166D01*
X183132031Y-43083950D01*
X183212465Y-43043733D01*
X183373331Y-43043733D01*
X183453765Y-43083950D01*
X183493981Y-43124166D01*
X183534198Y-43204600D01*
X183534198Y-43405683D01*
X183493981Y-43486116D01*
X183453765Y-43526333D01*
X183373331Y-43566550D01*
X183212465Y-43566550D01*
X183132031Y-43526333D01*
X183091815Y-43486116D01*
X183051598Y-43405683D01*
X182770081Y-43043733D02*
X182207048Y-43043733D01*
X182568998Y-43888283D01*
X184345931Y-25438283D02*
X184627448Y-25036116D01*
X184828531Y-25438283D02*
X184828531Y-24593733D01*
X184506798Y-24593733D01*
X184426365Y-24633950D01*
X184386148Y-24674166D01*
X184345931Y-24754600D01*
X184345931Y-24875250D01*
X184386148Y-24955683D01*
X184426365Y-24995900D01*
X184506798Y-25036116D01*
X184828531Y-25036116D01*
X183943765Y-25438283D02*
X183782898Y-25438283D01*
X183702465Y-25398066D01*
X183662248Y-25357850D01*
X183581815Y-25237200D01*
X183541598Y-25076333D01*
X183541598Y-24754600D01*
X183581815Y-24674166D01*
X183622031Y-24633950D01*
X183702465Y-24593733D01*
X183863331Y-24593733D01*
X183943765Y-24633950D01*
X183983981Y-24674166D01*
X184024198Y-24754600D01*
X184024198Y-24955683D01*
X183983981Y-25036116D01*
X183943765Y-25076333D01*
X183863331Y-25116550D01*
X183702465Y-25116550D01*
X183622031Y-25076333D01*
X183581815Y-25036116D01*
X183541598Y-24955683D01*
X182817698Y-24593733D02*
X182978565Y-24593733D01*
X183058998Y-24633950D01*
X183099215Y-24674166D01*
X183179648Y-24794816D01*
X183219865Y-24955683D01*
X183219865Y-25277416D01*
X183179648Y-25357850D01*
X183139431Y-25398066D01*
X183058998Y-25438283D01*
X182898131Y-25438283D01*
X182817698Y-25398066D01*
X182777481Y-25357850D01*
X182737265Y-25277416D01*
X182737265Y-25076333D01*
X182777481Y-24995900D01*
X182817698Y-24955683D01*
X182898131Y-24915466D01*
X183058998Y-24915466D01*
X183139431Y-24955683D01*
X183179648Y-24995900D01*
X183219865Y-25076333D01*
X184420931Y-34918283D02*
X184702448Y-34516116D01*
X184903531Y-34918283D02*
X184903531Y-34073733D01*
X184581798Y-34073733D01*
X184501365Y-34113950D01*
X184461148Y-34154166D01*
X184420931Y-34234600D01*
X184420931Y-34355250D01*
X184461148Y-34435683D01*
X184501365Y-34475900D01*
X184581798Y-34516116D01*
X184903531Y-34516116D01*
X184139415Y-34073733D02*
X183576381Y-34073733D01*
X183938331Y-34918283D01*
X183214431Y-34918283D02*
X183053565Y-34918283D01*
X182973131Y-34878066D01*
X182932915Y-34837850D01*
X182852481Y-34717200D01*
X182812265Y-34556333D01*
X182812265Y-34234600D01*
X182852481Y-34154166D01*
X182892698Y-34113950D01*
X182973131Y-34073733D01*
X183133998Y-34073733D01*
X183214431Y-34113950D01*
X183254648Y-34154166D01*
X183294865Y-34234600D01*
X183294865Y-34435683D01*
X183254648Y-34516116D01*
X183214431Y-34556333D01*
X183133998Y-34596550D01*
X182973131Y-34596550D01*
X182892698Y-34556333D01*
X182852481Y-34516116D01*
X182812265Y-34435683D01*
X184090931Y-53208283D02*
X184372448Y-52806116D01*
X184573531Y-53208283D02*
X184573531Y-52363733D01*
X184251798Y-52363733D01*
X184171365Y-52403950D01*
X184131148Y-52444166D01*
X184090931Y-52524600D01*
X184090931Y-52645250D01*
X184131148Y-52725683D01*
X184171365Y-52765900D01*
X184251798Y-52806116D01*
X184573531Y-52806116D01*
X183809415Y-52363733D02*
X183246381Y-52363733D01*
X183608331Y-53208283D01*
X182803998Y-52725683D02*
X182884431Y-52685466D01*
X182924648Y-52645250D01*
X182964865Y-52564816D01*
X182964865Y-52524600D01*
X182924648Y-52444166D01*
X182884431Y-52403950D01*
X182803998Y-52363733D01*
X182643131Y-52363733D01*
X182562698Y-52403950D01*
X182522481Y-52444166D01*
X182482265Y-52524600D01*
X182482265Y-52564816D01*
X182522481Y-52645250D01*
X182562698Y-52685466D01*
X182643131Y-52725683D01*
X182803998Y-52725683D01*
X182884431Y-52765900D01*
X182924648Y-52806116D01*
X182964865Y-52886550D01*
X182964865Y-53047416D01*
X182924648Y-53127850D01*
X182884431Y-53168066D01*
X182803998Y-53208283D01*
X182643131Y-53208283D01*
X182562698Y-53168066D01*
X182522481Y-53127850D01*
X182482265Y-53047416D01*
X182482265Y-52886550D01*
X182522481Y-52806116D01*
X182562698Y-52765900D01*
X182643131Y-52725683D01*
D15*
X195021428Y-24572619D02*
X195116666Y-24525000D01*
X195211904Y-24429761D01*
X195354761Y-24286904D01*
X195450000Y-24239285D01*
X195545238Y-24239285D01*
X195497619Y-24477380D02*
X195592857Y-24429761D01*
X195688095Y-24334523D01*
X195735714Y-24144047D01*
X195735714Y-23810714D01*
X195688095Y-23620238D01*
X195592857Y-23525000D01*
X195497619Y-23477380D01*
X195307142Y-23477380D01*
X195211904Y-23525000D01*
X195116666Y-23620238D01*
X195069047Y-23810714D01*
X195069047Y-24144047D01*
X195116666Y-24334523D01*
X195211904Y-24429761D01*
X195307142Y-24477380D01*
X195497619Y-24477380D01*
X194688095Y-23572619D02*
X194640476Y-23525000D01*
X194545238Y-23477380D01*
X194307142Y-23477380D01*
X194211904Y-23525000D01*
X194164285Y-23572619D01*
X194116666Y-23667857D01*
X194116666Y-23763095D01*
X194164285Y-23905952D01*
X194735714Y-24477380D01*
X194116666Y-24477380D01*
X193735714Y-23572619D02*
X193688095Y-23525000D01*
X193592857Y-23477380D01*
X193354761Y-23477380D01*
X193259523Y-23525000D01*
X193211904Y-23572619D01*
X193164285Y-23667857D01*
X193164285Y-23763095D01*
X193211904Y-23905952D01*
X193783333Y-24477380D01*
X193164285Y-24477380D01*
X194871428Y-42797619D02*
X194966666Y-42750000D01*
X195061904Y-42654761D01*
X195204761Y-42511904D01*
X195300000Y-42464285D01*
X195395238Y-42464285D01*
X195347619Y-42702380D02*
X195442857Y-42654761D01*
X195538095Y-42559523D01*
X195585714Y-42369047D01*
X195585714Y-42035714D01*
X195538095Y-41845238D01*
X195442857Y-41750000D01*
X195347619Y-41702380D01*
X195157142Y-41702380D01*
X195061904Y-41750000D01*
X194966666Y-41845238D01*
X194919047Y-42035714D01*
X194919047Y-42369047D01*
X194966666Y-42559523D01*
X195061904Y-42654761D01*
X195157142Y-42702380D01*
X195347619Y-42702380D01*
X194538095Y-41797619D02*
X194490476Y-41750000D01*
X194395238Y-41702380D01*
X194157142Y-41702380D01*
X194061904Y-41750000D01*
X194014285Y-41797619D01*
X193966666Y-41892857D01*
X193966666Y-41988095D01*
X194014285Y-42130952D01*
X194585714Y-42702380D01*
X193966666Y-42702380D01*
X193014285Y-42702380D02*
X193585714Y-42702380D01*
X193300000Y-42702380D02*
X193300000Y-41702380D01*
X193395238Y-41845238D01*
X193490476Y-41940476D01*
X193585714Y-41988095D01*
X195021428Y-51872619D02*
X195116666Y-51825000D01*
X195211904Y-51729761D01*
X195354761Y-51586904D01*
X195450000Y-51539285D01*
X195545238Y-51539285D01*
X195497619Y-51777380D02*
X195592857Y-51729761D01*
X195688095Y-51634523D01*
X195735714Y-51444047D01*
X195735714Y-51110714D01*
X195688095Y-50920238D01*
X195592857Y-50825000D01*
X195497619Y-50777380D01*
X195307142Y-50777380D01*
X195211904Y-50825000D01*
X195116666Y-50920238D01*
X195069047Y-51110714D01*
X195069047Y-51444047D01*
X195116666Y-51634523D01*
X195211904Y-51729761D01*
X195307142Y-51777380D01*
X195497619Y-51777380D01*
X194116666Y-51777380D02*
X194688095Y-51777380D01*
X194402380Y-51777380D02*
X194402380Y-50777380D01*
X194497619Y-50920238D01*
X194592857Y-51015476D01*
X194688095Y-51063095D01*
X193497619Y-50777380D02*
X193402380Y-50777380D01*
X193307142Y-50825000D01*
X193259523Y-50872619D01*
X193211904Y-50967857D01*
X193164285Y-51158333D01*
X193164285Y-51396428D01*
X193211904Y-51586904D01*
X193259523Y-51682142D01*
X193307142Y-51729761D01*
X193402380Y-51777380D01*
X193497619Y-51777380D01*
X193592857Y-51729761D01*
X193640476Y-51682142D01*
X193688095Y-51586904D01*
X193735714Y-51396428D01*
X193735714Y-51158333D01*
X193688095Y-50967857D01*
X193640476Y-50872619D01*
X193592857Y-50825000D01*
X193497619Y-50777380D01*
X194921428Y-33547619D02*
X195016666Y-33500000D01*
X195111904Y-33404761D01*
X195254761Y-33261904D01*
X195350000Y-33214285D01*
X195445238Y-33214285D01*
X195397619Y-33452380D02*
X195492857Y-33404761D01*
X195588095Y-33309523D01*
X195635714Y-33119047D01*
X195635714Y-32785714D01*
X195588095Y-32595238D01*
X195492857Y-32500000D01*
X195397619Y-32452380D01*
X195207142Y-32452380D01*
X195111904Y-32500000D01*
X195016666Y-32595238D01*
X194969047Y-32785714D01*
X194969047Y-33119047D01*
X195016666Y-33309523D01*
X195111904Y-33404761D01*
X195207142Y-33452380D01*
X195397619Y-33452380D01*
X194016666Y-33452380D02*
X194588095Y-33452380D01*
X194302380Y-33452380D02*
X194302380Y-32452380D01*
X194397619Y-32595238D01*
X194492857Y-32690476D01*
X194588095Y-32738095D01*
X193064285Y-33452380D02*
X193635714Y-33452380D01*
X193350000Y-33452380D02*
X193350000Y-32452380D01*
X193445238Y-32595238D01*
X193540476Y-32690476D01*
X193635714Y-32738095D01*
D16*
X191259252Y-30931809D02*
X191201800Y-30816904D01*
X191086895Y-30702000D01*
X190914538Y-30529642D01*
X190857085Y-30414738D01*
X190857085Y-30299833D01*
X191144347Y-30357285D02*
X191086895Y-30242381D01*
X190971990Y-30127476D01*
X190742180Y-30070023D01*
X190340014Y-30070023D01*
X190110204Y-30127476D01*
X189995300Y-30242381D01*
X189937847Y-30357285D01*
X189937847Y-30587095D01*
X189995300Y-30702000D01*
X190110204Y-30816904D01*
X190340014Y-30874357D01*
X190742180Y-30874357D01*
X190971990Y-30816904D01*
X191086895Y-30702000D01*
X191144347Y-30587095D01*
X191144347Y-30357285D01*
X190052752Y-31333976D02*
X189995300Y-31391428D01*
X189937847Y-31506333D01*
X189937847Y-31793595D01*
X189995300Y-31908500D01*
X190052752Y-31965952D01*
X190167657Y-32023404D01*
X190282561Y-32023404D01*
X190454919Y-31965952D01*
X191144347Y-31276523D01*
X191144347Y-32023404D01*
X189937847Y-33057547D02*
X189937847Y-32827738D01*
X189995300Y-32712833D01*
X190052752Y-32655381D01*
X190225109Y-32540476D01*
X190454919Y-32483023D01*
X190914538Y-32483023D01*
X191029442Y-32540476D01*
X191086895Y-32597928D01*
X191144347Y-32712833D01*
X191144347Y-32942642D01*
X191086895Y-33057547D01*
X191029442Y-33115000D01*
X190914538Y-33172452D01*
X190627276Y-33172452D01*
X190512371Y-33115000D01*
X190454919Y-33057547D01*
X190397466Y-32942642D01*
X190397466Y-32712833D01*
X190454919Y-32597928D01*
X190512371Y-32540476D01*
X190627276Y-32483023D01*
D17*
X186088209Y-31563889D02*
X186051440Y-31600658D01*
X186014670Y-31674197D01*
X186014670Y-31858045D01*
X186051440Y-31931584D01*
X186088209Y-31968353D01*
X186161748Y-32005123D01*
X186235287Y-32005123D01*
X186345596Y-31968353D01*
X186786830Y-31527119D01*
X186786830Y-32005123D01*
X186796230Y-34167123D02*
X186796230Y-33725889D01*
X186796230Y-33946506D02*
X186024070Y-33946506D01*
X186134379Y-33872967D01*
X186207918Y-33799428D01*
X186244687Y-33725889D01*
X193139457Y-28735984D02*
X193654230Y-28735984D01*
X192845300Y-28552136D02*
X193396843Y-28368289D01*
X193396843Y-28846293D01*
X186024070Y-29215719D02*
X186024070Y-29693723D01*
X186318226Y-29436336D01*
X186318226Y-29546645D01*
X186354996Y-29620184D01*
X186391765Y-29656953D01*
X186465304Y-29693723D01*
X186649152Y-29693723D01*
X186722691Y-29656953D01*
X186759460Y-29620184D01*
X186796230Y-29546645D01*
X186796230Y-29326028D01*
X186759460Y-29252489D01*
X186722691Y-29215719D01*
D16*
X191259252Y-49382951D02*
X191201800Y-49268046D01*
X191086895Y-49153142D01*
X190914538Y-48980784D01*
X190857085Y-48865880D01*
X190857085Y-48750975D01*
X191144347Y-48808427D02*
X191086895Y-48693523D01*
X190971990Y-48578618D01*
X190742180Y-48521165D01*
X190340014Y-48521165D01*
X190110204Y-48578618D01*
X189995300Y-48693523D01*
X189937847Y-48808427D01*
X189937847Y-49038237D01*
X189995300Y-49153142D01*
X190110204Y-49268046D01*
X190340014Y-49325499D01*
X190742180Y-49325499D01*
X190971990Y-49268046D01*
X191086895Y-49153142D01*
X191144347Y-49038237D01*
X191144347Y-48808427D01*
X190052752Y-49785118D02*
X189995300Y-49842570D01*
X189937847Y-49957475D01*
X189937847Y-50244737D01*
X189995300Y-50359642D01*
X190052752Y-50417094D01*
X190167657Y-50474546D01*
X190282561Y-50474546D01*
X190454919Y-50417094D01*
X191144347Y-49727665D01*
X191144347Y-50474546D01*
X189937847Y-51566142D02*
X189937847Y-50991618D01*
X190512371Y-50934165D01*
X190454919Y-50991618D01*
X190397466Y-51106523D01*
X190397466Y-51393784D01*
X190454919Y-51508689D01*
X190512371Y-51566142D01*
X190627276Y-51623594D01*
X190914538Y-51623594D01*
X191029442Y-51566142D01*
X191086895Y-51508689D01*
X191144347Y-51393784D01*
X191144347Y-51106523D01*
X191086895Y-50991618D01*
X191029442Y-50934165D01*
D17*
X186088209Y-50015031D02*
X186051440Y-50051800D01*
X186014670Y-50125339D01*
X186014670Y-50309187D01*
X186051440Y-50382726D01*
X186088209Y-50419495D01*
X186161748Y-50456265D01*
X186235287Y-50456265D01*
X186345596Y-50419495D01*
X186786830Y-49978261D01*
X186786830Y-50456265D01*
X186796230Y-52618265D02*
X186796230Y-52177031D01*
X186796230Y-52397648D02*
X186024070Y-52397648D01*
X186134379Y-52324109D01*
X186207918Y-52250570D01*
X186244687Y-52177031D01*
X193139457Y-47187126D02*
X193654230Y-47187126D01*
X192845300Y-47003278D02*
X193396843Y-46819431D01*
X193396843Y-47297435D01*
X186024070Y-47666861D02*
X186024070Y-48144865D01*
X186318226Y-47887478D01*
X186318226Y-47997787D01*
X186354996Y-48071326D01*
X186391765Y-48108095D01*
X186465304Y-48144865D01*
X186649152Y-48144865D01*
X186722691Y-48108095D01*
X186759460Y-48071326D01*
X186796230Y-47997787D01*
X186796230Y-47777170D01*
X186759460Y-47703631D01*
X186722691Y-47666861D01*
D16*
X191259252Y-40157380D02*
X191201800Y-40042475D01*
X191086895Y-39927571D01*
X190914538Y-39755213D01*
X190857085Y-39640309D01*
X190857085Y-39525404D01*
X191144347Y-39582856D02*
X191086895Y-39467952D01*
X190971990Y-39353047D01*
X190742180Y-39295594D01*
X190340014Y-39295594D01*
X190110204Y-39353047D01*
X189995300Y-39467952D01*
X189937847Y-39582856D01*
X189937847Y-39812666D01*
X189995300Y-39927571D01*
X190110204Y-40042475D01*
X190340014Y-40099928D01*
X190742180Y-40099928D01*
X190971990Y-40042475D01*
X191086895Y-39927571D01*
X191144347Y-39812666D01*
X191144347Y-39582856D01*
X191144347Y-41248975D02*
X191144347Y-40559547D01*
X191144347Y-40904261D02*
X189937847Y-40904261D01*
X190110204Y-40789356D01*
X190225109Y-40674452D01*
X190282561Y-40559547D01*
X189937847Y-41651142D02*
X189937847Y-42398023D01*
X190397466Y-41995856D01*
X190397466Y-42168213D01*
X190454919Y-42283118D01*
X190512371Y-42340571D01*
X190627276Y-42398023D01*
X190914538Y-42398023D01*
X191029442Y-42340571D01*
X191086895Y-42283118D01*
X191144347Y-42168213D01*
X191144347Y-41823499D01*
X191086895Y-41708594D01*
X191029442Y-41651142D01*
D17*
X186088209Y-40789460D02*
X186051440Y-40826229D01*
X186014670Y-40899768D01*
X186014670Y-41083616D01*
X186051440Y-41157155D01*
X186088209Y-41193924D01*
X186161748Y-41230694D01*
X186235287Y-41230694D01*
X186345596Y-41193924D01*
X186786830Y-40752690D01*
X186786830Y-41230694D01*
X186796230Y-43392694D02*
X186796230Y-42951460D01*
X186796230Y-43172077D02*
X186024070Y-43172077D01*
X186134379Y-43098538D01*
X186207918Y-43024999D01*
X186244687Y-42951460D01*
X193139457Y-37961555D02*
X193654230Y-37961555D01*
X192845300Y-37777707D02*
X193396843Y-37593860D01*
X193396843Y-38071864D01*
X186024070Y-38441290D02*
X186024070Y-38919294D01*
X186318226Y-38661907D01*
X186318226Y-38772216D01*
X186354996Y-38845755D01*
X186391765Y-38882524D01*
X186465304Y-38919294D01*
X186649152Y-38919294D01*
X186722691Y-38882524D01*
X186759460Y-38845755D01*
X186796230Y-38772216D01*
X186796230Y-38551599D01*
X186759460Y-38478060D01*
X186722691Y-38441290D01*
D15*
X125988333Y-33622380D02*
X125988333Y-34336666D01*
X126035952Y-34479523D01*
X126131190Y-34574761D01*
X126274047Y-34622380D01*
X126369285Y-34622380D01*
X125559761Y-33717619D02*
X125512142Y-33670000D01*
X125416904Y-33622380D01*
X125178809Y-33622380D01*
X125083571Y-33670000D01*
X125035952Y-33717619D01*
X124988333Y-33812857D01*
X124988333Y-33908095D01*
X125035952Y-34050952D01*
X125607380Y-34622380D01*
X124988333Y-34622380D01*
D16*
X191259252Y-67834093D02*
X191201800Y-67719188D01*
X191086895Y-67604284D01*
X190914538Y-67431926D01*
X190857085Y-67317022D01*
X190857085Y-67202117D01*
X191144347Y-67259569D02*
X191086895Y-67144665D01*
X190971990Y-67029760D01*
X190742180Y-66972307D01*
X190340014Y-66972307D01*
X190110204Y-67029760D01*
X189995300Y-67144665D01*
X189937847Y-67259569D01*
X189937847Y-67489379D01*
X189995300Y-67604284D01*
X190110204Y-67719188D01*
X190340014Y-67776641D01*
X190742180Y-67776641D01*
X190971990Y-67719188D01*
X191086895Y-67604284D01*
X191144347Y-67489379D01*
X191144347Y-67259569D01*
X190052752Y-68236260D02*
X189995300Y-68293712D01*
X189937847Y-68408617D01*
X189937847Y-68695879D01*
X189995300Y-68810784D01*
X190052752Y-68868236D01*
X190167657Y-68925688D01*
X190282561Y-68925688D01*
X190454919Y-68868236D01*
X191144347Y-68178807D01*
X191144347Y-68925688D01*
X190340014Y-69959831D02*
X191144347Y-69959831D01*
X189880395Y-69672569D02*
X190742180Y-69385307D01*
X190742180Y-70132188D01*
D17*
X186088209Y-68466173D02*
X186051440Y-68502942D01*
X186014670Y-68576481D01*
X186014670Y-68760329D01*
X186051440Y-68833868D01*
X186088209Y-68870637D01*
X186161748Y-68907407D01*
X186235287Y-68907407D01*
X186345596Y-68870637D01*
X186786830Y-68429403D01*
X186786830Y-68907407D01*
X186796230Y-71069407D02*
X186796230Y-70628173D01*
X186796230Y-70848790D02*
X186024070Y-70848790D01*
X186134379Y-70775251D01*
X186207918Y-70701712D01*
X186244687Y-70628173D01*
X193139457Y-65638268D02*
X193654230Y-65638268D01*
X192845300Y-65454420D02*
X193396843Y-65270573D01*
X193396843Y-65748577D01*
X186024070Y-66118003D02*
X186024070Y-66596007D01*
X186318226Y-66338620D01*
X186318226Y-66448929D01*
X186354996Y-66522468D01*
X186391765Y-66559237D01*
X186465304Y-66596007D01*
X186649152Y-66596007D01*
X186722691Y-66559237D01*
X186759460Y-66522468D01*
X186796230Y-66448929D01*
X186796230Y-66228312D01*
X186759460Y-66154773D01*
X186722691Y-66118003D01*
D16*
X191259252Y-58608522D02*
X191201800Y-58493617D01*
X191086895Y-58378713D01*
X190914538Y-58206355D01*
X190857085Y-58091451D01*
X190857085Y-57976546D01*
X191144347Y-58033998D02*
X191086895Y-57919094D01*
X190971990Y-57804189D01*
X190742180Y-57746736D01*
X190340014Y-57746736D01*
X190110204Y-57804189D01*
X189995300Y-57919094D01*
X189937847Y-58033998D01*
X189937847Y-58263808D01*
X189995300Y-58378713D01*
X190110204Y-58493617D01*
X190340014Y-58551070D01*
X190742180Y-58551070D01*
X190971990Y-58493617D01*
X191086895Y-58378713D01*
X191144347Y-58263808D01*
X191144347Y-58033998D01*
X191144347Y-59700117D02*
X191144347Y-59010689D01*
X191144347Y-59355403D02*
X189937847Y-59355403D01*
X190110204Y-59240498D01*
X190225109Y-59125594D01*
X190282561Y-59010689D01*
X190052752Y-60159736D02*
X189995300Y-60217189D01*
X189937847Y-60332094D01*
X189937847Y-60619355D01*
X189995300Y-60734260D01*
X190052752Y-60791713D01*
X190167657Y-60849165D01*
X190282561Y-60849165D01*
X190454919Y-60791713D01*
X191144347Y-60102284D01*
X191144347Y-60849165D01*
D17*
X186088209Y-59240602D02*
X186051440Y-59277371D01*
X186014670Y-59350910D01*
X186014670Y-59534758D01*
X186051440Y-59608297D01*
X186088209Y-59645066D01*
X186161748Y-59681836D01*
X186235287Y-59681836D01*
X186345596Y-59645066D01*
X186786830Y-59203832D01*
X186786830Y-59681836D01*
X186796230Y-61843836D02*
X186796230Y-61402602D01*
X186796230Y-61623219D02*
X186024070Y-61623219D01*
X186134379Y-61549680D01*
X186207918Y-61476141D01*
X186244687Y-61402602D01*
X193139457Y-56412697D02*
X193654230Y-56412697D01*
X192845300Y-56228849D02*
X193396843Y-56045002D01*
X193396843Y-56523006D01*
X186024070Y-56892432D02*
X186024070Y-57370436D01*
X186318226Y-57113049D01*
X186318226Y-57223358D01*
X186354996Y-57296897D01*
X186391765Y-57333666D01*
X186465304Y-57370436D01*
X186649152Y-57370436D01*
X186722691Y-57333666D01*
X186759460Y-57296897D01*
X186796230Y-57223358D01*
X186796230Y-57002741D01*
X186759460Y-56929202D01*
X186722691Y-56892432D01*
D16*
X191259252Y-95510809D02*
X191201800Y-95395904D01*
X191086895Y-95281000D01*
X190914538Y-95108642D01*
X190857085Y-94993738D01*
X190857085Y-94878833D01*
X191144347Y-94936285D02*
X191086895Y-94821381D01*
X190971990Y-94706476D01*
X190742180Y-94649023D01*
X190340014Y-94649023D01*
X190110204Y-94706476D01*
X189995300Y-94821381D01*
X189937847Y-94936285D01*
X189937847Y-95166095D01*
X189995300Y-95281000D01*
X190110204Y-95395904D01*
X190340014Y-95453357D01*
X190742180Y-95453357D01*
X190971990Y-95395904D01*
X191086895Y-95281000D01*
X191144347Y-95166095D01*
X191144347Y-94936285D01*
X191144347Y-96602404D02*
X191144347Y-95912976D01*
X191144347Y-96257690D02*
X189937847Y-96257690D01*
X190110204Y-96142785D01*
X190225109Y-96027881D01*
X190282561Y-95912976D01*
X189937847Y-97694000D02*
X189937847Y-97119476D01*
X190512371Y-97062023D01*
X190454919Y-97119476D01*
X190397466Y-97234381D01*
X190397466Y-97521642D01*
X190454919Y-97636547D01*
X190512371Y-97694000D01*
X190627276Y-97751452D01*
X190914538Y-97751452D01*
X191029442Y-97694000D01*
X191086895Y-97636547D01*
X191144347Y-97521642D01*
X191144347Y-97234381D01*
X191086895Y-97119476D01*
X191029442Y-97062023D01*
D17*
X186088209Y-96142889D02*
X186051440Y-96179658D01*
X186014670Y-96253197D01*
X186014670Y-96437045D01*
X186051440Y-96510584D01*
X186088209Y-96547353D01*
X186161748Y-96584123D01*
X186235287Y-96584123D01*
X186345596Y-96547353D01*
X186786830Y-96106119D01*
X186786830Y-96584123D01*
X186796230Y-98746123D02*
X186796230Y-98304889D01*
X186796230Y-98525506D02*
X186024070Y-98525506D01*
X186134379Y-98451967D01*
X186207918Y-98378428D01*
X186244687Y-98304889D01*
X193139457Y-93314984D02*
X193654230Y-93314984D01*
X192845300Y-93131136D02*
X193396843Y-92947289D01*
X193396843Y-93425293D01*
X186024070Y-93794719D02*
X186024070Y-94272723D01*
X186318226Y-94015336D01*
X186318226Y-94125645D01*
X186354996Y-94199184D01*
X186391765Y-94235953D01*
X186465304Y-94272723D01*
X186649152Y-94272723D01*
X186722691Y-94235953D01*
X186759460Y-94199184D01*
X186796230Y-94125645D01*
X186796230Y-93905028D01*
X186759460Y-93831489D01*
X186722691Y-93794719D01*
D16*
X191259252Y-86285235D02*
X191201800Y-86170330D01*
X191086895Y-86055426D01*
X190914538Y-85883068D01*
X190857085Y-85768164D01*
X190857085Y-85653259D01*
X191144347Y-85710711D02*
X191086895Y-85595807D01*
X190971990Y-85480902D01*
X190742180Y-85423449D01*
X190340014Y-85423449D01*
X190110204Y-85480902D01*
X189995300Y-85595807D01*
X189937847Y-85710711D01*
X189937847Y-85940521D01*
X189995300Y-86055426D01*
X190110204Y-86170330D01*
X190340014Y-86227783D01*
X190742180Y-86227783D01*
X190971990Y-86170330D01*
X191086895Y-86055426D01*
X191144347Y-85940521D01*
X191144347Y-85710711D01*
X191144347Y-87376830D02*
X191144347Y-86687402D01*
X191144347Y-87032116D02*
X189937847Y-87032116D01*
X190110204Y-86917211D01*
X190225109Y-86802307D01*
X190282561Y-86687402D01*
X190340014Y-88410973D02*
X191144347Y-88410973D01*
X189880395Y-88123711D02*
X190742180Y-87836449D01*
X190742180Y-88583330D01*
D17*
X186088209Y-86917315D02*
X186051440Y-86954084D01*
X186014670Y-87027623D01*
X186014670Y-87211471D01*
X186051440Y-87285010D01*
X186088209Y-87321779D01*
X186161748Y-87358549D01*
X186235287Y-87358549D01*
X186345596Y-87321779D01*
X186786830Y-86880545D01*
X186786830Y-87358549D01*
X186796230Y-89520549D02*
X186796230Y-89079315D01*
X186796230Y-89299932D02*
X186024070Y-89299932D01*
X186134379Y-89226393D01*
X186207918Y-89152854D01*
X186244687Y-89079315D01*
X193139457Y-84089410D02*
X193654230Y-84089410D01*
X192845300Y-83905562D02*
X193396843Y-83721715D01*
X193396843Y-84199719D01*
X186024070Y-84569145D02*
X186024070Y-85047149D01*
X186318226Y-84789762D01*
X186318226Y-84900071D01*
X186354996Y-84973610D01*
X186391765Y-85010379D01*
X186465304Y-85047149D01*
X186649152Y-85047149D01*
X186722691Y-85010379D01*
X186759460Y-84973610D01*
X186796230Y-84900071D01*
X186796230Y-84679454D01*
X186759460Y-84605915D01*
X186722691Y-84569145D01*
D16*
X191259252Y-77059664D02*
X191201800Y-76944759D01*
X191086895Y-76829855D01*
X190914538Y-76657497D01*
X190857085Y-76542593D01*
X190857085Y-76427688D01*
X191144347Y-76485140D02*
X191086895Y-76370236D01*
X190971990Y-76255331D01*
X190742180Y-76197878D01*
X190340014Y-76197878D01*
X190110204Y-76255331D01*
X189995300Y-76370236D01*
X189937847Y-76485140D01*
X189937847Y-76714950D01*
X189995300Y-76829855D01*
X190110204Y-76944759D01*
X190340014Y-77002212D01*
X190742180Y-77002212D01*
X190971990Y-76944759D01*
X191086895Y-76829855D01*
X191144347Y-76714950D01*
X191144347Y-76485140D01*
X190052752Y-77461831D02*
X189995300Y-77519283D01*
X189937847Y-77634188D01*
X189937847Y-77921450D01*
X189995300Y-78036355D01*
X190052752Y-78093807D01*
X190167657Y-78151259D01*
X190282561Y-78151259D01*
X190454919Y-78093807D01*
X191144347Y-77404378D01*
X191144347Y-78151259D01*
X189937847Y-78553426D02*
X189937847Y-79300307D01*
X190397466Y-78898140D01*
X190397466Y-79070497D01*
X190454919Y-79185402D01*
X190512371Y-79242855D01*
X190627276Y-79300307D01*
X190914538Y-79300307D01*
X191029442Y-79242855D01*
X191086895Y-79185402D01*
X191144347Y-79070497D01*
X191144347Y-78725783D01*
X191086895Y-78610878D01*
X191029442Y-78553426D01*
D17*
X186088209Y-77691744D02*
X186051440Y-77728513D01*
X186014670Y-77802052D01*
X186014670Y-77985900D01*
X186051440Y-78059439D01*
X186088209Y-78096208D01*
X186161748Y-78132978D01*
X186235287Y-78132978D01*
X186345596Y-78096208D01*
X186786830Y-77654974D01*
X186786830Y-78132978D01*
X186796230Y-80294978D02*
X186796230Y-79853744D01*
X186796230Y-80074361D02*
X186024070Y-80074361D01*
X186134379Y-80000822D01*
X186207918Y-79927283D01*
X186244687Y-79853744D01*
X193139457Y-74863839D02*
X193654230Y-74863839D01*
X192845300Y-74679991D02*
X193396843Y-74496144D01*
X193396843Y-74974148D01*
X186024070Y-75343574D02*
X186024070Y-75821578D01*
X186318226Y-75564191D01*
X186318226Y-75674500D01*
X186354996Y-75748039D01*
X186391765Y-75784808D01*
X186465304Y-75821578D01*
X186649152Y-75821578D01*
X186722691Y-75784808D01*
X186759460Y-75748039D01*
X186796230Y-75674500D01*
X186796230Y-75453883D01*
X186759460Y-75380344D01*
X186722691Y-75343574D01*
M02*
