G04 #@! TF.GenerationSoftware,KiCad,Pcbnew,5.1.5-52549c5~86~ubuntu18.04.1*
G04 #@! TF.CreationDate,2020-04-05T23:02:45+02:00*
G04 #@! TF.ProjectId,Speeduino_base,53706565-6475-4696-9e6f-5f626173652e,rev?*
G04 #@! TF.SameCoordinates,Original*
G04 #@! TF.FileFunction,Soldermask,Bot*
G04 #@! TF.FilePolarity,Negative*
%FSLAX46Y46*%
G04 Gerber Fmt 4.6, Leading zero omitted, Abs format (unit mm)*
G04 Created by KiCad (PCBNEW 5.1.5-52549c5~86~ubuntu18.04.1) date 2020-04-05 23:02:45*
%MOMM*%
%LPD*%
G04 APERTURE LIST*
%ADD10C,0.100000*%
G04 APERTURE END LIST*
D10*
G36*
X128326000Y-103126000D02*
G01*
X126524000Y-103126000D01*
X126524000Y-101324000D01*
X128326000Y-101324000D01*
X128326000Y-103126000D01*
G37*
G36*
X124998512Y-101328927D02*
G01*
X125147812Y-101358624D01*
X125311784Y-101426544D01*
X125459354Y-101525147D01*
X125584853Y-101650646D01*
X125683456Y-101798216D01*
X125751376Y-101962188D01*
X125786000Y-102136259D01*
X125786000Y-102313741D01*
X125751376Y-102487812D01*
X125683456Y-102651784D01*
X125584853Y-102799354D01*
X125459354Y-102924853D01*
X125311784Y-103023456D01*
X125147812Y-103091376D01*
X124998512Y-103121073D01*
X124973742Y-103126000D01*
X124796258Y-103126000D01*
X124771488Y-103121073D01*
X124622188Y-103091376D01*
X124458216Y-103023456D01*
X124310646Y-102924853D01*
X124185147Y-102799354D01*
X124086544Y-102651784D01*
X124018624Y-102487812D01*
X123984000Y-102313741D01*
X123984000Y-102136259D01*
X124018624Y-101962188D01*
X124086544Y-101798216D01*
X124185147Y-101650646D01*
X124310646Y-101525147D01*
X124458216Y-101426544D01*
X124622188Y-101358624D01*
X124771488Y-101328927D01*
X124796258Y-101324000D01*
X124973742Y-101324000D01*
X124998512Y-101328927D01*
G37*
G36*
X135091000Y-103101000D02*
G01*
X133289000Y-103101000D01*
X133289000Y-101299000D01*
X135091000Y-101299000D01*
X135091000Y-103101000D01*
G37*
G36*
X131763512Y-101303927D02*
G01*
X131912812Y-101333624D01*
X132076784Y-101401544D01*
X132224354Y-101500147D01*
X132349853Y-101625646D01*
X132448456Y-101773216D01*
X132516376Y-101937188D01*
X132551000Y-102111259D01*
X132551000Y-102288741D01*
X132516376Y-102462812D01*
X132448456Y-102626784D01*
X132349853Y-102774354D01*
X132224354Y-102899853D01*
X132076784Y-102998456D01*
X131912812Y-103066376D01*
X131763512Y-103096073D01*
X131738742Y-103101000D01*
X131561258Y-103101000D01*
X131536488Y-103096073D01*
X131387188Y-103066376D01*
X131223216Y-102998456D01*
X131075646Y-102899853D01*
X130950147Y-102774354D01*
X130851544Y-102626784D01*
X130783624Y-102462812D01*
X130749000Y-102288741D01*
X130749000Y-102111259D01*
X130783624Y-101937188D01*
X130851544Y-101773216D01*
X130950147Y-101625646D01*
X131075646Y-101500147D01*
X131223216Y-101401544D01*
X131387188Y-101333624D01*
X131536488Y-101303927D01*
X131561258Y-101299000D01*
X131738742Y-101299000D01*
X131763512Y-101303927D01*
G37*
G36*
X165951903Y-96939587D02*
G01*
X166109068Y-97004687D01*
X166250513Y-97099198D01*
X166370802Y-97219487D01*
X166465313Y-97360932D01*
X166530413Y-97518097D01*
X166563600Y-97684943D01*
X166563600Y-97855057D01*
X166530413Y-98021903D01*
X166465313Y-98179068D01*
X166370802Y-98320513D01*
X166250513Y-98440802D01*
X166109068Y-98535313D01*
X165951903Y-98600413D01*
X165785057Y-98633600D01*
X165614943Y-98633600D01*
X165448097Y-98600413D01*
X165290932Y-98535313D01*
X165149487Y-98440802D01*
X165029198Y-98320513D01*
X164934687Y-98179068D01*
X164869587Y-98021903D01*
X164836400Y-97855057D01*
X164836400Y-97684943D01*
X164869587Y-97518097D01*
X164934687Y-97360932D01*
X165029198Y-97219487D01*
X165149487Y-97099198D01*
X165290932Y-97004687D01*
X165448097Y-96939587D01*
X165614943Y-96906400D01*
X165785057Y-96906400D01*
X165951903Y-96939587D01*
G37*
G36*
X178651903Y-96939587D02*
G01*
X178809068Y-97004687D01*
X178950513Y-97099198D01*
X179070802Y-97219487D01*
X179165313Y-97360932D01*
X179230413Y-97518097D01*
X179263600Y-97684943D01*
X179263600Y-97855057D01*
X179230413Y-98021903D01*
X179165313Y-98179068D01*
X179070802Y-98320513D01*
X178950513Y-98440802D01*
X178809068Y-98535313D01*
X178651903Y-98600413D01*
X178485057Y-98633600D01*
X178314943Y-98633600D01*
X178148097Y-98600413D01*
X177990932Y-98535313D01*
X177849487Y-98440802D01*
X177729198Y-98320513D01*
X177634687Y-98179068D01*
X177569587Y-98021903D01*
X177536400Y-97855057D01*
X177536400Y-97684943D01*
X177569587Y-97518097D01*
X177634687Y-97360932D01*
X177729198Y-97219487D01*
X177849487Y-97099198D01*
X177990932Y-97004687D01*
X178148097Y-96939587D01*
X178314943Y-96906400D01*
X178485057Y-96906400D01*
X178651903Y-96939587D01*
G37*
G36*
X176111903Y-96939587D02*
G01*
X176269068Y-97004687D01*
X176410513Y-97099198D01*
X176530802Y-97219487D01*
X176625313Y-97360932D01*
X176690413Y-97518097D01*
X176723600Y-97684943D01*
X176723600Y-97855057D01*
X176690413Y-98021903D01*
X176625313Y-98179068D01*
X176530802Y-98320513D01*
X176410513Y-98440802D01*
X176269068Y-98535313D01*
X176111903Y-98600413D01*
X175945057Y-98633600D01*
X175774943Y-98633600D01*
X175608097Y-98600413D01*
X175450932Y-98535313D01*
X175309487Y-98440802D01*
X175189198Y-98320513D01*
X175094687Y-98179068D01*
X175029587Y-98021903D01*
X174996400Y-97855057D01*
X174996400Y-97684943D01*
X175029587Y-97518097D01*
X175094687Y-97360932D01*
X175189198Y-97219487D01*
X175309487Y-97099198D01*
X175450932Y-97004687D01*
X175608097Y-96939587D01*
X175774943Y-96906400D01*
X175945057Y-96906400D01*
X176111903Y-96939587D01*
G37*
G36*
X173571903Y-96939587D02*
G01*
X173729068Y-97004687D01*
X173870513Y-97099198D01*
X173990802Y-97219487D01*
X174085313Y-97360932D01*
X174150413Y-97518097D01*
X174183600Y-97684943D01*
X174183600Y-97855057D01*
X174150413Y-98021903D01*
X174085313Y-98179068D01*
X173990802Y-98320513D01*
X173870513Y-98440802D01*
X173729068Y-98535313D01*
X173571903Y-98600413D01*
X173405057Y-98633600D01*
X173234943Y-98633600D01*
X173068097Y-98600413D01*
X172910932Y-98535313D01*
X172769487Y-98440802D01*
X172649198Y-98320513D01*
X172554687Y-98179068D01*
X172489587Y-98021903D01*
X172456400Y-97855057D01*
X172456400Y-97684943D01*
X172489587Y-97518097D01*
X172554687Y-97360932D01*
X172649198Y-97219487D01*
X172769487Y-97099198D01*
X172910932Y-97004687D01*
X173068097Y-96939587D01*
X173234943Y-96906400D01*
X173405057Y-96906400D01*
X173571903Y-96939587D01*
G37*
G36*
X171031903Y-96939587D02*
G01*
X171189068Y-97004687D01*
X171330513Y-97099198D01*
X171450802Y-97219487D01*
X171545313Y-97360932D01*
X171610413Y-97518097D01*
X171643600Y-97684943D01*
X171643600Y-97855057D01*
X171610413Y-98021903D01*
X171545313Y-98179068D01*
X171450802Y-98320513D01*
X171330513Y-98440802D01*
X171189068Y-98535313D01*
X171031903Y-98600413D01*
X170865057Y-98633600D01*
X170694943Y-98633600D01*
X170528097Y-98600413D01*
X170370932Y-98535313D01*
X170229487Y-98440802D01*
X170109198Y-98320513D01*
X170014687Y-98179068D01*
X169949587Y-98021903D01*
X169916400Y-97855057D01*
X169916400Y-97684943D01*
X169949587Y-97518097D01*
X170014687Y-97360932D01*
X170109198Y-97219487D01*
X170229487Y-97099198D01*
X170370932Y-97004687D01*
X170528097Y-96939587D01*
X170694943Y-96906400D01*
X170865057Y-96906400D01*
X171031903Y-96939587D01*
G37*
G36*
X168491903Y-96939587D02*
G01*
X168649068Y-97004687D01*
X168790513Y-97099198D01*
X168910802Y-97219487D01*
X169005313Y-97360932D01*
X169070413Y-97518097D01*
X169103600Y-97684943D01*
X169103600Y-97855057D01*
X169070413Y-98021903D01*
X169005313Y-98179068D01*
X168910802Y-98320513D01*
X168790513Y-98440802D01*
X168649068Y-98535313D01*
X168491903Y-98600413D01*
X168325057Y-98633600D01*
X168154943Y-98633600D01*
X167988097Y-98600413D01*
X167830932Y-98535313D01*
X167689487Y-98440802D01*
X167569198Y-98320513D01*
X167474687Y-98179068D01*
X167409587Y-98021903D01*
X167376400Y-97855057D01*
X167376400Y-97684943D01*
X167409587Y-97518097D01*
X167474687Y-97360932D01*
X167569198Y-97219487D01*
X167689487Y-97099198D01*
X167830932Y-97004687D01*
X167988097Y-96939587D01*
X168154943Y-96906400D01*
X168325057Y-96906400D01*
X168491903Y-96939587D01*
G37*
G36*
X163411903Y-96939587D02*
G01*
X163569068Y-97004687D01*
X163710513Y-97099198D01*
X163830802Y-97219487D01*
X163925313Y-97360932D01*
X163990413Y-97518097D01*
X164023600Y-97684943D01*
X164023600Y-97855057D01*
X163990413Y-98021903D01*
X163925313Y-98179068D01*
X163830802Y-98320513D01*
X163710513Y-98440802D01*
X163569068Y-98535313D01*
X163411903Y-98600413D01*
X163245057Y-98633600D01*
X163074943Y-98633600D01*
X162908097Y-98600413D01*
X162750932Y-98535313D01*
X162609487Y-98440802D01*
X162489198Y-98320513D01*
X162394687Y-98179068D01*
X162329587Y-98021903D01*
X162296400Y-97855057D01*
X162296400Y-97684943D01*
X162329587Y-97518097D01*
X162394687Y-97360932D01*
X162489198Y-97219487D01*
X162609487Y-97099198D01*
X162750932Y-97004687D01*
X162908097Y-96939587D01*
X163074943Y-96906400D01*
X163245057Y-96906400D01*
X163411903Y-96939587D01*
G37*
G36*
X160871903Y-96939587D02*
G01*
X161029068Y-97004687D01*
X161170513Y-97099198D01*
X161290802Y-97219487D01*
X161385313Y-97360932D01*
X161450413Y-97518097D01*
X161483600Y-97684943D01*
X161483600Y-97855057D01*
X161450413Y-98021903D01*
X161385313Y-98179068D01*
X161290802Y-98320513D01*
X161170513Y-98440802D01*
X161029068Y-98535313D01*
X160871903Y-98600413D01*
X160705057Y-98633600D01*
X160534943Y-98633600D01*
X160368097Y-98600413D01*
X160210932Y-98535313D01*
X160069487Y-98440802D01*
X159949198Y-98320513D01*
X159854687Y-98179068D01*
X159789587Y-98021903D01*
X159756400Y-97855057D01*
X159756400Y-97684943D01*
X159789587Y-97518097D01*
X159854687Y-97360932D01*
X159949198Y-97219487D01*
X160069487Y-97099198D01*
X160210932Y-97004687D01*
X160368097Y-96939587D01*
X160534943Y-96906400D01*
X160705057Y-96906400D01*
X160871903Y-96939587D01*
G37*
G36*
X158331903Y-96939587D02*
G01*
X158489068Y-97004687D01*
X158630513Y-97099198D01*
X158750802Y-97219487D01*
X158845313Y-97360932D01*
X158910413Y-97518097D01*
X158943600Y-97684943D01*
X158943600Y-97855057D01*
X158910413Y-98021903D01*
X158845313Y-98179068D01*
X158750802Y-98320513D01*
X158630513Y-98440802D01*
X158489068Y-98535313D01*
X158331903Y-98600413D01*
X158165057Y-98633600D01*
X157994943Y-98633600D01*
X157828097Y-98600413D01*
X157670932Y-98535313D01*
X157529487Y-98440802D01*
X157409198Y-98320513D01*
X157314687Y-98179068D01*
X157249587Y-98021903D01*
X157216400Y-97855057D01*
X157216400Y-97684943D01*
X157249587Y-97518097D01*
X157314687Y-97360932D01*
X157409198Y-97219487D01*
X157529487Y-97099198D01*
X157670932Y-97004687D01*
X157828097Y-96939587D01*
X157994943Y-96906400D01*
X158165057Y-96906400D01*
X158331903Y-96939587D01*
G37*
G36*
X155791903Y-96939587D02*
G01*
X155949068Y-97004687D01*
X156090513Y-97099198D01*
X156210802Y-97219487D01*
X156305313Y-97360932D01*
X156370413Y-97518097D01*
X156403600Y-97684943D01*
X156403600Y-97855057D01*
X156370413Y-98021903D01*
X156305313Y-98179068D01*
X156210802Y-98320513D01*
X156090513Y-98440802D01*
X155949068Y-98535313D01*
X155791903Y-98600413D01*
X155625057Y-98633600D01*
X155454943Y-98633600D01*
X155288097Y-98600413D01*
X155130932Y-98535313D01*
X154989487Y-98440802D01*
X154869198Y-98320513D01*
X154774687Y-98179068D01*
X154709587Y-98021903D01*
X154676400Y-97855057D01*
X154676400Y-97684943D01*
X154709587Y-97518097D01*
X154774687Y-97360932D01*
X154869198Y-97219487D01*
X154989487Y-97099198D01*
X155130932Y-97004687D01*
X155288097Y-96939587D01*
X155454943Y-96906400D01*
X155625057Y-96906400D01*
X155791903Y-96939587D01*
G37*
G36*
X153251903Y-96939587D02*
G01*
X153409068Y-97004687D01*
X153550513Y-97099198D01*
X153670802Y-97219487D01*
X153765313Y-97360932D01*
X153830413Y-97518097D01*
X153863600Y-97684943D01*
X153863600Y-97855057D01*
X153830413Y-98021903D01*
X153765313Y-98179068D01*
X153670802Y-98320513D01*
X153550513Y-98440802D01*
X153409068Y-98535313D01*
X153251903Y-98600413D01*
X153085057Y-98633600D01*
X152914943Y-98633600D01*
X152748097Y-98600413D01*
X152590932Y-98535313D01*
X152449487Y-98440802D01*
X152329198Y-98320513D01*
X152234687Y-98179068D01*
X152169587Y-98021903D01*
X152136400Y-97855057D01*
X152136400Y-97684943D01*
X152169587Y-97518097D01*
X152234687Y-97360932D01*
X152329198Y-97219487D01*
X152449487Y-97099198D01*
X152590932Y-97004687D01*
X152748097Y-96939587D01*
X152914943Y-96906400D01*
X153085057Y-96906400D01*
X153251903Y-96939587D01*
G37*
G36*
X150711903Y-96939587D02*
G01*
X150869068Y-97004687D01*
X151010513Y-97099198D01*
X151130802Y-97219487D01*
X151225313Y-97360932D01*
X151290413Y-97518097D01*
X151323600Y-97684943D01*
X151323600Y-97855057D01*
X151290413Y-98021903D01*
X151225313Y-98179068D01*
X151130802Y-98320513D01*
X151010513Y-98440802D01*
X150869068Y-98535313D01*
X150711903Y-98600413D01*
X150545057Y-98633600D01*
X150374943Y-98633600D01*
X150208097Y-98600413D01*
X150050932Y-98535313D01*
X149909487Y-98440802D01*
X149789198Y-98320513D01*
X149694687Y-98179068D01*
X149629587Y-98021903D01*
X149596400Y-97855057D01*
X149596400Y-97684943D01*
X149629587Y-97518097D01*
X149694687Y-97360932D01*
X149789198Y-97219487D01*
X149909487Y-97099198D01*
X150050932Y-97004687D01*
X150208097Y-96939587D01*
X150374943Y-96906400D01*
X150545057Y-96906400D01*
X150711903Y-96939587D01*
G37*
G36*
X145631903Y-96939587D02*
G01*
X145789068Y-97004687D01*
X145930513Y-97099198D01*
X146050802Y-97219487D01*
X146145313Y-97360932D01*
X146210413Y-97518097D01*
X146243600Y-97684943D01*
X146243600Y-97855057D01*
X146210413Y-98021903D01*
X146145313Y-98179068D01*
X146050802Y-98320513D01*
X145930513Y-98440802D01*
X145789068Y-98535313D01*
X145631903Y-98600413D01*
X145465057Y-98633600D01*
X145294943Y-98633600D01*
X145128097Y-98600413D01*
X144970932Y-98535313D01*
X144829487Y-98440802D01*
X144709198Y-98320513D01*
X144614687Y-98179068D01*
X144549587Y-98021903D01*
X144516400Y-97855057D01*
X144516400Y-97684943D01*
X144549587Y-97518097D01*
X144614687Y-97360932D01*
X144709198Y-97219487D01*
X144829487Y-97099198D01*
X144970932Y-97004687D01*
X145128097Y-96939587D01*
X145294943Y-96906400D01*
X145465057Y-96906400D01*
X145631903Y-96939587D01*
G37*
G36*
X140551903Y-96939587D02*
G01*
X140709068Y-97004687D01*
X140850513Y-97099198D01*
X140970802Y-97219487D01*
X141065313Y-97360932D01*
X141130413Y-97518097D01*
X141163600Y-97684943D01*
X141163600Y-97855057D01*
X141130413Y-98021903D01*
X141065313Y-98179068D01*
X140970802Y-98320513D01*
X140850513Y-98440802D01*
X140709068Y-98535313D01*
X140551903Y-98600413D01*
X140385057Y-98633600D01*
X140214943Y-98633600D01*
X140048097Y-98600413D01*
X139890932Y-98535313D01*
X139749487Y-98440802D01*
X139629198Y-98320513D01*
X139534687Y-98179068D01*
X139469587Y-98021903D01*
X139436400Y-97855057D01*
X139436400Y-97684943D01*
X139469587Y-97518097D01*
X139534687Y-97360932D01*
X139629198Y-97219487D01*
X139749487Y-97099198D01*
X139890932Y-97004687D01*
X140048097Y-96939587D01*
X140214943Y-96906400D01*
X140385057Y-96906400D01*
X140551903Y-96939587D01*
G37*
G36*
X138011903Y-96939587D02*
G01*
X138169068Y-97004687D01*
X138310513Y-97099198D01*
X138430802Y-97219487D01*
X138525313Y-97360932D01*
X138590413Y-97518097D01*
X138623600Y-97684943D01*
X138623600Y-97855057D01*
X138590413Y-98021903D01*
X138525313Y-98179068D01*
X138430802Y-98320513D01*
X138310513Y-98440802D01*
X138169068Y-98535313D01*
X138011903Y-98600413D01*
X137845057Y-98633600D01*
X137674943Y-98633600D01*
X137508097Y-98600413D01*
X137350932Y-98535313D01*
X137209487Y-98440802D01*
X137089198Y-98320513D01*
X136994687Y-98179068D01*
X136929587Y-98021903D01*
X136896400Y-97855057D01*
X136896400Y-97684943D01*
X136929587Y-97518097D01*
X136994687Y-97360932D01*
X137089198Y-97219487D01*
X137209487Y-97099198D01*
X137350932Y-97004687D01*
X137508097Y-96939587D01*
X137674943Y-96906400D01*
X137845057Y-96906400D01*
X138011903Y-96939587D01*
G37*
G36*
X135471903Y-96939587D02*
G01*
X135629068Y-97004687D01*
X135770513Y-97099198D01*
X135890802Y-97219487D01*
X135985313Y-97360932D01*
X136050413Y-97518097D01*
X136083600Y-97684943D01*
X136083600Y-97855057D01*
X136050413Y-98021903D01*
X135985313Y-98179068D01*
X135890802Y-98320513D01*
X135770513Y-98440802D01*
X135629068Y-98535313D01*
X135471903Y-98600413D01*
X135305057Y-98633600D01*
X135134943Y-98633600D01*
X134968097Y-98600413D01*
X134810932Y-98535313D01*
X134669487Y-98440802D01*
X134549198Y-98320513D01*
X134454687Y-98179068D01*
X134389587Y-98021903D01*
X134356400Y-97855057D01*
X134356400Y-97684943D01*
X134389587Y-97518097D01*
X134454687Y-97360932D01*
X134549198Y-97219487D01*
X134669487Y-97099198D01*
X134810932Y-97004687D01*
X134968097Y-96939587D01*
X135134943Y-96906400D01*
X135305057Y-96906400D01*
X135471903Y-96939587D01*
G37*
G36*
X132931903Y-96939587D02*
G01*
X133089068Y-97004687D01*
X133230513Y-97099198D01*
X133350802Y-97219487D01*
X133445313Y-97360932D01*
X133510413Y-97518097D01*
X133543600Y-97684943D01*
X133543600Y-97855057D01*
X133510413Y-98021903D01*
X133445313Y-98179068D01*
X133350802Y-98320513D01*
X133230513Y-98440802D01*
X133089068Y-98535313D01*
X132931903Y-98600413D01*
X132765057Y-98633600D01*
X132594943Y-98633600D01*
X132428097Y-98600413D01*
X132270932Y-98535313D01*
X132129487Y-98440802D01*
X132009198Y-98320513D01*
X131914687Y-98179068D01*
X131849587Y-98021903D01*
X131816400Y-97855057D01*
X131816400Y-97684943D01*
X131849587Y-97518097D01*
X131914687Y-97360932D01*
X132009198Y-97219487D01*
X132129487Y-97099198D01*
X132270932Y-97004687D01*
X132428097Y-96939587D01*
X132594943Y-96906400D01*
X132765057Y-96906400D01*
X132931903Y-96939587D01*
G37*
G36*
X143091903Y-96939587D02*
G01*
X143249068Y-97004687D01*
X143390513Y-97099198D01*
X143510802Y-97219487D01*
X143605313Y-97360932D01*
X143670413Y-97518097D01*
X143703600Y-97684943D01*
X143703600Y-97855057D01*
X143670413Y-98021903D01*
X143605313Y-98179068D01*
X143510802Y-98320513D01*
X143390513Y-98440802D01*
X143249068Y-98535313D01*
X143091903Y-98600413D01*
X142925057Y-98633600D01*
X142754943Y-98633600D01*
X142588097Y-98600413D01*
X142430932Y-98535313D01*
X142289487Y-98440802D01*
X142169198Y-98320513D01*
X142074687Y-98179068D01*
X142009587Y-98021903D01*
X141976400Y-97855057D01*
X141976400Y-97684943D01*
X142009587Y-97518097D01*
X142074687Y-97360932D01*
X142169198Y-97219487D01*
X142289487Y-97099198D01*
X142430932Y-97004687D01*
X142588097Y-96939587D01*
X142754943Y-96906400D01*
X142925057Y-96906400D01*
X143091903Y-96939587D01*
G37*
G36*
X130391903Y-96939587D02*
G01*
X130549068Y-97004687D01*
X130690513Y-97099198D01*
X130810802Y-97219487D01*
X130905313Y-97360932D01*
X130970413Y-97518097D01*
X131003600Y-97684943D01*
X131003600Y-97855057D01*
X130970413Y-98021903D01*
X130905313Y-98179068D01*
X130810802Y-98320513D01*
X130690513Y-98440802D01*
X130549068Y-98535313D01*
X130391903Y-98600413D01*
X130225057Y-98633600D01*
X130054943Y-98633600D01*
X129888097Y-98600413D01*
X129730932Y-98535313D01*
X129589487Y-98440802D01*
X129469198Y-98320513D01*
X129374687Y-98179068D01*
X129309587Y-98021903D01*
X129276400Y-97855057D01*
X129276400Y-97684943D01*
X129309587Y-97518097D01*
X129374687Y-97360932D01*
X129469198Y-97219487D01*
X129589487Y-97099198D01*
X129730932Y-97004687D01*
X129888097Y-96939587D01*
X130054943Y-96906400D01*
X130225057Y-96906400D01*
X130391903Y-96939587D01*
G37*
G36*
X127851903Y-96939587D02*
G01*
X128009068Y-97004687D01*
X128150513Y-97099198D01*
X128270802Y-97219487D01*
X128365313Y-97360932D01*
X128430413Y-97518097D01*
X128463600Y-97684943D01*
X128463600Y-97855057D01*
X128430413Y-98021903D01*
X128365313Y-98179068D01*
X128270802Y-98320513D01*
X128150513Y-98440802D01*
X128009068Y-98535313D01*
X127851903Y-98600413D01*
X127685057Y-98633600D01*
X127514943Y-98633600D01*
X127348097Y-98600413D01*
X127190932Y-98535313D01*
X127049487Y-98440802D01*
X126929198Y-98320513D01*
X126834687Y-98179068D01*
X126769587Y-98021903D01*
X126736400Y-97855057D01*
X126736400Y-97684943D01*
X126769587Y-97518097D01*
X126834687Y-97360932D01*
X126929198Y-97219487D01*
X127049487Y-97099198D01*
X127190932Y-97004687D01*
X127348097Y-96939587D01*
X127514943Y-96906400D01*
X127685057Y-96906400D01*
X127851903Y-96939587D01*
G37*
G36*
X125311903Y-96939587D02*
G01*
X125469068Y-97004687D01*
X125610513Y-97099198D01*
X125730802Y-97219487D01*
X125825313Y-97360932D01*
X125890413Y-97518097D01*
X125923600Y-97684943D01*
X125923600Y-97855057D01*
X125890413Y-98021903D01*
X125825313Y-98179068D01*
X125730802Y-98320513D01*
X125610513Y-98440802D01*
X125469068Y-98535313D01*
X125311903Y-98600413D01*
X125145057Y-98633600D01*
X124974943Y-98633600D01*
X124808097Y-98600413D01*
X124650932Y-98535313D01*
X124509487Y-98440802D01*
X124389198Y-98320513D01*
X124294687Y-98179068D01*
X124229587Y-98021903D01*
X124196400Y-97855057D01*
X124196400Y-97684943D01*
X124229587Y-97518097D01*
X124294687Y-97360932D01*
X124389198Y-97219487D01*
X124509487Y-97099198D01*
X124650932Y-97004687D01*
X124808097Y-96939587D01*
X124974943Y-96906400D01*
X125145057Y-96906400D01*
X125311903Y-96939587D01*
G37*
G36*
X181191903Y-96939587D02*
G01*
X181349068Y-97004687D01*
X181490513Y-97099198D01*
X181610802Y-97219487D01*
X181705313Y-97360932D01*
X181770413Y-97518097D01*
X181803600Y-97684943D01*
X181803600Y-97855057D01*
X181770413Y-98021903D01*
X181705313Y-98179068D01*
X181610802Y-98320513D01*
X181490513Y-98440802D01*
X181349068Y-98535313D01*
X181191903Y-98600413D01*
X181025057Y-98633600D01*
X180854943Y-98633600D01*
X180688097Y-98600413D01*
X180530932Y-98535313D01*
X180389487Y-98440802D01*
X180269198Y-98320513D01*
X180174687Y-98179068D01*
X180109587Y-98021903D01*
X180076400Y-97855057D01*
X180076400Y-97684943D01*
X180109587Y-97518097D01*
X180174687Y-97360932D01*
X180269198Y-97219487D01*
X180389487Y-97099198D01*
X180530932Y-97004687D01*
X180688097Y-96939587D01*
X180854943Y-96906400D01*
X181025057Y-96906400D01*
X181191903Y-96939587D01*
G37*
G36*
X183731903Y-96939587D02*
G01*
X183889068Y-97004687D01*
X184030513Y-97099198D01*
X184150802Y-97219487D01*
X184245313Y-97360932D01*
X184310413Y-97518097D01*
X184343600Y-97684943D01*
X184343600Y-97855057D01*
X184310413Y-98021903D01*
X184245313Y-98179068D01*
X184150802Y-98320513D01*
X184030513Y-98440802D01*
X183889068Y-98535313D01*
X183731903Y-98600413D01*
X183565057Y-98633600D01*
X183394943Y-98633600D01*
X183228097Y-98600413D01*
X183070932Y-98535313D01*
X182929487Y-98440802D01*
X182809198Y-98320513D01*
X182714687Y-98179068D01*
X182649587Y-98021903D01*
X182616400Y-97855057D01*
X182616400Y-97684943D01*
X182649587Y-97518097D01*
X182714687Y-97360932D01*
X182809198Y-97219487D01*
X182929487Y-97099198D01*
X183070932Y-97004687D01*
X183228097Y-96939587D01*
X183394943Y-96906400D01*
X183565057Y-96906400D01*
X183731903Y-96939587D01*
G37*
G36*
X148171903Y-96939587D02*
G01*
X148329068Y-97004687D01*
X148470513Y-97099198D01*
X148590802Y-97219487D01*
X148685313Y-97360932D01*
X148750413Y-97518097D01*
X148783600Y-97684943D01*
X148783600Y-97855057D01*
X148750413Y-98021903D01*
X148685313Y-98179068D01*
X148590802Y-98320513D01*
X148470513Y-98440802D01*
X148329068Y-98535313D01*
X148171903Y-98600413D01*
X148005057Y-98633600D01*
X147834943Y-98633600D01*
X147668097Y-98600413D01*
X147510932Y-98535313D01*
X147369487Y-98440802D01*
X147249198Y-98320513D01*
X147154687Y-98179068D01*
X147089587Y-98021903D01*
X147056400Y-97855057D01*
X147056400Y-97684943D01*
X147089587Y-97518097D01*
X147154687Y-97360932D01*
X147249198Y-97219487D01*
X147369487Y-97099198D01*
X147510932Y-97004687D01*
X147668097Y-96939587D01*
X147834943Y-96906400D01*
X148005057Y-96906400D01*
X148171903Y-96939587D01*
G37*
G36*
X189271400Y-98526600D02*
G01*
X186833000Y-98526600D01*
X186833000Y-97104200D01*
X189271400Y-97104200D01*
X189271400Y-98526600D01*
G37*
G36*
X195451600Y-97405600D02*
G01*
X193048400Y-97405600D01*
X193048400Y-93602400D01*
X195451600Y-93602400D01*
X195451600Y-97405600D01*
G37*
G36*
X189271400Y-96215200D02*
G01*
X186833000Y-96215200D01*
X186833000Y-94792800D01*
X189271400Y-94792800D01*
X189271400Y-96215200D01*
G37*
G36*
X183731903Y-94399587D02*
G01*
X183889068Y-94464687D01*
X184030513Y-94559198D01*
X184150802Y-94679487D01*
X184245313Y-94820932D01*
X184310413Y-94978097D01*
X184343600Y-95144943D01*
X184343600Y-95315057D01*
X184310413Y-95481903D01*
X184245313Y-95639068D01*
X184150802Y-95780513D01*
X184030513Y-95900802D01*
X183889068Y-95995313D01*
X183731903Y-96060413D01*
X183565057Y-96093600D01*
X183394943Y-96093600D01*
X183228097Y-96060413D01*
X183070932Y-95995313D01*
X182929487Y-95900802D01*
X182809198Y-95780513D01*
X182714687Y-95639068D01*
X182649587Y-95481903D01*
X182616400Y-95315057D01*
X182616400Y-95144943D01*
X182649587Y-94978097D01*
X182714687Y-94820932D01*
X182809198Y-94679487D01*
X182929487Y-94559198D01*
X183070932Y-94464687D01*
X183228097Y-94399587D01*
X183394943Y-94366400D01*
X183565057Y-94366400D01*
X183731903Y-94399587D01*
G37*
G36*
X176111903Y-94399587D02*
G01*
X176269068Y-94464687D01*
X176410513Y-94559198D01*
X176530802Y-94679487D01*
X176625313Y-94820932D01*
X176690413Y-94978097D01*
X176723600Y-95144943D01*
X176723600Y-95315057D01*
X176690413Y-95481903D01*
X176625313Y-95639068D01*
X176530802Y-95780513D01*
X176410513Y-95900802D01*
X176269068Y-95995313D01*
X176111903Y-96060413D01*
X175945057Y-96093600D01*
X175774943Y-96093600D01*
X175608097Y-96060413D01*
X175450932Y-95995313D01*
X175309487Y-95900802D01*
X175189198Y-95780513D01*
X175094687Y-95639068D01*
X175029587Y-95481903D01*
X174996400Y-95315057D01*
X174996400Y-95144943D01*
X175029587Y-94978097D01*
X175094687Y-94820932D01*
X175189198Y-94679487D01*
X175309487Y-94559198D01*
X175450932Y-94464687D01*
X175608097Y-94399587D01*
X175774943Y-94366400D01*
X175945057Y-94366400D01*
X176111903Y-94399587D01*
G37*
G36*
X181191903Y-94399587D02*
G01*
X181349068Y-94464687D01*
X181490513Y-94559198D01*
X181610802Y-94679487D01*
X181705313Y-94820932D01*
X181770413Y-94978097D01*
X181803600Y-95144943D01*
X181803600Y-95315057D01*
X181770413Y-95481903D01*
X181705313Y-95639068D01*
X181610802Y-95780513D01*
X181490513Y-95900802D01*
X181349068Y-95995313D01*
X181191903Y-96060413D01*
X181025057Y-96093600D01*
X180854943Y-96093600D01*
X180688097Y-96060413D01*
X180530932Y-95995313D01*
X180389487Y-95900802D01*
X180269198Y-95780513D01*
X180174687Y-95639068D01*
X180109587Y-95481903D01*
X180076400Y-95315057D01*
X180076400Y-95144943D01*
X180109587Y-94978097D01*
X180174687Y-94820932D01*
X180269198Y-94679487D01*
X180389487Y-94559198D01*
X180530932Y-94464687D01*
X180688097Y-94399587D01*
X180854943Y-94366400D01*
X181025057Y-94366400D01*
X181191903Y-94399587D01*
G37*
G36*
X127851903Y-94399587D02*
G01*
X128009068Y-94464687D01*
X128150513Y-94559198D01*
X128270802Y-94679487D01*
X128365313Y-94820932D01*
X128430413Y-94978097D01*
X128463600Y-95144943D01*
X128463600Y-95315057D01*
X128430413Y-95481903D01*
X128365313Y-95639068D01*
X128270802Y-95780513D01*
X128150513Y-95900802D01*
X128009068Y-95995313D01*
X127851903Y-96060413D01*
X127685057Y-96093600D01*
X127514943Y-96093600D01*
X127348097Y-96060413D01*
X127190932Y-95995313D01*
X127049487Y-95900802D01*
X126929198Y-95780513D01*
X126834687Y-95639068D01*
X126769587Y-95481903D01*
X126736400Y-95315057D01*
X126736400Y-95144943D01*
X126769587Y-94978097D01*
X126834687Y-94820932D01*
X126929198Y-94679487D01*
X127049487Y-94559198D01*
X127190932Y-94464687D01*
X127348097Y-94399587D01*
X127514943Y-94366400D01*
X127685057Y-94366400D01*
X127851903Y-94399587D01*
G37*
G36*
X125311903Y-94399587D02*
G01*
X125469068Y-94464687D01*
X125610513Y-94559198D01*
X125730802Y-94679487D01*
X125825313Y-94820932D01*
X125890413Y-94978097D01*
X125923600Y-95144943D01*
X125923600Y-95315057D01*
X125890413Y-95481903D01*
X125825313Y-95639068D01*
X125730802Y-95780513D01*
X125610513Y-95900802D01*
X125469068Y-95995313D01*
X125311903Y-96060413D01*
X125145057Y-96093600D01*
X124974943Y-96093600D01*
X124808097Y-96060413D01*
X124650932Y-95995313D01*
X124509487Y-95900802D01*
X124389198Y-95780513D01*
X124294687Y-95639068D01*
X124229587Y-95481903D01*
X124196400Y-95315057D01*
X124196400Y-95144943D01*
X124229587Y-94978097D01*
X124294687Y-94820932D01*
X124389198Y-94679487D01*
X124509487Y-94559198D01*
X124650932Y-94464687D01*
X124808097Y-94399587D01*
X124974943Y-94366400D01*
X125145057Y-94366400D01*
X125311903Y-94399587D01*
G37*
G36*
X158331903Y-94399587D02*
G01*
X158489068Y-94464687D01*
X158630513Y-94559198D01*
X158750802Y-94679487D01*
X158845313Y-94820932D01*
X158910413Y-94978097D01*
X158943600Y-95144943D01*
X158943600Y-95315057D01*
X158910413Y-95481903D01*
X158845313Y-95639068D01*
X158750802Y-95780513D01*
X158630513Y-95900802D01*
X158489068Y-95995313D01*
X158331903Y-96060413D01*
X158165057Y-96093600D01*
X157994943Y-96093600D01*
X157828097Y-96060413D01*
X157670932Y-95995313D01*
X157529487Y-95900802D01*
X157409198Y-95780513D01*
X157314687Y-95639068D01*
X157249587Y-95481903D01*
X157216400Y-95315057D01*
X157216400Y-95144943D01*
X157249587Y-94978097D01*
X157314687Y-94820932D01*
X157409198Y-94679487D01*
X157529487Y-94559198D01*
X157670932Y-94464687D01*
X157828097Y-94399587D01*
X157994943Y-94366400D01*
X158165057Y-94366400D01*
X158331903Y-94399587D01*
G37*
G36*
X163411903Y-94399587D02*
G01*
X163569068Y-94464687D01*
X163710513Y-94559198D01*
X163830802Y-94679487D01*
X163925313Y-94820932D01*
X163990413Y-94978097D01*
X164023600Y-95144943D01*
X164023600Y-95315057D01*
X163990413Y-95481903D01*
X163925313Y-95639068D01*
X163830802Y-95780513D01*
X163710513Y-95900802D01*
X163569068Y-95995313D01*
X163411903Y-96060413D01*
X163245057Y-96093600D01*
X163074943Y-96093600D01*
X162908097Y-96060413D01*
X162750932Y-95995313D01*
X162609487Y-95900802D01*
X162489198Y-95780513D01*
X162394687Y-95639068D01*
X162329587Y-95481903D01*
X162296400Y-95315057D01*
X162296400Y-95144943D01*
X162329587Y-94978097D01*
X162394687Y-94820932D01*
X162489198Y-94679487D01*
X162609487Y-94559198D01*
X162750932Y-94464687D01*
X162908097Y-94399587D01*
X163074943Y-94366400D01*
X163245057Y-94366400D01*
X163411903Y-94399587D01*
G37*
G36*
X155791903Y-94399587D02*
G01*
X155949068Y-94464687D01*
X156090513Y-94559198D01*
X156210802Y-94679487D01*
X156305313Y-94820932D01*
X156370413Y-94978097D01*
X156403600Y-95144943D01*
X156403600Y-95315057D01*
X156370413Y-95481903D01*
X156305313Y-95639068D01*
X156210802Y-95780513D01*
X156090513Y-95900802D01*
X155949068Y-95995313D01*
X155791903Y-96060413D01*
X155625057Y-96093600D01*
X155454943Y-96093600D01*
X155288097Y-96060413D01*
X155130932Y-95995313D01*
X154989487Y-95900802D01*
X154869198Y-95780513D01*
X154774687Y-95639068D01*
X154709587Y-95481903D01*
X154676400Y-95315057D01*
X154676400Y-95144943D01*
X154709587Y-94978097D01*
X154774687Y-94820932D01*
X154869198Y-94679487D01*
X154989487Y-94559198D01*
X155130932Y-94464687D01*
X155288097Y-94399587D01*
X155454943Y-94366400D01*
X155625057Y-94366400D01*
X155791903Y-94399587D01*
G37*
G36*
X153251903Y-94399587D02*
G01*
X153409068Y-94464687D01*
X153550513Y-94559198D01*
X153670802Y-94679487D01*
X153765313Y-94820932D01*
X153830413Y-94978097D01*
X153863600Y-95144943D01*
X153863600Y-95315057D01*
X153830413Y-95481903D01*
X153765313Y-95639068D01*
X153670802Y-95780513D01*
X153550513Y-95900802D01*
X153409068Y-95995313D01*
X153251903Y-96060413D01*
X153085057Y-96093600D01*
X152914943Y-96093600D01*
X152748097Y-96060413D01*
X152590932Y-95995313D01*
X152449487Y-95900802D01*
X152329198Y-95780513D01*
X152234687Y-95639068D01*
X152169587Y-95481903D01*
X152136400Y-95315057D01*
X152136400Y-95144943D01*
X152169587Y-94978097D01*
X152234687Y-94820932D01*
X152329198Y-94679487D01*
X152449487Y-94559198D01*
X152590932Y-94464687D01*
X152748097Y-94399587D01*
X152914943Y-94366400D01*
X153085057Y-94366400D01*
X153251903Y-94399587D01*
G37*
G36*
X165951903Y-94399587D02*
G01*
X166109068Y-94464687D01*
X166250513Y-94559198D01*
X166370802Y-94679487D01*
X166465313Y-94820932D01*
X166530413Y-94978097D01*
X166563600Y-95144943D01*
X166563600Y-95315057D01*
X166530413Y-95481903D01*
X166465313Y-95639068D01*
X166370802Y-95780513D01*
X166250513Y-95900802D01*
X166109068Y-95995313D01*
X165951903Y-96060413D01*
X165785057Y-96093600D01*
X165614943Y-96093600D01*
X165448097Y-96060413D01*
X165290932Y-95995313D01*
X165149487Y-95900802D01*
X165029198Y-95780513D01*
X164934687Y-95639068D01*
X164869587Y-95481903D01*
X164836400Y-95315057D01*
X164836400Y-95144943D01*
X164869587Y-94978097D01*
X164934687Y-94820932D01*
X165029198Y-94679487D01*
X165149487Y-94559198D01*
X165290932Y-94464687D01*
X165448097Y-94399587D01*
X165614943Y-94366400D01*
X165785057Y-94366400D01*
X165951903Y-94399587D01*
G37*
G36*
X150711903Y-94399587D02*
G01*
X150869068Y-94464687D01*
X151010513Y-94559198D01*
X151130802Y-94679487D01*
X151225313Y-94820932D01*
X151290413Y-94978097D01*
X151323600Y-95144943D01*
X151323600Y-95315057D01*
X151290413Y-95481903D01*
X151225313Y-95639068D01*
X151130802Y-95780513D01*
X151010513Y-95900802D01*
X150869068Y-95995313D01*
X150711903Y-96060413D01*
X150545057Y-96093600D01*
X150374943Y-96093600D01*
X150208097Y-96060413D01*
X150050932Y-95995313D01*
X149909487Y-95900802D01*
X149789198Y-95780513D01*
X149694687Y-95639068D01*
X149629587Y-95481903D01*
X149596400Y-95315057D01*
X149596400Y-95144943D01*
X149629587Y-94978097D01*
X149694687Y-94820932D01*
X149789198Y-94679487D01*
X149909487Y-94559198D01*
X150050932Y-94464687D01*
X150208097Y-94399587D01*
X150374943Y-94366400D01*
X150545057Y-94366400D01*
X150711903Y-94399587D01*
G37*
G36*
X148171903Y-94399587D02*
G01*
X148329068Y-94464687D01*
X148470513Y-94559198D01*
X148590802Y-94679487D01*
X148685313Y-94820932D01*
X148750413Y-94978097D01*
X148783600Y-95144943D01*
X148783600Y-95315057D01*
X148750413Y-95481903D01*
X148685313Y-95639068D01*
X148590802Y-95780513D01*
X148470513Y-95900802D01*
X148329068Y-95995313D01*
X148171903Y-96060413D01*
X148005057Y-96093600D01*
X147834943Y-96093600D01*
X147668097Y-96060413D01*
X147510932Y-95995313D01*
X147369487Y-95900802D01*
X147249198Y-95780513D01*
X147154687Y-95639068D01*
X147089587Y-95481903D01*
X147056400Y-95315057D01*
X147056400Y-95144943D01*
X147089587Y-94978097D01*
X147154687Y-94820932D01*
X147249198Y-94679487D01*
X147369487Y-94559198D01*
X147510932Y-94464687D01*
X147668097Y-94399587D01*
X147834943Y-94366400D01*
X148005057Y-94366400D01*
X148171903Y-94399587D01*
G37*
G36*
X168491903Y-94399587D02*
G01*
X168649068Y-94464687D01*
X168790513Y-94559198D01*
X168910802Y-94679487D01*
X169005313Y-94820932D01*
X169070413Y-94978097D01*
X169103600Y-95144943D01*
X169103600Y-95315057D01*
X169070413Y-95481903D01*
X169005313Y-95639068D01*
X168910802Y-95780513D01*
X168790513Y-95900802D01*
X168649068Y-95995313D01*
X168491903Y-96060413D01*
X168325057Y-96093600D01*
X168154943Y-96093600D01*
X167988097Y-96060413D01*
X167830932Y-95995313D01*
X167689487Y-95900802D01*
X167569198Y-95780513D01*
X167474687Y-95639068D01*
X167409587Y-95481903D01*
X167376400Y-95315057D01*
X167376400Y-95144943D01*
X167409587Y-94978097D01*
X167474687Y-94820932D01*
X167569198Y-94679487D01*
X167689487Y-94559198D01*
X167830932Y-94464687D01*
X167988097Y-94399587D01*
X168154943Y-94366400D01*
X168325057Y-94366400D01*
X168491903Y-94399587D01*
G37*
G36*
X130391903Y-94399587D02*
G01*
X130549068Y-94464687D01*
X130690513Y-94559198D01*
X130810802Y-94679487D01*
X130905313Y-94820932D01*
X130970413Y-94978097D01*
X131003600Y-95144943D01*
X131003600Y-95315057D01*
X130970413Y-95481903D01*
X130905313Y-95639068D01*
X130810802Y-95780513D01*
X130690513Y-95900802D01*
X130549068Y-95995313D01*
X130391903Y-96060413D01*
X130225057Y-96093600D01*
X130054943Y-96093600D01*
X129888097Y-96060413D01*
X129730932Y-95995313D01*
X129589487Y-95900802D01*
X129469198Y-95780513D01*
X129374687Y-95639068D01*
X129309587Y-95481903D01*
X129276400Y-95315057D01*
X129276400Y-95144943D01*
X129309587Y-94978097D01*
X129374687Y-94820932D01*
X129469198Y-94679487D01*
X129589487Y-94559198D01*
X129730932Y-94464687D01*
X129888097Y-94399587D01*
X130054943Y-94366400D01*
X130225057Y-94366400D01*
X130391903Y-94399587D01*
G37*
G36*
X160871903Y-94399587D02*
G01*
X161029068Y-94464687D01*
X161170513Y-94559198D01*
X161290802Y-94679487D01*
X161385313Y-94820932D01*
X161450413Y-94978097D01*
X161483600Y-95144943D01*
X161483600Y-95315057D01*
X161450413Y-95481903D01*
X161385313Y-95639068D01*
X161290802Y-95780513D01*
X161170513Y-95900802D01*
X161029068Y-95995313D01*
X160871903Y-96060413D01*
X160705057Y-96093600D01*
X160534943Y-96093600D01*
X160368097Y-96060413D01*
X160210932Y-95995313D01*
X160069487Y-95900802D01*
X159949198Y-95780513D01*
X159854687Y-95639068D01*
X159789587Y-95481903D01*
X159756400Y-95315057D01*
X159756400Y-95144943D01*
X159789587Y-94978097D01*
X159854687Y-94820932D01*
X159949198Y-94679487D01*
X160069487Y-94559198D01*
X160210932Y-94464687D01*
X160368097Y-94399587D01*
X160534943Y-94366400D01*
X160705057Y-94366400D01*
X160871903Y-94399587D01*
G37*
G36*
X132931903Y-94399587D02*
G01*
X133089068Y-94464687D01*
X133230513Y-94559198D01*
X133350802Y-94679487D01*
X133445313Y-94820932D01*
X133510413Y-94978097D01*
X133543600Y-95144943D01*
X133543600Y-95315057D01*
X133510413Y-95481903D01*
X133445313Y-95639068D01*
X133350802Y-95780513D01*
X133230513Y-95900802D01*
X133089068Y-95995313D01*
X132931903Y-96060413D01*
X132765057Y-96093600D01*
X132594943Y-96093600D01*
X132428097Y-96060413D01*
X132270932Y-95995313D01*
X132129487Y-95900802D01*
X132009198Y-95780513D01*
X131914687Y-95639068D01*
X131849587Y-95481903D01*
X131816400Y-95315057D01*
X131816400Y-95144943D01*
X131849587Y-94978097D01*
X131914687Y-94820932D01*
X132009198Y-94679487D01*
X132129487Y-94559198D01*
X132270932Y-94464687D01*
X132428097Y-94399587D01*
X132594943Y-94366400D01*
X132765057Y-94366400D01*
X132931903Y-94399587D01*
G37*
G36*
X173571903Y-94399587D02*
G01*
X173729068Y-94464687D01*
X173870513Y-94559198D01*
X173990802Y-94679487D01*
X174085313Y-94820932D01*
X174150413Y-94978097D01*
X174183600Y-95144943D01*
X174183600Y-95315057D01*
X174150413Y-95481903D01*
X174085313Y-95639068D01*
X173990802Y-95780513D01*
X173870513Y-95900802D01*
X173729068Y-95995313D01*
X173571903Y-96060413D01*
X173405057Y-96093600D01*
X173234943Y-96093600D01*
X173068097Y-96060413D01*
X172910932Y-95995313D01*
X172769487Y-95900802D01*
X172649198Y-95780513D01*
X172554687Y-95639068D01*
X172489587Y-95481903D01*
X172456400Y-95315057D01*
X172456400Y-95144943D01*
X172489587Y-94978097D01*
X172554687Y-94820932D01*
X172649198Y-94679487D01*
X172769487Y-94559198D01*
X172910932Y-94464687D01*
X173068097Y-94399587D01*
X173234943Y-94366400D01*
X173405057Y-94366400D01*
X173571903Y-94399587D01*
G37*
G36*
X135471903Y-94399587D02*
G01*
X135629068Y-94464687D01*
X135770513Y-94559198D01*
X135890802Y-94679487D01*
X135985313Y-94820932D01*
X136050413Y-94978097D01*
X136083600Y-95144943D01*
X136083600Y-95315057D01*
X136050413Y-95481903D01*
X135985313Y-95639068D01*
X135890802Y-95780513D01*
X135770513Y-95900802D01*
X135629068Y-95995313D01*
X135471903Y-96060413D01*
X135305057Y-96093600D01*
X135134943Y-96093600D01*
X134968097Y-96060413D01*
X134810932Y-95995313D01*
X134669487Y-95900802D01*
X134549198Y-95780513D01*
X134454687Y-95639068D01*
X134389587Y-95481903D01*
X134356400Y-95315057D01*
X134356400Y-95144943D01*
X134389587Y-94978097D01*
X134454687Y-94820932D01*
X134549198Y-94679487D01*
X134669487Y-94559198D01*
X134810932Y-94464687D01*
X134968097Y-94399587D01*
X135134943Y-94366400D01*
X135305057Y-94366400D01*
X135471903Y-94399587D01*
G37*
G36*
X178651903Y-94399587D02*
G01*
X178809068Y-94464687D01*
X178950513Y-94559198D01*
X179070802Y-94679487D01*
X179165313Y-94820932D01*
X179230413Y-94978097D01*
X179263600Y-95144943D01*
X179263600Y-95315057D01*
X179230413Y-95481903D01*
X179165313Y-95639068D01*
X179070802Y-95780513D01*
X178950513Y-95900802D01*
X178809068Y-95995313D01*
X178651903Y-96060413D01*
X178485057Y-96093600D01*
X178314943Y-96093600D01*
X178148097Y-96060413D01*
X177990932Y-95995313D01*
X177849487Y-95900802D01*
X177729198Y-95780513D01*
X177634687Y-95639068D01*
X177569587Y-95481903D01*
X177536400Y-95315057D01*
X177536400Y-95144943D01*
X177569587Y-94978097D01*
X177634687Y-94820932D01*
X177729198Y-94679487D01*
X177849487Y-94559198D01*
X177990932Y-94464687D01*
X178148097Y-94399587D01*
X178314943Y-94366400D01*
X178485057Y-94366400D01*
X178651903Y-94399587D01*
G37*
G36*
X138011903Y-94399587D02*
G01*
X138169068Y-94464687D01*
X138310513Y-94559198D01*
X138430802Y-94679487D01*
X138525313Y-94820932D01*
X138590413Y-94978097D01*
X138623600Y-95144943D01*
X138623600Y-95315057D01*
X138590413Y-95481903D01*
X138525313Y-95639068D01*
X138430802Y-95780513D01*
X138310513Y-95900802D01*
X138169068Y-95995313D01*
X138011903Y-96060413D01*
X137845057Y-96093600D01*
X137674943Y-96093600D01*
X137508097Y-96060413D01*
X137350932Y-95995313D01*
X137209487Y-95900802D01*
X137089198Y-95780513D01*
X136994687Y-95639068D01*
X136929587Y-95481903D01*
X136896400Y-95315057D01*
X136896400Y-95144943D01*
X136929587Y-94978097D01*
X136994687Y-94820932D01*
X137089198Y-94679487D01*
X137209487Y-94559198D01*
X137350932Y-94464687D01*
X137508097Y-94399587D01*
X137674943Y-94366400D01*
X137845057Y-94366400D01*
X138011903Y-94399587D01*
G37*
G36*
X171031903Y-94399587D02*
G01*
X171189068Y-94464687D01*
X171330513Y-94559198D01*
X171450802Y-94679487D01*
X171545313Y-94820932D01*
X171610413Y-94978097D01*
X171643600Y-95144943D01*
X171643600Y-95315057D01*
X171610413Y-95481903D01*
X171545313Y-95639068D01*
X171450802Y-95780513D01*
X171330513Y-95900802D01*
X171189068Y-95995313D01*
X171031903Y-96060413D01*
X170865057Y-96093600D01*
X170694943Y-96093600D01*
X170528097Y-96060413D01*
X170370932Y-95995313D01*
X170229487Y-95900802D01*
X170109198Y-95780513D01*
X170014687Y-95639068D01*
X169949587Y-95481903D01*
X169916400Y-95315057D01*
X169916400Y-95144943D01*
X169949587Y-94978097D01*
X170014687Y-94820932D01*
X170109198Y-94679487D01*
X170229487Y-94559198D01*
X170370932Y-94464687D01*
X170528097Y-94399587D01*
X170694943Y-94366400D01*
X170865057Y-94366400D01*
X171031903Y-94399587D01*
G37*
G36*
X140551903Y-94399587D02*
G01*
X140709068Y-94464687D01*
X140850513Y-94559198D01*
X140970802Y-94679487D01*
X141065313Y-94820932D01*
X141130413Y-94978097D01*
X141163600Y-95144943D01*
X141163600Y-95315057D01*
X141130413Y-95481903D01*
X141065313Y-95639068D01*
X140970802Y-95780513D01*
X140850513Y-95900802D01*
X140709068Y-95995313D01*
X140551903Y-96060413D01*
X140385057Y-96093600D01*
X140214943Y-96093600D01*
X140048097Y-96060413D01*
X139890932Y-95995313D01*
X139749487Y-95900802D01*
X139629198Y-95780513D01*
X139534687Y-95639068D01*
X139469587Y-95481903D01*
X139436400Y-95315057D01*
X139436400Y-95144943D01*
X139469587Y-94978097D01*
X139534687Y-94820932D01*
X139629198Y-94679487D01*
X139749487Y-94559198D01*
X139890932Y-94464687D01*
X140048097Y-94399587D01*
X140214943Y-94366400D01*
X140385057Y-94366400D01*
X140551903Y-94399587D01*
G37*
G36*
X143091903Y-94399587D02*
G01*
X143249068Y-94464687D01*
X143390513Y-94559198D01*
X143510802Y-94679487D01*
X143605313Y-94820932D01*
X143670413Y-94978097D01*
X143703600Y-95144943D01*
X143703600Y-95315057D01*
X143670413Y-95481903D01*
X143605313Y-95639068D01*
X143510802Y-95780513D01*
X143390513Y-95900802D01*
X143249068Y-95995313D01*
X143091903Y-96060413D01*
X142925057Y-96093600D01*
X142754943Y-96093600D01*
X142588097Y-96060413D01*
X142430932Y-95995313D01*
X142289487Y-95900802D01*
X142169198Y-95780513D01*
X142074687Y-95639068D01*
X142009587Y-95481903D01*
X141976400Y-95315057D01*
X141976400Y-95144943D01*
X142009587Y-94978097D01*
X142074687Y-94820932D01*
X142169198Y-94679487D01*
X142289487Y-94559198D01*
X142430932Y-94464687D01*
X142588097Y-94399587D01*
X142754943Y-94366400D01*
X142925057Y-94366400D01*
X143091903Y-94399587D01*
G37*
G36*
X145631903Y-94399587D02*
G01*
X145789068Y-94464687D01*
X145930513Y-94559198D01*
X146050802Y-94679487D01*
X146145313Y-94820932D01*
X146210413Y-94978097D01*
X146243600Y-95144943D01*
X146243600Y-95315057D01*
X146210413Y-95481903D01*
X146145313Y-95639068D01*
X146050802Y-95780513D01*
X145930513Y-95900802D01*
X145789068Y-95995313D01*
X145631903Y-96060413D01*
X145465057Y-96093600D01*
X145294943Y-96093600D01*
X145128097Y-96060413D01*
X144970932Y-95995313D01*
X144829487Y-95900802D01*
X144709198Y-95780513D01*
X144614687Y-95639068D01*
X144549587Y-95481903D01*
X144516400Y-95315057D01*
X144516400Y-95144943D01*
X144549587Y-94978097D01*
X144614687Y-94820932D01*
X144709198Y-94679487D01*
X144829487Y-94559198D01*
X144970932Y-94464687D01*
X145128097Y-94399587D01*
X145294943Y-94366400D01*
X145465057Y-94366400D01*
X145631903Y-94399587D01*
G37*
G36*
X189271400Y-93903800D02*
G01*
X186833000Y-93903800D01*
X186833000Y-92481400D01*
X189271400Y-92481400D01*
X189271400Y-93903800D01*
G37*
G36*
X143730600Y-92676600D02*
G01*
X142019400Y-92676600D01*
X142019400Y-90965400D01*
X143730600Y-90965400D01*
X143730600Y-92676600D01*
G37*
G36*
X202598254Y-86927818D02*
G01*
X202971511Y-87082426D01*
X202971513Y-87082427D01*
X203067074Y-87146279D01*
X203307436Y-87306884D01*
X203593116Y-87592564D01*
X203817574Y-87928489D01*
X203972182Y-88301746D01*
X204051000Y-88697993D01*
X204051000Y-89102007D01*
X203972182Y-89498254D01*
X203836254Y-89826413D01*
X203817573Y-89871513D01*
X203593116Y-90207436D01*
X203307436Y-90493116D01*
X202971513Y-90717573D01*
X202971512Y-90717574D01*
X202971511Y-90717574D01*
X202598254Y-90872182D01*
X202202007Y-90951000D01*
X201797993Y-90951000D01*
X201401746Y-90872182D01*
X201028489Y-90717574D01*
X201028488Y-90717574D01*
X201028487Y-90717573D01*
X200692564Y-90493116D01*
X200406884Y-90207436D01*
X200182427Y-89871513D01*
X200163746Y-89826413D01*
X200027818Y-89498254D01*
X199949000Y-89102007D01*
X199949000Y-88697993D01*
X200027818Y-88301746D01*
X200182426Y-87928489D01*
X200406884Y-87592564D01*
X200692564Y-87306884D01*
X200932926Y-87146279D01*
X201028487Y-87082427D01*
X201028489Y-87082426D01*
X201401746Y-86927818D01*
X201797993Y-86849000D01*
X202202007Y-86849000D01*
X202598254Y-86927818D01*
G37*
G36*
X143124569Y-88458280D02*
G01*
X143280278Y-88522776D01*
X143420413Y-88616412D01*
X143539588Y-88735587D01*
X143633224Y-88875722D01*
X143697720Y-89031431D01*
X143730600Y-89196729D01*
X143730600Y-89365271D01*
X143697720Y-89530569D01*
X143633224Y-89686278D01*
X143539588Y-89826413D01*
X143420413Y-89945588D01*
X143280278Y-90039224D01*
X143124569Y-90103720D01*
X142959271Y-90136600D01*
X142790729Y-90136600D01*
X142625431Y-90103720D01*
X142469722Y-90039224D01*
X142329587Y-89945588D01*
X142210412Y-89826413D01*
X142116776Y-89686278D01*
X142052280Y-89530569D01*
X142019400Y-89365271D01*
X142019400Y-89196729D01*
X142052280Y-89031431D01*
X142116776Y-88875722D01*
X142210412Y-88735587D01*
X142329587Y-88616412D01*
X142469722Y-88522776D01*
X142625431Y-88458280D01*
X142790729Y-88425400D01*
X142959271Y-88425400D01*
X143124569Y-88458280D01*
G37*
G36*
X189271400Y-89301026D02*
G01*
X186833000Y-89301026D01*
X186833000Y-87878626D01*
X189271400Y-87878626D01*
X189271400Y-89301026D01*
G37*
G36*
X195451600Y-88180026D02*
G01*
X193048400Y-88180026D01*
X193048400Y-84376826D01*
X195451600Y-84376826D01*
X195451600Y-88180026D01*
G37*
G36*
X143124569Y-85918280D02*
G01*
X143280278Y-85982776D01*
X143420413Y-86076412D01*
X143539588Y-86195587D01*
X143633224Y-86335722D01*
X143697720Y-86491431D01*
X143730600Y-86656729D01*
X143730600Y-86825271D01*
X143697720Y-86990569D01*
X143633224Y-87146278D01*
X143539588Y-87286413D01*
X143420413Y-87405588D01*
X143280278Y-87499224D01*
X143124569Y-87563720D01*
X142959271Y-87596600D01*
X142790729Y-87596600D01*
X142625431Y-87563720D01*
X142469722Y-87499224D01*
X142329587Y-87405588D01*
X142210412Y-87286413D01*
X142116776Y-87146278D01*
X142052280Y-86990569D01*
X142019400Y-86825271D01*
X142019400Y-86656729D01*
X142052280Y-86491431D01*
X142116776Y-86335722D01*
X142210412Y-86195587D01*
X142329587Y-86076412D01*
X142469722Y-85982776D01*
X142625431Y-85918280D01*
X142790729Y-85885400D01*
X142959271Y-85885400D01*
X143124569Y-85918280D01*
G37*
G36*
X189271400Y-86989626D02*
G01*
X186833000Y-86989626D01*
X186833000Y-85567226D01*
X189271400Y-85567226D01*
X189271400Y-86989626D01*
G37*
G36*
X198374549Y-83671116D02*
G01*
X198485734Y-83693232D01*
X198695203Y-83779997D01*
X198883720Y-83905960D01*
X199044040Y-84066280D01*
X199170003Y-84254797D01*
X199256768Y-84464266D01*
X199301000Y-84686636D01*
X199301000Y-84913364D01*
X199256768Y-85135734D01*
X199170003Y-85345203D01*
X199044040Y-85533720D01*
X198883720Y-85694040D01*
X198695203Y-85820003D01*
X198485734Y-85906768D01*
X198427859Y-85918280D01*
X198263365Y-85951000D01*
X198036635Y-85951000D01*
X197872141Y-85918280D01*
X197814266Y-85906768D01*
X197604797Y-85820003D01*
X197416280Y-85694040D01*
X197255960Y-85533720D01*
X197129997Y-85345203D01*
X197043232Y-85135734D01*
X196999000Y-84913364D01*
X196999000Y-84686636D01*
X197043232Y-84464266D01*
X197129997Y-84254797D01*
X197255960Y-84066280D01*
X197416280Y-83905960D01*
X197604797Y-83779997D01*
X197814266Y-83693232D01*
X197925451Y-83671116D01*
X198036635Y-83649000D01*
X198263365Y-83649000D01*
X198374549Y-83671116D01*
G37*
G36*
X143124569Y-83378280D02*
G01*
X143280278Y-83442776D01*
X143420413Y-83536412D01*
X143539588Y-83655587D01*
X143633224Y-83795722D01*
X143697720Y-83951431D01*
X143730600Y-84116729D01*
X143730600Y-84285271D01*
X143697720Y-84450569D01*
X143633224Y-84606278D01*
X143539588Y-84746413D01*
X143420413Y-84865588D01*
X143280278Y-84959224D01*
X143124569Y-85023720D01*
X142959271Y-85056600D01*
X142790729Y-85056600D01*
X142625431Y-85023720D01*
X142469722Y-84959224D01*
X142329587Y-84865588D01*
X142210412Y-84746413D01*
X142116776Y-84606278D01*
X142052280Y-84450569D01*
X142019400Y-84285271D01*
X142019400Y-84116729D01*
X142052280Y-83951431D01*
X142116776Y-83795722D01*
X142210412Y-83655587D01*
X142329587Y-83536412D01*
X142469722Y-83442776D01*
X142625431Y-83378280D01*
X142790729Y-83345400D01*
X142959271Y-83345400D01*
X143124569Y-83378280D01*
G37*
G36*
X189271400Y-84678226D02*
G01*
X186833000Y-84678226D01*
X186833000Y-83255826D01*
X189271400Y-83255826D01*
X189271400Y-84678226D01*
G37*
G36*
X143124569Y-80838280D02*
G01*
X143280278Y-80902776D01*
X143420413Y-80996412D01*
X143539588Y-81115587D01*
X143633224Y-81255722D01*
X143697720Y-81411431D01*
X143730600Y-81576729D01*
X143730600Y-81745271D01*
X143697720Y-81910569D01*
X143633224Y-82066278D01*
X143539588Y-82206413D01*
X143420413Y-82325588D01*
X143280278Y-82419224D01*
X143124569Y-82483720D01*
X142959271Y-82516600D01*
X142790729Y-82516600D01*
X142625431Y-82483720D01*
X142469722Y-82419224D01*
X142329587Y-82325588D01*
X142210412Y-82206413D01*
X142116776Y-82066278D01*
X142052280Y-81910569D01*
X142019400Y-81745271D01*
X142019400Y-81576729D01*
X142052280Y-81411431D01*
X142116776Y-81255722D01*
X142210412Y-81115587D01*
X142329587Y-80996412D01*
X142469722Y-80902776D01*
X142625431Y-80838280D01*
X142790729Y-80805400D01*
X142959271Y-80805400D01*
X143124569Y-80838280D01*
G37*
G36*
X189271400Y-80075455D02*
G01*
X186833000Y-80075455D01*
X186833000Y-78653055D01*
X189271400Y-78653055D01*
X189271400Y-80075455D01*
G37*
G36*
X143124569Y-78298280D02*
G01*
X143280278Y-78362776D01*
X143420413Y-78456412D01*
X143539588Y-78575587D01*
X143633224Y-78715722D01*
X143697720Y-78871431D01*
X143730600Y-79036729D01*
X143730600Y-79205271D01*
X143697720Y-79370569D01*
X143633224Y-79526278D01*
X143539588Y-79666413D01*
X143420413Y-79785588D01*
X143280278Y-79879224D01*
X143124569Y-79943720D01*
X142959271Y-79976600D01*
X142790729Y-79976600D01*
X142625431Y-79943720D01*
X142469722Y-79879224D01*
X142329587Y-79785588D01*
X142210412Y-79666413D01*
X142116776Y-79526278D01*
X142052280Y-79370569D01*
X142019400Y-79205271D01*
X142019400Y-79036729D01*
X142052280Y-78871431D01*
X142116776Y-78715722D01*
X142210412Y-78575587D01*
X142329587Y-78456412D01*
X142469722Y-78362776D01*
X142625431Y-78298280D01*
X142790729Y-78265400D01*
X142959271Y-78265400D01*
X143124569Y-78298280D01*
G37*
G36*
X199438228Y-77531703D02*
G01*
X199593100Y-77595853D01*
X199732481Y-77688985D01*
X199851015Y-77807519D01*
X199944147Y-77946900D01*
X200008297Y-78101772D01*
X200041000Y-78266184D01*
X200041000Y-78433816D01*
X200008297Y-78598228D01*
X199944147Y-78753100D01*
X199851015Y-78892481D01*
X199732481Y-79011015D01*
X199593100Y-79104147D01*
X199438228Y-79168297D01*
X199273816Y-79201000D01*
X199106184Y-79201000D01*
X198941772Y-79168297D01*
X198786900Y-79104147D01*
X198647519Y-79011015D01*
X198528985Y-78892481D01*
X198435853Y-78753100D01*
X198371703Y-78598228D01*
X198339000Y-78433816D01*
X198339000Y-78266184D01*
X198371703Y-78101772D01*
X198435853Y-77946900D01*
X198528985Y-77807519D01*
X198647519Y-77688985D01*
X198786900Y-77595853D01*
X198941772Y-77531703D01*
X199106184Y-77499000D01*
X199273816Y-77499000D01*
X199438228Y-77531703D01*
G37*
G36*
X207058228Y-77531703D02*
G01*
X207213100Y-77595853D01*
X207352481Y-77688985D01*
X207471015Y-77807519D01*
X207564147Y-77946900D01*
X207628297Y-78101772D01*
X207661000Y-78266184D01*
X207661000Y-78433816D01*
X207628297Y-78598228D01*
X207564147Y-78753100D01*
X207471015Y-78892481D01*
X207352481Y-79011015D01*
X207213100Y-79104147D01*
X207058228Y-79168297D01*
X206893816Y-79201000D01*
X206726184Y-79201000D01*
X206561772Y-79168297D01*
X206406900Y-79104147D01*
X206267519Y-79011015D01*
X206148985Y-78892481D01*
X206055853Y-78753100D01*
X205991703Y-78598228D01*
X205959000Y-78433816D01*
X205959000Y-78266184D01*
X205991703Y-78101772D01*
X206055853Y-77946900D01*
X206148985Y-77807519D01*
X206267519Y-77688985D01*
X206406900Y-77595853D01*
X206561772Y-77531703D01*
X206726184Y-77499000D01*
X206893816Y-77499000D01*
X207058228Y-77531703D01*
G37*
G36*
X204518228Y-77531703D02*
G01*
X204673100Y-77595853D01*
X204812481Y-77688985D01*
X204931015Y-77807519D01*
X205024147Y-77946900D01*
X205088297Y-78101772D01*
X205121000Y-78266184D01*
X205121000Y-78433816D01*
X205088297Y-78598228D01*
X205024147Y-78753100D01*
X204931015Y-78892481D01*
X204812481Y-79011015D01*
X204673100Y-79104147D01*
X204518228Y-79168297D01*
X204353816Y-79201000D01*
X204186184Y-79201000D01*
X204021772Y-79168297D01*
X203866900Y-79104147D01*
X203727519Y-79011015D01*
X203608985Y-78892481D01*
X203515853Y-78753100D01*
X203451703Y-78598228D01*
X203419000Y-78433816D01*
X203419000Y-78266184D01*
X203451703Y-78101772D01*
X203515853Y-77946900D01*
X203608985Y-77807519D01*
X203727519Y-77688985D01*
X203866900Y-77595853D01*
X204021772Y-77531703D01*
X204186184Y-77499000D01*
X204353816Y-77499000D01*
X204518228Y-77531703D01*
G37*
G36*
X201978228Y-77531703D02*
G01*
X202133100Y-77595853D01*
X202272481Y-77688985D01*
X202391015Y-77807519D01*
X202484147Y-77946900D01*
X202548297Y-78101772D01*
X202581000Y-78266184D01*
X202581000Y-78433816D01*
X202548297Y-78598228D01*
X202484147Y-78753100D01*
X202391015Y-78892481D01*
X202272481Y-79011015D01*
X202133100Y-79104147D01*
X201978228Y-79168297D01*
X201813816Y-79201000D01*
X201646184Y-79201000D01*
X201481772Y-79168297D01*
X201326900Y-79104147D01*
X201187519Y-79011015D01*
X201068985Y-78892481D01*
X200975853Y-78753100D01*
X200911703Y-78598228D01*
X200879000Y-78433816D01*
X200879000Y-78266184D01*
X200911703Y-78101772D01*
X200975853Y-77946900D01*
X201068985Y-77807519D01*
X201187519Y-77688985D01*
X201326900Y-77595853D01*
X201481772Y-77531703D01*
X201646184Y-77499000D01*
X201813816Y-77499000D01*
X201978228Y-77531703D01*
G37*
G36*
X195451600Y-78954455D02*
G01*
X193048400Y-78954455D01*
X193048400Y-75151255D01*
X195451600Y-75151255D01*
X195451600Y-78954455D01*
G37*
G36*
X189271400Y-77764055D02*
G01*
X186833000Y-77764055D01*
X186833000Y-76341655D01*
X189271400Y-76341655D01*
X189271400Y-77764055D01*
G37*
G36*
X201978228Y-74991703D02*
G01*
X202133100Y-75055853D01*
X202272481Y-75148985D01*
X202391015Y-75267519D01*
X202484147Y-75406900D01*
X202548297Y-75561772D01*
X202581000Y-75726184D01*
X202581000Y-75893816D01*
X202548297Y-76058228D01*
X202484147Y-76213100D01*
X202391015Y-76352481D01*
X202272481Y-76471015D01*
X202133100Y-76564147D01*
X201978228Y-76628297D01*
X201813816Y-76661000D01*
X201646184Y-76661000D01*
X201481772Y-76628297D01*
X201326900Y-76564147D01*
X201187519Y-76471015D01*
X201068985Y-76352481D01*
X200975853Y-76213100D01*
X200911703Y-76058228D01*
X200879000Y-75893816D01*
X200879000Y-75726184D01*
X200911703Y-75561772D01*
X200975853Y-75406900D01*
X201068985Y-75267519D01*
X201187519Y-75148985D01*
X201326900Y-75055853D01*
X201481772Y-74991703D01*
X201646184Y-74959000D01*
X201813816Y-74959000D01*
X201978228Y-74991703D01*
G37*
G36*
X199438228Y-74991703D02*
G01*
X199593100Y-75055853D01*
X199732481Y-75148985D01*
X199851015Y-75267519D01*
X199944147Y-75406900D01*
X200008297Y-75561772D01*
X200041000Y-75726184D01*
X200041000Y-75893816D01*
X200008297Y-76058228D01*
X199944147Y-76213100D01*
X199851015Y-76352481D01*
X199732481Y-76471015D01*
X199593100Y-76564147D01*
X199438228Y-76628297D01*
X199273816Y-76661000D01*
X199106184Y-76661000D01*
X198941772Y-76628297D01*
X198786900Y-76564147D01*
X198647519Y-76471015D01*
X198528985Y-76352481D01*
X198435853Y-76213100D01*
X198371703Y-76058228D01*
X198339000Y-75893816D01*
X198339000Y-75726184D01*
X198371703Y-75561772D01*
X198435853Y-75406900D01*
X198528985Y-75267519D01*
X198647519Y-75148985D01*
X198786900Y-75055853D01*
X198941772Y-74991703D01*
X199106184Y-74959000D01*
X199273816Y-74959000D01*
X199438228Y-74991703D01*
G37*
G36*
X207058228Y-74991703D02*
G01*
X207213100Y-75055853D01*
X207352481Y-75148985D01*
X207471015Y-75267519D01*
X207564147Y-75406900D01*
X207628297Y-75561772D01*
X207661000Y-75726184D01*
X207661000Y-75893816D01*
X207628297Y-76058228D01*
X207564147Y-76213100D01*
X207471015Y-76352481D01*
X207352481Y-76471015D01*
X207213100Y-76564147D01*
X207058228Y-76628297D01*
X206893816Y-76661000D01*
X206726184Y-76661000D01*
X206561772Y-76628297D01*
X206406900Y-76564147D01*
X206267519Y-76471015D01*
X206148985Y-76352481D01*
X206055853Y-76213100D01*
X205991703Y-76058228D01*
X205959000Y-75893816D01*
X205959000Y-75726184D01*
X205991703Y-75561772D01*
X206055853Y-75406900D01*
X206148985Y-75267519D01*
X206267519Y-75148985D01*
X206406900Y-75055853D01*
X206561772Y-74991703D01*
X206726184Y-74959000D01*
X206893816Y-74959000D01*
X207058228Y-74991703D01*
G37*
G36*
X204518228Y-74991703D02*
G01*
X204673100Y-75055853D01*
X204812481Y-75148985D01*
X204931015Y-75267519D01*
X205024147Y-75406900D01*
X205088297Y-75561772D01*
X205121000Y-75726184D01*
X205121000Y-75893816D01*
X205088297Y-76058228D01*
X205024147Y-76213100D01*
X204931015Y-76352481D01*
X204812481Y-76471015D01*
X204673100Y-76564147D01*
X204518228Y-76628297D01*
X204353816Y-76661000D01*
X204186184Y-76661000D01*
X204021772Y-76628297D01*
X203866900Y-76564147D01*
X203727519Y-76471015D01*
X203608985Y-76352481D01*
X203515853Y-76213100D01*
X203451703Y-76058228D01*
X203419000Y-75893816D01*
X203419000Y-75726184D01*
X203451703Y-75561772D01*
X203515853Y-75406900D01*
X203608985Y-75267519D01*
X203727519Y-75148985D01*
X203866900Y-75055853D01*
X204021772Y-74991703D01*
X204186184Y-74959000D01*
X204353816Y-74959000D01*
X204518228Y-74991703D01*
G37*
G36*
X189271400Y-75452655D02*
G01*
X186833000Y-75452655D01*
X186833000Y-74030255D01*
X189271400Y-74030255D01*
X189271400Y-75452655D01*
G37*
G36*
X204518228Y-72451703D02*
G01*
X204673100Y-72515853D01*
X204812481Y-72608985D01*
X204931015Y-72727519D01*
X205024147Y-72866900D01*
X205088297Y-73021772D01*
X205121000Y-73186184D01*
X205121000Y-73353816D01*
X205088297Y-73518228D01*
X205024147Y-73673100D01*
X204931015Y-73812481D01*
X204812481Y-73931015D01*
X204673100Y-74024147D01*
X204518228Y-74088297D01*
X204353816Y-74121000D01*
X204186184Y-74121000D01*
X204021772Y-74088297D01*
X203866900Y-74024147D01*
X203727519Y-73931015D01*
X203608985Y-73812481D01*
X203515853Y-73673100D01*
X203451703Y-73518228D01*
X203419000Y-73353816D01*
X203419000Y-73186184D01*
X203451703Y-73021772D01*
X203515853Y-72866900D01*
X203608985Y-72727519D01*
X203727519Y-72608985D01*
X203866900Y-72515853D01*
X204021772Y-72451703D01*
X204186184Y-72419000D01*
X204353816Y-72419000D01*
X204518228Y-72451703D01*
G37*
G36*
X201978228Y-72451703D02*
G01*
X202133100Y-72515853D01*
X202272481Y-72608985D01*
X202391015Y-72727519D01*
X202484147Y-72866900D01*
X202548297Y-73021772D01*
X202581000Y-73186184D01*
X202581000Y-73353816D01*
X202548297Y-73518228D01*
X202484147Y-73673100D01*
X202391015Y-73812481D01*
X202272481Y-73931015D01*
X202133100Y-74024147D01*
X201978228Y-74088297D01*
X201813816Y-74121000D01*
X201646184Y-74121000D01*
X201481772Y-74088297D01*
X201326900Y-74024147D01*
X201187519Y-73931015D01*
X201068985Y-73812481D01*
X200975853Y-73673100D01*
X200911703Y-73518228D01*
X200879000Y-73353816D01*
X200879000Y-73186184D01*
X200911703Y-73021772D01*
X200975853Y-72866900D01*
X201068985Y-72727519D01*
X201187519Y-72608985D01*
X201326900Y-72515853D01*
X201481772Y-72451703D01*
X201646184Y-72419000D01*
X201813816Y-72419000D01*
X201978228Y-72451703D01*
G37*
G36*
X199438228Y-72451703D02*
G01*
X199593100Y-72515853D01*
X199732481Y-72608985D01*
X199851015Y-72727519D01*
X199944147Y-72866900D01*
X200008297Y-73021772D01*
X200041000Y-73186184D01*
X200041000Y-73353816D01*
X200008297Y-73518228D01*
X199944147Y-73673100D01*
X199851015Y-73812481D01*
X199732481Y-73931015D01*
X199593100Y-74024147D01*
X199438228Y-74088297D01*
X199273816Y-74121000D01*
X199106184Y-74121000D01*
X198941772Y-74088297D01*
X198786900Y-74024147D01*
X198647519Y-73931015D01*
X198528985Y-73812481D01*
X198435853Y-73673100D01*
X198371703Y-73518228D01*
X198339000Y-73353816D01*
X198339000Y-73186184D01*
X198371703Y-73021772D01*
X198435853Y-72866900D01*
X198528985Y-72727519D01*
X198647519Y-72608985D01*
X198786900Y-72515853D01*
X198941772Y-72451703D01*
X199106184Y-72419000D01*
X199273816Y-72419000D01*
X199438228Y-72451703D01*
G37*
G36*
X207058228Y-72451703D02*
G01*
X207213100Y-72515853D01*
X207352481Y-72608985D01*
X207471015Y-72727519D01*
X207564147Y-72866900D01*
X207628297Y-73021772D01*
X207661000Y-73186184D01*
X207661000Y-73353816D01*
X207628297Y-73518228D01*
X207564147Y-73673100D01*
X207471015Y-73812481D01*
X207352481Y-73931015D01*
X207213100Y-74024147D01*
X207058228Y-74088297D01*
X206893816Y-74121000D01*
X206726184Y-74121000D01*
X206561772Y-74088297D01*
X206406900Y-74024147D01*
X206267519Y-73931015D01*
X206148985Y-73812481D01*
X206055853Y-73673100D01*
X205991703Y-73518228D01*
X205959000Y-73353816D01*
X205959000Y-73186184D01*
X205991703Y-73021772D01*
X206055853Y-72866900D01*
X206148985Y-72727519D01*
X206267519Y-72608985D01*
X206406900Y-72515853D01*
X206561772Y-72451703D01*
X206726184Y-72419000D01*
X206893816Y-72419000D01*
X207058228Y-72451703D01*
G37*
G36*
X201978228Y-69911703D02*
G01*
X202133100Y-69975853D01*
X202272481Y-70068985D01*
X202391015Y-70187519D01*
X202484147Y-70326900D01*
X202548297Y-70481772D01*
X202581000Y-70646184D01*
X202581000Y-70813816D01*
X202548297Y-70978228D01*
X202484147Y-71133100D01*
X202391015Y-71272481D01*
X202272481Y-71391015D01*
X202133100Y-71484147D01*
X201978228Y-71548297D01*
X201813816Y-71581000D01*
X201646184Y-71581000D01*
X201481772Y-71548297D01*
X201326900Y-71484147D01*
X201187519Y-71391015D01*
X201068985Y-71272481D01*
X200975853Y-71133100D01*
X200911703Y-70978228D01*
X200879000Y-70813816D01*
X200879000Y-70646184D01*
X200911703Y-70481772D01*
X200975853Y-70326900D01*
X201068985Y-70187519D01*
X201187519Y-70068985D01*
X201326900Y-69975853D01*
X201481772Y-69911703D01*
X201646184Y-69879000D01*
X201813816Y-69879000D01*
X201978228Y-69911703D01*
G37*
G36*
X199438228Y-69911703D02*
G01*
X199593100Y-69975853D01*
X199732481Y-70068985D01*
X199851015Y-70187519D01*
X199944147Y-70326900D01*
X200008297Y-70481772D01*
X200041000Y-70646184D01*
X200041000Y-70813816D01*
X200008297Y-70978228D01*
X199944147Y-71133100D01*
X199851015Y-71272481D01*
X199732481Y-71391015D01*
X199593100Y-71484147D01*
X199438228Y-71548297D01*
X199273816Y-71581000D01*
X199106184Y-71581000D01*
X198941772Y-71548297D01*
X198786900Y-71484147D01*
X198647519Y-71391015D01*
X198528985Y-71272481D01*
X198435853Y-71133100D01*
X198371703Y-70978228D01*
X198339000Y-70813816D01*
X198339000Y-70646184D01*
X198371703Y-70481772D01*
X198435853Y-70326900D01*
X198528985Y-70187519D01*
X198647519Y-70068985D01*
X198786900Y-69975853D01*
X198941772Y-69911703D01*
X199106184Y-69879000D01*
X199273816Y-69879000D01*
X199438228Y-69911703D01*
G37*
G36*
X204518228Y-69911703D02*
G01*
X204673100Y-69975853D01*
X204812481Y-70068985D01*
X204931015Y-70187519D01*
X205024147Y-70326900D01*
X205088297Y-70481772D01*
X205121000Y-70646184D01*
X205121000Y-70813816D01*
X205088297Y-70978228D01*
X205024147Y-71133100D01*
X204931015Y-71272481D01*
X204812481Y-71391015D01*
X204673100Y-71484147D01*
X204518228Y-71548297D01*
X204353816Y-71581000D01*
X204186184Y-71581000D01*
X204021772Y-71548297D01*
X203866900Y-71484147D01*
X203727519Y-71391015D01*
X203608985Y-71272481D01*
X203515853Y-71133100D01*
X203451703Y-70978228D01*
X203419000Y-70813816D01*
X203419000Y-70646184D01*
X203451703Y-70481772D01*
X203515853Y-70326900D01*
X203608985Y-70187519D01*
X203727519Y-70068985D01*
X203866900Y-69975853D01*
X204021772Y-69911703D01*
X204186184Y-69879000D01*
X204353816Y-69879000D01*
X204518228Y-69911703D01*
G37*
G36*
X207058228Y-69911703D02*
G01*
X207213100Y-69975853D01*
X207352481Y-70068985D01*
X207471015Y-70187519D01*
X207564147Y-70326900D01*
X207628297Y-70481772D01*
X207661000Y-70646184D01*
X207661000Y-70813816D01*
X207628297Y-70978228D01*
X207564147Y-71133100D01*
X207471015Y-71272481D01*
X207352481Y-71391015D01*
X207213100Y-71484147D01*
X207058228Y-71548297D01*
X206893816Y-71581000D01*
X206726184Y-71581000D01*
X206561772Y-71548297D01*
X206406900Y-71484147D01*
X206267519Y-71391015D01*
X206148985Y-71272481D01*
X206055853Y-71133100D01*
X205991703Y-70978228D01*
X205959000Y-70813816D01*
X205959000Y-70646184D01*
X205991703Y-70481772D01*
X206055853Y-70326900D01*
X206148985Y-70187519D01*
X206267519Y-70068985D01*
X206406900Y-69975853D01*
X206561772Y-69911703D01*
X206726184Y-69879000D01*
X206893816Y-69879000D01*
X207058228Y-69911703D01*
G37*
G36*
X189271400Y-70849884D02*
G01*
X186833000Y-70849884D01*
X186833000Y-69427484D01*
X189271400Y-69427484D01*
X189271400Y-70849884D01*
G37*
G36*
X195451600Y-69728884D02*
G01*
X193048400Y-69728884D01*
X193048400Y-65925684D01*
X195451600Y-65925684D01*
X195451600Y-69728884D01*
G37*
G36*
X207058228Y-67371703D02*
G01*
X207213100Y-67435853D01*
X207352481Y-67528985D01*
X207471015Y-67647519D01*
X207564147Y-67786900D01*
X207628297Y-67941772D01*
X207661000Y-68106184D01*
X207661000Y-68273816D01*
X207628297Y-68438228D01*
X207564147Y-68593100D01*
X207471015Y-68732481D01*
X207352481Y-68851015D01*
X207213100Y-68944147D01*
X207058228Y-69008297D01*
X206893816Y-69041000D01*
X206726184Y-69041000D01*
X206561772Y-69008297D01*
X206406900Y-68944147D01*
X206267519Y-68851015D01*
X206148985Y-68732481D01*
X206055853Y-68593100D01*
X205991703Y-68438228D01*
X205959000Y-68273816D01*
X205959000Y-68106184D01*
X205991703Y-67941772D01*
X206055853Y-67786900D01*
X206148985Y-67647519D01*
X206267519Y-67528985D01*
X206406900Y-67435853D01*
X206561772Y-67371703D01*
X206726184Y-67339000D01*
X206893816Y-67339000D01*
X207058228Y-67371703D01*
G37*
G36*
X204518228Y-67371703D02*
G01*
X204673100Y-67435853D01*
X204812481Y-67528985D01*
X204931015Y-67647519D01*
X205024147Y-67786900D01*
X205088297Y-67941772D01*
X205121000Y-68106184D01*
X205121000Y-68273816D01*
X205088297Y-68438228D01*
X205024147Y-68593100D01*
X204931015Y-68732481D01*
X204812481Y-68851015D01*
X204673100Y-68944147D01*
X204518228Y-69008297D01*
X204353816Y-69041000D01*
X204186184Y-69041000D01*
X204021772Y-69008297D01*
X203866900Y-68944147D01*
X203727519Y-68851015D01*
X203608985Y-68732481D01*
X203515853Y-68593100D01*
X203451703Y-68438228D01*
X203419000Y-68273816D01*
X203419000Y-68106184D01*
X203451703Y-67941772D01*
X203515853Y-67786900D01*
X203608985Y-67647519D01*
X203727519Y-67528985D01*
X203866900Y-67435853D01*
X204021772Y-67371703D01*
X204186184Y-67339000D01*
X204353816Y-67339000D01*
X204518228Y-67371703D01*
G37*
G36*
X199438228Y-67371703D02*
G01*
X199593100Y-67435853D01*
X199732481Y-67528985D01*
X199851015Y-67647519D01*
X199944147Y-67786900D01*
X200008297Y-67941772D01*
X200041000Y-68106184D01*
X200041000Y-68273816D01*
X200008297Y-68438228D01*
X199944147Y-68593100D01*
X199851015Y-68732481D01*
X199732481Y-68851015D01*
X199593100Y-68944147D01*
X199438228Y-69008297D01*
X199273816Y-69041000D01*
X199106184Y-69041000D01*
X198941772Y-69008297D01*
X198786900Y-68944147D01*
X198647519Y-68851015D01*
X198528985Y-68732481D01*
X198435853Y-68593100D01*
X198371703Y-68438228D01*
X198339000Y-68273816D01*
X198339000Y-68106184D01*
X198371703Y-67941772D01*
X198435853Y-67786900D01*
X198528985Y-67647519D01*
X198647519Y-67528985D01*
X198786900Y-67435853D01*
X198941772Y-67371703D01*
X199106184Y-67339000D01*
X199273816Y-67339000D01*
X199438228Y-67371703D01*
G37*
G36*
X201978228Y-67371703D02*
G01*
X202133100Y-67435853D01*
X202272481Y-67528985D01*
X202391015Y-67647519D01*
X202484147Y-67786900D01*
X202548297Y-67941772D01*
X202581000Y-68106184D01*
X202581000Y-68273816D01*
X202548297Y-68438228D01*
X202484147Y-68593100D01*
X202391015Y-68732481D01*
X202272481Y-68851015D01*
X202133100Y-68944147D01*
X201978228Y-69008297D01*
X201813816Y-69041000D01*
X201646184Y-69041000D01*
X201481772Y-69008297D01*
X201326900Y-68944147D01*
X201187519Y-68851015D01*
X201068985Y-68732481D01*
X200975853Y-68593100D01*
X200911703Y-68438228D01*
X200879000Y-68273816D01*
X200879000Y-68106184D01*
X200911703Y-67941772D01*
X200975853Y-67786900D01*
X201068985Y-67647519D01*
X201187519Y-67528985D01*
X201326900Y-67435853D01*
X201481772Y-67371703D01*
X201646184Y-67339000D01*
X201813816Y-67339000D01*
X201978228Y-67371703D01*
G37*
G36*
X189271400Y-68538484D02*
G01*
X186833000Y-68538484D01*
X186833000Y-67116084D01*
X189271400Y-67116084D01*
X189271400Y-68538484D01*
G37*
G36*
X207058228Y-64831703D02*
G01*
X207213100Y-64895853D01*
X207352481Y-64988985D01*
X207471015Y-65107519D01*
X207564147Y-65246900D01*
X207628297Y-65401772D01*
X207661000Y-65566184D01*
X207661000Y-65733816D01*
X207628297Y-65898228D01*
X207564147Y-66053100D01*
X207471015Y-66192481D01*
X207352481Y-66311015D01*
X207213100Y-66404147D01*
X207058228Y-66468297D01*
X206893816Y-66501000D01*
X206726184Y-66501000D01*
X206561772Y-66468297D01*
X206406900Y-66404147D01*
X206267519Y-66311015D01*
X206148985Y-66192481D01*
X206055853Y-66053100D01*
X205991703Y-65898228D01*
X205959000Y-65733816D01*
X205959000Y-65566184D01*
X205991703Y-65401772D01*
X206055853Y-65246900D01*
X206148985Y-65107519D01*
X206267519Y-64988985D01*
X206406900Y-64895853D01*
X206561772Y-64831703D01*
X206726184Y-64799000D01*
X206893816Y-64799000D01*
X207058228Y-64831703D01*
G37*
G36*
X204518228Y-64831703D02*
G01*
X204673100Y-64895853D01*
X204812481Y-64988985D01*
X204931015Y-65107519D01*
X205024147Y-65246900D01*
X205088297Y-65401772D01*
X205121000Y-65566184D01*
X205121000Y-65733816D01*
X205088297Y-65898228D01*
X205024147Y-66053100D01*
X204931015Y-66192481D01*
X204812481Y-66311015D01*
X204673100Y-66404147D01*
X204518228Y-66468297D01*
X204353816Y-66501000D01*
X204186184Y-66501000D01*
X204021772Y-66468297D01*
X203866900Y-66404147D01*
X203727519Y-66311015D01*
X203608985Y-66192481D01*
X203515853Y-66053100D01*
X203451703Y-65898228D01*
X203419000Y-65733816D01*
X203419000Y-65566184D01*
X203451703Y-65401772D01*
X203515853Y-65246900D01*
X203608985Y-65107519D01*
X203727519Y-64988985D01*
X203866900Y-64895853D01*
X204021772Y-64831703D01*
X204186184Y-64799000D01*
X204353816Y-64799000D01*
X204518228Y-64831703D01*
G37*
G36*
X201978228Y-64831703D02*
G01*
X202133100Y-64895853D01*
X202272481Y-64988985D01*
X202391015Y-65107519D01*
X202484147Y-65246900D01*
X202548297Y-65401772D01*
X202581000Y-65566184D01*
X202581000Y-65733816D01*
X202548297Y-65898228D01*
X202484147Y-66053100D01*
X202391015Y-66192481D01*
X202272481Y-66311015D01*
X202133100Y-66404147D01*
X201978228Y-66468297D01*
X201813816Y-66501000D01*
X201646184Y-66501000D01*
X201481772Y-66468297D01*
X201326900Y-66404147D01*
X201187519Y-66311015D01*
X201068985Y-66192481D01*
X200975853Y-66053100D01*
X200911703Y-65898228D01*
X200879000Y-65733816D01*
X200879000Y-65566184D01*
X200911703Y-65401772D01*
X200975853Y-65246900D01*
X201068985Y-65107519D01*
X201187519Y-64988985D01*
X201326900Y-64895853D01*
X201481772Y-64831703D01*
X201646184Y-64799000D01*
X201813816Y-64799000D01*
X201978228Y-64831703D01*
G37*
G36*
X199438228Y-64831703D02*
G01*
X199593100Y-64895853D01*
X199732481Y-64988985D01*
X199851015Y-65107519D01*
X199944147Y-65246900D01*
X200008297Y-65401772D01*
X200041000Y-65566184D01*
X200041000Y-65733816D01*
X200008297Y-65898228D01*
X199944147Y-66053100D01*
X199851015Y-66192481D01*
X199732481Y-66311015D01*
X199593100Y-66404147D01*
X199438228Y-66468297D01*
X199273816Y-66501000D01*
X199106184Y-66501000D01*
X198941772Y-66468297D01*
X198786900Y-66404147D01*
X198647519Y-66311015D01*
X198528985Y-66192481D01*
X198435853Y-66053100D01*
X198371703Y-65898228D01*
X198339000Y-65733816D01*
X198339000Y-65566184D01*
X198371703Y-65401772D01*
X198435853Y-65246900D01*
X198528985Y-65107519D01*
X198647519Y-64988985D01*
X198786900Y-64895853D01*
X198941772Y-64831703D01*
X199106184Y-64799000D01*
X199273816Y-64799000D01*
X199438228Y-64831703D01*
G37*
G36*
X189271400Y-66227084D02*
G01*
X186833000Y-66227084D01*
X186833000Y-64804684D01*
X189271400Y-64804684D01*
X189271400Y-66227084D01*
G37*
G36*
X201978228Y-62291703D02*
G01*
X202133100Y-62355853D01*
X202272481Y-62448985D01*
X202391015Y-62567519D01*
X202484147Y-62706900D01*
X202548297Y-62861772D01*
X202581000Y-63026184D01*
X202581000Y-63193816D01*
X202548297Y-63358228D01*
X202484147Y-63513100D01*
X202391015Y-63652481D01*
X202272481Y-63771015D01*
X202133100Y-63864147D01*
X201978228Y-63928297D01*
X201813816Y-63961000D01*
X201646184Y-63961000D01*
X201481772Y-63928297D01*
X201326900Y-63864147D01*
X201187519Y-63771015D01*
X201068985Y-63652481D01*
X200975853Y-63513100D01*
X200911703Y-63358228D01*
X200879000Y-63193816D01*
X200879000Y-63026184D01*
X200911703Y-62861772D01*
X200975853Y-62706900D01*
X201068985Y-62567519D01*
X201187519Y-62448985D01*
X201326900Y-62355853D01*
X201481772Y-62291703D01*
X201646184Y-62259000D01*
X201813816Y-62259000D01*
X201978228Y-62291703D01*
G37*
G36*
X207058228Y-62291703D02*
G01*
X207213100Y-62355853D01*
X207352481Y-62448985D01*
X207471015Y-62567519D01*
X207564147Y-62706900D01*
X207628297Y-62861772D01*
X207661000Y-63026184D01*
X207661000Y-63193816D01*
X207628297Y-63358228D01*
X207564147Y-63513100D01*
X207471015Y-63652481D01*
X207352481Y-63771015D01*
X207213100Y-63864147D01*
X207058228Y-63928297D01*
X206893816Y-63961000D01*
X206726184Y-63961000D01*
X206561772Y-63928297D01*
X206406900Y-63864147D01*
X206267519Y-63771015D01*
X206148985Y-63652481D01*
X206055853Y-63513100D01*
X205991703Y-63358228D01*
X205959000Y-63193816D01*
X205959000Y-63026184D01*
X205991703Y-62861772D01*
X206055853Y-62706900D01*
X206148985Y-62567519D01*
X206267519Y-62448985D01*
X206406900Y-62355853D01*
X206561772Y-62291703D01*
X206726184Y-62259000D01*
X206893816Y-62259000D01*
X207058228Y-62291703D01*
G37*
G36*
X204518228Y-62291703D02*
G01*
X204673100Y-62355853D01*
X204812481Y-62448985D01*
X204931015Y-62567519D01*
X205024147Y-62706900D01*
X205088297Y-62861772D01*
X205121000Y-63026184D01*
X205121000Y-63193816D01*
X205088297Y-63358228D01*
X205024147Y-63513100D01*
X204931015Y-63652481D01*
X204812481Y-63771015D01*
X204673100Y-63864147D01*
X204518228Y-63928297D01*
X204353816Y-63961000D01*
X204186184Y-63961000D01*
X204021772Y-63928297D01*
X203866900Y-63864147D01*
X203727519Y-63771015D01*
X203608985Y-63652481D01*
X203515853Y-63513100D01*
X203451703Y-63358228D01*
X203419000Y-63193816D01*
X203419000Y-63026184D01*
X203451703Y-62861772D01*
X203515853Y-62706900D01*
X203608985Y-62567519D01*
X203727519Y-62448985D01*
X203866900Y-62355853D01*
X204021772Y-62291703D01*
X204186184Y-62259000D01*
X204353816Y-62259000D01*
X204518228Y-62291703D01*
G37*
G36*
X199438228Y-62291703D02*
G01*
X199593100Y-62355853D01*
X199732481Y-62448985D01*
X199851015Y-62567519D01*
X199944147Y-62706900D01*
X200008297Y-62861772D01*
X200041000Y-63026184D01*
X200041000Y-63193816D01*
X200008297Y-63358228D01*
X199944147Y-63513100D01*
X199851015Y-63652481D01*
X199732481Y-63771015D01*
X199593100Y-63864147D01*
X199438228Y-63928297D01*
X199273816Y-63961000D01*
X199106184Y-63961000D01*
X198941772Y-63928297D01*
X198786900Y-63864147D01*
X198647519Y-63771015D01*
X198528985Y-63652481D01*
X198435853Y-63513100D01*
X198371703Y-63358228D01*
X198339000Y-63193816D01*
X198339000Y-63026184D01*
X198371703Y-62861772D01*
X198435853Y-62706900D01*
X198528985Y-62567519D01*
X198647519Y-62448985D01*
X198786900Y-62355853D01*
X198941772Y-62291703D01*
X199106184Y-62259000D01*
X199273816Y-62259000D01*
X199438228Y-62291703D01*
G37*
G36*
X189271400Y-61624313D02*
G01*
X186833000Y-61624313D01*
X186833000Y-60201913D01*
X189271400Y-60201913D01*
X189271400Y-61624313D01*
G37*
G36*
X199438228Y-59751703D02*
G01*
X199593100Y-59815853D01*
X199732481Y-59908985D01*
X199851015Y-60027519D01*
X199944147Y-60166900D01*
X200008297Y-60321772D01*
X200041000Y-60486184D01*
X200041000Y-60653816D01*
X200008297Y-60818228D01*
X199944147Y-60973100D01*
X199851015Y-61112481D01*
X199732481Y-61231015D01*
X199593100Y-61324147D01*
X199438228Y-61388297D01*
X199273816Y-61421000D01*
X199106184Y-61421000D01*
X198941772Y-61388297D01*
X198786900Y-61324147D01*
X198647519Y-61231015D01*
X198528985Y-61112481D01*
X198435853Y-60973100D01*
X198371703Y-60818228D01*
X198339000Y-60653816D01*
X198339000Y-60486184D01*
X198371703Y-60321772D01*
X198435853Y-60166900D01*
X198528985Y-60027519D01*
X198647519Y-59908985D01*
X198786900Y-59815853D01*
X198941772Y-59751703D01*
X199106184Y-59719000D01*
X199273816Y-59719000D01*
X199438228Y-59751703D01*
G37*
G36*
X201978228Y-59751703D02*
G01*
X202133100Y-59815853D01*
X202272481Y-59908985D01*
X202391015Y-60027519D01*
X202484147Y-60166900D01*
X202548297Y-60321772D01*
X202581000Y-60486184D01*
X202581000Y-60653816D01*
X202548297Y-60818228D01*
X202484147Y-60973100D01*
X202391015Y-61112481D01*
X202272481Y-61231015D01*
X202133100Y-61324147D01*
X201978228Y-61388297D01*
X201813816Y-61421000D01*
X201646184Y-61421000D01*
X201481772Y-61388297D01*
X201326900Y-61324147D01*
X201187519Y-61231015D01*
X201068985Y-61112481D01*
X200975853Y-60973100D01*
X200911703Y-60818228D01*
X200879000Y-60653816D01*
X200879000Y-60486184D01*
X200911703Y-60321772D01*
X200975853Y-60166900D01*
X201068985Y-60027519D01*
X201187519Y-59908985D01*
X201326900Y-59815853D01*
X201481772Y-59751703D01*
X201646184Y-59719000D01*
X201813816Y-59719000D01*
X201978228Y-59751703D01*
G37*
G36*
X207058228Y-59751703D02*
G01*
X207213100Y-59815853D01*
X207352481Y-59908985D01*
X207471015Y-60027519D01*
X207564147Y-60166900D01*
X207628297Y-60321772D01*
X207661000Y-60486184D01*
X207661000Y-60653816D01*
X207628297Y-60818228D01*
X207564147Y-60973100D01*
X207471015Y-61112481D01*
X207352481Y-61231015D01*
X207213100Y-61324147D01*
X207058228Y-61388297D01*
X206893816Y-61421000D01*
X206726184Y-61421000D01*
X206561772Y-61388297D01*
X206406900Y-61324147D01*
X206267519Y-61231015D01*
X206148985Y-61112481D01*
X206055853Y-60973100D01*
X205991703Y-60818228D01*
X205959000Y-60653816D01*
X205959000Y-60486184D01*
X205991703Y-60321772D01*
X206055853Y-60166900D01*
X206148985Y-60027519D01*
X206267519Y-59908985D01*
X206406900Y-59815853D01*
X206561772Y-59751703D01*
X206726184Y-59719000D01*
X206893816Y-59719000D01*
X207058228Y-59751703D01*
G37*
G36*
X204518228Y-59751703D02*
G01*
X204673100Y-59815853D01*
X204812481Y-59908985D01*
X204931015Y-60027519D01*
X205024147Y-60166900D01*
X205088297Y-60321772D01*
X205121000Y-60486184D01*
X205121000Y-60653816D01*
X205088297Y-60818228D01*
X205024147Y-60973100D01*
X204931015Y-61112481D01*
X204812481Y-61231015D01*
X204673100Y-61324147D01*
X204518228Y-61388297D01*
X204353816Y-61421000D01*
X204186184Y-61421000D01*
X204021772Y-61388297D01*
X203866900Y-61324147D01*
X203727519Y-61231015D01*
X203608985Y-61112481D01*
X203515853Y-60973100D01*
X203451703Y-60818228D01*
X203419000Y-60653816D01*
X203419000Y-60486184D01*
X203451703Y-60321772D01*
X203515853Y-60166900D01*
X203608985Y-60027519D01*
X203727519Y-59908985D01*
X203866900Y-59815853D01*
X204021772Y-59751703D01*
X204186184Y-59719000D01*
X204353816Y-59719000D01*
X204518228Y-59751703D01*
G37*
G36*
X130095936Y-58656340D02*
G01*
X130194220Y-58666020D01*
X130383381Y-58723401D01*
X130557712Y-58816583D01*
X130710515Y-58941985D01*
X130835917Y-59094788D01*
X130929099Y-59269119D01*
X130986480Y-59458280D01*
X131005855Y-59655000D01*
X130986480Y-59851720D01*
X130929099Y-60040881D01*
X130835917Y-60215212D01*
X130710515Y-60368015D01*
X130557712Y-60493417D01*
X130383381Y-60586599D01*
X130194220Y-60643980D01*
X130095936Y-60653660D01*
X130046795Y-60658500D01*
X129853205Y-60658500D01*
X129804064Y-60653660D01*
X129705780Y-60643980D01*
X129516619Y-60586599D01*
X129342288Y-60493417D01*
X129189485Y-60368015D01*
X129064083Y-60215212D01*
X128970901Y-60040881D01*
X128913520Y-59851720D01*
X128894145Y-59655000D01*
X128913520Y-59458280D01*
X128970901Y-59269119D01*
X129064083Y-59094788D01*
X129189485Y-58941985D01*
X129342288Y-58816583D01*
X129516619Y-58723401D01*
X129705780Y-58666020D01*
X129804064Y-58656340D01*
X129853205Y-58651500D01*
X130046795Y-58651500D01*
X130095936Y-58656340D01*
G37*
G36*
X195451600Y-60503313D02*
G01*
X193048400Y-60503313D01*
X193048400Y-56700113D01*
X195451600Y-56700113D01*
X195451600Y-60503313D01*
G37*
G36*
X170580228Y-58292703D02*
G01*
X170735100Y-58356853D01*
X170874481Y-58449985D01*
X170993015Y-58568519D01*
X171086147Y-58707900D01*
X171150297Y-58862772D01*
X171183000Y-59027184D01*
X171183000Y-59194816D01*
X171150297Y-59359228D01*
X171086147Y-59514100D01*
X170993015Y-59653481D01*
X170874481Y-59772015D01*
X170735100Y-59865147D01*
X170580228Y-59929297D01*
X170415816Y-59962000D01*
X170248184Y-59962000D01*
X170083772Y-59929297D01*
X169928900Y-59865147D01*
X169789519Y-59772015D01*
X169670985Y-59653481D01*
X169577853Y-59514100D01*
X169513703Y-59359228D01*
X169481000Y-59194816D01*
X169481000Y-59027184D01*
X169513703Y-58862772D01*
X169577853Y-58707900D01*
X169670985Y-58568519D01*
X169789519Y-58449985D01*
X169928900Y-58356853D01*
X170083772Y-58292703D01*
X170248184Y-58260000D01*
X170415816Y-58260000D01*
X170580228Y-58292703D01*
G37*
G36*
X183883000Y-59962000D02*
G01*
X182181000Y-59962000D01*
X182181000Y-58260000D01*
X183883000Y-58260000D01*
X183883000Y-59962000D01*
G37*
G36*
X189271400Y-59312913D02*
G01*
X186833000Y-59312913D01*
X186833000Y-57890513D01*
X189271400Y-57890513D01*
X189271400Y-59312913D01*
G37*
G36*
X199438228Y-57211703D02*
G01*
X199593100Y-57275853D01*
X199732481Y-57368985D01*
X199851015Y-57487519D01*
X199944147Y-57626900D01*
X200008297Y-57781772D01*
X200041000Y-57946184D01*
X200041000Y-58113816D01*
X200008297Y-58278228D01*
X199944147Y-58433100D01*
X199851015Y-58572481D01*
X199732481Y-58691015D01*
X199593100Y-58784147D01*
X199438228Y-58848297D01*
X199273816Y-58881000D01*
X199106184Y-58881000D01*
X198941772Y-58848297D01*
X198786900Y-58784147D01*
X198647519Y-58691015D01*
X198528985Y-58572481D01*
X198435853Y-58433100D01*
X198371703Y-58278228D01*
X198339000Y-58113816D01*
X198339000Y-57946184D01*
X198371703Y-57781772D01*
X198435853Y-57626900D01*
X198528985Y-57487519D01*
X198647519Y-57368985D01*
X198786900Y-57275853D01*
X198941772Y-57211703D01*
X199106184Y-57179000D01*
X199273816Y-57179000D01*
X199438228Y-57211703D01*
G37*
G36*
X207058228Y-57211703D02*
G01*
X207213100Y-57275853D01*
X207352481Y-57368985D01*
X207471015Y-57487519D01*
X207564147Y-57626900D01*
X207628297Y-57781772D01*
X207661000Y-57946184D01*
X207661000Y-58113816D01*
X207628297Y-58278228D01*
X207564147Y-58433100D01*
X207471015Y-58572481D01*
X207352481Y-58691015D01*
X207213100Y-58784147D01*
X207058228Y-58848297D01*
X206893816Y-58881000D01*
X206726184Y-58881000D01*
X206561772Y-58848297D01*
X206406900Y-58784147D01*
X206267519Y-58691015D01*
X206148985Y-58572481D01*
X206055853Y-58433100D01*
X205991703Y-58278228D01*
X205959000Y-58113816D01*
X205959000Y-57946184D01*
X205991703Y-57781772D01*
X206055853Y-57626900D01*
X206148985Y-57487519D01*
X206267519Y-57368985D01*
X206406900Y-57275853D01*
X206561772Y-57211703D01*
X206726184Y-57179000D01*
X206893816Y-57179000D01*
X207058228Y-57211703D01*
G37*
G36*
X204518228Y-57211703D02*
G01*
X204673100Y-57275853D01*
X204812481Y-57368985D01*
X204931015Y-57487519D01*
X205024147Y-57626900D01*
X205088297Y-57781772D01*
X205121000Y-57946184D01*
X205121000Y-58113816D01*
X205088297Y-58278228D01*
X205024147Y-58433100D01*
X204931015Y-58572481D01*
X204812481Y-58691015D01*
X204673100Y-58784147D01*
X204518228Y-58848297D01*
X204353816Y-58881000D01*
X204186184Y-58881000D01*
X204021772Y-58848297D01*
X203866900Y-58784147D01*
X203727519Y-58691015D01*
X203608985Y-58572481D01*
X203515853Y-58433100D01*
X203451703Y-58278228D01*
X203419000Y-58113816D01*
X203419000Y-57946184D01*
X203451703Y-57781772D01*
X203515853Y-57626900D01*
X203608985Y-57487519D01*
X203727519Y-57368985D01*
X203866900Y-57275853D01*
X204021772Y-57211703D01*
X204186184Y-57179000D01*
X204353816Y-57179000D01*
X204518228Y-57211703D01*
G37*
G36*
X201978228Y-57211703D02*
G01*
X202133100Y-57275853D01*
X202272481Y-57368985D01*
X202391015Y-57487519D01*
X202484147Y-57626900D01*
X202548297Y-57781772D01*
X202581000Y-57946184D01*
X202581000Y-58113816D01*
X202548297Y-58278228D01*
X202484147Y-58433100D01*
X202391015Y-58572481D01*
X202272481Y-58691015D01*
X202133100Y-58784147D01*
X201978228Y-58848297D01*
X201813816Y-58881000D01*
X201646184Y-58881000D01*
X201481772Y-58848297D01*
X201326900Y-58784147D01*
X201187519Y-58691015D01*
X201068985Y-58572481D01*
X200975853Y-58433100D01*
X200911703Y-58278228D01*
X200879000Y-58113816D01*
X200879000Y-57946184D01*
X200911703Y-57781772D01*
X200975853Y-57626900D01*
X201068985Y-57487519D01*
X201187519Y-57368985D01*
X201326900Y-57275853D01*
X201481772Y-57211703D01*
X201646184Y-57179000D01*
X201813816Y-57179000D01*
X201978228Y-57211703D01*
G37*
G36*
X130095936Y-56116340D02*
G01*
X130194220Y-56126020D01*
X130383381Y-56183401D01*
X130557712Y-56276583D01*
X130710515Y-56401985D01*
X130835917Y-56554788D01*
X130929099Y-56729119D01*
X130986480Y-56918280D01*
X131005855Y-57115000D01*
X130986480Y-57311720D01*
X130929099Y-57500881D01*
X130835917Y-57675212D01*
X130710515Y-57828015D01*
X130557712Y-57953417D01*
X130383381Y-58046599D01*
X130194220Y-58103980D01*
X130095936Y-58113660D01*
X130046795Y-58118500D01*
X129853205Y-58118500D01*
X129804064Y-58113660D01*
X129705780Y-58103980D01*
X129516619Y-58046599D01*
X129342288Y-57953417D01*
X129189485Y-57828015D01*
X129064083Y-57675212D01*
X128970901Y-57500881D01*
X128913520Y-57311720D01*
X128894145Y-57115000D01*
X128913520Y-56918280D01*
X128970901Y-56729119D01*
X129064083Y-56554788D01*
X129189485Y-56401985D01*
X129342288Y-56276583D01*
X129516619Y-56183401D01*
X129705780Y-56126020D01*
X129804064Y-56116340D01*
X129853205Y-56111500D01*
X130046795Y-56111500D01*
X130095936Y-56116340D01*
G37*
G36*
X183280228Y-55752703D02*
G01*
X183435100Y-55816853D01*
X183574481Y-55909985D01*
X183693015Y-56028519D01*
X183786147Y-56167900D01*
X183850297Y-56322772D01*
X183883000Y-56487184D01*
X183883000Y-56654816D01*
X183850297Y-56819228D01*
X183786147Y-56974100D01*
X183693015Y-57113481D01*
X183574481Y-57232015D01*
X183435100Y-57325147D01*
X183280228Y-57389297D01*
X183115816Y-57422000D01*
X182948184Y-57422000D01*
X182783772Y-57389297D01*
X182628900Y-57325147D01*
X182489519Y-57232015D01*
X182370985Y-57113481D01*
X182277853Y-56974100D01*
X182213703Y-56819228D01*
X182181000Y-56654816D01*
X182181000Y-56487184D01*
X182213703Y-56322772D01*
X182277853Y-56167900D01*
X182370985Y-56028519D01*
X182489519Y-55909985D01*
X182628900Y-55816853D01*
X182783772Y-55752703D01*
X182948184Y-55720000D01*
X183115816Y-55720000D01*
X183280228Y-55752703D01*
G37*
G36*
X170580228Y-55752703D02*
G01*
X170735100Y-55816853D01*
X170874481Y-55909985D01*
X170993015Y-56028519D01*
X171086147Y-56167900D01*
X171150297Y-56322772D01*
X171183000Y-56487184D01*
X171183000Y-56654816D01*
X171150297Y-56819228D01*
X171086147Y-56974100D01*
X170993015Y-57113481D01*
X170874481Y-57232015D01*
X170735100Y-57325147D01*
X170580228Y-57389297D01*
X170415816Y-57422000D01*
X170248184Y-57422000D01*
X170083772Y-57389297D01*
X169928900Y-57325147D01*
X169789519Y-57232015D01*
X169670985Y-57113481D01*
X169577853Y-56974100D01*
X169513703Y-56819228D01*
X169481000Y-56654816D01*
X169481000Y-56487184D01*
X169513703Y-56322772D01*
X169577853Y-56167900D01*
X169670985Y-56028519D01*
X169789519Y-55909985D01*
X169928900Y-55816853D01*
X170083772Y-55752703D01*
X170248184Y-55720000D01*
X170415816Y-55720000D01*
X170580228Y-55752703D01*
G37*
G36*
X189271400Y-57001513D02*
G01*
X186833000Y-57001513D01*
X186833000Y-55579113D01*
X189271400Y-55579113D01*
X189271400Y-57001513D01*
G37*
G36*
X201978228Y-54671703D02*
G01*
X202133100Y-54735853D01*
X202272481Y-54828985D01*
X202391015Y-54947519D01*
X202484147Y-55086900D01*
X202548297Y-55241772D01*
X202581000Y-55406184D01*
X202581000Y-55573816D01*
X202548297Y-55738228D01*
X202484147Y-55893100D01*
X202391015Y-56032481D01*
X202272481Y-56151015D01*
X202133100Y-56244147D01*
X201978228Y-56308297D01*
X201813816Y-56341000D01*
X201646184Y-56341000D01*
X201481772Y-56308297D01*
X201326900Y-56244147D01*
X201187519Y-56151015D01*
X201068985Y-56032481D01*
X200975853Y-55893100D01*
X200911703Y-55738228D01*
X200879000Y-55573816D01*
X200879000Y-55406184D01*
X200911703Y-55241772D01*
X200975853Y-55086900D01*
X201068985Y-54947519D01*
X201187519Y-54828985D01*
X201326900Y-54735853D01*
X201481772Y-54671703D01*
X201646184Y-54639000D01*
X201813816Y-54639000D01*
X201978228Y-54671703D01*
G37*
G36*
X199438228Y-54671703D02*
G01*
X199593100Y-54735853D01*
X199732481Y-54828985D01*
X199851015Y-54947519D01*
X199944147Y-55086900D01*
X200008297Y-55241772D01*
X200041000Y-55406184D01*
X200041000Y-55573816D01*
X200008297Y-55738228D01*
X199944147Y-55893100D01*
X199851015Y-56032481D01*
X199732481Y-56151015D01*
X199593100Y-56244147D01*
X199438228Y-56308297D01*
X199273816Y-56341000D01*
X199106184Y-56341000D01*
X198941772Y-56308297D01*
X198786900Y-56244147D01*
X198647519Y-56151015D01*
X198528985Y-56032481D01*
X198435853Y-55893100D01*
X198371703Y-55738228D01*
X198339000Y-55573816D01*
X198339000Y-55406184D01*
X198371703Y-55241772D01*
X198435853Y-55086900D01*
X198528985Y-54947519D01*
X198647519Y-54828985D01*
X198786900Y-54735853D01*
X198941772Y-54671703D01*
X199106184Y-54639000D01*
X199273816Y-54639000D01*
X199438228Y-54671703D01*
G37*
G36*
X207058228Y-54671703D02*
G01*
X207213100Y-54735853D01*
X207352481Y-54828985D01*
X207471015Y-54947519D01*
X207564147Y-55086900D01*
X207628297Y-55241772D01*
X207661000Y-55406184D01*
X207661000Y-55573816D01*
X207628297Y-55738228D01*
X207564147Y-55893100D01*
X207471015Y-56032481D01*
X207352481Y-56151015D01*
X207213100Y-56244147D01*
X207058228Y-56308297D01*
X206893816Y-56341000D01*
X206726184Y-56341000D01*
X206561772Y-56308297D01*
X206406900Y-56244147D01*
X206267519Y-56151015D01*
X206148985Y-56032481D01*
X206055853Y-55893100D01*
X205991703Y-55738228D01*
X205959000Y-55573816D01*
X205959000Y-55406184D01*
X205991703Y-55241772D01*
X206055853Y-55086900D01*
X206148985Y-54947519D01*
X206267519Y-54828985D01*
X206406900Y-54735853D01*
X206561772Y-54671703D01*
X206726184Y-54639000D01*
X206893816Y-54639000D01*
X207058228Y-54671703D01*
G37*
G36*
X204518228Y-54671703D02*
G01*
X204673100Y-54735853D01*
X204812481Y-54828985D01*
X204931015Y-54947519D01*
X205024147Y-55086900D01*
X205088297Y-55241772D01*
X205121000Y-55406184D01*
X205121000Y-55573816D01*
X205088297Y-55738228D01*
X205024147Y-55893100D01*
X204931015Y-56032481D01*
X204812481Y-56151015D01*
X204673100Y-56244147D01*
X204518228Y-56308297D01*
X204353816Y-56341000D01*
X204186184Y-56341000D01*
X204021772Y-56308297D01*
X203866900Y-56244147D01*
X203727519Y-56151015D01*
X203608985Y-56032481D01*
X203515853Y-55893100D01*
X203451703Y-55738228D01*
X203419000Y-55573816D01*
X203419000Y-55406184D01*
X203451703Y-55241772D01*
X203515853Y-55086900D01*
X203608985Y-54947519D01*
X203727519Y-54828985D01*
X203866900Y-54735853D01*
X204021772Y-54671703D01*
X204186184Y-54639000D01*
X204353816Y-54639000D01*
X204518228Y-54671703D01*
G37*
G36*
X131001000Y-55578500D02*
G01*
X128899000Y-55578500D01*
X128899000Y-53571500D01*
X131001000Y-53571500D01*
X131001000Y-55578500D01*
G37*
G36*
X196951000Y-55226000D02*
G01*
X194949000Y-55226000D01*
X194949000Y-54324000D01*
X196951000Y-54324000D01*
X196951000Y-55226000D01*
G37*
G36*
X170580228Y-53212703D02*
G01*
X170735100Y-53276853D01*
X170874481Y-53369985D01*
X170993015Y-53488519D01*
X171086147Y-53627900D01*
X171150297Y-53782772D01*
X171183000Y-53947184D01*
X171183000Y-54114816D01*
X171150297Y-54279228D01*
X171086147Y-54434100D01*
X170993015Y-54573481D01*
X170874481Y-54692015D01*
X170735100Y-54785147D01*
X170580228Y-54849297D01*
X170415816Y-54882000D01*
X170248184Y-54882000D01*
X170083772Y-54849297D01*
X169928900Y-54785147D01*
X169789519Y-54692015D01*
X169670985Y-54573481D01*
X169577853Y-54434100D01*
X169513703Y-54279228D01*
X169481000Y-54114816D01*
X169481000Y-53947184D01*
X169513703Y-53782772D01*
X169577853Y-53627900D01*
X169670985Y-53488519D01*
X169789519Y-53369985D01*
X169928900Y-53276853D01*
X170083772Y-53212703D01*
X170248184Y-53180000D01*
X170415816Y-53180000D01*
X170580228Y-53212703D01*
G37*
G36*
X183280228Y-53212703D02*
G01*
X183435100Y-53276853D01*
X183574481Y-53369985D01*
X183693015Y-53488519D01*
X183786147Y-53627900D01*
X183850297Y-53782772D01*
X183883000Y-53947184D01*
X183883000Y-54114816D01*
X183850297Y-54279228D01*
X183786147Y-54434100D01*
X183693015Y-54573481D01*
X183574481Y-54692015D01*
X183435100Y-54785147D01*
X183280228Y-54849297D01*
X183115816Y-54882000D01*
X182948184Y-54882000D01*
X182783772Y-54849297D01*
X182628900Y-54785147D01*
X182489519Y-54692015D01*
X182370985Y-54573481D01*
X182277853Y-54434100D01*
X182213703Y-54279228D01*
X182181000Y-54114816D01*
X182181000Y-53947184D01*
X182213703Y-53782772D01*
X182277853Y-53627900D01*
X182370985Y-53488519D01*
X182489519Y-53369985D01*
X182628900Y-53276853D01*
X182783772Y-53212703D01*
X182948184Y-53180000D01*
X183115816Y-53180000D01*
X183280228Y-53212703D01*
G37*
G36*
X189934499Y-53298445D02*
G01*
X189971995Y-53309820D01*
X190006554Y-53328292D01*
X190036847Y-53353153D01*
X190061708Y-53383446D01*
X190080180Y-53418005D01*
X190091555Y-53455501D01*
X190096000Y-53500638D01*
X190096000Y-54139362D01*
X190091555Y-54184499D01*
X190080180Y-54221995D01*
X190061708Y-54256554D01*
X190036847Y-54286847D01*
X190006554Y-54311708D01*
X189971995Y-54330180D01*
X189934499Y-54341555D01*
X189889362Y-54346000D01*
X189150638Y-54346000D01*
X189105501Y-54341555D01*
X189068005Y-54330180D01*
X189033446Y-54311708D01*
X189003153Y-54286847D01*
X188978292Y-54256554D01*
X188959820Y-54221995D01*
X188948445Y-54184499D01*
X188944000Y-54139362D01*
X188944000Y-53500638D01*
X188948445Y-53455501D01*
X188959820Y-53418005D01*
X188978292Y-53383446D01*
X189003153Y-53353153D01*
X189033446Y-53328292D01*
X189068005Y-53309820D01*
X189105501Y-53298445D01*
X189150638Y-53294000D01*
X189889362Y-53294000D01*
X189934499Y-53298445D01*
G37*
G36*
X188184499Y-53298445D02*
G01*
X188221995Y-53309820D01*
X188256554Y-53328292D01*
X188286847Y-53353153D01*
X188311708Y-53383446D01*
X188330180Y-53418005D01*
X188341555Y-53455501D01*
X188346000Y-53500638D01*
X188346000Y-54139362D01*
X188341555Y-54184499D01*
X188330180Y-54221995D01*
X188311708Y-54256554D01*
X188286847Y-54286847D01*
X188256554Y-54311708D01*
X188221995Y-54330180D01*
X188184499Y-54341555D01*
X188139362Y-54346000D01*
X187400638Y-54346000D01*
X187355501Y-54341555D01*
X187318005Y-54330180D01*
X187283446Y-54311708D01*
X187253153Y-54286847D01*
X187228292Y-54256554D01*
X187209820Y-54221995D01*
X187198445Y-54184499D01*
X187194000Y-54139362D01*
X187194000Y-53500638D01*
X187198445Y-53455501D01*
X187209820Y-53418005D01*
X187228292Y-53383446D01*
X187253153Y-53353153D01*
X187283446Y-53328292D01*
X187318005Y-53309820D01*
X187355501Y-53298445D01*
X187400638Y-53294000D01*
X188139362Y-53294000D01*
X188184499Y-53298445D01*
G37*
G36*
X193951000Y-54276000D02*
G01*
X191949000Y-54276000D01*
X191949000Y-53374000D01*
X193951000Y-53374000D01*
X193951000Y-54276000D01*
G37*
G36*
X196951000Y-53326000D02*
G01*
X194949000Y-53326000D01*
X194949000Y-52424000D01*
X196951000Y-52424000D01*
X196951000Y-53326000D01*
G37*
G36*
X202021981Y-51027468D02*
G01*
X202150795Y-51080825D01*
X202167876Y-51087900D01*
X202204151Y-51102926D01*
X202368100Y-51212473D01*
X202507527Y-51351900D01*
X202617074Y-51515849D01*
X202692532Y-51698019D01*
X202731000Y-51891410D01*
X202731000Y-52088590D01*
X202692532Y-52281981D01*
X202617074Y-52464151D01*
X202507527Y-52628100D01*
X202368100Y-52767527D01*
X202204151Y-52877074D01*
X202021981Y-52952532D01*
X201925285Y-52971766D01*
X201828591Y-52991000D01*
X201631409Y-52991000D01*
X201534715Y-52971766D01*
X201438019Y-52952532D01*
X201255849Y-52877074D01*
X201091900Y-52767527D01*
X200952473Y-52628100D01*
X200842926Y-52464151D01*
X200767468Y-52281981D01*
X200729000Y-52088590D01*
X200729000Y-51891410D01*
X200767468Y-51698019D01*
X200842926Y-51515849D01*
X200952473Y-51351900D01*
X201091900Y-51212473D01*
X201255849Y-51102926D01*
X201292125Y-51087900D01*
X201309205Y-51080825D01*
X201438019Y-51027468D01*
X201631409Y-50989000D01*
X201828591Y-50989000D01*
X202021981Y-51027468D01*
G37*
G36*
X199481981Y-51027468D02*
G01*
X199610795Y-51080825D01*
X199627876Y-51087900D01*
X199664151Y-51102926D01*
X199828100Y-51212473D01*
X199967527Y-51351900D01*
X200077074Y-51515849D01*
X200152532Y-51698019D01*
X200191000Y-51891410D01*
X200191000Y-52088590D01*
X200152532Y-52281981D01*
X200077074Y-52464151D01*
X199967527Y-52628100D01*
X199828100Y-52767527D01*
X199664151Y-52877074D01*
X199481981Y-52952532D01*
X199385285Y-52971766D01*
X199288591Y-52991000D01*
X199091409Y-52991000D01*
X198994715Y-52971766D01*
X198898019Y-52952532D01*
X198715849Y-52877074D01*
X198551900Y-52767527D01*
X198412473Y-52628100D01*
X198302926Y-52464151D01*
X198227468Y-52281981D01*
X198189000Y-52088590D01*
X198189000Y-51891410D01*
X198227468Y-51698019D01*
X198302926Y-51515849D01*
X198412473Y-51351900D01*
X198551900Y-51212473D01*
X198715849Y-51102926D01*
X198752125Y-51087900D01*
X198769205Y-51080825D01*
X198898019Y-51027468D01*
X199091409Y-50989000D01*
X199288591Y-50989000D01*
X199481981Y-51027468D01*
G37*
G36*
X204561981Y-51027468D02*
G01*
X204690795Y-51080825D01*
X204707876Y-51087900D01*
X204744151Y-51102926D01*
X204908100Y-51212473D01*
X205047527Y-51351900D01*
X205157074Y-51515849D01*
X205232532Y-51698019D01*
X205271000Y-51891410D01*
X205271000Y-52088590D01*
X205232532Y-52281981D01*
X205157074Y-52464151D01*
X205047527Y-52628100D01*
X204908100Y-52767527D01*
X204744151Y-52877074D01*
X204561981Y-52952532D01*
X204465285Y-52971766D01*
X204368591Y-52991000D01*
X204171409Y-52991000D01*
X204074715Y-52971766D01*
X203978019Y-52952532D01*
X203795849Y-52877074D01*
X203631900Y-52767527D01*
X203492473Y-52628100D01*
X203382926Y-52464151D01*
X203307468Y-52281981D01*
X203269000Y-52088590D01*
X203269000Y-51891410D01*
X203307468Y-51698019D01*
X203382926Y-51515849D01*
X203492473Y-51351900D01*
X203631900Y-51212473D01*
X203795849Y-51102926D01*
X203832125Y-51087900D01*
X203849205Y-51080825D01*
X203978019Y-51027468D01*
X204171409Y-50989000D01*
X204368591Y-50989000D01*
X204561981Y-51027468D01*
G37*
G36*
X207101981Y-51027468D02*
G01*
X207230795Y-51080825D01*
X207247876Y-51087900D01*
X207284151Y-51102926D01*
X207448100Y-51212473D01*
X207587527Y-51351900D01*
X207697074Y-51515849D01*
X207772532Y-51698019D01*
X207811000Y-51891410D01*
X207811000Y-52088590D01*
X207772532Y-52281981D01*
X207697074Y-52464151D01*
X207587527Y-52628100D01*
X207448100Y-52767527D01*
X207284151Y-52877074D01*
X207101981Y-52952532D01*
X207005285Y-52971766D01*
X206908591Y-52991000D01*
X206711409Y-52991000D01*
X206614715Y-52971766D01*
X206518019Y-52952532D01*
X206335849Y-52877074D01*
X206171900Y-52767527D01*
X206032473Y-52628100D01*
X205922926Y-52464151D01*
X205847468Y-52281981D01*
X205809000Y-52088590D01*
X205809000Y-51891410D01*
X205847468Y-51698019D01*
X205922926Y-51515849D01*
X206032473Y-51351900D01*
X206171900Y-51212473D01*
X206335849Y-51102926D01*
X206372125Y-51087900D01*
X206389205Y-51080825D01*
X206518019Y-51027468D01*
X206711409Y-50989000D01*
X206908591Y-50989000D01*
X207101981Y-51027468D01*
G37*
G36*
X189271400Y-52398742D02*
G01*
X186833000Y-52398742D01*
X186833000Y-50976342D01*
X189271400Y-50976342D01*
X189271400Y-52398742D01*
G37*
G36*
X170580228Y-50672703D02*
G01*
X170735100Y-50736853D01*
X170874481Y-50829985D01*
X170993015Y-50948519D01*
X171086147Y-51087900D01*
X171150297Y-51242772D01*
X171183000Y-51407184D01*
X171183000Y-51574816D01*
X171150297Y-51739228D01*
X171086147Y-51894100D01*
X170993015Y-52033481D01*
X170874481Y-52152015D01*
X170735100Y-52245147D01*
X170580228Y-52309297D01*
X170415816Y-52342000D01*
X170248184Y-52342000D01*
X170083772Y-52309297D01*
X169928900Y-52245147D01*
X169789519Y-52152015D01*
X169670985Y-52033481D01*
X169577853Y-51894100D01*
X169513703Y-51739228D01*
X169481000Y-51574816D01*
X169481000Y-51407184D01*
X169513703Y-51242772D01*
X169577853Y-51087900D01*
X169670985Y-50948519D01*
X169789519Y-50829985D01*
X169928900Y-50736853D01*
X170083772Y-50672703D01*
X170248184Y-50640000D01*
X170415816Y-50640000D01*
X170580228Y-50672703D01*
G37*
G36*
X183280228Y-50672703D02*
G01*
X183435100Y-50736853D01*
X183574481Y-50829985D01*
X183693015Y-50948519D01*
X183786147Y-51087900D01*
X183850297Y-51242772D01*
X183883000Y-51407184D01*
X183883000Y-51574816D01*
X183850297Y-51739228D01*
X183786147Y-51894100D01*
X183693015Y-52033481D01*
X183574481Y-52152015D01*
X183435100Y-52245147D01*
X183280228Y-52309297D01*
X183115816Y-52342000D01*
X182948184Y-52342000D01*
X182783772Y-52309297D01*
X182628900Y-52245147D01*
X182489519Y-52152015D01*
X182370985Y-52033481D01*
X182277853Y-51894100D01*
X182213703Y-51739228D01*
X182181000Y-51574816D01*
X182181000Y-51407184D01*
X182213703Y-51242772D01*
X182277853Y-51087900D01*
X182370985Y-50948519D01*
X182489519Y-50829985D01*
X182628900Y-50736853D01*
X182783772Y-50672703D01*
X182948184Y-50640000D01*
X183115816Y-50640000D01*
X183280228Y-50672703D01*
G37*
G36*
X195451600Y-51277742D02*
G01*
X193048400Y-51277742D01*
X193048400Y-47474542D01*
X195451600Y-47474542D01*
X195451600Y-51277742D01*
G37*
G36*
X189271400Y-50087342D02*
G01*
X186833000Y-50087342D01*
X186833000Y-48664942D01*
X189271400Y-48664942D01*
X189271400Y-50087342D01*
G37*
G36*
X134738512Y-48148927D02*
G01*
X134887812Y-48178624D01*
X135051784Y-48246544D01*
X135199354Y-48345147D01*
X135324853Y-48470646D01*
X135423456Y-48618216D01*
X135491376Y-48782188D01*
X135526000Y-48956259D01*
X135526000Y-49133741D01*
X135491376Y-49307812D01*
X135423456Y-49471784D01*
X135324853Y-49619354D01*
X135199354Y-49744853D01*
X135051784Y-49843456D01*
X134887812Y-49911376D01*
X134738512Y-49941073D01*
X134713742Y-49946000D01*
X134536258Y-49946000D01*
X134511488Y-49941073D01*
X134362188Y-49911376D01*
X134198216Y-49843456D01*
X134050646Y-49744853D01*
X133925147Y-49619354D01*
X133826544Y-49471784D01*
X133758624Y-49307812D01*
X133724000Y-49133741D01*
X133724000Y-48956259D01*
X133758624Y-48782188D01*
X133826544Y-48618216D01*
X133925147Y-48470646D01*
X134050646Y-48345147D01*
X134198216Y-48246544D01*
X134362188Y-48178624D01*
X134511488Y-48148927D01*
X134536258Y-48144000D01*
X134713742Y-48144000D01*
X134738512Y-48148927D01*
G37*
G36*
X170580228Y-48132703D02*
G01*
X170735100Y-48196853D01*
X170874481Y-48289985D01*
X170993015Y-48408519D01*
X171086147Y-48547900D01*
X171150297Y-48702772D01*
X171183000Y-48867184D01*
X171183000Y-49034816D01*
X171150297Y-49199228D01*
X171086147Y-49354100D01*
X170993015Y-49493481D01*
X170874481Y-49612015D01*
X170735100Y-49705147D01*
X170580228Y-49769297D01*
X170415816Y-49802000D01*
X170248184Y-49802000D01*
X170083772Y-49769297D01*
X169928900Y-49705147D01*
X169789519Y-49612015D01*
X169670985Y-49493481D01*
X169577853Y-49354100D01*
X169513703Y-49199228D01*
X169481000Y-49034816D01*
X169481000Y-48867184D01*
X169513703Y-48702772D01*
X169577853Y-48547900D01*
X169670985Y-48408519D01*
X169789519Y-48289985D01*
X169928900Y-48196853D01*
X170083772Y-48132703D01*
X170248184Y-48100000D01*
X170415816Y-48100000D01*
X170580228Y-48132703D01*
G37*
G36*
X183280228Y-48132703D02*
G01*
X183435100Y-48196853D01*
X183574481Y-48289985D01*
X183693015Y-48408519D01*
X183786147Y-48547900D01*
X183850297Y-48702772D01*
X183883000Y-48867184D01*
X183883000Y-49034816D01*
X183850297Y-49199228D01*
X183786147Y-49354100D01*
X183693015Y-49493481D01*
X183574481Y-49612015D01*
X183435100Y-49705147D01*
X183280228Y-49769297D01*
X183115816Y-49802000D01*
X182948184Y-49802000D01*
X182783772Y-49769297D01*
X182628900Y-49705147D01*
X182489519Y-49612015D01*
X182370985Y-49493481D01*
X182277853Y-49354100D01*
X182213703Y-49199228D01*
X182181000Y-49034816D01*
X182181000Y-48867184D01*
X182213703Y-48702772D01*
X182277853Y-48547900D01*
X182370985Y-48408519D01*
X182489519Y-48289985D01*
X182628900Y-48196853D01*
X182783772Y-48132703D01*
X182948184Y-48100000D01*
X183115816Y-48100000D01*
X183280228Y-48132703D01*
G37*
G36*
X206981265Y-47303456D02*
G01*
X207101981Y-47327468D01*
X207284151Y-47402926D01*
X207448100Y-47512473D01*
X207587527Y-47651900D01*
X207697074Y-47815849D01*
X207772532Y-47998019D01*
X207811000Y-48191410D01*
X207811000Y-48388590D01*
X207772532Y-48581981D01*
X207697074Y-48764151D01*
X207587527Y-48928100D01*
X207448100Y-49067527D01*
X207284151Y-49177074D01*
X207101981Y-49252532D01*
X206908591Y-49291000D01*
X206711409Y-49291000D01*
X206614715Y-49271766D01*
X206518019Y-49252532D01*
X206335849Y-49177074D01*
X206171900Y-49067527D01*
X206032473Y-48928100D01*
X205922926Y-48764151D01*
X205847468Y-48581981D01*
X205809000Y-48388590D01*
X205809000Y-48191410D01*
X205847468Y-47998019D01*
X205922926Y-47815849D01*
X206032473Y-47651900D01*
X206171900Y-47512473D01*
X206335849Y-47402926D01*
X206518019Y-47327468D01*
X206638735Y-47303456D01*
X206711409Y-47289000D01*
X206908591Y-47289000D01*
X206981265Y-47303456D01*
G37*
G36*
X204441265Y-47303456D02*
G01*
X204561981Y-47327468D01*
X204744151Y-47402926D01*
X204908100Y-47512473D01*
X205047527Y-47651900D01*
X205157074Y-47815849D01*
X205232532Y-47998019D01*
X205271000Y-48191410D01*
X205271000Y-48388590D01*
X205232532Y-48581981D01*
X205157074Y-48764151D01*
X205047527Y-48928100D01*
X204908100Y-49067527D01*
X204744151Y-49177074D01*
X204561981Y-49252532D01*
X204368591Y-49291000D01*
X204171409Y-49291000D01*
X204074715Y-49271766D01*
X203978019Y-49252532D01*
X203795849Y-49177074D01*
X203631900Y-49067527D01*
X203492473Y-48928100D01*
X203382926Y-48764151D01*
X203307468Y-48581981D01*
X203269000Y-48388590D01*
X203269000Y-48191410D01*
X203307468Y-47998019D01*
X203382926Y-47815849D01*
X203492473Y-47651900D01*
X203631900Y-47512473D01*
X203795849Y-47402926D01*
X203978019Y-47327468D01*
X204098735Y-47303456D01*
X204171409Y-47289000D01*
X204368591Y-47289000D01*
X204441265Y-47303456D01*
G37*
G36*
X201901265Y-47303456D02*
G01*
X202021981Y-47327468D01*
X202204151Y-47402926D01*
X202368100Y-47512473D01*
X202507527Y-47651900D01*
X202617074Y-47815849D01*
X202692532Y-47998019D01*
X202731000Y-48191410D01*
X202731000Y-48388590D01*
X202692532Y-48581981D01*
X202617074Y-48764151D01*
X202507527Y-48928100D01*
X202368100Y-49067527D01*
X202204151Y-49177074D01*
X202021981Y-49252532D01*
X201828591Y-49291000D01*
X201631409Y-49291000D01*
X201534715Y-49271766D01*
X201438019Y-49252532D01*
X201255849Y-49177074D01*
X201091900Y-49067527D01*
X200952473Y-48928100D01*
X200842926Y-48764151D01*
X200767468Y-48581981D01*
X200729000Y-48388590D01*
X200729000Y-48191410D01*
X200767468Y-47998019D01*
X200842926Y-47815849D01*
X200952473Y-47651900D01*
X201091900Y-47512473D01*
X201255849Y-47402926D01*
X201438019Y-47327468D01*
X201558735Y-47303456D01*
X201631409Y-47289000D01*
X201828591Y-47289000D01*
X201901265Y-47303456D01*
G37*
G36*
X199361265Y-47303456D02*
G01*
X199481981Y-47327468D01*
X199664151Y-47402926D01*
X199828100Y-47512473D01*
X199967527Y-47651900D01*
X200077074Y-47815849D01*
X200152532Y-47998019D01*
X200191000Y-48191410D01*
X200191000Y-48388590D01*
X200152532Y-48581981D01*
X200077074Y-48764151D01*
X199967527Y-48928100D01*
X199828100Y-49067527D01*
X199664151Y-49177074D01*
X199481981Y-49252532D01*
X199288591Y-49291000D01*
X199091409Y-49291000D01*
X198994715Y-49271766D01*
X198898019Y-49252532D01*
X198715849Y-49177074D01*
X198551900Y-49067527D01*
X198412473Y-48928100D01*
X198302926Y-48764151D01*
X198227468Y-48581981D01*
X198189000Y-48388590D01*
X198189000Y-48191410D01*
X198227468Y-47998019D01*
X198302926Y-47815849D01*
X198412473Y-47651900D01*
X198551900Y-47512473D01*
X198715849Y-47402926D01*
X198898019Y-47327468D01*
X199018735Y-47303456D01*
X199091409Y-47289000D01*
X199288591Y-47289000D01*
X199361265Y-47303456D01*
G37*
G36*
X189271400Y-47775942D02*
G01*
X186833000Y-47775942D01*
X186833000Y-46353542D01*
X189271400Y-46353542D01*
X189271400Y-47775942D01*
G37*
G36*
X134738512Y-45608927D02*
G01*
X134887812Y-45638624D01*
X135051784Y-45706544D01*
X135199354Y-45805147D01*
X135324853Y-45930646D01*
X135423456Y-46078216D01*
X135491376Y-46242188D01*
X135526000Y-46416259D01*
X135526000Y-46593741D01*
X135491376Y-46767812D01*
X135423456Y-46931784D01*
X135324853Y-47079354D01*
X135199354Y-47204853D01*
X135051784Y-47303456D01*
X134887812Y-47371376D01*
X134738512Y-47401073D01*
X134713742Y-47406000D01*
X134536258Y-47406000D01*
X134511488Y-47401073D01*
X134362188Y-47371376D01*
X134198216Y-47303456D01*
X134050646Y-47204853D01*
X133925147Y-47079354D01*
X133826544Y-46931784D01*
X133758624Y-46767812D01*
X133724000Y-46593741D01*
X133724000Y-46416259D01*
X133758624Y-46242188D01*
X133826544Y-46078216D01*
X133925147Y-45930646D01*
X134050646Y-45805147D01*
X134198216Y-45706544D01*
X134362188Y-45638624D01*
X134511488Y-45608927D01*
X134536258Y-45604000D01*
X134713742Y-45604000D01*
X134738512Y-45608927D01*
G37*
G36*
X183280228Y-45592703D02*
G01*
X183435100Y-45656853D01*
X183574481Y-45749985D01*
X183693015Y-45868519D01*
X183786147Y-46007900D01*
X183850297Y-46162772D01*
X183883000Y-46327184D01*
X183883000Y-46494816D01*
X183850297Y-46659228D01*
X183786147Y-46814100D01*
X183693015Y-46953481D01*
X183574481Y-47072015D01*
X183435100Y-47165147D01*
X183280228Y-47229297D01*
X183115816Y-47262000D01*
X182948184Y-47262000D01*
X182783772Y-47229297D01*
X182628900Y-47165147D01*
X182489519Y-47072015D01*
X182370985Y-46953481D01*
X182277853Y-46814100D01*
X182213703Y-46659228D01*
X182181000Y-46494816D01*
X182181000Y-46327184D01*
X182213703Y-46162772D01*
X182277853Y-46007900D01*
X182370985Y-45868519D01*
X182489519Y-45749985D01*
X182628900Y-45656853D01*
X182783772Y-45592703D01*
X182948184Y-45560000D01*
X183115816Y-45560000D01*
X183280228Y-45592703D01*
G37*
G36*
X170580228Y-45592703D02*
G01*
X170735100Y-45656853D01*
X170874481Y-45749985D01*
X170993015Y-45868519D01*
X171086147Y-46007900D01*
X171150297Y-46162772D01*
X171183000Y-46327184D01*
X171183000Y-46494816D01*
X171150297Y-46659228D01*
X171086147Y-46814100D01*
X170993015Y-46953481D01*
X170874481Y-47072015D01*
X170735100Y-47165147D01*
X170580228Y-47229297D01*
X170415816Y-47262000D01*
X170248184Y-47262000D01*
X170083772Y-47229297D01*
X169928900Y-47165147D01*
X169789519Y-47072015D01*
X169670985Y-46953481D01*
X169577853Y-46814100D01*
X169513703Y-46659228D01*
X169481000Y-46494816D01*
X169481000Y-46327184D01*
X169513703Y-46162772D01*
X169577853Y-46007900D01*
X169670985Y-45868519D01*
X169789519Y-45749985D01*
X169928900Y-45656853D01*
X170083772Y-45592703D01*
X170248184Y-45560000D01*
X170415816Y-45560000D01*
X170580228Y-45592703D01*
G37*
G36*
X196801000Y-46151000D02*
G01*
X194799000Y-46151000D01*
X194799000Y-45249000D01*
X196801000Y-45249000D01*
X196801000Y-46151000D01*
G37*
G36*
X193801000Y-45201000D02*
G01*
X191799000Y-45201000D01*
X191799000Y-44299000D01*
X193801000Y-44299000D01*
X193801000Y-45201000D01*
G37*
G36*
X189699499Y-43978445D02*
G01*
X189736995Y-43989820D01*
X189771554Y-44008292D01*
X189801847Y-44033153D01*
X189826708Y-44063446D01*
X189845180Y-44098005D01*
X189856555Y-44135501D01*
X189861000Y-44180638D01*
X189861000Y-44819362D01*
X189856555Y-44864499D01*
X189845180Y-44901995D01*
X189826708Y-44936554D01*
X189801847Y-44966847D01*
X189771554Y-44991708D01*
X189736995Y-45010180D01*
X189699499Y-45021555D01*
X189654362Y-45026000D01*
X188915638Y-45026000D01*
X188870501Y-45021555D01*
X188833005Y-45010180D01*
X188798446Y-44991708D01*
X188768153Y-44966847D01*
X188743292Y-44936554D01*
X188724820Y-44901995D01*
X188713445Y-44864499D01*
X188709000Y-44819362D01*
X188709000Y-44180638D01*
X188713445Y-44135501D01*
X188724820Y-44098005D01*
X188743292Y-44063446D01*
X188768153Y-44033153D01*
X188798446Y-44008292D01*
X188833005Y-43989820D01*
X188870501Y-43978445D01*
X188915638Y-43974000D01*
X189654362Y-43974000D01*
X189699499Y-43978445D01*
G37*
G36*
X187949499Y-43978445D02*
G01*
X187986995Y-43989820D01*
X188021554Y-44008292D01*
X188051847Y-44033153D01*
X188076708Y-44063446D01*
X188095180Y-44098005D01*
X188106555Y-44135501D01*
X188111000Y-44180638D01*
X188111000Y-44819362D01*
X188106555Y-44864499D01*
X188095180Y-44901995D01*
X188076708Y-44936554D01*
X188051847Y-44966847D01*
X188021554Y-44991708D01*
X187986995Y-45010180D01*
X187949499Y-45021555D01*
X187904362Y-45026000D01*
X187165638Y-45026000D01*
X187120501Y-45021555D01*
X187083005Y-45010180D01*
X187048446Y-44991708D01*
X187018153Y-44966847D01*
X186993292Y-44936554D01*
X186974820Y-44901995D01*
X186963445Y-44864499D01*
X186959000Y-44819362D01*
X186959000Y-44180638D01*
X186963445Y-44135501D01*
X186974820Y-44098005D01*
X186993292Y-44063446D01*
X187018153Y-44033153D01*
X187048446Y-44008292D01*
X187083005Y-43989820D01*
X187120501Y-43978445D01*
X187165638Y-43974000D01*
X187904362Y-43974000D01*
X187949499Y-43978445D01*
G37*
G36*
X127018784Y-43220003D02*
G01*
X127187812Y-43253624D01*
X127351784Y-43321544D01*
X127499354Y-43420147D01*
X127624853Y-43545646D01*
X127723456Y-43693216D01*
X127791376Y-43857188D01*
X127826000Y-44031259D01*
X127826000Y-44208741D01*
X127791376Y-44382812D01*
X127723456Y-44546784D01*
X127624853Y-44694354D01*
X127499354Y-44819853D01*
X127351784Y-44918456D01*
X127187812Y-44986376D01*
X127038512Y-45016073D01*
X127013742Y-45021000D01*
X126836258Y-45021000D01*
X126811488Y-45016073D01*
X126662188Y-44986376D01*
X126498216Y-44918456D01*
X126350646Y-44819853D01*
X126225147Y-44694354D01*
X126126544Y-44546784D01*
X126058624Y-44382812D01*
X126024000Y-44208741D01*
X126024000Y-44031259D01*
X126058624Y-43857188D01*
X126126544Y-43693216D01*
X126225147Y-43545646D01*
X126350646Y-43420147D01*
X126498216Y-43321544D01*
X126662188Y-43253624D01*
X126831216Y-43220003D01*
X126836258Y-43219000D01*
X127013742Y-43219000D01*
X127018784Y-43220003D01*
G37*
G36*
X124478784Y-43220003D02*
G01*
X124647812Y-43253624D01*
X124811784Y-43321544D01*
X124959354Y-43420147D01*
X125084853Y-43545646D01*
X125183456Y-43693216D01*
X125251376Y-43857188D01*
X125286000Y-44031259D01*
X125286000Y-44208741D01*
X125251376Y-44382812D01*
X125183456Y-44546784D01*
X125084853Y-44694354D01*
X124959354Y-44819853D01*
X124811784Y-44918456D01*
X124647812Y-44986376D01*
X124498512Y-45016073D01*
X124473742Y-45021000D01*
X124296258Y-45021000D01*
X124271488Y-45016073D01*
X124122188Y-44986376D01*
X123958216Y-44918456D01*
X123810646Y-44819853D01*
X123685147Y-44694354D01*
X123586544Y-44546784D01*
X123518624Y-44382812D01*
X123484000Y-44208741D01*
X123484000Y-44031259D01*
X123518624Y-43857188D01*
X123586544Y-43693216D01*
X123685147Y-43545646D01*
X123810646Y-43420147D01*
X123958216Y-43321544D01*
X124122188Y-43253624D01*
X124291216Y-43220003D01*
X124296258Y-43219000D01*
X124473742Y-43219000D01*
X124478784Y-43220003D01*
G37*
G36*
X134738512Y-43068927D02*
G01*
X134887812Y-43098624D01*
X135051784Y-43166544D01*
X135199354Y-43265147D01*
X135324853Y-43390646D01*
X135423456Y-43538216D01*
X135491376Y-43702188D01*
X135526000Y-43876259D01*
X135526000Y-44053741D01*
X135491376Y-44227812D01*
X135423456Y-44391784D01*
X135324853Y-44539354D01*
X135199354Y-44664853D01*
X135051784Y-44763456D01*
X134887812Y-44831376D01*
X134738512Y-44861073D01*
X134713742Y-44866000D01*
X134536258Y-44866000D01*
X134511488Y-44861073D01*
X134362188Y-44831376D01*
X134198216Y-44763456D01*
X134050646Y-44664853D01*
X133925147Y-44539354D01*
X133826544Y-44391784D01*
X133758624Y-44227812D01*
X133724000Y-44053741D01*
X133724000Y-43876259D01*
X133758624Y-43702188D01*
X133826544Y-43538216D01*
X133925147Y-43390646D01*
X134050646Y-43265147D01*
X134198216Y-43166544D01*
X134362188Y-43098624D01*
X134511488Y-43068927D01*
X134536258Y-43064000D01*
X134713742Y-43064000D01*
X134738512Y-43068927D01*
G37*
G36*
X183280228Y-43052703D02*
G01*
X183435100Y-43116853D01*
X183574481Y-43209985D01*
X183693015Y-43328519D01*
X183786147Y-43467900D01*
X183850297Y-43622772D01*
X183883000Y-43787184D01*
X183883000Y-43954816D01*
X183850297Y-44119228D01*
X183786147Y-44274100D01*
X183693015Y-44413481D01*
X183574481Y-44532015D01*
X183435100Y-44625147D01*
X183280228Y-44689297D01*
X183115816Y-44722000D01*
X182948184Y-44722000D01*
X182783772Y-44689297D01*
X182628900Y-44625147D01*
X182489519Y-44532015D01*
X182370985Y-44413481D01*
X182277853Y-44274100D01*
X182213703Y-44119228D01*
X182181000Y-43954816D01*
X182181000Y-43787184D01*
X182213703Y-43622772D01*
X182277853Y-43467900D01*
X182370985Y-43328519D01*
X182489519Y-43209985D01*
X182628900Y-43116853D01*
X182783772Y-43052703D01*
X182948184Y-43020000D01*
X183115816Y-43020000D01*
X183280228Y-43052703D01*
G37*
G36*
X170580228Y-43052703D02*
G01*
X170735100Y-43116853D01*
X170874481Y-43209985D01*
X170993015Y-43328519D01*
X171086147Y-43467900D01*
X171150297Y-43622772D01*
X171183000Y-43787184D01*
X171183000Y-43954816D01*
X171150297Y-44119228D01*
X171086147Y-44274100D01*
X170993015Y-44413481D01*
X170874481Y-44532015D01*
X170735100Y-44625147D01*
X170580228Y-44689297D01*
X170415816Y-44722000D01*
X170248184Y-44722000D01*
X170083772Y-44689297D01*
X169928900Y-44625147D01*
X169789519Y-44532015D01*
X169670985Y-44413481D01*
X169577853Y-44274100D01*
X169513703Y-44119228D01*
X169481000Y-43954816D01*
X169481000Y-43787184D01*
X169513703Y-43622772D01*
X169577853Y-43467900D01*
X169670985Y-43328519D01*
X169789519Y-43209985D01*
X169928900Y-43116853D01*
X170083772Y-43052703D01*
X170248184Y-43020000D01*
X170415816Y-43020000D01*
X170580228Y-43052703D01*
G37*
G36*
X196801000Y-44251000D02*
G01*
X194799000Y-44251000D01*
X194799000Y-43349000D01*
X196801000Y-43349000D01*
X196801000Y-44251000D01*
G37*
G36*
X198374549Y-41071116D02*
G01*
X198485734Y-41093232D01*
X198695203Y-41179997D01*
X198883720Y-41305960D01*
X199044040Y-41466280D01*
X199170003Y-41654797D01*
X199251598Y-41851784D01*
X199256768Y-41864267D01*
X199301000Y-42086635D01*
X199301000Y-42313365D01*
X199278884Y-42424549D01*
X199256768Y-42535734D01*
X199170003Y-42745203D01*
X199044040Y-42933720D01*
X198883720Y-43094040D01*
X198695203Y-43220003D01*
X198485734Y-43306768D01*
X198376384Y-43328519D01*
X198263365Y-43351000D01*
X198036635Y-43351000D01*
X197923616Y-43328519D01*
X197814266Y-43306768D01*
X197604797Y-43220003D01*
X197416280Y-43094040D01*
X197255960Y-42933720D01*
X197129997Y-42745203D01*
X197043232Y-42535734D01*
X197021116Y-42424549D01*
X196999000Y-42313365D01*
X196999000Y-42086635D01*
X197043232Y-41864267D01*
X197048403Y-41851784D01*
X197129997Y-41654797D01*
X197255960Y-41466280D01*
X197416280Y-41305960D01*
X197604797Y-41179997D01*
X197814266Y-41093232D01*
X197925451Y-41071116D01*
X198036635Y-41049000D01*
X198263365Y-41049000D01*
X198374549Y-41071116D01*
G37*
G36*
X189271400Y-43173171D02*
G01*
X186833000Y-43173171D01*
X186833000Y-41750771D01*
X189271400Y-41750771D01*
X189271400Y-43173171D01*
G37*
G36*
X127038512Y-40683927D02*
G01*
X127187812Y-40713624D01*
X127351784Y-40781544D01*
X127499354Y-40880147D01*
X127624853Y-41005646D01*
X127723456Y-41153216D01*
X127791376Y-41317188D01*
X127826000Y-41491259D01*
X127826000Y-41668741D01*
X127791376Y-41842812D01*
X127723456Y-42006784D01*
X127624853Y-42154354D01*
X127499354Y-42279853D01*
X127351784Y-42378456D01*
X127187812Y-42446376D01*
X127038512Y-42476073D01*
X127013742Y-42481000D01*
X126836258Y-42481000D01*
X126811488Y-42476073D01*
X126662188Y-42446376D01*
X126498216Y-42378456D01*
X126350646Y-42279853D01*
X126225147Y-42154354D01*
X126126544Y-42006784D01*
X126058624Y-41842812D01*
X126024000Y-41668741D01*
X126024000Y-41491259D01*
X126058624Y-41317188D01*
X126126544Y-41153216D01*
X126225147Y-41005646D01*
X126350646Y-40880147D01*
X126498216Y-40781544D01*
X126662188Y-40713624D01*
X126811488Y-40683927D01*
X126836258Y-40679000D01*
X127013742Y-40679000D01*
X127038512Y-40683927D01*
G37*
G36*
X124498512Y-40683927D02*
G01*
X124647812Y-40713624D01*
X124811784Y-40781544D01*
X124959354Y-40880147D01*
X125084853Y-41005646D01*
X125183456Y-41153216D01*
X125251376Y-41317188D01*
X125286000Y-41491259D01*
X125286000Y-41668741D01*
X125251376Y-41842812D01*
X125183456Y-42006784D01*
X125084853Y-42154354D01*
X124959354Y-42279853D01*
X124811784Y-42378456D01*
X124647812Y-42446376D01*
X124498512Y-42476073D01*
X124473742Y-42481000D01*
X124296258Y-42481000D01*
X124271488Y-42476073D01*
X124122188Y-42446376D01*
X123958216Y-42378456D01*
X123810646Y-42279853D01*
X123685147Y-42154354D01*
X123586544Y-42006784D01*
X123518624Y-41842812D01*
X123484000Y-41668741D01*
X123484000Y-41491259D01*
X123518624Y-41317188D01*
X123586544Y-41153216D01*
X123685147Y-41005646D01*
X123810646Y-40880147D01*
X123958216Y-40781544D01*
X124122188Y-40713624D01*
X124271488Y-40683927D01*
X124296258Y-40679000D01*
X124473742Y-40679000D01*
X124498512Y-40683927D01*
G37*
G36*
X134738512Y-40528927D02*
G01*
X134887812Y-40558624D01*
X135051784Y-40626544D01*
X135199354Y-40725147D01*
X135324853Y-40850646D01*
X135423456Y-40998216D01*
X135491376Y-41162188D01*
X135526000Y-41336259D01*
X135526000Y-41513741D01*
X135491376Y-41687812D01*
X135423456Y-41851784D01*
X135324853Y-41999354D01*
X135199354Y-42124853D01*
X135051784Y-42223456D01*
X134887812Y-42291376D01*
X134738512Y-42321073D01*
X134713742Y-42326000D01*
X134536258Y-42326000D01*
X134511488Y-42321073D01*
X134362188Y-42291376D01*
X134198216Y-42223456D01*
X134050646Y-42124853D01*
X133925147Y-41999354D01*
X133826544Y-41851784D01*
X133758624Y-41687812D01*
X133724000Y-41513741D01*
X133724000Y-41336259D01*
X133758624Y-41162188D01*
X133826544Y-40998216D01*
X133925147Y-40850646D01*
X134050646Y-40725147D01*
X134198216Y-40626544D01*
X134362188Y-40558624D01*
X134511488Y-40528927D01*
X134536258Y-40524000D01*
X134713742Y-40524000D01*
X134738512Y-40528927D01*
G37*
G36*
X183280228Y-40512703D02*
G01*
X183435100Y-40576853D01*
X183574481Y-40669985D01*
X183693015Y-40788519D01*
X183786147Y-40927900D01*
X183850297Y-41082772D01*
X183883000Y-41247184D01*
X183883000Y-41414816D01*
X183850297Y-41579228D01*
X183786147Y-41734100D01*
X183693015Y-41873481D01*
X183574481Y-41992015D01*
X183435100Y-42085147D01*
X183280228Y-42149297D01*
X183115816Y-42182000D01*
X182948184Y-42182000D01*
X182783772Y-42149297D01*
X182628900Y-42085147D01*
X182489519Y-41992015D01*
X182370985Y-41873481D01*
X182277853Y-41734100D01*
X182213703Y-41579228D01*
X182181000Y-41414816D01*
X182181000Y-41247184D01*
X182213703Y-41082772D01*
X182277853Y-40927900D01*
X182370985Y-40788519D01*
X182489519Y-40669985D01*
X182628900Y-40576853D01*
X182783772Y-40512703D01*
X182948184Y-40480000D01*
X183115816Y-40480000D01*
X183280228Y-40512703D01*
G37*
G36*
X170580228Y-40512703D02*
G01*
X170735100Y-40576853D01*
X170874481Y-40669985D01*
X170993015Y-40788519D01*
X171086147Y-40927900D01*
X171150297Y-41082772D01*
X171183000Y-41247184D01*
X171183000Y-41414816D01*
X171150297Y-41579228D01*
X171086147Y-41734100D01*
X170993015Y-41873481D01*
X170874481Y-41992015D01*
X170735100Y-42085147D01*
X170580228Y-42149297D01*
X170415816Y-42182000D01*
X170248184Y-42182000D01*
X170083772Y-42149297D01*
X169928900Y-42085147D01*
X169789519Y-41992015D01*
X169670985Y-41873481D01*
X169577853Y-41734100D01*
X169513703Y-41579228D01*
X169481000Y-41414816D01*
X169481000Y-41247184D01*
X169513703Y-41082772D01*
X169577853Y-40927900D01*
X169670985Y-40788519D01*
X169789519Y-40669985D01*
X169928900Y-40576853D01*
X170083772Y-40512703D01*
X170248184Y-40480000D01*
X170415816Y-40480000D01*
X170580228Y-40512703D01*
G37*
G36*
X195451600Y-42052171D02*
G01*
X193048400Y-42052171D01*
X193048400Y-38248971D01*
X195451600Y-38248971D01*
X195451600Y-42052171D01*
G37*
G36*
X189271400Y-40861771D02*
G01*
X186833000Y-40861771D01*
X186833000Y-39439371D01*
X189271400Y-39439371D01*
X189271400Y-40861771D01*
G37*
G36*
X202598254Y-36127818D02*
G01*
X202971511Y-36282426D01*
X202971513Y-36282427D01*
X203307436Y-36506884D01*
X203593116Y-36792564D01*
X203781402Y-37074353D01*
X203817574Y-37128489D01*
X203972182Y-37501746D01*
X204051000Y-37897993D01*
X204051000Y-38302007D01*
X203972182Y-38698254D01*
X203858071Y-38973742D01*
X203817573Y-39071513D01*
X203593116Y-39407436D01*
X203307436Y-39693116D01*
X202971513Y-39917573D01*
X202971512Y-39917574D01*
X202971511Y-39917574D01*
X202598254Y-40072182D01*
X202202007Y-40151000D01*
X201797993Y-40151000D01*
X201401746Y-40072182D01*
X201028489Y-39917574D01*
X201028488Y-39917574D01*
X201028487Y-39917573D01*
X200692564Y-39693116D01*
X200406884Y-39407436D01*
X200182427Y-39071513D01*
X200141929Y-38973742D01*
X200027818Y-38698254D01*
X199949000Y-38302007D01*
X199949000Y-37897993D01*
X200027818Y-37501746D01*
X200182426Y-37128489D01*
X200218599Y-37074353D01*
X200406884Y-36792564D01*
X200692564Y-36506884D01*
X201028487Y-36282427D01*
X201028489Y-36282426D01*
X201401746Y-36127818D01*
X201797993Y-36049000D01*
X202202007Y-36049000D01*
X202598254Y-36127818D01*
G37*
G36*
X124498512Y-38143927D02*
G01*
X124647812Y-38173624D01*
X124811784Y-38241544D01*
X124959354Y-38340147D01*
X125084853Y-38465646D01*
X125183456Y-38613216D01*
X125251376Y-38777188D01*
X125286000Y-38951259D01*
X125286000Y-39128741D01*
X125251376Y-39302812D01*
X125183456Y-39466784D01*
X125084853Y-39614354D01*
X124959354Y-39739853D01*
X124811784Y-39838456D01*
X124647812Y-39906376D01*
X124498512Y-39936073D01*
X124473742Y-39941000D01*
X124296258Y-39941000D01*
X124271488Y-39936073D01*
X124122188Y-39906376D01*
X123958216Y-39838456D01*
X123810646Y-39739853D01*
X123685147Y-39614354D01*
X123586544Y-39466784D01*
X123518624Y-39302812D01*
X123484000Y-39128741D01*
X123484000Y-38951259D01*
X123518624Y-38777188D01*
X123586544Y-38613216D01*
X123685147Y-38465646D01*
X123810646Y-38340147D01*
X123958216Y-38241544D01*
X124122188Y-38173624D01*
X124271488Y-38143927D01*
X124296258Y-38139000D01*
X124473742Y-38139000D01*
X124498512Y-38143927D01*
G37*
G36*
X127038512Y-38143927D02*
G01*
X127187812Y-38173624D01*
X127351784Y-38241544D01*
X127499354Y-38340147D01*
X127624853Y-38465646D01*
X127723456Y-38613216D01*
X127791376Y-38777188D01*
X127826000Y-38951259D01*
X127826000Y-39128741D01*
X127791376Y-39302812D01*
X127723456Y-39466784D01*
X127624853Y-39614354D01*
X127499354Y-39739853D01*
X127351784Y-39838456D01*
X127187812Y-39906376D01*
X127038512Y-39936073D01*
X127013742Y-39941000D01*
X126836258Y-39941000D01*
X126811488Y-39936073D01*
X126662188Y-39906376D01*
X126498216Y-39838456D01*
X126350646Y-39739853D01*
X126225147Y-39614354D01*
X126126544Y-39466784D01*
X126058624Y-39302812D01*
X126024000Y-39128741D01*
X126024000Y-38951259D01*
X126058624Y-38777188D01*
X126126544Y-38613216D01*
X126225147Y-38465646D01*
X126350646Y-38340147D01*
X126498216Y-38241544D01*
X126662188Y-38173624D01*
X126811488Y-38143927D01*
X126836258Y-38139000D01*
X127013742Y-38139000D01*
X127038512Y-38143927D01*
G37*
G36*
X134738512Y-37988927D02*
G01*
X134887812Y-38018624D01*
X135051784Y-38086544D01*
X135199354Y-38185147D01*
X135324853Y-38310646D01*
X135423456Y-38458216D01*
X135491376Y-38622188D01*
X135526000Y-38796259D01*
X135526000Y-38973741D01*
X135491376Y-39147812D01*
X135423456Y-39311784D01*
X135324853Y-39459354D01*
X135199354Y-39584853D01*
X135051784Y-39683456D01*
X134887812Y-39751376D01*
X134738512Y-39781073D01*
X134713742Y-39786000D01*
X134536258Y-39786000D01*
X134511488Y-39781073D01*
X134362188Y-39751376D01*
X134198216Y-39683456D01*
X134050646Y-39584853D01*
X133925147Y-39459354D01*
X133826544Y-39311784D01*
X133758624Y-39147812D01*
X133724000Y-38973741D01*
X133724000Y-38796259D01*
X133758624Y-38622188D01*
X133826544Y-38458216D01*
X133925147Y-38310646D01*
X134050646Y-38185147D01*
X134198216Y-38086544D01*
X134362188Y-38018624D01*
X134511488Y-37988927D01*
X134536258Y-37984000D01*
X134713742Y-37984000D01*
X134738512Y-37988927D01*
G37*
G36*
X189271400Y-38550371D02*
G01*
X186833000Y-38550371D01*
X186833000Y-37127971D01*
X189271400Y-37127971D01*
X189271400Y-38550371D01*
G37*
G36*
X124498512Y-35603927D02*
G01*
X124647812Y-35633624D01*
X124811784Y-35701544D01*
X124959354Y-35800147D01*
X125084853Y-35925646D01*
X125183456Y-36073216D01*
X125251376Y-36237188D01*
X125286000Y-36411259D01*
X125286000Y-36588741D01*
X125251376Y-36762812D01*
X125183456Y-36926784D01*
X125084853Y-37074354D01*
X124959354Y-37199853D01*
X124811784Y-37298456D01*
X124647812Y-37366376D01*
X124498512Y-37396073D01*
X124473742Y-37401000D01*
X124296258Y-37401000D01*
X124271488Y-37396073D01*
X124122188Y-37366376D01*
X123958216Y-37298456D01*
X123810646Y-37199853D01*
X123685147Y-37074354D01*
X123586544Y-36926784D01*
X123518624Y-36762812D01*
X123484000Y-36588741D01*
X123484000Y-36411259D01*
X123518624Y-36237188D01*
X123586544Y-36073216D01*
X123685147Y-35925646D01*
X123810646Y-35800147D01*
X123958216Y-35701544D01*
X124122188Y-35633624D01*
X124271488Y-35603927D01*
X124296258Y-35599000D01*
X124473742Y-35599000D01*
X124498512Y-35603927D01*
G37*
G36*
X127826000Y-37401000D02*
G01*
X126024000Y-37401000D01*
X126024000Y-35599000D01*
X127826000Y-35599000D01*
X127826000Y-37401000D01*
G37*
G36*
X135526000Y-37246000D02*
G01*
X133724000Y-37246000D01*
X133724000Y-35444000D01*
X135526000Y-35444000D01*
X135526000Y-37246000D01*
G37*
G36*
X196851000Y-36901000D02*
G01*
X194849000Y-36901000D01*
X194849000Y-35999000D01*
X196851000Y-35999000D01*
X196851000Y-36901000D01*
G37*
G36*
X190264499Y-35008445D02*
G01*
X190301995Y-35019820D01*
X190336554Y-35038292D01*
X190366847Y-35063153D01*
X190391708Y-35093446D01*
X190410180Y-35128005D01*
X190421555Y-35165501D01*
X190426000Y-35210638D01*
X190426000Y-35849362D01*
X190421555Y-35894499D01*
X190410180Y-35931995D01*
X190391708Y-35966554D01*
X190366847Y-35996847D01*
X190336554Y-36021708D01*
X190301995Y-36040180D01*
X190264499Y-36051555D01*
X190219362Y-36056000D01*
X189480638Y-36056000D01*
X189435501Y-36051555D01*
X189398005Y-36040180D01*
X189363446Y-36021708D01*
X189333153Y-35996847D01*
X189308292Y-35966554D01*
X189289820Y-35931995D01*
X189278445Y-35894499D01*
X189274000Y-35849362D01*
X189274000Y-35210638D01*
X189278445Y-35165501D01*
X189289820Y-35128005D01*
X189308292Y-35093446D01*
X189333153Y-35063153D01*
X189363446Y-35038292D01*
X189398005Y-35019820D01*
X189435501Y-35008445D01*
X189480638Y-35004000D01*
X190219362Y-35004000D01*
X190264499Y-35008445D01*
G37*
G36*
X188514499Y-35008445D02*
G01*
X188551995Y-35019820D01*
X188586554Y-35038292D01*
X188616847Y-35063153D01*
X188641708Y-35093446D01*
X188660180Y-35128005D01*
X188671555Y-35165501D01*
X188676000Y-35210638D01*
X188676000Y-35849362D01*
X188671555Y-35894499D01*
X188660180Y-35931995D01*
X188641708Y-35966554D01*
X188616847Y-35996847D01*
X188586554Y-36021708D01*
X188551995Y-36040180D01*
X188514499Y-36051555D01*
X188469362Y-36056000D01*
X187730638Y-36056000D01*
X187685501Y-36051555D01*
X187648005Y-36040180D01*
X187613446Y-36021708D01*
X187583153Y-35996847D01*
X187558292Y-35966554D01*
X187539820Y-35931995D01*
X187528445Y-35894499D01*
X187524000Y-35849362D01*
X187524000Y-35210638D01*
X187528445Y-35165501D01*
X187539820Y-35128005D01*
X187558292Y-35093446D01*
X187583153Y-35063153D01*
X187613446Y-35038292D01*
X187648005Y-35019820D01*
X187685501Y-35008445D01*
X187730638Y-35004000D01*
X188469362Y-35004000D01*
X188514499Y-35008445D01*
G37*
G36*
X193851000Y-35951000D02*
G01*
X191849000Y-35951000D01*
X191849000Y-35049000D01*
X193851000Y-35049000D01*
X193851000Y-35951000D01*
G37*
G36*
X196851000Y-35001000D02*
G01*
X194849000Y-35001000D01*
X194849000Y-34099000D01*
X196851000Y-34099000D01*
X196851000Y-35001000D01*
G37*
G36*
X189271400Y-33947600D02*
G01*
X186833000Y-33947600D01*
X186833000Y-32525200D01*
X189271400Y-32525200D01*
X189271400Y-33947600D01*
G37*
G36*
X195451600Y-32826600D02*
G01*
X193048400Y-32826600D01*
X193048400Y-29023400D01*
X195451600Y-29023400D01*
X195451600Y-32826600D01*
G37*
G36*
X171031903Y-30439587D02*
G01*
X171189068Y-30504687D01*
X171330513Y-30599198D01*
X171450802Y-30719487D01*
X171545313Y-30860932D01*
X171610413Y-31018097D01*
X171643600Y-31184943D01*
X171643600Y-31355057D01*
X171610413Y-31521903D01*
X171545313Y-31679068D01*
X171450802Y-31820513D01*
X171330513Y-31940802D01*
X171189068Y-32035313D01*
X171031903Y-32100413D01*
X170865057Y-32133600D01*
X170694943Y-32133600D01*
X170528097Y-32100413D01*
X170370932Y-32035313D01*
X170229487Y-31940802D01*
X170109198Y-31820513D01*
X170014687Y-31679068D01*
X169949587Y-31521903D01*
X169916400Y-31355057D01*
X169916400Y-31184943D01*
X169949587Y-31018097D01*
X170014687Y-30860932D01*
X170109198Y-30719487D01*
X170229487Y-30599198D01*
X170370932Y-30504687D01*
X170528097Y-30439587D01*
X170694943Y-30406400D01*
X170865057Y-30406400D01*
X171031903Y-30439587D01*
G37*
G36*
X125311903Y-30439587D02*
G01*
X125469068Y-30504687D01*
X125610513Y-30599198D01*
X125730802Y-30719487D01*
X125825313Y-30860932D01*
X125890413Y-31018097D01*
X125923600Y-31184943D01*
X125923600Y-31355057D01*
X125890413Y-31521903D01*
X125825313Y-31679068D01*
X125730802Y-31820513D01*
X125610513Y-31940802D01*
X125469068Y-32035313D01*
X125311903Y-32100413D01*
X125145057Y-32133600D01*
X124974943Y-32133600D01*
X124808097Y-32100413D01*
X124650932Y-32035313D01*
X124509487Y-31940802D01*
X124389198Y-31820513D01*
X124294687Y-31679068D01*
X124229587Y-31521903D01*
X124196400Y-31355057D01*
X124196400Y-31184943D01*
X124229587Y-31018097D01*
X124294687Y-30860932D01*
X124389198Y-30719487D01*
X124509487Y-30599198D01*
X124650932Y-30504687D01*
X124808097Y-30439587D01*
X124974943Y-30406400D01*
X125145057Y-30406400D01*
X125311903Y-30439587D01*
G37*
G36*
X178651903Y-30439587D02*
G01*
X178809068Y-30504687D01*
X178950513Y-30599198D01*
X179070802Y-30719487D01*
X179165313Y-30860932D01*
X179230413Y-31018097D01*
X179263600Y-31184943D01*
X179263600Y-31355057D01*
X179230413Y-31521903D01*
X179165313Y-31679068D01*
X179070802Y-31820513D01*
X178950513Y-31940802D01*
X178809068Y-32035313D01*
X178651903Y-32100413D01*
X178485057Y-32133600D01*
X178314943Y-32133600D01*
X178148097Y-32100413D01*
X177990932Y-32035313D01*
X177849487Y-31940802D01*
X177729198Y-31820513D01*
X177634687Y-31679068D01*
X177569587Y-31521903D01*
X177536400Y-31355057D01*
X177536400Y-31184943D01*
X177569587Y-31018097D01*
X177634687Y-30860932D01*
X177729198Y-30719487D01*
X177849487Y-30599198D01*
X177990932Y-30504687D01*
X178148097Y-30439587D01*
X178314943Y-30406400D01*
X178485057Y-30406400D01*
X178651903Y-30439587D01*
G37*
G36*
X176111903Y-30439587D02*
G01*
X176269068Y-30504687D01*
X176410513Y-30599198D01*
X176530802Y-30719487D01*
X176625313Y-30860932D01*
X176690413Y-31018097D01*
X176723600Y-31184943D01*
X176723600Y-31355057D01*
X176690413Y-31521903D01*
X176625313Y-31679068D01*
X176530802Y-31820513D01*
X176410513Y-31940802D01*
X176269068Y-32035313D01*
X176111903Y-32100413D01*
X175945057Y-32133600D01*
X175774943Y-32133600D01*
X175608097Y-32100413D01*
X175450932Y-32035313D01*
X175309487Y-31940802D01*
X175189198Y-31820513D01*
X175094687Y-31679068D01*
X175029587Y-31521903D01*
X174996400Y-31355057D01*
X174996400Y-31184943D01*
X175029587Y-31018097D01*
X175094687Y-30860932D01*
X175189198Y-30719487D01*
X175309487Y-30599198D01*
X175450932Y-30504687D01*
X175608097Y-30439587D01*
X175774943Y-30406400D01*
X175945057Y-30406400D01*
X176111903Y-30439587D01*
G37*
G36*
X181191903Y-30439587D02*
G01*
X181349068Y-30504687D01*
X181490513Y-30599198D01*
X181610802Y-30719487D01*
X181705313Y-30860932D01*
X181770413Y-31018097D01*
X181803600Y-31184943D01*
X181803600Y-31355057D01*
X181770413Y-31521903D01*
X181705313Y-31679068D01*
X181610802Y-31820513D01*
X181490513Y-31940802D01*
X181349068Y-32035313D01*
X181191903Y-32100413D01*
X181025057Y-32133600D01*
X180854943Y-32133600D01*
X180688097Y-32100413D01*
X180530932Y-32035313D01*
X180389487Y-31940802D01*
X180269198Y-31820513D01*
X180174687Y-31679068D01*
X180109587Y-31521903D01*
X180076400Y-31355057D01*
X180076400Y-31184943D01*
X180109587Y-31018097D01*
X180174687Y-30860932D01*
X180269198Y-30719487D01*
X180389487Y-30599198D01*
X180530932Y-30504687D01*
X180688097Y-30439587D01*
X180854943Y-30406400D01*
X181025057Y-30406400D01*
X181191903Y-30439587D01*
G37*
G36*
X183731903Y-30439587D02*
G01*
X183889068Y-30504687D01*
X184030513Y-30599198D01*
X184150802Y-30719487D01*
X184245313Y-30860932D01*
X184310413Y-31018097D01*
X184343600Y-31184943D01*
X184343600Y-31355057D01*
X184310413Y-31521903D01*
X184245313Y-31679068D01*
X184150802Y-31820513D01*
X184030513Y-31940802D01*
X183889068Y-32035313D01*
X183731903Y-32100413D01*
X183565057Y-32133600D01*
X183394943Y-32133600D01*
X183228097Y-32100413D01*
X183070932Y-32035313D01*
X182929487Y-31940802D01*
X182809198Y-31820513D01*
X182714687Y-31679068D01*
X182649587Y-31521903D01*
X182616400Y-31355057D01*
X182616400Y-31184943D01*
X182649587Y-31018097D01*
X182714687Y-30860932D01*
X182809198Y-30719487D01*
X182929487Y-30599198D01*
X183070932Y-30504687D01*
X183228097Y-30439587D01*
X183394943Y-30406400D01*
X183565057Y-30406400D01*
X183731903Y-30439587D01*
G37*
G36*
X173571903Y-30439587D02*
G01*
X173729068Y-30504687D01*
X173870513Y-30599198D01*
X173990802Y-30719487D01*
X174085313Y-30860932D01*
X174150413Y-31018097D01*
X174183600Y-31184943D01*
X174183600Y-31355057D01*
X174150413Y-31521903D01*
X174085313Y-31679068D01*
X173990802Y-31820513D01*
X173870513Y-31940802D01*
X173729068Y-32035313D01*
X173571903Y-32100413D01*
X173405057Y-32133600D01*
X173234943Y-32133600D01*
X173068097Y-32100413D01*
X172910932Y-32035313D01*
X172769487Y-31940802D01*
X172649198Y-31820513D01*
X172554687Y-31679068D01*
X172489587Y-31521903D01*
X172456400Y-31355057D01*
X172456400Y-31184943D01*
X172489587Y-31018097D01*
X172554687Y-30860932D01*
X172649198Y-30719487D01*
X172769487Y-30599198D01*
X172910932Y-30504687D01*
X173068097Y-30439587D01*
X173234943Y-30406400D01*
X173405057Y-30406400D01*
X173571903Y-30439587D01*
G37*
G36*
X168491903Y-30439587D02*
G01*
X168649068Y-30504687D01*
X168790513Y-30599198D01*
X168910802Y-30719487D01*
X169005313Y-30860932D01*
X169070413Y-31018097D01*
X169103600Y-31184943D01*
X169103600Y-31355057D01*
X169070413Y-31521903D01*
X169005313Y-31679068D01*
X168910802Y-31820513D01*
X168790513Y-31940802D01*
X168649068Y-32035313D01*
X168491903Y-32100413D01*
X168325057Y-32133600D01*
X168154943Y-32133600D01*
X167988097Y-32100413D01*
X167830932Y-32035313D01*
X167689487Y-31940802D01*
X167569198Y-31820513D01*
X167474687Y-31679068D01*
X167409587Y-31521903D01*
X167376400Y-31355057D01*
X167376400Y-31184943D01*
X167409587Y-31018097D01*
X167474687Y-30860932D01*
X167569198Y-30719487D01*
X167689487Y-30599198D01*
X167830932Y-30504687D01*
X167988097Y-30439587D01*
X168154943Y-30406400D01*
X168325057Y-30406400D01*
X168491903Y-30439587D01*
G37*
G36*
X138011903Y-30439587D02*
G01*
X138169068Y-30504687D01*
X138310513Y-30599198D01*
X138430802Y-30719487D01*
X138525313Y-30860932D01*
X138590413Y-31018097D01*
X138623600Y-31184943D01*
X138623600Y-31355057D01*
X138590413Y-31521903D01*
X138525313Y-31679068D01*
X138430802Y-31820513D01*
X138310513Y-31940802D01*
X138169068Y-32035313D01*
X138011903Y-32100413D01*
X137845057Y-32133600D01*
X137674943Y-32133600D01*
X137508097Y-32100413D01*
X137350932Y-32035313D01*
X137209487Y-31940802D01*
X137089198Y-31820513D01*
X136994687Y-31679068D01*
X136929587Y-31521903D01*
X136896400Y-31355057D01*
X136896400Y-31184943D01*
X136929587Y-31018097D01*
X136994687Y-30860932D01*
X137089198Y-30719487D01*
X137209487Y-30599198D01*
X137350932Y-30504687D01*
X137508097Y-30439587D01*
X137674943Y-30406400D01*
X137845057Y-30406400D01*
X138011903Y-30439587D01*
G37*
G36*
X163411903Y-30439587D02*
G01*
X163569068Y-30504687D01*
X163710513Y-30599198D01*
X163830802Y-30719487D01*
X163925313Y-30860932D01*
X163990413Y-31018097D01*
X164023600Y-31184943D01*
X164023600Y-31355057D01*
X163990413Y-31521903D01*
X163925313Y-31679068D01*
X163830802Y-31820513D01*
X163710513Y-31940802D01*
X163569068Y-32035313D01*
X163411903Y-32100413D01*
X163245057Y-32133600D01*
X163074943Y-32133600D01*
X162908097Y-32100413D01*
X162750932Y-32035313D01*
X162609487Y-31940802D01*
X162489198Y-31820513D01*
X162394687Y-31679068D01*
X162329587Y-31521903D01*
X162296400Y-31355057D01*
X162296400Y-31184943D01*
X162329587Y-31018097D01*
X162394687Y-30860932D01*
X162489198Y-30719487D01*
X162609487Y-30599198D01*
X162750932Y-30504687D01*
X162908097Y-30439587D01*
X163074943Y-30406400D01*
X163245057Y-30406400D01*
X163411903Y-30439587D01*
G37*
G36*
X160871903Y-30439587D02*
G01*
X161029068Y-30504687D01*
X161170513Y-30599198D01*
X161290802Y-30719487D01*
X161385313Y-30860932D01*
X161450413Y-31018097D01*
X161483600Y-31184943D01*
X161483600Y-31355057D01*
X161450413Y-31521903D01*
X161385313Y-31679068D01*
X161290802Y-31820513D01*
X161170513Y-31940802D01*
X161029068Y-32035313D01*
X160871903Y-32100413D01*
X160705057Y-32133600D01*
X160534943Y-32133600D01*
X160368097Y-32100413D01*
X160210932Y-32035313D01*
X160069487Y-31940802D01*
X159949198Y-31820513D01*
X159854687Y-31679068D01*
X159789587Y-31521903D01*
X159756400Y-31355057D01*
X159756400Y-31184943D01*
X159789587Y-31018097D01*
X159854687Y-30860932D01*
X159949198Y-30719487D01*
X160069487Y-30599198D01*
X160210932Y-30504687D01*
X160368097Y-30439587D01*
X160534943Y-30406400D01*
X160705057Y-30406400D01*
X160871903Y-30439587D01*
G37*
G36*
X158331903Y-30439587D02*
G01*
X158489068Y-30504687D01*
X158630513Y-30599198D01*
X158750802Y-30719487D01*
X158845313Y-30860932D01*
X158910413Y-31018097D01*
X158943600Y-31184943D01*
X158943600Y-31355057D01*
X158910413Y-31521903D01*
X158845313Y-31679068D01*
X158750802Y-31820513D01*
X158630513Y-31940802D01*
X158489068Y-32035313D01*
X158331903Y-32100413D01*
X158165057Y-32133600D01*
X157994943Y-32133600D01*
X157828097Y-32100413D01*
X157670932Y-32035313D01*
X157529487Y-31940802D01*
X157409198Y-31820513D01*
X157314687Y-31679068D01*
X157249587Y-31521903D01*
X157216400Y-31355057D01*
X157216400Y-31184943D01*
X157249587Y-31018097D01*
X157314687Y-30860932D01*
X157409198Y-30719487D01*
X157529487Y-30599198D01*
X157670932Y-30504687D01*
X157828097Y-30439587D01*
X157994943Y-30406400D01*
X158165057Y-30406400D01*
X158331903Y-30439587D01*
G37*
G36*
X130391903Y-30439587D02*
G01*
X130549068Y-30504687D01*
X130690513Y-30599198D01*
X130810802Y-30719487D01*
X130905313Y-30860932D01*
X130970413Y-31018097D01*
X131003600Y-31184943D01*
X131003600Y-31355057D01*
X130970413Y-31521903D01*
X130905313Y-31679068D01*
X130810802Y-31820513D01*
X130690513Y-31940802D01*
X130549068Y-32035313D01*
X130391903Y-32100413D01*
X130225057Y-32133600D01*
X130054943Y-32133600D01*
X129888097Y-32100413D01*
X129730932Y-32035313D01*
X129589487Y-31940802D01*
X129469198Y-31820513D01*
X129374687Y-31679068D01*
X129309587Y-31521903D01*
X129276400Y-31355057D01*
X129276400Y-31184943D01*
X129309587Y-31018097D01*
X129374687Y-30860932D01*
X129469198Y-30719487D01*
X129589487Y-30599198D01*
X129730932Y-30504687D01*
X129888097Y-30439587D01*
X130054943Y-30406400D01*
X130225057Y-30406400D01*
X130391903Y-30439587D01*
G37*
G36*
X132931903Y-30439587D02*
G01*
X133089068Y-30504687D01*
X133230513Y-30599198D01*
X133350802Y-30719487D01*
X133445313Y-30860932D01*
X133510413Y-31018097D01*
X133543600Y-31184943D01*
X133543600Y-31355057D01*
X133510413Y-31521903D01*
X133445313Y-31679068D01*
X133350802Y-31820513D01*
X133230513Y-31940802D01*
X133089068Y-32035313D01*
X132931903Y-32100413D01*
X132765057Y-32133600D01*
X132594943Y-32133600D01*
X132428097Y-32100413D01*
X132270932Y-32035313D01*
X132129487Y-31940802D01*
X132009198Y-31820513D01*
X131914687Y-31679068D01*
X131849587Y-31521903D01*
X131816400Y-31355057D01*
X131816400Y-31184943D01*
X131849587Y-31018097D01*
X131914687Y-30860932D01*
X132009198Y-30719487D01*
X132129487Y-30599198D01*
X132270932Y-30504687D01*
X132428097Y-30439587D01*
X132594943Y-30406400D01*
X132765057Y-30406400D01*
X132931903Y-30439587D01*
G37*
G36*
X135471903Y-30439587D02*
G01*
X135629068Y-30504687D01*
X135770513Y-30599198D01*
X135890802Y-30719487D01*
X135985313Y-30860932D01*
X136050413Y-31018097D01*
X136083600Y-31184943D01*
X136083600Y-31355057D01*
X136050413Y-31521903D01*
X135985313Y-31679068D01*
X135890802Y-31820513D01*
X135770513Y-31940802D01*
X135629068Y-32035313D01*
X135471903Y-32100413D01*
X135305057Y-32133600D01*
X135134943Y-32133600D01*
X134968097Y-32100413D01*
X134810932Y-32035313D01*
X134669487Y-31940802D01*
X134549198Y-31820513D01*
X134454687Y-31679068D01*
X134389587Y-31521903D01*
X134356400Y-31355057D01*
X134356400Y-31184943D01*
X134389587Y-31018097D01*
X134454687Y-30860932D01*
X134549198Y-30719487D01*
X134669487Y-30599198D01*
X134810932Y-30504687D01*
X134968097Y-30439587D01*
X135134943Y-30406400D01*
X135305057Y-30406400D01*
X135471903Y-30439587D01*
G37*
G36*
X140551903Y-30439587D02*
G01*
X140709068Y-30504687D01*
X140850513Y-30599198D01*
X140970802Y-30719487D01*
X141065313Y-30860932D01*
X141130413Y-31018097D01*
X141163600Y-31184943D01*
X141163600Y-31355057D01*
X141130413Y-31521903D01*
X141065313Y-31679068D01*
X140970802Y-31820513D01*
X140850513Y-31940802D01*
X140709068Y-32035313D01*
X140551903Y-32100413D01*
X140385057Y-32133600D01*
X140214943Y-32133600D01*
X140048097Y-32100413D01*
X139890932Y-32035313D01*
X139749487Y-31940802D01*
X139629198Y-31820513D01*
X139534687Y-31679068D01*
X139469587Y-31521903D01*
X139436400Y-31355057D01*
X139436400Y-31184943D01*
X139469587Y-31018097D01*
X139534687Y-30860932D01*
X139629198Y-30719487D01*
X139749487Y-30599198D01*
X139890932Y-30504687D01*
X140048097Y-30439587D01*
X140214943Y-30406400D01*
X140385057Y-30406400D01*
X140551903Y-30439587D01*
G37*
G36*
X155791903Y-30439587D02*
G01*
X155949068Y-30504687D01*
X156090513Y-30599198D01*
X156210802Y-30719487D01*
X156305313Y-30860932D01*
X156370413Y-31018097D01*
X156403600Y-31184943D01*
X156403600Y-31355057D01*
X156370413Y-31521903D01*
X156305313Y-31679068D01*
X156210802Y-31820513D01*
X156090513Y-31940802D01*
X155949068Y-32035313D01*
X155791903Y-32100413D01*
X155625057Y-32133600D01*
X155454943Y-32133600D01*
X155288097Y-32100413D01*
X155130932Y-32035313D01*
X154989487Y-31940802D01*
X154869198Y-31820513D01*
X154774687Y-31679068D01*
X154709587Y-31521903D01*
X154676400Y-31355057D01*
X154676400Y-31184943D01*
X154709587Y-31018097D01*
X154774687Y-30860932D01*
X154869198Y-30719487D01*
X154989487Y-30599198D01*
X155130932Y-30504687D01*
X155288097Y-30439587D01*
X155454943Y-30406400D01*
X155625057Y-30406400D01*
X155791903Y-30439587D01*
G37*
G36*
X143091903Y-30439587D02*
G01*
X143249068Y-30504687D01*
X143390513Y-30599198D01*
X143510802Y-30719487D01*
X143605313Y-30860932D01*
X143670413Y-31018097D01*
X143703600Y-31184943D01*
X143703600Y-31355057D01*
X143670413Y-31521903D01*
X143605313Y-31679068D01*
X143510802Y-31820513D01*
X143390513Y-31940802D01*
X143249068Y-32035313D01*
X143091903Y-32100413D01*
X142925057Y-32133600D01*
X142754943Y-32133600D01*
X142588097Y-32100413D01*
X142430932Y-32035313D01*
X142289487Y-31940802D01*
X142169198Y-31820513D01*
X142074687Y-31679068D01*
X142009587Y-31521903D01*
X141976400Y-31355057D01*
X141976400Y-31184943D01*
X142009587Y-31018097D01*
X142074687Y-30860932D01*
X142169198Y-30719487D01*
X142289487Y-30599198D01*
X142430932Y-30504687D01*
X142588097Y-30439587D01*
X142754943Y-30406400D01*
X142925057Y-30406400D01*
X143091903Y-30439587D01*
G37*
G36*
X145631903Y-30439587D02*
G01*
X145789068Y-30504687D01*
X145930513Y-30599198D01*
X146050802Y-30719487D01*
X146145313Y-30860932D01*
X146210413Y-31018097D01*
X146243600Y-31184943D01*
X146243600Y-31355057D01*
X146210413Y-31521903D01*
X146145313Y-31679068D01*
X146050802Y-31820513D01*
X145930513Y-31940802D01*
X145789068Y-32035313D01*
X145631903Y-32100413D01*
X145465057Y-32133600D01*
X145294943Y-32133600D01*
X145128097Y-32100413D01*
X144970932Y-32035313D01*
X144829487Y-31940802D01*
X144709198Y-31820513D01*
X144614687Y-31679068D01*
X144549587Y-31521903D01*
X144516400Y-31355057D01*
X144516400Y-31184943D01*
X144549587Y-31018097D01*
X144614687Y-30860932D01*
X144709198Y-30719487D01*
X144829487Y-30599198D01*
X144970932Y-30504687D01*
X145128097Y-30439587D01*
X145294943Y-30406400D01*
X145465057Y-30406400D01*
X145631903Y-30439587D01*
G37*
G36*
X148171903Y-30439587D02*
G01*
X148329068Y-30504687D01*
X148470513Y-30599198D01*
X148590802Y-30719487D01*
X148685313Y-30860932D01*
X148750413Y-31018097D01*
X148783600Y-31184943D01*
X148783600Y-31355057D01*
X148750413Y-31521903D01*
X148685313Y-31679068D01*
X148590802Y-31820513D01*
X148470513Y-31940802D01*
X148329068Y-32035313D01*
X148171903Y-32100413D01*
X148005057Y-32133600D01*
X147834943Y-32133600D01*
X147668097Y-32100413D01*
X147510932Y-32035313D01*
X147369487Y-31940802D01*
X147249198Y-31820513D01*
X147154687Y-31679068D01*
X147089587Y-31521903D01*
X147056400Y-31355057D01*
X147056400Y-31184943D01*
X147089587Y-31018097D01*
X147154687Y-30860932D01*
X147249198Y-30719487D01*
X147369487Y-30599198D01*
X147510932Y-30504687D01*
X147668097Y-30439587D01*
X147834943Y-30406400D01*
X148005057Y-30406400D01*
X148171903Y-30439587D01*
G37*
G36*
X150711903Y-30439587D02*
G01*
X150869068Y-30504687D01*
X151010513Y-30599198D01*
X151130802Y-30719487D01*
X151225313Y-30860932D01*
X151290413Y-31018097D01*
X151323600Y-31184943D01*
X151323600Y-31355057D01*
X151290413Y-31521903D01*
X151225313Y-31679068D01*
X151130802Y-31820513D01*
X151010513Y-31940802D01*
X150869068Y-32035313D01*
X150711903Y-32100413D01*
X150545057Y-32133600D01*
X150374943Y-32133600D01*
X150208097Y-32100413D01*
X150050932Y-32035313D01*
X149909487Y-31940802D01*
X149789198Y-31820513D01*
X149694687Y-31679068D01*
X149629587Y-31521903D01*
X149596400Y-31355057D01*
X149596400Y-31184943D01*
X149629587Y-31018097D01*
X149694687Y-30860932D01*
X149789198Y-30719487D01*
X149909487Y-30599198D01*
X150050932Y-30504687D01*
X150208097Y-30439587D01*
X150374943Y-30406400D01*
X150545057Y-30406400D01*
X150711903Y-30439587D01*
G37*
G36*
X153251903Y-30439587D02*
G01*
X153409068Y-30504687D01*
X153550513Y-30599198D01*
X153670802Y-30719487D01*
X153765313Y-30860932D01*
X153830413Y-31018097D01*
X153863600Y-31184943D01*
X153863600Y-31355057D01*
X153830413Y-31521903D01*
X153765313Y-31679068D01*
X153670802Y-31820513D01*
X153550513Y-31940802D01*
X153409068Y-32035313D01*
X153251903Y-32100413D01*
X153085057Y-32133600D01*
X152914943Y-32133600D01*
X152748097Y-32100413D01*
X152590932Y-32035313D01*
X152449487Y-31940802D01*
X152329198Y-31820513D01*
X152234687Y-31679068D01*
X152169587Y-31521903D01*
X152136400Y-31355057D01*
X152136400Y-31184943D01*
X152169587Y-31018097D01*
X152234687Y-30860932D01*
X152329198Y-30719487D01*
X152449487Y-30599198D01*
X152590932Y-30504687D01*
X152748097Y-30439587D01*
X152914943Y-30406400D01*
X153085057Y-30406400D01*
X153251903Y-30439587D01*
G37*
G36*
X165951903Y-30439587D02*
G01*
X166109068Y-30504687D01*
X166250513Y-30599198D01*
X166370802Y-30719487D01*
X166465313Y-30860932D01*
X166530413Y-31018097D01*
X166563600Y-31184943D01*
X166563600Y-31355057D01*
X166530413Y-31521903D01*
X166465313Y-31679068D01*
X166370802Y-31820513D01*
X166250513Y-31940802D01*
X166109068Y-32035313D01*
X165951903Y-32100413D01*
X165785057Y-32133600D01*
X165614943Y-32133600D01*
X165448097Y-32100413D01*
X165290932Y-32035313D01*
X165149487Y-31940802D01*
X165029198Y-31820513D01*
X164934687Y-31679068D01*
X164869587Y-31521903D01*
X164836400Y-31355057D01*
X164836400Y-31184943D01*
X164869587Y-31018097D01*
X164934687Y-30860932D01*
X165029198Y-30719487D01*
X165149487Y-30599198D01*
X165290932Y-30504687D01*
X165448097Y-30439587D01*
X165614943Y-30406400D01*
X165785057Y-30406400D01*
X165951903Y-30439587D01*
G37*
G36*
X127851903Y-30439587D02*
G01*
X128009068Y-30504687D01*
X128150513Y-30599198D01*
X128270802Y-30719487D01*
X128365313Y-30860932D01*
X128430413Y-31018097D01*
X128463600Y-31184943D01*
X128463600Y-31355057D01*
X128430413Y-31521903D01*
X128365313Y-31679068D01*
X128270802Y-31820513D01*
X128150513Y-31940802D01*
X128009068Y-32035313D01*
X127851903Y-32100413D01*
X127685057Y-32133600D01*
X127514943Y-32133600D01*
X127348097Y-32100413D01*
X127190932Y-32035313D01*
X127049487Y-31940802D01*
X126929198Y-31820513D01*
X126834687Y-31679068D01*
X126769587Y-31521903D01*
X126736400Y-31355057D01*
X126736400Y-31184943D01*
X126769587Y-31018097D01*
X126834687Y-30860932D01*
X126929198Y-30719487D01*
X127049487Y-30599198D01*
X127190932Y-30504687D01*
X127348097Y-30439587D01*
X127514943Y-30406400D01*
X127685057Y-30406400D01*
X127851903Y-30439587D01*
G37*
G36*
X189271400Y-31636200D02*
G01*
X186833000Y-31636200D01*
X186833000Y-30213800D01*
X189271400Y-30213800D01*
X189271400Y-31636200D01*
G37*
G36*
X183731903Y-27899587D02*
G01*
X183889068Y-27964687D01*
X184030513Y-28059198D01*
X184150802Y-28179487D01*
X184245313Y-28320932D01*
X184310413Y-28478097D01*
X184343600Y-28644943D01*
X184343600Y-28815057D01*
X184310413Y-28981903D01*
X184245313Y-29139068D01*
X184150802Y-29280513D01*
X184030513Y-29400802D01*
X183889068Y-29495313D01*
X183731903Y-29560413D01*
X183565057Y-29593600D01*
X183394943Y-29593600D01*
X183228097Y-29560413D01*
X183070932Y-29495313D01*
X182929487Y-29400802D01*
X182809198Y-29280513D01*
X182714687Y-29139068D01*
X182649587Y-28981903D01*
X182616400Y-28815057D01*
X182616400Y-28644943D01*
X182649587Y-28478097D01*
X182714687Y-28320932D01*
X182809198Y-28179487D01*
X182929487Y-28059198D01*
X183070932Y-27964687D01*
X183228097Y-27899587D01*
X183394943Y-27866400D01*
X183565057Y-27866400D01*
X183731903Y-27899587D01*
G37*
G36*
X181191903Y-27899587D02*
G01*
X181349068Y-27964687D01*
X181490513Y-28059198D01*
X181610802Y-28179487D01*
X181705313Y-28320932D01*
X181770413Y-28478097D01*
X181803600Y-28644943D01*
X181803600Y-28815057D01*
X181770413Y-28981903D01*
X181705313Y-29139068D01*
X181610802Y-29280513D01*
X181490513Y-29400802D01*
X181349068Y-29495313D01*
X181191903Y-29560413D01*
X181025057Y-29593600D01*
X180854943Y-29593600D01*
X180688097Y-29560413D01*
X180530932Y-29495313D01*
X180389487Y-29400802D01*
X180269198Y-29280513D01*
X180174687Y-29139068D01*
X180109587Y-28981903D01*
X180076400Y-28815057D01*
X180076400Y-28644943D01*
X180109587Y-28478097D01*
X180174687Y-28320932D01*
X180269198Y-28179487D01*
X180389487Y-28059198D01*
X180530932Y-27964687D01*
X180688097Y-27899587D01*
X180854943Y-27866400D01*
X181025057Y-27866400D01*
X181191903Y-27899587D01*
G37*
G36*
X138011903Y-27899587D02*
G01*
X138169068Y-27964687D01*
X138310513Y-28059198D01*
X138430802Y-28179487D01*
X138525313Y-28320932D01*
X138590413Y-28478097D01*
X138623600Y-28644943D01*
X138623600Y-28815057D01*
X138590413Y-28981903D01*
X138525313Y-29139068D01*
X138430802Y-29280513D01*
X138310513Y-29400802D01*
X138169068Y-29495313D01*
X138011903Y-29560413D01*
X137845057Y-29593600D01*
X137674943Y-29593600D01*
X137508097Y-29560413D01*
X137350932Y-29495313D01*
X137209487Y-29400802D01*
X137089198Y-29280513D01*
X136994687Y-29139068D01*
X136929587Y-28981903D01*
X136896400Y-28815057D01*
X136896400Y-28644943D01*
X136929587Y-28478097D01*
X136994687Y-28320932D01*
X137089198Y-28179487D01*
X137209487Y-28059198D01*
X137350932Y-27964687D01*
X137508097Y-27899587D01*
X137674943Y-27866400D01*
X137845057Y-27866400D01*
X138011903Y-27899587D01*
G37*
G36*
X178651903Y-27899587D02*
G01*
X178809068Y-27964687D01*
X178950513Y-28059198D01*
X179070802Y-28179487D01*
X179165313Y-28320932D01*
X179230413Y-28478097D01*
X179263600Y-28644943D01*
X179263600Y-28815057D01*
X179230413Y-28981903D01*
X179165313Y-29139068D01*
X179070802Y-29280513D01*
X178950513Y-29400802D01*
X178809068Y-29495313D01*
X178651903Y-29560413D01*
X178485057Y-29593600D01*
X178314943Y-29593600D01*
X178148097Y-29560413D01*
X177990932Y-29495313D01*
X177849487Y-29400802D01*
X177729198Y-29280513D01*
X177634687Y-29139068D01*
X177569587Y-28981903D01*
X177536400Y-28815057D01*
X177536400Y-28644943D01*
X177569587Y-28478097D01*
X177634687Y-28320932D01*
X177729198Y-28179487D01*
X177849487Y-28059198D01*
X177990932Y-27964687D01*
X178148097Y-27899587D01*
X178314943Y-27866400D01*
X178485057Y-27866400D01*
X178651903Y-27899587D01*
G37*
G36*
X153251903Y-27899587D02*
G01*
X153409068Y-27964687D01*
X153550513Y-28059198D01*
X153670802Y-28179487D01*
X153765313Y-28320932D01*
X153830413Y-28478097D01*
X153863600Y-28644943D01*
X153863600Y-28815057D01*
X153830413Y-28981903D01*
X153765313Y-29139068D01*
X153670802Y-29280513D01*
X153550513Y-29400802D01*
X153409068Y-29495313D01*
X153251903Y-29560413D01*
X153085057Y-29593600D01*
X152914943Y-29593600D01*
X152748097Y-29560413D01*
X152590932Y-29495313D01*
X152449487Y-29400802D01*
X152329198Y-29280513D01*
X152234687Y-29139068D01*
X152169587Y-28981903D01*
X152136400Y-28815057D01*
X152136400Y-28644943D01*
X152169587Y-28478097D01*
X152234687Y-28320932D01*
X152329198Y-28179487D01*
X152449487Y-28059198D01*
X152590932Y-27964687D01*
X152748097Y-27899587D01*
X152914943Y-27866400D01*
X153085057Y-27866400D01*
X153251903Y-27899587D01*
G37*
G36*
X155791903Y-27899587D02*
G01*
X155949068Y-27964687D01*
X156090513Y-28059198D01*
X156210802Y-28179487D01*
X156305313Y-28320932D01*
X156370413Y-28478097D01*
X156403600Y-28644943D01*
X156403600Y-28815057D01*
X156370413Y-28981903D01*
X156305313Y-29139068D01*
X156210802Y-29280513D01*
X156090513Y-29400802D01*
X155949068Y-29495313D01*
X155791903Y-29560413D01*
X155625057Y-29593600D01*
X155454943Y-29593600D01*
X155288097Y-29560413D01*
X155130932Y-29495313D01*
X154989487Y-29400802D01*
X154869198Y-29280513D01*
X154774687Y-29139068D01*
X154709587Y-28981903D01*
X154676400Y-28815057D01*
X154676400Y-28644943D01*
X154709587Y-28478097D01*
X154774687Y-28320932D01*
X154869198Y-28179487D01*
X154989487Y-28059198D01*
X155130932Y-27964687D01*
X155288097Y-27899587D01*
X155454943Y-27866400D01*
X155625057Y-27866400D01*
X155791903Y-27899587D01*
G37*
G36*
X148171903Y-27899587D02*
G01*
X148329068Y-27964687D01*
X148470513Y-28059198D01*
X148590802Y-28179487D01*
X148685313Y-28320932D01*
X148750413Y-28478097D01*
X148783600Y-28644943D01*
X148783600Y-28815057D01*
X148750413Y-28981903D01*
X148685313Y-29139068D01*
X148590802Y-29280513D01*
X148470513Y-29400802D01*
X148329068Y-29495313D01*
X148171903Y-29560413D01*
X148005057Y-29593600D01*
X147834943Y-29593600D01*
X147668097Y-29560413D01*
X147510932Y-29495313D01*
X147369487Y-29400802D01*
X147249198Y-29280513D01*
X147154687Y-29139068D01*
X147089587Y-28981903D01*
X147056400Y-28815057D01*
X147056400Y-28644943D01*
X147089587Y-28478097D01*
X147154687Y-28320932D01*
X147249198Y-28179487D01*
X147369487Y-28059198D01*
X147510932Y-27964687D01*
X147668097Y-27899587D01*
X147834943Y-27866400D01*
X148005057Y-27866400D01*
X148171903Y-27899587D01*
G37*
G36*
X158331903Y-27899587D02*
G01*
X158489068Y-27964687D01*
X158630513Y-28059198D01*
X158750802Y-28179487D01*
X158845313Y-28320932D01*
X158910413Y-28478097D01*
X158943600Y-28644943D01*
X158943600Y-28815057D01*
X158910413Y-28981903D01*
X158845313Y-29139068D01*
X158750802Y-29280513D01*
X158630513Y-29400802D01*
X158489068Y-29495313D01*
X158331903Y-29560413D01*
X158165057Y-29593600D01*
X157994943Y-29593600D01*
X157828097Y-29560413D01*
X157670932Y-29495313D01*
X157529487Y-29400802D01*
X157409198Y-29280513D01*
X157314687Y-29139068D01*
X157249587Y-28981903D01*
X157216400Y-28815057D01*
X157216400Y-28644943D01*
X157249587Y-28478097D01*
X157314687Y-28320932D01*
X157409198Y-28179487D01*
X157529487Y-28059198D01*
X157670932Y-27964687D01*
X157828097Y-27899587D01*
X157994943Y-27866400D01*
X158165057Y-27866400D01*
X158331903Y-27899587D01*
G37*
G36*
X160871903Y-27899587D02*
G01*
X161029068Y-27964687D01*
X161170513Y-28059198D01*
X161290802Y-28179487D01*
X161385313Y-28320932D01*
X161450413Y-28478097D01*
X161483600Y-28644943D01*
X161483600Y-28815057D01*
X161450413Y-28981903D01*
X161385313Y-29139068D01*
X161290802Y-29280513D01*
X161170513Y-29400802D01*
X161029068Y-29495313D01*
X160871903Y-29560413D01*
X160705057Y-29593600D01*
X160534943Y-29593600D01*
X160368097Y-29560413D01*
X160210932Y-29495313D01*
X160069487Y-29400802D01*
X159949198Y-29280513D01*
X159854687Y-29139068D01*
X159789587Y-28981903D01*
X159756400Y-28815057D01*
X159756400Y-28644943D01*
X159789587Y-28478097D01*
X159854687Y-28320932D01*
X159949198Y-28179487D01*
X160069487Y-28059198D01*
X160210932Y-27964687D01*
X160368097Y-27899587D01*
X160534943Y-27866400D01*
X160705057Y-27866400D01*
X160871903Y-27899587D01*
G37*
G36*
X145631903Y-27899587D02*
G01*
X145789068Y-27964687D01*
X145930513Y-28059198D01*
X146050802Y-28179487D01*
X146145313Y-28320932D01*
X146210413Y-28478097D01*
X146243600Y-28644943D01*
X146243600Y-28815057D01*
X146210413Y-28981903D01*
X146145313Y-29139068D01*
X146050802Y-29280513D01*
X145930513Y-29400802D01*
X145789068Y-29495313D01*
X145631903Y-29560413D01*
X145465057Y-29593600D01*
X145294943Y-29593600D01*
X145128097Y-29560413D01*
X144970932Y-29495313D01*
X144829487Y-29400802D01*
X144709198Y-29280513D01*
X144614687Y-29139068D01*
X144549587Y-28981903D01*
X144516400Y-28815057D01*
X144516400Y-28644943D01*
X144549587Y-28478097D01*
X144614687Y-28320932D01*
X144709198Y-28179487D01*
X144829487Y-28059198D01*
X144970932Y-27964687D01*
X145128097Y-27899587D01*
X145294943Y-27866400D01*
X145465057Y-27866400D01*
X145631903Y-27899587D01*
G37*
G36*
X163411903Y-27899587D02*
G01*
X163569068Y-27964687D01*
X163710513Y-28059198D01*
X163830802Y-28179487D01*
X163925313Y-28320932D01*
X163990413Y-28478097D01*
X164023600Y-28644943D01*
X164023600Y-28815057D01*
X163990413Y-28981903D01*
X163925313Y-29139068D01*
X163830802Y-29280513D01*
X163710513Y-29400802D01*
X163569068Y-29495313D01*
X163411903Y-29560413D01*
X163245057Y-29593600D01*
X163074943Y-29593600D01*
X162908097Y-29560413D01*
X162750932Y-29495313D01*
X162609487Y-29400802D01*
X162489198Y-29280513D01*
X162394687Y-29139068D01*
X162329587Y-28981903D01*
X162296400Y-28815057D01*
X162296400Y-28644943D01*
X162329587Y-28478097D01*
X162394687Y-28320932D01*
X162489198Y-28179487D01*
X162609487Y-28059198D01*
X162750932Y-27964687D01*
X162908097Y-27899587D01*
X163074943Y-27866400D01*
X163245057Y-27866400D01*
X163411903Y-27899587D01*
G37*
G36*
X165951903Y-27899587D02*
G01*
X166109068Y-27964687D01*
X166250513Y-28059198D01*
X166370802Y-28179487D01*
X166465313Y-28320932D01*
X166530413Y-28478097D01*
X166563600Y-28644943D01*
X166563600Y-28815057D01*
X166530413Y-28981903D01*
X166465313Y-29139068D01*
X166370802Y-29280513D01*
X166250513Y-29400802D01*
X166109068Y-29495313D01*
X165951903Y-29560413D01*
X165785057Y-29593600D01*
X165614943Y-29593600D01*
X165448097Y-29560413D01*
X165290932Y-29495313D01*
X165149487Y-29400802D01*
X165029198Y-29280513D01*
X164934687Y-29139068D01*
X164869587Y-28981903D01*
X164836400Y-28815057D01*
X164836400Y-28644943D01*
X164869587Y-28478097D01*
X164934687Y-28320932D01*
X165029198Y-28179487D01*
X165149487Y-28059198D01*
X165290932Y-27964687D01*
X165448097Y-27899587D01*
X165614943Y-27866400D01*
X165785057Y-27866400D01*
X165951903Y-27899587D01*
G37*
G36*
X168491903Y-27899587D02*
G01*
X168649068Y-27964687D01*
X168790513Y-28059198D01*
X168910802Y-28179487D01*
X169005313Y-28320932D01*
X169070413Y-28478097D01*
X169103600Y-28644943D01*
X169103600Y-28815057D01*
X169070413Y-28981903D01*
X169005313Y-29139068D01*
X168910802Y-29280513D01*
X168790513Y-29400802D01*
X168649068Y-29495313D01*
X168491903Y-29560413D01*
X168325057Y-29593600D01*
X168154943Y-29593600D01*
X167988097Y-29560413D01*
X167830932Y-29495313D01*
X167689487Y-29400802D01*
X167569198Y-29280513D01*
X167474687Y-29139068D01*
X167409587Y-28981903D01*
X167376400Y-28815057D01*
X167376400Y-28644943D01*
X167409587Y-28478097D01*
X167474687Y-28320932D01*
X167569198Y-28179487D01*
X167689487Y-28059198D01*
X167830932Y-27964687D01*
X167988097Y-27899587D01*
X168154943Y-27866400D01*
X168325057Y-27866400D01*
X168491903Y-27899587D01*
G37*
G36*
X125311903Y-27899587D02*
G01*
X125469068Y-27964687D01*
X125610513Y-28059198D01*
X125730802Y-28179487D01*
X125825313Y-28320932D01*
X125890413Y-28478097D01*
X125923600Y-28644943D01*
X125923600Y-28815057D01*
X125890413Y-28981903D01*
X125825313Y-29139068D01*
X125730802Y-29280513D01*
X125610513Y-29400802D01*
X125469068Y-29495313D01*
X125311903Y-29560413D01*
X125145057Y-29593600D01*
X124974943Y-29593600D01*
X124808097Y-29560413D01*
X124650932Y-29495313D01*
X124509487Y-29400802D01*
X124389198Y-29280513D01*
X124294687Y-29139068D01*
X124229587Y-28981903D01*
X124196400Y-28815057D01*
X124196400Y-28644943D01*
X124229587Y-28478097D01*
X124294687Y-28320932D01*
X124389198Y-28179487D01*
X124509487Y-28059198D01*
X124650932Y-27964687D01*
X124808097Y-27899587D01*
X124974943Y-27866400D01*
X125145057Y-27866400D01*
X125311903Y-27899587D01*
G37*
G36*
X127851903Y-27899587D02*
G01*
X128009068Y-27964687D01*
X128150513Y-28059198D01*
X128270802Y-28179487D01*
X128365313Y-28320932D01*
X128430413Y-28478097D01*
X128463600Y-28644943D01*
X128463600Y-28815057D01*
X128430413Y-28981903D01*
X128365313Y-29139068D01*
X128270802Y-29280513D01*
X128150513Y-29400802D01*
X128009068Y-29495313D01*
X127851903Y-29560413D01*
X127685057Y-29593600D01*
X127514943Y-29593600D01*
X127348097Y-29560413D01*
X127190932Y-29495313D01*
X127049487Y-29400802D01*
X126929198Y-29280513D01*
X126834687Y-29139068D01*
X126769587Y-28981903D01*
X126736400Y-28815057D01*
X126736400Y-28644943D01*
X126769587Y-28478097D01*
X126834687Y-28320932D01*
X126929198Y-28179487D01*
X127049487Y-28059198D01*
X127190932Y-27964687D01*
X127348097Y-27899587D01*
X127514943Y-27866400D01*
X127685057Y-27866400D01*
X127851903Y-27899587D01*
G37*
G36*
X173571903Y-27899587D02*
G01*
X173729068Y-27964687D01*
X173870513Y-28059198D01*
X173990802Y-28179487D01*
X174085313Y-28320932D01*
X174150413Y-28478097D01*
X174183600Y-28644943D01*
X174183600Y-28815057D01*
X174150413Y-28981903D01*
X174085313Y-29139068D01*
X173990802Y-29280513D01*
X173870513Y-29400802D01*
X173729068Y-29495313D01*
X173571903Y-29560413D01*
X173405057Y-29593600D01*
X173234943Y-29593600D01*
X173068097Y-29560413D01*
X172910932Y-29495313D01*
X172769487Y-29400802D01*
X172649198Y-29280513D01*
X172554687Y-29139068D01*
X172489587Y-28981903D01*
X172456400Y-28815057D01*
X172456400Y-28644943D01*
X172489587Y-28478097D01*
X172554687Y-28320932D01*
X172649198Y-28179487D01*
X172769487Y-28059198D01*
X172910932Y-27964687D01*
X173068097Y-27899587D01*
X173234943Y-27866400D01*
X173405057Y-27866400D01*
X173571903Y-27899587D01*
G37*
G36*
X135471903Y-27899587D02*
G01*
X135629068Y-27964687D01*
X135770513Y-28059198D01*
X135890802Y-28179487D01*
X135985313Y-28320932D01*
X136050413Y-28478097D01*
X136083600Y-28644943D01*
X136083600Y-28815057D01*
X136050413Y-28981903D01*
X135985313Y-29139068D01*
X135890802Y-29280513D01*
X135770513Y-29400802D01*
X135629068Y-29495313D01*
X135471903Y-29560413D01*
X135305057Y-29593600D01*
X135134943Y-29593600D01*
X134968097Y-29560413D01*
X134810932Y-29495313D01*
X134669487Y-29400802D01*
X134549198Y-29280513D01*
X134454687Y-29139068D01*
X134389587Y-28981903D01*
X134356400Y-28815057D01*
X134356400Y-28644943D01*
X134389587Y-28478097D01*
X134454687Y-28320932D01*
X134549198Y-28179487D01*
X134669487Y-28059198D01*
X134810932Y-27964687D01*
X134968097Y-27899587D01*
X135134943Y-27866400D01*
X135305057Y-27866400D01*
X135471903Y-27899587D01*
G37*
G36*
X132931903Y-27899587D02*
G01*
X133089068Y-27964687D01*
X133230513Y-28059198D01*
X133350802Y-28179487D01*
X133445313Y-28320932D01*
X133510413Y-28478097D01*
X133543600Y-28644943D01*
X133543600Y-28815057D01*
X133510413Y-28981903D01*
X133445313Y-29139068D01*
X133350802Y-29280513D01*
X133230513Y-29400802D01*
X133089068Y-29495313D01*
X132931903Y-29560413D01*
X132765057Y-29593600D01*
X132594943Y-29593600D01*
X132428097Y-29560413D01*
X132270932Y-29495313D01*
X132129487Y-29400802D01*
X132009198Y-29280513D01*
X131914687Y-29139068D01*
X131849587Y-28981903D01*
X131816400Y-28815057D01*
X131816400Y-28644943D01*
X131849587Y-28478097D01*
X131914687Y-28320932D01*
X132009198Y-28179487D01*
X132129487Y-28059198D01*
X132270932Y-27964687D01*
X132428097Y-27899587D01*
X132594943Y-27866400D01*
X132765057Y-27866400D01*
X132931903Y-27899587D01*
G37*
G36*
X176111903Y-27899587D02*
G01*
X176269068Y-27964687D01*
X176410513Y-28059198D01*
X176530802Y-28179487D01*
X176625313Y-28320932D01*
X176690413Y-28478097D01*
X176723600Y-28644943D01*
X176723600Y-28815057D01*
X176690413Y-28981903D01*
X176625313Y-29139068D01*
X176530802Y-29280513D01*
X176410513Y-29400802D01*
X176269068Y-29495313D01*
X176111903Y-29560413D01*
X175945057Y-29593600D01*
X175774943Y-29593600D01*
X175608097Y-29560413D01*
X175450932Y-29495313D01*
X175309487Y-29400802D01*
X175189198Y-29280513D01*
X175094687Y-29139068D01*
X175029587Y-28981903D01*
X174996400Y-28815057D01*
X174996400Y-28644943D01*
X175029587Y-28478097D01*
X175094687Y-28320932D01*
X175189198Y-28179487D01*
X175309487Y-28059198D01*
X175450932Y-27964687D01*
X175608097Y-27899587D01*
X175774943Y-27866400D01*
X175945057Y-27866400D01*
X176111903Y-27899587D01*
G37*
G36*
X130391903Y-27899587D02*
G01*
X130549068Y-27964687D01*
X130690513Y-28059198D01*
X130810802Y-28179487D01*
X130905313Y-28320932D01*
X130970413Y-28478097D01*
X131003600Y-28644943D01*
X131003600Y-28815057D01*
X130970413Y-28981903D01*
X130905313Y-29139068D01*
X130810802Y-29280513D01*
X130690513Y-29400802D01*
X130549068Y-29495313D01*
X130391903Y-29560413D01*
X130225057Y-29593600D01*
X130054943Y-29593600D01*
X129888097Y-29560413D01*
X129730932Y-29495313D01*
X129589487Y-29400802D01*
X129469198Y-29280513D01*
X129374687Y-29139068D01*
X129309587Y-28981903D01*
X129276400Y-28815057D01*
X129276400Y-28644943D01*
X129309587Y-28478097D01*
X129374687Y-28320932D01*
X129469198Y-28179487D01*
X129589487Y-28059198D01*
X129730932Y-27964687D01*
X129888097Y-27899587D01*
X130054943Y-27866400D01*
X130225057Y-27866400D01*
X130391903Y-27899587D01*
G37*
G36*
X150711903Y-27899587D02*
G01*
X150869068Y-27964687D01*
X151010513Y-28059198D01*
X151130802Y-28179487D01*
X151225313Y-28320932D01*
X151290413Y-28478097D01*
X151323600Y-28644943D01*
X151323600Y-28815057D01*
X151290413Y-28981903D01*
X151225313Y-29139068D01*
X151130802Y-29280513D01*
X151010513Y-29400802D01*
X150869068Y-29495313D01*
X150711903Y-29560413D01*
X150545057Y-29593600D01*
X150374943Y-29593600D01*
X150208097Y-29560413D01*
X150050932Y-29495313D01*
X149909487Y-29400802D01*
X149789198Y-29280513D01*
X149694687Y-29139068D01*
X149629587Y-28981903D01*
X149596400Y-28815057D01*
X149596400Y-28644943D01*
X149629587Y-28478097D01*
X149694687Y-28320932D01*
X149789198Y-28179487D01*
X149909487Y-28059198D01*
X150050932Y-27964687D01*
X150208097Y-27899587D01*
X150374943Y-27866400D01*
X150545057Y-27866400D01*
X150711903Y-27899587D01*
G37*
G36*
X140551903Y-27899587D02*
G01*
X140709068Y-27964687D01*
X140850513Y-28059198D01*
X140970802Y-28179487D01*
X141065313Y-28320932D01*
X141130413Y-28478097D01*
X141163600Y-28644943D01*
X141163600Y-28815057D01*
X141130413Y-28981903D01*
X141065313Y-29139068D01*
X140970802Y-29280513D01*
X140850513Y-29400802D01*
X140709068Y-29495313D01*
X140551903Y-29560413D01*
X140385057Y-29593600D01*
X140214943Y-29593600D01*
X140048097Y-29560413D01*
X139890932Y-29495313D01*
X139749487Y-29400802D01*
X139629198Y-29280513D01*
X139534687Y-29139068D01*
X139469587Y-28981903D01*
X139436400Y-28815057D01*
X139436400Y-28644943D01*
X139469587Y-28478097D01*
X139534687Y-28320932D01*
X139629198Y-28179487D01*
X139749487Y-28059198D01*
X139890932Y-27964687D01*
X140048097Y-27899587D01*
X140214943Y-27866400D01*
X140385057Y-27866400D01*
X140551903Y-27899587D01*
G37*
G36*
X171031903Y-27899587D02*
G01*
X171189068Y-27964687D01*
X171330513Y-28059198D01*
X171450802Y-28179487D01*
X171545313Y-28320932D01*
X171610413Y-28478097D01*
X171643600Y-28644943D01*
X171643600Y-28815057D01*
X171610413Y-28981903D01*
X171545313Y-29139068D01*
X171450802Y-29280513D01*
X171330513Y-29400802D01*
X171189068Y-29495313D01*
X171031903Y-29560413D01*
X170865057Y-29593600D01*
X170694943Y-29593600D01*
X170528097Y-29560413D01*
X170370932Y-29495313D01*
X170229487Y-29400802D01*
X170109198Y-29280513D01*
X170014687Y-29139068D01*
X169949587Y-28981903D01*
X169916400Y-28815057D01*
X169916400Y-28644943D01*
X169949587Y-28478097D01*
X170014687Y-28320932D01*
X170109198Y-28179487D01*
X170229487Y-28059198D01*
X170370932Y-27964687D01*
X170528097Y-27899587D01*
X170694943Y-27866400D01*
X170865057Y-27866400D01*
X171031903Y-27899587D01*
G37*
G36*
X143091903Y-27899587D02*
G01*
X143249068Y-27964687D01*
X143390513Y-28059198D01*
X143510802Y-28179487D01*
X143605313Y-28320932D01*
X143670413Y-28478097D01*
X143703600Y-28644943D01*
X143703600Y-28815057D01*
X143670413Y-28981903D01*
X143605313Y-29139068D01*
X143510802Y-29280513D01*
X143390513Y-29400802D01*
X143249068Y-29495313D01*
X143091903Y-29560413D01*
X142925057Y-29593600D01*
X142754943Y-29593600D01*
X142588097Y-29560413D01*
X142430932Y-29495313D01*
X142289487Y-29400802D01*
X142169198Y-29280513D01*
X142074687Y-29139068D01*
X142009587Y-28981903D01*
X141976400Y-28815057D01*
X141976400Y-28644943D01*
X142009587Y-28478097D01*
X142074687Y-28320932D01*
X142169198Y-28179487D01*
X142289487Y-28059198D01*
X142430932Y-27964687D01*
X142588097Y-27899587D01*
X142754943Y-27866400D01*
X142925057Y-27866400D01*
X143091903Y-27899587D01*
G37*
G36*
X189271400Y-29324800D02*
G01*
X186833000Y-29324800D01*
X186833000Y-27902400D01*
X189271400Y-27902400D01*
X189271400Y-29324800D01*
G37*
G36*
X196951000Y-27926000D02*
G01*
X194949000Y-27926000D01*
X194949000Y-27024000D01*
X196951000Y-27024000D01*
X196951000Y-27926000D01*
G37*
G36*
X208117395Y-25215546D02*
G01*
X208290466Y-25287234D01*
X208290467Y-25287235D01*
X208446227Y-25391310D01*
X208578690Y-25523773D01*
X208601755Y-25558292D01*
X208682766Y-25679534D01*
X208754454Y-25852605D01*
X208791000Y-26036333D01*
X208791000Y-26223667D01*
X208754454Y-26407395D01*
X208682766Y-26580466D01*
X208682765Y-26580467D01*
X208578690Y-26736227D01*
X208446227Y-26868690D01*
X208367818Y-26921081D01*
X208290466Y-26972766D01*
X208117395Y-27044454D01*
X207933667Y-27081000D01*
X207746333Y-27081000D01*
X207562605Y-27044454D01*
X207389534Y-26972766D01*
X207312182Y-26921081D01*
X207233773Y-26868690D01*
X207101310Y-26736227D01*
X206997235Y-26580467D01*
X206997234Y-26580466D01*
X206925546Y-26407395D01*
X206889000Y-26223667D01*
X206889000Y-26036333D01*
X206925546Y-25852605D01*
X206997234Y-25679534D01*
X207078245Y-25558292D01*
X207101310Y-25523773D01*
X207233773Y-25391310D01*
X207389533Y-25287235D01*
X207389534Y-25287234D01*
X207562605Y-25215546D01*
X207746333Y-25179000D01*
X207933667Y-25179000D01*
X208117395Y-25215546D01*
G37*
G36*
X193951000Y-26976000D02*
G01*
X191949000Y-26976000D01*
X191949000Y-26074000D01*
X193951000Y-26074000D01*
X193951000Y-26976000D01*
G37*
G36*
X190189499Y-25528445D02*
G01*
X190226995Y-25539820D01*
X190261554Y-25558292D01*
X190291847Y-25583153D01*
X190316708Y-25613446D01*
X190335180Y-25648005D01*
X190346555Y-25685501D01*
X190351000Y-25730638D01*
X190351000Y-26369362D01*
X190346555Y-26414499D01*
X190335180Y-26451995D01*
X190316708Y-26486554D01*
X190291847Y-26516847D01*
X190261554Y-26541708D01*
X190226995Y-26560180D01*
X190189499Y-26571555D01*
X190144362Y-26576000D01*
X189405638Y-26576000D01*
X189360501Y-26571555D01*
X189323005Y-26560180D01*
X189288446Y-26541708D01*
X189258153Y-26516847D01*
X189233292Y-26486554D01*
X189214820Y-26451995D01*
X189203445Y-26414499D01*
X189199000Y-26369362D01*
X189199000Y-25730638D01*
X189203445Y-25685501D01*
X189214820Y-25648005D01*
X189233292Y-25613446D01*
X189258153Y-25583153D01*
X189288446Y-25558292D01*
X189323005Y-25539820D01*
X189360501Y-25528445D01*
X189405638Y-25524000D01*
X190144362Y-25524000D01*
X190189499Y-25528445D01*
G37*
G36*
X188439499Y-25528445D02*
G01*
X188476995Y-25539820D01*
X188511554Y-25558292D01*
X188541847Y-25583153D01*
X188566708Y-25613446D01*
X188585180Y-25648005D01*
X188596555Y-25685501D01*
X188601000Y-25730638D01*
X188601000Y-26369362D01*
X188596555Y-26414499D01*
X188585180Y-26451995D01*
X188566708Y-26486554D01*
X188541847Y-26516847D01*
X188511554Y-26541708D01*
X188476995Y-26560180D01*
X188439499Y-26571555D01*
X188394362Y-26576000D01*
X187655638Y-26576000D01*
X187610501Y-26571555D01*
X187573005Y-26560180D01*
X187538446Y-26541708D01*
X187508153Y-26516847D01*
X187483292Y-26486554D01*
X187464820Y-26451995D01*
X187453445Y-26414499D01*
X187449000Y-26369362D01*
X187449000Y-25730638D01*
X187453445Y-25685501D01*
X187464820Y-25648005D01*
X187483292Y-25613446D01*
X187508153Y-25583153D01*
X187538446Y-25558292D01*
X187573005Y-25539820D01*
X187610501Y-25528445D01*
X187655638Y-25524000D01*
X188394362Y-25524000D01*
X188439499Y-25528445D01*
G37*
G36*
X196951000Y-26026000D02*
G01*
X194949000Y-26026000D01*
X194949000Y-25124000D01*
X196951000Y-25124000D01*
X196951000Y-26026000D01*
G37*
G36*
X200617395Y-23815546D02*
G01*
X200790466Y-23887234D01*
X200790467Y-23887235D01*
X200946227Y-23991310D01*
X201078690Y-24123773D01*
X201078691Y-24123775D01*
X201182766Y-24279534D01*
X201254454Y-24452605D01*
X201291000Y-24636333D01*
X201291000Y-24823667D01*
X201254454Y-25007395D01*
X201182766Y-25180466D01*
X201131081Y-25257818D01*
X201078690Y-25336227D01*
X200946227Y-25468690D01*
X200867818Y-25521081D01*
X200790466Y-25572766D01*
X200617395Y-25644454D01*
X200433667Y-25681000D01*
X200246333Y-25681000D01*
X200062605Y-25644454D01*
X199889534Y-25572766D01*
X199812182Y-25521081D01*
X199733773Y-25468690D01*
X199601310Y-25336227D01*
X199548919Y-25257818D01*
X199497234Y-25180466D01*
X199425546Y-25007395D01*
X199389000Y-24823667D01*
X199389000Y-24636333D01*
X199425546Y-24452605D01*
X199497234Y-24279534D01*
X199601309Y-24123775D01*
X199601310Y-24123773D01*
X199733773Y-23991310D01*
X199889533Y-23887235D01*
X199889534Y-23887234D01*
X200062605Y-23815546D01*
X200246333Y-23779000D01*
X200433667Y-23779000D01*
X200617395Y-23815546D01*
G37*
M02*
