G04 #@! TF.GenerationSoftware,KiCad,Pcbnew,5.1.6-c6e7f7d~86~ubuntu18.04.1*
G04 #@! TF.CreationDate,2020-07-03T23:55:57+02:00*
G04 #@! TF.ProjectId,Speeduino_base,53706565-6475-4696-9e6f-5f626173652e,rev?*
G04 #@! TF.SameCoordinates,Original*
G04 #@! TF.FileFunction,Paste,Top*
G04 #@! TF.FilePolarity,Positive*
%FSLAX46Y46*%
G04 Gerber Fmt 4.6, Leading zero omitted, Abs format (unit mm)*
G04 Created by KiCad (PCBNEW 5.1.6-c6e7f7d~86~ubuntu18.04.1) date 2020-07-03 23:55:57*
%MOMM*%
%LPD*%
G01*
G04 APERTURE LIST*
%ADD10R,3.300000X1.700000*%
%ADD11R,2.500000X1.800000*%
%ADD12R,1.800000X2.500000*%
%ADD13R,0.550000X1.750000*%
%ADD14R,0.900000X0.800000*%
%ADD15R,2.200000X3.600000*%
%ADD16R,2.235200X1.219200*%
%ADD17R,1.900000X0.800000*%
%ADD18R,1.000000X1.400000*%
%ADD19R,1.400000X1.000000*%
%ADD20R,1.700000X3.300000*%
%ADD21R,1.600200X0.355600*%
%ADD22R,1.270000X2.032000*%
%ADD23R,1.143000X1.016000*%
G04 APERTURE END LIST*
G36*
G01*
X145335625Y-102425500D02*
X146002375Y-102425500D01*
G75*
G02*
X146113500Y-102536625I0J-111125D01*
G01*
X146113500Y-103203375D01*
G75*
G02*
X146002375Y-103314500I-111125J0D01*
G01*
X145335625Y-103314500D01*
G75*
G02*
X145224500Y-103203375I0J111125D01*
G01*
X145224500Y-102536625D01*
G75*
G02*
X145335625Y-102425500I111125J0D01*
G01*
G37*
G36*
G01*
X145335625Y-100901500D02*
X146002375Y-100901500D01*
G75*
G02*
X146113500Y-101012625I0J-111125D01*
G01*
X146113500Y-101679375D01*
G75*
G02*
X146002375Y-101790500I-111125J0D01*
G01*
X145335625Y-101790500D01*
G75*
G02*
X145224500Y-101679375I0J111125D01*
G01*
X145224500Y-101012625D01*
G75*
G02*
X145335625Y-100901500I111125J0D01*
G01*
G37*
G36*
G01*
X118828625Y-64564500D02*
X119495375Y-64564500D01*
G75*
G02*
X119606500Y-64675625I0J-111125D01*
G01*
X119606500Y-65342375D01*
G75*
G02*
X119495375Y-65453500I-111125J0D01*
G01*
X118828625Y-65453500D01*
G75*
G02*
X118717500Y-65342375I0J111125D01*
G01*
X118717500Y-64675625D01*
G75*
G02*
X118828625Y-64564500I111125J0D01*
G01*
G37*
G36*
G01*
X118828625Y-63040500D02*
X119495375Y-63040500D01*
G75*
G02*
X119606500Y-63151625I0J-111125D01*
G01*
X119606500Y-63818375D01*
G75*
G02*
X119495375Y-63929500I-111125J0D01*
G01*
X118828625Y-63929500D01*
G75*
G02*
X118717500Y-63818375I0J111125D01*
G01*
X118717500Y-63151625D01*
G75*
G02*
X118828625Y-63040500I111125J0D01*
G01*
G37*
G36*
G01*
X182123375Y-36002500D02*
X181456625Y-36002500D01*
G75*
G02*
X181345500Y-35891375I0J111125D01*
G01*
X181345500Y-35224625D01*
G75*
G02*
X181456625Y-35113500I111125J0D01*
G01*
X182123375Y-35113500D01*
G75*
G02*
X182234500Y-35224625I0J-111125D01*
G01*
X182234500Y-35891375D01*
G75*
G02*
X182123375Y-36002500I-111125J0D01*
G01*
G37*
G36*
G01*
X182123375Y-37526500D02*
X181456625Y-37526500D01*
G75*
G02*
X181345500Y-37415375I0J111125D01*
G01*
X181345500Y-36748625D01*
G75*
G02*
X181456625Y-36637500I111125J0D01*
G01*
X182123375Y-36637500D01*
G75*
G02*
X182234500Y-36748625I0J-111125D01*
G01*
X182234500Y-37415375D01*
G75*
G02*
X182123375Y-37526500I-111125J0D01*
G01*
G37*
G36*
G01*
X177523375Y-35917500D02*
X176856625Y-35917500D01*
G75*
G02*
X176745500Y-35806375I0J111125D01*
G01*
X176745500Y-35139625D01*
G75*
G02*
X176856625Y-35028500I111125J0D01*
G01*
X177523375Y-35028500D01*
G75*
G02*
X177634500Y-35139625I0J-111125D01*
G01*
X177634500Y-35806375D01*
G75*
G02*
X177523375Y-35917500I-111125J0D01*
G01*
G37*
G36*
G01*
X177523375Y-37441500D02*
X176856625Y-37441500D01*
G75*
G02*
X176745500Y-37330375I0J111125D01*
G01*
X176745500Y-36663625D01*
G75*
G02*
X176856625Y-36552500I111125J0D01*
G01*
X177523375Y-36552500D01*
G75*
G02*
X177634500Y-36663625I0J-111125D01*
G01*
X177634500Y-37330375D01*
G75*
G02*
X177523375Y-37441500I-111125J0D01*
G01*
G37*
G36*
G01*
X146908375Y-56634166D02*
X146241625Y-56634166D01*
G75*
G02*
X146130500Y-56523041I0J111125D01*
G01*
X146130500Y-55856291D01*
G75*
G02*
X146241625Y-55745166I111125J0D01*
G01*
X146908375Y-55745166D01*
G75*
G02*
X147019500Y-55856291I0J-111125D01*
G01*
X147019500Y-56523041D01*
G75*
G02*
X146908375Y-56634166I-111125J0D01*
G01*
G37*
G36*
G01*
X146908375Y-58158166D02*
X146241625Y-58158166D01*
G75*
G02*
X146130500Y-58047041I0J111125D01*
G01*
X146130500Y-57380291D01*
G75*
G02*
X146241625Y-57269166I111125J0D01*
G01*
X146908375Y-57269166D01*
G75*
G02*
X147019500Y-57380291I0J-111125D01*
G01*
X147019500Y-58047041D01*
G75*
G02*
X146908375Y-58158166I-111125J0D01*
G01*
G37*
G36*
G01*
X146498375Y-66800832D02*
X145831625Y-66800832D01*
G75*
G02*
X145720500Y-66689707I0J111125D01*
G01*
X145720500Y-66022957D01*
G75*
G02*
X145831625Y-65911832I111125J0D01*
G01*
X146498375Y-65911832D01*
G75*
G02*
X146609500Y-66022957I0J-111125D01*
G01*
X146609500Y-66689707D01*
G75*
G02*
X146498375Y-66800832I-111125J0D01*
G01*
G37*
G36*
G01*
X146498375Y-68324832D02*
X145831625Y-68324832D01*
G75*
G02*
X145720500Y-68213707I0J111125D01*
G01*
X145720500Y-67546957D01*
G75*
G02*
X145831625Y-67435832I111125J0D01*
G01*
X146498375Y-67435832D01*
G75*
G02*
X146609500Y-67546957I0J-111125D01*
G01*
X146609500Y-68213707D01*
G75*
G02*
X146498375Y-68324832I-111125J0D01*
G01*
G37*
G36*
G01*
X139403375Y-56707500D02*
X138736625Y-56707500D01*
G75*
G02*
X138625500Y-56596375I0J111125D01*
G01*
X138625500Y-55929625D01*
G75*
G02*
X138736625Y-55818500I111125J0D01*
G01*
X139403375Y-55818500D01*
G75*
G02*
X139514500Y-55929625I0J-111125D01*
G01*
X139514500Y-56596375D01*
G75*
G02*
X139403375Y-56707500I-111125J0D01*
G01*
G37*
G36*
G01*
X139403375Y-58231500D02*
X138736625Y-58231500D01*
G75*
G02*
X138625500Y-58120375I0J111125D01*
G01*
X138625500Y-57453625D01*
G75*
G02*
X138736625Y-57342500I111125J0D01*
G01*
X139403375Y-57342500D01*
G75*
G02*
X139514500Y-57453625I0J-111125D01*
G01*
X139514500Y-58120375D01*
G75*
G02*
X139403375Y-58231500I-111125J0D01*
G01*
G37*
G36*
G01*
X139168375Y-67097500D02*
X138501625Y-67097500D01*
G75*
G02*
X138390500Y-66986375I0J111125D01*
G01*
X138390500Y-66319625D01*
G75*
G02*
X138501625Y-66208500I111125J0D01*
G01*
X139168375Y-66208500D01*
G75*
G02*
X139279500Y-66319625I0J-111125D01*
G01*
X139279500Y-66986375D01*
G75*
G02*
X139168375Y-67097500I-111125J0D01*
G01*
G37*
G36*
G01*
X139168375Y-68621500D02*
X138501625Y-68621500D01*
G75*
G02*
X138390500Y-68510375I0J111125D01*
G01*
X138390500Y-67843625D01*
G75*
G02*
X138501625Y-67732500I111125J0D01*
G01*
X139168375Y-67732500D01*
G75*
G02*
X139279500Y-67843625I0J-111125D01*
G01*
X139279500Y-68510375D01*
G75*
G02*
X139168375Y-68621500I-111125J0D01*
G01*
G37*
G36*
G01*
X179903375Y-35922500D02*
X179236625Y-35922500D01*
G75*
G02*
X179125500Y-35811375I0J111125D01*
G01*
X179125500Y-35144625D01*
G75*
G02*
X179236625Y-35033500I111125J0D01*
G01*
X179903375Y-35033500D01*
G75*
G02*
X180014500Y-35144625I0J-111125D01*
G01*
X180014500Y-35811375D01*
G75*
G02*
X179903375Y-35922500I-111125J0D01*
G01*
G37*
G36*
G01*
X179903375Y-37446500D02*
X179236625Y-37446500D01*
G75*
G02*
X179125500Y-37335375I0J111125D01*
G01*
X179125500Y-36668625D01*
G75*
G02*
X179236625Y-36557500I111125J0D01*
G01*
X179903375Y-36557500D01*
G75*
G02*
X180014500Y-36668625I0J-111125D01*
G01*
X180014500Y-37335375D01*
G75*
G02*
X179903375Y-37446500I-111125J0D01*
G01*
G37*
G36*
G01*
X174953375Y-35877500D02*
X174286625Y-35877500D01*
G75*
G02*
X174175500Y-35766375I0J111125D01*
G01*
X174175500Y-35099625D01*
G75*
G02*
X174286625Y-34988500I111125J0D01*
G01*
X174953375Y-34988500D01*
G75*
G02*
X175064500Y-35099625I0J-111125D01*
G01*
X175064500Y-35766375D01*
G75*
G02*
X174953375Y-35877500I-111125J0D01*
G01*
G37*
G36*
G01*
X174953375Y-37401500D02*
X174286625Y-37401500D01*
G75*
G02*
X174175500Y-37290375I0J111125D01*
G01*
X174175500Y-36623625D01*
G75*
G02*
X174286625Y-36512500I111125J0D01*
G01*
X174953375Y-36512500D01*
G75*
G02*
X175064500Y-36623625I0J-111125D01*
G01*
X175064500Y-37290375D01*
G75*
G02*
X174953375Y-37401500I-111125J0D01*
G01*
G37*
G36*
G01*
X146568375Y-61887500D02*
X145901625Y-61887500D01*
G75*
G02*
X145790500Y-61776375I0J111125D01*
G01*
X145790500Y-61109625D01*
G75*
G02*
X145901625Y-60998500I111125J0D01*
G01*
X146568375Y-60998500D01*
G75*
G02*
X146679500Y-61109625I0J-111125D01*
G01*
X146679500Y-61776375D01*
G75*
G02*
X146568375Y-61887500I-111125J0D01*
G01*
G37*
G36*
G01*
X146568375Y-63411500D02*
X145901625Y-63411500D01*
G75*
G02*
X145790500Y-63300375I0J111125D01*
G01*
X145790500Y-62633625D01*
G75*
G02*
X145901625Y-62522500I111125J0D01*
G01*
X146568375Y-62522500D01*
G75*
G02*
X146679500Y-62633625I0J-111125D01*
G01*
X146679500Y-63300375D01*
G75*
G02*
X146568375Y-63411500I-111125J0D01*
G01*
G37*
G36*
G01*
X146428375Y-71667500D02*
X145761625Y-71667500D01*
G75*
G02*
X145650500Y-71556375I0J111125D01*
G01*
X145650500Y-70889625D01*
G75*
G02*
X145761625Y-70778500I111125J0D01*
G01*
X146428375Y-70778500D01*
G75*
G02*
X146539500Y-70889625I0J-111125D01*
G01*
X146539500Y-71556375D01*
G75*
G02*
X146428375Y-71667500I-111125J0D01*
G01*
G37*
G36*
G01*
X146428375Y-73191500D02*
X145761625Y-73191500D01*
G75*
G02*
X145650500Y-73080375I0J111125D01*
G01*
X145650500Y-72413625D01*
G75*
G02*
X145761625Y-72302500I111125J0D01*
G01*
X146428375Y-72302500D01*
G75*
G02*
X146539500Y-72413625I0J-111125D01*
G01*
X146539500Y-73080375D01*
G75*
G02*
X146428375Y-73191500I-111125J0D01*
G01*
G37*
G36*
G01*
X139138375Y-61787500D02*
X138471625Y-61787500D01*
G75*
G02*
X138360500Y-61676375I0J111125D01*
G01*
X138360500Y-61009625D01*
G75*
G02*
X138471625Y-60898500I111125J0D01*
G01*
X139138375Y-60898500D01*
G75*
G02*
X139249500Y-61009625I0J-111125D01*
G01*
X139249500Y-61676375D01*
G75*
G02*
X139138375Y-61787500I-111125J0D01*
G01*
G37*
G36*
G01*
X139138375Y-63311500D02*
X138471625Y-63311500D01*
G75*
G02*
X138360500Y-63200375I0J111125D01*
G01*
X138360500Y-62533625D01*
G75*
G02*
X138471625Y-62422500I111125J0D01*
G01*
X139138375Y-62422500D01*
G75*
G02*
X139249500Y-62533625I0J-111125D01*
G01*
X139249500Y-63200375D01*
G75*
G02*
X139138375Y-63311500I-111125J0D01*
G01*
G37*
G36*
G01*
X139048375Y-71887500D02*
X138381625Y-71887500D01*
G75*
G02*
X138270500Y-71776375I0J111125D01*
G01*
X138270500Y-71109625D01*
G75*
G02*
X138381625Y-70998500I111125J0D01*
G01*
X139048375Y-70998500D01*
G75*
G02*
X139159500Y-71109625I0J-111125D01*
G01*
X139159500Y-71776375D01*
G75*
G02*
X139048375Y-71887500I-111125J0D01*
G01*
G37*
G36*
G01*
X139048375Y-73411500D02*
X138381625Y-73411500D01*
G75*
G02*
X138270500Y-73300375I0J111125D01*
G01*
X138270500Y-72633625D01*
G75*
G02*
X138381625Y-72522500I111125J0D01*
G01*
X139048375Y-72522500D01*
G75*
G02*
X139159500Y-72633625I0J-111125D01*
G01*
X139159500Y-73300375D01*
G75*
G02*
X139048375Y-73411500I-111125J0D01*
G01*
G37*
G36*
G01*
X118593375Y-34247500D02*
X117926625Y-34247500D01*
G75*
G02*
X117815500Y-34136375I0J111125D01*
G01*
X117815500Y-33469625D01*
G75*
G02*
X117926625Y-33358500I111125J0D01*
G01*
X118593375Y-33358500D01*
G75*
G02*
X118704500Y-33469625I0J-111125D01*
G01*
X118704500Y-34136375D01*
G75*
G02*
X118593375Y-34247500I-111125J0D01*
G01*
G37*
G36*
G01*
X118593375Y-35771500D02*
X117926625Y-35771500D01*
G75*
G02*
X117815500Y-35660375I0J111125D01*
G01*
X117815500Y-34993625D01*
G75*
G02*
X117926625Y-34882500I111125J0D01*
G01*
X118593375Y-34882500D01*
G75*
G02*
X118704500Y-34993625I0J-111125D01*
G01*
X118704500Y-35660375D01*
G75*
G02*
X118593375Y-35771500I-111125J0D01*
G01*
G37*
G36*
G01*
X118983375Y-26417500D02*
X118316625Y-26417500D01*
G75*
G02*
X118205500Y-26306375I0J111125D01*
G01*
X118205500Y-25639625D01*
G75*
G02*
X118316625Y-25528500I111125J0D01*
G01*
X118983375Y-25528500D01*
G75*
G02*
X119094500Y-25639625I0J-111125D01*
G01*
X119094500Y-26306375D01*
G75*
G02*
X118983375Y-26417500I-111125J0D01*
G01*
G37*
G36*
G01*
X118983375Y-27941500D02*
X118316625Y-27941500D01*
G75*
G02*
X118205500Y-27830375I0J111125D01*
G01*
X118205500Y-27163625D01*
G75*
G02*
X118316625Y-27052500I111125J0D01*
G01*
X118983375Y-27052500D01*
G75*
G02*
X119094500Y-27163625I0J-111125D01*
G01*
X119094500Y-27830375D01*
G75*
G02*
X118983375Y-27941500I-111125J0D01*
G01*
G37*
G36*
G01*
X172292500Y-36963375D02*
X172292500Y-36296625D01*
G75*
G02*
X172403625Y-36185500I111125J0D01*
G01*
X173070375Y-36185500D01*
G75*
G02*
X173181500Y-36296625I0J-111125D01*
G01*
X173181500Y-36963375D01*
G75*
G02*
X173070375Y-37074500I-111125J0D01*
G01*
X172403625Y-37074500D01*
G75*
G02*
X172292500Y-36963375I0J111125D01*
G01*
G37*
G36*
G01*
X170768500Y-36963375D02*
X170768500Y-36296625D01*
G75*
G02*
X170879625Y-36185500I111125J0D01*
G01*
X171546375Y-36185500D01*
G75*
G02*
X171657500Y-36296625I0J-111125D01*
G01*
X171657500Y-36963375D01*
G75*
G02*
X171546375Y-37074500I-111125J0D01*
G01*
X170879625Y-37074500D01*
G75*
G02*
X170768500Y-36963375I0J111125D01*
G01*
G37*
G36*
G01*
X145335625Y-107011500D02*
X146002375Y-107011500D01*
G75*
G02*
X146113500Y-107122625I0J-111125D01*
G01*
X146113500Y-107789375D01*
G75*
G02*
X146002375Y-107900500I-111125J0D01*
G01*
X145335625Y-107900500D01*
G75*
G02*
X145224500Y-107789375I0J111125D01*
G01*
X145224500Y-107122625D01*
G75*
G02*
X145335625Y-107011500I111125J0D01*
G01*
G37*
G36*
G01*
X145335625Y-105487500D02*
X146002375Y-105487500D01*
G75*
G02*
X146113500Y-105598625I0J-111125D01*
G01*
X146113500Y-106265375D01*
G75*
G02*
X146002375Y-106376500I-111125J0D01*
G01*
X145335625Y-106376500D01*
G75*
G02*
X145224500Y-106265375I0J111125D01*
G01*
X145224500Y-105598625D01*
G75*
G02*
X145335625Y-105487500I111125J0D01*
G01*
G37*
D10*
X120650000Y-61214000D03*
X126150000Y-61214000D03*
D11*
X177006000Y-74920000D03*
X173006000Y-74920000D03*
X176720000Y-84025000D03*
X172720000Y-84025000D03*
X176752000Y-92050000D03*
X172752000Y-92050000D03*
X169704000Y-62484000D03*
X173704000Y-62484000D03*
X169736000Y-66040000D03*
X173736000Y-66040000D03*
D12*
X125984000Y-53204000D03*
X125984000Y-57204000D03*
G36*
G01*
X118576625Y-88735000D02*
X119243375Y-88735000D01*
G75*
G02*
X119354500Y-88846125I0J-111125D01*
G01*
X119354500Y-89512875D01*
G75*
G02*
X119243375Y-89624000I-111125J0D01*
G01*
X118576625Y-89624000D01*
G75*
G02*
X118465500Y-89512875I0J111125D01*
G01*
X118465500Y-88846125D01*
G75*
G02*
X118576625Y-88735000I111125J0D01*
G01*
G37*
G36*
G01*
X118576625Y-87211000D02*
X119243375Y-87211000D01*
G75*
G02*
X119354500Y-87322125I0J-111125D01*
G01*
X119354500Y-87988875D01*
G75*
G02*
X119243375Y-88100000I-111125J0D01*
G01*
X118576625Y-88100000D01*
G75*
G02*
X118465500Y-87988875I0J111125D01*
G01*
X118465500Y-87322125D01*
G75*
G02*
X118576625Y-87211000I111125J0D01*
G01*
G37*
G36*
G01*
X118556625Y-85205000D02*
X119223375Y-85205000D01*
G75*
G02*
X119334500Y-85316125I0J-111125D01*
G01*
X119334500Y-85982875D01*
G75*
G02*
X119223375Y-86094000I-111125J0D01*
G01*
X118556625Y-86094000D01*
G75*
G02*
X118445500Y-85982875I0J111125D01*
G01*
X118445500Y-85316125D01*
G75*
G02*
X118556625Y-85205000I111125J0D01*
G01*
G37*
G36*
G01*
X118556625Y-83681000D02*
X119223375Y-83681000D01*
G75*
G02*
X119334500Y-83792125I0J-111125D01*
G01*
X119334500Y-84458875D01*
G75*
G02*
X119223375Y-84570000I-111125J0D01*
G01*
X118556625Y-84570000D01*
G75*
G02*
X118445500Y-84458875I0J111125D01*
G01*
X118445500Y-83792125D01*
G75*
G02*
X118556625Y-83681000I111125J0D01*
G01*
G37*
G36*
G01*
X116773375Y-84570000D02*
X116106625Y-84570000D01*
G75*
G02*
X115995500Y-84458875I0J111125D01*
G01*
X115995500Y-83792125D01*
G75*
G02*
X116106625Y-83681000I111125J0D01*
G01*
X116773375Y-83681000D01*
G75*
G02*
X116884500Y-83792125I0J-111125D01*
G01*
X116884500Y-84458875D01*
G75*
G02*
X116773375Y-84570000I-111125J0D01*
G01*
G37*
G36*
G01*
X116773375Y-86094000D02*
X116106625Y-86094000D01*
G75*
G02*
X115995500Y-85982875I0J111125D01*
G01*
X115995500Y-85316125D01*
G75*
G02*
X116106625Y-85205000I111125J0D01*
G01*
X116773375Y-85205000D01*
G75*
G02*
X116884500Y-85316125I0J-111125D01*
G01*
X116884500Y-85982875D01*
G75*
G02*
X116773375Y-86094000I-111125J0D01*
G01*
G37*
G36*
G01*
X116743375Y-88080000D02*
X116076625Y-88080000D01*
G75*
G02*
X115965500Y-87968875I0J111125D01*
G01*
X115965500Y-87302125D01*
G75*
G02*
X116076625Y-87191000I111125J0D01*
G01*
X116743375Y-87191000D01*
G75*
G02*
X116854500Y-87302125I0J-111125D01*
G01*
X116854500Y-87968875D01*
G75*
G02*
X116743375Y-88080000I-111125J0D01*
G01*
G37*
G36*
G01*
X116743375Y-89604000D02*
X116076625Y-89604000D01*
G75*
G02*
X115965500Y-89492875I0J111125D01*
G01*
X115965500Y-88826125D01*
G75*
G02*
X116076625Y-88715000I111125J0D01*
G01*
X116743375Y-88715000D01*
G75*
G02*
X116854500Y-88826125I0J-111125D01*
G01*
X116854500Y-89492875D01*
G75*
G02*
X116743375Y-89604000I-111125J0D01*
G01*
G37*
G36*
G01*
X175313375Y-101020500D02*
X174646625Y-101020500D01*
G75*
G02*
X174535500Y-100909375I0J111125D01*
G01*
X174535500Y-100242625D01*
G75*
G02*
X174646625Y-100131500I111125J0D01*
G01*
X175313375Y-100131500D01*
G75*
G02*
X175424500Y-100242625I0J-111125D01*
G01*
X175424500Y-100909375D01*
G75*
G02*
X175313375Y-101020500I-111125J0D01*
G01*
G37*
G36*
G01*
X175313375Y-102544500D02*
X174646625Y-102544500D01*
G75*
G02*
X174535500Y-102433375I0J111125D01*
G01*
X174535500Y-101766625D01*
G75*
G02*
X174646625Y-101655500I111125J0D01*
G01*
X175313375Y-101655500D01*
G75*
G02*
X175424500Y-101766625I0J-111125D01*
G01*
X175424500Y-102433375D01*
G75*
G02*
X175313375Y-102544500I-111125J0D01*
G01*
G37*
G36*
G01*
X126678000Y-82345500D02*
X126678000Y-82070500D01*
G75*
G02*
X126815500Y-81933000I137500J0D01*
G01*
X128140500Y-81933000D01*
G75*
G02*
X128278000Y-82070500I0J-137500D01*
G01*
X128278000Y-82345500D01*
G75*
G02*
X128140500Y-82483000I-137500J0D01*
G01*
X126815500Y-82483000D01*
G75*
G02*
X126678000Y-82345500I0J137500D01*
G01*
G37*
G36*
G01*
X126678000Y-83615500D02*
X126678000Y-83340500D01*
G75*
G02*
X126815500Y-83203000I137500J0D01*
G01*
X128140500Y-83203000D01*
G75*
G02*
X128278000Y-83340500I0J-137500D01*
G01*
X128278000Y-83615500D01*
G75*
G02*
X128140500Y-83753000I-137500J0D01*
G01*
X126815500Y-83753000D01*
G75*
G02*
X126678000Y-83615500I0J137500D01*
G01*
G37*
G36*
G01*
X126678000Y-84885500D02*
X126678000Y-84610500D01*
G75*
G02*
X126815500Y-84473000I137500J0D01*
G01*
X128140500Y-84473000D01*
G75*
G02*
X128278000Y-84610500I0J-137500D01*
G01*
X128278000Y-84885500D01*
G75*
G02*
X128140500Y-85023000I-137500J0D01*
G01*
X126815500Y-85023000D01*
G75*
G02*
X126678000Y-84885500I0J137500D01*
G01*
G37*
G36*
G01*
X126678000Y-86155500D02*
X126678000Y-85880500D01*
G75*
G02*
X126815500Y-85743000I137500J0D01*
G01*
X128140500Y-85743000D01*
G75*
G02*
X128278000Y-85880500I0J-137500D01*
G01*
X128278000Y-86155500D01*
G75*
G02*
X128140500Y-86293000I-137500J0D01*
G01*
X126815500Y-86293000D01*
G75*
G02*
X126678000Y-86155500I0J137500D01*
G01*
G37*
G36*
G01*
X126678000Y-87425500D02*
X126678000Y-87150500D01*
G75*
G02*
X126815500Y-87013000I137500J0D01*
G01*
X128140500Y-87013000D01*
G75*
G02*
X128278000Y-87150500I0J-137500D01*
G01*
X128278000Y-87425500D01*
G75*
G02*
X128140500Y-87563000I-137500J0D01*
G01*
X126815500Y-87563000D01*
G75*
G02*
X126678000Y-87425500I0J137500D01*
G01*
G37*
G36*
G01*
X126678000Y-88695500D02*
X126678000Y-88420500D01*
G75*
G02*
X126815500Y-88283000I137500J0D01*
G01*
X128140500Y-88283000D01*
G75*
G02*
X128278000Y-88420500I0J-137500D01*
G01*
X128278000Y-88695500D01*
G75*
G02*
X128140500Y-88833000I-137500J0D01*
G01*
X126815500Y-88833000D01*
G75*
G02*
X126678000Y-88695500I0J137500D01*
G01*
G37*
G36*
G01*
X126678000Y-89965500D02*
X126678000Y-89690500D01*
G75*
G02*
X126815500Y-89553000I137500J0D01*
G01*
X128140500Y-89553000D01*
G75*
G02*
X128278000Y-89690500I0J-137500D01*
G01*
X128278000Y-89965500D01*
G75*
G02*
X128140500Y-90103000I-137500J0D01*
G01*
X126815500Y-90103000D01*
G75*
G02*
X126678000Y-89965500I0J137500D01*
G01*
G37*
G36*
G01*
X126678000Y-91235500D02*
X126678000Y-90960500D01*
G75*
G02*
X126815500Y-90823000I137500J0D01*
G01*
X128140500Y-90823000D01*
G75*
G02*
X128278000Y-90960500I0J-137500D01*
G01*
X128278000Y-91235500D01*
G75*
G02*
X128140500Y-91373000I-137500J0D01*
G01*
X126815500Y-91373000D01*
G75*
G02*
X126678000Y-91235500I0J137500D01*
G01*
G37*
G36*
G01*
X120178000Y-91235500D02*
X120178000Y-90960500D01*
G75*
G02*
X120315500Y-90823000I137500J0D01*
G01*
X121640500Y-90823000D01*
G75*
G02*
X121778000Y-90960500I0J-137500D01*
G01*
X121778000Y-91235500D01*
G75*
G02*
X121640500Y-91373000I-137500J0D01*
G01*
X120315500Y-91373000D01*
G75*
G02*
X120178000Y-91235500I0J137500D01*
G01*
G37*
G36*
G01*
X120178000Y-89965500D02*
X120178000Y-89690500D01*
G75*
G02*
X120315500Y-89553000I137500J0D01*
G01*
X121640500Y-89553000D01*
G75*
G02*
X121778000Y-89690500I0J-137500D01*
G01*
X121778000Y-89965500D01*
G75*
G02*
X121640500Y-90103000I-137500J0D01*
G01*
X120315500Y-90103000D01*
G75*
G02*
X120178000Y-89965500I0J137500D01*
G01*
G37*
G36*
G01*
X120178000Y-88695500D02*
X120178000Y-88420500D01*
G75*
G02*
X120315500Y-88283000I137500J0D01*
G01*
X121640500Y-88283000D01*
G75*
G02*
X121778000Y-88420500I0J-137500D01*
G01*
X121778000Y-88695500D01*
G75*
G02*
X121640500Y-88833000I-137500J0D01*
G01*
X120315500Y-88833000D01*
G75*
G02*
X120178000Y-88695500I0J137500D01*
G01*
G37*
G36*
G01*
X120178000Y-87425500D02*
X120178000Y-87150500D01*
G75*
G02*
X120315500Y-87013000I137500J0D01*
G01*
X121640500Y-87013000D01*
G75*
G02*
X121778000Y-87150500I0J-137500D01*
G01*
X121778000Y-87425500D01*
G75*
G02*
X121640500Y-87563000I-137500J0D01*
G01*
X120315500Y-87563000D01*
G75*
G02*
X120178000Y-87425500I0J137500D01*
G01*
G37*
G36*
G01*
X120178000Y-86155500D02*
X120178000Y-85880500D01*
G75*
G02*
X120315500Y-85743000I137500J0D01*
G01*
X121640500Y-85743000D01*
G75*
G02*
X121778000Y-85880500I0J-137500D01*
G01*
X121778000Y-86155500D01*
G75*
G02*
X121640500Y-86293000I-137500J0D01*
G01*
X120315500Y-86293000D01*
G75*
G02*
X120178000Y-86155500I0J137500D01*
G01*
G37*
G36*
G01*
X120178000Y-84885500D02*
X120178000Y-84610500D01*
G75*
G02*
X120315500Y-84473000I137500J0D01*
G01*
X121640500Y-84473000D01*
G75*
G02*
X121778000Y-84610500I0J-137500D01*
G01*
X121778000Y-84885500D01*
G75*
G02*
X121640500Y-85023000I-137500J0D01*
G01*
X120315500Y-85023000D01*
G75*
G02*
X120178000Y-84885500I0J137500D01*
G01*
G37*
G36*
G01*
X120178000Y-83615500D02*
X120178000Y-83340500D01*
G75*
G02*
X120315500Y-83203000I137500J0D01*
G01*
X121640500Y-83203000D01*
G75*
G02*
X121778000Y-83340500I0J-137500D01*
G01*
X121778000Y-83615500D01*
G75*
G02*
X121640500Y-83753000I-137500J0D01*
G01*
X120315500Y-83753000D01*
G75*
G02*
X120178000Y-83615500I0J137500D01*
G01*
G37*
G36*
G01*
X120178000Y-82345500D02*
X120178000Y-82070500D01*
G75*
G02*
X120315500Y-81933000I137500J0D01*
G01*
X121640500Y-81933000D01*
G75*
G02*
X121778000Y-82070500I0J-137500D01*
G01*
X121778000Y-82345500D01*
G75*
G02*
X121640500Y-82483000I-137500J0D01*
G01*
X120315500Y-82483000D01*
G75*
G02*
X120178000Y-82345500I0J137500D01*
G01*
G37*
D13*
X182885000Y-107870000D03*
X181615000Y-107870000D03*
X180345000Y-107870000D03*
X179075000Y-107870000D03*
X179075000Y-100470000D03*
X180345000Y-100470000D03*
X181615000Y-100470000D03*
X182885000Y-100470000D03*
G36*
G01*
X161354500Y-49816625D02*
X161354500Y-50483375D01*
G75*
G02*
X161243375Y-50594500I-111125J0D01*
G01*
X160576625Y-50594500D01*
G75*
G02*
X160465500Y-50483375I0J111125D01*
G01*
X160465500Y-49816625D01*
G75*
G02*
X160576625Y-49705500I111125J0D01*
G01*
X161243375Y-49705500D01*
G75*
G02*
X161354500Y-49816625I0J-111125D01*
G01*
G37*
G36*
G01*
X162878500Y-49816625D02*
X162878500Y-50483375D01*
G75*
G02*
X162767375Y-50594500I-111125J0D01*
G01*
X162100625Y-50594500D01*
G75*
G02*
X161989500Y-50483375I0J111125D01*
G01*
X161989500Y-49816625D01*
G75*
G02*
X162100625Y-49705500I111125J0D01*
G01*
X162767375Y-49705500D01*
G75*
G02*
X162878500Y-49816625I0J-111125D01*
G01*
G37*
D14*
X118330000Y-30520000D03*
X116330000Y-31470000D03*
X116330000Y-29570000D03*
G36*
G01*
X192295500Y-107003375D02*
X192295500Y-106336625D01*
G75*
G02*
X192406625Y-106225500I111125J0D01*
G01*
X193073375Y-106225500D01*
G75*
G02*
X193184500Y-106336625I0J-111125D01*
G01*
X193184500Y-107003375D01*
G75*
G02*
X193073375Y-107114500I-111125J0D01*
G01*
X192406625Y-107114500D01*
G75*
G02*
X192295500Y-107003375I0J111125D01*
G01*
G37*
G36*
G01*
X190771500Y-107003375D02*
X190771500Y-106336625D01*
G75*
G02*
X190882625Y-106225500I111125J0D01*
G01*
X191549375Y-106225500D01*
G75*
G02*
X191660500Y-106336625I0J-111125D01*
G01*
X191660500Y-107003375D01*
G75*
G02*
X191549375Y-107114500I-111125J0D01*
G01*
X190882625Y-107114500D01*
G75*
G02*
X190771500Y-107003375I0J111125D01*
G01*
G37*
D15*
X176620000Y-71398000D03*
D16*
X182817800Y-69086600D03*
X182817800Y-71398000D03*
X182817800Y-73709400D03*
D17*
X144370000Y-57050000D03*
X141370000Y-58000000D03*
X141370000Y-56100000D03*
X143935000Y-67465000D03*
X140935000Y-68415000D03*
X140935000Y-66515000D03*
X144030000Y-62180000D03*
X141030000Y-63130000D03*
X141030000Y-61230000D03*
D11*
X192710000Y-26980000D03*
X188710000Y-26980000D03*
X192450000Y-44700000D03*
X188450000Y-44700000D03*
X192525000Y-35375000D03*
X188525000Y-35375000D03*
D17*
X143865000Y-72230000D03*
X140865000Y-73180000D03*
X140865000Y-71280000D03*
D11*
X192575000Y-53800000D03*
X188575000Y-53800000D03*
G36*
G01*
X124060000Y-47280000D02*
X124060000Y-50180000D01*
G75*
G02*
X123810000Y-50430000I-250000J0D01*
G01*
X123010000Y-50430000D01*
G75*
G02*
X122760000Y-50180000I0J250000D01*
G01*
X122760000Y-47280000D01*
G75*
G02*
X123010000Y-47030000I250000J0D01*
G01*
X123810000Y-47030000D01*
G75*
G02*
X124060000Y-47280000I0J-250000D01*
G01*
G37*
G36*
G01*
X128510000Y-47280000D02*
X128510000Y-50180000D01*
G75*
G02*
X128260000Y-50430000I-250000J0D01*
G01*
X127460000Y-50430000D01*
G75*
G02*
X127210000Y-50180000I0J250000D01*
G01*
X127210000Y-47280000D01*
G75*
G02*
X127460000Y-47030000I250000J0D01*
G01*
X128260000Y-47030000D01*
G75*
G02*
X128510000Y-47280000I0J-250000D01*
G01*
G37*
G36*
G01*
X156975500Y-48153375D02*
X156975500Y-47486625D01*
G75*
G02*
X157086625Y-47375500I111125J0D01*
G01*
X157753375Y-47375500D01*
G75*
G02*
X157864500Y-47486625I0J-111125D01*
G01*
X157864500Y-48153375D01*
G75*
G02*
X157753375Y-48264500I-111125J0D01*
G01*
X157086625Y-48264500D01*
G75*
G02*
X156975500Y-48153375I0J111125D01*
G01*
G37*
G36*
G01*
X155451500Y-48153375D02*
X155451500Y-47486625D01*
G75*
G02*
X155562625Y-47375500I111125J0D01*
G01*
X156229375Y-47375500D01*
G75*
G02*
X156340500Y-47486625I0J-111125D01*
G01*
X156340500Y-48153375D01*
G75*
G02*
X156229375Y-48264500I-111125J0D01*
G01*
X155562625Y-48264500D01*
G75*
G02*
X155451500Y-48153375I0J111125D01*
G01*
G37*
G36*
G01*
X146256375Y-19481900D02*
X145589625Y-19481900D01*
G75*
G02*
X145478500Y-19370775I0J111125D01*
G01*
X145478500Y-18704025D01*
G75*
G02*
X145589625Y-18592900I111125J0D01*
G01*
X146256375Y-18592900D01*
G75*
G02*
X146367500Y-18704025I0J-111125D01*
G01*
X146367500Y-19370775D01*
G75*
G02*
X146256375Y-19481900I-111125J0D01*
G01*
G37*
G36*
G01*
X146256375Y-21005900D02*
X145589625Y-21005900D01*
G75*
G02*
X145478500Y-20894775I0J111125D01*
G01*
X145478500Y-20228025D01*
G75*
G02*
X145589625Y-20116900I111125J0D01*
G01*
X146256375Y-20116900D01*
G75*
G02*
X146367500Y-20228025I0J-111125D01*
G01*
X146367500Y-20894775D01*
G75*
G02*
X146256375Y-21005900I-111125J0D01*
G01*
G37*
G36*
G01*
X148796375Y-19494500D02*
X148129625Y-19494500D01*
G75*
G02*
X148018500Y-19383375I0J111125D01*
G01*
X148018500Y-18716625D01*
G75*
G02*
X148129625Y-18605500I111125J0D01*
G01*
X148796375Y-18605500D01*
G75*
G02*
X148907500Y-18716625I0J-111125D01*
G01*
X148907500Y-19383375D01*
G75*
G02*
X148796375Y-19494500I-111125J0D01*
G01*
G37*
G36*
G01*
X148796375Y-21018500D02*
X148129625Y-21018500D01*
G75*
G02*
X148018500Y-20907375I0J111125D01*
G01*
X148018500Y-20240625D01*
G75*
G02*
X148129625Y-20129500I111125J0D01*
G01*
X148796375Y-20129500D01*
G75*
G02*
X148907500Y-20240625I0J-111125D01*
G01*
X148907500Y-20907375D01*
G75*
G02*
X148796375Y-21018500I-111125J0D01*
G01*
G37*
G36*
G01*
X151122500Y-39664625D02*
X151122500Y-40331375D01*
G75*
G02*
X151011375Y-40442500I-111125J0D01*
G01*
X150344625Y-40442500D01*
G75*
G02*
X150233500Y-40331375I0J111125D01*
G01*
X150233500Y-39664625D01*
G75*
G02*
X150344625Y-39553500I111125J0D01*
G01*
X151011375Y-39553500D01*
G75*
G02*
X151122500Y-39664625I0J-111125D01*
G01*
G37*
G36*
G01*
X152646500Y-39664625D02*
X152646500Y-40331375D01*
G75*
G02*
X152535375Y-40442500I-111125J0D01*
G01*
X151868625Y-40442500D01*
G75*
G02*
X151757500Y-40331375I0J111125D01*
G01*
X151757500Y-39664625D01*
G75*
G02*
X151868625Y-39553500I111125J0D01*
G01*
X152535375Y-39553500D01*
G75*
G02*
X152646500Y-39664625I0J-111125D01*
G01*
G37*
G36*
G01*
X151757500Y-42871375D02*
X151757500Y-42204625D01*
G75*
G02*
X151868625Y-42093500I111125J0D01*
G01*
X152535375Y-42093500D01*
G75*
G02*
X152646500Y-42204625I0J-111125D01*
G01*
X152646500Y-42871375D01*
G75*
G02*
X152535375Y-42982500I-111125J0D01*
G01*
X151868625Y-42982500D01*
G75*
G02*
X151757500Y-42871375I0J111125D01*
G01*
G37*
G36*
G01*
X150233500Y-42871375D02*
X150233500Y-42204625D01*
G75*
G02*
X150344625Y-42093500I111125J0D01*
G01*
X151011375Y-42093500D01*
G75*
G02*
X151122500Y-42204625I0J-111125D01*
G01*
X151122500Y-42871375D01*
G75*
G02*
X151011375Y-42982500I-111125J0D01*
G01*
X150344625Y-42982500D01*
G75*
G02*
X150233500Y-42871375I0J111125D01*
G01*
G37*
G36*
G01*
X128476375Y-19494500D02*
X127809625Y-19494500D01*
G75*
G02*
X127698500Y-19383375I0J111125D01*
G01*
X127698500Y-18716625D01*
G75*
G02*
X127809625Y-18605500I111125J0D01*
G01*
X128476375Y-18605500D01*
G75*
G02*
X128587500Y-18716625I0J-111125D01*
G01*
X128587500Y-19383375D01*
G75*
G02*
X128476375Y-19494500I-111125J0D01*
G01*
G37*
G36*
G01*
X128476375Y-21018500D02*
X127809625Y-21018500D01*
G75*
G02*
X127698500Y-20907375I0J111125D01*
G01*
X127698500Y-20240625D01*
G75*
G02*
X127809625Y-20129500I111125J0D01*
G01*
X128476375Y-20129500D01*
G75*
G02*
X128587500Y-20240625I0J-111125D01*
G01*
X128587500Y-20907375D01*
G75*
G02*
X128476375Y-21018500I-111125J0D01*
G01*
G37*
G36*
G01*
X132889625Y-20129500D02*
X133556375Y-20129500D01*
G75*
G02*
X133667500Y-20240625I0J-111125D01*
G01*
X133667500Y-20907375D01*
G75*
G02*
X133556375Y-21018500I-111125J0D01*
G01*
X132889625Y-21018500D01*
G75*
G02*
X132778500Y-20907375I0J111125D01*
G01*
X132778500Y-20240625D01*
G75*
G02*
X132889625Y-20129500I111125J0D01*
G01*
G37*
G36*
G01*
X132889625Y-18605500D02*
X133556375Y-18605500D01*
G75*
G02*
X133667500Y-18716625I0J-111125D01*
G01*
X133667500Y-19383375D01*
G75*
G02*
X133556375Y-19494500I-111125J0D01*
G01*
X132889625Y-19494500D01*
G75*
G02*
X132778500Y-19383375I0J111125D01*
G01*
X132778500Y-18716625D01*
G75*
G02*
X132889625Y-18605500I111125J0D01*
G01*
G37*
G36*
G01*
X146169500Y-42871375D02*
X146169500Y-42204625D01*
G75*
G02*
X146280625Y-42093500I111125J0D01*
G01*
X146947375Y-42093500D01*
G75*
G02*
X147058500Y-42204625I0J-111125D01*
G01*
X147058500Y-42871375D01*
G75*
G02*
X146947375Y-42982500I-111125J0D01*
G01*
X146280625Y-42982500D01*
G75*
G02*
X146169500Y-42871375I0J111125D01*
G01*
G37*
G36*
G01*
X144645500Y-42871375D02*
X144645500Y-42204625D01*
G75*
G02*
X144756625Y-42093500I111125J0D01*
G01*
X145423375Y-42093500D01*
G75*
G02*
X145534500Y-42204625I0J-111125D01*
G01*
X145534500Y-42871375D01*
G75*
G02*
X145423375Y-42982500I-111125J0D01*
G01*
X144756625Y-42982500D01*
G75*
G02*
X144645500Y-42871375I0J111125D01*
G01*
G37*
G36*
G01*
X128570500Y-74816625D02*
X128570500Y-75483375D01*
G75*
G02*
X128459375Y-75594500I-111125J0D01*
G01*
X127792625Y-75594500D01*
G75*
G02*
X127681500Y-75483375I0J111125D01*
G01*
X127681500Y-74816625D01*
G75*
G02*
X127792625Y-74705500I111125J0D01*
G01*
X128459375Y-74705500D01*
G75*
G02*
X128570500Y-74816625I0J-111125D01*
G01*
G37*
G36*
G01*
X130094500Y-74816625D02*
X130094500Y-75483375D01*
G75*
G02*
X129983375Y-75594500I-111125J0D01*
G01*
X129316625Y-75594500D01*
G75*
G02*
X129205500Y-75483375I0J111125D01*
G01*
X129205500Y-74816625D01*
G75*
G02*
X129316625Y-74705500I111125J0D01*
G01*
X129983375Y-74705500D01*
G75*
G02*
X130094500Y-74816625I0J-111125D01*
G01*
G37*
G36*
G01*
X128623500Y-66558375D02*
X128623500Y-65891625D01*
G75*
G02*
X128734625Y-65780500I111125J0D01*
G01*
X129401375Y-65780500D01*
G75*
G02*
X129512500Y-65891625I0J-111125D01*
G01*
X129512500Y-66558375D01*
G75*
G02*
X129401375Y-66669500I-111125J0D01*
G01*
X128734625Y-66669500D01*
G75*
G02*
X128623500Y-66558375I0J111125D01*
G01*
G37*
G36*
G01*
X127099500Y-66558375D02*
X127099500Y-65891625D01*
G75*
G02*
X127210625Y-65780500I111125J0D01*
G01*
X127877375Y-65780500D01*
G75*
G02*
X127988500Y-65891625I0J-111125D01*
G01*
X127988500Y-66558375D01*
G75*
G02*
X127877375Y-66669500I-111125J0D01*
G01*
X127210625Y-66669500D01*
G75*
G02*
X127099500Y-66558375I0J111125D01*
G01*
G37*
G36*
G01*
X116808375Y-52957500D02*
X116141625Y-52957500D01*
G75*
G02*
X116030500Y-52846375I0J111125D01*
G01*
X116030500Y-52179625D01*
G75*
G02*
X116141625Y-52068500I111125J0D01*
G01*
X116808375Y-52068500D01*
G75*
G02*
X116919500Y-52179625I0J-111125D01*
G01*
X116919500Y-52846375D01*
G75*
G02*
X116808375Y-52957500I-111125J0D01*
G01*
G37*
G36*
G01*
X116808375Y-54481500D02*
X116141625Y-54481500D01*
G75*
G02*
X116030500Y-54370375I0J111125D01*
G01*
X116030500Y-53703625D01*
G75*
G02*
X116141625Y-53592500I111125J0D01*
G01*
X116808375Y-53592500D01*
G75*
G02*
X116919500Y-53703625I0J-111125D01*
G01*
X116919500Y-54370375D01*
G75*
G02*
X116808375Y-54481500I-111125J0D01*
G01*
G37*
G36*
G01*
X166830375Y-21780500D02*
X166163625Y-21780500D01*
G75*
G02*
X166052500Y-21669375I0J111125D01*
G01*
X166052500Y-21002625D01*
G75*
G02*
X166163625Y-20891500I111125J0D01*
G01*
X166830375Y-20891500D01*
G75*
G02*
X166941500Y-21002625I0J-111125D01*
G01*
X166941500Y-21669375D01*
G75*
G02*
X166830375Y-21780500I-111125J0D01*
G01*
G37*
G36*
G01*
X166830375Y-23304500D02*
X166163625Y-23304500D01*
G75*
G02*
X166052500Y-23193375I0J111125D01*
G01*
X166052500Y-22526625D01*
G75*
G02*
X166163625Y-22415500I111125J0D01*
G01*
X166830375Y-22415500D01*
G75*
G02*
X166941500Y-22526625I0J-111125D01*
G01*
X166941500Y-23193375D01*
G75*
G02*
X166830375Y-23304500I-111125J0D01*
G01*
G37*
G36*
G01*
X116266625Y-57967500D02*
X116933375Y-57967500D01*
G75*
G02*
X117044500Y-58078625I0J-111125D01*
G01*
X117044500Y-58745375D01*
G75*
G02*
X116933375Y-58856500I-111125J0D01*
G01*
X116266625Y-58856500D01*
G75*
G02*
X116155500Y-58745375I0J111125D01*
G01*
X116155500Y-58078625D01*
G75*
G02*
X116266625Y-57967500I111125J0D01*
G01*
G37*
G36*
G01*
X116266625Y-56443500D02*
X116933375Y-56443500D01*
G75*
G02*
X117044500Y-56554625I0J-111125D01*
G01*
X117044500Y-57221375D01*
G75*
G02*
X116933375Y-57332500I-111125J0D01*
G01*
X116266625Y-57332500D01*
G75*
G02*
X116155500Y-57221375I0J111125D01*
G01*
X116155500Y-56554625D01*
G75*
G02*
X116266625Y-56443500I111125J0D01*
G01*
G37*
G36*
G01*
X140549500Y-40283375D02*
X140549500Y-39616625D01*
G75*
G02*
X140660625Y-39505500I111125J0D01*
G01*
X141327375Y-39505500D01*
G75*
G02*
X141438500Y-39616625I0J-111125D01*
G01*
X141438500Y-40283375D01*
G75*
G02*
X141327375Y-40394500I-111125J0D01*
G01*
X140660625Y-40394500D01*
G75*
G02*
X140549500Y-40283375I0J111125D01*
G01*
G37*
G36*
G01*
X139025500Y-40283375D02*
X139025500Y-39616625D01*
G75*
G02*
X139136625Y-39505500I111125J0D01*
G01*
X139803375Y-39505500D01*
G75*
G02*
X139914500Y-39616625I0J-111125D01*
G01*
X139914500Y-40283375D01*
G75*
G02*
X139803375Y-40394500I-111125J0D01*
G01*
X139136625Y-40394500D01*
G75*
G02*
X139025500Y-40283375I0J111125D01*
G01*
G37*
G36*
G01*
X140581500Y-45411375D02*
X140581500Y-44744625D01*
G75*
G02*
X140692625Y-44633500I111125J0D01*
G01*
X141359375Y-44633500D01*
G75*
G02*
X141470500Y-44744625I0J-111125D01*
G01*
X141470500Y-45411375D01*
G75*
G02*
X141359375Y-45522500I-111125J0D01*
G01*
X140692625Y-45522500D01*
G75*
G02*
X140581500Y-45411375I0J111125D01*
G01*
G37*
G36*
G01*
X139057500Y-45411375D02*
X139057500Y-44744625D01*
G75*
G02*
X139168625Y-44633500I111125J0D01*
G01*
X139835375Y-44633500D01*
G75*
G02*
X139946500Y-44744625I0J-111125D01*
G01*
X139946500Y-45411375D01*
G75*
G02*
X139835375Y-45522500I-111125J0D01*
G01*
X139168625Y-45522500D01*
G75*
G02*
X139057500Y-45411375I0J111125D01*
G01*
G37*
G36*
G01*
X146256375Y-24320500D02*
X145589625Y-24320500D01*
G75*
G02*
X145478500Y-24209375I0J111125D01*
G01*
X145478500Y-23542625D01*
G75*
G02*
X145589625Y-23431500I111125J0D01*
G01*
X146256375Y-23431500D01*
G75*
G02*
X146367500Y-23542625I0J-111125D01*
G01*
X146367500Y-24209375D01*
G75*
G02*
X146256375Y-24320500I-111125J0D01*
G01*
G37*
G36*
G01*
X146256375Y-25844500D02*
X145589625Y-25844500D01*
G75*
G02*
X145478500Y-25733375I0J111125D01*
G01*
X145478500Y-25066625D01*
G75*
G02*
X145589625Y-24955500I111125J0D01*
G01*
X146256375Y-24955500D01*
G75*
G02*
X146367500Y-25066625I0J-111125D01*
G01*
X146367500Y-25733375D01*
G75*
G02*
X146256375Y-25844500I-111125J0D01*
G01*
G37*
G36*
G01*
X156213375Y-24330500D02*
X155546625Y-24330500D01*
G75*
G02*
X155435500Y-24219375I0J111125D01*
G01*
X155435500Y-23552625D01*
G75*
G02*
X155546625Y-23441500I111125J0D01*
G01*
X156213375Y-23441500D01*
G75*
G02*
X156324500Y-23552625I0J-111125D01*
G01*
X156324500Y-24219375D01*
G75*
G02*
X156213375Y-24330500I-111125J0D01*
G01*
G37*
G36*
G01*
X156213375Y-25854500D02*
X155546625Y-25854500D01*
G75*
G02*
X155435500Y-25743375I0J111125D01*
G01*
X155435500Y-25076625D01*
G75*
G02*
X155546625Y-24965500I111125J0D01*
G01*
X156213375Y-24965500D01*
G75*
G02*
X156324500Y-25076625I0J-111125D01*
G01*
X156324500Y-25743375D01*
G75*
G02*
X156213375Y-25854500I-111125J0D01*
G01*
G37*
G36*
G01*
X128445975Y-24066500D02*
X127779225Y-24066500D01*
G75*
G02*
X127668100Y-23955375I0J111125D01*
G01*
X127668100Y-23288625D01*
G75*
G02*
X127779225Y-23177500I111125J0D01*
G01*
X128445975Y-23177500D01*
G75*
G02*
X128557100Y-23288625I0J-111125D01*
G01*
X128557100Y-23955375D01*
G75*
G02*
X128445975Y-24066500I-111125J0D01*
G01*
G37*
G36*
G01*
X128445975Y-25590500D02*
X127779225Y-25590500D01*
G75*
G02*
X127668100Y-25479375I0J111125D01*
G01*
X127668100Y-24812625D01*
G75*
G02*
X127779225Y-24701500I111125J0D01*
G01*
X128445975Y-24701500D01*
G75*
G02*
X128557100Y-24812625I0J-111125D01*
G01*
X128557100Y-25479375D01*
G75*
G02*
X128445975Y-25590500I-111125J0D01*
G01*
G37*
G36*
G01*
X133556375Y-24066500D02*
X132889625Y-24066500D01*
G75*
G02*
X132778500Y-23955375I0J111125D01*
G01*
X132778500Y-23288625D01*
G75*
G02*
X132889625Y-23177500I111125J0D01*
G01*
X133556375Y-23177500D01*
G75*
G02*
X133667500Y-23288625I0J-111125D01*
G01*
X133667500Y-23955375D01*
G75*
G02*
X133556375Y-24066500I-111125J0D01*
G01*
G37*
G36*
G01*
X133556375Y-25590500D02*
X132889625Y-25590500D01*
G75*
G02*
X132778500Y-25479375I0J111125D01*
G01*
X132778500Y-24812625D01*
G75*
G02*
X132889625Y-24701500I111125J0D01*
G01*
X133556375Y-24701500D01*
G75*
G02*
X133667500Y-24812625I0J-111125D01*
G01*
X133667500Y-25479375D01*
G75*
G02*
X133556375Y-25590500I-111125J0D01*
G01*
G37*
G36*
G01*
X169433875Y-21780500D02*
X168767125Y-21780500D01*
G75*
G02*
X168656000Y-21669375I0J111125D01*
G01*
X168656000Y-21002625D01*
G75*
G02*
X168767125Y-20891500I111125J0D01*
G01*
X169433875Y-20891500D01*
G75*
G02*
X169545000Y-21002625I0J-111125D01*
G01*
X169545000Y-21669375D01*
G75*
G02*
X169433875Y-21780500I-111125J0D01*
G01*
G37*
G36*
G01*
X169433875Y-23304500D02*
X168767125Y-23304500D01*
G75*
G02*
X168656000Y-23193375I0J111125D01*
G01*
X168656000Y-22526625D01*
G75*
G02*
X168767125Y-22415500I111125J0D01*
G01*
X169433875Y-22415500D01*
G75*
G02*
X169545000Y-22526625I0J-111125D01*
G01*
X169545000Y-23193375D01*
G75*
G02*
X169433875Y-23304500I-111125J0D01*
G01*
G37*
G36*
G01*
X162099500Y-48173375D02*
X162099500Y-47506625D01*
G75*
G02*
X162210625Y-47395500I111125J0D01*
G01*
X162877375Y-47395500D01*
G75*
G02*
X162988500Y-47506625I0J-111125D01*
G01*
X162988500Y-48173375D01*
G75*
G02*
X162877375Y-48284500I-111125J0D01*
G01*
X162210625Y-48284500D01*
G75*
G02*
X162099500Y-48173375I0J111125D01*
G01*
G37*
G36*
G01*
X160575500Y-48173375D02*
X160575500Y-47506625D01*
G75*
G02*
X160686625Y-47395500I111125J0D01*
G01*
X161353375Y-47395500D01*
G75*
G02*
X161464500Y-47506625I0J-111125D01*
G01*
X161464500Y-48173375D01*
G75*
G02*
X161353375Y-48284500I-111125J0D01*
G01*
X160686625Y-48284500D01*
G75*
G02*
X160575500Y-48173375I0J111125D01*
G01*
G37*
G36*
G01*
X162085500Y-45693375D02*
X162085500Y-45026625D01*
G75*
G02*
X162196625Y-44915500I111125J0D01*
G01*
X162863375Y-44915500D01*
G75*
G02*
X162974500Y-45026625I0J-111125D01*
G01*
X162974500Y-45693375D01*
G75*
G02*
X162863375Y-45804500I-111125J0D01*
G01*
X162196625Y-45804500D01*
G75*
G02*
X162085500Y-45693375I0J111125D01*
G01*
G37*
G36*
G01*
X160561500Y-45693375D02*
X160561500Y-45026625D01*
G75*
G02*
X160672625Y-44915500I111125J0D01*
G01*
X161339375Y-44915500D01*
G75*
G02*
X161450500Y-45026625I0J-111125D01*
G01*
X161450500Y-45693375D01*
G75*
G02*
X161339375Y-45804500I-111125J0D01*
G01*
X160672625Y-45804500D01*
G75*
G02*
X160561500Y-45693375I0J111125D01*
G01*
G37*
G36*
G01*
X157091500Y-40331375D02*
X157091500Y-39664625D01*
G75*
G02*
X157202625Y-39553500I111125J0D01*
G01*
X157869375Y-39553500D01*
G75*
G02*
X157980500Y-39664625I0J-111125D01*
G01*
X157980500Y-40331375D01*
G75*
G02*
X157869375Y-40442500I-111125J0D01*
G01*
X157202625Y-40442500D01*
G75*
G02*
X157091500Y-40331375I0J111125D01*
G01*
G37*
G36*
G01*
X155567500Y-40331375D02*
X155567500Y-39664625D01*
G75*
G02*
X155678625Y-39553500I111125J0D01*
G01*
X156345375Y-39553500D01*
G75*
G02*
X156456500Y-39664625I0J-111125D01*
G01*
X156456500Y-40331375D01*
G75*
G02*
X156345375Y-40442500I-111125J0D01*
G01*
X155678625Y-40442500D01*
G75*
G02*
X155567500Y-40331375I0J111125D01*
G01*
G37*
G36*
G01*
X146169500Y-40331375D02*
X146169500Y-39664625D01*
G75*
G02*
X146280625Y-39553500I111125J0D01*
G01*
X146947375Y-39553500D01*
G75*
G02*
X147058500Y-39664625I0J-111125D01*
G01*
X147058500Y-40331375D01*
G75*
G02*
X146947375Y-40442500I-111125J0D01*
G01*
X146280625Y-40442500D01*
G75*
G02*
X146169500Y-40331375I0J111125D01*
G01*
G37*
G36*
G01*
X144645500Y-40331375D02*
X144645500Y-39664625D01*
G75*
G02*
X144756625Y-39553500I111125J0D01*
G01*
X145423375Y-39553500D01*
G75*
G02*
X145534500Y-39664625I0J-111125D01*
G01*
X145534500Y-40331375D01*
G75*
G02*
X145423375Y-40442500I-111125J0D01*
G01*
X144756625Y-40442500D01*
G75*
G02*
X144645500Y-40331375I0J111125D01*
G01*
G37*
D18*
X150490000Y-37034000D03*
X152390000Y-37034000D03*
X151440000Y-34834000D03*
D19*
X156210000Y-107056000D03*
X156210000Y-105156000D03*
X154010000Y-106106000D03*
X150706000Y-107122000D03*
X150706000Y-105222000D03*
X148506000Y-106172000D03*
G36*
G01*
X177823375Y-101060500D02*
X177156625Y-101060500D01*
G75*
G02*
X177045500Y-100949375I0J111125D01*
G01*
X177045500Y-100282625D01*
G75*
G02*
X177156625Y-100171500I111125J0D01*
G01*
X177823375Y-100171500D01*
G75*
G02*
X177934500Y-100282625I0J-111125D01*
G01*
X177934500Y-100949375D01*
G75*
G02*
X177823375Y-101060500I-111125J0D01*
G01*
G37*
G36*
G01*
X177823375Y-102584500D02*
X177156625Y-102584500D01*
G75*
G02*
X177045500Y-102473375I0J111125D01*
G01*
X177045500Y-101806625D01*
G75*
G02*
X177156625Y-101695500I111125J0D01*
G01*
X177823375Y-101695500D01*
G75*
G02*
X177934500Y-101806625I0J-111125D01*
G01*
X177934500Y-102473375D01*
G75*
G02*
X177823375Y-102584500I-111125J0D01*
G01*
G37*
D20*
X121410000Y-27890000D03*
X121410000Y-33390000D03*
D21*
X128929300Y-68702500D03*
X128929300Y-69337500D03*
X128929300Y-69972500D03*
X128929300Y-70607500D03*
X128929300Y-71242500D03*
X128929300Y-71877500D03*
X128929300Y-72512500D03*
X128929300Y-73147500D03*
X123620700Y-73147500D03*
X123620700Y-72512500D03*
X123620700Y-71877500D03*
X123620700Y-71242500D03*
X123620700Y-70607500D03*
X123620700Y-69972500D03*
X123620700Y-69337500D03*
X123620700Y-68702500D03*
G36*
G01*
X178000000Y-44740000D02*
X178000000Y-41840000D01*
G75*
G02*
X178250000Y-41590000I250000J0D01*
G01*
X179050000Y-41590000D01*
G75*
G02*
X179300000Y-41840000I0J-250000D01*
G01*
X179300000Y-44740000D01*
G75*
G02*
X179050000Y-44990000I-250000J0D01*
G01*
X178250000Y-44990000D01*
G75*
G02*
X178000000Y-44740000I0J250000D01*
G01*
G37*
G36*
G01*
X173550000Y-44740000D02*
X173550000Y-41840000D01*
G75*
G02*
X173800000Y-41590000I250000J0D01*
G01*
X174600000Y-41590000D01*
G75*
G02*
X174850000Y-41840000I0J-250000D01*
G01*
X174850000Y-44740000D01*
G75*
G02*
X174600000Y-44990000I-250000J0D01*
G01*
X173800000Y-44990000D01*
G75*
G02*
X173550000Y-44740000I0J250000D01*
G01*
G37*
G36*
G01*
X174058375Y-88069500D02*
X173391625Y-88069500D01*
G75*
G02*
X173280500Y-87958375I0J111125D01*
G01*
X173280500Y-87291625D01*
G75*
G02*
X173391625Y-87180500I111125J0D01*
G01*
X174058375Y-87180500D01*
G75*
G02*
X174169500Y-87291625I0J-111125D01*
G01*
X174169500Y-87958375D01*
G75*
G02*
X174058375Y-88069500I-111125J0D01*
G01*
G37*
G36*
G01*
X174058375Y-89593500D02*
X173391625Y-89593500D01*
G75*
G02*
X173280500Y-89482375I0J111125D01*
G01*
X173280500Y-88815625D01*
G75*
G02*
X173391625Y-88704500I111125J0D01*
G01*
X174058375Y-88704500D01*
G75*
G02*
X174169500Y-88815625I0J-111125D01*
G01*
X174169500Y-89482375D01*
G75*
G02*
X174058375Y-89593500I-111125J0D01*
G01*
G37*
G36*
G01*
X170791625Y-88733500D02*
X171458375Y-88733500D01*
G75*
G02*
X171569500Y-88844625I0J-111125D01*
G01*
X171569500Y-89511375D01*
G75*
G02*
X171458375Y-89622500I-111125J0D01*
G01*
X170791625Y-89622500D01*
G75*
G02*
X170680500Y-89511375I0J111125D01*
G01*
X170680500Y-88844625D01*
G75*
G02*
X170791625Y-88733500I111125J0D01*
G01*
G37*
G36*
G01*
X170791625Y-87209500D02*
X171458375Y-87209500D01*
G75*
G02*
X171569500Y-87320625I0J-111125D01*
G01*
X171569500Y-87987375D01*
G75*
G02*
X171458375Y-88098500I-111125J0D01*
G01*
X170791625Y-88098500D01*
G75*
G02*
X170680500Y-87987375I0J111125D01*
G01*
X170680500Y-87320625D01*
G75*
G02*
X170791625Y-87209500I111125J0D01*
G01*
G37*
D15*
X176442000Y-88416000D03*
D16*
X182639800Y-86104600D03*
X182639800Y-88416000D03*
X182639800Y-90727400D03*
G36*
G01*
X119241375Y-76996500D02*
X118574625Y-76996500D01*
G75*
G02*
X118463500Y-76885375I0J111125D01*
G01*
X118463500Y-76218625D01*
G75*
G02*
X118574625Y-76107500I111125J0D01*
G01*
X119241375Y-76107500D01*
G75*
G02*
X119352500Y-76218625I0J-111125D01*
G01*
X119352500Y-76885375D01*
G75*
G02*
X119241375Y-76996500I-111125J0D01*
G01*
G37*
G36*
G01*
X119241375Y-78520500D02*
X118574625Y-78520500D01*
G75*
G02*
X118463500Y-78409375I0J111125D01*
G01*
X118463500Y-77742625D01*
G75*
G02*
X118574625Y-77631500I111125J0D01*
G01*
X119241375Y-77631500D01*
G75*
G02*
X119352500Y-77742625I0J-111125D01*
G01*
X119352500Y-78409375D01*
G75*
G02*
X119241375Y-78520500I-111125J0D01*
G01*
G37*
G36*
G01*
X119368375Y-70392500D02*
X118701625Y-70392500D01*
G75*
G02*
X118590500Y-70281375I0J111125D01*
G01*
X118590500Y-69614625D01*
G75*
G02*
X118701625Y-69503500I111125J0D01*
G01*
X119368375Y-69503500D01*
G75*
G02*
X119479500Y-69614625I0J-111125D01*
G01*
X119479500Y-70281375D01*
G75*
G02*
X119368375Y-70392500I-111125J0D01*
G01*
G37*
G36*
G01*
X119368375Y-71916500D02*
X118701625Y-71916500D01*
G75*
G02*
X118590500Y-71805375I0J111125D01*
G01*
X118590500Y-71138625D01*
G75*
G02*
X118701625Y-71027500I111125J0D01*
G01*
X119368375Y-71027500D01*
G75*
G02*
X119479500Y-71138625I0J-111125D01*
G01*
X119479500Y-71805375D01*
G75*
G02*
X119368375Y-71916500I-111125J0D01*
G01*
G37*
G36*
G01*
X201003775Y-101991900D02*
X200337025Y-101991900D01*
G75*
G02*
X200225900Y-101880775I0J111125D01*
G01*
X200225900Y-101214025D01*
G75*
G02*
X200337025Y-101102900I111125J0D01*
G01*
X201003775Y-101102900D01*
G75*
G02*
X201114900Y-101214025I0J-111125D01*
G01*
X201114900Y-101880775D01*
G75*
G02*
X201003775Y-101991900I-111125J0D01*
G01*
G37*
G36*
G01*
X201003775Y-103515900D02*
X200337025Y-103515900D01*
G75*
G02*
X200225900Y-103404775I0J111125D01*
G01*
X200225900Y-102738025D01*
G75*
G02*
X200337025Y-102626900I111125J0D01*
G01*
X201003775Y-102626900D01*
G75*
G02*
X201114900Y-102738025I0J-111125D01*
G01*
X201114900Y-103404775D01*
G75*
G02*
X201003775Y-103515900I-111125J0D01*
G01*
G37*
G36*
G01*
X197193775Y-101991900D02*
X196527025Y-101991900D01*
G75*
G02*
X196415900Y-101880775I0J111125D01*
G01*
X196415900Y-101214025D01*
G75*
G02*
X196527025Y-101102900I111125J0D01*
G01*
X197193775Y-101102900D01*
G75*
G02*
X197304900Y-101214025I0J-111125D01*
G01*
X197304900Y-101880775D01*
G75*
G02*
X197193775Y-101991900I-111125J0D01*
G01*
G37*
G36*
G01*
X197193775Y-103515900D02*
X196527025Y-103515900D01*
G75*
G02*
X196415900Y-103404775I0J111125D01*
G01*
X196415900Y-102738025D01*
G75*
G02*
X196527025Y-102626900I111125J0D01*
G01*
X197193775Y-102626900D01*
G75*
G02*
X197304900Y-102738025I0J-111125D01*
G01*
X197304900Y-103404775D01*
G75*
G02*
X197193775Y-103515900I-111125J0D01*
G01*
G37*
G36*
G01*
X199098775Y-101991900D02*
X198432025Y-101991900D01*
G75*
G02*
X198320900Y-101880775I0J111125D01*
G01*
X198320900Y-101214025D01*
G75*
G02*
X198432025Y-101102900I111125J0D01*
G01*
X199098775Y-101102900D01*
G75*
G02*
X199209900Y-101214025I0J-111125D01*
G01*
X199209900Y-101880775D01*
G75*
G02*
X199098775Y-101991900I-111125J0D01*
G01*
G37*
G36*
G01*
X199098775Y-103515900D02*
X198432025Y-103515900D01*
G75*
G02*
X198320900Y-103404775I0J111125D01*
G01*
X198320900Y-102738025D01*
G75*
G02*
X198432025Y-102626900I111125J0D01*
G01*
X199098775Y-102626900D01*
G75*
G02*
X199209900Y-102738025I0J-111125D01*
G01*
X199209900Y-103404775D01*
G75*
G02*
X199098775Y-103515900I-111125J0D01*
G01*
G37*
G36*
G01*
X200321150Y-105738400D02*
X201019650Y-105738400D01*
G75*
G02*
X201114900Y-105833650I0J-95250D01*
G01*
X201114900Y-106405150D01*
G75*
G02*
X201019650Y-106500400I-95250J0D01*
G01*
X200321150Y-106500400D01*
G75*
G02*
X200225900Y-106405150I0J95250D01*
G01*
X200225900Y-105833650D01*
G75*
G02*
X200321150Y-105738400I95250J0D01*
G01*
G37*
G36*
G01*
X200321150Y-104214400D02*
X201019650Y-104214400D01*
G75*
G02*
X201114900Y-104309650I0J-95250D01*
G01*
X201114900Y-104881150D01*
G75*
G02*
X201019650Y-104976400I-95250J0D01*
G01*
X200321150Y-104976400D01*
G75*
G02*
X200225900Y-104881150I0J95250D01*
G01*
X200225900Y-104309650D01*
G75*
G02*
X200321150Y-104214400I95250J0D01*
G01*
G37*
G36*
G01*
X196511150Y-105738400D02*
X197209650Y-105738400D01*
G75*
G02*
X197304900Y-105833650I0J-95250D01*
G01*
X197304900Y-106405150D01*
G75*
G02*
X197209650Y-106500400I-95250J0D01*
G01*
X196511150Y-106500400D01*
G75*
G02*
X196415900Y-106405150I0J95250D01*
G01*
X196415900Y-105833650D01*
G75*
G02*
X196511150Y-105738400I95250J0D01*
G01*
G37*
G36*
G01*
X196511150Y-104214400D02*
X197209650Y-104214400D01*
G75*
G02*
X197304900Y-104309650I0J-95250D01*
G01*
X197304900Y-104881150D01*
G75*
G02*
X197209650Y-104976400I-95250J0D01*
G01*
X196511150Y-104976400D01*
G75*
G02*
X196415900Y-104881150I0J95250D01*
G01*
X196415900Y-104309650D01*
G75*
G02*
X196511150Y-104214400I95250J0D01*
G01*
G37*
G36*
G01*
X198416150Y-105738400D02*
X199114650Y-105738400D01*
G75*
G02*
X199209900Y-105833650I0J-95250D01*
G01*
X199209900Y-106405150D01*
G75*
G02*
X199114650Y-106500400I-95250J0D01*
G01*
X198416150Y-106500400D01*
G75*
G02*
X198320900Y-106405150I0J95250D01*
G01*
X198320900Y-105833650D01*
G75*
G02*
X198416150Y-105738400I95250J0D01*
G01*
G37*
G36*
G01*
X198416150Y-104214400D02*
X199114650Y-104214400D01*
G75*
G02*
X199209900Y-104309650I0J-95250D01*
G01*
X199209900Y-104881150D01*
G75*
G02*
X199114650Y-104976400I-95250J0D01*
G01*
X198416150Y-104976400D01*
G75*
G02*
X198320900Y-104881150I0J95250D01*
G01*
X198320900Y-104309650D01*
G75*
G02*
X198416150Y-104214400I95250J0D01*
G01*
G37*
G36*
G01*
X160548625Y-62332100D02*
X161215375Y-62332100D01*
G75*
G02*
X161326500Y-62443225I0J-111125D01*
G01*
X161326500Y-63109975D01*
G75*
G02*
X161215375Y-63221100I-111125J0D01*
G01*
X160548625Y-63221100D01*
G75*
G02*
X160437500Y-63109975I0J111125D01*
G01*
X160437500Y-62443225D01*
G75*
G02*
X160548625Y-62332100I111125J0D01*
G01*
G37*
G36*
G01*
X160548625Y-60808100D02*
X161215375Y-60808100D01*
G75*
G02*
X161326500Y-60919225I0J-111125D01*
G01*
X161326500Y-61585975D01*
G75*
G02*
X161215375Y-61697100I-111125J0D01*
G01*
X160548625Y-61697100D01*
G75*
G02*
X160437500Y-61585975I0J111125D01*
G01*
X160437500Y-60919225D01*
G75*
G02*
X160548625Y-60808100I111125J0D01*
G01*
G37*
G36*
G01*
X172037375Y-21780500D02*
X171370625Y-21780500D01*
G75*
G02*
X171259500Y-21669375I0J111125D01*
G01*
X171259500Y-21002625D01*
G75*
G02*
X171370625Y-20891500I111125J0D01*
G01*
X172037375Y-20891500D01*
G75*
G02*
X172148500Y-21002625I0J-111125D01*
G01*
X172148500Y-21669375D01*
G75*
G02*
X172037375Y-21780500I-111125J0D01*
G01*
G37*
G36*
G01*
X172037375Y-23304500D02*
X171370625Y-23304500D01*
G75*
G02*
X171259500Y-23193375I0J111125D01*
G01*
X171259500Y-22526625D01*
G75*
G02*
X171370625Y-22415500I111125J0D01*
G01*
X172037375Y-22415500D01*
G75*
G02*
X172148500Y-22526625I0J-111125D01*
G01*
X172148500Y-23193375D01*
G75*
G02*
X172037375Y-23304500I-111125J0D01*
G01*
G37*
G36*
G01*
X163033375Y-86120500D02*
X162366625Y-86120500D01*
G75*
G02*
X162255500Y-86009375I0J111125D01*
G01*
X162255500Y-85342625D01*
G75*
G02*
X162366625Y-85231500I111125J0D01*
G01*
X163033375Y-85231500D01*
G75*
G02*
X163144500Y-85342625I0J-111125D01*
G01*
X163144500Y-86009375D01*
G75*
G02*
X163033375Y-86120500I-111125J0D01*
G01*
G37*
G36*
G01*
X163033375Y-87644500D02*
X162366625Y-87644500D01*
G75*
G02*
X162255500Y-87533375I0J111125D01*
G01*
X162255500Y-86866625D01*
G75*
G02*
X162366625Y-86755500I111125J0D01*
G01*
X163033375Y-86755500D01*
G75*
G02*
X163144500Y-86866625I0J-111125D01*
G01*
X163144500Y-87533375D01*
G75*
G02*
X163033375Y-87644500I-111125J0D01*
G01*
G37*
G36*
G01*
X152004625Y-82301500D02*
X152671375Y-82301500D01*
G75*
G02*
X152782500Y-82412625I0J-111125D01*
G01*
X152782500Y-83079375D01*
G75*
G02*
X152671375Y-83190500I-111125J0D01*
G01*
X152004625Y-83190500D01*
G75*
G02*
X151893500Y-83079375I0J111125D01*
G01*
X151893500Y-82412625D01*
G75*
G02*
X152004625Y-82301500I111125J0D01*
G01*
G37*
G36*
G01*
X152004625Y-80777500D02*
X152671375Y-80777500D01*
G75*
G02*
X152782500Y-80888625I0J-111125D01*
G01*
X152782500Y-81555375D01*
G75*
G02*
X152671375Y-81666500I-111125J0D01*
G01*
X152004625Y-81666500D01*
G75*
G02*
X151893500Y-81555375I0J111125D01*
G01*
X151893500Y-80888625D01*
G75*
G02*
X152004625Y-80777500I111125J0D01*
G01*
G37*
G36*
G01*
X154798625Y-82301500D02*
X155465375Y-82301500D01*
G75*
G02*
X155576500Y-82412625I0J-111125D01*
G01*
X155576500Y-83079375D01*
G75*
G02*
X155465375Y-83190500I-111125J0D01*
G01*
X154798625Y-83190500D01*
G75*
G02*
X154687500Y-83079375I0J111125D01*
G01*
X154687500Y-82412625D01*
G75*
G02*
X154798625Y-82301500I111125J0D01*
G01*
G37*
G36*
G01*
X154798625Y-80777500D02*
X155465375Y-80777500D01*
G75*
G02*
X155576500Y-80888625I0J-111125D01*
G01*
X155576500Y-81555375D01*
G75*
G02*
X155465375Y-81666500I-111125J0D01*
G01*
X154798625Y-81666500D01*
G75*
G02*
X154687500Y-81555375I0J111125D01*
G01*
X154687500Y-80888625D01*
G75*
G02*
X154798625Y-80777500I111125J0D01*
G01*
G37*
G36*
G01*
X162491625Y-82542500D02*
X163158375Y-82542500D01*
G75*
G02*
X163269500Y-82653625I0J-111125D01*
G01*
X163269500Y-83320375D01*
G75*
G02*
X163158375Y-83431500I-111125J0D01*
G01*
X162491625Y-83431500D01*
G75*
G02*
X162380500Y-83320375I0J111125D01*
G01*
X162380500Y-82653625D01*
G75*
G02*
X162491625Y-82542500I111125J0D01*
G01*
G37*
G36*
G01*
X162491625Y-81018500D02*
X163158375Y-81018500D01*
G75*
G02*
X163269500Y-81129625I0J-111125D01*
G01*
X163269500Y-81796375D01*
G75*
G02*
X163158375Y-81907500I-111125J0D01*
G01*
X162491625Y-81907500D01*
G75*
G02*
X162380500Y-81796375I0J111125D01*
G01*
X162380500Y-81129625D01*
G75*
G02*
X162491625Y-81018500I111125J0D01*
G01*
G37*
G36*
G01*
X151952625Y-78129500D02*
X152619375Y-78129500D01*
G75*
G02*
X152730500Y-78240625I0J-111125D01*
G01*
X152730500Y-78907375D01*
G75*
G02*
X152619375Y-79018500I-111125J0D01*
G01*
X151952625Y-79018500D01*
G75*
G02*
X151841500Y-78907375I0J111125D01*
G01*
X151841500Y-78240625D01*
G75*
G02*
X151952625Y-78129500I111125J0D01*
G01*
G37*
G36*
G01*
X151952625Y-76605500D02*
X152619375Y-76605500D01*
G75*
G02*
X152730500Y-76716625I0J-111125D01*
G01*
X152730500Y-77383375D01*
G75*
G02*
X152619375Y-77494500I-111125J0D01*
G01*
X151952625Y-77494500D01*
G75*
G02*
X151841500Y-77383375I0J111125D01*
G01*
X151841500Y-76716625D01*
G75*
G02*
X151952625Y-76605500I111125J0D01*
G01*
G37*
G36*
G01*
X131016375Y-19494500D02*
X130349625Y-19494500D01*
G75*
G02*
X130238500Y-19383375I0J111125D01*
G01*
X130238500Y-18716625D01*
G75*
G02*
X130349625Y-18605500I111125J0D01*
G01*
X131016375Y-18605500D01*
G75*
G02*
X131127500Y-18716625I0J-111125D01*
G01*
X131127500Y-19383375D01*
G75*
G02*
X131016375Y-19494500I-111125J0D01*
G01*
G37*
G36*
G01*
X131016375Y-21018500D02*
X130349625Y-21018500D01*
G75*
G02*
X130238500Y-20907375I0J111125D01*
G01*
X130238500Y-20240625D01*
G75*
G02*
X130349625Y-20129500I111125J0D01*
G01*
X131016375Y-20129500D01*
G75*
G02*
X131127500Y-20240625I0J-111125D01*
G01*
X131127500Y-20907375D01*
G75*
G02*
X131016375Y-21018500I-111125J0D01*
G01*
G37*
G36*
G01*
X176577625Y-22415500D02*
X177244375Y-22415500D01*
G75*
G02*
X177355500Y-22526625I0J-111125D01*
G01*
X177355500Y-23193375D01*
G75*
G02*
X177244375Y-23304500I-111125J0D01*
G01*
X176577625Y-23304500D01*
G75*
G02*
X176466500Y-23193375I0J111125D01*
G01*
X176466500Y-22526625D01*
G75*
G02*
X176577625Y-22415500I111125J0D01*
G01*
G37*
G36*
G01*
X176577625Y-20891500D02*
X177244375Y-20891500D01*
G75*
G02*
X177355500Y-21002625I0J-111125D01*
G01*
X177355500Y-21669375D01*
G75*
G02*
X177244375Y-21780500I-111125J0D01*
G01*
X176577625Y-21780500D01*
G75*
G02*
X176466500Y-21669375I0J111125D01*
G01*
X176466500Y-21002625D01*
G75*
G02*
X176577625Y-20891500I111125J0D01*
G01*
G37*
G36*
G01*
X187774500Y-72286625D02*
X187774500Y-72953375D01*
G75*
G02*
X187663375Y-73064500I-111125J0D01*
G01*
X186996625Y-73064500D01*
G75*
G02*
X186885500Y-72953375I0J111125D01*
G01*
X186885500Y-72286625D01*
G75*
G02*
X186996625Y-72175500I111125J0D01*
G01*
X187663375Y-72175500D01*
G75*
G02*
X187774500Y-72286625I0J-111125D01*
G01*
G37*
G36*
G01*
X189298500Y-72286625D02*
X189298500Y-72953375D01*
G75*
G02*
X189187375Y-73064500I-111125J0D01*
G01*
X188520625Y-73064500D01*
G75*
G02*
X188409500Y-72953375I0J111125D01*
G01*
X188409500Y-72286625D01*
G75*
G02*
X188520625Y-72175500I111125J0D01*
G01*
X189187375Y-72175500D01*
G75*
G02*
X189298500Y-72286625I0J-111125D01*
G01*
G37*
G36*
G01*
X187942500Y-99466625D02*
X187942500Y-100133375D01*
G75*
G02*
X187831375Y-100244500I-111125J0D01*
G01*
X187164625Y-100244500D01*
G75*
G02*
X187053500Y-100133375I0J111125D01*
G01*
X187053500Y-99466625D01*
G75*
G02*
X187164625Y-99355500I111125J0D01*
G01*
X187831375Y-99355500D01*
G75*
G02*
X187942500Y-99466625I0J-111125D01*
G01*
G37*
G36*
G01*
X189466500Y-99466625D02*
X189466500Y-100133375D01*
G75*
G02*
X189355375Y-100244500I-111125J0D01*
G01*
X188688625Y-100244500D01*
G75*
G02*
X188577500Y-100133375I0J111125D01*
G01*
X188577500Y-99466625D01*
G75*
G02*
X188688625Y-99355500I111125J0D01*
G01*
X189355375Y-99355500D01*
G75*
G02*
X189466500Y-99466625I0J-111125D01*
G01*
G37*
G36*
G01*
X187950500Y-90376625D02*
X187950500Y-91043375D01*
G75*
G02*
X187839375Y-91154500I-111125J0D01*
G01*
X187172625Y-91154500D01*
G75*
G02*
X187061500Y-91043375I0J111125D01*
G01*
X187061500Y-90376625D01*
G75*
G02*
X187172625Y-90265500I111125J0D01*
G01*
X187839375Y-90265500D01*
G75*
G02*
X187950500Y-90376625I0J-111125D01*
G01*
G37*
G36*
G01*
X189474500Y-90376625D02*
X189474500Y-91043375D01*
G75*
G02*
X189363375Y-91154500I-111125J0D01*
G01*
X188696625Y-91154500D01*
G75*
G02*
X188585500Y-91043375I0J111125D01*
G01*
X188585500Y-90376625D01*
G75*
G02*
X188696625Y-90265500I111125J0D01*
G01*
X189363375Y-90265500D01*
G75*
G02*
X189474500Y-90376625I0J-111125D01*
G01*
G37*
G36*
G01*
X187954500Y-81306625D02*
X187954500Y-81973375D01*
G75*
G02*
X187843375Y-82084500I-111125J0D01*
G01*
X187176625Y-82084500D01*
G75*
G02*
X187065500Y-81973375I0J111125D01*
G01*
X187065500Y-81306625D01*
G75*
G02*
X187176625Y-81195500I111125J0D01*
G01*
X187843375Y-81195500D01*
G75*
G02*
X187954500Y-81306625I0J-111125D01*
G01*
G37*
G36*
G01*
X189478500Y-81306625D02*
X189478500Y-81973375D01*
G75*
G02*
X189367375Y-82084500I-111125J0D01*
G01*
X188700625Y-82084500D01*
G75*
G02*
X188589500Y-81973375I0J111125D01*
G01*
X188589500Y-81306625D01*
G75*
G02*
X188700625Y-81195500I111125J0D01*
G01*
X189367375Y-81195500D01*
G75*
G02*
X189478500Y-81306625I0J-111125D01*
G01*
G37*
G36*
G01*
X155540375Y-77494500D02*
X154873625Y-77494500D01*
G75*
G02*
X154762500Y-77383375I0J111125D01*
G01*
X154762500Y-76716625D01*
G75*
G02*
X154873625Y-76605500I111125J0D01*
G01*
X155540375Y-76605500D01*
G75*
G02*
X155651500Y-76716625I0J-111125D01*
G01*
X155651500Y-77383375D01*
G75*
G02*
X155540375Y-77494500I-111125J0D01*
G01*
G37*
G36*
G01*
X155540375Y-79018500D02*
X154873625Y-79018500D01*
G75*
G02*
X154762500Y-78907375I0J111125D01*
G01*
X154762500Y-78240625D01*
G75*
G02*
X154873625Y-78129500I111125J0D01*
G01*
X155540375Y-78129500D01*
G75*
G02*
X155651500Y-78240625I0J-111125D01*
G01*
X155651500Y-78907375D01*
G75*
G02*
X155540375Y-79018500I-111125J0D01*
G01*
G37*
G36*
G01*
X163158375Y-77720500D02*
X162491625Y-77720500D01*
G75*
G02*
X162380500Y-77609375I0J111125D01*
G01*
X162380500Y-76942625D01*
G75*
G02*
X162491625Y-76831500I111125J0D01*
G01*
X163158375Y-76831500D01*
G75*
G02*
X163269500Y-76942625I0J-111125D01*
G01*
X163269500Y-77609375D01*
G75*
G02*
X163158375Y-77720500I-111125J0D01*
G01*
G37*
G36*
G01*
X163158375Y-79244500D02*
X162491625Y-79244500D01*
G75*
G02*
X162380500Y-79133375I0J111125D01*
G01*
X162380500Y-78466625D01*
G75*
G02*
X162491625Y-78355500I111125J0D01*
G01*
X163158375Y-78355500D01*
G75*
G02*
X163269500Y-78466625I0J-111125D01*
G01*
X163269500Y-79133375D01*
G75*
G02*
X163158375Y-79244500I-111125J0D01*
G01*
G37*
G36*
G01*
X132255500Y-86933375D02*
X132255500Y-86266625D01*
G75*
G02*
X132366625Y-86155500I111125J0D01*
G01*
X133033375Y-86155500D01*
G75*
G02*
X133144500Y-86266625I0J-111125D01*
G01*
X133144500Y-86933375D01*
G75*
G02*
X133033375Y-87044500I-111125J0D01*
G01*
X132366625Y-87044500D01*
G75*
G02*
X132255500Y-86933375I0J111125D01*
G01*
G37*
G36*
G01*
X130731500Y-86933375D02*
X130731500Y-86266625D01*
G75*
G02*
X130842625Y-86155500I111125J0D01*
G01*
X131509375Y-86155500D01*
G75*
G02*
X131620500Y-86266625I0J-111125D01*
G01*
X131620500Y-86933375D01*
G75*
G02*
X131509375Y-87044500I-111125J0D01*
G01*
X130842625Y-87044500D01*
G75*
G02*
X130731500Y-86933375I0J111125D01*
G01*
G37*
G36*
G01*
X173974125Y-22415500D02*
X174640875Y-22415500D01*
G75*
G02*
X174752000Y-22526625I0J-111125D01*
G01*
X174752000Y-23193375D01*
G75*
G02*
X174640875Y-23304500I-111125J0D01*
G01*
X173974125Y-23304500D01*
G75*
G02*
X173863000Y-23193375I0J111125D01*
G01*
X173863000Y-22526625D01*
G75*
G02*
X173974125Y-22415500I111125J0D01*
G01*
G37*
G36*
G01*
X173974125Y-20891500D02*
X174640875Y-20891500D01*
G75*
G02*
X174752000Y-21002625I0J-111125D01*
G01*
X174752000Y-21669375D01*
G75*
G02*
X174640875Y-21780500I-111125J0D01*
G01*
X173974125Y-21780500D01*
G75*
G02*
X173863000Y-21669375I0J111125D01*
G01*
X173863000Y-21002625D01*
G75*
G02*
X173974125Y-20891500I111125J0D01*
G01*
G37*
G36*
G01*
X142414625Y-102425500D02*
X143081375Y-102425500D01*
G75*
G02*
X143192500Y-102536625I0J-111125D01*
G01*
X143192500Y-103203375D01*
G75*
G02*
X143081375Y-103314500I-111125J0D01*
G01*
X142414625Y-103314500D01*
G75*
G02*
X142303500Y-103203375I0J111125D01*
G01*
X142303500Y-102536625D01*
G75*
G02*
X142414625Y-102425500I111125J0D01*
G01*
G37*
G36*
G01*
X142414625Y-100901500D02*
X143081375Y-100901500D01*
G75*
G02*
X143192500Y-101012625I0J-111125D01*
G01*
X143192500Y-101679375D01*
G75*
G02*
X143081375Y-101790500I-111125J0D01*
G01*
X142414625Y-101790500D01*
G75*
G02*
X142303500Y-101679375I0J111125D01*
G01*
X142303500Y-101012625D01*
G75*
G02*
X142414625Y-100901500I111125J0D01*
G01*
G37*
G36*
G01*
X142414625Y-106997500D02*
X143081375Y-106997500D01*
G75*
G02*
X143192500Y-107108625I0J-111125D01*
G01*
X143192500Y-107775375D01*
G75*
G02*
X143081375Y-107886500I-111125J0D01*
G01*
X142414625Y-107886500D01*
G75*
G02*
X142303500Y-107775375I0J111125D01*
G01*
X142303500Y-107108625D01*
G75*
G02*
X142414625Y-106997500I111125J0D01*
G01*
G37*
G36*
G01*
X142414625Y-105473500D02*
X143081375Y-105473500D01*
G75*
G02*
X143192500Y-105584625I0J-111125D01*
G01*
X143192500Y-106251375D01*
G75*
G02*
X143081375Y-106362500I-111125J0D01*
G01*
X142414625Y-106362500D01*
G75*
G02*
X142303500Y-106251375I0J111125D01*
G01*
X142303500Y-105584625D01*
G75*
G02*
X142414625Y-105473500I111125J0D01*
G01*
G37*
G36*
G01*
X173491625Y-71730500D02*
X174158375Y-71730500D01*
G75*
G02*
X174269500Y-71841625I0J-111125D01*
G01*
X174269500Y-72508375D01*
G75*
G02*
X174158375Y-72619500I-111125J0D01*
G01*
X173491625Y-72619500D01*
G75*
G02*
X173380500Y-72508375I0J111125D01*
G01*
X173380500Y-71841625D01*
G75*
G02*
X173491625Y-71730500I111125J0D01*
G01*
G37*
G36*
G01*
X173491625Y-70206500D02*
X174158375Y-70206500D01*
G75*
G02*
X174269500Y-70317625I0J-111125D01*
G01*
X174269500Y-70984375D01*
G75*
G02*
X174158375Y-71095500I-111125J0D01*
G01*
X173491625Y-71095500D01*
G75*
G02*
X173380500Y-70984375I0J111125D01*
G01*
X173380500Y-70317625D01*
G75*
G02*
X173491625Y-70206500I111125J0D01*
G01*
G37*
G36*
G01*
X171533375Y-71120500D02*
X170866625Y-71120500D01*
G75*
G02*
X170755500Y-71009375I0J111125D01*
G01*
X170755500Y-70342625D01*
G75*
G02*
X170866625Y-70231500I111125J0D01*
G01*
X171533375Y-70231500D01*
G75*
G02*
X171644500Y-70342625I0J-111125D01*
G01*
X171644500Y-71009375D01*
G75*
G02*
X171533375Y-71120500I-111125J0D01*
G01*
G37*
G36*
G01*
X171533375Y-72644500D02*
X170866625Y-72644500D01*
G75*
G02*
X170755500Y-72533375I0J111125D01*
G01*
X170755500Y-71866625D01*
G75*
G02*
X170866625Y-71755500I111125J0D01*
G01*
X171533375Y-71755500D01*
G75*
G02*
X171644500Y-71866625I0J-111125D01*
G01*
X171644500Y-72533375D01*
G75*
G02*
X171533375Y-72644500I-111125J0D01*
G01*
G37*
G36*
G01*
X174008375Y-80069500D02*
X173341625Y-80069500D01*
G75*
G02*
X173230500Y-79958375I0J111125D01*
G01*
X173230500Y-79291625D01*
G75*
G02*
X173341625Y-79180500I111125J0D01*
G01*
X174008375Y-79180500D01*
G75*
G02*
X174119500Y-79291625I0J-111125D01*
G01*
X174119500Y-79958375D01*
G75*
G02*
X174008375Y-80069500I-111125J0D01*
G01*
G37*
G36*
G01*
X174008375Y-81593500D02*
X173341625Y-81593500D01*
G75*
G02*
X173230500Y-81482375I0J111125D01*
G01*
X173230500Y-80815625D01*
G75*
G02*
X173341625Y-80704500I111125J0D01*
G01*
X174008375Y-80704500D01*
G75*
G02*
X174119500Y-80815625I0J-111125D01*
G01*
X174119500Y-81482375D01*
G75*
G02*
X174008375Y-81593500I-111125J0D01*
G01*
G37*
G36*
G01*
X170666625Y-80717500D02*
X171333375Y-80717500D01*
G75*
G02*
X171444500Y-80828625I0J-111125D01*
G01*
X171444500Y-81495375D01*
G75*
G02*
X171333375Y-81606500I-111125J0D01*
G01*
X170666625Y-81606500D01*
G75*
G02*
X170555500Y-81495375I0J111125D01*
G01*
X170555500Y-80828625D01*
G75*
G02*
X170666625Y-80717500I111125J0D01*
G01*
G37*
G36*
G01*
X170666625Y-79193500D02*
X171333375Y-79193500D01*
G75*
G02*
X171444500Y-79304625I0J-111125D01*
G01*
X171444500Y-79971375D01*
G75*
G02*
X171333375Y-80082500I-111125J0D01*
G01*
X170666625Y-80082500D01*
G75*
G02*
X170555500Y-79971375I0J111125D01*
G01*
X170555500Y-79304625D01*
G75*
G02*
X170666625Y-79193500I111125J0D01*
G01*
G37*
G36*
G01*
X204712175Y-102017300D02*
X204045425Y-102017300D01*
G75*
G02*
X203934300Y-101906175I0J111125D01*
G01*
X203934300Y-101239425D01*
G75*
G02*
X204045425Y-101128300I111125J0D01*
G01*
X204712175Y-101128300D01*
G75*
G02*
X204823300Y-101239425I0J-111125D01*
G01*
X204823300Y-101906175D01*
G75*
G02*
X204712175Y-102017300I-111125J0D01*
G01*
G37*
G36*
G01*
X204712175Y-103541300D02*
X204045425Y-103541300D01*
G75*
G02*
X203934300Y-103430175I0J111125D01*
G01*
X203934300Y-102763425D01*
G75*
G02*
X204045425Y-102652300I111125J0D01*
G01*
X204712175Y-102652300D01*
G75*
G02*
X204823300Y-102763425I0J-111125D01*
G01*
X204823300Y-103430175D01*
G75*
G02*
X204712175Y-103541300I-111125J0D01*
G01*
G37*
G36*
G01*
X145534500Y-44871625D02*
X145534500Y-45538375D01*
G75*
G02*
X145423375Y-45649500I-111125J0D01*
G01*
X144756625Y-45649500D01*
G75*
G02*
X144645500Y-45538375I0J111125D01*
G01*
X144645500Y-44871625D01*
G75*
G02*
X144756625Y-44760500I111125J0D01*
G01*
X145423375Y-44760500D01*
G75*
G02*
X145534500Y-44871625I0J-111125D01*
G01*
G37*
G36*
G01*
X147058500Y-44871625D02*
X147058500Y-45538375D01*
G75*
G02*
X146947375Y-45649500I-111125J0D01*
G01*
X146280625Y-45649500D01*
G75*
G02*
X146169500Y-45538375I0J111125D01*
G01*
X146169500Y-44871625D01*
G75*
G02*
X146280625Y-44760500I111125J0D01*
G01*
X146947375Y-44760500D01*
G75*
G02*
X147058500Y-44871625I0J-111125D01*
G01*
G37*
G36*
G01*
X158294375Y-61697100D02*
X157627625Y-61697100D01*
G75*
G02*
X157516500Y-61585975I0J111125D01*
G01*
X157516500Y-60919225D01*
G75*
G02*
X157627625Y-60808100I111125J0D01*
G01*
X158294375Y-60808100D01*
G75*
G02*
X158405500Y-60919225I0J-111125D01*
G01*
X158405500Y-61585975D01*
G75*
G02*
X158294375Y-61697100I-111125J0D01*
G01*
G37*
G36*
G01*
X158294375Y-63221100D02*
X157627625Y-63221100D01*
G75*
G02*
X157516500Y-63109975I0J111125D01*
G01*
X157516500Y-62443225D01*
G75*
G02*
X157627625Y-62332100I111125J0D01*
G01*
X158294375Y-62332100D01*
G75*
G02*
X158405500Y-62443225I0J-111125D01*
G01*
X158405500Y-63109975D01*
G75*
G02*
X158294375Y-63221100I-111125J0D01*
G01*
G37*
G36*
G01*
X130349625Y-24701500D02*
X131016375Y-24701500D01*
G75*
G02*
X131127500Y-24812625I0J-111125D01*
G01*
X131127500Y-25479375D01*
G75*
G02*
X131016375Y-25590500I-111125J0D01*
G01*
X130349625Y-25590500D01*
G75*
G02*
X130238500Y-25479375I0J111125D01*
G01*
X130238500Y-24812625D01*
G75*
G02*
X130349625Y-24701500I111125J0D01*
G01*
G37*
G36*
G01*
X130349625Y-23177500D02*
X131016375Y-23177500D01*
G75*
G02*
X131127500Y-23288625I0J-111125D01*
G01*
X131127500Y-23955375D01*
G75*
G02*
X131016375Y-24066500I-111125J0D01*
G01*
X130349625Y-24066500D01*
G75*
G02*
X130238500Y-23955375I0J111125D01*
G01*
X130238500Y-23288625D01*
G75*
G02*
X130349625Y-23177500I111125J0D01*
G01*
G37*
G36*
G01*
X135429625Y-24815900D02*
X136096375Y-24815900D01*
G75*
G02*
X136207500Y-24927025I0J-111125D01*
G01*
X136207500Y-25593775D01*
G75*
G02*
X136096375Y-25704900I-111125J0D01*
G01*
X135429625Y-25704900D01*
G75*
G02*
X135318500Y-25593775I0J111125D01*
G01*
X135318500Y-24927025D01*
G75*
G02*
X135429625Y-24815900I111125J0D01*
G01*
G37*
G36*
G01*
X135429625Y-23291900D02*
X136096375Y-23291900D01*
G75*
G02*
X136207500Y-23403025I0J-111125D01*
G01*
X136207500Y-24069775D01*
G75*
G02*
X136096375Y-24180900I-111125J0D01*
G01*
X135429625Y-24180900D01*
G75*
G02*
X135318500Y-24069775I0J111125D01*
G01*
X135318500Y-23403025D01*
G75*
G02*
X135429625Y-23291900I111125J0D01*
G01*
G37*
G36*
G01*
X148129625Y-24955500D02*
X148796375Y-24955500D01*
G75*
G02*
X148907500Y-25066625I0J-111125D01*
G01*
X148907500Y-25733375D01*
G75*
G02*
X148796375Y-25844500I-111125J0D01*
G01*
X148129625Y-25844500D01*
G75*
G02*
X148018500Y-25733375I0J111125D01*
G01*
X148018500Y-25066625D01*
G75*
G02*
X148129625Y-24955500I111125J0D01*
G01*
G37*
G36*
G01*
X148129625Y-23431500D02*
X148796375Y-23431500D01*
G75*
G02*
X148907500Y-23542625I0J-111125D01*
G01*
X148907500Y-24209375D01*
G75*
G02*
X148796375Y-24320500I-111125J0D01*
G01*
X148129625Y-24320500D01*
G75*
G02*
X148018500Y-24209375I0J111125D01*
G01*
X148018500Y-23542625D01*
G75*
G02*
X148129625Y-23431500I111125J0D01*
G01*
G37*
G36*
G01*
X139946500Y-42331625D02*
X139946500Y-42998375D01*
G75*
G02*
X139835375Y-43109500I-111125J0D01*
G01*
X139168625Y-43109500D01*
G75*
G02*
X139057500Y-42998375I0J111125D01*
G01*
X139057500Y-42331625D01*
G75*
G02*
X139168625Y-42220500I111125J0D01*
G01*
X139835375Y-42220500D01*
G75*
G02*
X139946500Y-42331625I0J-111125D01*
G01*
G37*
G36*
G01*
X141470500Y-42331625D02*
X141470500Y-42998375D01*
G75*
G02*
X141359375Y-43109500I-111125J0D01*
G01*
X140692625Y-43109500D01*
G75*
G02*
X140581500Y-42998375I0J111125D01*
G01*
X140581500Y-42331625D01*
G75*
G02*
X140692625Y-42220500I111125J0D01*
G01*
X141359375Y-42220500D01*
G75*
G02*
X141470500Y-42331625I0J-111125D01*
G01*
G37*
G36*
G01*
X202832575Y-102017300D02*
X202165825Y-102017300D01*
G75*
G02*
X202054700Y-101906175I0J111125D01*
G01*
X202054700Y-101239425D01*
G75*
G02*
X202165825Y-101128300I111125J0D01*
G01*
X202832575Y-101128300D01*
G75*
G02*
X202943700Y-101239425I0J-111125D01*
G01*
X202943700Y-101906175D01*
G75*
G02*
X202832575Y-102017300I-111125J0D01*
G01*
G37*
G36*
G01*
X202832575Y-103541300D02*
X202165825Y-103541300D01*
G75*
G02*
X202054700Y-103430175I0J111125D01*
G01*
X202054700Y-102763425D01*
G75*
G02*
X202165825Y-102652300I111125J0D01*
G01*
X202832575Y-102652300D01*
G75*
G02*
X202943700Y-102763425I0J-111125D01*
G01*
X202943700Y-103430175D01*
G75*
G02*
X202832575Y-103541300I-111125J0D01*
G01*
G37*
G36*
G01*
X160547825Y-66367200D02*
X161214575Y-66367200D01*
G75*
G02*
X161325700Y-66478325I0J-111125D01*
G01*
X161325700Y-67145075D01*
G75*
G02*
X161214575Y-67256200I-111125J0D01*
G01*
X160547825Y-67256200D01*
G75*
G02*
X160436700Y-67145075I0J111125D01*
G01*
X160436700Y-66478325D01*
G75*
G02*
X160547825Y-66367200I111125J0D01*
G01*
G37*
G36*
G01*
X160547825Y-64843200D02*
X161214575Y-64843200D01*
G75*
G02*
X161325700Y-64954325I0J-111125D01*
G01*
X161325700Y-65621075D01*
G75*
G02*
X161214575Y-65732200I-111125J0D01*
G01*
X160547825Y-65732200D01*
G75*
G02*
X160436700Y-65621075I0J111125D01*
G01*
X160436700Y-64954325D01*
G75*
G02*
X160547825Y-64843200I111125J0D01*
G01*
G37*
G36*
G01*
X158357075Y-65732200D02*
X157690325Y-65732200D01*
G75*
G02*
X157579200Y-65621075I0J111125D01*
G01*
X157579200Y-64954325D01*
G75*
G02*
X157690325Y-64843200I111125J0D01*
G01*
X158357075Y-64843200D01*
G75*
G02*
X158468200Y-64954325I0J-111125D01*
G01*
X158468200Y-65621075D01*
G75*
G02*
X158357075Y-65732200I-111125J0D01*
G01*
G37*
G36*
G01*
X158357075Y-67256200D02*
X157690325Y-67256200D01*
G75*
G02*
X157579200Y-67145075I0J111125D01*
G01*
X157579200Y-66478325D01*
G75*
G02*
X157690325Y-66367200I111125J0D01*
G01*
X158357075Y-66367200D01*
G75*
G02*
X158468200Y-66478325I0J-111125D01*
G01*
X158468200Y-67145075D01*
G75*
G02*
X158357075Y-67256200I-111125J0D01*
G01*
G37*
G36*
G01*
X152407875Y-90253000D02*
X151741125Y-90253000D01*
G75*
G02*
X151630000Y-90141875I0J111125D01*
G01*
X151630000Y-89475125D01*
G75*
G02*
X151741125Y-89364000I111125J0D01*
G01*
X152407875Y-89364000D01*
G75*
G02*
X152519000Y-89475125I0J-111125D01*
G01*
X152519000Y-90141875D01*
G75*
G02*
X152407875Y-90253000I-111125J0D01*
G01*
G37*
G36*
G01*
X152407875Y-91777000D02*
X151741125Y-91777000D01*
G75*
G02*
X151630000Y-91665875I0J111125D01*
G01*
X151630000Y-90999125D01*
G75*
G02*
X151741125Y-90888000I111125J0D01*
G01*
X152407875Y-90888000D01*
G75*
G02*
X152519000Y-90999125I0J-111125D01*
G01*
X152519000Y-91665875D01*
G75*
G02*
X152407875Y-91777000I-111125J0D01*
G01*
G37*
G36*
G01*
X132179500Y-84133375D02*
X132179500Y-83466625D01*
G75*
G02*
X132290625Y-83355500I111125J0D01*
G01*
X132957375Y-83355500D01*
G75*
G02*
X133068500Y-83466625I0J-111125D01*
G01*
X133068500Y-84133375D01*
G75*
G02*
X132957375Y-84244500I-111125J0D01*
G01*
X132290625Y-84244500D01*
G75*
G02*
X132179500Y-84133375I0J111125D01*
G01*
G37*
G36*
G01*
X130655500Y-84133375D02*
X130655500Y-83466625D01*
G75*
G02*
X130766625Y-83355500I111125J0D01*
G01*
X131433375Y-83355500D01*
G75*
G02*
X131544500Y-83466625I0J-111125D01*
G01*
X131544500Y-84133375D01*
G75*
G02*
X131433375Y-84244500I-111125J0D01*
G01*
X130766625Y-84244500D01*
G75*
G02*
X130655500Y-84133375I0J111125D01*
G01*
G37*
G36*
G01*
X128579500Y-63858375D02*
X128579500Y-63191625D01*
G75*
G02*
X128690625Y-63080500I111125J0D01*
G01*
X129357375Y-63080500D01*
G75*
G02*
X129468500Y-63191625I0J-111125D01*
G01*
X129468500Y-63858375D01*
G75*
G02*
X129357375Y-63969500I-111125J0D01*
G01*
X128690625Y-63969500D01*
G75*
G02*
X128579500Y-63858375I0J111125D01*
G01*
G37*
G36*
G01*
X127055500Y-63858375D02*
X127055500Y-63191625D01*
G75*
G02*
X127166625Y-63080500I111125J0D01*
G01*
X127833375Y-63080500D01*
G75*
G02*
X127944500Y-63191625I0J-111125D01*
G01*
X127944500Y-63858375D01*
G75*
G02*
X127833375Y-63969500I-111125J0D01*
G01*
X127166625Y-63969500D01*
G75*
G02*
X127055500Y-63858375I0J111125D01*
G01*
G37*
G36*
G01*
X123830500Y-63733375D02*
X123830500Y-63066625D01*
G75*
G02*
X123941625Y-62955500I111125J0D01*
G01*
X124608375Y-62955500D01*
G75*
G02*
X124719500Y-63066625I0J-111125D01*
G01*
X124719500Y-63733375D01*
G75*
G02*
X124608375Y-63844500I-111125J0D01*
G01*
X123941625Y-63844500D01*
G75*
G02*
X123830500Y-63733375I0J111125D01*
G01*
G37*
G36*
G01*
X122306500Y-63733375D02*
X122306500Y-63066625D01*
G75*
G02*
X122417625Y-62955500I111125J0D01*
G01*
X123084375Y-62955500D01*
G75*
G02*
X123195500Y-63066625I0J-111125D01*
G01*
X123195500Y-63733375D01*
G75*
G02*
X123084375Y-63844500I-111125J0D01*
G01*
X122417625Y-63844500D01*
G75*
G02*
X122306500Y-63733375I0J111125D01*
G01*
G37*
G36*
G01*
X123880500Y-77433375D02*
X123880500Y-76766625D01*
G75*
G02*
X123991625Y-76655500I111125J0D01*
G01*
X124658375Y-76655500D01*
G75*
G02*
X124769500Y-76766625I0J-111125D01*
G01*
X124769500Y-77433375D01*
G75*
G02*
X124658375Y-77544500I-111125J0D01*
G01*
X123991625Y-77544500D01*
G75*
G02*
X123880500Y-77433375I0J111125D01*
G01*
G37*
G36*
G01*
X122356500Y-77433375D02*
X122356500Y-76766625D01*
G75*
G02*
X122467625Y-76655500I111125J0D01*
G01*
X123134375Y-76655500D01*
G75*
G02*
X123245500Y-76766625I0J-111125D01*
G01*
X123245500Y-77433375D01*
G75*
G02*
X123134375Y-77544500I-111125J0D01*
G01*
X122467625Y-77544500D01*
G75*
G02*
X122356500Y-77433375I0J111125D01*
G01*
G37*
G36*
G01*
X128545500Y-76716625D02*
X128545500Y-77383375D01*
G75*
G02*
X128434375Y-77494500I-111125J0D01*
G01*
X127767625Y-77494500D01*
G75*
G02*
X127656500Y-77383375I0J111125D01*
G01*
X127656500Y-76716625D01*
G75*
G02*
X127767625Y-76605500I111125J0D01*
G01*
X128434375Y-76605500D01*
G75*
G02*
X128545500Y-76716625I0J-111125D01*
G01*
G37*
G36*
G01*
X130069500Y-76716625D02*
X130069500Y-77383375D01*
G75*
G02*
X129958375Y-77494500I-111125J0D01*
G01*
X129291625Y-77494500D01*
G75*
G02*
X129180500Y-77383375I0J111125D01*
G01*
X129180500Y-76716625D01*
G75*
G02*
X129291625Y-76605500I111125J0D01*
G01*
X129958375Y-76605500D01*
G75*
G02*
X130069500Y-76716625I0J-111125D01*
G01*
G37*
G36*
G01*
X123829500Y-66508375D02*
X123829500Y-65841625D01*
G75*
G02*
X123940625Y-65730500I111125J0D01*
G01*
X124607375Y-65730500D01*
G75*
G02*
X124718500Y-65841625I0J-111125D01*
G01*
X124718500Y-66508375D01*
G75*
G02*
X124607375Y-66619500I-111125J0D01*
G01*
X123940625Y-66619500D01*
G75*
G02*
X123829500Y-66508375I0J111125D01*
G01*
G37*
G36*
G01*
X122305500Y-66508375D02*
X122305500Y-65841625D01*
G75*
G02*
X122416625Y-65730500I111125J0D01*
G01*
X123083375Y-65730500D01*
G75*
G02*
X123194500Y-65841625I0J-111125D01*
G01*
X123194500Y-66508375D01*
G75*
G02*
X123083375Y-66619500I-111125J0D01*
G01*
X122416625Y-66619500D01*
G75*
G02*
X122305500Y-66508375I0J111125D01*
G01*
G37*
G36*
G01*
X123841900Y-75582775D02*
X123841900Y-74916025D01*
G75*
G02*
X123953025Y-74804900I111125J0D01*
G01*
X124619775Y-74804900D01*
G75*
G02*
X124730900Y-74916025I0J-111125D01*
G01*
X124730900Y-75582775D01*
G75*
G02*
X124619775Y-75693900I-111125J0D01*
G01*
X123953025Y-75693900D01*
G75*
G02*
X123841900Y-75582775I0J111125D01*
G01*
G37*
G36*
G01*
X122317900Y-75582775D02*
X122317900Y-74916025D01*
G75*
G02*
X122429025Y-74804900I111125J0D01*
G01*
X123095775Y-74804900D01*
G75*
G02*
X123206900Y-74916025I0J-111125D01*
G01*
X123206900Y-75582775D01*
G75*
G02*
X123095775Y-75693900I-111125J0D01*
G01*
X122429025Y-75693900D01*
G75*
G02*
X122317900Y-75582775I0J111125D01*
G01*
G37*
G36*
G01*
X154598625Y-90888000D02*
X155265375Y-90888000D01*
G75*
G02*
X155376500Y-90999125I0J-111125D01*
G01*
X155376500Y-91665875D01*
G75*
G02*
X155265375Y-91777000I-111125J0D01*
G01*
X154598625Y-91777000D01*
G75*
G02*
X154487500Y-91665875I0J111125D01*
G01*
X154487500Y-90999125D01*
G75*
G02*
X154598625Y-90888000I111125J0D01*
G01*
G37*
G36*
G01*
X154598625Y-89364000D02*
X155265375Y-89364000D01*
G75*
G02*
X155376500Y-89475125I0J-111125D01*
G01*
X155376500Y-90141875D01*
G75*
G02*
X155265375Y-90253000I-111125J0D01*
G01*
X154598625Y-90253000D01*
G75*
G02*
X154487500Y-90141875I0J111125D01*
G01*
X154487500Y-89475125D01*
G75*
G02*
X154598625Y-89364000I111125J0D01*
G01*
G37*
G36*
G01*
X162409125Y-90888000D02*
X163075875Y-90888000D01*
G75*
G02*
X163187000Y-90999125I0J-111125D01*
G01*
X163187000Y-91665875D01*
G75*
G02*
X163075875Y-91777000I-111125J0D01*
G01*
X162409125Y-91777000D01*
G75*
G02*
X162298000Y-91665875I0J111125D01*
G01*
X162298000Y-90999125D01*
G75*
G02*
X162409125Y-90888000I111125J0D01*
G01*
G37*
G36*
G01*
X162409125Y-89364000D02*
X163075875Y-89364000D01*
G75*
G02*
X163187000Y-89475125I0J-111125D01*
G01*
X163187000Y-90141875D01*
G75*
G02*
X163075875Y-90253000I-111125J0D01*
G01*
X162409125Y-90253000D01*
G75*
G02*
X162298000Y-90141875I0J111125D01*
G01*
X162298000Y-89475125D01*
G75*
G02*
X162409125Y-89364000I111125J0D01*
G01*
G37*
G36*
G01*
X157813375Y-101790500D02*
X157146625Y-101790500D01*
G75*
G02*
X157035500Y-101679375I0J111125D01*
G01*
X157035500Y-101012625D01*
G75*
G02*
X157146625Y-100901500I111125J0D01*
G01*
X157813375Y-100901500D01*
G75*
G02*
X157924500Y-101012625I0J-111125D01*
G01*
X157924500Y-101679375D01*
G75*
G02*
X157813375Y-101790500I-111125J0D01*
G01*
G37*
G36*
G01*
X157813375Y-103314500D02*
X157146625Y-103314500D01*
G75*
G02*
X157035500Y-103203375I0J111125D01*
G01*
X157035500Y-102536625D01*
G75*
G02*
X157146625Y-102425500I111125J0D01*
G01*
X157813375Y-102425500D01*
G75*
G02*
X157924500Y-102536625I0J-111125D01*
G01*
X157924500Y-103203375D01*
G75*
G02*
X157813375Y-103314500I-111125J0D01*
G01*
G37*
G36*
G01*
X154606625Y-102425500D02*
X155273375Y-102425500D01*
G75*
G02*
X155384500Y-102536625I0J-111125D01*
G01*
X155384500Y-103203375D01*
G75*
G02*
X155273375Y-103314500I-111125J0D01*
G01*
X154606625Y-103314500D01*
G75*
G02*
X154495500Y-103203375I0J111125D01*
G01*
X154495500Y-102536625D01*
G75*
G02*
X154606625Y-102425500I111125J0D01*
G01*
G37*
G36*
G01*
X154606625Y-100901500D02*
X155273375Y-100901500D01*
G75*
G02*
X155384500Y-101012625I0J-111125D01*
G01*
X155384500Y-101679375D01*
G75*
G02*
X155273375Y-101790500I-111125J0D01*
G01*
X154606625Y-101790500D01*
G75*
G02*
X154495500Y-101679375I0J111125D01*
G01*
X154495500Y-101012625D01*
G75*
G02*
X154606625Y-100901500I111125J0D01*
G01*
G37*
G36*
G01*
X151927625Y-74053500D02*
X152594375Y-74053500D01*
G75*
G02*
X152705500Y-74164625I0J-111125D01*
G01*
X152705500Y-74831375D01*
G75*
G02*
X152594375Y-74942500I-111125J0D01*
G01*
X151927625Y-74942500D01*
G75*
G02*
X151816500Y-74831375I0J111125D01*
G01*
X151816500Y-74164625D01*
G75*
G02*
X151927625Y-74053500I111125J0D01*
G01*
G37*
G36*
G01*
X151927625Y-72529500D02*
X152594375Y-72529500D01*
G75*
G02*
X152705500Y-72640625I0J-111125D01*
G01*
X152705500Y-73307375D01*
G75*
G02*
X152594375Y-73418500I-111125J0D01*
G01*
X151927625Y-73418500D01*
G75*
G02*
X151816500Y-73307375I0J111125D01*
G01*
X151816500Y-72640625D01*
G75*
G02*
X151927625Y-72529500I111125J0D01*
G01*
G37*
G36*
G01*
X154848625Y-74053500D02*
X155515375Y-74053500D01*
G75*
G02*
X155626500Y-74164625I0J-111125D01*
G01*
X155626500Y-74831375D01*
G75*
G02*
X155515375Y-74942500I-111125J0D01*
G01*
X154848625Y-74942500D01*
G75*
G02*
X154737500Y-74831375I0J111125D01*
G01*
X154737500Y-74164625D01*
G75*
G02*
X154848625Y-74053500I111125J0D01*
G01*
G37*
G36*
G01*
X154848625Y-72529500D02*
X155515375Y-72529500D01*
G75*
G02*
X155626500Y-72640625I0J-111125D01*
G01*
X155626500Y-73307375D01*
G75*
G02*
X155515375Y-73418500I-111125J0D01*
G01*
X154848625Y-73418500D01*
G75*
G02*
X154737500Y-73307375I0J111125D01*
G01*
X154737500Y-72640625D01*
G75*
G02*
X154848625Y-72529500I111125J0D01*
G01*
G37*
G36*
G01*
X123245500Y-78616625D02*
X123245500Y-79283375D01*
G75*
G02*
X123134375Y-79394500I-111125J0D01*
G01*
X122467625Y-79394500D01*
G75*
G02*
X122356500Y-79283375I0J111125D01*
G01*
X122356500Y-78616625D01*
G75*
G02*
X122467625Y-78505500I111125J0D01*
G01*
X123134375Y-78505500D01*
G75*
G02*
X123245500Y-78616625I0J-111125D01*
G01*
G37*
G36*
G01*
X124769500Y-78616625D02*
X124769500Y-79283375D01*
G75*
G02*
X124658375Y-79394500I-111125J0D01*
G01*
X123991625Y-79394500D01*
G75*
G02*
X123880500Y-79283375I0J111125D01*
G01*
X123880500Y-78616625D01*
G75*
G02*
X123991625Y-78505500I111125J0D01*
G01*
X124658375Y-78505500D01*
G75*
G02*
X124769500Y-78616625I0J-111125D01*
G01*
G37*
G36*
G01*
X162441625Y-74355500D02*
X163108375Y-74355500D01*
G75*
G02*
X163219500Y-74466625I0J-111125D01*
G01*
X163219500Y-75133375D01*
G75*
G02*
X163108375Y-75244500I-111125J0D01*
G01*
X162441625Y-75244500D01*
G75*
G02*
X162330500Y-75133375I0J111125D01*
G01*
X162330500Y-74466625D01*
G75*
G02*
X162441625Y-74355500I111125J0D01*
G01*
G37*
G36*
G01*
X162441625Y-72831500D02*
X163108375Y-72831500D01*
G75*
G02*
X163219500Y-72942625I0J-111125D01*
G01*
X163219500Y-73609375D01*
G75*
G02*
X163108375Y-73720500I-111125J0D01*
G01*
X162441625Y-73720500D01*
G75*
G02*
X162330500Y-73609375I0J111125D01*
G01*
X162330500Y-72942625D01*
G75*
G02*
X162441625Y-72831500I111125J0D01*
G01*
G37*
G36*
G01*
X155440375Y-85815900D02*
X154773625Y-85815900D01*
G75*
G02*
X154662500Y-85704775I0J111125D01*
G01*
X154662500Y-85038025D01*
G75*
G02*
X154773625Y-84926900I111125J0D01*
G01*
X155440375Y-84926900D01*
G75*
G02*
X155551500Y-85038025I0J-111125D01*
G01*
X155551500Y-85704775D01*
G75*
G02*
X155440375Y-85815900I-111125J0D01*
G01*
G37*
G36*
G01*
X155440375Y-87339900D02*
X154773625Y-87339900D01*
G75*
G02*
X154662500Y-87228775I0J111125D01*
G01*
X154662500Y-86562025D01*
G75*
G02*
X154773625Y-86450900I111125J0D01*
G01*
X155440375Y-86450900D01*
G75*
G02*
X155551500Y-86562025I0J-111125D01*
G01*
X155551500Y-87228775D01*
G75*
G02*
X155440375Y-87339900I-111125J0D01*
G01*
G37*
G36*
G01*
X145534500Y-47284625D02*
X145534500Y-47951375D01*
G75*
G02*
X145423375Y-48062500I-111125J0D01*
G01*
X144756625Y-48062500D01*
G75*
G02*
X144645500Y-47951375I0J111125D01*
G01*
X144645500Y-47284625D01*
G75*
G02*
X144756625Y-47173500I111125J0D01*
G01*
X145423375Y-47173500D01*
G75*
G02*
X145534500Y-47284625I0J-111125D01*
G01*
G37*
G36*
G01*
X147058500Y-47284625D02*
X147058500Y-47951375D01*
G75*
G02*
X146947375Y-48062500I-111125J0D01*
G01*
X146280625Y-48062500D01*
G75*
G02*
X146169500Y-47951375I0J111125D01*
G01*
X146169500Y-47284625D01*
G75*
G02*
X146280625Y-47173500I111125J0D01*
G01*
X146947375Y-47173500D01*
G75*
G02*
X147058500Y-47284625I0J-111125D01*
G01*
G37*
G36*
G01*
X151122500Y-44871625D02*
X151122500Y-45538375D01*
G75*
G02*
X151011375Y-45649500I-111125J0D01*
G01*
X150344625Y-45649500D01*
G75*
G02*
X150233500Y-45538375I0J111125D01*
G01*
X150233500Y-44871625D01*
G75*
G02*
X150344625Y-44760500I111125J0D01*
G01*
X151011375Y-44760500D01*
G75*
G02*
X151122500Y-44871625I0J-111125D01*
G01*
G37*
G36*
G01*
X152646500Y-44871625D02*
X152646500Y-45538375D01*
G75*
G02*
X152535375Y-45649500I-111125J0D01*
G01*
X151868625Y-45649500D01*
G75*
G02*
X151757500Y-45538375I0J111125D01*
G01*
X151757500Y-44871625D01*
G75*
G02*
X151868625Y-44760500I111125J0D01*
G01*
X152535375Y-44760500D01*
G75*
G02*
X152646500Y-44871625I0J-111125D01*
G01*
G37*
G36*
G01*
X151757500Y-48078375D02*
X151757500Y-47411625D01*
G75*
G02*
X151868625Y-47300500I111125J0D01*
G01*
X152535375Y-47300500D01*
G75*
G02*
X152646500Y-47411625I0J-111125D01*
G01*
X152646500Y-48078375D01*
G75*
G02*
X152535375Y-48189500I-111125J0D01*
G01*
X151868625Y-48189500D01*
G75*
G02*
X151757500Y-48078375I0J111125D01*
G01*
G37*
G36*
G01*
X150233500Y-48078375D02*
X150233500Y-47411625D01*
G75*
G02*
X150344625Y-47300500I111125J0D01*
G01*
X151011375Y-47300500D01*
G75*
G02*
X151122500Y-47411625I0J-111125D01*
G01*
X151122500Y-48078375D01*
G75*
G02*
X151011375Y-48189500I-111125J0D01*
G01*
X150344625Y-48189500D01*
G75*
G02*
X150233500Y-48078375I0J111125D01*
G01*
G37*
G36*
G01*
X153209625Y-20129500D02*
X153876375Y-20129500D01*
G75*
G02*
X153987500Y-20240625I0J-111125D01*
G01*
X153987500Y-20907375D01*
G75*
G02*
X153876375Y-21018500I-111125J0D01*
G01*
X153209625Y-21018500D01*
G75*
G02*
X153098500Y-20907375I0J111125D01*
G01*
X153098500Y-20240625D01*
G75*
G02*
X153209625Y-20129500I111125J0D01*
G01*
G37*
G36*
G01*
X153209625Y-18605500D02*
X153876375Y-18605500D01*
G75*
G02*
X153987500Y-18716625I0J-111125D01*
G01*
X153987500Y-19383375D01*
G75*
G02*
X153876375Y-19494500I-111125J0D01*
G01*
X153209625Y-19494500D01*
G75*
G02*
X153098500Y-19383375I0J111125D01*
G01*
X153098500Y-18716625D01*
G75*
G02*
X153209625Y-18605500I111125J0D01*
G01*
G37*
G36*
G01*
X151336375Y-19494500D02*
X150669625Y-19494500D01*
G75*
G02*
X150558500Y-19383375I0J111125D01*
G01*
X150558500Y-18716625D01*
G75*
G02*
X150669625Y-18605500I111125J0D01*
G01*
X151336375Y-18605500D01*
G75*
G02*
X151447500Y-18716625I0J-111125D01*
G01*
X151447500Y-19383375D01*
G75*
G02*
X151336375Y-19494500I-111125J0D01*
G01*
G37*
G36*
G01*
X151336375Y-21018500D02*
X150669625Y-21018500D01*
G75*
G02*
X150558500Y-20907375I0J111125D01*
G01*
X150558500Y-20240625D01*
G75*
G02*
X150669625Y-20129500I111125J0D01*
G01*
X151336375Y-20129500D01*
G75*
G02*
X151447500Y-20240625I0J-111125D01*
G01*
X151447500Y-20907375D01*
G75*
G02*
X151336375Y-21018500I-111125J0D01*
G01*
G37*
G36*
G01*
X156340500Y-50236625D02*
X156340500Y-50903375D01*
G75*
G02*
X156229375Y-51014500I-111125J0D01*
G01*
X155562625Y-51014500D01*
G75*
G02*
X155451500Y-50903375I0J111125D01*
G01*
X155451500Y-50236625D01*
G75*
G02*
X155562625Y-50125500I111125J0D01*
G01*
X156229375Y-50125500D01*
G75*
G02*
X156340500Y-50236625I0J-111125D01*
G01*
G37*
G36*
G01*
X157864500Y-50236625D02*
X157864500Y-50903375D01*
G75*
G02*
X157753375Y-51014500I-111125J0D01*
G01*
X157086625Y-51014500D01*
G75*
G02*
X156975500Y-50903375I0J111125D01*
G01*
X156975500Y-50236625D01*
G75*
G02*
X157086625Y-50125500I111125J0D01*
G01*
X157753375Y-50125500D01*
G75*
G02*
X157864500Y-50236625I0J-111125D01*
G01*
G37*
G36*
G01*
X138636375Y-19494500D02*
X137969625Y-19494500D01*
G75*
G02*
X137858500Y-19383375I0J111125D01*
G01*
X137858500Y-18716625D01*
G75*
G02*
X137969625Y-18605500I111125J0D01*
G01*
X138636375Y-18605500D01*
G75*
G02*
X138747500Y-18716625I0J-111125D01*
G01*
X138747500Y-19383375D01*
G75*
G02*
X138636375Y-19494500I-111125J0D01*
G01*
G37*
G36*
G01*
X138636375Y-21018500D02*
X137969625Y-21018500D01*
G75*
G02*
X137858500Y-20907375I0J111125D01*
G01*
X137858500Y-20240625D01*
G75*
G02*
X137969625Y-20129500I111125J0D01*
G01*
X138636375Y-20129500D01*
G75*
G02*
X138747500Y-20240625I0J-111125D01*
G01*
X138747500Y-20907375D01*
G75*
G02*
X138636375Y-21018500I-111125J0D01*
G01*
G37*
G36*
G01*
X135429625Y-20129500D02*
X136096375Y-20129500D01*
G75*
G02*
X136207500Y-20240625I0J-111125D01*
G01*
X136207500Y-20907375D01*
G75*
G02*
X136096375Y-21018500I-111125J0D01*
G01*
X135429625Y-21018500D01*
G75*
G02*
X135318500Y-20907375I0J111125D01*
G01*
X135318500Y-20240625D01*
G75*
G02*
X135429625Y-20129500I111125J0D01*
G01*
G37*
G36*
G01*
X135429625Y-18605500D02*
X136096375Y-18605500D01*
G75*
G02*
X136207500Y-18716625I0J-111125D01*
G01*
X136207500Y-19383375D01*
G75*
G02*
X136096375Y-19494500I-111125J0D01*
G01*
X135429625Y-19494500D01*
G75*
G02*
X135318500Y-19383375I0J111125D01*
G01*
X135318500Y-18716625D01*
G75*
G02*
X135429625Y-18605500I111125J0D01*
G01*
G37*
G36*
G01*
X157147500Y-42783375D02*
X157147500Y-42116625D01*
G75*
G02*
X157258625Y-42005500I111125J0D01*
G01*
X157925375Y-42005500D01*
G75*
G02*
X158036500Y-42116625I0J-111125D01*
G01*
X158036500Y-42783375D01*
G75*
G02*
X157925375Y-42894500I-111125J0D01*
G01*
X157258625Y-42894500D01*
G75*
G02*
X157147500Y-42783375I0J111125D01*
G01*
G37*
G36*
G01*
X155623500Y-42783375D02*
X155623500Y-42116625D01*
G75*
G02*
X155734625Y-42005500I111125J0D01*
G01*
X156401375Y-42005500D01*
G75*
G02*
X156512500Y-42116625I0J-111125D01*
G01*
X156512500Y-42783375D01*
G75*
G02*
X156401375Y-42894500I-111125J0D01*
G01*
X155734625Y-42894500D01*
G75*
G02*
X155623500Y-42783375I0J111125D01*
G01*
G37*
G36*
G01*
X157035500Y-45563375D02*
X157035500Y-44896625D01*
G75*
G02*
X157146625Y-44785500I111125J0D01*
G01*
X157813375Y-44785500D01*
G75*
G02*
X157924500Y-44896625I0J-111125D01*
G01*
X157924500Y-45563375D01*
G75*
G02*
X157813375Y-45674500I-111125J0D01*
G01*
X157146625Y-45674500D01*
G75*
G02*
X157035500Y-45563375I0J111125D01*
G01*
G37*
G36*
G01*
X155511500Y-45563375D02*
X155511500Y-44896625D01*
G75*
G02*
X155622625Y-44785500I111125J0D01*
G01*
X156289375Y-44785500D01*
G75*
G02*
X156400500Y-44896625I0J-111125D01*
G01*
X156400500Y-45563375D01*
G75*
G02*
X156289375Y-45674500I-111125J0D01*
G01*
X155622625Y-45674500D01*
G75*
G02*
X155511500Y-45563375I0J111125D01*
G01*
G37*
G36*
G01*
X150456625Y-24955500D02*
X151123375Y-24955500D01*
G75*
G02*
X151234500Y-25066625I0J-111125D01*
G01*
X151234500Y-25733375D01*
G75*
G02*
X151123375Y-25844500I-111125J0D01*
G01*
X150456625Y-25844500D01*
G75*
G02*
X150345500Y-25733375I0J111125D01*
G01*
X150345500Y-25066625D01*
G75*
G02*
X150456625Y-24955500I111125J0D01*
G01*
G37*
G36*
G01*
X150456625Y-23431500D02*
X151123375Y-23431500D01*
G75*
G02*
X151234500Y-23542625I0J-111125D01*
G01*
X151234500Y-24209375D01*
G75*
G02*
X151123375Y-24320500I-111125J0D01*
G01*
X150456625Y-24320500D01*
G75*
G02*
X150345500Y-24209375I0J111125D01*
G01*
X150345500Y-23542625D01*
G75*
G02*
X150456625Y-23431500I111125J0D01*
G01*
G37*
G36*
G01*
X153749375Y-24320500D02*
X153082625Y-24320500D01*
G75*
G02*
X152971500Y-24209375I0J111125D01*
G01*
X152971500Y-23542625D01*
G75*
G02*
X153082625Y-23431500I111125J0D01*
G01*
X153749375Y-23431500D01*
G75*
G02*
X153860500Y-23542625I0J-111125D01*
G01*
X153860500Y-24209375D01*
G75*
G02*
X153749375Y-24320500I-111125J0D01*
G01*
G37*
G36*
G01*
X153749375Y-25844500D02*
X153082625Y-25844500D01*
G75*
G02*
X152971500Y-25733375I0J111125D01*
G01*
X152971500Y-25066625D01*
G75*
G02*
X153082625Y-24955500I111125J0D01*
G01*
X153749375Y-24955500D01*
G75*
G02*
X153860500Y-25066625I0J-111125D01*
G01*
X153860500Y-25733375D01*
G75*
G02*
X153749375Y-25844500I-111125J0D01*
G01*
G37*
G36*
G01*
X161630500Y-39666625D02*
X161630500Y-40333375D01*
G75*
G02*
X161519375Y-40444500I-111125J0D01*
G01*
X160852625Y-40444500D01*
G75*
G02*
X160741500Y-40333375I0J111125D01*
G01*
X160741500Y-39666625D01*
G75*
G02*
X160852625Y-39555500I111125J0D01*
G01*
X161519375Y-39555500D01*
G75*
G02*
X161630500Y-39666625I0J-111125D01*
G01*
G37*
G36*
G01*
X163154500Y-39666625D02*
X163154500Y-40333375D01*
G75*
G02*
X163043375Y-40444500I-111125J0D01*
G01*
X162376625Y-40444500D01*
G75*
G02*
X162265500Y-40333375I0J111125D01*
G01*
X162265500Y-39666625D01*
G75*
G02*
X162376625Y-39555500I111125J0D01*
G01*
X163043375Y-39555500D01*
G75*
G02*
X163154500Y-39666625I0J-111125D01*
G01*
G37*
G36*
G01*
X162295500Y-42753375D02*
X162295500Y-42086625D01*
G75*
G02*
X162406625Y-41975500I111125J0D01*
G01*
X163073375Y-41975500D01*
G75*
G02*
X163184500Y-42086625I0J-111125D01*
G01*
X163184500Y-42753375D01*
G75*
G02*
X163073375Y-42864500I-111125J0D01*
G01*
X162406625Y-42864500D01*
G75*
G02*
X162295500Y-42753375I0J111125D01*
G01*
G37*
G36*
G01*
X160771500Y-42753375D02*
X160771500Y-42086625D01*
G75*
G02*
X160882625Y-41975500I111125J0D01*
G01*
X161549375Y-41975500D01*
G75*
G02*
X161660500Y-42086625I0J-111125D01*
G01*
X161660500Y-42753375D01*
G75*
G02*
X161549375Y-42864500I-111125J0D01*
G01*
X160882625Y-42864500D01*
G75*
G02*
X160771500Y-42753375I0J111125D01*
G01*
G37*
G36*
G01*
X151928825Y-86400100D02*
X152595575Y-86400100D01*
G75*
G02*
X152706700Y-86511225I0J-111125D01*
G01*
X152706700Y-87177975D01*
G75*
G02*
X152595575Y-87289100I-111125J0D01*
G01*
X151928825Y-87289100D01*
G75*
G02*
X151817700Y-87177975I0J111125D01*
G01*
X151817700Y-86511225D01*
G75*
G02*
X151928825Y-86400100I111125J0D01*
G01*
G37*
G36*
G01*
X151928825Y-84876100D02*
X152595575Y-84876100D01*
G75*
G02*
X152706700Y-84987225I0J-111125D01*
G01*
X152706700Y-85653975D01*
G75*
G02*
X152595575Y-85765100I-111125J0D01*
G01*
X151928825Y-85765100D01*
G75*
G02*
X151817700Y-85653975I0J111125D01*
G01*
X151817700Y-84987225D01*
G75*
G02*
X151928825Y-84876100I111125J0D01*
G01*
G37*
D18*
X160650000Y-37034000D03*
X162550000Y-37034000D03*
X161600000Y-34834000D03*
D22*
X119000000Y-57525000D03*
X122302000Y-57525000D03*
X122252000Y-53350000D03*
X118950000Y-53350000D03*
D19*
X139180000Y-103060000D03*
X139180000Y-101160000D03*
X136980000Y-102110000D03*
X125179000Y-20762000D03*
X125179000Y-18862000D03*
X122979000Y-19812000D03*
X142928600Y-25511900D03*
X142928600Y-23611900D03*
X140728600Y-24561900D03*
G36*
G01*
X204029550Y-105763800D02*
X204728050Y-105763800D01*
G75*
G02*
X204823300Y-105859050I0J-95250D01*
G01*
X204823300Y-106430550D01*
G75*
G02*
X204728050Y-106525800I-95250J0D01*
G01*
X204029550Y-106525800D01*
G75*
G02*
X203934300Y-106430550I0J95250D01*
G01*
X203934300Y-105859050D01*
G75*
G02*
X204029550Y-105763800I95250J0D01*
G01*
G37*
G36*
G01*
X204029550Y-104239800D02*
X204728050Y-104239800D01*
G75*
G02*
X204823300Y-104335050I0J-95250D01*
G01*
X204823300Y-104906550D01*
G75*
G02*
X204728050Y-105001800I-95250J0D01*
G01*
X204029550Y-105001800D01*
G75*
G02*
X203934300Y-104906550I0J95250D01*
G01*
X203934300Y-104335050D01*
G75*
G02*
X204029550Y-104239800I95250J0D01*
G01*
G37*
G36*
G01*
X202149950Y-105763800D02*
X202848450Y-105763800D01*
G75*
G02*
X202943700Y-105859050I0J-95250D01*
G01*
X202943700Y-106430550D01*
G75*
G02*
X202848450Y-106525800I-95250J0D01*
G01*
X202149950Y-106525800D01*
G75*
G02*
X202054700Y-106430550I0J95250D01*
G01*
X202054700Y-105859050D01*
G75*
G02*
X202149950Y-105763800I95250J0D01*
G01*
G37*
G36*
G01*
X202149950Y-104239800D02*
X202848450Y-104239800D01*
G75*
G02*
X202943700Y-104335050I0J-95250D01*
G01*
X202943700Y-104906550D01*
G75*
G02*
X202848450Y-105001800I-95250J0D01*
G01*
X202149950Y-105001800D01*
G75*
G02*
X202054700Y-104906550I0J95250D01*
G01*
X202054700Y-104335050D01*
G75*
G02*
X202149950Y-104239800I95250J0D01*
G01*
G37*
X125179000Y-25334000D03*
X125179000Y-23434000D03*
X122979000Y-24384000D03*
D18*
X132950000Y-88925000D03*
X131050000Y-88925000D03*
X132000000Y-91125000D03*
D19*
X163617000Y-24699000D03*
X163617000Y-22799000D03*
X161417000Y-23749000D03*
D18*
X144902000Y-37034000D03*
X146802000Y-37034000D03*
X145852000Y-34834000D03*
X139314000Y-37034000D03*
X141214000Y-37034000D03*
X140264000Y-34834000D03*
D19*
X139200000Y-106940000D03*
X139200000Y-105040000D03*
X137000000Y-105990000D03*
X151976000Y-103058000D03*
X151976000Y-101158000D03*
X149776000Y-102108000D03*
D15*
X176620000Y-80288000D03*
D16*
X182817800Y-77976600D03*
X182817800Y-80288000D03*
X182817800Y-82599400D03*
D23*
X163703675Y-65257313D03*
X163703675Y-67035313D03*
X165735675Y-66146313D03*
D18*
X156078000Y-37034000D03*
X157978000Y-37034000D03*
X157028000Y-34834000D03*
D19*
X142959000Y-20762000D03*
X142959000Y-18862000D03*
X140759000Y-19812000D03*
D23*
X157802100Y-89714600D03*
X157802100Y-91492600D03*
X159834100Y-90603600D03*
X163752100Y-61095200D03*
X163752100Y-62873200D03*
X165784100Y-61984200D03*
X158052100Y-72943600D03*
X158052100Y-74721600D03*
X160084100Y-73832600D03*
X158077100Y-76892600D03*
X158077100Y-78670600D03*
X160109100Y-77781600D03*
X158002100Y-81191600D03*
X158002100Y-82969600D03*
X160034100Y-82080600D03*
X157977100Y-85315600D03*
X157977100Y-87093600D03*
X160009100Y-86204600D03*
M02*
