G04 #@! TF.GenerationSoftware,KiCad,Pcbnew,5.1.5-52549c5~86~ubuntu18.04.1*
G04 #@! TF.CreationDate,2020-04-08T14:45:09+02:00*
G04 #@! TF.ProjectId,Speeduino_base,53706565-6475-4696-9e6f-5f626173652e,rev?*
G04 #@! TF.SameCoordinates,Original*
G04 #@! TF.FileFunction,Paste,Bot*
G04 #@! TF.FilePolarity,Positive*
%FSLAX46Y46*%
G04 Gerber Fmt 4.6, Leading zero omitted, Abs format (unit mm)*
G04 Created by KiCad (PCBNEW 5.1.5-52549c5~86~ubuntu18.04.1) date 2020-04-08 14:45:09*
%MOMM*%
%LPD*%
G04 APERTURE LIST*
%ADD10R,1.900000X0.800000*%
%ADD11C,0.100000*%
%ADD12R,2.200000X3.600000*%
%ADD13R,2.235200X1.219200*%
G04 APERTURE END LIST*
D10*
X192950000Y-26525000D03*
X195950000Y-27475000D03*
X195950000Y-25575000D03*
X192800000Y-44750000D03*
X195800000Y-45700000D03*
X195800000Y-43800000D03*
X192950000Y-53825000D03*
X195950000Y-54775000D03*
X195950000Y-52875000D03*
X192850000Y-35500000D03*
X195850000Y-36450000D03*
X195850000Y-34550000D03*
D11*
G36*
X190085779Y-25576144D02*
G01*
X190108834Y-25579563D01*
X190131443Y-25585227D01*
X190153387Y-25593079D01*
X190174457Y-25603044D01*
X190194448Y-25615026D01*
X190213168Y-25628910D01*
X190230438Y-25644562D01*
X190246090Y-25661832D01*
X190259974Y-25680552D01*
X190271956Y-25700543D01*
X190281921Y-25721613D01*
X190289773Y-25743557D01*
X190295437Y-25766166D01*
X190298856Y-25789221D01*
X190300000Y-25812500D01*
X190300000Y-26287500D01*
X190298856Y-26310779D01*
X190295437Y-26333834D01*
X190289773Y-26356443D01*
X190281921Y-26378387D01*
X190271956Y-26399457D01*
X190259974Y-26419448D01*
X190246090Y-26438168D01*
X190230438Y-26455438D01*
X190213168Y-26471090D01*
X190194448Y-26484974D01*
X190174457Y-26496956D01*
X190153387Y-26506921D01*
X190131443Y-26514773D01*
X190108834Y-26520437D01*
X190085779Y-26523856D01*
X190062500Y-26525000D01*
X189487500Y-26525000D01*
X189464221Y-26523856D01*
X189441166Y-26520437D01*
X189418557Y-26514773D01*
X189396613Y-26506921D01*
X189375543Y-26496956D01*
X189355552Y-26484974D01*
X189336832Y-26471090D01*
X189319562Y-26455438D01*
X189303910Y-26438168D01*
X189290026Y-26419448D01*
X189278044Y-26399457D01*
X189268079Y-26378387D01*
X189260227Y-26356443D01*
X189254563Y-26333834D01*
X189251144Y-26310779D01*
X189250000Y-26287500D01*
X189250000Y-25812500D01*
X189251144Y-25789221D01*
X189254563Y-25766166D01*
X189260227Y-25743557D01*
X189268079Y-25721613D01*
X189278044Y-25700543D01*
X189290026Y-25680552D01*
X189303910Y-25661832D01*
X189319562Y-25644562D01*
X189336832Y-25628910D01*
X189355552Y-25615026D01*
X189375543Y-25603044D01*
X189396613Y-25593079D01*
X189418557Y-25585227D01*
X189441166Y-25579563D01*
X189464221Y-25576144D01*
X189487500Y-25575000D01*
X190062500Y-25575000D01*
X190085779Y-25576144D01*
G37*
G36*
X188335779Y-25576144D02*
G01*
X188358834Y-25579563D01*
X188381443Y-25585227D01*
X188403387Y-25593079D01*
X188424457Y-25603044D01*
X188444448Y-25615026D01*
X188463168Y-25628910D01*
X188480438Y-25644562D01*
X188496090Y-25661832D01*
X188509974Y-25680552D01*
X188521956Y-25700543D01*
X188531921Y-25721613D01*
X188539773Y-25743557D01*
X188545437Y-25766166D01*
X188548856Y-25789221D01*
X188550000Y-25812500D01*
X188550000Y-26287500D01*
X188548856Y-26310779D01*
X188545437Y-26333834D01*
X188539773Y-26356443D01*
X188531921Y-26378387D01*
X188521956Y-26399457D01*
X188509974Y-26419448D01*
X188496090Y-26438168D01*
X188480438Y-26455438D01*
X188463168Y-26471090D01*
X188444448Y-26484974D01*
X188424457Y-26496956D01*
X188403387Y-26506921D01*
X188381443Y-26514773D01*
X188358834Y-26520437D01*
X188335779Y-26523856D01*
X188312500Y-26525000D01*
X187737500Y-26525000D01*
X187714221Y-26523856D01*
X187691166Y-26520437D01*
X187668557Y-26514773D01*
X187646613Y-26506921D01*
X187625543Y-26496956D01*
X187605552Y-26484974D01*
X187586832Y-26471090D01*
X187569562Y-26455438D01*
X187553910Y-26438168D01*
X187540026Y-26419448D01*
X187528044Y-26399457D01*
X187518079Y-26378387D01*
X187510227Y-26356443D01*
X187504563Y-26333834D01*
X187501144Y-26310779D01*
X187500000Y-26287500D01*
X187500000Y-25812500D01*
X187501144Y-25789221D01*
X187504563Y-25766166D01*
X187510227Y-25743557D01*
X187518079Y-25721613D01*
X187528044Y-25700543D01*
X187540026Y-25680552D01*
X187553910Y-25661832D01*
X187569562Y-25644562D01*
X187586832Y-25628910D01*
X187605552Y-25615026D01*
X187625543Y-25603044D01*
X187646613Y-25593079D01*
X187668557Y-25585227D01*
X187691166Y-25579563D01*
X187714221Y-25576144D01*
X187737500Y-25575000D01*
X188312500Y-25575000D01*
X188335779Y-25576144D01*
G37*
G36*
X189595779Y-44026144D02*
G01*
X189618834Y-44029563D01*
X189641443Y-44035227D01*
X189663387Y-44043079D01*
X189684457Y-44053044D01*
X189704448Y-44065026D01*
X189723168Y-44078910D01*
X189740438Y-44094562D01*
X189756090Y-44111832D01*
X189769974Y-44130552D01*
X189781956Y-44150543D01*
X189791921Y-44171613D01*
X189799773Y-44193557D01*
X189805437Y-44216166D01*
X189808856Y-44239221D01*
X189810000Y-44262500D01*
X189810000Y-44737500D01*
X189808856Y-44760779D01*
X189805437Y-44783834D01*
X189799773Y-44806443D01*
X189791921Y-44828387D01*
X189781956Y-44849457D01*
X189769974Y-44869448D01*
X189756090Y-44888168D01*
X189740438Y-44905438D01*
X189723168Y-44921090D01*
X189704448Y-44934974D01*
X189684457Y-44946956D01*
X189663387Y-44956921D01*
X189641443Y-44964773D01*
X189618834Y-44970437D01*
X189595779Y-44973856D01*
X189572500Y-44975000D01*
X188997500Y-44975000D01*
X188974221Y-44973856D01*
X188951166Y-44970437D01*
X188928557Y-44964773D01*
X188906613Y-44956921D01*
X188885543Y-44946956D01*
X188865552Y-44934974D01*
X188846832Y-44921090D01*
X188829562Y-44905438D01*
X188813910Y-44888168D01*
X188800026Y-44869448D01*
X188788044Y-44849457D01*
X188778079Y-44828387D01*
X188770227Y-44806443D01*
X188764563Y-44783834D01*
X188761144Y-44760779D01*
X188760000Y-44737500D01*
X188760000Y-44262500D01*
X188761144Y-44239221D01*
X188764563Y-44216166D01*
X188770227Y-44193557D01*
X188778079Y-44171613D01*
X188788044Y-44150543D01*
X188800026Y-44130552D01*
X188813910Y-44111832D01*
X188829562Y-44094562D01*
X188846832Y-44078910D01*
X188865552Y-44065026D01*
X188885543Y-44053044D01*
X188906613Y-44043079D01*
X188928557Y-44035227D01*
X188951166Y-44029563D01*
X188974221Y-44026144D01*
X188997500Y-44025000D01*
X189572500Y-44025000D01*
X189595779Y-44026144D01*
G37*
G36*
X187845779Y-44026144D02*
G01*
X187868834Y-44029563D01*
X187891443Y-44035227D01*
X187913387Y-44043079D01*
X187934457Y-44053044D01*
X187954448Y-44065026D01*
X187973168Y-44078910D01*
X187990438Y-44094562D01*
X188006090Y-44111832D01*
X188019974Y-44130552D01*
X188031956Y-44150543D01*
X188041921Y-44171613D01*
X188049773Y-44193557D01*
X188055437Y-44216166D01*
X188058856Y-44239221D01*
X188060000Y-44262500D01*
X188060000Y-44737500D01*
X188058856Y-44760779D01*
X188055437Y-44783834D01*
X188049773Y-44806443D01*
X188041921Y-44828387D01*
X188031956Y-44849457D01*
X188019974Y-44869448D01*
X188006090Y-44888168D01*
X187990438Y-44905438D01*
X187973168Y-44921090D01*
X187954448Y-44934974D01*
X187934457Y-44946956D01*
X187913387Y-44956921D01*
X187891443Y-44964773D01*
X187868834Y-44970437D01*
X187845779Y-44973856D01*
X187822500Y-44975000D01*
X187247500Y-44975000D01*
X187224221Y-44973856D01*
X187201166Y-44970437D01*
X187178557Y-44964773D01*
X187156613Y-44956921D01*
X187135543Y-44946956D01*
X187115552Y-44934974D01*
X187096832Y-44921090D01*
X187079562Y-44905438D01*
X187063910Y-44888168D01*
X187050026Y-44869448D01*
X187038044Y-44849457D01*
X187028079Y-44828387D01*
X187020227Y-44806443D01*
X187014563Y-44783834D01*
X187011144Y-44760779D01*
X187010000Y-44737500D01*
X187010000Y-44262500D01*
X187011144Y-44239221D01*
X187014563Y-44216166D01*
X187020227Y-44193557D01*
X187028079Y-44171613D01*
X187038044Y-44150543D01*
X187050026Y-44130552D01*
X187063910Y-44111832D01*
X187079562Y-44094562D01*
X187096832Y-44078910D01*
X187115552Y-44065026D01*
X187135543Y-44053044D01*
X187156613Y-44043079D01*
X187178557Y-44035227D01*
X187201166Y-44029563D01*
X187224221Y-44026144D01*
X187247500Y-44025000D01*
X187822500Y-44025000D01*
X187845779Y-44026144D01*
G37*
G36*
X189830779Y-53346144D02*
G01*
X189853834Y-53349563D01*
X189876443Y-53355227D01*
X189898387Y-53363079D01*
X189919457Y-53373044D01*
X189939448Y-53385026D01*
X189958168Y-53398910D01*
X189975438Y-53414562D01*
X189991090Y-53431832D01*
X190004974Y-53450552D01*
X190016956Y-53470543D01*
X190026921Y-53491613D01*
X190034773Y-53513557D01*
X190040437Y-53536166D01*
X190043856Y-53559221D01*
X190045000Y-53582500D01*
X190045000Y-54057500D01*
X190043856Y-54080779D01*
X190040437Y-54103834D01*
X190034773Y-54126443D01*
X190026921Y-54148387D01*
X190016956Y-54169457D01*
X190004974Y-54189448D01*
X189991090Y-54208168D01*
X189975438Y-54225438D01*
X189958168Y-54241090D01*
X189939448Y-54254974D01*
X189919457Y-54266956D01*
X189898387Y-54276921D01*
X189876443Y-54284773D01*
X189853834Y-54290437D01*
X189830779Y-54293856D01*
X189807500Y-54295000D01*
X189232500Y-54295000D01*
X189209221Y-54293856D01*
X189186166Y-54290437D01*
X189163557Y-54284773D01*
X189141613Y-54276921D01*
X189120543Y-54266956D01*
X189100552Y-54254974D01*
X189081832Y-54241090D01*
X189064562Y-54225438D01*
X189048910Y-54208168D01*
X189035026Y-54189448D01*
X189023044Y-54169457D01*
X189013079Y-54148387D01*
X189005227Y-54126443D01*
X188999563Y-54103834D01*
X188996144Y-54080779D01*
X188995000Y-54057500D01*
X188995000Y-53582500D01*
X188996144Y-53559221D01*
X188999563Y-53536166D01*
X189005227Y-53513557D01*
X189013079Y-53491613D01*
X189023044Y-53470543D01*
X189035026Y-53450552D01*
X189048910Y-53431832D01*
X189064562Y-53414562D01*
X189081832Y-53398910D01*
X189100552Y-53385026D01*
X189120543Y-53373044D01*
X189141613Y-53363079D01*
X189163557Y-53355227D01*
X189186166Y-53349563D01*
X189209221Y-53346144D01*
X189232500Y-53345000D01*
X189807500Y-53345000D01*
X189830779Y-53346144D01*
G37*
G36*
X188080779Y-53346144D02*
G01*
X188103834Y-53349563D01*
X188126443Y-53355227D01*
X188148387Y-53363079D01*
X188169457Y-53373044D01*
X188189448Y-53385026D01*
X188208168Y-53398910D01*
X188225438Y-53414562D01*
X188241090Y-53431832D01*
X188254974Y-53450552D01*
X188266956Y-53470543D01*
X188276921Y-53491613D01*
X188284773Y-53513557D01*
X188290437Y-53536166D01*
X188293856Y-53559221D01*
X188295000Y-53582500D01*
X188295000Y-54057500D01*
X188293856Y-54080779D01*
X188290437Y-54103834D01*
X188284773Y-54126443D01*
X188276921Y-54148387D01*
X188266956Y-54169457D01*
X188254974Y-54189448D01*
X188241090Y-54208168D01*
X188225438Y-54225438D01*
X188208168Y-54241090D01*
X188189448Y-54254974D01*
X188169457Y-54266956D01*
X188148387Y-54276921D01*
X188126443Y-54284773D01*
X188103834Y-54290437D01*
X188080779Y-54293856D01*
X188057500Y-54295000D01*
X187482500Y-54295000D01*
X187459221Y-54293856D01*
X187436166Y-54290437D01*
X187413557Y-54284773D01*
X187391613Y-54276921D01*
X187370543Y-54266956D01*
X187350552Y-54254974D01*
X187331832Y-54241090D01*
X187314562Y-54225438D01*
X187298910Y-54208168D01*
X187285026Y-54189448D01*
X187273044Y-54169457D01*
X187263079Y-54148387D01*
X187255227Y-54126443D01*
X187249563Y-54103834D01*
X187246144Y-54080779D01*
X187245000Y-54057500D01*
X187245000Y-53582500D01*
X187246144Y-53559221D01*
X187249563Y-53536166D01*
X187255227Y-53513557D01*
X187263079Y-53491613D01*
X187273044Y-53470543D01*
X187285026Y-53450552D01*
X187298910Y-53431832D01*
X187314562Y-53414562D01*
X187331832Y-53398910D01*
X187350552Y-53385026D01*
X187370543Y-53373044D01*
X187391613Y-53363079D01*
X187413557Y-53355227D01*
X187436166Y-53349563D01*
X187459221Y-53346144D01*
X187482500Y-53345000D01*
X188057500Y-53345000D01*
X188080779Y-53346144D01*
G37*
G36*
X190160779Y-35056144D02*
G01*
X190183834Y-35059563D01*
X190206443Y-35065227D01*
X190228387Y-35073079D01*
X190249457Y-35083044D01*
X190269448Y-35095026D01*
X190288168Y-35108910D01*
X190305438Y-35124562D01*
X190321090Y-35141832D01*
X190334974Y-35160552D01*
X190346956Y-35180543D01*
X190356921Y-35201613D01*
X190364773Y-35223557D01*
X190370437Y-35246166D01*
X190373856Y-35269221D01*
X190375000Y-35292500D01*
X190375000Y-35767500D01*
X190373856Y-35790779D01*
X190370437Y-35813834D01*
X190364773Y-35836443D01*
X190356921Y-35858387D01*
X190346956Y-35879457D01*
X190334974Y-35899448D01*
X190321090Y-35918168D01*
X190305438Y-35935438D01*
X190288168Y-35951090D01*
X190269448Y-35964974D01*
X190249457Y-35976956D01*
X190228387Y-35986921D01*
X190206443Y-35994773D01*
X190183834Y-36000437D01*
X190160779Y-36003856D01*
X190137500Y-36005000D01*
X189562500Y-36005000D01*
X189539221Y-36003856D01*
X189516166Y-36000437D01*
X189493557Y-35994773D01*
X189471613Y-35986921D01*
X189450543Y-35976956D01*
X189430552Y-35964974D01*
X189411832Y-35951090D01*
X189394562Y-35935438D01*
X189378910Y-35918168D01*
X189365026Y-35899448D01*
X189353044Y-35879457D01*
X189343079Y-35858387D01*
X189335227Y-35836443D01*
X189329563Y-35813834D01*
X189326144Y-35790779D01*
X189325000Y-35767500D01*
X189325000Y-35292500D01*
X189326144Y-35269221D01*
X189329563Y-35246166D01*
X189335227Y-35223557D01*
X189343079Y-35201613D01*
X189353044Y-35180543D01*
X189365026Y-35160552D01*
X189378910Y-35141832D01*
X189394562Y-35124562D01*
X189411832Y-35108910D01*
X189430552Y-35095026D01*
X189450543Y-35083044D01*
X189471613Y-35073079D01*
X189493557Y-35065227D01*
X189516166Y-35059563D01*
X189539221Y-35056144D01*
X189562500Y-35055000D01*
X190137500Y-35055000D01*
X190160779Y-35056144D01*
G37*
G36*
X188410779Y-35056144D02*
G01*
X188433834Y-35059563D01*
X188456443Y-35065227D01*
X188478387Y-35073079D01*
X188499457Y-35083044D01*
X188519448Y-35095026D01*
X188538168Y-35108910D01*
X188555438Y-35124562D01*
X188571090Y-35141832D01*
X188584974Y-35160552D01*
X188596956Y-35180543D01*
X188606921Y-35201613D01*
X188614773Y-35223557D01*
X188620437Y-35246166D01*
X188623856Y-35269221D01*
X188625000Y-35292500D01*
X188625000Y-35767500D01*
X188623856Y-35790779D01*
X188620437Y-35813834D01*
X188614773Y-35836443D01*
X188606921Y-35858387D01*
X188596956Y-35879457D01*
X188584974Y-35899448D01*
X188571090Y-35918168D01*
X188555438Y-35935438D01*
X188538168Y-35951090D01*
X188519448Y-35964974D01*
X188499457Y-35976956D01*
X188478387Y-35986921D01*
X188456443Y-35994773D01*
X188433834Y-36000437D01*
X188410779Y-36003856D01*
X188387500Y-36005000D01*
X187812500Y-36005000D01*
X187789221Y-36003856D01*
X187766166Y-36000437D01*
X187743557Y-35994773D01*
X187721613Y-35986921D01*
X187700543Y-35976956D01*
X187680552Y-35964974D01*
X187661832Y-35951090D01*
X187644562Y-35935438D01*
X187628910Y-35918168D01*
X187615026Y-35899448D01*
X187603044Y-35879457D01*
X187593079Y-35858387D01*
X187585227Y-35836443D01*
X187579563Y-35813834D01*
X187576144Y-35790779D01*
X187575000Y-35767500D01*
X187575000Y-35292500D01*
X187576144Y-35269221D01*
X187579563Y-35246166D01*
X187585227Y-35223557D01*
X187593079Y-35201613D01*
X187603044Y-35180543D01*
X187615026Y-35160552D01*
X187628910Y-35141832D01*
X187644562Y-35124562D01*
X187661832Y-35108910D01*
X187680552Y-35095026D01*
X187700543Y-35083044D01*
X187721613Y-35073079D01*
X187743557Y-35065227D01*
X187766166Y-35059563D01*
X187789221Y-35056144D01*
X187812500Y-35055000D01*
X188387500Y-35055000D01*
X188410779Y-35056144D01*
G37*
D12*
X194250000Y-30925000D03*
D13*
X188052200Y-28613600D03*
X188052200Y-30925000D03*
X188052200Y-33236400D03*
D12*
X194250000Y-49376142D03*
D13*
X188052200Y-47064742D03*
X188052200Y-49376142D03*
X188052200Y-51687542D03*
D12*
X194250000Y-40150571D03*
D13*
X188052200Y-37839171D03*
X188052200Y-40150571D03*
X188052200Y-42461971D03*
D12*
X194250000Y-67827284D03*
D13*
X188052200Y-65515884D03*
X188052200Y-67827284D03*
X188052200Y-70138684D03*
D12*
X194250000Y-58601713D03*
D13*
X188052200Y-56290313D03*
X188052200Y-58601713D03*
X188052200Y-60913113D03*
D12*
X194250000Y-95504000D03*
D13*
X188052200Y-93192600D03*
X188052200Y-95504000D03*
X188052200Y-97815400D03*
D12*
X194250000Y-86278426D03*
D13*
X188052200Y-83967026D03*
X188052200Y-86278426D03*
X188052200Y-88589826D03*
D12*
X194250000Y-77052855D03*
D13*
X188052200Y-74741455D03*
X188052200Y-77052855D03*
X188052200Y-79364255D03*
M02*
