G04 #@! TF.GenerationSoftware,KiCad,Pcbnew,5.1.5-52549c5~86~ubuntu18.04.1*
G04 #@! TF.CreationDate,2020-04-05T23:02:45+02:00*
G04 #@! TF.ProjectId,Speeduino_base,53706565-6475-4696-9e6f-5f626173652e,rev?*
G04 #@! TF.SameCoordinates,Original*
G04 #@! TF.FileFunction,Legend,Bot*
G04 #@! TF.FilePolarity,Positive*
%FSLAX46Y46*%
G04 Gerber Fmt 4.6, Leading zero omitted, Abs format (unit mm)*
G04 Created by KiCad (PCBNEW 5.1.5-52549c5~86~ubuntu18.04.1) date 2020-04-05 23:02:45*
%MOMM*%
%LPD*%
G04 APERTURE LIST*
%ADD10C,0.120000*%
%ADD11C,0.203200*%
%ADD12C,0.152400*%
%ADD13C,0.150000*%
%ADD14C,0.100000*%
%ADD15C,0.096520*%
%ADD16C,0.097536*%
G04 APERTURE END LIST*
D10*
X193690000Y-28105000D02*
X195150000Y-28105000D01*
X193690000Y-24945000D02*
X196850000Y-24945000D01*
X193690000Y-24945000D02*
X193690000Y-25875000D01*
X193690000Y-28105000D02*
X193690000Y-27175000D01*
X193540000Y-46330000D02*
X195000000Y-46330000D01*
X193540000Y-43170000D02*
X196700000Y-43170000D01*
X193540000Y-43170000D02*
X193540000Y-44100000D01*
X193540000Y-46330000D02*
X193540000Y-45400000D01*
X193690000Y-55405000D02*
X195150000Y-55405000D01*
X193690000Y-52245000D02*
X196850000Y-52245000D01*
X193690000Y-52245000D02*
X193690000Y-53175000D01*
X193690000Y-55405000D02*
X193690000Y-54475000D01*
X193590000Y-37080000D02*
X195050000Y-37080000D01*
X193590000Y-33920000D02*
X196750000Y-33920000D01*
X193590000Y-33920000D02*
X193590000Y-34850000D01*
X193590000Y-37080000D02*
X193590000Y-36150000D01*
X189071267Y-25540000D02*
X188728733Y-25540000D01*
X189071267Y-26560000D02*
X188728733Y-26560000D01*
X188581267Y-43990000D02*
X188238733Y-43990000D01*
X188581267Y-45010000D02*
X188238733Y-45010000D01*
X188816267Y-53310000D02*
X188473733Y-53310000D01*
X188816267Y-54330000D02*
X188473733Y-54330000D01*
X189146267Y-35020000D02*
X188803733Y-35020000D01*
X189146267Y-36040000D02*
X188803733Y-36040000D01*
D11*
X192929000Y-34201600D02*
X192929000Y-27648400D01*
X189373000Y-34201600D02*
X192929000Y-34201600D01*
X189373000Y-27648400D02*
X189373000Y-34201600D01*
X192929000Y-27648400D02*
X189373000Y-27648400D01*
X192929000Y-52652742D02*
X192929000Y-46099542D01*
X189373000Y-52652742D02*
X192929000Y-52652742D01*
X189373000Y-46099542D02*
X189373000Y-52652742D01*
X192929000Y-46099542D02*
X189373000Y-46099542D01*
X192929000Y-43427171D02*
X192929000Y-36873971D01*
X189373000Y-43427171D02*
X192929000Y-43427171D01*
X189373000Y-36873971D02*
X189373000Y-43427171D01*
X192929000Y-36873971D02*
X189373000Y-36873971D01*
D10*
X128255000Y-45450000D02*
X123055000Y-45450000D01*
X128255000Y-37770000D02*
X128255000Y-45450000D01*
X123055000Y-35170000D02*
X123055000Y-45450000D01*
X128255000Y-37770000D02*
X125655000Y-37770000D01*
X125655000Y-37770000D02*
X125655000Y-35170000D01*
X125655000Y-35170000D02*
X123055000Y-35170000D01*
X128255000Y-36500000D02*
X128255000Y-35170000D01*
X128255000Y-35170000D02*
X126925000Y-35170000D01*
D12*
X184750000Y-98405000D02*
X184750000Y-94595000D01*
X182210000Y-94595000D02*
X182845000Y-93960000D01*
X184115000Y-93960000D02*
X182845000Y-93960000D01*
X184750000Y-94595000D02*
X184115000Y-93960000D01*
X184115000Y-99040000D02*
X184750000Y-98405000D01*
X184115000Y-99040000D02*
X182845000Y-99040000D01*
X182210000Y-98405000D02*
X182845000Y-99040000D01*
X182210000Y-98405000D02*
X182210000Y-94595000D01*
X179670000Y-94595000D02*
X180305000Y-93960000D01*
X181575000Y-93960000D02*
X180305000Y-93960000D01*
X182210000Y-94595000D02*
X181575000Y-93960000D01*
X181575000Y-99040000D02*
X182210000Y-98405000D01*
X181575000Y-99040000D02*
X180305000Y-99040000D01*
X179670000Y-98405000D02*
X180305000Y-99040000D01*
X179670000Y-98405000D02*
X179670000Y-94595000D01*
X177130000Y-94595000D02*
X177765000Y-93960000D01*
X179035000Y-93960000D02*
X177765000Y-93960000D01*
X179670000Y-94595000D02*
X179035000Y-93960000D01*
X179035000Y-99040000D02*
X179670000Y-98405000D01*
X179035000Y-99040000D02*
X177765000Y-99040000D01*
X177130000Y-98405000D02*
X177765000Y-99040000D01*
X177130000Y-98405000D02*
X177130000Y-94595000D01*
X174590000Y-94595000D02*
X175225000Y-93960000D01*
X176495000Y-93960000D02*
X175225000Y-93960000D01*
X177130000Y-94595000D02*
X176495000Y-93960000D01*
X176495000Y-99040000D02*
X177130000Y-98405000D01*
X176495000Y-99040000D02*
X175225000Y-99040000D01*
X174590000Y-98405000D02*
X175225000Y-99040000D01*
X174590000Y-98405000D02*
X174590000Y-94595000D01*
X172050000Y-94595000D02*
X172685000Y-93960000D01*
X173955000Y-93960000D02*
X172685000Y-93960000D01*
X174590000Y-94595000D02*
X173955000Y-93960000D01*
X173955000Y-99040000D02*
X174590000Y-98405000D01*
X173955000Y-99040000D02*
X172685000Y-99040000D01*
X172050000Y-98405000D02*
X172685000Y-99040000D01*
X172050000Y-98405000D02*
X172050000Y-94595000D01*
X169510000Y-98405000D02*
X169510000Y-94595000D01*
X166970000Y-98405000D02*
X166970000Y-94595000D01*
X164430000Y-98405000D02*
X164430000Y-94595000D01*
X161890000Y-98405000D02*
X161890000Y-94595000D01*
X159350000Y-98405000D02*
X159350000Y-94595000D01*
X156810000Y-98405000D02*
X156810000Y-94595000D01*
X154270000Y-98405000D02*
X154270000Y-94595000D01*
X151730000Y-98405000D02*
X151730000Y-94595000D01*
X149190000Y-98405000D02*
X149190000Y-94595000D01*
X146650000Y-98405000D02*
X146650000Y-94595000D01*
X144110000Y-98405000D02*
X144110000Y-94595000D01*
X141570000Y-98405000D02*
X141570000Y-94595000D01*
X139030000Y-98405000D02*
X139030000Y-94595000D01*
X136490000Y-98405000D02*
X136490000Y-94595000D01*
X133950000Y-98405000D02*
X133950000Y-94595000D01*
X131410000Y-98405000D02*
X131410000Y-94595000D01*
X128870000Y-98405000D02*
X128870000Y-94595000D01*
X126330000Y-98405000D02*
X126330000Y-94595000D01*
X139030000Y-94595000D02*
X139665000Y-93960000D01*
X140935000Y-93960000D02*
X139665000Y-93960000D01*
X141570000Y-94595000D02*
X140935000Y-93960000D01*
X141570000Y-94595000D02*
X142205000Y-93960000D01*
X143475000Y-93960000D02*
X142205000Y-93960000D01*
X144110000Y-94595000D02*
X143475000Y-93960000D01*
X144110000Y-94595000D02*
X144745000Y-93960000D01*
X146015000Y-93960000D02*
X144745000Y-93960000D01*
X146650000Y-94595000D02*
X146015000Y-93960000D01*
X146650000Y-94595000D02*
X147285000Y-93960000D01*
X148555000Y-93960000D02*
X147285000Y-93960000D01*
X149190000Y-94595000D02*
X148555000Y-93960000D01*
X149190000Y-94595000D02*
X149825000Y-93960000D01*
X151095000Y-93960000D02*
X149825000Y-93960000D01*
X151730000Y-94595000D02*
X151095000Y-93960000D01*
X151730000Y-94595000D02*
X152365000Y-93960000D01*
X153635000Y-93960000D02*
X152365000Y-93960000D01*
X154270000Y-94595000D02*
X153635000Y-93960000D01*
X154270000Y-94595000D02*
X154905000Y-93960000D01*
X156175000Y-93960000D02*
X154905000Y-93960000D01*
X156810000Y-94595000D02*
X156175000Y-93960000D01*
X156810000Y-94595000D02*
X157445000Y-93960000D01*
X158715000Y-93960000D02*
X157445000Y-93960000D01*
X159350000Y-94595000D02*
X158715000Y-93960000D01*
X159985000Y-93960000D02*
X159350000Y-94595000D01*
X159985000Y-93960000D02*
X161255000Y-93960000D01*
X161890000Y-94595000D02*
X161255000Y-93960000D01*
X162525000Y-93960000D02*
X161890000Y-94595000D01*
X162525000Y-93960000D02*
X163795000Y-93960000D01*
X164430000Y-94595000D02*
X163795000Y-93960000D01*
X164430000Y-94595000D02*
X165065000Y-93960000D01*
X166335000Y-93960000D02*
X165065000Y-93960000D01*
X166970000Y-94595000D02*
X166335000Y-93960000D01*
X166970000Y-94595000D02*
X167605000Y-93960000D01*
X168875000Y-93960000D02*
X167605000Y-93960000D01*
X169510000Y-94595000D02*
X168875000Y-93960000D01*
X169510000Y-94595000D02*
X170145000Y-93960000D01*
X171415000Y-93960000D02*
X170145000Y-93960000D01*
X172050000Y-94595000D02*
X171415000Y-93960000D01*
X171415000Y-99040000D02*
X172050000Y-98405000D01*
X171415000Y-99040000D02*
X170145000Y-99040000D01*
X169510000Y-98405000D02*
X170145000Y-99040000D01*
X168875000Y-99040000D02*
X169510000Y-98405000D01*
X168875000Y-99040000D02*
X167605000Y-99040000D01*
X166970000Y-98405000D02*
X167605000Y-99040000D01*
X166335000Y-99040000D02*
X166970000Y-98405000D01*
X166335000Y-99040000D02*
X165065000Y-99040000D01*
X164430000Y-98405000D02*
X165065000Y-99040000D01*
X163795000Y-99040000D02*
X164430000Y-98405000D01*
X163795000Y-99040000D02*
X162525000Y-99040000D01*
X161890000Y-98405000D02*
X162525000Y-99040000D01*
X161255000Y-99040000D02*
X161890000Y-98405000D01*
X161255000Y-99040000D02*
X159985000Y-99040000D01*
X159350000Y-98405000D02*
X159985000Y-99040000D01*
X158715000Y-99040000D02*
X159350000Y-98405000D01*
X158715000Y-99040000D02*
X157445000Y-99040000D01*
X156810000Y-98405000D02*
X157445000Y-99040000D01*
X156175000Y-99040000D02*
X156810000Y-98405000D01*
X156175000Y-99040000D02*
X154905000Y-99040000D01*
X154270000Y-98405000D02*
X154905000Y-99040000D01*
X154270000Y-98405000D02*
X153635000Y-99040000D01*
X152365000Y-99040000D02*
X153635000Y-99040000D01*
X151730000Y-98405000D02*
X152365000Y-99040000D01*
X151095000Y-99040000D02*
X151730000Y-98405000D01*
X149825000Y-99040000D02*
X151095000Y-99040000D01*
X149190000Y-98405000D02*
X149825000Y-99040000D01*
X148555000Y-99040000D02*
X149190000Y-98405000D01*
X147285000Y-99040000D02*
X148555000Y-99040000D01*
X146650000Y-98405000D02*
X147285000Y-99040000D01*
X146015000Y-99040000D02*
X146650000Y-98405000D01*
X144745000Y-99040000D02*
X146015000Y-99040000D01*
X144110000Y-98405000D02*
X144745000Y-99040000D01*
X143475000Y-99040000D02*
X144110000Y-98405000D01*
X142205000Y-99040000D02*
X143475000Y-99040000D01*
X141570000Y-98405000D02*
X142205000Y-99040000D01*
X140935000Y-99040000D02*
X141570000Y-98405000D01*
X139665000Y-99040000D02*
X140935000Y-99040000D01*
X139030000Y-98405000D02*
X139665000Y-99040000D01*
X138395000Y-99040000D02*
X139030000Y-98405000D01*
X137125000Y-99040000D02*
X138395000Y-99040000D01*
X136490000Y-98405000D02*
X137125000Y-99040000D01*
X135855000Y-99040000D02*
X136490000Y-98405000D01*
X134585000Y-99040000D02*
X135855000Y-99040000D01*
X133950000Y-98405000D02*
X134585000Y-99040000D01*
X133315000Y-99040000D02*
X133950000Y-98405000D01*
X132045000Y-99040000D02*
X133315000Y-99040000D01*
X131410000Y-98405000D02*
X132045000Y-99040000D01*
X130775000Y-99040000D02*
X131410000Y-98405000D01*
X129505000Y-99040000D02*
X130775000Y-99040000D01*
X128870000Y-98405000D02*
X129505000Y-99040000D01*
X128235000Y-99040000D02*
X128870000Y-98405000D01*
X126965000Y-99040000D02*
X128235000Y-99040000D01*
X126330000Y-98405000D02*
X126965000Y-99040000D01*
X125695000Y-99040000D02*
X126330000Y-98405000D01*
X124425000Y-99040000D02*
X125695000Y-99040000D01*
X123790000Y-98405000D02*
X124425000Y-99040000D01*
X123790000Y-94595000D02*
X123790000Y-98405000D01*
X138395000Y-93960000D02*
X139030000Y-94595000D01*
X137125000Y-93960000D02*
X138395000Y-93960000D01*
X136490000Y-94595000D02*
X137125000Y-93960000D01*
X135855000Y-93960000D02*
X136490000Y-94595000D01*
X134585000Y-93960000D02*
X135855000Y-93960000D01*
X133950000Y-94595000D02*
X134585000Y-93960000D01*
X133315000Y-93960000D02*
X133950000Y-94595000D01*
X132045000Y-93960000D02*
X133315000Y-93960000D01*
X131410000Y-94595000D02*
X132045000Y-93960000D01*
X130775000Y-93960000D02*
X131410000Y-94595000D01*
X129505000Y-93960000D02*
X130775000Y-93960000D01*
X128870000Y-94595000D02*
X129505000Y-93960000D01*
X128235000Y-93960000D02*
X128870000Y-94595000D01*
X126965000Y-93960000D02*
X128235000Y-93960000D01*
X126330000Y-94595000D02*
X126965000Y-93960000D01*
X125695000Y-93960000D02*
X126330000Y-94595000D01*
X124425000Y-93960000D02*
X125695000Y-93960000D01*
X123790000Y-94595000D02*
X124425000Y-93960000D01*
D11*
X192929000Y-71103884D02*
X192929000Y-64550684D01*
X189373000Y-71103884D02*
X192929000Y-71103884D01*
X189373000Y-64550684D02*
X189373000Y-71103884D01*
X192929000Y-64550684D02*
X189373000Y-64550684D01*
X192929000Y-61878313D02*
X192929000Y-55325113D01*
X189373000Y-61878313D02*
X192929000Y-61878313D01*
X189373000Y-55325113D02*
X189373000Y-61878313D01*
X192929000Y-55325113D02*
X189373000Y-55325113D01*
X192929000Y-98780600D02*
X192929000Y-92227400D01*
X189373000Y-98780600D02*
X192929000Y-98780600D01*
X189373000Y-92227400D02*
X189373000Y-98780600D01*
X192929000Y-92227400D02*
X189373000Y-92227400D01*
X192929000Y-89555026D02*
X192929000Y-83001826D01*
X189373000Y-89555026D02*
X192929000Y-89555026D01*
X189373000Y-83001826D02*
X189373000Y-89555026D01*
X192929000Y-83001826D02*
X189373000Y-83001826D01*
X192929000Y-80329455D02*
X192929000Y-73776255D01*
X189373000Y-80329455D02*
X192929000Y-80329455D01*
X189373000Y-73776255D02*
X189373000Y-80329455D01*
X192929000Y-73776255D02*
X189373000Y-73776255D01*
D12*
X184750000Y-31905000D02*
X184750000Y-28095000D01*
X182210000Y-28095000D02*
X182845000Y-27460000D01*
X184115000Y-27460000D02*
X182845000Y-27460000D01*
X184750000Y-28095000D02*
X184115000Y-27460000D01*
X184115000Y-32540000D02*
X184750000Y-31905000D01*
X184115000Y-32540000D02*
X182845000Y-32540000D01*
X182210000Y-31905000D02*
X182845000Y-32540000D01*
X182210000Y-31905000D02*
X182210000Y-28095000D01*
X179670000Y-28095000D02*
X180305000Y-27460000D01*
X181575000Y-27460000D02*
X180305000Y-27460000D01*
X182210000Y-28095000D02*
X181575000Y-27460000D01*
X181575000Y-32540000D02*
X182210000Y-31905000D01*
X181575000Y-32540000D02*
X180305000Y-32540000D01*
X179670000Y-31905000D02*
X180305000Y-32540000D01*
X179670000Y-31905000D02*
X179670000Y-28095000D01*
X177130000Y-28095000D02*
X177765000Y-27460000D01*
X179035000Y-27460000D02*
X177765000Y-27460000D01*
X179670000Y-28095000D02*
X179035000Y-27460000D01*
X179035000Y-32540000D02*
X179670000Y-31905000D01*
X179035000Y-32540000D02*
X177765000Y-32540000D01*
X177130000Y-31905000D02*
X177765000Y-32540000D01*
X177130000Y-31905000D02*
X177130000Y-28095000D01*
X174590000Y-28095000D02*
X175225000Y-27460000D01*
X176495000Y-27460000D02*
X175225000Y-27460000D01*
X177130000Y-28095000D02*
X176495000Y-27460000D01*
X176495000Y-32540000D02*
X177130000Y-31905000D01*
X176495000Y-32540000D02*
X175225000Y-32540000D01*
X174590000Y-31905000D02*
X175225000Y-32540000D01*
X174590000Y-31905000D02*
X174590000Y-28095000D01*
X172050000Y-28095000D02*
X172685000Y-27460000D01*
X173955000Y-27460000D02*
X172685000Y-27460000D01*
X174590000Y-28095000D02*
X173955000Y-27460000D01*
X173955000Y-32540000D02*
X174590000Y-31905000D01*
X173955000Y-32540000D02*
X172685000Y-32540000D01*
X172050000Y-31905000D02*
X172685000Y-32540000D01*
X172050000Y-31905000D02*
X172050000Y-28095000D01*
X169510000Y-31905000D02*
X169510000Y-28095000D01*
X166970000Y-31905000D02*
X166970000Y-28095000D01*
X164430000Y-31905000D02*
X164430000Y-28095000D01*
X161890000Y-31905000D02*
X161890000Y-28095000D01*
X159350000Y-31905000D02*
X159350000Y-28095000D01*
X156810000Y-31905000D02*
X156810000Y-28095000D01*
X154270000Y-31905000D02*
X154270000Y-28095000D01*
X151730000Y-31905000D02*
X151730000Y-28095000D01*
X149190000Y-31905000D02*
X149190000Y-28095000D01*
X146650000Y-31905000D02*
X146650000Y-28095000D01*
X144110000Y-31905000D02*
X144110000Y-28095000D01*
X141570000Y-31905000D02*
X141570000Y-28095000D01*
X139030000Y-31905000D02*
X139030000Y-28095000D01*
X136490000Y-31905000D02*
X136490000Y-28095000D01*
X133950000Y-31905000D02*
X133950000Y-28095000D01*
X131410000Y-31905000D02*
X131410000Y-28095000D01*
X128870000Y-31905000D02*
X128870000Y-28095000D01*
X126330000Y-31905000D02*
X126330000Y-28095000D01*
X139030000Y-28095000D02*
X139665000Y-27460000D01*
X140935000Y-27460000D02*
X139665000Y-27460000D01*
X141570000Y-28095000D02*
X140935000Y-27460000D01*
X141570000Y-28095000D02*
X142205000Y-27460000D01*
X143475000Y-27460000D02*
X142205000Y-27460000D01*
X144110000Y-28095000D02*
X143475000Y-27460000D01*
X144110000Y-28095000D02*
X144745000Y-27460000D01*
X146015000Y-27460000D02*
X144745000Y-27460000D01*
X146650000Y-28095000D02*
X146015000Y-27460000D01*
X146650000Y-28095000D02*
X147285000Y-27460000D01*
X148555000Y-27460000D02*
X147285000Y-27460000D01*
X149190000Y-28095000D02*
X148555000Y-27460000D01*
X149190000Y-28095000D02*
X149825000Y-27460000D01*
X151095000Y-27460000D02*
X149825000Y-27460000D01*
X151730000Y-28095000D02*
X151095000Y-27460000D01*
X151730000Y-28095000D02*
X152365000Y-27460000D01*
X153635000Y-27460000D02*
X152365000Y-27460000D01*
X154270000Y-28095000D02*
X153635000Y-27460000D01*
X154270000Y-28095000D02*
X154905000Y-27460000D01*
X156175000Y-27460000D02*
X154905000Y-27460000D01*
X156810000Y-28095000D02*
X156175000Y-27460000D01*
X156810000Y-28095000D02*
X157445000Y-27460000D01*
X158715000Y-27460000D02*
X157445000Y-27460000D01*
X159350000Y-28095000D02*
X158715000Y-27460000D01*
X159985000Y-27460000D02*
X159350000Y-28095000D01*
X159985000Y-27460000D02*
X161255000Y-27460000D01*
X161890000Y-28095000D02*
X161255000Y-27460000D01*
X162525000Y-27460000D02*
X161890000Y-28095000D01*
X162525000Y-27460000D02*
X163795000Y-27460000D01*
X164430000Y-28095000D02*
X163795000Y-27460000D01*
X164430000Y-28095000D02*
X165065000Y-27460000D01*
X166335000Y-27460000D02*
X165065000Y-27460000D01*
X166970000Y-28095000D02*
X166335000Y-27460000D01*
X166970000Y-28095000D02*
X167605000Y-27460000D01*
X168875000Y-27460000D02*
X167605000Y-27460000D01*
X169510000Y-28095000D02*
X168875000Y-27460000D01*
X169510000Y-28095000D02*
X170145000Y-27460000D01*
X171415000Y-27460000D02*
X170145000Y-27460000D01*
X172050000Y-28095000D02*
X171415000Y-27460000D01*
X171415000Y-32540000D02*
X172050000Y-31905000D01*
X171415000Y-32540000D02*
X170145000Y-32540000D01*
X169510000Y-31905000D02*
X170145000Y-32540000D01*
X168875000Y-32540000D02*
X169510000Y-31905000D01*
X168875000Y-32540000D02*
X167605000Y-32540000D01*
X166970000Y-31905000D02*
X167605000Y-32540000D01*
X166335000Y-32540000D02*
X166970000Y-31905000D01*
X166335000Y-32540000D02*
X165065000Y-32540000D01*
X164430000Y-31905000D02*
X165065000Y-32540000D01*
X163795000Y-32540000D02*
X164430000Y-31905000D01*
X163795000Y-32540000D02*
X162525000Y-32540000D01*
X161890000Y-31905000D02*
X162525000Y-32540000D01*
X161255000Y-32540000D02*
X161890000Y-31905000D01*
X161255000Y-32540000D02*
X159985000Y-32540000D01*
X159350000Y-31905000D02*
X159985000Y-32540000D01*
X158715000Y-32540000D02*
X159350000Y-31905000D01*
X158715000Y-32540000D02*
X157445000Y-32540000D01*
X156810000Y-31905000D02*
X157445000Y-32540000D01*
X156175000Y-32540000D02*
X156810000Y-31905000D01*
X156175000Y-32540000D02*
X154905000Y-32540000D01*
X154270000Y-31905000D02*
X154905000Y-32540000D01*
X154270000Y-31905000D02*
X153635000Y-32540000D01*
X152365000Y-32540000D02*
X153635000Y-32540000D01*
X151730000Y-31905000D02*
X152365000Y-32540000D01*
X151095000Y-32540000D02*
X151730000Y-31905000D01*
X149825000Y-32540000D02*
X151095000Y-32540000D01*
X149190000Y-31905000D02*
X149825000Y-32540000D01*
X148555000Y-32540000D02*
X149190000Y-31905000D01*
X147285000Y-32540000D02*
X148555000Y-32540000D01*
X146650000Y-31905000D02*
X147285000Y-32540000D01*
X146015000Y-32540000D02*
X146650000Y-31905000D01*
X144745000Y-32540000D02*
X146015000Y-32540000D01*
X144110000Y-31905000D02*
X144745000Y-32540000D01*
X143475000Y-32540000D02*
X144110000Y-31905000D01*
X142205000Y-32540000D02*
X143475000Y-32540000D01*
X141570000Y-31905000D02*
X142205000Y-32540000D01*
X140935000Y-32540000D02*
X141570000Y-31905000D01*
X139665000Y-32540000D02*
X140935000Y-32540000D01*
X139030000Y-31905000D02*
X139665000Y-32540000D01*
X138395000Y-32540000D02*
X139030000Y-31905000D01*
X137125000Y-32540000D02*
X138395000Y-32540000D01*
X136490000Y-31905000D02*
X137125000Y-32540000D01*
X135855000Y-32540000D02*
X136490000Y-31905000D01*
X134585000Y-32540000D02*
X135855000Y-32540000D01*
X133950000Y-31905000D02*
X134585000Y-32540000D01*
X133315000Y-32540000D02*
X133950000Y-31905000D01*
X132045000Y-32540000D02*
X133315000Y-32540000D01*
X131410000Y-31905000D02*
X132045000Y-32540000D01*
X130775000Y-32540000D02*
X131410000Y-31905000D01*
X129505000Y-32540000D02*
X130775000Y-32540000D01*
X128870000Y-31905000D02*
X129505000Y-32540000D01*
X128235000Y-32540000D02*
X128870000Y-31905000D01*
X126965000Y-32540000D02*
X128235000Y-32540000D01*
X126330000Y-31905000D02*
X126965000Y-32540000D01*
X125695000Y-32540000D02*
X126330000Y-31905000D01*
X124425000Y-32540000D02*
X125695000Y-32540000D01*
X123790000Y-31905000D02*
X124425000Y-32540000D01*
X123790000Y-28095000D02*
X123790000Y-31905000D01*
X138395000Y-27460000D02*
X139030000Y-28095000D01*
X137125000Y-27460000D02*
X138395000Y-27460000D01*
X136490000Y-28095000D02*
X137125000Y-27460000D01*
X135855000Y-27460000D02*
X136490000Y-28095000D01*
X134585000Y-27460000D02*
X135855000Y-27460000D01*
X133950000Y-28095000D02*
X134585000Y-27460000D01*
X133315000Y-27460000D02*
X133950000Y-28095000D01*
X132045000Y-27460000D02*
X133315000Y-27460000D01*
X131410000Y-28095000D02*
X132045000Y-27460000D01*
X130775000Y-27460000D02*
X131410000Y-28095000D01*
X129505000Y-27460000D02*
X130775000Y-27460000D01*
X128870000Y-28095000D02*
X129505000Y-27460000D01*
X128235000Y-27460000D02*
X128870000Y-28095000D01*
X126965000Y-27460000D02*
X128235000Y-27460000D01*
X126330000Y-28095000D02*
X126965000Y-27460000D01*
X125695000Y-27460000D02*
X126330000Y-28095000D01*
X124425000Y-27460000D02*
X125695000Y-27460000D01*
X123790000Y-28095000D02*
X124425000Y-27460000D01*
D13*
X195021428Y-24572619D02*
X195116666Y-24525000D01*
X195211904Y-24429761D01*
X195354761Y-24286904D01*
X195450000Y-24239285D01*
X195545238Y-24239285D01*
X195497619Y-24477380D02*
X195592857Y-24429761D01*
X195688095Y-24334523D01*
X195735714Y-24144047D01*
X195735714Y-23810714D01*
X195688095Y-23620238D01*
X195592857Y-23525000D01*
X195497619Y-23477380D01*
X195307142Y-23477380D01*
X195211904Y-23525000D01*
X195116666Y-23620238D01*
X195069047Y-23810714D01*
X195069047Y-24144047D01*
X195116666Y-24334523D01*
X195211904Y-24429761D01*
X195307142Y-24477380D01*
X195497619Y-24477380D01*
X194688095Y-23572619D02*
X194640476Y-23525000D01*
X194545238Y-23477380D01*
X194307142Y-23477380D01*
X194211904Y-23525000D01*
X194164285Y-23572619D01*
X194116666Y-23667857D01*
X194116666Y-23763095D01*
X194164285Y-23905952D01*
X194735714Y-24477380D01*
X194116666Y-24477380D01*
X193259523Y-23810714D02*
X193259523Y-24477380D01*
X193497619Y-23429761D02*
X193735714Y-24144047D01*
X193116666Y-24144047D01*
X194871428Y-42797619D02*
X194966666Y-42750000D01*
X195061904Y-42654761D01*
X195204761Y-42511904D01*
X195300000Y-42464285D01*
X195395238Y-42464285D01*
X195347619Y-42702380D02*
X195442857Y-42654761D01*
X195538095Y-42559523D01*
X195585714Y-42369047D01*
X195585714Y-42035714D01*
X195538095Y-41845238D01*
X195442857Y-41750000D01*
X195347619Y-41702380D01*
X195157142Y-41702380D01*
X195061904Y-41750000D01*
X194966666Y-41845238D01*
X194919047Y-42035714D01*
X194919047Y-42369047D01*
X194966666Y-42559523D01*
X195061904Y-42654761D01*
X195157142Y-42702380D01*
X195347619Y-42702380D01*
X194538095Y-41797619D02*
X194490476Y-41750000D01*
X194395238Y-41702380D01*
X194157142Y-41702380D01*
X194061904Y-41750000D01*
X194014285Y-41797619D01*
X193966666Y-41892857D01*
X193966666Y-41988095D01*
X194014285Y-42130952D01*
X194585714Y-42702380D01*
X193966666Y-42702380D01*
X193633333Y-41702380D02*
X193014285Y-41702380D01*
X193347619Y-42083333D01*
X193204761Y-42083333D01*
X193109523Y-42130952D01*
X193061904Y-42178571D01*
X193014285Y-42273809D01*
X193014285Y-42511904D01*
X193061904Y-42607142D01*
X193109523Y-42654761D01*
X193204761Y-42702380D01*
X193490476Y-42702380D01*
X193585714Y-42654761D01*
X193633333Y-42607142D01*
X195021428Y-51872619D02*
X195116666Y-51825000D01*
X195211904Y-51729761D01*
X195354761Y-51586904D01*
X195450000Y-51539285D01*
X195545238Y-51539285D01*
X195497619Y-51777380D02*
X195592857Y-51729761D01*
X195688095Y-51634523D01*
X195735714Y-51444047D01*
X195735714Y-51110714D01*
X195688095Y-50920238D01*
X195592857Y-50825000D01*
X195497619Y-50777380D01*
X195307142Y-50777380D01*
X195211904Y-50825000D01*
X195116666Y-50920238D01*
X195069047Y-51110714D01*
X195069047Y-51444047D01*
X195116666Y-51634523D01*
X195211904Y-51729761D01*
X195307142Y-51777380D01*
X195497619Y-51777380D01*
X194688095Y-50872619D02*
X194640476Y-50825000D01*
X194545238Y-50777380D01*
X194307142Y-50777380D01*
X194211904Y-50825000D01*
X194164285Y-50872619D01*
X194116666Y-50967857D01*
X194116666Y-51063095D01*
X194164285Y-51205952D01*
X194735714Y-51777380D01*
X194116666Y-51777380D01*
X193497619Y-50777380D02*
X193402380Y-50777380D01*
X193307142Y-50825000D01*
X193259523Y-50872619D01*
X193211904Y-50967857D01*
X193164285Y-51158333D01*
X193164285Y-51396428D01*
X193211904Y-51586904D01*
X193259523Y-51682142D01*
X193307142Y-51729761D01*
X193402380Y-51777380D01*
X193497619Y-51777380D01*
X193592857Y-51729761D01*
X193640476Y-51682142D01*
X193688095Y-51586904D01*
X193735714Y-51396428D01*
X193735714Y-51158333D01*
X193688095Y-50967857D01*
X193640476Y-50872619D01*
X193592857Y-50825000D01*
X193497619Y-50777380D01*
X194921428Y-33547619D02*
X195016666Y-33500000D01*
X195111904Y-33404761D01*
X195254761Y-33261904D01*
X195350000Y-33214285D01*
X195445238Y-33214285D01*
X195397619Y-33452380D02*
X195492857Y-33404761D01*
X195588095Y-33309523D01*
X195635714Y-33119047D01*
X195635714Y-32785714D01*
X195588095Y-32595238D01*
X195492857Y-32500000D01*
X195397619Y-32452380D01*
X195207142Y-32452380D01*
X195111904Y-32500000D01*
X195016666Y-32595238D01*
X194969047Y-32785714D01*
X194969047Y-33119047D01*
X195016666Y-33309523D01*
X195111904Y-33404761D01*
X195207142Y-33452380D01*
X195397619Y-33452380D01*
X194016666Y-33452380D02*
X194588095Y-33452380D01*
X194302380Y-33452380D02*
X194302380Y-32452380D01*
X194397619Y-32595238D01*
X194492857Y-32690476D01*
X194588095Y-32738095D01*
X193683333Y-32452380D02*
X193016666Y-32452380D01*
X193445238Y-33452380D01*
D14*
X189439285Y-27436904D02*
X189705952Y-27055952D01*
X189896428Y-27436904D02*
X189896428Y-26636904D01*
X189591666Y-26636904D01*
X189515476Y-26675000D01*
X189477380Y-26713095D01*
X189439285Y-26789285D01*
X189439285Y-26903571D01*
X189477380Y-26979761D01*
X189515476Y-27017857D01*
X189591666Y-27055952D01*
X189896428Y-27055952D01*
X189058333Y-27436904D02*
X188905952Y-27436904D01*
X188829761Y-27398809D01*
X188791666Y-27360714D01*
X188715476Y-27246428D01*
X188677380Y-27094047D01*
X188677380Y-26789285D01*
X188715476Y-26713095D01*
X188753571Y-26675000D01*
X188829761Y-26636904D01*
X188982142Y-26636904D01*
X189058333Y-26675000D01*
X189096428Y-26713095D01*
X189134523Y-26789285D01*
X189134523Y-26979761D01*
X189096428Y-27055952D01*
X189058333Y-27094047D01*
X188982142Y-27132142D01*
X188829761Y-27132142D01*
X188753571Y-27094047D01*
X188715476Y-27055952D01*
X188677380Y-26979761D01*
X188410714Y-26636904D02*
X187915476Y-26636904D01*
X188182142Y-26941666D01*
X188067857Y-26941666D01*
X187991666Y-26979761D01*
X187953571Y-27017857D01*
X187915476Y-27094047D01*
X187915476Y-27284523D01*
X187953571Y-27360714D01*
X187991666Y-27398809D01*
X188067857Y-27436904D01*
X188296428Y-27436904D01*
X188372619Y-27398809D01*
X188410714Y-27360714D01*
X188999285Y-45936904D02*
X189265952Y-45555952D01*
X189456428Y-45936904D02*
X189456428Y-45136904D01*
X189151666Y-45136904D01*
X189075476Y-45175000D01*
X189037380Y-45213095D01*
X188999285Y-45289285D01*
X188999285Y-45403571D01*
X189037380Y-45479761D01*
X189075476Y-45517857D01*
X189151666Y-45555952D01*
X189456428Y-45555952D01*
X188618333Y-45936904D02*
X188465952Y-45936904D01*
X188389761Y-45898809D01*
X188351666Y-45860714D01*
X188275476Y-45746428D01*
X188237380Y-45594047D01*
X188237380Y-45289285D01*
X188275476Y-45213095D01*
X188313571Y-45175000D01*
X188389761Y-45136904D01*
X188542142Y-45136904D01*
X188618333Y-45175000D01*
X188656428Y-45213095D01*
X188694523Y-45289285D01*
X188694523Y-45479761D01*
X188656428Y-45555952D01*
X188618333Y-45594047D01*
X188542142Y-45632142D01*
X188389761Y-45632142D01*
X188313571Y-45594047D01*
X188275476Y-45555952D01*
X188237380Y-45479761D01*
X187475476Y-45936904D02*
X187932619Y-45936904D01*
X187704047Y-45936904D02*
X187704047Y-45136904D01*
X187780238Y-45251190D01*
X187856428Y-45327380D01*
X187932619Y-45365476D01*
X189109285Y-55231904D02*
X189375952Y-54850952D01*
X189566428Y-55231904D02*
X189566428Y-54431904D01*
X189261666Y-54431904D01*
X189185476Y-54470000D01*
X189147380Y-54508095D01*
X189109285Y-54584285D01*
X189109285Y-54698571D01*
X189147380Y-54774761D01*
X189185476Y-54812857D01*
X189261666Y-54850952D01*
X189566428Y-54850952D01*
X188652142Y-54774761D02*
X188728333Y-54736666D01*
X188766428Y-54698571D01*
X188804523Y-54622380D01*
X188804523Y-54584285D01*
X188766428Y-54508095D01*
X188728333Y-54470000D01*
X188652142Y-54431904D01*
X188499761Y-54431904D01*
X188423571Y-54470000D01*
X188385476Y-54508095D01*
X188347380Y-54584285D01*
X188347380Y-54622380D01*
X188385476Y-54698571D01*
X188423571Y-54736666D01*
X188499761Y-54774761D01*
X188652142Y-54774761D01*
X188728333Y-54812857D01*
X188766428Y-54850952D01*
X188804523Y-54927142D01*
X188804523Y-55079523D01*
X188766428Y-55155714D01*
X188728333Y-55193809D01*
X188652142Y-55231904D01*
X188499761Y-55231904D01*
X188423571Y-55193809D01*
X188385476Y-55155714D01*
X188347380Y-55079523D01*
X188347380Y-54927142D01*
X188385476Y-54850952D01*
X188423571Y-54812857D01*
X188499761Y-54774761D01*
X187661666Y-54431904D02*
X187814047Y-54431904D01*
X187890238Y-54470000D01*
X187928333Y-54508095D01*
X188004523Y-54622380D01*
X188042619Y-54774761D01*
X188042619Y-55079523D01*
X188004523Y-55155714D01*
X187966428Y-55193809D01*
X187890238Y-55231904D01*
X187737857Y-55231904D01*
X187661666Y-55193809D01*
X187623571Y-55155714D01*
X187585476Y-55079523D01*
X187585476Y-54889047D01*
X187623571Y-54812857D01*
X187661666Y-54774761D01*
X187737857Y-54736666D01*
X187890238Y-54736666D01*
X187966428Y-54774761D01*
X188004523Y-54812857D01*
X188042619Y-54889047D01*
X189564285Y-36891904D02*
X189830952Y-36510952D01*
X190021428Y-36891904D02*
X190021428Y-36091904D01*
X189716666Y-36091904D01*
X189640476Y-36130000D01*
X189602380Y-36168095D01*
X189564285Y-36244285D01*
X189564285Y-36358571D01*
X189602380Y-36434761D01*
X189640476Y-36472857D01*
X189716666Y-36510952D01*
X190021428Y-36510952D01*
X189107142Y-36434761D02*
X189183333Y-36396666D01*
X189221428Y-36358571D01*
X189259523Y-36282380D01*
X189259523Y-36244285D01*
X189221428Y-36168095D01*
X189183333Y-36130000D01*
X189107142Y-36091904D01*
X188954761Y-36091904D01*
X188878571Y-36130000D01*
X188840476Y-36168095D01*
X188802380Y-36244285D01*
X188802380Y-36282380D01*
X188840476Y-36358571D01*
X188878571Y-36396666D01*
X188954761Y-36434761D01*
X189107142Y-36434761D01*
X189183333Y-36472857D01*
X189221428Y-36510952D01*
X189259523Y-36587142D01*
X189259523Y-36739523D01*
X189221428Y-36815714D01*
X189183333Y-36853809D01*
X189107142Y-36891904D01*
X188954761Y-36891904D01*
X188878571Y-36853809D01*
X188840476Y-36815714D01*
X188802380Y-36739523D01*
X188802380Y-36587142D01*
X188840476Y-36510952D01*
X188878571Y-36472857D01*
X188954761Y-36434761D01*
X188040476Y-36891904D02*
X188497619Y-36891904D01*
X188269047Y-36891904D02*
X188269047Y-36091904D01*
X188345238Y-36206190D01*
X188421428Y-36282380D01*
X188497619Y-36320476D01*
D15*
X191259252Y-30931809D02*
X191201800Y-30816904D01*
X191086895Y-30702000D01*
X190914538Y-30529642D01*
X190857085Y-30414738D01*
X190857085Y-30299833D01*
X191144347Y-30357285D02*
X191086895Y-30242381D01*
X190971990Y-30127476D01*
X190742180Y-30070023D01*
X190340014Y-30070023D01*
X190110204Y-30127476D01*
X189995300Y-30242381D01*
X189937847Y-30357285D01*
X189937847Y-30587095D01*
X189995300Y-30702000D01*
X190110204Y-30816904D01*
X190340014Y-30874357D01*
X190742180Y-30874357D01*
X190971990Y-30816904D01*
X191086895Y-30702000D01*
X191144347Y-30587095D01*
X191144347Y-30357285D01*
X190052752Y-31333976D02*
X189995300Y-31391428D01*
X189937847Y-31506333D01*
X189937847Y-31793595D01*
X189995300Y-31908500D01*
X190052752Y-31965952D01*
X190167657Y-32023404D01*
X190282561Y-32023404D01*
X190454919Y-31965952D01*
X191144347Y-31276523D01*
X191144347Y-32023404D01*
X189937847Y-33057547D02*
X189937847Y-32827738D01*
X189995300Y-32712833D01*
X190052752Y-32655381D01*
X190225109Y-32540476D01*
X190454919Y-32483023D01*
X190914538Y-32483023D01*
X191029442Y-32540476D01*
X191086895Y-32597928D01*
X191144347Y-32712833D01*
X191144347Y-32942642D01*
X191086895Y-33057547D01*
X191029442Y-33115000D01*
X190914538Y-33172452D01*
X190627276Y-33172452D01*
X190512371Y-33115000D01*
X190454919Y-33057547D01*
X190397466Y-32942642D01*
X190397466Y-32712833D01*
X190454919Y-32597928D01*
X190512371Y-32540476D01*
X190627276Y-32483023D01*
D16*
X186088209Y-31563889D02*
X186051440Y-31600658D01*
X186014670Y-31674197D01*
X186014670Y-31858045D01*
X186051440Y-31931584D01*
X186088209Y-31968353D01*
X186161748Y-32005123D01*
X186235287Y-32005123D01*
X186345596Y-31968353D01*
X186786830Y-31527119D01*
X186786830Y-32005123D01*
X186796230Y-34167123D02*
X186796230Y-33725889D01*
X186796230Y-33946506D02*
X186024070Y-33946506D01*
X186134379Y-33872967D01*
X186207918Y-33799428D01*
X186244687Y-33725889D01*
X193139457Y-28735984D02*
X193654230Y-28735984D01*
X192845300Y-28552136D02*
X193396843Y-28368289D01*
X193396843Y-28846293D01*
X186024070Y-29215719D02*
X186024070Y-29693723D01*
X186318226Y-29436336D01*
X186318226Y-29546645D01*
X186354996Y-29620184D01*
X186391765Y-29656953D01*
X186465304Y-29693723D01*
X186649152Y-29693723D01*
X186722691Y-29656953D01*
X186759460Y-29620184D01*
X186796230Y-29546645D01*
X186796230Y-29326028D01*
X186759460Y-29252489D01*
X186722691Y-29215719D01*
D15*
X191259252Y-49382951D02*
X191201800Y-49268046D01*
X191086895Y-49153142D01*
X190914538Y-48980784D01*
X190857085Y-48865880D01*
X190857085Y-48750975D01*
X191144347Y-48808427D02*
X191086895Y-48693523D01*
X190971990Y-48578618D01*
X190742180Y-48521165D01*
X190340014Y-48521165D01*
X190110204Y-48578618D01*
X189995300Y-48693523D01*
X189937847Y-48808427D01*
X189937847Y-49038237D01*
X189995300Y-49153142D01*
X190110204Y-49268046D01*
X190340014Y-49325499D01*
X190742180Y-49325499D01*
X190971990Y-49268046D01*
X191086895Y-49153142D01*
X191144347Y-49038237D01*
X191144347Y-48808427D01*
X190052752Y-49785118D02*
X189995300Y-49842570D01*
X189937847Y-49957475D01*
X189937847Y-50244737D01*
X189995300Y-50359642D01*
X190052752Y-50417094D01*
X190167657Y-50474546D01*
X190282561Y-50474546D01*
X190454919Y-50417094D01*
X191144347Y-49727665D01*
X191144347Y-50474546D01*
X189937847Y-51566142D02*
X189937847Y-50991618D01*
X190512371Y-50934165D01*
X190454919Y-50991618D01*
X190397466Y-51106523D01*
X190397466Y-51393784D01*
X190454919Y-51508689D01*
X190512371Y-51566142D01*
X190627276Y-51623594D01*
X190914538Y-51623594D01*
X191029442Y-51566142D01*
X191086895Y-51508689D01*
X191144347Y-51393784D01*
X191144347Y-51106523D01*
X191086895Y-50991618D01*
X191029442Y-50934165D01*
D16*
X186088209Y-50015031D02*
X186051440Y-50051800D01*
X186014670Y-50125339D01*
X186014670Y-50309187D01*
X186051440Y-50382726D01*
X186088209Y-50419495D01*
X186161748Y-50456265D01*
X186235287Y-50456265D01*
X186345596Y-50419495D01*
X186786830Y-49978261D01*
X186786830Y-50456265D01*
X186796230Y-52618265D02*
X186796230Y-52177031D01*
X186796230Y-52397648D02*
X186024070Y-52397648D01*
X186134379Y-52324109D01*
X186207918Y-52250570D01*
X186244687Y-52177031D01*
X193139457Y-47187126D02*
X193654230Y-47187126D01*
X192845300Y-47003278D02*
X193396843Y-46819431D01*
X193396843Y-47297435D01*
X186024070Y-47666861D02*
X186024070Y-48144865D01*
X186318226Y-47887478D01*
X186318226Y-47997787D01*
X186354996Y-48071326D01*
X186391765Y-48108095D01*
X186465304Y-48144865D01*
X186649152Y-48144865D01*
X186722691Y-48108095D01*
X186759460Y-48071326D01*
X186796230Y-47997787D01*
X186796230Y-47777170D01*
X186759460Y-47703631D01*
X186722691Y-47666861D01*
D15*
X191259252Y-40157380D02*
X191201800Y-40042475D01*
X191086895Y-39927571D01*
X190914538Y-39755213D01*
X190857085Y-39640309D01*
X190857085Y-39525404D01*
X191144347Y-39582856D02*
X191086895Y-39467952D01*
X190971990Y-39353047D01*
X190742180Y-39295594D01*
X190340014Y-39295594D01*
X190110204Y-39353047D01*
X189995300Y-39467952D01*
X189937847Y-39582856D01*
X189937847Y-39812666D01*
X189995300Y-39927571D01*
X190110204Y-40042475D01*
X190340014Y-40099928D01*
X190742180Y-40099928D01*
X190971990Y-40042475D01*
X191086895Y-39927571D01*
X191144347Y-39812666D01*
X191144347Y-39582856D01*
X191144347Y-41248975D02*
X191144347Y-40559547D01*
X191144347Y-40904261D02*
X189937847Y-40904261D01*
X190110204Y-40789356D01*
X190225109Y-40674452D01*
X190282561Y-40559547D01*
X190454919Y-41938404D02*
X190397466Y-41823499D01*
X190340014Y-41766047D01*
X190225109Y-41708594D01*
X190167657Y-41708594D01*
X190052752Y-41766047D01*
X189995300Y-41823499D01*
X189937847Y-41938404D01*
X189937847Y-42168213D01*
X189995300Y-42283118D01*
X190052752Y-42340571D01*
X190167657Y-42398023D01*
X190225109Y-42398023D01*
X190340014Y-42340571D01*
X190397466Y-42283118D01*
X190454919Y-42168213D01*
X190454919Y-41938404D01*
X190512371Y-41823499D01*
X190569823Y-41766047D01*
X190684728Y-41708594D01*
X190914538Y-41708594D01*
X191029442Y-41766047D01*
X191086895Y-41823499D01*
X191144347Y-41938404D01*
X191144347Y-42168213D01*
X191086895Y-42283118D01*
X191029442Y-42340571D01*
X190914538Y-42398023D01*
X190684728Y-42398023D01*
X190569823Y-42340571D01*
X190512371Y-42283118D01*
X190454919Y-42168213D01*
D16*
X186088209Y-40789460D02*
X186051440Y-40826229D01*
X186014670Y-40899768D01*
X186014670Y-41083616D01*
X186051440Y-41157155D01*
X186088209Y-41193924D01*
X186161748Y-41230694D01*
X186235287Y-41230694D01*
X186345596Y-41193924D01*
X186786830Y-40752690D01*
X186786830Y-41230694D01*
X186796230Y-43392694D02*
X186796230Y-42951460D01*
X186796230Y-43172077D02*
X186024070Y-43172077D01*
X186134379Y-43098538D01*
X186207918Y-43024999D01*
X186244687Y-42951460D01*
X193139457Y-37961555D02*
X193654230Y-37961555D01*
X192845300Y-37777707D02*
X193396843Y-37593860D01*
X193396843Y-38071864D01*
X186024070Y-38441290D02*
X186024070Y-38919294D01*
X186318226Y-38661907D01*
X186318226Y-38772216D01*
X186354996Y-38845755D01*
X186391765Y-38882524D01*
X186465304Y-38919294D01*
X186649152Y-38919294D01*
X186722691Y-38882524D01*
X186759460Y-38845755D01*
X186796230Y-38772216D01*
X186796230Y-38551599D01*
X186759460Y-38478060D01*
X186722691Y-38441290D01*
D13*
X125988333Y-33622380D02*
X125988333Y-34336666D01*
X126035952Y-34479523D01*
X126131190Y-34574761D01*
X126274047Y-34622380D01*
X126369285Y-34622380D01*
X125559761Y-33717619D02*
X125512142Y-33670000D01*
X125416904Y-33622380D01*
X125178809Y-33622380D01*
X125083571Y-33670000D01*
X125035952Y-33717619D01*
X124988333Y-33812857D01*
X124988333Y-33908095D01*
X125035952Y-34050952D01*
X125607380Y-34622380D01*
X124988333Y-34622380D01*
D15*
X191259252Y-67834093D02*
X191201800Y-67719188D01*
X191086895Y-67604284D01*
X190914538Y-67431926D01*
X190857085Y-67317022D01*
X190857085Y-67202117D01*
X191144347Y-67259569D02*
X191086895Y-67144665D01*
X190971990Y-67029760D01*
X190742180Y-66972307D01*
X190340014Y-66972307D01*
X190110204Y-67029760D01*
X189995300Y-67144665D01*
X189937847Y-67259569D01*
X189937847Y-67489379D01*
X189995300Y-67604284D01*
X190110204Y-67719188D01*
X190340014Y-67776641D01*
X190742180Y-67776641D01*
X190971990Y-67719188D01*
X191086895Y-67604284D01*
X191144347Y-67489379D01*
X191144347Y-67259569D01*
X191144347Y-68925688D02*
X191144347Y-68236260D01*
X191144347Y-68580974D02*
X189937847Y-68580974D01*
X190110204Y-68466069D01*
X190225109Y-68351165D01*
X190282561Y-68236260D01*
X189937847Y-69327855D02*
X189937847Y-70074736D01*
X190397466Y-69672569D01*
X190397466Y-69844926D01*
X190454919Y-69959831D01*
X190512371Y-70017284D01*
X190627276Y-70074736D01*
X190914538Y-70074736D01*
X191029442Y-70017284D01*
X191086895Y-69959831D01*
X191144347Y-69844926D01*
X191144347Y-69500212D01*
X191086895Y-69385307D01*
X191029442Y-69327855D01*
D16*
X186088209Y-68466173D02*
X186051440Y-68502942D01*
X186014670Y-68576481D01*
X186014670Y-68760329D01*
X186051440Y-68833868D01*
X186088209Y-68870637D01*
X186161748Y-68907407D01*
X186235287Y-68907407D01*
X186345596Y-68870637D01*
X186786830Y-68429403D01*
X186786830Y-68907407D01*
X186796230Y-71069407D02*
X186796230Y-70628173D01*
X186796230Y-70848790D02*
X186024070Y-70848790D01*
X186134379Y-70775251D01*
X186207918Y-70701712D01*
X186244687Y-70628173D01*
X193139457Y-65638268D02*
X193654230Y-65638268D01*
X192845300Y-65454420D02*
X193396843Y-65270573D01*
X193396843Y-65748577D01*
X186024070Y-66118003D02*
X186024070Y-66596007D01*
X186318226Y-66338620D01*
X186318226Y-66448929D01*
X186354996Y-66522468D01*
X186391765Y-66559237D01*
X186465304Y-66596007D01*
X186649152Y-66596007D01*
X186722691Y-66559237D01*
X186759460Y-66522468D01*
X186796230Y-66448929D01*
X186796230Y-66228312D01*
X186759460Y-66154773D01*
X186722691Y-66118003D01*
D15*
X191259252Y-58608522D02*
X191201800Y-58493617D01*
X191086895Y-58378713D01*
X190914538Y-58206355D01*
X190857085Y-58091451D01*
X190857085Y-57976546D01*
X191144347Y-58033998D02*
X191086895Y-57919094D01*
X190971990Y-57804189D01*
X190742180Y-57746736D01*
X190340014Y-57746736D01*
X190110204Y-57804189D01*
X189995300Y-57919094D01*
X189937847Y-58033998D01*
X189937847Y-58263808D01*
X189995300Y-58378713D01*
X190110204Y-58493617D01*
X190340014Y-58551070D01*
X190742180Y-58551070D01*
X190971990Y-58493617D01*
X191086895Y-58378713D01*
X191144347Y-58263808D01*
X191144347Y-58033998D01*
X191144347Y-59700117D02*
X191144347Y-59010689D01*
X191144347Y-59355403D02*
X189937847Y-59355403D01*
X190110204Y-59240498D01*
X190225109Y-59125594D01*
X190282561Y-59010689D01*
X189937847Y-60791713D02*
X189937847Y-60217189D01*
X190512371Y-60159736D01*
X190454919Y-60217189D01*
X190397466Y-60332094D01*
X190397466Y-60619355D01*
X190454919Y-60734260D01*
X190512371Y-60791713D01*
X190627276Y-60849165D01*
X190914538Y-60849165D01*
X191029442Y-60791713D01*
X191086895Y-60734260D01*
X191144347Y-60619355D01*
X191144347Y-60332094D01*
X191086895Y-60217189D01*
X191029442Y-60159736D01*
D16*
X186088209Y-59240602D02*
X186051440Y-59277371D01*
X186014670Y-59350910D01*
X186014670Y-59534758D01*
X186051440Y-59608297D01*
X186088209Y-59645066D01*
X186161748Y-59681836D01*
X186235287Y-59681836D01*
X186345596Y-59645066D01*
X186786830Y-59203832D01*
X186786830Y-59681836D01*
X186796230Y-61843836D02*
X186796230Y-61402602D01*
X186796230Y-61623219D02*
X186024070Y-61623219D01*
X186134379Y-61549680D01*
X186207918Y-61476141D01*
X186244687Y-61402602D01*
X193139457Y-56412697D02*
X193654230Y-56412697D01*
X192845300Y-56228849D02*
X193396843Y-56045002D01*
X193396843Y-56523006D01*
X186024070Y-56892432D02*
X186024070Y-57370436D01*
X186318226Y-57113049D01*
X186318226Y-57223358D01*
X186354996Y-57296897D01*
X186391765Y-57333666D01*
X186465304Y-57370436D01*
X186649152Y-57370436D01*
X186722691Y-57333666D01*
X186759460Y-57296897D01*
X186796230Y-57223358D01*
X186796230Y-57002741D01*
X186759460Y-56929202D01*
X186722691Y-56892432D01*
D15*
X191259252Y-96659857D02*
X191201800Y-96544952D01*
X191086895Y-96430047D01*
X190914538Y-96257690D01*
X190857085Y-96142785D01*
X190857085Y-96027881D01*
X191144347Y-96085333D02*
X191086895Y-95970428D01*
X190971990Y-95855523D01*
X190742180Y-95798071D01*
X190340014Y-95798071D01*
X190110204Y-95855523D01*
X189995300Y-95970428D01*
X189937847Y-96085333D01*
X189937847Y-96315142D01*
X189995300Y-96430047D01*
X190110204Y-96544952D01*
X190340014Y-96602404D01*
X190742180Y-96602404D01*
X190971990Y-96544952D01*
X191086895Y-96430047D01*
X191144347Y-96315142D01*
X191144347Y-96085333D01*
X189937847Y-97636547D02*
X189937847Y-97406738D01*
X189995300Y-97291833D01*
X190052752Y-97234381D01*
X190225109Y-97119476D01*
X190454919Y-97062023D01*
X190914538Y-97062023D01*
X191029442Y-97119476D01*
X191086895Y-97176928D01*
X191144347Y-97291833D01*
X191144347Y-97521642D01*
X191086895Y-97636547D01*
X191029442Y-97694000D01*
X190914538Y-97751452D01*
X190627276Y-97751452D01*
X190512371Y-97694000D01*
X190454919Y-97636547D01*
X190397466Y-97521642D01*
X190397466Y-97291833D01*
X190454919Y-97176928D01*
X190512371Y-97119476D01*
X190627276Y-97062023D01*
D16*
X186088209Y-96142889D02*
X186051440Y-96179658D01*
X186014670Y-96253197D01*
X186014670Y-96437045D01*
X186051440Y-96510584D01*
X186088209Y-96547353D01*
X186161748Y-96584123D01*
X186235287Y-96584123D01*
X186345596Y-96547353D01*
X186786830Y-96106119D01*
X186786830Y-96584123D01*
X186796230Y-98746123D02*
X186796230Y-98304889D01*
X186796230Y-98525506D02*
X186024070Y-98525506D01*
X186134379Y-98451967D01*
X186207918Y-98378428D01*
X186244687Y-98304889D01*
X193139457Y-93314984D02*
X193654230Y-93314984D01*
X192845300Y-93131136D02*
X193396843Y-92947289D01*
X193396843Y-93425293D01*
X186024070Y-93794719D02*
X186024070Y-94272723D01*
X186318226Y-94015336D01*
X186318226Y-94125645D01*
X186354996Y-94199184D01*
X186391765Y-94235953D01*
X186465304Y-94272723D01*
X186649152Y-94272723D01*
X186722691Y-94235953D01*
X186759460Y-94199184D01*
X186796230Y-94125645D01*
X186796230Y-93905028D01*
X186759460Y-93831489D01*
X186722691Y-93794719D01*
D15*
X191259252Y-87434283D02*
X191201800Y-87319378D01*
X191086895Y-87204473D01*
X190914538Y-87032116D01*
X190857085Y-86917211D01*
X190857085Y-86802307D01*
X191144347Y-86859759D02*
X191086895Y-86744854D01*
X190971990Y-86629949D01*
X190742180Y-86572497D01*
X190340014Y-86572497D01*
X190110204Y-86629949D01*
X189995300Y-86744854D01*
X189937847Y-86859759D01*
X189937847Y-87089568D01*
X189995300Y-87204473D01*
X190110204Y-87319378D01*
X190340014Y-87376830D01*
X190742180Y-87376830D01*
X190971990Y-87319378D01*
X191086895Y-87204473D01*
X191144347Y-87089568D01*
X191144347Y-86859759D01*
X189937847Y-88468426D02*
X189937847Y-87893902D01*
X190512371Y-87836449D01*
X190454919Y-87893902D01*
X190397466Y-88008807D01*
X190397466Y-88296068D01*
X190454919Y-88410973D01*
X190512371Y-88468426D01*
X190627276Y-88525878D01*
X190914538Y-88525878D01*
X191029442Y-88468426D01*
X191086895Y-88410973D01*
X191144347Y-88296068D01*
X191144347Y-88008807D01*
X191086895Y-87893902D01*
X191029442Y-87836449D01*
D16*
X186088209Y-86917315D02*
X186051440Y-86954084D01*
X186014670Y-87027623D01*
X186014670Y-87211471D01*
X186051440Y-87285010D01*
X186088209Y-87321779D01*
X186161748Y-87358549D01*
X186235287Y-87358549D01*
X186345596Y-87321779D01*
X186786830Y-86880545D01*
X186786830Y-87358549D01*
X186796230Y-89520549D02*
X186796230Y-89079315D01*
X186796230Y-89299932D02*
X186024070Y-89299932D01*
X186134379Y-89226393D01*
X186207918Y-89152854D01*
X186244687Y-89079315D01*
X193139457Y-84089410D02*
X193654230Y-84089410D01*
X192845300Y-83905562D02*
X193396843Y-83721715D01*
X193396843Y-84199719D01*
X186024070Y-84569145D02*
X186024070Y-85047149D01*
X186318226Y-84789762D01*
X186318226Y-84900071D01*
X186354996Y-84973610D01*
X186391765Y-85010379D01*
X186465304Y-85047149D01*
X186649152Y-85047149D01*
X186722691Y-85010379D01*
X186759460Y-84973610D01*
X186796230Y-84900071D01*
X186796230Y-84679454D01*
X186759460Y-84605915D01*
X186722691Y-84569145D01*
D15*
X191259252Y-77059664D02*
X191201800Y-76944759D01*
X191086895Y-76829855D01*
X190914538Y-76657497D01*
X190857085Y-76542593D01*
X190857085Y-76427688D01*
X191144347Y-76485140D02*
X191086895Y-76370236D01*
X190971990Y-76255331D01*
X190742180Y-76197878D01*
X190340014Y-76197878D01*
X190110204Y-76255331D01*
X189995300Y-76370236D01*
X189937847Y-76485140D01*
X189937847Y-76714950D01*
X189995300Y-76829855D01*
X190110204Y-76944759D01*
X190340014Y-77002212D01*
X190742180Y-77002212D01*
X190971990Y-76944759D01*
X191086895Y-76829855D01*
X191144347Y-76714950D01*
X191144347Y-76485140D01*
X191144347Y-78151259D02*
X191144347Y-77461831D01*
X191144347Y-77806545D02*
X189937847Y-77806545D01*
X190110204Y-77691640D01*
X190225109Y-77576736D01*
X190282561Y-77461831D01*
X190052752Y-78610878D02*
X189995300Y-78668331D01*
X189937847Y-78783236D01*
X189937847Y-79070497D01*
X189995300Y-79185402D01*
X190052752Y-79242855D01*
X190167657Y-79300307D01*
X190282561Y-79300307D01*
X190454919Y-79242855D01*
X191144347Y-78553426D01*
X191144347Y-79300307D01*
D16*
X186088209Y-77691744D02*
X186051440Y-77728513D01*
X186014670Y-77802052D01*
X186014670Y-77985900D01*
X186051440Y-78059439D01*
X186088209Y-78096208D01*
X186161748Y-78132978D01*
X186235287Y-78132978D01*
X186345596Y-78096208D01*
X186786830Y-77654974D01*
X186786830Y-78132978D01*
X186796230Y-80294978D02*
X186796230Y-79853744D01*
X186796230Y-80074361D02*
X186024070Y-80074361D01*
X186134379Y-80000822D01*
X186207918Y-79927283D01*
X186244687Y-79853744D01*
X193139457Y-74863839D02*
X193654230Y-74863839D01*
X192845300Y-74679991D02*
X193396843Y-74496144D01*
X193396843Y-74974148D01*
X186024070Y-75343574D02*
X186024070Y-75821578D01*
X186318226Y-75564191D01*
X186318226Y-75674500D01*
X186354996Y-75748039D01*
X186391765Y-75784808D01*
X186465304Y-75821578D01*
X186649152Y-75821578D01*
X186722691Y-75784808D01*
X186759460Y-75748039D01*
X186796230Y-75674500D01*
X186796230Y-75453883D01*
X186759460Y-75380344D01*
X186722691Y-75343574D01*
M02*
