G04 #@! TF.GenerationSoftware,KiCad,Pcbnew,5.1.6-c6e7f7d~86~ubuntu18.04.1*
G04 #@! TF.CreationDate,2020-07-03T23:55:57+02:00*
G04 #@! TF.ProjectId,Speeduino_base,53706565-6475-4696-9e6f-5f626173652e,rev?*
G04 #@! TF.SameCoordinates,Original*
G04 #@! TF.FileFunction,Paste,Bot*
G04 #@! TF.FilePolarity,Positive*
%FSLAX46Y46*%
G04 Gerber Fmt 4.6, Leading zero omitted, Abs format (unit mm)*
G04 Created by KiCad (PCBNEW 5.1.6-c6e7f7d~86~ubuntu18.04.1) date 2020-07-03 23:55:57*
%MOMM*%
%LPD*%
G01*
G04 APERTURE LIST*
%ADD10R,1.900000X0.800000*%
%ADD11R,2.200000X3.600000*%
%ADD12R,2.235200X1.219200*%
G04 APERTURE END LIST*
G36*
G01*
X188092500Y-44166625D02*
X188092500Y-44833375D01*
G75*
G02*
X187981375Y-44944500I-111125J0D01*
G01*
X187314625Y-44944500D01*
G75*
G02*
X187203500Y-44833375I0J111125D01*
G01*
X187203500Y-44166625D01*
G75*
G02*
X187314625Y-44055500I111125J0D01*
G01*
X187981375Y-44055500D01*
G75*
G02*
X188092500Y-44166625I0J-111125D01*
G01*
G37*
G36*
G01*
X189616500Y-44166625D02*
X189616500Y-44833375D01*
G75*
G02*
X189505375Y-44944500I-111125J0D01*
G01*
X188838625Y-44944500D01*
G75*
G02*
X188727500Y-44833375I0J111125D01*
G01*
X188727500Y-44166625D01*
G75*
G02*
X188838625Y-44055500I111125J0D01*
G01*
X189505375Y-44055500D01*
G75*
G02*
X189616500Y-44166625I0J-111125D01*
G01*
G37*
G36*
G01*
X188582500Y-25716625D02*
X188582500Y-26383375D01*
G75*
G02*
X188471375Y-26494500I-111125J0D01*
G01*
X187804625Y-26494500D01*
G75*
G02*
X187693500Y-26383375I0J111125D01*
G01*
X187693500Y-25716625D01*
G75*
G02*
X187804625Y-25605500I111125J0D01*
G01*
X188471375Y-25605500D01*
G75*
G02*
X188582500Y-25716625I0J-111125D01*
G01*
G37*
G36*
G01*
X190106500Y-25716625D02*
X190106500Y-26383375D01*
G75*
G02*
X189995375Y-26494500I-111125J0D01*
G01*
X189328625Y-26494500D01*
G75*
G02*
X189217500Y-26383375I0J111125D01*
G01*
X189217500Y-25716625D01*
G75*
G02*
X189328625Y-25605500I111125J0D01*
G01*
X189995375Y-25605500D01*
G75*
G02*
X190106500Y-25716625I0J-111125D01*
G01*
G37*
G36*
G01*
X188657500Y-35196625D02*
X188657500Y-35863375D01*
G75*
G02*
X188546375Y-35974500I-111125J0D01*
G01*
X187879625Y-35974500D01*
G75*
G02*
X187768500Y-35863375I0J111125D01*
G01*
X187768500Y-35196625D01*
G75*
G02*
X187879625Y-35085500I111125J0D01*
G01*
X188546375Y-35085500D01*
G75*
G02*
X188657500Y-35196625I0J-111125D01*
G01*
G37*
G36*
G01*
X190181500Y-35196625D02*
X190181500Y-35863375D01*
G75*
G02*
X190070375Y-35974500I-111125J0D01*
G01*
X189403625Y-35974500D01*
G75*
G02*
X189292500Y-35863375I0J111125D01*
G01*
X189292500Y-35196625D01*
G75*
G02*
X189403625Y-35085500I111125J0D01*
G01*
X190070375Y-35085500D01*
G75*
G02*
X190181500Y-35196625I0J-111125D01*
G01*
G37*
G36*
G01*
X188327500Y-53486625D02*
X188327500Y-54153375D01*
G75*
G02*
X188216375Y-54264500I-111125J0D01*
G01*
X187549625Y-54264500D01*
G75*
G02*
X187438500Y-54153375I0J111125D01*
G01*
X187438500Y-53486625D01*
G75*
G02*
X187549625Y-53375500I111125J0D01*
G01*
X188216375Y-53375500D01*
G75*
G02*
X188327500Y-53486625I0J-111125D01*
G01*
G37*
G36*
G01*
X189851500Y-53486625D02*
X189851500Y-54153375D01*
G75*
G02*
X189740375Y-54264500I-111125J0D01*
G01*
X189073625Y-54264500D01*
G75*
G02*
X188962500Y-54153375I0J111125D01*
G01*
X188962500Y-53486625D01*
G75*
G02*
X189073625Y-53375500I111125J0D01*
G01*
X189740375Y-53375500D01*
G75*
G02*
X189851500Y-53486625I0J-111125D01*
G01*
G37*
D10*
X192950000Y-26525000D03*
X195950000Y-27475000D03*
X195950000Y-25575000D03*
X192800000Y-44750000D03*
X195800000Y-45700000D03*
X195800000Y-43800000D03*
X192950000Y-53825000D03*
X195950000Y-54775000D03*
X195950000Y-52875000D03*
X192850000Y-35500000D03*
X195850000Y-36450000D03*
X195850000Y-34550000D03*
D11*
X194250000Y-30925000D03*
D12*
X188052200Y-28613600D03*
X188052200Y-30925000D03*
X188052200Y-33236400D03*
D11*
X194250000Y-49376142D03*
D12*
X188052200Y-47064742D03*
X188052200Y-49376142D03*
X188052200Y-51687542D03*
D11*
X194250000Y-40150571D03*
D12*
X188052200Y-37839171D03*
X188052200Y-40150571D03*
X188052200Y-42461971D03*
D11*
X194250000Y-67827284D03*
D12*
X188052200Y-65515884D03*
X188052200Y-67827284D03*
X188052200Y-70138684D03*
D11*
X194250000Y-58601713D03*
D12*
X188052200Y-56290313D03*
X188052200Y-58601713D03*
X188052200Y-60913113D03*
D11*
X194250000Y-95504000D03*
D12*
X188052200Y-93192600D03*
X188052200Y-95504000D03*
X188052200Y-97815400D03*
D11*
X194250000Y-86278426D03*
D12*
X188052200Y-83967026D03*
X188052200Y-86278426D03*
X188052200Y-88589826D03*
D11*
X194250000Y-77052855D03*
D12*
X188052200Y-74741455D03*
X188052200Y-77052855D03*
X188052200Y-79364255D03*
M02*
