M48
INCH,TZ
T1C0.0157
T2C0.0315
T3C0.0394
T4C0.0400
T5C0.0433
T6C0.0472
T7C0.0492
T8C0.0866
T9C0.1575
%
G90
G05
T1
X45256Y-32531
X45594Y-28890
X45720Y-24728
X45750Y-36623
X46102Y-36372
X46154Y-21776
X46189Y-7669
X46476Y-23579
X46657Y-39169
X46894Y-35669
X46907Y-36043
X47008Y-37969
X47177Y-14764
X47248Y-41244
X47260Y-7602
X47323Y-25992
X47346Y-18406
X47488Y-20953
X47496Y-29051
X47563Y-30756
X47673Y-30028
X47681Y-26398
X47882Y-24984
X48331Y-37362
X48335Y-33591
X48354Y-35130
X48429Y-25512
X48528Y-10980
X48953Y-31354
X49248Y-25488
X49346Y-32039
X49370Y-30669
X49634Y-26102
X49677Y-28193
X49724Y-27579
X49925Y-28925
X50236Y-31972
X50902Y-34335
X50949Y-34878
X51913Y-24717
X51917Y-9799
X51969Y-25476
X52126Y-26610
X52217Y-31874
X52441Y-8614
X52642Y-20169
X52661Y-23220
X52713Y-36173
X52972Y-23819
X53461Y-8673
X53591Y-24799
X53606Y-22768
X54031Y-34488
X54106Y-40669
X54370Y-36098
X54465Y-8866
X54496Y-18724
X54524Y-21173
X54528Y-41354
X54591Y-14059
X54740Y-30228
X54772Y-19752
X54795Y-9709
X54908Y-7249
X55500Y-20764
X55685Y-21657
X55748Y-22815
X55760Y-15087
X55791Y-26929
X55793Y-24876
X56105Y-28035
X56114Y-27661
X56224Y-20110
X56282Y-18887
X56402Y-13547
X56516Y-17303
X56516Y-40925
X56520Y-26185
X56563Y-21638
X56618Y-27142
X56634Y-17673
X56650Y-14469
X56909Y-29606
X56949Y-8823
X57110Y-27331
X57138Y-20929
X57154Y-36173
X57374Y-10594
X57630Y-19252
X57720Y-42409
X57794Y-15093
X58016Y-19906
X58236Y-13264
X58272Y-17815
X58299Y-16378
X58390Y-28839
X58445Y-26717
X58740Y-15457
X59016Y-13649
X59056Y-19618
X59098Y-10409
X59118Y-15364
X59142Y-36870
X59157Y-28969
X59291Y-30744
X59409Y-14421
X59831Y-8057
X59858Y-41425
X59878Y-34957
X59925Y-13650
X59945Y-9114
X60217Y-36650
X60291Y-16240
X60394Y-19953
X60402Y-19461
X60425Y-35161
X60531Y-29331
X60539Y-32488
X60543Y-39909
X60559Y-23882
X60559Y-33287
X60571Y-26583
X60571Y-30268
X60587Y-15106
X60637Y-9368
X60673Y-13374
X60894Y-15535
X60941Y-36720
X60984Y-23815
X60992Y-14421
X61358Y-23841
X61421Y-8937
X61500Y-30374
X61535Y-20665
X61543Y-32551
X61547Y-39449
X61626Y-26831
X61701Y-24902
X61753Y-23846
X61772Y-29520
X62055Y-20795
X62159Y-15108
X62174Y-41386
X62283Y-8941
X62287Y-13630
X62398Y-29350
X62398Y-30894
X62398Y-36079
X62402Y-10394
X62402Y-34240
X62406Y-32622
X62492Y-36732
X62508Y-15375
X62746Y-41425
X62835Y-26850
X62882Y-15376
X63177Y-35150
X63232Y-33213
X63236Y-14421
X63287Y-31756
X63299Y-28098
X63308Y-27560
X63323Y-36705
X63335Y-9976
X63358Y-16236
X63461Y-32787
X63528Y-35980
X63551Y-29697
X63564Y-27833
X63646Y-30476
X63732Y-37150
X63866Y-36732
X63915Y-26392
X63957Y-15114
X64055Y-25217
X64157Y-8667
X64157Y-40016
X64266Y-22476
X64331Y-10677
X64378Y-22878
X64429Y-39226
X64472Y-33772
X64531Y-16278
X64547Y-32394
X64594Y-14000
X64634Y-33047
X64681Y-31760
X64705Y-35961
X64807Y-16025
X64978Y-14616
X65024Y-28091
X65065Y-16301
X65094Y-13720
X65181Y-9720
X65205Y-29697
X65409Y-15203
X65409Y-16106
X65409Y-31709
X65409Y-35039
X65468Y-13729
X65752Y-10835
X65811Y-24228
X65823Y-15150
X65823Y-27797
X65823Y-29823
X65835Y-33075
X66224Y-42193
X66236Y-30756
X66244Y-31413
X66311Y-19311
X66366Y-39610
X66394Y-34917
X66425Y-17106
X66465Y-18031
X66600Y-25300
X66740Y-31799
X66740Y-32445
X66752Y-36201
X66756Y-33642
X66768Y-28878
X66854Y-24783
X66886Y-35437
X66902Y-14421
X66917Y-39299
X66974Y-26677
X67063Y-29283
X67415Y-26169
X67571Y-24469
X68000Y-22200
X68020Y-17043
X68043Y-28449
X68118Y-27146
X68173Y-33091
X68189Y-20378
X68268Y-24000
X68295Y-19134
X68299Y-23252
X68346Y-39248
X68390Y-9728
X68425Y-18307
X68461Y-21594
X68476Y-32445
X68512Y-19969
X68559Y-22144
X68559Y-35583
X68689Y-20909
X68760Y-27374
X68815Y-31996
X68906Y-29024
X68921Y-18441
X68929Y-42213
X69091Y-22409
X69213Y-41780
X69344Y-14329
X69524Y-25724
X69652Y-18642
X69661Y-16610
X69685Y-17665
X69827Y-25390
X69902Y-26516
X69961Y-27039
X70130Y-25075
X70209Y-14319
X70287Y-40445
X70299Y-19453
X70374Y-24740
X70484Y-22681
X70587Y-15795
X70807Y-22374
X70807Y-27370
X70852Y-21035
X70902Y-30712
X71000Y-15632
X71047Y-16453
X71059Y-26307
X71098Y-14634
X71130Y-22075
X71220Y-20677
X71224Y-35724
X71240Y-33238
X71244Y-15933
X71260Y-29024
X71374Y-32504
X71600Y-18800
X71626Y-40346
X71728Y-36685
X71847Y-25393
X71909Y-13937
X72008Y-42016
X72071Y-14331
X72110Y-29642
X72378Y-25114
X72417Y-42594
X72780Y-37614
X72900Y-16000
X72989Y-27182
X72989Y-30712
X72989Y-33904
X73004Y-38008
X73098Y-42766
X73616Y-12663
X73630Y-20335
X73705Y-23878
X73709Y-16720
X73709Y-28980
X73831Y-36091
X73866Y-32484
X73984Y-28087
X74760Y-38504
X74831Y-36011
X74835Y-12772
X74888Y-36672
X74890Y-29966
X74965Y-11689
X75016Y-31673
X75024Y-16260
X75201Y-23717
X75268Y-22079
X75276Y-27709
X75343Y-31299
X75425Y-32524
X75475Y-15176
X75571Y-28539
X75906Y-17618
X75925Y-13976
X75965Y-10443
X75965Y-21191
X76120Y-40358
X76157Y-25380
X76181Y-35720
X76382Y-13209
X76600Y-24307
X76966Y-41243
X77304Y-24584
X77382Y-11437
X77874Y-39531
X77961Y-18122
X78465Y-17429
X78906Y-11665
X78969Y-39268
X79346Y-36642
X79965Y-21181
X80150Y-38862
X80173Y-12201
X80516Y-16169
X80957Y-21169
X81421Y-12937
X81421Y-16827
X82098Y-23937
X82138Y-22504
X82193Y-38181
X82697Y-21701
X82856Y-24519
X82867Y-24102
X83177Y-25827
X83226Y-30376
X83378Y-24654
X83384Y-29914
X83504Y-26244
T2
X67060Y-16272
X67060Y-17272
X67060Y-18272
X67060Y-19272
X67060Y-20272
X67060Y-21272
X67060Y-22272
X67060Y-23272
X72060Y-16272
X72060Y-17272
X72060Y-18272
X72060Y-19272
X72060Y-20272
X72060Y-21272
X72060Y-22272
X72060Y-23272
X78874Y-9736
X81827Y-10287
T3
X51831Y-40236
X52831Y-40236
X53002Y-14309
X53002Y-15309
X53002Y-16309
X53002Y-17309
X53002Y-18309
X53002Y-19309
X48970Y-14370
X48970Y-15370
X48970Y-16370
X48970Y-17370
X49970Y-14370
X49970Y-15370
X49970Y-16370
X49970Y-17370
X49167Y-40246
X50167Y-40246
X56250Y-31150
X56250Y-32150
X56250Y-33150
X56250Y-34150
X56250Y-35150
X56250Y-36150
T4
X49236Y-11311
X49236Y-12311
X50236Y-11311
X50236Y-12311
X51236Y-11311
X51236Y-12311
X52236Y-11311
X52236Y-12311
X53236Y-11311
X53236Y-12311
X54236Y-11311
X54236Y-12311
X55236Y-11311
X55236Y-12311
X56236Y-11311
X56236Y-12311
X57236Y-11311
X57236Y-12311
X58236Y-11311
X58236Y-12311
X59236Y-11311
X59236Y-12311
X60236Y-11311
X60236Y-12311
X61236Y-11311
X61236Y-12311
X62236Y-11311
X62236Y-12311
X63236Y-11311
X63236Y-12311
X64236Y-11311
X64236Y-12311
X65236Y-11311
X65236Y-12311
X66236Y-11311
X66236Y-12311
X67236Y-11311
X67236Y-12311
X68236Y-11311
X68236Y-12311
X69236Y-11311
X69236Y-12311
X70236Y-11311
X70236Y-12311
X71236Y-11311
X71236Y-12311
X72236Y-11311
X72236Y-12311
X49236Y-37492
X49236Y-38492
X50236Y-37492
X50236Y-38492
X51236Y-37492
X51236Y-38492
X52236Y-37492
X52236Y-38492
X53236Y-37492
X53236Y-38492
X54236Y-37492
X54236Y-38492
X55236Y-37492
X55236Y-38492
X56236Y-37492
X56236Y-38492
X57236Y-37492
X57236Y-38492
X58236Y-37492
X58236Y-38492
X59236Y-37492
X59236Y-38492
X60236Y-37492
X60236Y-38492
X61236Y-37492
X61236Y-38492
X62236Y-37492
X62236Y-38492
X63236Y-37492
X63236Y-38492
X64236Y-37492
X64236Y-38492
X65236Y-37492
X65236Y-38492
X66236Y-37492
X66236Y-38492
X67236Y-37492
X67236Y-38492
X68236Y-37492
X68236Y-38492
X69236Y-37492
X69236Y-38492
X70236Y-37492
X70236Y-38492
X71236Y-37492
X71236Y-38492
X72236Y-37492
X72236Y-38492
T5
X51161Y-21486
X51161Y-22486
X51161Y-23486
T6
X78421Y-21846
X78421Y-22846
X78421Y-23846
X78421Y-24846
X78421Y-25846
X78421Y-26846
X78421Y-27846
X78421Y-28846
X78421Y-29846
X78421Y-30846
X79421Y-21846
X79421Y-22846
X79421Y-23846
X79421Y-24846
X79421Y-25846
X79421Y-26846
X79421Y-27846
X79421Y-28846
X79421Y-29846
X79421Y-30846
X80421Y-21846
X80421Y-22846
X80421Y-23846
X80421Y-24846
X80421Y-25846
X80421Y-26846
X80421Y-27846
X80421Y-28846
X80421Y-29846
X80421Y-30846
X81421Y-21846
X81421Y-22846
X81421Y-23846
X81421Y-24846
X81421Y-25846
X81421Y-26846
X81421Y-27846
X81421Y-28846
X81421Y-29846
X81421Y-30846
T7
X78421Y-19012
X78421Y-20469
X79421Y-19012
X79421Y-20469
X80421Y-19012
X80421Y-20469
X81421Y-19012
X81421Y-20469
T8
X78012Y-16614
X78012Y-33386
T9
X79528Y-15000
X79528Y-35000
T0
M30
