M48
INCH,TZ
T1C0.0157
T2C0.0320
T3C0.0354
T4C0.0394
T5C0.0400
T6C0.0472
T7C0.0492
T8C0.0866
T9C0.1575
%
G90
G05
T1
X46000Y-34600
X46300Y-41500
X46363Y-40100
X46691Y-30191
X46700Y-33000
X46700Y-35400
X46900Y-36200
X47900Y-33600
X47900Y-36800
X49500Y-35200
X49600Y-29200
X49600Y-30200
X49600Y-31500
X49600Y-32400
X49700Y-34100
X50500Y-35800
X51300Y-32600
X51530Y-31773
X51850Y-35500
X52150Y-30850
X52666Y-39341
X52837Y-32623
X53236Y-15536
X53250Y-34050
X53410Y-42000
X53500Y-40200
X53676Y-40574
X53700Y-7150
X53700Y-9650
X53750Y-39250
X53750Y-39800
X53900Y-42450
X54500Y-15650
X54600Y-34750
X54850Y-10673
X54889Y-32557
X55006Y-31730
X55150Y-13750
X55213Y-19524
X55550Y-17950
X55550Y-41650
X55650Y-7850
X55702Y-39235
X55855Y-17108
X56671Y-18839
X56800Y-27200
X57050Y-15600
X57100Y-14500
X57400Y-26250
X57500Y-17550
X57600Y-9900
X57600Y-20100
X57900Y-13711
X58022Y-41627
X58450Y-15600
X58625Y-9906
X58816Y-34150
X59170Y-26749
X59249Y-41637
X59650Y-24850
X59700Y-26900
X59700Y-28250
X59750Y-13700
X59788Y-19288
X59800Y-18200
X59900Y-21650
X60066Y-18556
X60200Y-17100
X60250Y-26900
X60250Y-28200
X60263Y-23588
X60308Y-19241
X60537Y-39863
X60600Y-15600
X60783Y-10069
X61238Y-28814
X61284Y-24650
X61643Y-29800
X61734Y-19250
X61800Y-13700
X61800Y-17750
X62050Y-20650
X62100Y-18350
X62100Y-25350
X62200Y-35600
X62269Y-8619
X62332Y-29793
X62366Y-20200
X62400Y-19200
X62526Y-32651
X62566Y-30452
X62700Y-33200
X62700Y-34300
X62850Y-15650
X62881Y-30654
X62950Y-6919
X62969Y-28910
X63000Y-39700
X63050Y-31500
X63200Y-24700
X63200Y-40650
X63339Y-32427
X63450Y-8650
X63650Y-30150
X63850Y-19250
X63900Y-18200
X63950Y-21200
X64100Y-24700
X64250Y-13700
X64480Y-29284
X64600Y-40300
X64626Y-15624
X64650Y-8700
X64700Y-37000
X64970Y-39064
X65077Y-30699
X65275Y-28281
X65350Y-35150
X65550Y-33400
X65650Y-15600
X65700Y-7500
X65787Y-20200
X65900Y-13600
X65961Y-22147
X65996Y-33692
X66200Y-25100
X66600Y-26750
X66613Y-19600
X66613Y-20300
X66613Y-20700
X66669Y-30880
X66700Y-22900
X66727Y-16227
X66800Y-21200
X66825Y-40134
X66899Y-7171
X67200Y-10350
X67244Y-9105
X67500Y-32800
X67781Y-32418
X67800Y-39300
X67850Y-32050
X68262Y-9105
X68300Y-15500
X68434Y-29792
X68500Y-27950
X68650Y-40400
X68866Y-10066
X68900Y-35520
X68950Y-39700
X68993Y-8262
X69000Y-23750
X69076Y-26659
X69200Y-8800
X69350Y-28002
X69393Y-36770
X69950Y-30450
X70029Y-28079
X70048Y-31513
X70197Y-36435
X70250Y-33950
X70300Y-34500
X70300Y-35825
X70444Y-31409
X70987Y-28090
X71100Y-32200
X71313Y-25179
X71409Y-23466
X71464Y-31953
X71634Y-29316
X71700Y-31600
X71759Y-24293
X71867Y-27633
X71931Y-25131
X72000Y-21913
X72000Y-29950
X72000Y-31300
X72166Y-29582
X72603Y-26210
X72650Y-26550
X72700Y-26900
X73000Y-26600
X73050Y-37100
X73200Y-34900
X73500Y-36600
X73606Y-11959
X73704Y-27100
X73745Y-31940
X73763Y-14947
X73900Y-34267
X73971Y-30526
X73984Y-30900
X73984Y-31445
X74338Y-23700
X74521Y-25975
X75000Y-36950
X75100Y-41450
X75238Y-34638
X75400Y-27157
X75450Y-42000
X75600Y-40801
X75766Y-34485
X76050Y-23100
X76100Y-39900
X76114Y-33105
X76500Y-14600
X76500Y-42431
X76622Y-28725
X76925Y-32923
X77047Y-33277
X77150Y-27285
X77350Y-24450
X77400Y-12100
X77500Y-35250
X77500Y-40800
X77512Y-30252
X77562Y-25218
X77568Y-27972
X77650Y-34100
X77805Y-40400
X78975Y-40656
X79100Y-31650
X79650Y-31850
X80350Y-37100
X80523Y-31567
X80700Y-40300
X80900Y-41200
T2
X72000Y-20100
X75000Y-20100
T3
X64700Y-18200
X64700Y-19200
X64700Y-20200
X64700Y-21200
X64700Y-22200
X64700Y-23200
X64700Y-24200
X64700Y-25200
X69700Y-18200
X69700Y-19200
X69700Y-20200
X69700Y-21200
X69700Y-22200
X69700Y-23200
X69700Y-24200
X69700Y-25200
T4
X63800Y-42050
X64800Y-42050
X65800Y-42050
X66800Y-42050
X52600Y-36000
X53600Y-36000
X54600Y-36000
X55600Y-36000
X56600Y-36000
X57600Y-36000
X50150Y-39950
X50150Y-40950
X51750Y-39950
X51750Y-40950
T5
X49236Y-11311
X49236Y-12311
X50236Y-11311
X50236Y-12311
X51236Y-11311
X51236Y-12311
X52236Y-11311
X52236Y-12311
X53236Y-11311
X53236Y-12311
X54236Y-11311
X54236Y-12311
X55236Y-11311
X55236Y-12311
X56236Y-11311
X56236Y-12311
X57236Y-11311
X57236Y-12311
X58236Y-11311
X58236Y-12311
X59236Y-11311
X59236Y-12311
X60236Y-11311
X60236Y-12311
X61236Y-11311
X61236Y-12311
X62236Y-11311
X62236Y-12311
X63236Y-11311
X63236Y-12311
X64236Y-11311
X64236Y-12311
X65236Y-11311
X65236Y-12311
X66236Y-11311
X66236Y-12311
X67236Y-11311
X67236Y-12311
X68236Y-11311
X68236Y-12311
X69236Y-11311
X69236Y-12311
X70236Y-11311
X70236Y-12311
X71236Y-11311
X71236Y-12311
X72236Y-11311
X72236Y-12311
X49236Y-37492
X49236Y-38492
X50236Y-37492
X50236Y-38492
X51236Y-37492
X51236Y-38492
X52236Y-37492
X52236Y-38492
X53236Y-37492
X53236Y-38492
X54236Y-37492
X54236Y-38492
X55236Y-37492
X55236Y-38492
X56236Y-37492
X56236Y-38492
X57236Y-37492
X57236Y-38492
X58236Y-37492
X58236Y-38492
X59236Y-37492
X59236Y-38492
X60236Y-37492
X60236Y-38492
X61236Y-37492
X61236Y-38492
X62236Y-37492
X62236Y-38492
X63236Y-37492
X63236Y-38492
X64236Y-37492
X64236Y-38492
X65236Y-37492
X65236Y-38492
X66236Y-37492
X66236Y-38492
X67236Y-37492
X67236Y-38492
X68236Y-37492
X68236Y-38492
X69236Y-37492
X69236Y-38492
X70236Y-37492
X70236Y-38492
X71236Y-37492
X71236Y-38492
X72236Y-37492
X72236Y-38492
T6
X78421Y-21846
X78421Y-22846
X78421Y-23846
X78421Y-24846
X78421Y-25846
X78421Y-26846
X78421Y-27846
X78421Y-28846
X78421Y-29846
X78421Y-30846
X79421Y-21846
X79421Y-22846
X79421Y-23846
X79421Y-24846
X79421Y-25846
X79421Y-26846
X79421Y-27846
X79421Y-28846
X79421Y-29846
X79421Y-30846
X80421Y-21846
X80421Y-22846
X80421Y-23846
X80421Y-24846
X80421Y-25846
X80421Y-26846
X80421Y-27846
X80421Y-28846
X80421Y-29846
X80421Y-30846
X81421Y-21846
X81421Y-22846
X81421Y-23846
X81421Y-24846
X81421Y-25846
X81421Y-26846
X81421Y-27846
X81421Y-28846
X81421Y-29846
X81421Y-30846
T7
X78421Y-19012
X78421Y-20469
X79421Y-19012
X79421Y-20469
X80421Y-19012
X80421Y-20469
X81421Y-19012
X81421Y-20469
T8
X78012Y-16614
X78012Y-33386
T9
X79528Y-15000
X79528Y-35000
T0
M30
